%TF.GenerationSoftware,KiCad,Pcbnew,9.0.5*%
%TF.CreationDate,2026-01-31T08:10:59-05:00*%
%TF.ProjectId,DisplayBoard,44697370-6c61-4794-926f-6172642e6b69,rev?*%
%TF.SameCoordinates,Original*%
%TF.FileFunction,Legend,Top*%
%TF.FilePolarity,Positive*%
%FSLAX46Y46*%
G04 Gerber Fmt 4.6, Leading zero omitted, Abs format (unit mm)*
G04 Created by KiCad (PCBNEW 9.0.5) date 2026-01-31 08:10:59*
%MOMM*%
%LPD*%
G01*
G04 APERTURE LIST*
%ADD10C,0.100000*%
%ADD11C,0.150000*%
%ADD12C,0.152400*%
%ADD13C,0.120000*%
%ADD14C,0.127000*%
%ADD15C,0.200000*%
%ADD16C,0.000000*%
G04 APERTURE END LIST*
D10*
X269250000Y-73000000D02*
X275000000Y-73000000D01*
X215000000Y-88000000D02*
X207250000Y-88000000D01*
X215000000Y-73000000D02*
X275000000Y-73000000D01*
X275000000Y-103000000D01*
X215000000Y-103000000D01*
X215000000Y-73000000D01*
X267125312Y-115277180D02*
X267077693Y-115324800D01*
X267077693Y-115324800D02*
X266934836Y-115372419D01*
X266934836Y-115372419D02*
X266839598Y-115372419D01*
X266839598Y-115372419D02*
X266696741Y-115324800D01*
X266696741Y-115324800D02*
X266601503Y-115229561D01*
X266601503Y-115229561D02*
X266553884Y-115134323D01*
X266553884Y-115134323D02*
X266506265Y-114943847D01*
X266506265Y-114943847D02*
X266506265Y-114800990D01*
X266506265Y-114800990D02*
X266553884Y-114610514D01*
X266553884Y-114610514D02*
X266601503Y-114515276D01*
X266601503Y-114515276D02*
X266696741Y-114420038D01*
X266696741Y-114420038D02*
X266839598Y-114372419D01*
X266839598Y-114372419D02*
X266934836Y-114372419D01*
X266934836Y-114372419D02*
X267077693Y-114420038D01*
X267077693Y-114420038D02*
X267125312Y-114467657D01*
X267696741Y-115372419D02*
X267601503Y-115324800D01*
X267601503Y-115324800D02*
X267553884Y-115229561D01*
X267553884Y-115229561D02*
X267553884Y-114372419D01*
X268506265Y-115372419D02*
X268506265Y-114848609D01*
X268506265Y-114848609D02*
X268458646Y-114753371D01*
X268458646Y-114753371D02*
X268363408Y-114705752D01*
X268363408Y-114705752D02*
X268172932Y-114705752D01*
X268172932Y-114705752D02*
X268077694Y-114753371D01*
X268506265Y-115324800D02*
X268411027Y-115372419D01*
X268411027Y-115372419D02*
X268172932Y-115372419D01*
X268172932Y-115372419D02*
X268077694Y-115324800D01*
X268077694Y-115324800D02*
X268030075Y-115229561D01*
X268030075Y-115229561D02*
X268030075Y-115134323D01*
X268030075Y-115134323D02*
X268077694Y-115039085D01*
X268077694Y-115039085D02*
X268172932Y-114991466D01*
X268172932Y-114991466D02*
X268411027Y-114991466D01*
X268411027Y-114991466D02*
X268506265Y-114943847D01*
X268982456Y-115372419D02*
X268982456Y-114705752D01*
X268982456Y-114372419D02*
X268934837Y-114420038D01*
X268934837Y-114420038D02*
X268982456Y-114467657D01*
X268982456Y-114467657D02*
X269030075Y-114420038D01*
X269030075Y-114420038D02*
X268982456Y-114372419D01*
X268982456Y-114372419D02*
X268982456Y-114467657D01*
X269458646Y-115372419D02*
X269458646Y-114705752D01*
X269458646Y-114896228D02*
X269506265Y-114800990D01*
X269506265Y-114800990D02*
X269553884Y-114753371D01*
X269553884Y-114753371D02*
X269649122Y-114705752D01*
X269649122Y-114705752D02*
X269744360Y-114705752D01*
X270458646Y-115324800D02*
X270363408Y-115372419D01*
X270363408Y-115372419D02*
X270172932Y-115372419D01*
X270172932Y-115372419D02*
X270077694Y-115324800D01*
X270077694Y-115324800D02*
X270030075Y-115229561D01*
X270030075Y-115229561D02*
X270030075Y-114848609D01*
X270030075Y-114848609D02*
X270077694Y-114753371D01*
X270077694Y-114753371D02*
X270172932Y-114705752D01*
X270172932Y-114705752D02*
X270363408Y-114705752D01*
X270363408Y-114705752D02*
X270458646Y-114753371D01*
X270458646Y-114753371D02*
X270506265Y-114848609D01*
X270506265Y-114848609D02*
X270506265Y-114943847D01*
X270506265Y-114943847D02*
X270030075Y-115039085D01*
D11*
X193907200Y-117595237D02*
X193954819Y-117452380D01*
X193954819Y-117452380D02*
X193954819Y-117214285D01*
X193954819Y-117214285D02*
X193907200Y-117119047D01*
X193907200Y-117119047D02*
X193859580Y-117071428D01*
X193859580Y-117071428D02*
X193764342Y-117023809D01*
X193764342Y-117023809D02*
X193669104Y-117023809D01*
X193669104Y-117023809D02*
X193573866Y-117071428D01*
X193573866Y-117071428D02*
X193526247Y-117119047D01*
X193526247Y-117119047D02*
X193478628Y-117214285D01*
X193478628Y-117214285D02*
X193431009Y-117404761D01*
X193431009Y-117404761D02*
X193383390Y-117499999D01*
X193383390Y-117499999D02*
X193335771Y-117547618D01*
X193335771Y-117547618D02*
X193240533Y-117595237D01*
X193240533Y-117595237D02*
X193145295Y-117595237D01*
X193145295Y-117595237D02*
X193050057Y-117547618D01*
X193050057Y-117547618D02*
X193002438Y-117499999D01*
X193002438Y-117499999D02*
X192954819Y-117404761D01*
X192954819Y-117404761D02*
X192954819Y-117166666D01*
X192954819Y-117166666D02*
X193002438Y-117023809D01*
X193954819Y-116023809D02*
X193478628Y-116357142D01*
X193954819Y-116595237D02*
X192954819Y-116595237D01*
X192954819Y-116595237D02*
X192954819Y-116214285D01*
X192954819Y-116214285D02*
X193002438Y-116119047D01*
X193002438Y-116119047D02*
X193050057Y-116071428D01*
X193050057Y-116071428D02*
X193145295Y-116023809D01*
X193145295Y-116023809D02*
X193288152Y-116023809D01*
X193288152Y-116023809D02*
X193383390Y-116071428D01*
X193383390Y-116071428D02*
X193431009Y-116119047D01*
X193431009Y-116119047D02*
X193478628Y-116214285D01*
X193478628Y-116214285D02*
X193478628Y-116595237D01*
X193954819Y-115595237D02*
X192954819Y-115595237D01*
X192954819Y-115595237D02*
X192954819Y-115214285D01*
X192954819Y-115214285D02*
X193002438Y-115119047D01*
X193002438Y-115119047D02*
X193050057Y-115071428D01*
X193050057Y-115071428D02*
X193145295Y-115023809D01*
X193145295Y-115023809D02*
X193288152Y-115023809D01*
X193288152Y-115023809D02*
X193383390Y-115071428D01*
X193383390Y-115071428D02*
X193431009Y-115119047D01*
X193431009Y-115119047D02*
X193478628Y-115214285D01*
X193478628Y-115214285D02*
X193478628Y-115595237D01*
X192954819Y-114690475D02*
X192954819Y-114071428D01*
X192954819Y-114071428D02*
X193335771Y-114404761D01*
X193335771Y-114404761D02*
X193335771Y-114261904D01*
X193335771Y-114261904D02*
X193383390Y-114166666D01*
X193383390Y-114166666D02*
X193431009Y-114119047D01*
X193431009Y-114119047D02*
X193526247Y-114071428D01*
X193526247Y-114071428D02*
X193764342Y-114071428D01*
X193764342Y-114071428D02*
X193859580Y-114119047D01*
X193859580Y-114119047D02*
X193907200Y-114166666D01*
X193907200Y-114166666D02*
X193954819Y-114261904D01*
X193954819Y-114261904D02*
X193954819Y-114547618D01*
X193954819Y-114547618D02*
X193907200Y-114642856D01*
X193907200Y-114642856D02*
X193859580Y-114690475D01*
X192954819Y-113452380D02*
X192954819Y-113357142D01*
X192954819Y-113357142D02*
X193002438Y-113261904D01*
X193002438Y-113261904D02*
X193050057Y-113214285D01*
X193050057Y-113214285D02*
X193145295Y-113166666D01*
X193145295Y-113166666D02*
X193335771Y-113119047D01*
X193335771Y-113119047D02*
X193573866Y-113119047D01*
X193573866Y-113119047D02*
X193764342Y-113166666D01*
X193764342Y-113166666D02*
X193859580Y-113214285D01*
X193859580Y-113214285D02*
X193907200Y-113261904D01*
X193907200Y-113261904D02*
X193954819Y-113357142D01*
X193954819Y-113357142D02*
X193954819Y-113452380D01*
X193954819Y-113452380D02*
X193907200Y-113547618D01*
X193907200Y-113547618D02*
X193859580Y-113595237D01*
X193859580Y-113595237D02*
X193764342Y-113642856D01*
X193764342Y-113642856D02*
X193573866Y-113690475D01*
X193573866Y-113690475D02*
X193335771Y-113690475D01*
X193335771Y-113690475D02*
X193145295Y-113642856D01*
X193145295Y-113642856D02*
X193050057Y-113595237D01*
X193050057Y-113595237D02*
X193002438Y-113547618D01*
X193002438Y-113547618D02*
X192954819Y-113452380D01*
X193954819Y-112166666D02*
X193954819Y-112738094D01*
X193954819Y-112452380D02*
X192954819Y-112452380D01*
X192954819Y-112452380D02*
X193097676Y-112547618D01*
X193097676Y-112547618D02*
X193192914Y-112642856D01*
X193192914Y-112642856D02*
X193240533Y-112738094D01*
X193050057Y-111785713D02*
X193002438Y-111738094D01*
X193002438Y-111738094D02*
X192954819Y-111642856D01*
X192954819Y-111642856D02*
X192954819Y-111404761D01*
X192954819Y-111404761D02*
X193002438Y-111309523D01*
X193002438Y-111309523D02*
X193050057Y-111261904D01*
X193050057Y-111261904D02*
X193145295Y-111214285D01*
X193145295Y-111214285D02*
X193240533Y-111214285D01*
X193240533Y-111214285D02*
X193383390Y-111261904D01*
X193383390Y-111261904D02*
X193954819Y-111833332D01*
X193954819Y-111833332D02*
X193954819Y-111214285D01*
X192954819Y-110928570D02*
X192954819Y-110357142D01*
X193954819Y-110642856D02*
X192954819Y-110642856D01*
X193669104Y-110071427D02*
X193669104Y-109595237D01*
X193954819Y-110166665D02*
X192954819Y-109833332D01*
X192954819Y-109833332D02*
X193954819Y-109499999D01*
X193573866Y-109166665D02*
X193573866Y-108404761D01*
X193954819Y-107404761D02*
X193954819Y-107976189D01*
X193954819Y-107690475D02*
X192954819Y-107690475D01*
X192954819Y-107690475D02*
X193097676Y-107785713D01*
X193097676Y-107785713D02*
X193192914Y-107880951D01*
X193192914Y-107880951D02*
X193240533Y-107976189D01*
X192954819Y-106785713D02*
X192954819Y-106690475D01*
X192954819Y-106690475D02*
X193002438Y-106595237D01*
X193002438Y-106595237D02*
X193050057Y-106547618D01*
X193050057Y-106547618D02*
X193145295Y-106499999D01*
X193145295Y-106499999D02*
X193335771Y-106452380D01*
X193335771Y-106452380D02*
X193573866Y-106452380D01*
X193573866Y-106452380D02*
X193764342Y-106499999D01*
X193764342Y-106499999D02*
X193859580Y-106547618D01*
X193859580Y-106547618D02*
X193907200Y-106595237D01*
X193907200Y-106595237D02*
X193954819Y-106690475D01*
X193954819Y-106690475D02*
X193954819Y-106785713D01*
X193954819Y-106785713D02*
X193907200Y-106880951D01*
X193907200Y-106880951D02*
X193859580Y-106928570D01*
X193859580Y-106928570D02*
X193764342Y-106976189D01*
X193764342Y-106976189D02*
X193573866Y-107023808D01*
X193573866Y-107023808D02*
X193335771Y-107023808D01*
X193335771Y-107023808D02*
X193145295Y-106976189D01*
X193145295Y-106976189D02*
X193050057Y-106928570D01*
X193050057Y-106928570D02*
X193002438Y-106880951D01*
X193002438Y-106880951D02*
X192954819Y-106785713D01*
X192954819Y-105833332D02*
X192954819Y-105738094D01*
X192954819Y-105738094D02*
X193002438Y-105642856D01*
X193002438Y-105642856D02*
X193050057Y-105595237D01*
X193050057Y-105595237D02*
X193145295Y-105547618D01*
X193145295Y-105547618D02*
X193335771Y-105499999D01*
X193335771Y-105499999D02*
X193573866Y-105499999D01*
X193573866Y-105499999D02*
X193764342Y-105547618D01*
X193764342Y-105547618D02*
X193859580Y-105595237D01*
X193859580Y-105595237D02*
X193907200Y-105642856D01*
X193907200Y-105642856D02*
X193954819Y-105738094D01*
X193954819Y-105738094D02*
X193954819Y-105833332D01*
X193954819Y-105833332D02*
X193907200Y-105928570D01*
X193907200Y-105928570D02*
X193859580Y-105976189D01*
X193859580Y-105976189D02*
X193764342Y-106023808D01*
X193764342Y-106023808D02*
X193573866Y-106071427D01*
X193573866Y-106071427D02*
X193335771Y-106071427D01*
X193335771Y-106071427D02*
X193145295Y-106023808D01*
X193145295Y-106023808D02*
X193050057Y-105976189D01*
X193050057Y-105976189D02*
X193002438Y-105928570D01*
X193002438Y-105928570D02*
X192954819Y-105833332D01*
X193954819Y-105071427D02*
X192954819Y-105071427D01*
X192954819Y-105071427D02*
X193669104Y-104738094D01*
X193669104Y-104738094D02*
X192954819Y-104404761D01*
X192954819Y-104404761D02*
X193954819Y-104404761D01*
X193954819Y-103404761D02*
X193954819Y-103976189D01*
X193954819Y-103690475D02*
X192954819Y-103690475D01*
X192954819Y-103690475D02*
X193097676Y-103785713D01*
X193097676Y-103785713D02*
X193192914Y-103880951D01*
X193192914Y-103880951D02*
X193240533Y-103976189D01*
D10*
X204055357Y-73547514D02*
X203998214Y-73518942D01*
X203998214Y-73518942D02*
X203941071Y-73461800D01*
X203941071Y-73461800D02*
X203855357Y-73376085D01*
X203855357Y-73376085D02*
X203798214Y-73347514D01*
X203798214Y-73347514D02*
X203741071Y-73347514D01*
X203769642Y-73490371D02*
X203712500Y-73461800D01*
X203712500Y-73461800D02*
X203655357Y-73404657D01*
X203655357Y-73404657D02*
X203626785Y-73290371D01*
X203626785Y-73290371D02*
X203626785Y-73090371D01*
X203626785Y-73090371D02*
X203655357Y-72976085D01*
X203655357Y-72976085D02*
X203712500Y-72918942D01*
X203712500Y-72918942D02*
X203769642Y-72890371D01*
X203769642Y-72890371D02*
X203883928Y-72890371D01*
X203883928Y-72890371D02*
X203941071Y-72918942D01*
X203941071Y-72918942D02*
X203998214Y-72976085D01*
X203998214Y-72976085D02*
X204026785Y-73090371D01*
X204026785Y-73090371D02*
X204026785Y-73290371D01*
X204026785Y-73290371D02*
X203998214Y-73404657D01*
X203998214Y-73404657D02*
X203941071Y-73461800D01*
X203941071Y-73461800D02*
X203883928Y-73490371D01*
X203883928Y-73490371D02*
X203769642Y-73490371D01*
X204598213Y-73490371D02*
X204255356Y-73490371D01*
X204426785Y-73490371D02*
X204426785Y-72890371D01*
X204426785Y-72890371D02*
X204369642Y-72976085D01*
X204369642Y-72976085D02*
X204312499Y-73033228D01*
X204312499Y-73033228D02*
X204255356Y-73061800D01*
X200700000Y-86235228D02*
X200671428Y-86263800D01*
X200671428Y-86263800D02*
X200585714Y-86292371D01*
X200585714Y-86292371D02*
X200528571Y-86292371D01*
X200528571Y-86292371D02*
X200442857Y-86263800D01*
X200442857Y-86263800D02*
X200385714Y-86206657D01*
X200385714Y-86206657D02*
X200357143Y-86149514D01*
X200357143Y-86149514D02*
X200328571Y-86035228D01*
X200328571Y-86035228D02*
X200328571Y-85949514D01*
X200328571Y-85949514D02*
X200357143Y-85835228D01*
X200357143Y-85835228D02*
X200385714Y-85778085D01*
X200385714Y-85778085D02*
X200442857Y-85720942D01*
X200442857Y-85720942D02*
X200528571Y-85692371D01*
X200528571Y-85692371D02*
X200585714Y-85692371D01*
X200585714Y-85692371D02*
X200671428Y-85720942D01*
X200671428Y-85720942D02*
X200700000Y-85749514D01*
X201271428Y-86292371D02*
X200928571Y-86292371D01*
X201100000Y-86292371D02*
X201100000Y-85692371D01*
X201100000Y-85692371D02*
X201042857Y-85778085D01*
X201042857Y-85778085D02*
X200985714Y-85835228D01*
X200985714Y-85835228D02*
X200928571Y-85863800D01*
X205900000Y-108772371D02*
X205700000Y-108486657D01*
X205557143Y-108772371D02*
X205557143Y-108172371D01*
X205557143Y-108172371D02*
X205785714Y-108172371D01*
X205785714Y-108172371D02*
X205842857Y-108200942D01*
X205842857Y-108200942D02*
X205871428Y-108229514D01*
X205871428Y-108229514D02*
X205900000Y-108286657D01*
X205900000Y-108286657D02*
X205900000Y-108372371D01*
X205900000Y-108372371D02*
X205871428Y-108429514D01*
X205871428Y-108429514D02*
X205842857Y-108458085D01*
X205842857Y-108458085D02*
X205785714Y-108486657D01*
X205785714Y-108486657D02*
X205557143Y-108486657D01*
X206128571Y-108229514D02*
X206157143Y-108200942D01*
X206157143Y-108200942D02*
X206214286Y-108172371D01*
X206214286Y-108172371D02*
X206357143Y-108172371D01*
X206357143Y-108172371D02*
X206414286Y-108200942D01*
X206414286Y-108200942D02*
X206442857Y-108229514D01*
X206442857Y-108229514D02*
X206471428Y-108286657D01*
X206471428Y-108286657D02*
X206471428Y-108343800D01*
X206471428Y-108343800D02*
X206442857Y-108429514D01*
X206442857Y-108429514D02*
X206100000Y-108772371D01*
X206100000Y-108772371D02*
X206471428Y-108772371D01*
D11*
X204798276Y-87963332D02*
X205255419Y-87963332D01*
X205255419Y-87963332D02*
X205346847Y-87993809D01*
X205346847Y-87993809D02*
X205407800Y-88054761D01*
X205407800Y-88054761D02*
X205438276Y-88146190D01*
X205438276Y-88146190D02*
X205438276Y-88207142D01*
X205438276Y-87323332D02*
X205438276Y-87689047D01*
X205438276Y-87506190D02*
X204798276Y-87506190D01*
X204798276Y-87506190D02*
X204889704Y-87567142D01*
X204889704Y-87567142D02*
X204950657Y-87628094D01*
X204950657Y-87628094D02*
X204981133Y-87689047D01*
D10*
X219400000Y-106038371D02*
X219200000Y-105752657D01*
X219057143Y-106038371D02*
X219057143Y-105438371D01*
X219057143Y-105438371D02*
X219285714Y-105438371D01*
X219285714Y-105438371D02*
X219342857Y-105466942D01*
X219342857Y-105466942D02*
X219371428Y-105495514D01*
X219371428Y-105495514D02*
X219400000Y-105552657D01*
X219400000Y-105552657D02*
X219400000Y-105638371D01*
X219400000Y-105638371D02*
X219371428Y-105695514D01*
X219371428Y-105695514D02*
X219342857Y-105724085D01*
X219342857Y-105724085D02*
X219285714Y-105752657D01*
X219285714Y-105752657D02*
X219057143Y-105752657D01*
X219600000Y-105438371D02*
X219971428Y-105438371D01*
X219971428Y-105438371D02*
X219771428Y-105666942D01*
X219771428Y-105666942D02*
X219857143Y-105666942D01*
X219857143Y-105666942D02*
X219914286Y-105695514D01*
X219914286Y-105695514D02*
X219942857Y-105724085D01*
X219942857Y-105724085D02*
X219971428Y-105781228D01*
X219971428Y-105781228D02*
X219971428Y-105924085D01*
X219971428Y-105924085D02*
X219942857Y-105981228D01*
X219942857Y-105981228D02*
X219914286Y-106009800D01*
X219914286Y-106009800D02*
X219857143Y-106038371D01*
X219857143Y-106038371D02*
X219685714Y-106038371D01*
X219685714Y-106038371D02*
X219628571Y-106009800D01*
X219628571Y-106009800D02*
X219600000Y-105981228D01*
X212964285Y-113859371D02*
X213164285Y-114459371D01*
X213164285Y-114459371D02*
X213364285Y-113859371D01*
X213907143Y-114459371D02*
X213707143Y-114173657D01*
X213564286Y-114459371D02*
X213564286Y-113859371D01*
X213564286Y-113859371D02*
X213792857Y-113859371D01*
X213792857Y-113859371D02*
X213850000Y-113887942D01*
X213850000Y-113887942D02*
X213878571Y-113916514D01*
X213878571Y-113916514D02*
X213907143Y-113973657D01*
X213907143Y-113973657D02*
X213907143Y-114059371D01*
X213907143Y-114059371D02*
X213878571Y-114116514D01*
X213878571Y-114116514D02*
X213850000Y-114145085D01*
X213850000Y-114145085D02*
X213792857Y-114173657D01*
X213792857Y-114173657D02*
X213564286Y-114173657D01*
X214478571Y-114459371D02*
X214135714Y-114459371D01*
X214307143Y-114459371D02*
X214307143Y-113859371D01*
X214307143Y-113859371D02*
X214250000Y-113945085D01*
X214250000Y-113945085D02*
X214192857Y-114002228D01*
X214192857Y-114002228D02*
X214135714Y-114030800D01*
X200200000Y-92965228D02*
X200171428Y-92993800D01*
X200171428Y-92993800D02*
X200085714Y-93022371D01*
X200085714Y-93022371D02*
X200028571Y-93022371D01*
X200028571Y-93022371D02*
X199942857Y-92993800D01*
X199942857Y-92993800D02*
X199885714Y-92936657D01*
X199885714Y-92936657D02*
X199857143Y-92879514D01*
X199857143Y-92879514D02*
X199828571Y-92765228D01*
X199828571Y-92765228D02*
X199828571Y-92679514D01*
X199828571Y-92679514D02*
X199857143Y-92565228D01*
X199857143Y-92565228D02*
X199885714Y-92508085D01*
X199885714Y-92508085D02*
X199942857Y-92450942D01*
X199942857Y-92450942D02*
X200028571Y-92422371D01*
X200028571Y-92422371D02*
X200085714Y-92422371D01*
X200085714Y-92422371D02*
X200171428Y-92450942D01*
X200171428Y-92450942D02*
X200200000Y-92479514D01*
X200400000Y-92422371D02*
X200771428Y-92422371D01*
X200771428Y-92422371D02*
X200571428Y-92650942D01*
X200571428Y-92650942D02*
X200657143Y-92650942D01*
X200657143Y-92650942D02*
X200714286Y-92679514D01*
X200714286Y-92679514D02*
X200742857Y-92708085D01*
X200742857Y-92708085D02*
X200771428Y-92765228D01*
X200771428Y-92765228D02*
X200771428Y-92908085D01*
X200771428Y-92908085D02*
X200742857Y-92965228D01*
X200742857Y-92965228D02*
X200714286Y-92993800D01*
X200714286Y-92993800D02*
X200657143Y-93022371D01*
X200657143Y-93022371D02*
X200485714Y-93022371D01*
X200485714Y-93022371D02*
X200428571Y-92993800D01*
X200428571Y-92993800D02*
X200400000Y-92965228D01*
X200700000Y-95465228D02*
X200671428Y-95493800D01*
X200671428Y-95493800D02*
X200585714Y-95522371D01*
X200585714Y-95522371D02*
X200528571Y-95522371D01*
X200528571Y-95522371D02*
X200442857Y-95493800D01*
X200442857Y-95493800D02*
X200385714Y-95436657D01*
X200385714Y-95436657D02*
X200357143Y-95379514D01*
X200357143Y-95379514D02*
X200328571Y-95265228D01*
X200328571Y-95265228D02*
X200328571Y-95179514D01*
X200328571Y-95179514D02*
X200357143Y-95065228D01*
X200357143Y-95065228D02*
X200385714Y-95008085D01*
X200385714Y-95008085D02*
X200442857Y-94950942D01*
X200442857Y-94950942D02*
X200528571Y-94922371D01*
X200528571Y-94922371D02*
X200585714Y-94922371D01*
X200585714Y-94922371D02*
X200671428Y-94950942D01*
X200671428Y-94950942D02*
X200700000Y-94979514D01*
X201214286Y-95122371D02*
X201214286Y-95522371D01*
X201071428Y-94893800D02*
X200928571Y-95322371D01*
X200928571Y-95322371D02*
X201300000Y-95322371D01*
X228539999Y-107243800D02*
X228625714Y-107272371D01*
X228625714Y-107272371D02*
X228768571Y-107272371D01*
X228768571Y-107272371D02*
X228825714Y-107243800D01*
X228825714Y-107243800D02*
X228854285Y-107215228D01*
X228854285Y-107215228D02*
X228882856Y-107158085D01*
X228882856Y-107158085D02*
X228882856Y-107100942D01*
X228882856Y-107100942D02*
X228854285Y-107043800D01*
X228854285Y-107043800D02*
X228825714Y-107015228D01*
X228825714Y-107015228D02*
X228768571Y-106986657D01*
X228768571Y-106986657D02*
X228654285Y-106958085D01*
X228654285Y-106958085D02*
X228597142Y-106929514D01*
X228597142Y-106929514D02*
X228568571Y-106900942D01*
X228568571Y-106900942D02*
X228539999Y-106843800D01*
X228539999Y-106843800D02*
X228539999Y-106786657D01*
X228539999Y-106786657D02*
X228568571Y-106729514D01*
X228568571Y-106729514D02*
X228597142Y-106700942D01*
X228597142Y-106700942D02*
X228654285Y-106672371D01*
X228654285Y-106672371D02*
X228797142Y-106672371D01*
X228797142Y-106672371D02*
X228882856Y-106700942D01*
X229082857Y-106672371D02*
X229225714Y-107272371D01*
X229225714Y-107272371D02*
X229340000Y-106843800D01*
X229340000Y-106843800D02*
X229454285Y-107272371D01*
X229454285Y-107272371D02*
X229597143Y-106672371D01*
X230139999Y-107272371D02*
X229797142Y-107272371D01*
X229968571Y-107272371D02*
X229968571Y-106672371D01*
X229968571Y-106672371D02*
X229911428Y-106758085D01*
X229911428Y-106758085D02*
X229854285Y-106815228D01*
X229854285Y-106815228D02*
X229797142Y-106843800D01*
X218695228Y-113135714D02*
X218723800Y-113164286D01*
X218723800Y-113164286D02*
X218752371Y-113250000D01*
X218752371Y-113250000D02*
X218752371Y-113307143D01*
X218752371Y-113307143D02*
X218723800Y-113392857D01*
X218723800Y-113392857D02*
X218666657Y-113450000D01*
X218666657Y-113450000D02*
X218609514Y-113478571D01*
X218609514Y-113478571D02*
X218495228Y-113507143D01*
X218495228Y-113507143D02*
X218409514Y-113507143D01*
X218409514Y-113507143D02*
X218295228Y-113478571D01*
X218295228Y-113478571D02*
X218238085Y-113450000D01*
X218238085Y-113450000D02*
X218180942Y-113392857D01*
X218180942Y-113392857D02*
X218152371Y-113307143D01*
X218152371Y-113307143D02*
X218152371Y-113250000D01*
X218152371Y-113250000D02*
X218180942Y-113164286D01*
X218180942Y-113164286D02*
X218209514Y-113135714D01*
X218752371Y-112564286D02*
X218752371Y-112907143D01*
X218752371Y-112735714D02*
X218152371Y-112735714D01*
X218152371Y-112735714D02*
X218238085Y-112792857D01*
X218238085Y-112792857D02*
X218295228Y-112850000D01*
X218295228Y-112850000D02*
X218323800Y-112907143D01*
X218209514Y-112335714D02*
X218180942Y-112307142D01*
X218180942Y-112307142D02*
X218152371Y-112250000D01*
X218152371Y-112250000D02*
X218152371Y-112107142D01*
X218152371Y-112107142D02*
X218180942Y-112050000D01*
X218180942Y-112050000D02*
X218209514Y-112021428D01*
X218209514Y-112021428D02*
X218266657Y-111992857D01*
X218266657Y-111992857D02*
X218323800Y-111992857D01*
X218323800Y-111992857D02*
X218409514Y-112021428D01*
X218409514Y-112021428D02*
X218752371Y-112364285D01*
X218752371Y-112364285D02*
X218752371Y-111992857D01*
D11*
X187210839Y-84830895D02*
X186734649Y-84830895D01*
X187306077Y-84545180D02*
X186972744Y-85545180D01*
X186972744Y-85545180D02*
X186639411Y-84545180D01*
X185782268Y-84545180D02*
X186353696Y-84545180D01*
X186067982Y-84545180D02*
X186067982Y-85545180D01*
X186067982Y-85545180D02*
X186163220Y-85402323D01*
X186163220Y-85402323D02*
X186258458Y-85307085D01*
X186258458Y-85307085D02*
X186353696Y-85259466D01*
D10*
X205150000Y-103695228D02*
X205121428Y-103723800D01*
X205121428Y-103723800D02*
X205035714Y-103752371D01*
X205035714Y-103752371D02*
X204978571Y-103752371D01*
X204978571Y-103752371D02*
X204892857Y-103723800D01*
X204892857Y-103723800D02*
X204835714Y-103666657D01*
X204835714Y-103666657D02*
X204807143Y-103609514D01*
X204807143Y-103609514D02*
X204778571Y-103495228D01*
X204778571Y-103495228D02*
X204778571Y-103409514D01*
X204778571Y-103409514D02*
X204807143Y-103295228D01*
X204807143Y-103295228D02*
X204835714Y-103238085D01*
X204835714Y-103238085D02*
X204892857Y-103180942D01*
X204892857Y-103180942D02*
X204978571Y-103152371D01*
X204978571Y-103152371D02*
X205035714Y-103152371D01*
X205035714Y-103152371D02*
X205121428Y-103180942D01*
X205121428Y-103180942D02*
X205150000Y-103209514D01*
X205492857Y-103409514D02*
X205435714Y-103380942D01*
X205435714Y-103380942D02*
X205407143Y-103352371D01*
X205407143Y-103352371D02*
X205378571Y-103295228D01*
X205378571Y-103295228D02*
X205378571Y-103266657D01*
X205378571Y-103266657D02*
X205407143Y-103209514D01*
X205407143Y-103209514D02*
X205435714Y-103180942D01*
X205435714Y-103180942D02*
X205492857Y-103152371D01*
X205492857Y-103152371D02*
X205607143Y-103152371D01*
X205607143Y-103152371D02*
X205664286Y-103180942D01*
X205664286Y-103180942D02*
X205692857Y-103209514D01*
X205692857Y-103209514D02*
X205721428Y-103266657D01*
X205721428Y-103266657D02*
X205721428Y-103295228D01*
X205721428Y-103295228D02*
X205692857Y-103352371D01*
X205692857Y-103352371D02*
X205664286Y-103380942D01*
X205664286Y-103380942D02*
X205607143Y-103409514D01*
X205607143Y-103409514D02*
X205492857Y-103409514D01*
X205492857Y-103409514D02*
X205435714Y-103438085D01*
X205435714Y-103438085D02*
X205407143Y-103466657D01*
X205407143Y-103466657D02*
X205378571Y-103523800D01*
X205378571Y-103523800D02*
X205378571Y-103638085D01*
X205378571Y-103638085D02*
X205407143Y-103695228D01*
X205407143Y-103695228D02*
X205435714Y-103723800D01*
X205435714Y-103723800D02*
X205492857Y-103752371D01*
X205492857Y-103752371D02*
X205607143Y-103752371D01*
X205607143Y-103752371D02*
X205664286Y-103723800D01*
X205664286Y-103723800D02*
X205692857Y-103695228D01*
X205692857Y-103695228D02*
X205721428Y-103638085D01*
X205721428Y-103638085D02*
X205721428Y-103523800D01*
X205721428Y-103523800D02*
X205692857Y-103466657D01*
X205692857Y-103466657D02*
X205664286Y-103438085D01*
X205664286Y-103438085D02*
X205607143Y-103409514D01*
X202187500Y-80419371D02*
X201987500Y-80133657D01*
X201844643Y-80419371D02*
X201844643Y-79819371D01*
X201844643Y-79819371D02*
X202073214Y-79819371D01*
X202073214Y-79819371D02*
X202130357Y-79847942D01*
X202130357Y-79847942D02*
X202158928Y-79876514D01*
X202158928Y-79876514D02*
X202187500Y-79933657D01*
X202187500Y-79933657D02*
X202187500Y-80019371D01*
X202187500Y-80019371D02*
X202158928Y-80076514D01*
X202158928Y-80076514D02*
X202130357Y-80105085D01*
X202130357Y-80105085D02*
X202073214Y-80133657D01*
X202073214Y-80133657D02*
X201844643Y-80133657D01*
X202758928Y-80419371D02*
X202416071Y-80419371D01*
X202587500Y-80419371D02*
X202587500Y-79819371D01*
X202587500Y-79819371D02*
X202530357Y-79905085D01*
X202530357Y-79905085D02*
X202473214Y-79962228D01*
X202473214Y-79962228D02*
X202416071Y-79990800D01*
X205650000Y-115465228D02*
X205621428Y-115493800D01*
X205621428Y-115493800D02*
X205535714Y-115522371D01*
X205535714Y-115522371D02*
X205478571Y-115522371D01*
X205478571Y-115522371D02*
X205392857Y-115493800D01*
X205392857Y-115493800D02*
X205335714Y-115436657D01*
X205335714Y-115436657D02*
X205307143Y-115379514D01*
X205307143Y-115379514D02*
X205278571Y-115265228D01*
X205278571Y-115265228D02*
X205278571Y-115179514D01*
X205278571Y-115179514D02*
X205307143Y-115065228D01*
X205307143Y-115065228D02*
X205335714Y-115008085D01*
X205335714Y-115008085D02*
X205392857Y-114950942D01*
X205392857Y-114950942D02*
X205478571Y-114922371D01*
X205478571Y-114922371D02*
X205535714Y-114922371D01*
X205535714Y-114922371D02*
X205621428Y-114950942D01*
X205621428Y-114950942D02*
X205650000Y-114979514D01*
X205935714Y-115522371D02*
X206050000Y-115522371D01*
X206050000Y-115522371D02*
X206107143Y-115493800D01*
X206107143Y-115493800D02*
X206135714Y-115465228D01*
X206135714Y-115465228D02*
X206192857Y-115379514D01*
X206192857Y-115379514D02*
X206221428Y-115265228D01*
X206221428Y-115265228D02*
X206221428Y-115036657D01*
X206221428Y-115036657D02*
X206192857Y-114979514D01*
X206192857Y-114979514D02*
X206164286Y-114950942D01*
X206164286Y-114950942D02*
X206107143Y-114922371D01*
X206107143Y-114922371D02*
X205992857Y-114922371D01*
X205992857Y-114922371D02*
X205935714Y-114950942D01*
X205935714Y-114950942D02*
X205907143Y-114979514D01*
X205907143Y-114979514D02*
X205878571Y-115036657D01*
X205878571Y-115036657D02*
X205878571Y-115179514D01*
X205878571Y-115179514D02*
X205907143Y-115236657D01*
X205907143Y-115236657D02*
X205935714Y-115265228D01*
X205935714Y-115265228D02*
X205992857Y-115293800D01*
X205992857Y-115293800D02*
X206107143Y-115293800D01*
X206107143Y-115293800D02*
X206164286Y-115265228D01*
X206164286Y-115265228D02*
X206192857Y-115236657D01*
X206192857Y-115236657D02*
X206221428Y-115179514D01*
X229299999Y-113172371D02*
X229299999Y-113600942D01*
X229299999Y-113600942D02*
X229271428Y-113686657D01*
X229271428Y-113686657D02*
X229214285Y-113743800D01*
X229214285Y-113743800D02*
X229128571Y-113772371D01*
X229128571Y-113772371D02*
X229071428Y-113772371D01*
X229557142Y-113229514D02*
X229585714Y-113200942D01*
X229585714Y-113200942D02*
X229642857Y-113172371D01*
X229642857Y-113172371D02*
X229785714Y-113172371D01*
X229785714Y-113172371D02*
X229842857Y-113200942D01*
X229842857Y-113200942D02*
X229871428Y-113229514D01*
X229871428Y-113229514D02*
X229899999Y-113286657D01*
X229899999Y-113286657D02*
X229899999Y-113343800D01*
X229899999Y-113343800D02*
X229871428Y-113429514D01*
X229871428Y-113429514D02*
X229528571Y-113772371D01*
X229528571Y-113772371D02*
X229899999Y-113772371D01*
D11*
X232325714Y-113954819D02*
X231754286Y-113954819D01*
X232040000Y-113954819D02*
X232040000Y-112954819D01*
X232040000Y-112954819D02*
X231944762Y-113097676D01*
X231944762Y-113097676D02*
X231849524Y-113192914D01*
X231849524Y-113192914D02*
X231754286Y-113240533D01*
D10*
X200815228Y-108749999D02*
X200843800Y-108778571D01*
X200843800Y-108778571D02*
X200872371Y-108864285D01*
X200872371Y-108864285D02*
X200872371Y-108921428D01*
X200872371Y-108921428D02*
X200843800Y-109007142D01*
X200843800Y-109007142D02*
X200786657Y-109064285D01*
X200786657Y-109064285D02*
X200729514Y-109092856D01*
X200729514Y-109092856D02*
X200615228Y-109121428D01*
X200615228Y-109121428D02*
X200529514Y-109121428D01*
X200529514Y-109121428D02*
X200415228Y-109092856D01*
X200415228Y-109092856D02*
X200358085Y-109064285D01*
X200358085Y-109064285D02*
X200300942Y-109007142D01*
X200300942Y-109007142D02*
X200272371Y-108921428D01*
X200272371Y-108921428D02*
X200272371Y-108864285D01*
X200272371Y-108864285D02*
X200300942Y-108778571D01*
X200300942Y-108778571D02*
X200329514Y-108749999D01*
X200272371Y-108549999D02*
X200272371Y-108149999D01*
X200272371Y-108149999D02*
X200872371Y-108407142D01*
X200200000Y-90465228D02*
X200171428Y-90493800D01*
X200171428Y-90493800D02*
X200085714Y-90522371D01*
X200085714Y-90522371D02*
X200028571Y-90522371D01*
X200028571Y-90522371D02*
X199942857Y-90493800D01*
X199942857Y-90493800D02*
X199885714Y-90436657D01*
X199885714Y-90436657D02*
X199857143Y-90379514D01*
X199857143Y-90379514D02*
X199828571Y-90265228D01*
X199828571Y-90265228D02*
X199828571Y-90179514D01*
X199828571Y-90179514D02*
X199857143Y-90065228D01*
X199857143Y-90065228D02*
X199885714Y-90008085D01*
X199885714Y-90008085D02*
X199942857Y-89950942D01*
X199942857Y-89950942D02*
X200028571Y-89922371D01*
X200028571Y-89922371D02*
X200085714Y-89922371D01*
X200085714Y-89922371D02*
X200171428Y-89950942D01*
X200171428Y-89950942D02*
X200200000Y-89979514D01*
X200428571Y-89979514D02*
X200457143Y-89950942D01*
X200457143Y-89950942D02*
X200514286Y-89922371D01*
X200514286Y-89922371D02*
X200657143Y-89922371D01*
X200657143Y-89922371D02*
X200714286Y-89950942D01*
X200714286Y-89950942D02*
X200742857Y-89979514D01*
X200742857Y-89979514D02*
X200771428Y-90036657D01*
X200771428Y-90036657D02*
X200771428Y-90093800D01*
X200771428Y-90093800D02*
X200742857Y-90179514D01*
X200742857Y-90179514D02*
X200400000Y-90522371D01*
X200400000Y-90522371D02*
X200771428Y-90522371D01*
X200914285Y-115465228D02*
X200885713Y-115493800D01*
X200885713Y-115493800D02*
X200799999Y-115522371D01*
X200799999Y-115522371D02*
X200742856Y-115522371D01*
X200742856Y-115522371D02*
X200657142Y-115493800D01*
X200657142Y-115493800D02*
X200599999Y-115436657D01*
X200599999Y-115436657D02*
X200571428Y-115379514D01*
X200571428Y-115379514D02*
X200542856Y-115265228D01*
X200542856Y-115265228D02*
X200542856Y-115179514D01*
X200542856Y-115179514D02*
X200571428Y-115065228D01*
X200571428Y-115065228D02*
X200599999Y-115008085D01*
X200599999Y-115008085D02*
X200657142Y-114950942D01*
X200657142Y-114950942D02*
X200742856Y-114922371D01*
X200742856Y-114922371D02*
X200799999Y-114922371D01*
X200799999Y-114922371D02*
X200885713Y-114950942D01*
X200885713Y-114950942D02*
X200914285Y-114979514D01*
X201485713Y-115522371D02*
X201142856Y-115522371D01*
X201314285Y-115522371D02*
X201314285Y-114922371D01*
X201314285Y-114922371D02*
X201257142Y-115008085D01*
X201257142Y-115008085D02*
X201199999Y-115065228D01*
X201199999Y-115065228D02*
X201142856Y-115093800D01*
X201857142Y-114922371D02*
X201914285Y-114922371D01*
X201914285Y-114922371D02*
X201971428Y-114950942D01*
X201971428Y-114950942D02*
X202000000Y-114979514D01*
X202000000Y-114979514D02*
X202028571Y-115036657D01*
X202028571Y-115036657D02*
X202057142Y-115150942D01*
X202057142Y-115150942D02*
X202057142Y-115293800D01*
X202057142Y-115293800D02*
X202028571Y-115408085D01*
X202028571Y-115408085D02*
X202000000Y-115465228D01*
X202000000Y-115465228D02*
X201971428Y-115493800D01*
X201971428Y-115493800D02*
X201914285Y-115522371D01*
X201914285Y-115522371D02*
X201857142Y-115522371D01*
X201857142Y-115522371D02*
X201800000Y-115493800D01*
X201800000Y-115493800D02*
X201771428Y-115465228D01*
X201771428Y-115465228D02*
X201742857Y-115408085D01*
X201742857Y-115408085D02*
X201714285Y-115293800D01*
X201714285Y-115293800D02*
X201714285Y-115150942D01*
X201714285Y-115150942D02*
X201742857Y-115036657D01*
X201742857Y-115036657D02*
X201771428Y-114979514D01*
X201771428Y-114979514D02*
X201800000Y-114950942D01*
X201800000Y-114950942D02*
X201857142Y-114922371D01*
X205200000Y-96965228D02*
X205171428Y-96993800D01*
X205171428Y-96993800D02*
X205085714Y-97022371D01*
X205085714Y-97022371D02*
X205028571Y-97022371D01*
X205028571Y-97022371D02*
X204942857Y-96993800D01*
X204942857Y-96993800D02*
X204885714Y-96936657D01*
X204885714Y-96936657D02*
X204857143Y-96879514D01*
X204857143Y-96879514D02*
X204828571Y-96765228D01*
X204828571Y-96765228D02*
X204828571Y-96679514D01*
X204828571Y-96679514D02*
X204857143Y-96565228D01*
X204857143Y-96565228D02*
X204885714Y-96508085D01*
X204885714Y-96508085D02*
X204942857Y-96450942D01*
X204942857Y-96450942D02*
X205028571Y-96422371D01*
X205028571Y-96422371D02*
X205085714Y-96422371D01*
X205085714Y-96422371D02*
X205171428Y-96450942D01*
X205171428Y-96450942D02*
X205200000Y-96479514D01*
X205742857Y-96422371D02*
X205457143Y-96422371D01*
X205457143Y-96422371D02*
X205428571Y-96708085D01*
X205428571Y-96708085D02*
X205457143Y-96679514D01*
X205457143Y-96679514D02*
X205514286Y-96650942D01*
X205514286Y-96650942D02*
X205657143Y-96650942D01*
X205657143Y-96650942D02*
X205714286Y-96679514D01*
X205714286Y-96679514D02*
X205742857Y-96708085D01*
X205742857Y-96708085D02*
X205771428Y-96765228D01*
X205771428Y-96765228D02*
X205771428Y-96908085D01*
X205771428Y-96908085D02*
X205742857Y-96965228D01*
X205742857Y-96965228D02*
X205714286Y-96993800D01*
X205714286Y-96993800D02*
X205657143Y-97022371D01*
X205657143Y-97022371D02*
X205514286Y-97022371D01*
X205514286Y-97022371D02*
X205457143Y-96993800D01*
X205457143Y-96993800D02*
X205428571Y-96965228D01*
X215825000Y-106038371D02*
X215625000Y-105752657D01*
X215482143Y-106038371D02*
X215482143Y-105438371D01*
X215482143Y-105438371D02*
X215710714Y-105438371D01*
X215710714Y-105438371D02*
X215767857Y-105466942D01*
X215767857Y-105466942D02*
X215796428Y-105495514D01*
X215796428Y-105495514D02*
X215825000Y-105552657D01*
X215825000Y-105552657D02*
X215825000Y-105638371D01*
X215825000Y-105638371D02*
X215796428Y-105695514D01*
X215796428Y-105695514D02*
X215767857Y-105724085D01*
X215767857Y-105724085D02*
X215710714Y-105752657D01*
X215710714Y-105752657D02*
X215482143Y-105752657D01*
X216367857Y-105438371D02*
X216082143Y-105438371D01*
X216082143Y-105438371D02*
X216053571Y-105724085D01*
X216053571Y-105724085D02*
X216082143Y-105695514D01*
X216082143Y-105695514D02*
X216139286Y-105666942D01*
X216139286Y-105666942D02*
X216282143Y-105666942D01*
X216282143Y-105666942D02*
X216339286Y-105695514D01*
X216339286Y-105695514D02*
X216367857Y-105724085D01*
X216367857Y-105724085D02*
X216396428Y-105781228D01*
X216396428Y-105781228D02*
X216396428Y-105924085D01*
X216396428Y-105924085D02*
X216367857Y-105981228D01*
X216367857Y-105981228D02*
X216339286Y-106009800D01*
X216339286Y-106009800D02*
X216282143Y-106038371D01*
X216282143Y-106038371D02*
X216139286Y-106038371D01*
X216139286Y-106038371D02*
X216082143Y-106009800D01*
X216082143Y-106009800D02*
X216053571Y-105981228D01*
X201164285Y-112715228D02*
X201135713Y-112743800D01*
X201135713Y-112743800D02*
X201049999Y-112772371D01*
X201049999Y-112772371D02*
X200992856Y-112772371D01*
X200992856Y-112772371D02*
X200907142Y-112743800D01*
X200907142Y-112743800D02*
X200849999Y-112686657D01*
X200849999Y-112686657D02*
X200821428Y-112629514D01*
X200821428Y-112629514D02*
X200792856Y-112515228D01*
X200792856Y-112515228D02*
X200792856Y-112429514D01*
X200792856Y-112429514D02*
X200821428Y-112315228D01*
X200821428Y-112315228D02*
X200849999Y-112258085D01*
X200849999Y-112258085D02*
X200907142Y-112200942D01*
X200907142Y-112200942D02*
X200992856Y-112172371D01*
X200992856Y-112172371D02*
X201049999Y-112172371D01*
X201049999Y-112172371D02*
X201135713Y-112200942D01*
X201135713Y-112200942D02*
X201164285Y-112229514D01*
X201735713Y-112772371D02*
X201392856Y-112772371D01*
X201564285Y-112772371D02*
X201564285Y-112172371D01*
X201564285Y-112172371D02*
X201507142Y-112258085D01*
X201507142Y-112258085D02*
X201449999Y-112315228D01*
X201449999Y-112315228D02*
X201392856Y-112343800D01*
X202307142Y-112772371D02*
X201964285Y-112772371D01*
X202135714Y-112772371D02*
X202135714Y-112172371D01*
X202135714Y-112172371D02*
X202078571Y-112258085D01*
X202078571Y-112258085D02*
X202021428Y-112315228D01*
X202021428Y-112315228D02*
X201964285Y-112343800D01*
D11*
X198959580Y-104866666D02*
X199007200Y-104914285D01*
X199007200Y-104914285D02*
X199054819Y-105057142D01*
X199054819Y-105057142D02*
X199054819Y-105152380D01*
X199054819Y-105152380D02*
X199007200Y-105295237D01*
X199007200Y-105295237D02*
X198911961Y-105390475D01*
X198911961Y-105390475D02*
X198816723Y-105438094D01*
X198816723Y-105438094D02*
X198626247Y-105485713D01*
X198626247Y-105485713D02*
X198483390Y-105485713D01*
X198483390Y-105485713D02*
X198292914Y-105438094D01*
X198292914Y-105438094D02*
X198197676Y-105390475D01*
X198197676Y-105390475D02*
X198102438Y-105295237D01*
X198102438Y-105295237D02*
X198054819Y-105152380D01*
X198054819Y-105152380D02*
X198054819Y-105057142D01*
X198054819Y-105057142D02*
X198102438Y-104914285D01*
X198102438Y-104914285D02*
X198150057Y-104866666D01*
X199054819Y-103866666D02*
X198578628Y-104199999D01*
X199054819Y-104438094D02*
X198054819Y-104438094D01*
X198054819Y-104438094D02*
X198054819Y-104057142D01*
X198054819Y-104057142D02*
X198102438Y-103961904D01*
X198102438Y-103961904D02*
X198150057Y-103914285D01*
X198150057Y-103914285D02*
X198245295Y-103866666D01*
X198245295Y-103866666D02*
X198388152Y-103866666D01*
X198388152Y-103866666D02*
X198483390Y-103914285D01*
X198483390Y-103914285D02*
X198531009Y-103961904D01*
X198531009Y-103961904D02*
X198578628Y-104057142D01*
X198578628Y-104057142D02*
X198578628Y-104438094D01*
X199054819Y-102914285D02*
X199054819Y-103485713D01*
X199054819Y-103199999D02*
X198054819Y-103199999D01*
X198054819Y-103199999D02*
X198197676Y-103295237D01*
X198197676Y-103295237D02*
X198292914Y-103390475D01*
X198292914Y-103390475D02*
X198340533Y-103485713D01*
D10*
X210614285Y-116735228D02*
X210585713Y-116763800D01*
X210585713Y-116763800D02*
X210499999Y-116792371D01*
X210499999Y-116792371D02*
X210442856Y-116792371D01*
X210442856Y-116792371D02*
X210357142Y-116763800D01*
X210357142Y-116763800D02*
X210299999Y-116706657D01*
X210299999Y-116706657D02*
X210271428Y-116649514D01*
X210271428Y-116649514D02*
X210242856Y-116535228D01*
X210242856Y-116535228D02*
X210242856Y-116449514D01*
X210242856Y-116449514D02*
X210271428Y-116335228D01*
X210271428Y-116335228D02*
X210299999Y-116278085D01*
X210299999Y-116278085D02*
X210357142Y-116220942D01*
X210357142Y-116220942D02*
X210442856Y-116192371D01*
X210442856Y-116192371D02*
X210499999Y-116192371D01*
X210499999Y-116192371D02*
X210585713Y-116220942D01*
X210585713Y-116220942D02*
X210614285Y-116249514D01*
X211185713Y-116792371D02*
X210842856Y-116792371D01*
X211014285Y-116792371D02*
X211014285Y-116192371D01*
X211014285Y-116192371D02*
X210957142Y-116278085D01*
X210957142Y-116278085D02*
X210899999Y-116335228D01*
X210899999Y-116335228D02*
X210842856Y-116363800D01*
X211385714Y-116192371D02*
X211757142Y-116192371D01*
X211757142Y-116192371D02*
X211557142Y-116420942D01*
X211557142Y-116420942D02*
X211642857Y-116420942D01*
X211642857Y-116420942D02*
X211700000Y-116449514D01*
X211700000Y-116449514D02*
X211728571Y-116478085D01*
X211728571Y-116478085D02*
X211757142Y-116535228D01*
X211757142Y-116535228D02*
X211757142Y-116678085D01*
X211757142Y-116678085D02*
X211728571Y-116735228D01*
X211728571Y-116735228D02*
X211700000Y-116763800D01*
X211700000Y-116763800D02*
X211642857Y-116792371D01*
X211642857Y-116792371D02*
X211471428Y-116792371D01*
X211471428Y-116792371D02*
X211414285Y-116763800D01*
X211414285Y-116763800D02*
X211385714Y-116735228D01*
X200700000Y-98715228D02*
X200671428Y-98743800D01*
X200671428Y-98743800D02*
X200585714Y-98772371D01*
X200585714Y-98772371D02*
X200528571Y-98772371D01*
X200528571Y-98772371D02*
X200442857Y-98743800D01*
X200442857Y-98743800D02*
X200385714Y-98686657D01*
X200385714Y-98686657D02*
X200357143Y-98629514D01*
X200357143Y-98629514D02*
X200328571Y-98515228D01*
X200328571Y-98515228D02*
X200328571Y-98429514D01*
X200328571Y-98429514D02*
X200357143Y-98315228D01*
X200357143Y-98315228D02*
X200385714Y-98258085D01*
X200385714Y-98258085D02*
X200442857Y-98200942D01*
X200442857Y-98200942D02*
X200528571Y-98172371D01*
X200528571Y-98172371D02*
X200585714Y-98172371D01*
X200585714Y-98172371D02*
X200671428Y-98200942D01*
X200671428Y-98200942D02*
X200700000Y-98229514D01*
X201214286Y-98172371D02*
X201100000Y-98172371D01*
X201100000Y-98172371D02*
X201042857Y-98200942D01*
X201042857Y-98200942D02*
X201014286Y-98229514D01*
X201014286Y-98229514D02*
X200957143Y-98315228D01*
X200957143Y-98315228D02*
X200928571Y-98429514D01*
X200928571Y-98429514D02*
X200928571Y-98658085D01*
X200928571Y-98658085D02*
X200957143Y-98715228D01*
X200957143Y-98715228D02*
X200985714Y-98743800D01*
X200985714Y-98743800D02*
X201042857Y-98772371D01*
X201042857Y-98772371D02*
X201157143Y-98772371D01*
X201157143Y-98772371D02*
X201214286Y-98743800D01*
X201214286Y-98743800D02*
X201242857Y-98715228D01*
X201242857Y-98715228D02*
X201271428Y-98658085D01*
X201271428Y-98658085D02*
X201271428Y-98515228D01*
X201271428Y-98515228D02*
X201242857Y-98458085D01*
X201242857Y-98458085D02*
X201214286Y-98429514D01*
X201214286Y-98429514D02*
X201157143Y-98400942D01*
X201157143Y-98400942D02*
X201042857Y-98400942D01*
X201042857Y-98400942D02*
X200985714Y-98429514D01*
X200985714Y-98429514D02*
X200957143Y-98458085D01*
X200957143Y-98458085D02*
X200928571Y-98515228D01*
X205592857Y-111529514D02*
X205535714Y-111500942D01*
X205535714Y-111500942D02*
X205478571Y-111443800D01*
X205478571Y-111443800D02*
X205392857Y-111358085D01*
X205392857Y-111358085D02*
X205335714Y-111329514D01*
X205335714Y-111329514D02*
X205278571Y-111329514D01*
X205307142Y-111472371D02*
X205250000Y-111443800D01*
X205250000Y-111443800D02*
X205192857Y-111386657D01*
X205192857Y-111386657D02*
X205164285Y-111272371D01*
X205164285Y-111272371D02*
X205164285Y-111072371D01*
X205164285Y-111072371D02*
X205192857Y-110958085D01*
X205192857Y-110958085D02*
X205250000Y-110900942D01*
X205250000Y-110900942D02*
X205307142Y-110872371D01*
X205307142Y-110872371D02*
X205421428Y-110872371D01*
X205421428Y-110872371D02*
X205478571Y-110900942D01*
X205478571Y-110900942D02*
X205535714Y-110958085D01*
X205535714Y-110958085D02*
X205564285Y-111072371D01*
X205564285Y-111072371D02*
X205564285Y-111272371D01*
X205564285Y-111272371D02*
X205535714Y-111386657D01*
X205535714Y-111386657D02*
X205478571Y-111443800D01*
X205478571Y-111443800D02*
X205421428Y-111472371D01*
X205421428Y-111472371D02*
X205307142Y-111472371D01*
X205792856Y-110929514D02*
X205821428Y-110900942D01*
X205821428Y-110900942D02*
X205878571Y-110872371D01*
X205878571Y-110872371D02*
X206021428Y-110872371D01*
X206021428Y-110872371D02*
X206078571Y-110900942D01*
X206078571Y-110900942D02*
X206107142Y-110929514D01*
X206107142Y-110929514D02*
X206135713Y-110986657D01*
X206135713Y-110986657D02*
X206135713Y-111043800D01*
X206135713Y-111043800D02*
X206107142Y-111129514D01*
X206107142Y-111129514D02*
X205764285Y-111472371D01*
X205764285Y-111472371D02*
X206135713Y-111472371D01*
D11*
X210513333Y-103109580D02*
X210465714Y-103157200D01*
X210465714Y-103157200D02*
X210322857Y-103204819D01*
X210322857Y-103204819D02*
X210227619Y-103204819D01*
X210227619Y-103204819D02*
X210084762Y-103157200D01*
X210084762Y-103157200D02*
X209989524Y-103061961D01*
X209989524Y-103061961D02*
X209941905Y-102966723D01*
X209941905Y-102966723D02*
X209894286Y-102776247D01*
X209894286Y-102776247D02*
X209894286Y-102633390D01*
X209894286Y-102633390D02*
X209941905Y-102442914D01*
X209941905Y-102442914D02*
X209989524Y-102347676D01*
X209989524Y-102347676D02*
X210084762Y-102252438D01*
X210084762Y-102252438D02*
X210227619Y-102204819D01*
X210227619Y-102204819D02*
X210322857Y-102204819D01*
X210322857Y-102204819D02*
X210465714Y-102252438D01*
X210465714Y-102252438D02*
X210513333Y-102300057D01*
X211513333Y-103204819D02*
X211180000Y-102728628D01*
X210941905Y-103204819D02*
X210941905Y-102204819D01*
X210941905Y-102204819D02*
X211322857Y-102204819D01*
X211322857Y-102204819D02*
X211418095Y-102252438D01*
X211418095Y-102252438D02*
X211465714Y-102300057D01*
X211465714Y-102300057D02*
X211513333Y-102395295D01*
X211513333Y-102395295D02*
X211513333Y-102538152D01*
X211513333Y-102538152D02*
X211465714Y-102633390D01*
X211465714Y-102633390D02*
X211418095Y-102681009D01*
X211418095Y-102681009D02*
X211322857Y-102728628D01*
X211322857Y-102728628D02*
X210941905Y-102728628D01*
X212370476Y-102538152D02*
X212370476Y-103204819D01*
X212132381Y-102157200D02*
X211894286Y-102871485D01*
X211894286Y-102871485D02*
X212513333Y-102871485D01*
X206109580Y-100816666D02*
X206157200Y-100864285D01*
X206157200Y-100864285D02*
X206204819Y-101007142D01*
X206204819Y-101007142D02*
X206204819Y-101102380D01*
X206204819Y-101102380D02*
X206157200Y-101245237D01*
X206157200Y-101245237D02*
X206061961Y-101340475D01*
X206061961Y-101340475D02*
X205966723Y-101388094D01*
X205966723Y-101388094D02*
X205776247Y-101435713D01*
X205776247Y-101435713D02*
X205633390Y-101435713D01*
X205633390Y-101435713D02*
X205442914Y-101388094D01*
X205442914Y-101388094D02*
X205347676Y-101340475D01*
X205347676Y-101340475D02*
X205252438Y-101245237D01*
X205252438Y-101245237D02*
X205204819Y-101102380D01*
X205204819Y-101102380D02*
X205204819Y-101007142D01*
X205204819Y-101007142D02*
X205252438Y-100864285D01*
X205252438Y-100864285D02*
X205300057Y-100816666D01*
X206204819Y-99816666D02*
X205728628Y-100149999D01*
X206204819Y-100388094D02*
X205204819Y-100388094D01*
X205204819Y-100388094D02*
X205204819Y-100007142D01*
X205204819Y-100007142D02*
X205252438Y-99911904D01*
X205252438Y-99911904D02*
X205300057Y-99864285D01*
X205300057Y-99864285D02*
X205395295Y-99816666D01*
X205395295Y-99816666D02*
X205538152Y-99816666D01*
X205538152Y-99816666D02*
X205633390Y-99864285D01*
X205633390Y-99864285D02*
X205681009Y-99911904D01*
X205681009Y-99911904D02*
X205728628Y-100007142D01*
X205728628Y-100007142D02*
X205728628Y-100388094D01*
X205300057Y-99435713D02*
X205252438Y-99388094D01*
X205252438Y-99388094D02*
X205204819Y-99292856D01*
X205204819Y-99292856D02*
X205204819Y-99054761D01*
X205204819Y-99054761D02*
X205252438Y-98959523D01*
X205252438Y-98959523D02*
X205300057Y-98911904D01*
X205300057Y-98911904D02*
X205395295Y-98864285D01*
X205395295Y-98864285D02*
X205490533Y-98864285D01*
X205490533Y-98864285D02*
X205633390Y-98911904D01*
X205633390Y-98911904D02*
X206204819Y-99483332D01*
X206204819Y-99483332D02*
X206204819Y-98864285D01*
D12*
%TO.C,SRP3012TA-100M1*%
X194671200Y-112238000D02*
X194671200Y-116200400D01*
X194671200Y-116200400D02*
X195468760Y-116200400D01*
X195468760Y-112238000D02*
X194671200Y-112238000D01*
X197531240Y-116200400D02*
X198328800Y-116200400D01*
X198328800Y-112238000D02*
X197531240Y-112238000D01*
X198328800Y-116200400D02*
X198328800Y-112238000D01*
D13*
%TO.C,Q1*%
X204812500Y-73440000D02*
X203137500Y-73440000D01*
X204812500Y-73440000D02*
X205462500Y-73440000D01*
X204812500Y-76560000D02*
X204162500Y-76560000D01*
X204812500Y-76560000D02*
X205462500Y-76560000D01*
%TO.C,C1*%
X201061252Y-84015000D02*
X200538748Y-84015000D01*
X201061252Y-85485000D02*
X200538748Y-85485000D01*
%TO.C,R2*%
X206727064Y-107590000D02*
X205272936Y-107590000D01*
X206727064Y-109410000D02*
X205272936Y-109410000D01*
D14*
%TO.C,J1*%
X203250000Y-81250000D02*
X205750000Y-81250000D01*
X203250000Y-95250000D02*
X203250000Y-81250000D01*
X205750000Y-95250000D02*
X203250000Y-95250000D01*
X207050000Y-94450000D02*
X207050000Y-82050000D01*
D15*
X202850000Y-82550000D02*
G75*
G02*
X202650000Y-82550000I-100000J0D01*
G01*
X202650000Y-82550000D02*
G75*
G02*
X202850000Y-82550000I100000J0D01*
G01*
D13*
%TO.C,R3*%
X219737258Y-104227500D02*
X219262742Y-104227500D01*
X219737258Y-105272500D02*
X219262742Y-105272500D01*
%TO.C,VR1*%
X211840000Y-106840000D02*
X211840000Y-108100000D01*
X211840000Y-113660000D02*
X211840000Y-112400000D01*
X215600000Y-106840000D02*
X211840000Y-106840000D01*
X217850000Y-113660000D02*
X211840000Y-113660000D01*
%TO.C,C3*%
X200038748Y-92015000D02*
X200561252Y-92015000D01*
X200038748Y-93485000D02*
X200561252Y-93485000D01*
%TO.C,C4*%
X200538748Y-94515000D02*
X201061252Y-94515000D01*
X200538748Y-95985000D02*
X201061252Y-95985000D01*
%TO.C,SW1*%
X226280000Y-105190000D02*
X232400000Y-105190000D01*
X226280000Y-108810000D02*
X226280000Y-105190000D01*
X232400000Y-105190000D02*
X232400000Y-108810000D01*
X232400000Y-108810000D02*
X226280000Y-108810000D01*
%TO.C,C12*%
X219015000Y-113011252D02*
X219015000Y-112488748D01*
X220485000Y-113011252D02*
X220485000Y-112488748D01*
%TO.C,A1*%
X176250000Y-62030000D02*
X176250000Y-61610000D01*
X176250000Y-64570000D02*
X176250000Y-64150000D01*
X176250000Y-67110000D02*
X176250000Y-66690000D01*
X176250000Y-69650000D02*
X176250000Y-69230000D01*
X176250000Y-72190000D02*
X176250000Y-71770000D01*
X176250000Y-74730000D02*
X176250000Y-74310000D01*
X176250000Y-77270000D02*
X176250000Y-76850000D01*
X176250000Y-79810000D02*
X176250000Y-79390000D01*
X176250000Y-82350000D02*
X176250000Y-81930000D01*
X176250000Y-84890000D02*
X176250000Y-84470000D01*
X176250000Y-87430000D02*
X176250000Y-87010000D01*
X176250000Y-89970000D02*
X176250000Y-89550000D01*
X176250000Y-92510000D02*
X176250000Y-92090000D01*
X176250000Y-95050000D02*
X176250000Y-94630000D01*
X176250000Y-97590000D02*
X176250000Y-97170000D01*
X176250000Y-100130000D02*
X176250000Y-99710000D01*
X176250000Y-102670000D02*
X176250000Y-102250000D01*
X176250000Y-105210000D02*
X176250000Y-104790000D01*
X176250000Y-107750000D02*
X176250000Y-107330000D01*
X176590000Y-59490063D02*
X176590000Y-59133000D01*
X176590000Y-62030000D02*
X176590000Y-61610000D01*
X176590000Y-64570000D02*
X176590000Y-64150000D01*
X176590000Y-67110000D02*
X176590000Y-66690000D01*
X176590000Y-69650000D02*
X176590000Y-69230000D01*
X176590000Y-72190000D02*
X176590000Y-71770000D01*
X176590000Y-74730000D02*
X176590000Y-74310000D01*
X176590000Y-77270000D02*
X176590000Y-76850000D01*
X176590000Y-79810000D02*
X176590000Y-79390000D01*
X176590000Y-82350000D02*
X176590000Y-81930000D01*
X176590000Y-84890000D02*
X176590000Y-84470000D01*
X176590000Y-87430000D02*
X176590000Y-87010000D01*
X176590000Y-89970000D02*
X176590000Y-89550000D01*
X176590000Y-92510000D02*
X176590000Y-92090000D01*
X176590000Y-95050000D02*
X176590000Y-94630000D01*
X176590000Y-97590000D02*
X176590000Y-97170000D01*
X176590000Y-100130000D02*
X176590000Y-99710000D01*
X176590000Y-102670000D02*
X176590000Y-102250000D01*
X176590000Y-105210000D02*
X176590000Y-104790000D01*
X176590000Y-107750000D02*
X176590000Y-107330000D01*
X176590000Y-109869937D02*
X176590000Y-110227000D01*
X176860000Y-110290000D02*
X179350000Y-110290000D01*
X179350000Y-59983520D02*
X179350000Y-59070000D01*
X179350000Y-106983520D02*
X179350000Y-62376480D01*
X179350000Y-110290000D02*
X179350000Y-109376480D01*
X180697939Y-59070000D02*
X176860000Y-59070000D01*
X180697939Y-110290000D02*
X179350000Y-110290000D01*
X181622061Y-59070000D02*
X183260000Y-59070000D01*
X182625000Y-110290000D02*
X181622061Y-110290000D01*
X182960000Y-106986000D02*
X182960000Y-105770000D01*
X182960000Y-110290000D02*
X182960000Y-109374000D01*
X183256090Y-105770000D02*
X182960000Y-105770000D01*
X183260000Y-59070000D02*
X190460000Y-59070000D01*
X188106090Y-105770000D02*
X185613910Y-105770000D01*
X190460000Y-59070000D02*
X192097939Y-59070000D01*
X190760000Y-105770000D02*
X190463910Y-105770000D01*
X190760000Y-106986000D02*
X190760000Y-105770000D01*
X190760000Y-110290000D02*
X190760000Y-109374000D01*
X191095000Y-110290000D02*
X182625000Y-110290000D01*
X192097939Y-110290000D02*
X191095000Y-110290000D01*
X194370000Y-59983520D02*
X194370000Y-59070000D01*
X194370000Y-106983520D02*
X194370000Y-62376480D01*
X194370000Y-110290000D02*
X193022060Y-110290000D01*
X194370000Y-110290000D02*
X194370000Y-109376480D01*
X196860000Y-59070000D02*
X193022061Y-59070000D01*
X196860000Y-110290000D02*
X194370000Y-110290000D01*
X197130000Y-59490063D02*
X197130000Y-59133000D01*
X197130000Y-62030000D02*
X197130000Y-61610000D01*
X197130000Y-64570000D02*
X197130000Y-64150000D01*
X197130000Y-67110000D02*
X197130000Y-66690000D01*
X197130000Y-69650000D02*
X197130000Y-69230000D01*
X197130000Y-72190000D02*
X197130000Y-71770000D01*
X197130000Y-74730000D02*
X197130000Y-74310000D01*
X197130000Y-77270000D02*
X197130000Y-76850000D01*
X197130000Y-79810000D02*
X197130000Y-79390000D01*
X197130000Y-82350000D02*
X197130000Y-81930000D01*
X197130000Y-84890000D02*
X197130000Y-84470000D01*
X197130000Y-87430000D02*
X197130000Y-87010000D01*
X197130000Y-89970000D02*
X197130000Y-89550000D01*
X197130000Y-92510000D02*
X197130000Y-92090000D01*
X197130000Y-95050000D02*
X197130000Y-94630000D01*
X197130000Y-97590000D02*
X197130000Y-97170000D01*
X197130000Y-100130000D02*
X197130000Y-99710000D01*
X197130000Y-102670000D02*
X197130000Y-102250000D01*
X197130000Y-105210000D02*
X197130000Y-104790000D01*
X197130000Y-107750000D02*
X197130000Y-107330000D01*
X197130000Y-109869937D02*
X197130000Y-110227000D01*
X197439676Y-109870000D02*
X197950000Y-109870000D01*
X197470000Y-62030000D02*
X197470000Y-61610000D01*
X197470000Y-64570000D02*
X197470000Y-64150000D01*
X197470000Y-67110000D02*
X197470000Y-66690000D01*
X197470000Y-69650000D02*
X197470000Y-69230000D01*
X197470000Y-72190000D02*
X197470000Y-71770000D01*
X197470000Y-74730000D02*
X197470000Y-74310000D01*
X197470000Y-77270000D02*
X197470000Y-76850000D01*
X197470000Y-79810000D02*
X197470000Y-79390000D01*
X197470000Y-82350000D02*
X197470000Y-81930000D01*
X197470000Y-84890000D02*
X197470000Y-84470000D01*
X197470000Y-87430000D02*
X197470000Y-87010000D01*
X197470000Y-89970000D02*
X197470000Y-89550000D01*
X197470000Y-92510000D02*
X197470000Y-92090000D01*
X197470000Y-95050000D02*
X197470000Y-94630000D01*
X197470000Y-97590000D02*
X197470000Y-97170000D01*
X197470000Y-100130000D02*
X197470000Y-99710000D01*
X197470000Y-102670000D02*
X197470000Y-102250000D01*
X197470000Y-105210000D02*
X197470000Y-104790000D01*
X197470000Y-107750000D02*
X197470000Y-107330000D01*
X197470000Y-107750000D02*
X197950000Y-107750000D01*
X176280324Y-59490063D02*
G75*
G02*
X176860000Y-59069931I579676J-189837D01*
G01*
X176860000Y-110290000D02*
G75*
G02*
X176280324Y-109869937I0J610000D01*
G01*
X196860000Y-59070000D02*
G75*
G02*
X197439676Y-59490063I-1J-610002D01*
G01*
X197439676Y-109870000D02*
G75*
G02*
X196860000Y-110290000I-579692J190051D01*
G01*
%TO.C,C8*%
X204988748Y-104015000D02*
X205511252Y-104015000D01*
X204988748Y-105485000D02*
X205511252Y-105485000D01*
%TO.C,R1*%
X203014564Y-77840000D02*
X201560436Y-77840000D01*
X203014564Y-79660000D02*
X201560436Y-79660000D01*
%TO.C,C9*%
X205488748Y-114515000D02*
X206011252Y-114515000D01*
X205488748Y-115985000D02*
X206011252Y-115985000D01*
%TO.C,J2*%
X224420000Y-109690000D02*
X224420000Y-117310000D01*
X224420000Y-110960000D02*
X234580000Y-110960000D01*
X224420000Y-117310000D02*
X234580000Y-117310000D01*
X234580000Y-109690000D02*
X224420000Y-109690000D01*
X234580000Y-117310000D02*
X234580000Y-109690000D01*
%TO.C,C7*%
X199865000Y-108388748D02*
X199865000Y-108911252D01*
X201335000Y-108388748D02*
X201335000Y-108911252D01*
D16*
%TO.C,G\u002A\u002A\u002A*%
G36*
X264964712Y-108408684D02*
G01*
X264977937Y-108478162D01*
X264965593Y-108570621D01*
X264947840Y-108623122D01*
X264909097Y-108707153D01*
X264882698Y-108734757D01*
X264860446Y-108711311D01*
X264850219Y-108687153D01*
X264845186Y-108626807D01*
X264857088Y-108542468D01*
X264879906Y-108457957D01*
X264907619Y-108397093D01*
X264927522Y-108381282D01*
X264964712Y-108408684D01*
G37*
G36*
X266415405Y-106112419D02*
G01*
X266427105Y-106118506D01*
X266440416Y-106144091D01*
X266418284Y-106188097D01*
X266355965Y-106256011D01*
X266248719Y-106353317D01*
X266156065Y-106432085D01*
X266039876Y-106522294D01*
X265952618Y-106575682D01*
X265899838Y-106589890D01*
X265887086Y-106562556D01*
X265892541Y-106544191D01*
X265924799Y-106501548D01*
X265993404Y-106431965D01*
X266084229Y-106349660D01*
X266095044Y-106340377D01*
X266219361Y-106234913D01*
X266304019Y-106165757D01*
X266358555Y-106126538D01*
X266392505Y-106110882D01*
X266415405Y-106112419D01*
G37*
G36*
X265669016Y-106860812D02*
G01*
X265677435Y-106902535D01*
X265661764Y-106944206D01*
X265618842Y-107029251D01*
X265554812Y-107147194D01*
X265475812Y-107287559D01*
X265387985Y-107439868D01*
X265297469Y-107593645D01*
X265210406Y-107738414D01*
X265132935Y-107863697D01*
X265071198Y-107959018D01*
X265031335Y-108013901D01*
X265020677Y-108023076D01*
X265014427Y-107995497D01*
X265025647Y-107926751D01*
X265032199Y-107900961D01*
X265074513Y-107782124D01*
X265143448Y-107627163D01*
X265229622Y-107454227D01*
X265323657Y-107281468D01*
X265416171Y-107127034D01*
X265483164Y-107028364D01*
X265573241Y-106915501D01*
X265634813Y-106859895D01*
X265669016Y-106860812D01*
G37*
G36*
X273120276Y-110736318D02*
G01*
X273192497Y-110776590D01*
X273249582Y-110851811D01*
X273263695Y-110949695D01*
X273232779Y-111042237D01*
X273213699Y-111065494D01*
X273127383Y-111111104D01*
X273030756Y-111103883D01*
X272960559Y-111057115D01*
X272911865Y-110961397D01*
X272915707Y-110929400D01*
X273034140Y-110929400D01*
X273049664Y-110986251D01*
X273059310Y-110997943D01*
X273105479Y-111012030D01*
X273142311Y-110977147D01*
X273150897Y-110935296D01*
X273125383Y-110878792D01*
X273093910Y-110862353D01*
X273051285Y-110878710D01*
X273034140Y-110929400D01*
X272915707Y-110929400D01*
X272924020Y-110860162D01*
X272971794Y-110791025D01*
X273047161Y-110735690D01*
X273120276Y-110736318D01*
G37*
G36*
X262678554Y-107314513D02*
G01*
X262741976Y-107363547D01*
X262745520Y-107369654D01*
X262778956Y-107481731D01*
X262762178Y-107578836D01*
X262704692Y-107648204D01*
X262616002Y-107677070D01*
X262527833Y-107662002D01*
X262461367Y-107606159D01*
X262429505Y-107514808D01*
X262430716Y-107501491D01*
X262536715Y-107501491D01*
X262564010Y-107550126D01*
X262611992Y-107560263D01*
X262662665Y-107523489D01*
X262675430Y-107493437D01*
X262661729Y-107439940D01*
X262615554Y-107411772D01*
X262565077Y-107421630D01*
X262551008Y-107437365D01*
X262536715Y-107501491D01*
X262430716Y-107501491D01*
X262438922Y-107411277D01*
X262448758Y-107385675D01*
X262505899Y-107326984D01*
X262591180Y-107302794D01*
X262678554Y-107314513D01*
G37*
G36*
X262604399Y-109349293D02*
G01*
X262629137Y-109396168D01*
X262684414Y-109458379D01*
X262739340Y-109482585D01*
X262800824Y-109504428D01*
X262803405Y-109536000D01*
X262749796Y-109565936D01*
X262717494Y-109574078D01*
X262640973Y-109607757D01*
X262605569Y-109681323D01*
X262604334Y-109687238D01*
X262575958Y-109764241D01*
X262535079Y-109778866D01*
X262507863Y-109759829D01*
X262490796Y-109713290D01*
X262486153Y-109661322D01*
X262469906Y-109601321D01*
X262409878Y-109569861D01*
X262387939Y-109564882D01*
X262323546Y-109545549D01*
X262314487Y-109518845D01*
X262326798Y-109500568D01*
X262389299Y-109462094D01*
X262425826Y-109455897D01*
X262479145Y-109430256D01*
X262507727Y-109356169D01*
X262529676Y-109293434D01*
X262560787Y-109290775D01*
X262604399Y-109349293D01*
G37*
G36*
X272279675Y-111999519D02*
G01*
X272287948Y-112058311D01*
X272295536Y-112128818D01*
X272331371Y-112155329D01*
X272383719Y-112158717D01*
X272458615Y-112171281D01*
X272507879Y-112201045D01*
X272513519Y-112236116D01*
X272509039Y-112241558D01*
X272470444Y-112256314D01*
X272397278Y-112273344D01*
X272319460Y-112285803D01*
X272312371Y-112286554D01*
X272293052Y-112316298D01*
X272287449Y-112362243D01*
X272275838Y-112438944D01*
X272249048Y-112490926D01*
X272217455Y-112499726D01*
X272212455Y-112495703D01*
X272195924Y-112449535D01*
X272190256Y-112384863D01*
X272180503Y-112323008D01*
X272138707Y-112290495D01*
X272074190Y-112274448D01*
X271993274Y-112246204D01*
X271973827Y-112210844D01*
X272014766Y-112179391D01*
X272084952Y-112164943D01*
X272159739Y-112146233D01*
X272191386Y-112098627D01*
X272196419Y-112069762D01*
X272218793Y-111994642D01*
X272251744Y-111970578D01*
X272279675Y-111999519D01*
G37*
G36*
X269572061Y-105978293D02*
G01*
X269875219Y-106026880D01*
X270136710Y-106105369D01*
X270179423Y-106123184D01*
X270264403Y-106168849D01*
X270299334Y-106206025D01*
X270280302Y-106228196D01*
X270244551Y-106231631D01*
X270185480Y-106221925D01*
X270086653Y-106196958D01*
X269975897Y-106164115D01*
X269710867Y-106104516D01*
X269404089Y-106076978D01*
X269070115Y-106080819D01*
X268723496Y-106115360D01*
X268378785Y-106179919D01*
X268119743Y-106250947D01*
X267767907Y-106393771D01*
X267424029Y-106592558D01*
X267099035Y-106838207D01*
X266803853Y-107121620D01*
X266549407Y-107433698D01*
X266382771Y-107697435D01*
X266237635Y-107978918D01*
X266130389Y-108236174D01*
X266054962Y-108490371D01*
X266005282Y-108762675D01*
X265975280Y-109074254D01*
X265971837Y-109130256D01*
X265948414Y-109537307D01*
X265943312Y-109211666D01*
X265965464Y-108749272D01*
X266044776Y-108307171D01*
X266178388Y-107889792D01*
X266363443Y-107501566D01*
X266597081Y-107146921D01*
X266876445Y-106830287D01*
X267198675Y-106556094D01*
X267560914Y-106328771D01*
X267904036Y-106173461D01*
X268212913Y-106077009D01*
X268547661Y-106008967D01*
X268894774Y-105969635D01*
X269240744Y-105959311D01*
X269572061Y-105978293D01*
G37*
G36*
X269517539Y-103713454D02*
G01*
X269519999Y-103740897D01*
X269532419Y-103801621D01*
X269582652Y-103821544D01*
X269606457Y-103822307D01*
X269665575Y-103826129D01*
X269667777Y-103847537D01*
X269639021Y-103881859D01*
X269591982Y-103950589D01*
X269602182Y-103994647D01*
X269672295Y-104018672D01*
X269720994Y-104023960D01*
X269819560Y-104041010D01*
X269867953Y-104067791D01*
X269863111Y-104094865D01*
X269801971Y-104112796D01*
X269750662Y-104115384D01*
X269664364Y-104120611D01*
X269625741Y-104141844D01*
X269617692Y-104180512D01*
X269602762Y-104235816D01*
X269566724Y-104240012D01*
X269522707Y-104197396D01*
X269493314Y-104139807D01*
X269467081Y-104080312D01*
X269442499Y-104062895D01*
X269408876Y-104091798D01*
X269355519Y-104171261D01*
X269336230Y-104202115D01*
X269310904Y-104233970D01*
X269296879Y-104216642D01*
X269287384Y-104148091D01*
X269270683Y-104068208D01*
X269230320Y-104030676D01*
X269179923Y-104017834D01*
X269102555Y-103992686D01*
X269087454Y-103961550D01*
X269133895Y-103934989D01*
X269186217Y-103926077D01*
X269260345Y-103910490D01*
X269288842Y-103872373D01*
X269292051Y-103833042D01*
X269302054Y-103774252D01*
X269337751Y-103767934D01*
X269343910Y-103770111D01*
X269393288Y-103763679D01*
X269412837Y-103724749D01*
X269446720Y-103668277D01*
X269489136Y-103665644D01*
X269517539Y-103713454D01*
G37*
G36*
X266001277Y-109654942D02*
G01*
X266026972Y-109761760D01*
X266057771Y-109895512D01*
X266146802Y-110181510D01*
X266282197Y-110482689D01*
X266453734Y-110781983D01*
X266651191Y-111062330D01*
X266864345Y-111306664D01*
X266955132Y-111393577D01*
X267257734Y-111630843D01*
X267595254Y-111833819D01*
X267950154Y-111993427D01*
X268304892Y-112100589D01*
X268333059Y-112106692D01*
X268750600Y-112168428D01*
X269162613Y-112179217D01*
X269559217Y-112140034D01*
X269930531Y-112051854D01*
X270266078Y-111915954D01*
X270385906Y-111863366D01*
X270481149Y-111836979D01*
X270541168Y-111838403D01*
X270555321Y-111869250D01*
X270554395Y-111872327D01*
X270509319Y-111920832D01*
X270410496Y-111976370D01*
X270268534Y-112035967D01*
X270094040Y-112096652D01*
X269897623Y-112155450D01*
X269689890Y-112209390D01*
X269481449Y-112255498D01*
X269282907Y-112290801D01*
X269104873Y-112312327D01*
X268966410Y-112317361D01*
X268886222Y-112312231D01*
X268760989Y-112300701D01*
X268610258Y-112284678D01*
X268503676Y-112272249D01*
X268112744Y-112204039D01*
X267760963Y-112095658D01*
X267433241Y-111940548D01*
X267114485Y-111732150D01*
X266935626Y-111590857D01*
X266725990Y-111383539D01*
X266527997Y-111127253D01*
X266349438Y-110837094D01*
X266198104Y-110528154D01*
X266081786Y-110215529D01*
X266008276Y-109914312D01*
X265988723Y-109756376D01*
X265982073Y-109659258D01*
X265980700Y-109607464D01*
X265986478Y-109604768D01*
X266001277Y-109654942D01*
G37*
G36*
X268691535Y-119457799D02*
G01*
X269562415Y-119457962D01*
X270418215Y-119458289D01*
X271248910Y-119458779D01*
X272044473Y-119459432D01*
X272794877Y-119460248D01*
X273484679Y-119461218D01*
X273845600Y-119461839D01*
X274142432Y-119462448D01*
X274376211Y-119463044D01*
X274547976Y-119463624D01*
X274658765Y-119464187D01*
X274709615Y-119464732D01*
X274701566Y-119465256D01*
X274635654Y-119465758D01*
X274512919Y-119466236D01*
X274334397Y-119466690D01*
X274101127Y-119467116D01*
X273814147Y-119467514D01*
X273474494Y-119467882D01*
X273083208Y-119468218D01*
X272641326Y-119468520D01*
X272149885Y-119468787D01*
X271609925Y-119469017D01*
X271022482Y-119469209D01*
X270388595Y-119469360D01*
X269709303Y-119469470D01*
X268985642Y-119469537D01*
X268249999Y-119469558D01*
X267484714Y-119469535D01*
X266762799Y-119469467D01*
X266085295Y-119469355D01*
X265453237Y-119469202D01*
X264867665Y-119469009D01*
X264329616Y-119468777D01*
X263840128Y-119468508D01*
X263400240Y-119468205D01*
X263010990Y-119467868D01*
X262673414Y-119467499D01*
X262388553Y-119467100D01*
X262157442Y-119466672D01*
X261981121Y-119466218D01*
X261860628Y-119465738D01*
X261797000Y-119465235D01*
X261791275Y-119464710D01*
X261844492Y-119464165D01*
X261957688Y-119463601D01*
X262131902Y-119463020D01*
X262368172Y-119462424D01*
X262667534Y-119461815D01*
X263015320Y-119461218D01*
X263711032Y-119460241D01*
X264461845Y-119459426D01*
X265257735Y-119458774D01*
X266088675Y-119458286D01*
X266944639Y-119457960D01*
X267815601Y-119457798D01*
X268691535Y-119457799D01*
G37*
G36*
X264634197Y-104797009D02*
G01*
X264660495Y-104848076D01*
X264717637Y-104973580D01*
X264765694Y-105053409D01*
X264818745Y-105102760D01*
X264890869Y-105136828D01*
X264944743Y-105154864D01*
X265040331Y-105193174D01*
X265097974Y-105232691D01*
X265107564Y-105251797D01*
X265078452Y-105287472D01*
X265001532Y-105328705D01*
X264935353Y-105353452D01*
X264837848Y-105387005D01*
X264768549Y-105414147D01*
X264747411Y-105425323D01*
X264729631Y-105463565D01*
X264702954Y-105541931D01*
X264690293Y-105584000D01*
X264647486Y-105691546D01*
X264602099Y-105735657D01*
X264557815Y-105716028D01*
X264518316Y-105632350D01*
X264509053Y-105599149D01*
X264455433Y-105468953D01*
X264365556Y-105384444D01*
X264227576Y-105334848D01*
X264215691Y-105332381D01*
X264123872Y-105295966D01*
X264100256Y-105262336D01*
X264348724Y-105262336D01*
X264352478Y-105284005D01*
X264376974Y-105287692D01*
X264418507Y-105310611D01*
X264478181Y-105367471D01*
X264493843Y-105385384D01*
X264549054Y-105447469D01*
X264584745Y-105481102D01*
X264588994Y-105483076D01*
X264616469Y-105461227D01*
X264672247Y-105405470D01*
X264711157Y-105363903D01*
X264820371Y-105244730D01*
X264705834Y-105127814D01*
X264591296Y-105010897D01*
X264466802Y-105131708D01*
X264385306Y-105214219D01*
X264348724Y-105262336D01*
X264100256Y-105262336D01*
X264088271Y-105245269D01*
X264107199Y-105195817D01*
X264178968Y-105163137D01*
X264234658Y-105157934D01*
X264327444Y-105128264D01*
X264418595Y-105051073D01*
X264491593Y-104942246D01*
X264513145Y-104890106D01*
X264554404Y-104795113D01*
X264593866Y-104764334D01*
X264634197Y-104797009D01*
G37*
G36*
X272655904Y-105023200D02*
G01*
X272691182Y-105093436D01*
X272710277Y-105182038D01*
X272711281Y-105205621D01*
X272742266Y-105308362D01*
X272829785Y-105396471D01*
X272965691Y-105462910D01*
X273030702Y-105481584D01*
X273125319Y-105511345D01*
X273186565Y-105544226D01*
X273199743Y-105563371D01*
X273171465Y-105594957D01*
X273097656Y-105636760D01*
X273003839Y-105676037D01*
X272863462Y-105738688D01*
X272773857Y-105812699D01*
X272720805Y-105913658D01*
X272697179Y-106012243D01*
X272670388Y-106102352D01*
X272633577Y-106128768D01*
X272587848Y-106091969D01*
X272534305Y-105992432D01*
X272509294Y-105930833D01*
X272464646Y-105820536D01*
X272425677Y-105754895D01*
X272377027Y-105716929D01*
X272303335Y-105689656D01*
X272286638Y-105684693D01*
X272148378Y-105638987D01*
X272073515Y-105599288D01*
X272063856Y-105570235D01*
X272279500Y-105570235D01*
X272394329Y-105641204D01*
X272483788Y-105709017D01*
X272555812Y-105784355D01*
X272564452Y-105796562D01*
X272619746Y-105880952D01*
X272680356Y-105781287D01*
X272753854Y-105694852D01*
X272844011Y-105628336D01*
X272947056Y-105575049D01*
X272850704Y-105516454D01*
X272759419Y-105446451D01*
X272683514Y-105367804D01*
X272632349Y-105307059D01*
X272601097Y-105298702D01*
X272569099Y-105344172D01*
X272551866Y-105376981D01*
X272498315Y-105439455D01*
X272414766Y-105500230D01*
X272396693Y-105510112D01*
X272279500Y-105570235D01*
X272063856Y-105570235D01*
X272061058Y-105561818D01*
X272110014Y-105522802D01*
X272219392Y-105478463D01*
X272231388Y-105474346D01*
X272349804Y-105429472D01*
X272425158Y-105381727D01*
X272475385Y-105312627D01*
X272518419Y-105203687D01*
X272530959Y-105165576D01*
X272566119Y-105071628D01*
X272598503Y-105009532D01*
X272615061Y-104994615D01*
X272655904Y-105023200D01*
G37*
G36*
X273968283Y-108212972D02*
G01*
X274011680Y-108298094D01*
X274043217Y-108397564D01*
X274079274Y-108509747D01*
X274123396Y-108582788D01*
X274192568Y-108633451D01*
X274303772Y-108678504D01*
X274340377Y-108690938D01*
X274442828Y-108729637D01*
X274515022Y-108765478D01*
X274540456Y-108789198D01*
X274513154Y-108818722D01*
X274444282Y-108853152D01*
X274419375Y-108862294D01*
X274265815Y-108920578D01*
X274152979Y-108976038D01*
X274089613Y-109023936D01*
X274078974Y-109046646D01*
X274070199Y-109098298D01*
X274047704Y-109188275D01*
X274028866Y-109254602D01*
X273985167Y-109366865D01*
X273940902Y-109416814D01*
X273898759Y-109403733D01*
X273861426Y-109326904D01*
X273854084Y-109301217D01*
X273826254Y-109193120D01*
X273801616Y-109094412D01*
X273799984Y-109087681D01*
X273759312Y-109001680D01*
X273678092Y-108936386D01*
X273545933Y-108884557D01*
X273484679Y-108867999D01*
X273395139Y-108838042D01*
X273339295Y-108804654D01*
X273329999Y-108788333D01*
X273337574Y-108780167D01*
X273589993Y-108780167D01*
X273719228Y-108863965D01*
X273806686Y-108934859D01*
X273872422Y-109013098D01*
X273886259Y-109039009D01*
X273920252Y-109110578D01*
X273944989Y-109121616D01*
X273971686Y-109073416D01*
X273980868Y-109049933D01*
X274024994Y-108983590D01*
X274102115Y-108906831D01*
X274145598Y-108872403D01*
X274279790Y-108775194D01*
X274165263Y-108727342D01*
X274066291Y-108662545D01*
X273998890Y-108579232D01*
X273961021Y-108512349D01*
X273936053Y-108479628D01*
X273934255Y-108478974D01*
X273910816Y-108503840D01*
X273868079Y-108565824D01*
X273853393Y-108589117D01*
X273782799Y-108673087D01*
X273699024Y-108734490D01*
X273687657Y-108739714D01*
X273589993Y-108780167D01*
X273337574Y-108780167D01*
X273358740Y-108757351D01*
X273431981Y-108724202D01*
X273484679Y-108708559D01*
X273652256Y-108640458D01*
X273770850Y-108530373D01*
X273844085Y-108374714D01*
X273851954Y-108344847D01*
X273887697Y-108236149D01*
X273926715Y-108192257D01*
X273968283Y-108212972D01*
G37*
G36*
X271334045Y-113396236D02*
G01*
X271889423Y-113396447D01*
X272386055Y-113396844D01*
X272827133Y-113397466D01*
X273215847Y-113398348D01*
X273555390Y-113399529D01*
X273848951Y-113401043D01*
X274099723Y-113402929D01*
X274310897Y-113405222D01*
X274485663Y-113407960D01*
X274627213Y-113411179D01*
X274738739Y-113414916D01*
X274823431Y-113419208D01*
X274884481Y-113424092D01*
X274925080Y-113429603D01*
X274948418Y-113435780D01*
X274957688Y-113442658D01*
X274958205Y-113445000D01*
X274952953Y-113450710D01*
X274935506Y-113455965D01*
X274903322Y-113460782D01*
X274853860Y-113465181D01*
X274784579Y-113469179D01*
X274692939Y-113472796D01*
X274576398Y-113476049D01*
X274432417Y-113478958D01*
X274258454Y-113481540D01*
X274051968Y-113483815D01*
X273810418Y-113485801D01*
X273531264Y-113487516D01*
X273211965Y-113488978D01*
X272849981Y-113490207D01*
X272442769Y-113491221D01*
X271987790Y-113492038D01*
X271482503Y-113492677D01*
X270924366Y-113493156D01*
X270310839Y-113493494D01*
X269639382Y-113493709D01*
X268907453Y-113493820D01*
X268249999Y-113493846D01*
X267594015Y-113493716D01*
X266955541Y-113493334D01*
X266337615Y-113492712D01*
X265743274Y-113491864D01*
X265175557Y-113490800D01*
X264637500Y-113489534D01*
X264132142Y-113488078D01*
X263662519Y-113486444D01*
X263231670Y-113484644D01*
X262842631Y-113482691D01*
X262498442Y-113480597D01*
X262202138Y-113478375D01*
X261956757Y-113476036D01*
X261765338Y-113473593D01*
X261630918Y-113471058D01*
X261556533Y-113468445D01*
X261541794Y-113466638D01*
X261573913Y-113460833D01*
X261668485Y-113455144D01*
X261822838Y-113449594D01*
X262034296Y-113444202D01*
X262300187Y-113438989D01*
X262617835Y-113433975D01*
X262984567Y-113429180D01*
X263397709Y-113424627D01*
X263854587Y-113420334D01*
X264352526Y-113416323D01*
X264888853Y-113412614D01*
X265460894Y-113409227D01*
X266065974Y-113406183D01*
X266701420Y-113403503D01*
X267364557Y-113401208D01*
X268052712Y-113399317D01*
X268763210Y-113397851D01*
X269493377Y-113396831D01*
X270240539Y-113396277D01*
X270716730Y-113396177D01*
X271334045Y-113396236D01*
G37*
G36*
X263508516Y-111066112D02*
G01*
X263514976Y-111074179D01*
X263547830Y-111134857D01*
X263589014Y-111235572D01*
X263626569Y-111345167D01*
X263681820Y-111500025D01*
X263744252Y-111612881D01*
X263827676Y-111697355D01*
X263945902Y-111767066D01*
X264112743Y-111835632D01*
X264130640Y-111842221D01*
X264255881Y-111891265D01*
X264353400Y-111935589D01*
X264410096Y-111968900D01*
X264419095Y-111980825D01*
X264388276Y-112005627D01*
X264310763Y-112043126D01*
X264201877Y-112086114D01*
X264174864Y-112095721D01*
X264049439Y-112141210D01*
X263940285Y-112183909D01*
X263868787Y-112215407D01*
X263863486Y-112218179D01*
X263810452Y-112270733D01*
X263745667Y-112369859D01*
X263677208Y-112500094D01*
X263613152Y-112645974D01*
X263561576Y-112792035D01*
X263558644Y-112801859D01*
X263528688Y-112885353D01*
X263500627Y-112934622D01*
X263491538Y-112940256D01*
X263470842Y-112911327D01*
X263437678Y-112833904D01*
X263397756Y-112722032D01*
X263378562Y-112662441D01*
X263329706Y-112517208D01*
X263284478Y-112416628D01*
X263232272Y-112341799D01*
X263162479Y-112273822D01*
X263158577Y-112270469D01*
X263022004Y-112179488D01*
X262864354Y-112112499D01*
X262845233Y-112106922D01*
X262729474Y-112073150D01*
X262627735Y-112040089D01*
X262584171Y-112023852D01*
X262529116Y-111996841D01*
X262529472Y-111986834D01*
X262874020Y-111986834D01*
X263052381Y-112074098D01*
X263213296Y-112182797D01*
X263344580Y-112329647D01*
X263431226Y-112496361D01*
X263448342Y-112556535D01*
X263461118Y-112607488D01*
X263475143Y-112621742D01*
X263498229Y-112592898D01*
X263538182Y-112514555D01*
X263563335Y-112462302D01*
X263621042Y-112352614D01*
X263678032Y-112261321D01*
X263716423Y-112214049D01*
X263777812Y-112168656D01*
X263872742Y-112108939D01*
X263947307Y-112066302D01*
X264118193Y-111972852D01*
X263937048Y-111884226D01*
X263767018Y-111774902D01*
X263658335Y-111653791D01*
X263603553Y-111571314D01*
X263568155Y-111512540D01*
X263560769Y-111495547D01*
X263550221Y-111456504D01*
X263525427Y-111387440D01*
X263490085Y-111295769D01*
X263428949Y-111455540D01*
X263336605Y-111632607D01*
X263202498Y-111778260D01*
X263030151Y-111896945D01*
X262874020Y-111986834D01*
X262529472Y-111986834D01*
X262529962Y-111973043D01*
X262564030Y-111945608D01*
X262630357Y-111913539D01*
X262732539Y-111880782D01*
X262797413Y-111865246D01*
X262956919Y-111812462D01*
X263105531Y-111728559D01*
X263223404Y-111626593D01*
X263278371Y-111548783D01*
X263311865Y-111471594D01*
X263355095Y-111357511D01*
X263396762Y-111237000D01*
X263435519Y-111123973D01*
X263462542Y-111064045D01*
X263484613Y-111047872D01*
X263508516Y-111066112D01*
G37*
G36*
X268656579Y-107236620D02*
G01*
X268703771Y-107308322D01*
X268742578Y-107387170D01*
X268812597Y-107514744D01*
X268897851Y-107590799D01*
X269015403Y-107626270D01*
X269125948Y-107632806D01*
X269218230Y-107641180D01*
X269286497Y-107660932D01*
X269290756Y-107663382D01*
X269312235Y-107688395D01*
X269304274Y-107725424D01*
X269261266Y-107782598D01*
X269177607Y-107868046D01*
X269097243Y-107944025D01*
X269029722Y-108010449D01*
X269001720Y-108061109D01*
X269005099Y-108124393D01*
X269023973Y-108199616D01*
X269054729Y-108342083D01*
X269062070Y-108446310D01*
X269045881Y-108503415D01*
X269027955Y-108511538D01*
X268982146Y-108497105D01*
X268898459Y-108459463D01*
X268805933Y-108412468D01*
X268620058Y-108313397D01*
X268431722Y-108412468D01*
X268301384Y-108476453D01*
X268214913Y-108506308D01*
X268162272Y-108504453D01*
X268138631Y-108483190D01*
X268136890Y-108438648D01*
X268150344Y-108352297D01*
X268169911Y-108267487D01*
X268194470Y-108165980D01*
X268199715Y-108094466D01*
X268178691Y-108035060D01*
X268124443Y-107969878D01*
X268030015Y-107881036D01*
X268013910Y-107866345D01*
X267942690Y-107791385D01*
X268119344Y-107791385D01*
X268166604Y-107845610D01*
X268201387Y-107878867D01*
X268272928Y-107952091D01*
X268308597Y-108014712D01*
X268319868Y-108095148D01*
X268319523Y-108171428D01*
X268319821Y-108268942D01*
X268324899Y-108333335D01*
X268330777Y-108348717D01*
X268365833Y-108333364D01*
X268433475Y-108295305D01*
X268452738Y-108283711D01*
X268548293Y-108234306D01*
X268627275Y-108223715D01*
X268716759Y-108251928D01*
X268779530Y-108283589D01*
X268857542Y-108323786D01*
X268907838Y-108346690D01*
X268915093Y-108348717D01*
X268919767Y-108319463D01*
X268917081Y-108244000D01*
X268910776Y-108170793D01*
X268902896Y-108065289D01*
X268912844Y-107996980D01*
X268949754Y-107938516D01*
X269009207Y-107876074D01*
X269068507Y-107808326D01*
X269093180Y-107761820D01*
X269086910Y-107749496D01*
X268932515Y-107706833D01*
X268827492Y-107665017D01*
X268756829Y-107615073D01*
X268705516Y-107548027D01*
X268684141Y-107508703D01*
X268640962Y-107428748D01*
X268615178Y-107401407D01*
X268597982Y-107419668D01*
X268592339Y-107435610D01*
X268527083Y-107556148D01*
X268424915Y-107654609D01*
X268307189Y-107711327D01*
X268288742Y-107715147D01*
X268175009Y-107736281D01*
X268120344Y-107758318D01*
X268119344Y-107791385D01*
X267942690Y-107791385D01*
X267925527Y-107773321D01*
X267895241Y-107705947D01*
X267924366Y-107661704D01*
X268014217Y-107638072D01*
X268136025Y-107632307D01*
X268253820Y-107626885D01*
X268334205Y-107602347D01*
X268395577Y-107546284D01*
X268456327Y-107446289D01*
X268480017Y-107400261D01*
X268535643Y-107302493D01*
X268586850Y-107233543D01*
X268620931Y-107208974D01*
X268656579Y-107236620D01*
G37*
G36*
X270157613Y-108781754D02*
G01*
X270197929Y-108815542D01*
X270256094Y-108888931D01*
X270301528Y-108977931D01*
X270334685Y-109064490D01*
X270380972Y-109182291D01*
X270419226Y-109278075D01*
X270498419Y-109474741D01*
X270842896Y-109510955D01*
X270987877Y-109528800D01*
X271109323Y-109548605D01*
X271192174Y-109567624D01*
X271219870Y-109579665D01*
X271240558Y-109629110D01*
X271215425Y-109695893D01*
X271141124Y-109785132D01*
X271014310Y-109901947D01*
X271002786Y-109911794D01*
X270903065Y-110002839D01*
X270823339Y-110087118D01*
X270777103Y-110149983D01*
X270771778Y-110162484D01*
X270769901Y-110224964D01*
X270782205Y-110331858D01*
X270806221Y-110464614D01*
X270820684Y-110529952D01*
X270849073Y-110662428D01*
X270867428Y-110771593D01*
X270873332Y-110841631D01*
X270870716Y-110857275D01*
X270815318Y-110887940D01*
X270717976Y-110875067D01*
X270583877Y-110820064D01*
X270446380Y-110742179D01*
X270331020Y-110674682D01*
X270230278Y-110623611D01*
X270161281Y-110597400D01*
X270148804Y-110595641D01*
X270087154Y-110612449D01*
X269996521Y-110655558D01*
X269934443Y-110691971D01*
X269750249Y-110803192D01*
X269611616Y-110873596D01*
X269514538Y-110904615D01*
X269455008Y-110897677D01*
X269433466Y-110870827D01*
X269431758Y-110817234D01*
X269444074Y-110716905D01*
X269468031Y-110586132D01*
X269488937Y-110491586D01*
X269565493Y-110167291D01*
X269314797Y-109933100D01*
X269182846Y-109803179D01*
X269101249Y-109705507D01*
X269076934Y-109655510D01*
X269238608Y-109655510D01*
X269240049Y-109698465D01*
X269292218Y-109763633D01*
X269391548Y-109857630D01*
X269418797Y-109882312D01*
X269529920Y-109989489D01*
X269608964Y-110079647D01*
X269647522Y-110142857D01*
X269649940Y-110155281D01*
X269643448Y-110216939D01*
X269625984Y-110321484D01*
X269601060Y-110448302D01*
X269595885Y-110472684D01*
X269573158Y-110594136D01*
X269561433Y-110690336D01*
X269562592Y-110744367D01*
X269565119Y-110749308D01*
X269603663Y-110747171D01*
X269679726Y-110717644D01*
X269757888Y-110677465D01*
X269875226Y-110611544D01*
X269990613Y-110547169D01*
X270045443Y-110516814D01*
X270163835Y-110451611D01*
X270436212Y-110620442D01*
X270554513Y-110692404D01*
X270652206Y-110749283D01*
X270716131Y-110783555D01*
X270733012Y-110790149D01*
X270753320Y-110764047D01*
X270756599Y-110734038D01*
X270749122Y-110677465D01*
X270729920Y-110576130D01*
X270702604Y-110448568D01*
X270691586Y-110400256D01*
X270627408Y-110123461D01*
X270877941Y-109891602D01*
X270994794Y-109782478D01*
X271062558Y-109709147D01*
X271078140Y-109662964D01*
X271038450Y-109635282D01*
X270940394Y-109617452D01*
X270780881Y-109600829D01*
X270773717Y-109600120D01*
X270614465Y-109581140D01*
X270506904Y-109557755D01*
X270437618Y-109523962D01*
X270393192Y-109473754D01*
X270366609Y-109417931D01*
X270324746Y-109314140D01*
X270276761Y-109198368D01*
X270268630Y-109179102D01*
X270228714Y-109082595D01*
X270197279Y-109002688D01*
X270191596Y-108987198D01*
X270177283Y-108954030D01*
X270161416Y-108945401D01*
X270138886Y-108968618D01*
X270104584Y-109030988D01*
X270053401Y-109139820D01*
X269996308Y-109266493D01*
X269860432Y-109569871D01*
X269574302Y-109593762D01*
X269402169Y-109609774D01*
X269291459Y-109628152D01*
X269238608Y-109655510D01*
X269076934Y-109655510D01*
X269066975Y-109635033D01*
X269076989Y-109586704D01*
X269096693Y-109569855D01*
X269141443Y-109557874D01*
X269235165Y-109542098D01*
X269362007Y-109525003D01*
X269445933Y-109515304D01*
X269599665Y-109496567D01*
X269709435Y-109472317D01*
X269787767Y-109431853D01*
X269847185Y-109364473D01*
X269900215Y-109259476D01*
X269959381Y-109106160D01*
X269975085Y-109063180D01*
X270019159Y-108952802D01*
X270062872Y-108860040D01*
X270086953Y-108819381D01*
X270123999Y-108777088D01*
X270157613Y-108781754D01*
G37*
G36*
X268638085Y-104861238D02*
G01*
X268881618Y-104883404D01*
X269046872Y-104910925D01*
X269571698Y-105055337D01*
X270059621Y-105250502D01*
X270508294Y-105495028D01*
X270915369Y-105787523D01*
X271278497Y-106126593D01*
X271472191Y-106349186D01*
X271730165Y-106695264D01*
X271939986Y-107036896D01*
X272110488Y-107391979D01*
X272250507Y-107778417D01*
X272345800Y-108119333D01*
X272377587Y-108252534D01*
X272400460Y-108368988D01*
X272415835Y-108484135D01*
X272425130Y-108613414D01*
X272429764Y-108772266D01*
X272431153Y-108976131D01*
X272431148Y-109048846D01*
X272430042Y-109268846D01*
X272426264Y-109438895D01*
X272418388Y-109574158D01*
X272404988Y-109689800D01*
X272384634Y-109800986D01*
X272355902Y-109922882D01*
X272344827Y-109966156D01*
X272180165Y-110480185D01*
X271962632Y-110958768D01*
X271694550Y-111399236D01*
X271378244Y-111798921D01*
X271016038Y-112155154D01*
X270610255Y-112465265D01*
X270163219Y-112726586D01*
X269798624Y-112890397D01*
X269546323Y-112982915D01*
X269310354Y-113051599D01*
X269072617Y-113099746D01*
X268815010Y-113130651D01*
X268519435Y-113147611D01*
X268363974Y-113151671D01*
X268168064Y-113154356D01*
X267988590Y-113155026D01*
X267838234Y-113153773D01*
X267729676Y-113150689D01*
X267680128Y-113146758D01*
X267137768Y-113029238D01*
X266630503Y-112859077D01*
X266160546Y-112638107D01*
X265730111Y-112368162D01*
X265341411Y-112051075D01*
X264996660Y-111688680D01*
X264698072Y-111282808D01*
X264447861Y-110835294D01*
X264248241Y-110347970D01*
X264228328Y-110288541D01*
X264102414Y-109801391D01*
X264038859Y-109304969D01*
X264038025Y-109115299D01*
X264149283Y-109115299D01*
X264159000Y-109395120D01*
X264181678Y-109644369D01*
X264192159Y-109716745D01*
X264301481Y-110190340D01*
X264470657Y-110646303D01*
X264695548Y-111079099D01*
X264972013Y-111483192D01*
X265295911Y-111853047D01*
X265663103Y-112183127D01*
X266069448Y-112467898D01*
X266377564Y-112638606D01*
X266816547Y-112823413D01*
X267284159Y-112958277D01*
X267767349Y-113041238D01*
X268253063Y-113070334D01*
X268728248Y-113043602D01*
X268903684Y-113018339D01*
X269408805Y-112904781D01*
X269874644Y-112741192D01*
X270306886Y-112524655D01*
X270711217Y-112252255D01*
X271093319Y-111921074D01*
X271148752Y-111866464D01*
X271480366Y-111501133D01*
X271753063Y-111124711D01*
X271973054Y-110726249D01*
X272146553Y-110294800D01*
X272257724Y-109911794D01*
X272287027Y-109784719D01*
X272307879Y-109667499D01*
X272321624Y-109544587D01*
X272329606Y-109400436D01*
X272333169Y-109219496D01*
X272333736Y-109032564D01*
X272332180Y-108806371D01*
X272327193Y-108629993D01*
X272317477Y-108488148D01*
X272301738Y-108365557D01*
X272278676Y-108246942D01*
X272260559Y-108170413D01*
X272111439Y-107674428D01*
X271919716Y-107222769D01*
X271680761Y-106806850D01*
X271389943Y-106418086D01*
X271203394Y-106209763D01*
X270834956Y-105868672D01*
X270424804Y-105575226D01*
X269978946Y-105332749D01*
X269503391Y-105144564D01*
X269064102Y-105026296D01*
X268771225Y-104980008D01*
X268442262Y-104954889D01*
X268099473Y-104950929D01*
X267765113Y-104968117D01*
X267461442Y-105006444D01*
X267356348Y-105027071D01*
X266887810Y-105154878D01*
X266462505Y-105324176D01*
X266069000Y-105541051D01*
X265695865Y-105811589D01*
X265414814Y-106060709D01*
X265061985Y-106441685D01*
X264762530Y-106857599D01*
X264518726Y-107304212D01*
X264332847Y-107777287D01*
X264207169Y-108272588D01*
X264197062Y-108328560D01*
X264168398Y-108558402D01*
X264152443Y-108828521D01*
X264149283Y-109115299D01*
X264038025Y-109115299D01*
X264036661Y-108805088D01*
X264094823Y-108307561D01*
X264212344Y-107818201D01*
X264388224Y-107342822D01*
X264621465Y-106887236D01*
X264879959Y-106498455D01*
X265214435Y-106103312D01*
X265590926Y-105757225D01*
X266006632Y-105461990D01*
X266458756Y-105219403D01*
X266944498Y-105031261D01*
X267328094Y-104927208D01*
X267541438Y-104891019D01*
X267797398Y-104866154D01*
X268077686Y-104852787D01*
X268364011Y-104851090D01*
X268638085Y-104861238D01*
G37*
D13*
%TO.C,C2*%
X200038748Y-89515000D02*
X200561252Y-89515000D01*
X200038748Y-90985000D02*
X200561252Y-90985000D01*
%TO.C,C10*%
X201561252Y-114515000D02*
X201038748Y-114515000D01*
X201561252Y-115985000D02*
X201038748Y-115985000D01*
%TO.C,C5*%
X205561252Y-96015000D02*
X205038748Y-96015000D01*
X205561252Y-97485000D02*
X205038748Y-97485000D01*
%TO.C,R5*%
X216162258Y-104227500D02*
X215687742Y-104227500D01*
X216162258Y-105272500D02*
X215687742Y-105272500D01*
%TO.C,C11*%
X201811252Y-111765000D02*
X201288748Y-111765000D01*
X201811252Y-113235000D02*
X201288748Y-113235000D01*
%TO.C,CR1*%
X199650000Y-106460000D02*
X199650000Y-102800000D01*
X199650000Y-106460000D02*
X201550000Y-106460000D01*
X201550000Y-106460000D02*
X201550000Y-102800000D01*
%TO.C,C13*%
X211261252Y-114515000D02*
X210738748Y-114515000D01*
X211261252Y-115985000D02*
X210738748Y-115985000D01*
%TO.C,C6*%
X201061252Y-97765000D02*
X200538748Y-97765000D01*
X201061252Y-99235000D02*
X200538748Y-99235000D01*
%TO.C,Q2*%
X206062500Y-110690000D02*
X204387500Y-110690000D01*
X206062500Y-110690000D02*
X206712500Y-110690000D01*
X206062500Y-113810000D02*
X205412500Y-113810000D01*
X206062500Y-113810000D02*
X206712500Y-113810000D01*
%TO.C,CR4*%
X213010000Y-103750000D02*
X209350000Y-103750000D01*
X213010000Y-105650000D02*
X209350000Y-105650000D01*
X213010000Y-105650000D02*
X213010000Y-103750000D01*
%TO.C,CR2*%
X206800000Y-102410000D02*
X206800000Y-98750000D01*
X206800000Y-102410000D02*
X208700000Y-102410000D01*
X208700000Y-102410000D02*
X208700000Y-98750000D01*
%TD*%
M02*
