M48
; DRILL file {KiCad 9.0.5} date 2026-02-07T17:18:29-0500
; FORMAT={-:-/ absolute / metric / decimal}
; #@! TF.CreationDate,2026-02-07T17:18:29-05:00
; #@! TF.GenerationSoftware,Kicad,Pcbnew,9.0.5
; #@! TF.FileFunction,Plated,1,2,PTH
FMAT,2
METRIC
; #@! TA.AperFunction,Plated,PTH,ViaDrill
T1C0.300
; #@! TA.AperFunction,Plated,PTH,ComponentDrill
T2C0.991
; #@! TA.AperFunction,Plated,PTH,ComponentDrill
T3C1.000
; #@! TA.AperFunction,Plated,PTH,ComponentDrill
T4C1.100
%
G90
G05
T1
X112.06Y-67.12
X114.5Y-87.5
X114.56Y-60.12
X116.06Y-77.62
X116.5Y-81.5
X119.5Y-58.5
X119.5Y-62.56
X119.5Y-84.5
X121.5Y-81.5
X121.56Y-90.62
X122.0Y-84.0
X127.84Y-89.5
X133.0Y-80.0
X133.1Y-81.5
X135.0Y-80.5
X135.0Y-90.5
X139.453Y-93.599
X140.348Y-93.0
X141.898Y-92.4
X142.063Y-98.383
X143.9Y-90.5
X145.099Y-85.401
X147.0Y-84.0
X151.0Y-99.12
X153.265Y-88.265
X153.5Y-79.0
X153.56Y-74.5
X156.5Y-83.594
X162.0Y-90.5
X163.75Y-89.5
T2
X160.0Y-69.5
X160.0Y-76.0
X164.5Y-69.5
X164.5Y-76.0
T3
X111.96Y-96.42
X111.96Y-114.2
X114.5Y-96.42
X114.5Y-114.2
X117.04Y-96.42
X117.04Y-114.2
X119.58Y-96.42
X119.58Y-114.2
X122.12Y-96.42
X122.12Y-114.2
X124.66Y-96.42
X124.66Y-114.2
X127.2Y-96.42
X127.2Y-114.2
X129.74Y-96.42
X129.74Y-114.2
X132.28Y-96.42
X132.28Y-114.2
X134.82Y-96.42
X134.82Y-114.2
X137.36Y-96.42
X137.36Y-114.2
X139.9Y-96.42
X139.9Y-114.2
X142.44Y-96.42
X142.44Y-114.2
X144.98Y-96.42
X144.98Y-114.2
X147.52Y-96.42
X147.52Y-114.2
X150.06Y-96.42
X150.06Y-114.2
X152.6Y-96.42
X152.6Y-114.2
X155.14Y-96.42
X155.14Y-114.2
X157.68Y-96.42
X157.68Y-114.2
X160.22Y-96.42
X160.22Y-114.2
T4
X162.5Y-58.222
X162.5Y-60.762
M30
