%TF.GenerationSoftware,KiCad,Pcbnew,9.0.5*%
%TF.CreationDate,2026-02-07T17:18:25-05:00*%
%TF.ProjectId,new_battery_display_shup_edited,6e65775f-6261-4747-9465-72795f646973,rev?*%
%TF.SameCoordinates,Original*%
%TF.FileFunction,Soldermask,Bot*%
%TF.FilePolarity,Negative*%
%FSLAX46Y46*%
G04 Gerber Fmt 4.6, Leading zero omitted, Abs format (unit mm)*
G04 Created by KiCad (PCBNEW 9.0.5) date 2026-02-07 17:18:25*
%MOMM*%
%LPD*%
G01*
G04 APERTURE LIST*
G04 Aperture macros list*
%AMRoundRect*
0 Rectangle with rounded corners*
0 $1 Rounding radius*
0 $2 $3 $4 $5 $6 $7 $8 $9 X,Y pos of 4 corners*
0 Add a 4 corners polygon primitive as box body*
4,1,4,$2,$3,$4,$5,$6,$7,$8,$9,$2,$3,0*
0 Add four circle primitives for the rounded corners*
1,1,$1+$1,$2,$3*
1,1,$1+$1,$4,$5*
1,1,$1+$1,$6,$7*
1,1,$1+$1,$8,$9*
0 Add four rect primitives between the rounded corners*
20,1,$1+$1,$2,$3,$4,$5,0*
20,1,$1+$1,$4,$5,$6,$7,0*
20,1,$1+$1,$6,$7,$8,$9,0*
20,1,$1+$1,$8,$9,$2,$3,0*%
%AMFreePoly0*
4,1,37,0.603843,0.796157,0.639018,0.796157,0.711114,0.766294,0.766294,0.711114,0.796157,0.639018,0.796157,0.603843,0.800000,0.600000,0.800000,-0.600000,0.796157,-0.603843,0.796157,-0.639018,0.766294,-0.711114,0.711114,-0.766294,0.639018,-0.796157,0.603843,-0.796157,0.600000,-0.800000,0.000000,-0.800000,0.000000,-0.796148,-0.078414,-0.796148,-0.232228,-0.765552,-0.377117,-0.705537,
-0.507515,-0.618408,-0.618408,-0.507515,-0.705537,-0.377117,-0.765552,-0.232228,-0.796148,-0.078414,-0.796148,0.078414,-0.765552,0.232228,-0.705537,0.377117,-0.618408,0.507515,-0.507515,0.618408,-0.377117,0.705537,-0.232228,0.765552,-0.078414,0.796148,0.000000,0.796148,0.000000,0.800000,0.600000,0.800000,0.603843,0.796157,0.603843,0.796157,$1*%
%AMFreePoly1*
4,1,37,0.000000,0.796148,0.078414,0.796148,0.232228,0.765552,0.377117,0.705537,0.507515,0.618408,0.618408,0.507515,0.705537,0.377117,0.765552,0.232228,0.796148,0.078414,0.796148,-0.078414,0.765552,-0.232228,0.705537,-0.377117,0.618408,-0.507515,0.507515,-0.618408,0.377117,-0.705537,0.232228,-0.765552,0.078414,-0.796148,0.000000,-0.796148,0.000000,-0.800000,-0.600000,-0.800000,
-0.603843,-0.796157,-0.639018,-0.796157,-0.711114,-0.766294,-0.766294,-0.711114,-0.796157,-0.639018,-0.796157,-0.603843,-0.800000,-0.600000,-0.800000,0.600000,-0.796157,0.603843,-0.796157,0.639018,-0.766294,0.711114,-0.711114,0.766294,-0.639018,0.796157,-0.603843,0.796157,-0.600000,0.800000,0.000000,0.800000,0.000000,0.796148,0.000000,0.796148,$1*%
G04 Aperture macros list end*
%ADD10C,4.500000*%
%ADD11R,2.000000X2.000000*%
%ADD12C,2.000000*%
%ADD13C,2.200000*%
%ADD14C,1.850000*%
%ADD15RoundRect,0.200000X0.600000X-0.600000X0.600000X0.600000X-0.600000X0.600000X-0.600000X-0.600000X0*%
%ADD16C,1.600000*%
%ADD17FreePoly0,90.000000*%
%ADD18FreePoly1,90.000000*%
%ADD19R,1.498600X1.498600*%
%ADD20C,1.498600*%
G04 APERTURE END LIST*
D10*
%TO.C,H1*%
X115000000Y-28070000D03*
%TD*%
%TO.C,H1*%
X161060000Y-28070000D03*
%TD*%
D11*
%TO.C,J2*%
X162500000Y-60762000D03*
D12*
X162500000Y-58222000D03*
%TD*%
D13*
%TO.C,A1*%
X112090000Y-108035000D03*
D14*
X115120000Y-107735000D03*
X115120000Y-102885000D03*
D13*
X112090000Y-102585000D03*
D15*
X111960000Y-114200000D03*
D16*
X114500000Y-114200000D03*
D17*
X117040000Y-114200000D03*
D16*
X119580000Y-114200000D03*
X122120000Y-114200000D03*
X124660000Y-114200000D03*
X127200000Y-114200000D03*
D17*
X129740000Y-114200000D03*
D16*
X132280000Y-114200000D03*
X134820000Y-114200000D03*
X137360000Y-114200000D03*
X139900000Y-114200000D03*
D17*
X142440000Y-114200000D03*
D16*
X144980000Y-114200000D03*
X147520000Y-114200000D03*
X150060000Y-114200000D03*
X152600000Y-114200000D03*
D17*
X155140000Y-114200000D03*
D16*
X157680000Y-114200000D03*
X160220000Y-114200000D03*
X160220000Y-96420000D03*
X157680000Y-96420000D03*
D18*
X155140000Y-96420000D03*
D16*
X152600000Y-96420000D03*
X150060000Y-96420000D03*
X147520000Y-96420000D03*
X144980000Y-96420000D03*
D18*
X142440000Y-96420000D03*
D16*
X139900000Y-96420000D03*
X137360000Y-96420000D03*
X134820000Y-96420000D03*
X132280000Y-96420000D03*
D18*
X129740000Y-96420000D03*
D16*
X127200000Y-96420000D03*
X124660000Y-96420000D03*
X122120000Y-96420000D03*
X119580000Y-96420000D03*
D18*
X117040000Y-96420000D03*
D16*
X114500000Y-96420000D03*
X111960000Y-96420000D03*
%TD*%
D19*
%TO.C,SW1*%
X164500001Y-69499999D03*
D20*
X164500001Y-76000000D03*
X160000000Y-69499999D03*
X160000000Y-76000000D03*
%TD*%
M02*
