%TF.GenerationSoftware,KiCad,Pcbnew,9.0.5*%
%TF.CreationDate,2026-02-07T17:18:25-05:00*%
%TF.ProjectId,new_battery_display_shup_edited,6e65775f-6261-4747-9465-72795f646973,rev?*%
%TF.SameCoordinates,Original*%
%TF.FileFunction,Soldermask,Top*%
%TF.FilePolarity,Negative*%
%FSLAX46Y46*%
G04 Gerber Fmt 4.6, Leading zero omitted, Abs format (unit mm)*
G04 Created by KiCad (PCBNEW 9.0.5) date 2026-02-07 17:18:25*
%MOMM*%
%LPD*%
G01*
G04 APERTURE LIST*
G04 Aperture macros list*
%AMRoundRect*
0 Rectangle with rounded corners*
0 $1 Rounding radius*
0 $2 $3 $4 $5 $6 $7 $8 $9 X,Y pos of 4 corners*
0 Add a 4 corners polygon primitive as box body*
4,1,4,$2,$3,$4,$5,$6,$7,$8,$9,$2,$3,0*
0 Add four circle primitives for the rounded corners*
1,1,$1+$1,$2,$3*
1,1,$1+$1,$4,$5*
1,1,$1+$1,$6,$7*
1,1,$1+$1,$8,$9*
0 Add four rect primitives between the rounded corners*
20,1,$1+$1,$2,$3,$4,$5,0*
20,1,$1+$1,$4,$5,$6,$7,0*
20,1,$1+$1,$6,$7,$8,$9,0*
20,1,$1+$1,$8,$9,$2,$3,0*%
%AMFreePoly0*
4,1,37,0.800000,0.796148,0.878414,0.796148,1.032228,0.765552,1.177117,0.705537,1.307515,0.618408,1.418408,0.507515,1.505537,0.377117,1.565552,0.232228,1.596148,0.078414,1.596148,-0.078414,1.565552,-0.232228,1.505537,-0.377117,1.418408,-0.507515,1.307515,-0.618408,1.177117,-0.705537,1.032228,-0.765552,0.878414,-0.796148,0.800000,-0.796148,0.800000,-0.800000,-1.400000,-0.800000,
-1.403843,-0.796157,-1.439018,-0.796157,-1.511114,-0.766294,-1.566294,-0.711114,-1.596157,-0.639018,-1.596157,-0.603843,-1.600000,-0.600000,-1.600000,0.600000,-1.596157,0.603843,-1.596157,0.639018,-1.566294,0.711114,-1.511114,0.766294,-1.439018,0.796157,-1.403843,0.796157,-1.400000,0.800000,0.800000,0.800000,0.800000,0.796148,0.800000,0.796148,$1*%
%AMFreePoly1*
4,1,37,1.403843,0.796157,1.439018,0.796157,1.511114,0.766294,1.566294,0.711114,1.596157,0.639018,1.596157,0.603843,1.600000,0.600000,1.600000,-0.600000,1.596157,-0.603843,1.596157,-0.639018,1.566294,-0.711114,1.511114,-0.766294,1.439018,-0.796157,1.403843,-0.796157,1.400000,-0.800000,-0.800000,-0.800000,-0.800000,-0.796148,-0.878414,-0.796148,-1.032228,-0.765552,-1.177117,-0.705537,
-1.307515,-0.618408,-1.418408,-0.507515,-1.505537,-0.377117,-1.565552,-0.232228,-1.596148,-0.078414,-1.596148,0.078414,-1.565552,0.232228,-1.505537,0.377117,-1.418408,0.507515,-1.307515,0.618408,-1.177117,0.705537,-1.032228,0.765552,-0.878414,0.796148,-0.800000,0.796148,-0.800000,0.800000,1.400000,0.800000,1.403843,0.796157,1.403843,0.796157,$1*%
%AMFreePoly2*
4,1,37,0.603843,0.796157,0.639018,0.796157,0.711114,0.766294,0.766294,0.711114,0.796157,0.639018,0.796157,0.603843,0.800000,0.600000,0.800000,-0.600000,0.796157,-0.603843,0.796157,-0.639018,0.766294,-0.711114,0.711114,-0.766294,0.639018,-0.796157,0.603843,-0.796157,0.600000,-0.800000,0.000000,-0.800000,0.000000,-0.796148,-0.078414,-0.796148,-0.232228,-0.765552,-0.377117,-0.705537,
-0.507515,-0.618408,-0.618408,-0.507515,-0.705537,-0.377117,-0.765552,-0.232228,-0.796148,-0.078414,-0.796148,0.078414,-0.765552,0.232228,-0.705537,0.377117,-0.618408,0.507515,-0.507515,0.618408,-0.377117,0.705537,-0.232228,0.765552,-0.078414,0.796148,0.000000,0.796148,0.000000,0.800000,0.600000,0.800000,0.603843,0.796157,0.603843,0.796157,$1*%
%AMFreePoly3*
4,1,37,0.000000,0.796148,0.078414,0.796148,0.232228,0.765552,0.377117,0.705537,0.507515,0.618408,0.618408,0.507515,0.705537,0.377117,0.765552,0.232228,0.796148,0.078414,0.796148,-0.078414,0.765552,-0.232228,0.705537,-0.377117,0.618408,-0.507515,0.507515,-0.618408,0.377117,-0.705537,0.232228,-0.765552,0.078414,-0.796148,0.000000,-0.796148,0.000000,-0.800000,-0.600000,-0.800000,
-0.603843,-0.796157,-0.639018,-0.796157,-0.711114,-0.766294,-0.766294,-0.711114,-0.796157,-0.639018,-0.796157,-0.603843,-0.800000,-0.600000,-0.800000,0.600000,-0.796157,0.603843,-0.796157,0.639018,-0.766294,0.711114,-0.711114,0.766294,-0.639018,0.796157,-0.603843,0.796157,-0.600000,0.800000,0.000000,0.800000,0.000000,0.796148,0.000000,0.796148,$1*%
G04 Aperture macros list end*
%ADD10RoundRect,0.250000X-0.312500X-0.625000X0.312500X-0.625000X0.312500X0.625000X-0.312500X0.625000X0*%
%ADD11R,1.200000X1.200000*%
%ADD12RoundRect,0.150000X-0.587500X-0.150000X0.587500X-0.150000X0.587500X0.150000X-0.587500X0.150000X0*%
%ADD13RoundRect,0.250000X-0.250000X-0.475000X0.250000X-0.475000X0.250000X0.475000X-0.250000X0.475000X0*%
%ADD14R,2.000000X1.500000*%
%ADD15R,2.000000X3.800000*%
%ADD16RoundRect,0.250000X0.250000X0.475000X-0.250000X0.475000X-0.250000X-0.475000X0.250000X-0.475000X0*%
%ADD17C,4.500000*%
%ADD18RoundRect,0.225000X-0.225000X-0.250000X0.225000X-0.250000X0.225000X0.250000X-0.225000X0.250000X0*%
%ADD19RoundRect,0.200000X0.275000X-0.200000X0.275000X0.200000X-0.275000X0.200000X-0.275000X-0.200000X0*%
%ADD20RoundRect,0.250000X0.475000X-0.250000X0.475000X0.250000X-0.475000X0.250000X-0.475000X-0.250000X0*%
%ADD21RoundRect,0.150000X0.150000X-0.587500X0.150000X0.587500X-0.150000X0.587500X-0.150000X-0.587500X0*%
%ADD22R,1.574800X1.397000*%
%ADD23RoundRect,0.250000X-0.625000X0.312500X-0.625000X-0.312500X0.625000X-0.312500X0.625000X0.312500X0*%
%ADD24RoundRect,0.250000X-0.475000X0.250000X-0.475000X-0.250000X0.475000X-0.250000X0.475000X0.250000X0*%
%ADD25R,2.000000X2.000000*%
%ADD26C,2.000000*%
%ADD27RoundRect,0.050000X0.150000X0.400000X-0.150000X0.400000X-0.150000X-0.400000X0.150000X-0.400000X0*%
%ADD28RoundRect,0.102000X0.200000X0.400000X-0.200000X0.400000X-0.200000X-0.400000X0.200000X-0.400000X0*%
%ADD29RoundRect,0.200000X-0.200000X-0.275000X0.200000X-0.275000X0.200000X0.275000X-0.200000X0.275000X0*%
%ADD30C,2.200000*%
%ADD31C,1.850000*%
%ADD32FreePoly0,90.000000*%
%ADD33RoundRect,0.200000X0.600000X-0.600000X0.600000X0.600000X-0.600000X0.600000X-0.600000X-0.600000X0*%
%ADD34RoundRect,0.800000X0.000010X-0.800000X0.000010X0.800000X-0.000010X0.800000X-0.000010X-0.800000X0*%
%ADD35C,1.600000*%
%ADD36FreePoly1,90.000000*%
%ADD37FreePoly2,90.000000*%
%ADD38FreePoly3,90.000000*%
%ADD39R,1.498600X1.498600*%
%ADD40C,1.498600*%
G04 APERTURE END LIST*
D10*
%TO.C,R1*%
X128635000Y-92120000D03*
X131560000Y-92120000D03*
%TD*%
D11*
%TO.C,CR3*%
X111760000Y-51120000D03*
X114560000Y-51120000D03*
%TD*%
D12*
%TO.C,Q2*%
X118560000Y-41220000D03*
X118560000Y-43120000D03*
X120435000Y-42170000D03*
%TD*%
D13*
%TO.C,C9*%
X110500000Y-35000000D03*
X112400000Y-35000000D03*
%TD*%
D14*
%TO.C,VR1*%
X124200000Y-81700000D03*
X124200000Y-84000000D03*
D15*
X130500000Y-84000000D03*
D14*
X124200000Y-86300000D03*
%TD*%
D16*
%TO.C,C3*%
X119560000Y-77620000D03*
X117660000Y-77620000D03*
%TD*%
D13*
%TO.C,C10*%
X111600000Y-84500000D03*
X113500000Y-84500000D03*
%TD*%
D17*
%TO.C,H1*%
X115000000Y-28070000D03*
%TD*%
D18*
%TO.C,C11*%
X111510000Y-76620000D03*
X113060000Y-76620000D03*
%TD*%
D11*
%TO.C,CR4*%
X116500000Y-70900000D03*
X116500000Y-68100000D03*
%TD*%
D16*
%TO.C,C6*%
X120000000Y-90500000D03*
X118100000Y-90500000D03*
%TD*%
D19*
%TO.C,R3*%
X156500000Y-76150000D03*
X156500000Y-74500000D03*
%TD*%
D20*
%TO.C,C5*%
X110060000Y-62520000D03*
X110060000Y-60620000D03*
%TD*%
D16*
%TO.C,C4*%
X124460000Y-90620000D03*
X122560000Y-90620000D03*
%TD*%
D21*
%TO.C,Q1*%
X137550000Y-82375000D03*
X139450000Y-82375000D03*
X138500000Y-80500000D03*
%TD*%
D22*
%TO.C,SRP3012TA-100M1*%
X113500000Y-42000000D03*
X111061600Y-42000000D03*
%TD*%
D13*
%TO.C,C7*%
X117610000Y-64620000D03*
X119510000Y-64620000D03*
%TD*%
D17*
%TO.C,H1*%
X161060000Y-28070000D03*
%TD*%
D23*
%TO.C,R2*%
X143500000Y-80575000D03*
X143500000Y-83500000D03*
%TD*%
D16*
%TO.C,C1*%
X160060000Y-84620000D03*
X158160000Y-84620000D03*
%TD*%
D24*
%TO.C,C12*%
X112000000Y-87600000D03*
X112000000Y-89500000D03*
%TD*%
D25*
%TO.C,J2*%
X162500000Y-60762000D03*
D26*
X162500000Y-58222000D03*
%TD*%
D20*
%TO.C,C8*%
X110560000Y-48520000D03*
X110560000Y-46620000D03*
%TD*%
D27*
%TO.C,J1*%
X134250000Y-89000000D03*
X134750000Y-89000000D03*
X135250000Y-89000000D03*
X135750000Y-89000000D03*
X136250000Y-89000000D03*
X136750000Y-89000000D03*
X137250000Y-89000000D03*
X137750000Y-89000000D03*
X138250000Y-89000000D03*
X138750000Y-89000000D03*
X139250000Y-89000000D03*
X139750000Y-89000000D03*
X140250000Y-89000000D03*
X140750000Y-89000000D03*
X141250000Y-89000000D03*
X141750000Y-89000000D03*
X142250000Y-89000000D03*
X142750000Y-89000000D03*
X143250000Y-89000000D03*
X143750000Y-89000000D03*
X144250000Y-89000000D03*
X144750000Y-89000000D03*
X145250000Y-89000000D03*
X145750000Y-89000000D03*
D28*
X146750000Y-86500000D03*
X133250000Y-86500000D03*
%TD*%
D29*
%TO.C,R4*%
X160350000Y-53500000D03*
X162000000Y-53500000D03*
%TD*%
D11*
%TO.C,CR1*%
X116560000Y-56920000D03*
X116560000Y-54120000D03*
%TD*%
D30*
%TO.C,A1*%
X112090000Y-108035000D03*
D31*
X115120000Y-107735000D03*
X115120000Y-102885000D03*
D30*
X112090000Y-102585000D03*
D32*
X111960000Y-115000000D03*
D33*
X111960000Y-114200000D03*
D34*
X114500000Y-115000000D03*
D35*
X114500000Y-114200000D03*
D36*
X117040000Y-115000000D03*
D37*
X117040000Y-114200000D03*
D34*
X119580000Y-115000000D03*
D35*
X119580000Y-114200000D03*
D34*
X122120000Y-115000000D03*
D35*
X122120000Y-114200000D03*
D34*
X124660000Y-115000000D03*
D35*
X124660000Y-114200000D03*
D34*
X127200000Y-115000000D03*
D35*
X127200000Y-114200000D03*
D36*
X129740000Y-115000000D03*
D37*
X129740000Y-114200000D03*
D34*
X132280000Y-115000000D03*
D35*
X132280000Y-114200000D03*
D34*
X134820000Y-115000000D03*
D35*
X134820000Y-114200000D03*
D34*
X137360000Y-115000000D03*
D35*
X137360000Y-114200000D03*
D34*
X139900000Y-115000000D03*
D35*
X139900000Y-114200000D03*
D36*
X142440000Y-115000000D03*
D37*
X142440000Y-114200000D03*
D34*
X144980000Y-115000000D03*
D35*
X144980000Y-114200000D03*
D34*
X147520000Y-115000000D03*
D35*
X147520000Y-114200000D03*
D34*
X150060000Y-115000000D03*
D35*
X150060000Y-114200000D03*
D34*
X152600000Y-115000000D03*
D35*
X152600000Y-114200000D03*
D36*
X155140000Y-115000000D03*
D37*
X155140000Y-114200000D03*
D34*
X157680000Y-115000000D03*
D35*
X157680000Y-114200000D03*
D34*
X160220000Y-115000000D03*
D35*
X160220000Y-114200000D03*
X160220000Y-96420000D03*
D34*
X160220000Y-95620000D03*
D35*
X157680000Y-96420000D03*
D34*
X157680000Y-95620000D03*
D38*
X155140000Y-96420000D03*
D32*
X155140000Y-95620000D03*
D35*
X152600000Y-96420000D03*
D34*
X152600000Y-95620000D03*
D35*
X150060000Y-96420000D03*
D34*
X150060000Y-95620000D03*
D35*
X147520000Y-96420000D03*
D34*
X147520000Y-95620000D03*
D35*
X144980000Y-96420000D03*
D34*
X144980000Y-95620000D03*
D38*
X142440000Y-96420000D03*
D32*
X142440000Y-95620000D03*
D35*
X139900000Y-96420000D03*
D34*
X139900000Y-95620000D03*
D35*
X137360000Y-96420000D03*
D34*
X137360000Y-95620000D03*
D35*
X134820000Y-96420000D03*
D34*
X134820000Y-95620000D03*
D35*
X132280000Y-96420000D03*
D34*
X132280000Y-95620000D03*
D38*
X129740000Y-96420000D03*
D32*
X129740000Y-95620000D03*
D35*
X127200000Y-96420000D03*
D34*
X127200000Y-95620000D03*
D35*
X124660000Y-96420000D03*
D34*
X124660000Y-95620000D03*
D35*
X122120000Y-96420000D03*
D34*
X122120000Y-95620000D03*
D35*
X119580000Y-96420000D03*
D34*
X119580000Y-95620000D03*
D38*
X117040000Y-96420000D03*
D32*
X117040000Y-95620000D03*
D35*
X114500000Y-96420000D03*
D34*
X114500000Y-95620000D03*
D35*
X111960000Y-96420000D03*
D34*
X111960000Y-95620000D03*
%TD*%
D16*
%TO.C,C2*%
X156560000Y-80620000D03*
X154660000Y-80620000D03*
%TD*%
D39*
%TO.C,SW1*%
X164500001Y-69499999D03*
D40*
X164500001Y-76000000D03*
X160000000Y-69499999D03*
X160000000Y-76000000D03*
%TD*%
M02*
