%TF.GenerationSoftware,KiCad,Pcbnew,9.0.5*%
%TF.CreationDate,2026-02-07T17:18:25-05:00*%
%TF.ProjectId,new_battery_display_shup_edited,6e65775f-6261-4747-9465-72795f646973,rev?*%
%TF.SameCoordinates,Original*%
%TF.FileFunction,Legend,Top*%
%TF.FilePolarity,Positive*%
%FSLAX46Y46*%
G04 Gerber Fmt 4.6, Leading zero omitted, Abs format (unit mm)*
G04 Created by KiCad (PCBNEW 9.0.5) date 2026-02-07 17:18:25*
%MOMM*%
%LPD*%
G01*
G04 APERTURE LIST*
%ADD10C,0.100000*%
%ADD11C,0.150000*%
%ADD12C,0.200000*%
%ADD13C,0.120000*%
%ADD14C,0.152400*%
%ADD15C,0.127000*%
G04 APERTURE END LIST*
D10*
X164000000Y-37500000D02*
X163500000Y-40000000D01*
X163500000Y-41500000D01*
X164500000Y-42500000D01*
X165500000Y-43000000D01*
X165500000Y-44000000D01*
X164500000Y-44500000D01*
X164000000Y-44500000D01*
X162500000Y-43000000D01*
X162000000Y-42000000D01*
X162000000Y-38500000D01*
X162500000Y-37500000D01*
X163500000Y-37000000D01*
X164000000Y-37500000D01*
G36*
X164000000Y-37500000D02*
G01*
X163500000Y-40000000D01*
X163500000Y-41500000D01*
X164500000Y-42500000D01*
X165500000Y-43000000D01*
X165500000Y-44000000D01*
X164500000Y-44500000D01*
X164000000Y-44500000D01*
X162500000Y-43000000D01*
X162000000Y-42000000D01*
X162000000Y-38500000D01*
X162500000Y-37500000D01*
X163500000Y-37000000D01*
X164000000Y-37500000D01*
G37*
X162000000Y-40500000D02*
X161500000Y-39500000D01*
X161000000Y-39500000D02*
X161000000Y-41000000D01*
X165500000Y-40000000D02*
X165500000Y-41000000D01*
X164500000Y-40000000D02*
X165500000Y-40000000D01*
X165500000Y-41000000D02*
X164500000Y-41500000D01*
X161000000Y-39000000D02*
X161000000Y-39500000D01*
X163500000Y-41000000D02*
X164500000Y-40000000D01*
X161500000Y-39500000D02*
X161500000Y-39000000D01*
X164500000Y-41500000D02*
X165500000Y-43000000D01*
X161000000Y-41000000D02*
X162500000Y-43000000D01*
X122500000Y-18500000D02*
X152500000Y-18500000D01*
X152500000Y-78500000D01*
X122500000Y-78500000D01*
X122500000Y-18500000D01*
X161500000Y-39000000D02*
X161000000Y-39000000D01*
X153803884Y-91372419D02*
X153803884Y-90372419D01*
X154232455Y-91372419D02*
X154232455Y-90848609D01*
X154232455Y-90848609D02*
X154184836Y-90753371D01*
X154184836Y-90753371D02*
X154089598Y-90705752D01*
X154089598Y-90705752D02*
X153946741Y-90705752D01*
X153946741Y-90705752D02*
X153851503Y-90753371D01*
X153851503Y-90753371D02*
X153803884Y-90800990D01*
X155089598Y-91324800D02*
X154994360Y-91372419D01*
X154994360Y-91372419D02*
X154803884Y-91372419D01*
X154803884Y-91372419D02*
X154708646Y-91324800D01*
X154708646Y-91324800D02*
X154661027Y-91229561D01*
X154661027Y-91229561D02*
X154661027Y-90848609D01*
X154661027Y-90848609D02*
X154708646Y-90753371D01*
X154708646Y-90753371D02*
X154803884Y-90705752D01*
X154803884Y-90705752D02*
X154994360Y-90705752D01*
X154994360Y-90705752D02*
X155089598Y-90753371D01*
X155089598Y-90753371D02*
X155137217Y-90848609D01*
X155137217Y-90848609D02*
X155137217Y-90943847D01*
X155137217Y-90943847D02*
X154661027Y-91039085D01*
X155708646Y-91372419D02*
X155613408Y-91324800D01*
X155613408Y-91324800D02*
X155565789Y-91229561D01*
X155565789Y-91229561D02*
X155565789Y-90372419D01*
X156232456Y-91372419D02*
X156137218Y-91324800D01*
X156137218Y-91324800D02*
X156089599Y-91229561D01*
X156089599Y-91229561D02*
X156089599Y-90372419D01*
X156756266Y-91372419D02*
X156661028Y-91324800D01*
X156661028Y-91324800D02*
X156613409Y-91277180D01*
X156613409Y-91277180D02*
X156565790Y-91181942D01*
X156565790Y-91181942D02*
X156565790Y-90896228D01*
X156565790Y-90896228D02*
X156613409Y-90800990D01*
X156613409Y-90800990D02*
X156661028Y-90753371D01*
X156661028Y-90753371D02*
X156756266Y-90705752D01*
X156756266Y-90705752D02*
X156899123Y-90705752D01*
X156899123Y-90705752D02*
X156994361Y-90753371D01*
X156994361Y-90753371D02*
X157041980Y-90800990D01*
X157041980Y-90800990D02*
X157089599Y-90896228D01*
X157089599Y-90896228D02*
X157089599Y-91181942D01*
X157089599Y-91181942D02*
X157041980Y-91277180D01*
X157041980Y-91277180D02*
X156994361Y-91324800D01*
X156994361Y-91324800D02*
X156899123Y-91372419D01*
X156899123Y-91372419D02*
X156756266Y-91372419D01*
X154762475Y-50196115D02*
X153762475Y-50196115D01*
X153762475Y-50196115D02*
X154476760Y-49862782D01*
X154476760Y-49862782D02*
X153762475Y-49529449D01*
X153762475Y-49529449D02*
X154762475Y-49529449D01*
X154762475Y-48624687D02*
X154238665Y-48624687D01*
X154238665Y-48624687D02*
X154143427Y-48672306D01*
X154143427Y-48672306D02*
X154095808Y-48767544D01*
X154095808Y-48767544D02*
X154095808Y-48958020D01*
X154095808Y-48958020D02*
X154143427Y-49053258D01*
X154714856Y-48624687D02*
X154762475Y-48719925D01*
X154762475Y-48719925D02*
X154762475Y-48958020D01*
X154762475Y-48958020D02*
X154714856Y-49053258D01*
X154714856Y-49053258D02*
X154619617Y-49100877D01*
X154619617Y-49100877D02*
X154524379Y-49100877D01*
X154524379Y-49100877D02*
X154429141Y-49053258D01*
X154429141Y-49053258D02*
X154381522Y-48958020D01*
X154381522Y-48958020D02*
X154381522Y-48719925D01*
X154381522Y-48719925D02*
X154333903Y-48624687D01*
X154762475Y-47719925D02*
X153762475Y-47719925D01*
X154714856Y-47719925D02*
X154762475Y-47815163D01*
X154762475Y-47815163D02*
X154762475Y-48005639D01*
X154762475Y-48005639D02*
X154714856Y-48100877D01*
X154714856Y-48100877D02*
X154667236Y-48148496D01*
X154667236Y-48148496D02*
X154571998Y-48196115D01*
X154571998Y-48196115D02*
X154286284Y-48196115D01*
X154286284Y-48196115D02*
X154191046Y-48148496D01*
X154191046Y-48148496D02*
X154143427Y-48100877D01*
X154143427Y-48100877D02*
X154095808Y-48005639D01*
X154095808Y-48005639D02*
X154095808Y-47815163D01*
X154095808Y-47815163D02*
X154143427Y-47719925D01*
X154714856Y-46862782D02*
X154762475Y-46958020D01*
X154762475Y-46958020D02*
X154762475Y-47148496D01*
X154762475Y-47148496D02*
X154714856Y-47243734D01*
X154714856Y-47243734D02*
X154619617Y-47291353D01*
X154619617Y-47291353D02*
X154238665Y-47291353D01*
X154238665Y-47291353D02*
X154143427Y-47243734D01*
X154143427Y-47243734D02*
X154095808Y-47148496D01*
X154095808Y-47148496D02*
X154095808Y-46958020D01*
X154095808Y-46958020D02*
X154143427Y-46862782D01*
X154143427Y-46862782D02*
X154238665Y-46815163D01*
X154238665Y-46815163D02*
X154333903Y-46815163D01*
X154333903Y-46815163D02*
X154429141Y-47291353D01*
X154762475Y-45624686D02*
X153762475Y-45624686D01*
X154143427Y-45624686D02*
X154095808Y-45529448D01*
X154095808Y-45529448D02*
X154095808Y-45338972D01*
X154095808Y-45338972D02*
X154143427Y-45243734D01*
X154143427Y-45243734D02*
X154191046Y-45196115D01*
X154191046Y-45196115D02*
X154286284Y-45148496D01*
X154286284Y-45148496D02*
X154571998Y-45148496D01*
X154571998Y-45148496D02*
X154667236Y-45196115D01*
X154667236Y-45196115D02*
X154714856Y-45243734D01*
X154714856Y-45243734D02*
X154762475Y-45338972D01*
X154762475Y-45338972D02*
X154762475Y-45529448D01*
X154762475Y-45529448D02*
X154714856Y-45624686D01*
X154095808Y-44815162D02*
X154762475Y-44577067D01*
X154095808Y-44338972D02*
X154762475Y-44577067D01*
X154762475Y-44577067D02*
X155000570Y-44672305D01*
X155000570Y-44672305D02*
X155048189Y-44719924D01*
X155048189Y-44719924D02*
X155095808Y-44815162D01*
X154476760Y-43243733D02*
X154476760Y-42767543D01*
X154762475Y-43338971D02*
X153762475Y-43005638D01*
X153762475Y-43005638D02*
X154762475Y-42672305D01*
X154095808Y-42338971D02*
X154762475Y-42338971D01*
X154191046Y-42338971D02*
X154143427Y-42291352D01*
X154143427Y-42291352D02*
X154095808Y-42196114D01*
X154095808Y-42196114D02*
X154095808Y-42053257D01*
X154095808Y-42053257D02*
X154143427Y-41958019D01*
X154143427Y-41958019D02*
X154238665Y-41910400D01*
X154238665Y-41910400D02*
X154762475Y-41910400D01*
X154095808Y-41434209D02*
X154762475Y-41434209D01*
X154191046Y-41434209D02*
X154143427Y-41386590D01*
X154143427Y-41386590D02*
X154095808Y-41291352D01*
X154095808Y-41291352D02*
X154095808Y-41148495D01*
X154095808Y-41148495D02*
X154143427Y-41053257D01*
X154143427Y-41053257D02*
X154238665Y-41005638D01*
X154238665Y-41005638D02*
X154762475Y-41005638D01*
X154714856Y-40148495D02*
X154762475Y-40243733D01*
X154762475Y-40243733D02*
X154762475Y-40434209D01*
X154762475Y-40434209D02*
X154714856Y-40529447D01*
X154714856Y-40529447D02*
X154619617Y-40577066D01*
X154619617Y-40577066D02*
X154238665Y-40577066D01*
X154238665Y-40577066D02*
X154143427Y-40529447D01*
X154143427Y-40529447D02*
X154095808Y-40434209D01*
X154095808Y-40434209D02*
X154095808Y-40243733D01*
X154095808Y-40243733D02*
X154143427Y-40148495D01*
X154143427Y-40148495D02*
X154238665Y-40100876D01*
X154238665Y-40100876D02*
X154333903Y-40100876D01*
X154333903Y-40100876D02*
X154429141Y-40577066D01*
X154762475Y-38910399D02*
X153762475Y-38910399D01*
X154238665Y-38910399D02*
X154238665Y-38338971D01*
X154762475Y-38338971D02*
X153762475Y-38338971D01*
X154095808Y-37434209D02*
X154762475Y-37434209D01*
X154095808Y-37862780D02*
X154619617Y-37862780D01*
X154619617Y-37862780D02*
X154714856Y-37815161D01*
X154714856Y-37815161D02*
X154762475Y-37719923D01*
X154762475Y-37719923D02*
X154762475Y-37577066D01*
X154762475Y-37577066D02*
X154714856Y-37481828D01*
X154714856Y-37481828D02*
X154667236Y-37434209D01*
X154762475Y-36815161D02*
X154714856Y-36910399D01*
X154714856Y-36910399D02*
X154667236Y-36958018D01*
X154667236Y-36958018D02*
X154571998Y-37005637D01*
X154571998Y-37005637D02*
X154286284Y-37005637D01*
X154286284Y-37005637D02*
X154191046Y-36958018D01*
X154191046Y-36958018D02*
X154143427Y-36910399D01*
X154143427Y-36910399D02*
X154095808Y-36815161D01*
X154095808Y-36815161D02*
X154095808Y-36672304D01*
X154095808Y-36672304D02*
X154143427Y-36577066D01*
X154143427Y-36577066D02*
X154191046Y-36529447D01*
X154191046Y-36529447D02*
X154286284Y-36481828D01*
X154286284Y-36481828D02*
X154571998Y-36481828D01*
X154571998Y-36481828D02*
X154667236Y-36529447D01*
X154667236Y-36529447D02*
X154714856Y-36577066D01*
X154714856Y-36577066D02*
X154762475Y-36672304D01*
X154762475Y-36672304D02*
X154762475Y-36815161D01*
X154762475Y-34862780D02*
X154238665Y-34862780D01*
X154238665Y-34862780D02*
X154143427Y-34910399D01*
X154143427Y-34910399D02*
X154095808Y-35005637D01*
X154095808Y-35005637D02*
X154095808Y-35196113D01*
X154095808Y-35196113D02*
X154143427Y-35291351D01*
X154714856Y-34862780D02*
X154762475Y-34958018D01*
X154762475Y-34958018D02*
X154762475Y-35196113D01*
X154762475Y-35196113D02*
X154714856Y-35291351D01*
X154714856Y-35291351D02*
X154619617Y-35338970D01*
X154619617Y-35338970D02*
X154524379Y-35338970D01*
X154524379Y-35338970D02*
X154429141Y-35291351D01*
X154429141Y-35291351D02*
X154381522Y-35196113D01*
X154381522Y-35196113D02*
X154381522Y-34958018D01*
X154381522Y-34958018D02*
X154333903Y-34862780D01*
X154095808Y-34386589D02*
X154762475Y-34386589D01*
X154191046Y-34386589D02*
X154143427Y-34338970D01*
X154143427Y-34338970D02*
X154095808Y-34243732D01*
X154095808Y-34243732D02*
X154095808Y-34100875D01*
X154095808Y-34100875D02*
X154143427Y-34005637D01*
X154143427Y-34005637D02*
X154238665Y-33958018D01*
X154238665Y-33958018D02*
X154762475Y-33958018D01*
X154762475Y-33053256D02*
X153762475Y-33053256D01*
X154714856Y-33053256D02*
X154762475Y-33148494D01*
X154762475Y-33148494D02*
X154762475Y-33338970D01*
X154762475Y-33338970D02*
X154714856Y-33434208D01*
X154714856Y-33434208D02*
X154667236Y-33481827D01*
X154667236Y-33481827D02*
X154571998Y-33529446D01*
X154571998Y-33529446D02*
X154286284Y-33529446D01*
X154286284Y-33529446D02*
X154191046Y-33481827D01*
X154191046Y-33481827D02*
X154143427Y-33434208D01*
X154143427Y-33434208D02*
X154095808Y-33338970D01*
X154095808Y-33338970D02*
X154095808Y-33148494D01*
X154095808Y-33148494D02*
X154143427Y-33053256D01*
X154714856Y-31862779D02*
X154762475Y-31719922D01*
X154762475Y-31719922D02*
X154762475Y-31481827D01*
X154762475Y-31481827D02*
X154714856Y-31386589D01*
X154714856Y-31386589D02*
X154667236Y-31338970D01*
X154667236Y-31338970D02*
X154571998Y-31291351D01*
X154571998Y-31291351D02*
X154476760Y-31291351D01*
X154476760Y-31291351D02*
X154381522Y-31338970D01*
X154381522Y-31338970D02*
X154333903Y-31386589D01*
X154333903Y-31386589D02*
X154286284Y-31481827D01*
X154286284Y-31481827D02*
X154238665Y-31672303D01*
X154238665Y-31672303D02*
X154191046Y-31767541D01*
X154191046Y-31767541D02*
X154143427Y-31815160D01*
X154143427Y-31815160D02*
X154048189Y-31862779D01*
X154048189Y-31862779D02*
X153952951Y-31862779D01*
X153952951Y-31862779D02*
X153857713Y-31815160D01*
X153857713Y-31815160D02*
X153810094Y-31767541D01*
X153810094Y-31767541D02*
X153762475Y-31672303D01*
X153762475Y-31672303D02*
X153762475Y-31434208D01*
X153762475Y-31434208D02*
X153810094Y-31291351D01*
X154762475Y-30862779D02*
X153762475Y-30862779D01*
X154762475Y-30434208D02*
X154238665Y-30434208D01*
X154238665Y-30434208D02*
X154143427Y-30481827D01*
X154143427Y-30481827D02*
X154095808Y-30577065D01*
X154095808Y-30577065D02*
X154095808Y-30719922D01*
X154095808Y-30719922D02*
X154143427Y-30815160D01*
X154143427Y-30815160D02*
X154191046Y-30862779D01*
X154095808Y-29529446D02*
X154762475Y-29529446D01*
X154095808Y-29958017D02*
X154619617Y-29958017D01*
X154619617Y-29958017D02*
X154714856Y-29910398D01*
X154714856Y-29910398D02*
X154762475Y-29815160D01*
X154762475Y-29815160D02*
X154762475Y-29672303D01*
X154762475Y-29672303D02*
X154714856Y-29577065D01*
X154714856Y-29577065D02*
X154667236Y-29529446D01*
X154095808Y-29053255D02*
X155095808Y-29053255D01*
X154143427Y-29053255D02*
X154095808Y-28958017D01*
X154095808Y-28958017D02*
X154095808Y-28767541D01*
X154095808Y-28767541D02*
X154143427Y-28672303D01*
X154143427Y-28672303D02*
X154191046Y-28624684D01*
X154191046Y-28624684D02*
X154286284Y-28577065D01*
X154286284Y-28577065D02*
X154571998Y-28577065D01*
X154571998Y-28577065D02*
X154667236Y-28624684D01*
X154667236Y-28624684D02*
X154714856Y-28672303D01*
X154714856Y-28672303D02*
X154762475Y-28767541D01*
X154762475Y-28767541D02*
X154762475Y-28958017D01*
X154762475Y-28958017D02*
X154714856Y-29053255D01*
X154762475Y-26910398D02*
X154762475Y-27386588D01*
X154762475Y-27386588D02*
X153762475Y-27386588D01*
X156372419Y-50196115D02*
X155372419Y-50196115D01*
X155848609Y-50196115D02*
X155848609Y-49624687D01*
X156372419Y-49624687D02*
X155372419Y-49624687D01*
X156372419Y-49005639D02*
X156324800Y-49100877D01*
X156324800Y-49100877D02*
X156277180Y-49148496D01*
X156277180Y-49148496D02*
X156181942Y-49196115D01*
X156181942Y-49196115D02*
X155896228Y-49196115D01*
X155896228Y-49196115D02*
X155800990Y-49148496D01*
X155800990Y-49148496D02*
X155753371Y-49100877D01*
X155753371Y-49100877D02*
X155705752Y-49005639D01*
X155705752Y-49005639D02*
X155705752Y-48862782D01*
X155705752Y-48862782D02*
X155753371Y-48767544D01*
X155753371Y-48767544D02*
X155800990Y-48719925D01*
X155800990Y-48719925D02*
X155896228Y-48672306D01*
X155896228Y-48672306D02*
X156181942Y-48672306D01*
X156181942Y-48672306D02*
X156277180Y-48719925D01*
X156277180Y-48719925D02*
X156324800Y-48767544D01*
X156324800Y-48767544D02*
X156372419Y-48862782D01*
X156372419Y-48862782D02*
X156372419Y-49005639D01*
X155705752Y-48243734D02*
X156705752Y-48243734D01*
X155753371Y-48243734D02*
X155705752Y-48148496D01*
X155705752Y-48148496D02*
X155705752Y-47958020D01*
X155705752Y-47958020D02*
X155753371Y-47862782D01*
X155753371Y-47862782D02*
X155800990Y-47815163D01*
X155800990Y-47815163D02*
X155896228Y-47767544D01*
X155896228Y-47767544D02*
X156181942Y-47767544D01*
X156181942Y-47767544D02*
X156277180Y-47815163D01*
X156277180Y-47815163D02*
X156324800Y-47862782D01*
X156324800Y-47862782D02*
X156372419Y-47958020D01*
X156372419Y-47958020D02*
X156372419Y-48148496D01*
X156372419Y-48148496D02*
X156324800Y-48243734D01*
X156324800Y-46958020D02*
X156372419Y-47053258D01*
X156372419Y-47053258D02*
X156372419Y-47243734D01*
X156372419Y-47243734D02*
X156324800Y-47338972D01*
X156324800Y-47338972D02*
X156229561Y-47386591D01*
X156229561Y-47386591D02*
X155848609Y-47386591D01*
X155848609Y-47386591D02*
X155753371Y-47338972D01*
X155753371Y-47338972D02*
X155705752Y-47243734D01*
X155705752Y-47243734D02*
X155705752Y-47053258D01*
X155705752Y-47053258D02*
X155753371Y-46958020D01*
X155753371Y-46958020D02*
X155848609Y-46910401D01*
X155848609Y-46910401D02*
X155943847Y-46910401D01*
X155943847Y-46910401D02*
X156039085Y-47386591D01*
X155705752Y-46624686D02*
X155705752Y-46243734D01*
X156372419Y-46481829D02*
X155515276Y-46481829D01*
X155515276Y-46481829D02*
X155420038Y-46434210D01*
X155420038Y-46434210D02*
X155372419Y-46338972D01*
X155372419Y-46338972D02*
X155372419Y-46243734D01*
X155705752Y-45481829D02*
X156372419Y-45481829D01*
X155705752Y-45910400D02*
X156229561Y-45910400D01*
X156229561Y-45910400D02*
X156324800Y-45862781D01*
X156324800Y-45862781D02*
X156372419Y-45767543D01*
X156372419Y-45767543D02*
X156372419Y-45624686D01*
X156372419Y-45624686D02*
X156324800Y-45529448D01*
X156324800Y-45529448D02*
X156277180Y-45481829D01*
X156372419Y-44862781D02*
X156324800Y-44958019D01*
X156324800Y-44958019D02*
X156229561Y-45005638D01*
X156229561Y-45005638D02*
X155372419Y-45005638D01*
X156372419Y-44338971D02*
X156324800Y-44434209D01*
X156324800Y-44434209D02*
X156229561Y-44481828D01*
X156229561Y-44481828D02*
X155372419Y-44481828D01*
X155705752Y-44053256D02*
X156372419Y-43815161D01*
X155705752Y-43577066D02*
X156372419Y-43815161D01*
X156372419Y-43815161D02*
X156610514Y-43910399D01*
X156610514Y-43910399D02*
X156658133Y-43958018D01*
X156658133Y-43958018D02*
X156705752Y-44053256D01*
X155705752Y-42577065D02*
X155705752Y-42196113D01*
X155372419Y-42434208D02*
X156229561Y-42434208D01*
X156229561Y-42434208D02*
X156324800Y-42386589D01*
X156324800Y-42386589D02*
X156372419Y-42291351D01*
X156372419Y-42291351D02*
X156372419Y-42196113D01*
X156372419Y-41862779D02*
X155372419Y-41862779D01*
X156372419Y-41434208D02*
X155848609Y-41434208D01*
X155848609Y-41434208D02*
X155753371Y-41481827D01*
X155753371Y-41481827D02*
X155705752Y-41577065D01*
X155705752Y-41577065D02*
X155705752Y-41719922D01*
X155705752Y-41719922D02*
X155753371Y-41815160D01*
X155753371Y-41815160D02*
X155800990Y-41862779D01*
X156372419Y-40958017D02*
X155705752Y-40958017D01*
X155372419Y-40958017D02*
X155420038Y-41005636D01*
X155420038Y-41005636D02*
X155467657Y-40958017D01*
X155467657Y-40958017D02*
X155420038Y-40910398D01*
X155420038Y-40910398D02*
X155372419Y-40958017D01*
X155372419Y-40958017D02*
X155467657Y-40958017D01*
X156324800Y-40529446D02*
X156372419Y-40434208D01*
X156372419Y-40434208D02*
X156372419Y-40243732D01*
X156372419Y-40243732D02*
X156324800Y-40148494D01*
X156324800Y-40148494D02*
X156229561Y-40100875D01*
X156229561Y-40100875D02*
X156181942Y-40100875D01*
X156181942Y-40100875D02*
X156086704Y-40148494D01*
X156086704Y-40148494D02*
X156039085Y-40243732D01*
X156039085Y-40243732D02*
X156039085Y-40386589D01*
X156039085Y-40386589D02*
X155991466Y-40481827D01*
X155991466Y-40481827D02*
X155896228Y-40529446D01*
X155896228Y-40529446D02*
X155848609Y-40529446D01*
X155848609Y-40529446D02*
X155753371Y-40481827D01*
X155753371Y-40481827D02*
X155705752Y-40386589D01*
X155705752Y-40386589D02*
X155705752Y-40243732D01*
X155705752Y-40243732D02*
X155753371Y-40148494D01*
X155705752Y-39005636D02*
X156372419Y-38815160D01*
X156372419Y-38815160D02*
X155896228Y-38624684D01*
X155896228Y-38624684D02*
X156372419Y-38434208D01*
X156372419Y-38434208D02*
X155705752Y-38243732D01*
X156372419Y-37719922D02*
X156324800Y-37815160D01*
X156324800Y-37815160D02*
X156277180Y-37862779D01*
X156277180Y-37862779D02*
X156181942Y-37910398D01*
X156181942Y-37910398D02*
X155896228Y-37910398D01*
X155896228Y-37910398D02*
X155800990Y-37862779D01*
X155800990Y-37862779D02*
X155753371Y-37815160D01*
X155753371Y-37815160D02*
X155705752Y-37719922D01*
X155705752Y-37719922D02*
X155705752Y-37577065D01*
X155705752Y-37577065D02*
X155753371Y-37481827D01*
X155753371Y-37481827D02*
X155800990Y-37434208D01*
X155800990Y-37434208D02*
X155896228Y-37386589D01*
X155896228Y-37386589D02*
X156181942Y-37386589D01*
X156181942Y-37386589D02*
X156277180Y-37434208D01*
X156277180Y-37434208D02*
X156324800Y-37481827D01*
X156324800Y-37481827D02*
X156372419Y-37577065D01*
X156372419Y-37577065D02*
X156372419Y-37719922D01*
X156372419Y-36958017D02*
X155705752Y-36958017D01*
X155896228Y-36958017D02*
X155800990Y-36910398D01*
X155800990Y-36910398D02*
X155753371Y-36862779D01*
X155753371Y-36862779D02*
X155705752Y-36767541D01*
X155705752Y-36767541D02*
X155705752Y-36672303D01*
X156372419Y-36338969D02*
X155372419Y-36338969D01*
X155991466Y-36243731D02*
X156372419Y-35958017D01*
X155705752Y-35958017D02*
X156086704Y-36338969D01*
X156324800Y-35577064D02*
X156372419Y-35481826D01*
X156372419Y-35481826D02*
X156372419Y-35291350D01*
X156372419Y-35291350D02*
X156324800Y-35196112D01*
X156324800Y-35196112D02*
X156229561Y-35148493D01*
X156229561Y-35148493D02*
X156181942Y-35148493D01*
X156181942Y-35148493D02*
X156086704Y-35196112D01*
X156086704Y-35196112D02*
X156039085Y-35291350D01*
X156039085Y-35291350D02*
X156039085Y-35434207D01*
X156039085Y-35434207D02*
X155991466Y-35529445D01*
X155991466Y-35529445D02*
X155896228Y-35577064D01*
X155896228Y-35577064D02*
X155848609Y-35577064D01*
X155848609Y-35577064D02*
X155753371Y-35529445D01*
X155753371Y-35529445D02*
X155705752Y-35434207D01*
X155705752Y-35434207D02*
X155705752Y-35291350D01*
X155705752Y-35291350D02*
X155753371Y-35196112D01*
X155705752Y-33196112D02*
X155991466Y-33958016D01*
X155991466Y-33958016D02*
X156277180Y-33196112D01*
X155372419Y-32815159D02*
X155372419Y-32196112D01*
X155372419Y-32196112D02*
X155753371Y-32529445D01*
X155753371Y-32529445D02*
X155753371Y-32386588D01*
X155753371Y-32386588D02*
X155800990Y-32291350D01*
X155800990Y-32291350D02*
X155848609Y-32243731D01*
X155848609Y-32243731D02*
X155943847Y-32196112D01*
X155943847Y-32196112D02*
X156181942Y-32196112D01*
X156181942Y-32196112D02*
X156277180Y-32243731D01*
X156277180Y-32243731D02*
X156324800Y-32291350D01*
X156324800Y-32291350D02*
X156372419Y-32386588D01*
X156372419Y-32386588D02*
X156372419Y-32672302D01*
X156372419Y-32672302D02*
X156324800Y-32767540D01*
X156324800Y-32767540D02*
X156277180Y-32815159D01*
X126866667Y-92864895D02*
X126600000Y-92483942D01*
X126409524Y-92864895D02*
X126409524Y-92064895D01*
X126409524Y-92064895D02*
X126714286Y-92064895D01*
X126714286Y-92064895D02*
X126790476Y-92102990D01*
X126790476Y-92102990D02*
X126828571Y-92141085D01*
X126828571Y-92141085D02*
X126866667Y-92217276D01*
X126866667Y-92217276D02*
X126866667Y-92331561D01*
X126866667Y-92331561D02*
X126828571Y-92407752D01*
X126828571Y-92407752D02*
X126790476Y-92445847D01*
X126790476Y-92445847D02*
X126714286Y-92483942D01*
X126714286Y-92483942D02*
X126409524Y-92483942D01*
X127628571Y-92864895D02*
X127171428Y-92864895D01*
X127400000Y-92864895D02*
X127400000Y-92064895D01*
X127400000Y-92064895D02*
X127323809Y-92179180D01*
X127323809Y-92179180D02*
X127247619Y-92255371D01*
X127247619Y-92255371D02*
X127171428Y-92293466D01*
D11*
X112493333Y-49479580D02*
X112445714Y-49527200D01*
X112445714Y-49527200D02*
X112302857Y-49574819D01*
X112302857Y-49574819D02*
X112207619Y-49574819D01*
X112207619Y-49574819D02*
X112064762Y-49527200D01*
X112064762Y-49527200D02*
X111969524Y-49431961D01*
X111969524Y-49431961D02*
X111921905Y-49336723D01*
X111921905Y-49336723D02*
X111874286Y-49146247D01*
X111874286Y-49146247D02*
X111874286Y-49003390D01*
X111874286Y-49003390D02*
X111921905Y-48812914D01*
X111921905Y-48812914D02*
X111969524Y-48717676D01*
X111969524Y-48717676D02*
X112064762Y-48622438D01*
X112064762Y-48622438D02*
X112207619Y-48574819D01*
X112207619Y-48574819D02*
X112302857Y-48574819D01*
X112302857Y-48574819D02*
X112445714Y-48622438D01*
X112445714Y-48622438D02*
X112493333Y-48670057D01*
X113493333Y-49574819D02*
X113160000Y-49098628D01*
X112921905Y-49574819D02*
X112921905Y-48574819D01*
X112921905Y-48574819D02*
X113302857Y-48574819D01*
X113302857Y-48574819D02*
X113398095Y-48622438D01*
X113398095Y-48622438D02*
X113445714Y-48670057D01*
X113445714Y-48670057D02*
X113493333Y-48765295D01*
X113493333Y-48765295D02*
X113493333Y-48908152D01*
X113493333Y-48908152D02*
X113445714Y-49003390D01*
X113445714Y-49003390D02*
X113398095Y-49051009D01*
X113398095Y-49051009D02*
X113302857Y-49098628D01*
X113302857Y-49098628D02*
X112921905Y-49098628D01*
X113826667Y-48574819D02*
X114445714Y-48574819D01*
X114445714Y-48574819D02*
X114112381Y-48955771D01*
X114112381Y-48955771D02*
X114255238Y-48955771D01*
X114255238Y-48955771D02*
X114350476Y-49003390D01*
X114350476Y-49003390D02*
X114398095Y-49051009D01*
X114398095Y-49051009D02*
X114445714Y-49146247D01*
X114445714Y-49146247D02*
X114445714Y-49384342D01*
X114445714Y-49384342D02*
X114398095Y-49479580D01*
X114398095Y-49479580D02*
X114350476Y-49527200D01*
X114350476Y-49527200D02*
X114255238Y-49574819D01*
X114255238Y-49574819D02*
X113969524Y-49574819D01*
X113969524Y-49574819D02*
X113874286Y-49527200D01*
X113874286Y-49527200D02*
X113826667Y-49479580D01*
D10*
X119442857Y-44829514D02*
X119385714Y-44800942D01*
X119385714Y-44800942D02*
X119328571Y-44743800D01*
X119328571Y-44743800D02*
X119242857Y-44658085D01*
X119242857Y-44658085D02*
X119185714Y-44629514D01*
X119185714Y-44629514D02*
X119128571Y-44629514D01*
X119157142Y-44772371D02*
X119100000Y-44743800D01*
X119100000Y-44743800D02*
X119042857Y-44686657D01*
X119042857Y-44686657D02*
X119014285Y-44572371D01*
X119014285Y-44572371D02*
X119014285Y-44372371D01*
X119014285Y-44372371D02*
X119042857Y-44258085D01*
X119042857Y-44258085D02*
X119100000Y-44200942D01*
X119100000Y-44200942D02*
X119157142Y-44172371D01*
X119157142Y-44172371D02*
X119271428Y-44172371D01*
X119271428Y-44172371D02*
X119328571Y-44200942D01*
X119328571Y-44200942D02*
X119385714Y-44258085D01*
X119385714Y-44258085D02*
X119414285Y-44372371D01*
X119414285Y-44372371D02*
X119414285Y-44572371D01*
X119414285Y-44572371D02*
X119385714Y-44686657D01*
X119385714Y-44686657D02*
X119328571Y-44743800D01*
X119328571Y-44743800D02*
X119271428Y-44772371D01*
X119271428Y-44772371D02*
X119157142Y-44772371D01*
X119642856Y-44229514D02*
X119671428Y-44200942D01*
X119671428Y-44200942D02*
X119728571Y-44172371D01*
X119728571Y-44172371D02*
X119871428Y-44172371D01*
X119871428Y-44172371D02*
X119928571Y-44200942D01*
X119928571Y-44200942D02*
X119957142Y-44229514D01*
X119957142Y-44229514D02*
X119985713Y-44286657D01*
X119985713Y-44286657D02*
X119985713Y-44343800D01*
X119985713Y-44343800D02*
X119957142Y-44429514D01*
X119957142Y-44429514D02*
X119614285Y-44772371D01*
X119614285Y-44772371D02*
X119985713Y-44772371D01*
X111400000Y-33715228D02*
X111371428Y-33743800D01*
X111371428Y-33743800D02*
X111285714Y-33772371D01*
X111285714Y-33772371D02*
X111228571Y-33772371D01*
X111228571Y-33772371D02*
X111142857Y-33743800D01*
X111142857Y-33743800D02*
X111085714Y-33686657D01*
X111085714Y-33686657D02*
X111057143Y-33629514D01*
X111057143Y-33629514D02*
X111028571Y-33515228D01*
X111028571Y-33515228D02*
X111028571Y-33429514D01*
X111028571Y-33429514D02*
X111057143Y-33315228D01*
X111057143Y-33315228D02*
X111085714Y-33258085D01*
X111085714Y-33258085D02*
X111142857Y-33200942D01*
X111142857Y-33200942D02*
X111228571Y-33172371D01*
X111228571Y-33172371D02*
X111285714Y-33172371D01*
X111285714Y-33172371D02*
X111371428Y-33200942D01*
X111371428Y-33200942D02*
X111400000Y-33229514D01*
X111685714Y-33772371D02*
X111800000Y-33772371D01*
X111800000Y-33772371D02*
X111857143Y-33743800D01*
X111857143Y-33743800D02*
X111885714Y-33715228D01*
X111885714Y-33715228D02*
X111942857Y-33629514D01*
X111942857Y-33629514D02*
X111971428Y-33515228D01*
X111971428Y-33515228D02*
X111971428Y-33286657D01*
X111971428Y-33286657D02*
X111942857Y-33229514D01*
X111942857Y-33229514D02*
X111914286Y-33200942D01*
X111914286Y-33200942D02*
X111857143Y-33172371D01*
X111857143Y-33172371D02*
X111742857Y-33172371D01*
X111742857Y-33172371D02*
X111685714Y-33200942D01*
X111685714Y-33200942D02*
X111657143Y-33229514D01*
X111657143Y-33229514D02*
X111628571Y-33286657D01*
X111628571Y-33286657D02*
X111628571Y-33429514D01*
X111628571Y-33429514D02*
X111657143Y-33486657D01*
X111657143Y-33486657D02*
X111685714Y-33515228D01*
X111685714Y-33515228D02*
X111742857Y-33543800D01*
X111742857Y-33543800D02*
X111857143Y-33543800D01*
X111857143Y-33543800D02*
X111914286Y-33515228D01*
X111914286Y-33515228D02*
X111942857Y-33486657D01*
X111942857Y-33486657D02*
X111971428Y-33429514D01*
X126190476Y-87957419D02*
X126523809Y-88957419D01*
X126523809Y-88957419D02*
X126857142Y-87957419D01*
X127761904Y-88957419D02*
X127428571Y-88481228D01*
X127190476Y-88957419D02*
X127190476Y-87957419D01*
X127190476Y-87957419D02*
X127571428Y-87957419D01*
X127571428Y-87957419D02*
X127666666Y-88005038D01*
X127666666Y-88005038D02*
X127714285Y-88052657D01*
X127714285Y-88052657D02*
X127761904Y-88147895D01*
X127761904Y-88147895D02*
X127761904Y-88290752D01*
X127761904Y-88290752D02*
X127714285Y-88385990D01*
X127714285Y-88385990D02*
X127666666Y-88433609D01*
X127666666Y-88433609D02*
X127571428Y-88481228D01*
X127571428Y-88481228D02*
X127190476Y-88481228D01*
X128714285Y-88957419D02*
X128142857Y-88957419D01*
X128428571Y-88957419D02*
X128428571Y-87957419D01*
X128428571Y-87957419D02*
X128333333Y-88100276D01*
X128333333Y-88100276D02*
X128238095Y-88195514D01*
X128238095Y-88195514D02*
X128142857Y-88243133D01*
X116900000Y-76215228D02*
X116871428Y-76243800D01*
X116871428Y-76243800D02*
X116785714Y-76272371D01*
X116785714Y-76272371D02*
X116728571Y-76272371D01*
X116728571Y-76272371D02*
X116642857Y-76243800D01*
X116642857Y-76243800D02*
X116585714Y-76186657D01*
X116585714Y-76186657D02*
X116557143Y-76129514D01*
X116557143Y-76129514D02*
X116528571Y-76015228D01*
X116528571Y-76015228D02*
X116528571Y-75929514D01*
X116528571Y-75929514D02*
X116557143Y-75815228D01*
X116557143Y-75815228D02*
X116585714Y-75758085D01*
X116585714Y-75758085D02*
X116642857Y-75700942D01*
X116642857Y-75700942D02*
X116728571Y-75672371D01*
X116728571Y-75672371D02*
X116785714Y-75672371D01*
X116785714Y-75672371D02*
X116871428Y-75700942D01*
X116871428Y-75700942D02*
X116900000Y-75729514D01*
X117100000Y-75672371D02*
X117471428Y-75672371D01*
X117471428Y-75672371D02*
X117271428Y-75900942D01*
X117271428Y-75900942D02*
X117357143Y-75900942D01*
X117357143Y-75900942D02*
X117414286Y-75929514D01*
X117414286Y-75929514D02*
X117442857Y-75958085D01*
X117442857Y-75958085D02*
X117471428Y-76015228D01*
X117471428Y-76015228D02*
X117471428Y-76158085D01*
X117471428Y-76158085D02*
X117442857Y-76215228D01*
X117442857Y-76215228D02*
X117414286Y-76243800D01*
X117414286Y-76243800D02*
X117357143Y-76272371D01*
X117357143Y-76272371D02*
X117185714Y-76272371D01*
X117185714Y-76272371D02*
X117128571Y-76243800D01*
X117128571Y-76243800D02*
X117100000Y-76215228D01*
X111985714Y-83288704D02*
X111947618Y-83326800D01*
X111947618Y-83326800D02*
X111833333Y-83364895D01*
X111833333Y-83364895D02*
X111757142Y-83364895D01*
X111757142Y-83364895D02*
X111642856Y-83326800D01*
X111642856Y-83326800D02*
X111566666Y-83250609D01*
X111566666Y-83250609D02*
X111528571Y-83174419D01*
X111528571Y-83174419D02*
X111490475Y-83022038D01*
X111490475Y-83022038D02*
X111490475Y-82907752D01*
X111490475Y-82907752D02*
X111528571Y-82755371D01*
X111528571Y-82755371D02*
X111566666Y-82679180D01*
X111566666Y-82679180D02*
X111642856Y-82602990D01*
X111642856Y-82602990D02*
X111757142Y-82564895D01*
X111757142Y-82564895D02*
X111833333Y-82564895D01*
X111833333Y-82564895D02*
X111947618Y-82602990D01*
X111947618Y-82602990D02*
X111985714Y-82641085D01*
X112747618Y-83364895D02*
X112290475Y-83364895D01*
X112519047Y-83364895D02*
X112519047Y-82564895D01*
X112519047Y-82564895D02*
X112442856Y-82679180D01*
X112442856Y-82679180D02*
X112366666Y-82755371D01*
X112366666Y-82755371D02*
X112290475Y-82793466D01*
X113242857Y-82564895D02*
X113319047Y-82564895D01*
X113319047Y-82564895D02*
X113395238Y-82602990D01*
X113395238Y-82602990D02*
X113433333Y-82641085D01*
X113433333Y-82641085D02*
X113471428Y-82717276D01*
X113471428Y-82717276D02*
X113509523Y-82869657D01*
X113509523Y-82869657D02*
X113509523Y-83060133D01*
X113509523Y-83060133D02*
X113471428Y-83212514D01*
X113471428Y-83212514D02*
X113433333Y-83288704D01*
X113433333Y-83288704D02*
X113395238Y-83326800D01*
X113395238Y-83326800D02*
X113319047Y-83364895D01*
X113319047Y-83364895D02*
X113242857Y-83364895D01*
X113242857Y-83364895D02*
X113166666Y-83326800D01*
X113166666Y-83326800D02*
X113128571Y-83288704D01*
X113128571Y-83288704D02*
X113090476Y-83212514D01*
X113090476Y-83212514D02*
X113052380Y-83060133D01*
X113052380Y-83060133D02*
X113052380Y-82869657D01*
X113052380Y-82869657D02*
X113090476Y-82717276D01*
X113090476Y-82717276D02*
X113128571Y-82641085D01*
X113128571Y-82641085D02*
X113166666Y-82602990D01*
X113166666Y-82602990D02*
X113242857Y-82564895D01*
X110614285Y-75215228D02*
X110585713Y-75243800D01*
X110585713Y-75243800D02*
X110499999Y-75272371D01*
X110499999Y-75272371D02*
X110442856Y-75272371D01*
X110442856Y-75272371D02*
X110357142Y-75243800D01*
X110357142Y-75243800D02*
X110299999Y-75186657D01*
X110299999Y-75186657D02*
X110271428Y-75129514D01*
X110271428Y-75129514D02*
X110242856Y-75015228D01*
X110242856Y-75015228D02*
X110242856Y-74929514D01*
X110242856Y-74929514D02*
X110271428Y-74815228D01*
X110271428Y-74815228D02*
X110299999Y-74758085D01*
X110299999Y-74758085D02*
X110357142Y-74700942D01*
X110357142Y-74700942D02*
X110442856Y-74672371D01*
X110442856Y-74672371D02*
X110499999Y-74672371D01*
X110499999Y-74672371D02*
X110585713Y-74700942D01*
X110585713Y-74700942D02*
X110614285Y-74729514D01*
X111185713Y-75272371D02*
X110842856Y-75272371D01*
X111014285Y-75272371D02*
X111014285Y-74672371D01*
X111014285Y-74672371D02*
X110957142Y-74758085D01*
X110957142Y-74758085D02*
X110899999Y-74815228D01*
X110899999Y-74815228D02*
X110842856Y-74843800D01*
X111757142Y-75272371D02*
X111414285Y-75272371D01*
X111585714Y-75272371D02*
X111585714Y-74672371D01*
X111585714Y-74672371D02*
X111528571Y-74758085D01*
X111528571Y-74758085D02*
X111471428Y-74815228D01*
X111471428Y-74815228D02*
X111414285Y-74843800D01*
D11*
X114859580Y-70166666D02*
X114907200Y-70214285D01*
X114907200Y-70214285D02*
X114954819Y-70357142D01*
X114954819Y-70357142D02*
X114954819Y-70452380D01*
X114954819Y-70452380D02*
X114907200Y-70595237D01*
X114907200Y-70595237D02*
X114811961Y-70690475D01*
X114811961Y-70690475D02*
X114716723Y-70738094D01*
X114716723Y-70738094D02*
X114526247Y-70785713D01*
X114526247Y-70785713D02*
X114383390Y-70785713D01*
X114383390Y-70785713D02*
X114192914Y-70738094D01*
X114192914Y-70738094D02*
X114097676Y-70690475D01*
X114097676Y-70690475D02*
X114002438Y-70595237D01*
X114002438Y-70595237D02*
X113954819Y-70452380D01*
X113954819Y-70452380D02*
X113954819Y-70357142D01*
X113954819Y-70357142D02*
X114002438Y-70214285D01*
X114002438Y-70214285D02*
X114050057Y-70166666D01*
X114954819Y-69166666D02*
X114478628Y-69499999D01*
X114954819Y-69738094D02*
X113954819Y-69738094D01*
X113954819Y-69738094D02*
X113954819Y-69357142D01*
X113954819Y-69357142D02*
X114002438Y-69261904D01*
X114002438Y-69261904D02*
X114050057Y-69214285D01*
X114050057Y-69214285D02*
X114145295Y-69166666D01*
X114145295Y-69166666D02*
X114288152Y-69166666D01*
X114288152Y-69166666D02*
X114383390Y-69214285D01*
X114383390Y-69214285D02*
X114431009Y-69261904D01*
X114431009Y-69261904D02*
X114478628Y-69357142D01*
X114478628Y-69357142D02*
X114478628Y-69738094D01*
X114288152Y-68309523D02*
X114954819Y-68309523D01*
X113907200Y-68547618D02*
X114621485Y-68785713D01*
X114621485Y-68785713D02*
X114621485Y-68166666D01*
D10*
X116400000Y-90715228D02*
X116371428Y-90743800D01*
X116371428Y-90743800D02*
X116285714Y-90772371D01*
X116285714Y-90772371D02*
X116228571Y-90772371D01*
X116228571Y-90772371D02*
X116142857Y-90743800D01*
X116142857Y-90743800D02*
X116085714Y-90686657D01*
X116085714Y-90686657D02*
X116057143Y-90629514D01*
X116057143Y-90629514D02*
X116028571Y-90515228D01*
X116028571Y-90515228D02*
X116028571Y-90429514D01*
X116028571Y-90429514D02*
X116057143Y-90315228D01*
X116057143Y-90315228D02*
X116085714Y-90258085D01*
X116085714Y-90258085D02*
X116142857Y-90200942D01*
X116142857Y-90200942D02*
X116228571Y-90172371D01*
X116228571Y-90172371D02*
X116285714Y-90172371D01*
X116285714Y-90172371D02*
X116371428Y-90200942D01*
X116371428Y-90200942D02*
X116400000Y-90229514D01*
X116914286Y-90172371D02*
X116800000Y-90172371D01*
X116800000Y-90172371D02*
X116742857Y-90200942D01*
X116742857Y-90200942D02*
X116714286Y-90229514D01*
X116714286Y-90229514D02*
X116657143Y-90315228D01*
X116657143Y-90315228D02*
X116628571Y-90429514D01*
X116628571Y-90429514D02*
X116628571Y-90658085D01*
X116628571Y-90658085D02*
X116657143Y-90715228D01*
X116657143Y-90715228D02*
X116685714Y-90743800D01*
X116685714Y-90743800D02*
X116742857Y-90772371D01*
X116742857Y-90772371D02*
X116857143Y-90772371D01*
X116857143Y-90772371D02*
X116914286Y-90743800D01*
X116914286Y-90743800D02*
X116942857Y-90715228D01*
X116942857Y-90715228D02*
X116971428Y-90658085D01*
X116971428Y-90658085D02*
X116971428Y-90515228D01*
X116971428Y-90515228D02*
X116942857Y-90458085D01*
X116942857Y-90458085D02*
X116914286Y-90429514D01*
X116914286Y-90429514D02*
X116857143Y-90400942D01*
X116857143Y-90400942D02*
X116742857Y-90400942D01*
X116742857Y-90400942D02*
X116685714Y-90429514D01*
X116685714Y-90429514D02*
X116657143Y-90458085D01*
X116657143Y-90458085D02*
X116628571Y-90515228D01*
X155364895Y-75783332D02*
X154983942Y-76049999D01*
X155364895Y-76240475D02*
X154564895Y-76240475D01*
X154564895Y-76240475D02*
X154564895Y-75935713D01*
X154564895Y-75935713D02*
X154602990Y-75859523D01*
X154602990Y-75859523D02*
X154641085Y-75821428D01*
X154641085Y-75821428D02*
X154717276Y-75783332D01*
X154717276Y-75783332D02*
X154831561Y-75783332D01*
X154831561Y-75783332D02*
X154907752Y-75821428D01*
X154907752Y-75821428D02*
X154945847Y-75859523D01*
X154945847Y-75859523D02*
X154983942Y-75935713D01*
X154983942Y-75935713D02*
X154983942Y-76240475D01*
X154564895Y-75516666D02*
X154564895Y-75021428D01*
X154564895Y-75021428D02*
X154869657Y-75288094D01*
X154869657Y-75288094D02*
X154869657Y-75173809D01*
X154869657Y-75173809D02*
X154907752Y-75097618D01*
X154907752Y-75097618D02*
X154945847Y-75059523D01*
X154945847Y-75059523D02*
X155022038Y-75021428D01*
X155022038Y-75021428D02*
X155212514Y-75021428D01*
X155212514Y-75021428D02*
X155288704Y-75059523D01*
X155288704Y-75059523D02*
X155326800Y-75097618D01*
X155326800Y-75097618D02*
X155364895Y-75173809D01*
X155364895Y-75173809D02*
X155364895Y-75402380D01*
X155364895Y-75402380D02*
X155326800Y-75478571D01*
X155326800Y-75478571D02*
X155288704Y-75516666D01*
X111715228Y-61599999D02*
X111743800Y-61628571D01*
X111743800Y-61628571D02*
X111772371Y-61714285D01*
X111772371Y-61714285D02*
X111772371Y-61771428D01*
X111772371Y-61771428D02*
X111743800Y-61857142D01*
X111743800Y-61857142D02*
X111686657Y-61914285D01*
X111686657Y-61914285D02*
X111629514Y-61942856D01*
X111629514Y-61942856D02*
X111515228Y-61971428D01*
X111515228Y-61971428D02*
X111429514Y-61971428D01*
X111429514Y-61971428D02*
X111315228Y-61942856D01*
X111315228Y-61942856D02*
X111258085Y-61914285D01*
X111258085Y-61914285D02*
X111200942Y-61857142D01*
X111200942Y-61857142D02*
X111172371Y-61771428D01*
X111172371Y-61771428D02*
X111172371Y-61714285D01*
X111172371Y-61714285D02*
X111200942Y-61628571D01*
X111200942Y-61628571D02*
X111229514Y-61599999D01*
X111172371Y-61057142D02*
X111172371Y-61342856D01*
X111172371Y-61342856D02*
X111458085Y-61371428D01*
X111458085Y-61371428D02*
X111429514Y-61342856D01*
X111429514Y-61342856D02*
X111400942Y-61285714D01*
X111400942Y-61285714D02*
X111400942Y-61142856D01*
X111400942Y-61142856D02*
X111429514Y-61085714D01*
X111429514Y-61085714D02*
X111458085Y-61057142D01*
X111458085Y-61057142D02*
X111515228Y-61028571D01*
X111515228Y-61028571D02*
X111658085Y-61028571D01*
X111658085Y-61028571D02*
X111715228Y-61057142D01*
X111715228Y-61057142D02*
X111743800Y-61085714D01*
X111743800Y-61085714D02*
X111772371Y-61142856D01*
X111772371Y-61142856D02*
X111772371Y-61285714D01*
X111772371Y-61285714D02*
X111743800Y-61342856D01*
X111743800Y-61342856D02*
X111715228Y-61371428D01*
X123900000Y-92715228D02*
X123871428Y-92743800D01*
X123871428Y-92743800D02*
X123785714Y-92772371D01*
X123785714Y-92772371D02*
X123728571Y-92772371D01*
X123728571Y-92772371D02*
X123642857Y-92743800D01*
X123642857Y-92743800D02*
X123585714Y-92686657D01*
X123585714Y-92686657D02*
X123557143Y-92629514D01*
X123557143Y-92629514D02*
X123528571Y-92515228D01*
X123528571Y-92515228D02*
X123528571Y-92429514D01*
X123528571Y-92429514D02*
X123557143Y-92315228D01*
X123557143Y-92315228D02*
X123585714Y-92258085D01*
X123585714Y-92258085D02*
X123642857Y-92200942D01*
X123642857Y-92200942D02*
X123728571Y-92172371D01*
X123728571Y-92172371D02*
X123785714Y-92172371D01*
X123785714Y-92172371D02*
X123871428Y-92200942D01*
X123871428Y-92200942D02*
X123900000Y-92229514D01*
X124414286Y-92372371D02*
X124414286Y-92772371D01*
X124271428Y-92143800D02*
X124128571Y-92572371D01*
X124128571Y-92572371D02*
X124500000Y-92572371D01*
D11*
X115217300Y-39033332D02*
X115183966Y-39133332D01*
X115183966Y-39133332D02*
X115183966Y-39299999D01*
X115183966Y-39299999D02*
X115217300Y-39366665D01*
X115217300Y-39366665D02*
X115250633Y-39399999D01*
X115250633Y-39399999D02*
X115317300Y-39433332D01*
X115317300Y-39433332D02*
X115383966Y-39433332D01*
X115383966Y-39433332D02*
X115450633Y-39399999D01*
X115450633Y-39399999D02*
X115483966Y-39366665D01*
X115483966Y-39366665D02*
X115517300Y-39299999D01*
X115517300Y-39299999D02*
X115550633Y-39166665D01*
X115550633Y-39166665D02*
X115583966Y-39099999D01*
X115583966Y-39099999D02*
X115617300Y-39066665D01*
X115617300Y-39066665D02*
X115683966Y-39033332D01*
X115683966Y-39033332D02*
X115750633Y-39033332D01*
X115750633Y-39033332D02*
X115817300Y-39066665D01*
X115817300Y-39066665D02*
X115850633Y-39099999D01*
X115850633Y-39099999D02*
X115883966Y-39166665D01*
X115883966Y-39166665D02*
X115883966Y-39333332D01*
X115883966Y-39333332D02*
X115850633Y-39433332D01*
X115183966Y-40133332D02*
X115517300Y-39899999D01*
X115183966Y-39733332D02*
X115883966Y-39733332D01*
X115883966Y-39733332D02*
X115883966Y-39999999D01*
X115883966Y-39999999D02*
X115850633Y-40066666D01*
X115850633Y-40066666D02*
X115817300Y-40099999D01*
X115817300Y-40099999D02*
X115750633Y-40133332D01*
X115750633Y-40133332D02*
X115650633Y-40133332D01*
X115650633Y-40133332D02*
X115583966Y-40099999D01*
X115583966Y-40099999D02*
X115550633Y-40066666D01*
X115550633Y-40066666D02*
X115517300Y-39999999D01*
X115517300Y-39999999D02*
X115517300Y-39733332D01*
X115183966Y-40433332D02*
X115883966Y-40433332D01*
X115883966Y-40433332D02*
X115883966Y-40699999D01*
X115883966Y-40699999D02*
X115850633Y-40766666D01*
X115850633Y-40766666D02*
X115817300Y-40799999D01*
X115817300Y-40799999D02*
X115750633Y-40833332D01*
X115750633Y-40833332D02*
X115650633Y-40833332D01*
X115650633Y-40833332D02*
X115583966Y-40799999D01*
X115583966Y-40799999D02*
X115550633Y-40766666D01*
X115550633Y-40766666D02*
X115517300Y-40699999D01*
X115517300Y-40699999D02*
X115517300Y-40433332D01*
X115883966Y-41066666D02*
X115883966Y-41499999D01*
X115883966Y-41499999D02*
X115617300Y-41266666D01*
X115617300Y-41266666D02*
X115617300Y-41366666D01*
X115617300Y-41366666D02*
X115583966Y-41433332D01*
X115583966Y-41433332D02*
X115550633Y-41466666D01*
X115550633Y-41466666D02*
X115483966Y-41499999D01*
X115483966Y-41499999D02*
X115317300Y-41499999D01*
X115317300Y-41499999D02*
X115250633Y-41466666D01*
X115250633Y-41466666D02*
X115217300Y-41433332D01*
X115217300Y-41433332D02*
X115183966Y-41366666D01*
X115183966Y-41366666D02*
X115183966Y-41166666D01*
X115183966Y-41166666D02*
X115217300Y-41099999D01*
X115217300Y-41099999D02*
X115250633Y-41066666D01*
X115883966Y-41933333D02*
X115883966Y-41999999D01*
X115883966Y-41999999D02*
X115850633Y-42066666D01*
X115850633Y-42066666D02*
X115817300Y-42099999D01*
X115817300Y-42099999D02*
X115750633Y-42133333D01*
X115750633Y-42133333D02*
X115617300Y-42166666D01*
X115617300Y-42166666D02*
X115450633Y-42166666D01*
X115450633Y-42166666D02*
X115317300Y-42133333D01*
X115317300Y-42133333D02*
X115250633Y-42099999D01*
X115250633Y-42099999D02*
X115217300Y-42066666D01*
X115217300Y-42066666D02*
X115183966Y-41999999D01*
X115183966Y-41999999D02*
X115183966Y-41933333D01*
X115183966Y-41933333D02*
X115217300Y-41866666D01*
X115217300Y-41866666D02*
X115250633Y-41833333D01*
X115250633Y-41833333D02*
X115317300Y-41799999D01*
X115317300Y-41799999D02*
X115450633Y-41766666D01*
X115450633Y-41766666D02*
X115617300Y-41766666D01*
X115617300Y-41766666D02*
X115750633Y-41799999D01*
X115750633Y-41799999D02*
X115817300Y-41833333D01*
X115817300Y-41833333D02*
X115850633Y-41866666D01*
X115850633Y-41866666D02*
X115883966Y-41933333D01*
X115183966Y-42833333D02*
X115183966Y-42433333D01*
X115183966Y-42633333D02*
X115883966Y-42633333D01*
X115883966Y-42633333D02*
X115783966Y-42566666D01*
X115783966Y-42566666D02*
X115717300Y-42500000D01*
X115717300Y-42500000D02*
X115683966Y-42433333D01*
X115817300Y-43100000D02*
X115850633Y-43133333D01*
X115850633Y-43133333D02*
X115883966Y-43200000D01*
X115883966Y-43200000D02*
X115883966Y-43366667D01*
X115883966Y-43366667D02*
X115850633Y-43433333D01*
X115850633Y-43433333D02*
X115817300Y-43466667D01*
X115817300Y-43466667D02*
X115750633Y-43500000D01*
X115750633Y-43500000D02*
X115683966Y-43500000D01*
X115683966Y-43500000D02*
X115583966Y-43466667D01*
X115583966Y-43466667D02*
X115183966Y-43066667D01*
X115183966Y-43066667D02*
X115183966Y-43500000D01*
X115883966Y-43700000D02*
X115883966Y-44100000D01*
X115183966Y-43900000D02*
X115883966Y-43900000D01*
X115383966Y-44300000D02*
X115383966Y-44633333D01*
X115183966Y-44233333D02*
X115883966Y-44466667D01*
X115883966Y-44466667D02*
X115183966Y-44700000D01*
X115450633Y-44933333D02*
X115450633Y-45466667D01*
X115183966Y-46166667D02*
X115183966Y-45766667D01*
X115183966Y-45966667D02*
X115883966Y-45966667D01*
X115883966Y-45966667D02*
X115783966Y-45900000D01*
X115783966Y-45900000D02*
X115717300Y-45833334D01*
X115717300Y-45833334D02*
X115683966Y-45766667D01*
X115883966Y-46600001D02*
X115883966Y-46666667D01*
X115883966Y-46666667D02*
X115850633Y-46733334D01*
X115850633Y-46733334D02*
X115817300Y-46766667D01*
X115817300Y-46766667D02*
X115750633Y-46800001D01*
X115750633Y-46800001D02*
X115617300Y-46833334D01*
X115617300Y-46833334D02*
X115450633Y-46833334D01*
X115450633Y-46833334D02*
X115317300Y-46800001D01*
X115317300Y-46800001D02*
X115250633Y-46766667D01*
X115250633Y-46766667D02*
X115217300Y-46733334D01*
X115217300Y-46733334D02*
X115183966Y-46666667D01*
X115183966Y-46666667D02*
X115183966Y-46600001D01*
X115183966Y-46600001D02*
X115217300Y-46533334D01*
X115217300Y-46533334D02*
X115250633Y-46500001D01*
X115250633Y-46500001D02*
X115317300Y-46466667D01*
X115317300Y-46466667D02*
X115450633Y-46433334D01*
X115450633Y-46433334D02*
X115617300Y-46433334D01*
X115617300Y-46433334D02*
X115750633Y-46466667D01*
X115750633Y-46466667D02*
X115817300Y-46500001D01*
X115817300Y-46500001D02*
X115850633Y-46533334D01*
X115850633Y-46533334D02*
X115883966Y-46600001D01*
X115883966Y-47266668D02*
X115883966Y-47333334D01*
X115883966Y-47333334D02*
X115850633Y-47400001D01*
X115850633Y-47400001D02*
X115817300Y-47433334D01*
X115817300Y-47433334D02*
X115750633Y-47466668D01*
X115750633Y-47466668D02*
X115617300Y-47500001D01*
X115617300Y-47500001D02*
X115450633Y-47500001D01*
X115450633Y-47500001D02*
X115317300Y-47466668D01*
X115317300Y-47466668D02*
X115250633Y-47433334D01*
X115250633Y-47433334D02*
X115217300Y-47400001D01*
X115217300Y-47400001D02*
X115183966Y-47333334D01*
X115183966Y-47333334D02*
X115183966Y-47266668D01*
X115183966Y-47266668D02*
X115217300Y-47200001D01*
X115217300Y-47200001D02*
X115250633Y-47166668D01*
X115250633Y-47166668D02*
X115317300Y-47133334D01*
X115317300Y-47133334D02*
X115450633Y-47100001D01*
X115450633Y-47100001D02*
X115617300Y-47100001D01*
X115617300Y-47100001D02*
X115750633Y-47133334D01*
X115750633Y-47133334D02*
X115817300Y-47166668D01*
X115817300Y-47166668D02*
X115850633Y-47200001D01*
X115850633Y-47200001D02*
X115883966Y-47266668D01*
X115183966Y-47800001D02*
X115883966Y-47800001D01*
X115883966Y-47800001D02*
X115383966Y-48033335D01*
X115383966Y-48033335D02*
X115883966Y-48266668D01*
X115883966Y-48266668D02*
X115183966Y-48266668D01*
X115183966Y-48966668D02*
X115183966Y-48566668D01*
X115183966Y-48766668D02*
X115883966Y-48766668D01*
X115883966Y-48766668D02*
X115783966Y-48700001D01*
X115783966Y-48700001D02*
X115717300Y-48633335D01*
X115717300Y-48633335D02*
X115683966Y-48566668D01*
D10*
X117900000Y-63215228D02*
X117871428Y-63243800D01*
X117871428Y-63243800D02*
X117785714Y-63272371D01*
X117785714Y-63272371D02*
X117728571Y-63272371D01*
X117728571Y-63272371D02*
X117642857Y-63243800D01*
X117642857Y-63243800D02*
X117585714Y-63186657D01*
X117585714Y-63186657D02*
X117557143Y-63129514D01*
X117557143Y-63129514D02*
X117528571Y-63015228D01*
X117528571Y-63015228D02*
X117528571Y-62929514D01*
X117528571Y-62929514D02*
X117557143Y-62815228D01*
X117557143Y-62815228D02*
X117585714Y-62758085D01*
X117585714Y-62758085D02*
X117642857Y-62700942D01*
X117642857Y-62700942D02*
X117728571Y-62672371D01*
X117728571Y-62672371D02*
X117785714Y-62672371D01*
X117785714Y-62672371D02*
X117871428Y-62700942D01*
X117871428Y-62700942D02*
X117900000Y-62729514D01*
X118100000Y-62672371D02*
X118500000Y-62672371D01*
X118500000Y-62672371D02*
X118242857Y-63272371D01*
X158866667Y-86788704D02*
X158828571Y-86826800D01*
X158828571Y-86826800D02*
X158714286Y-86864895D01*
X158714286Y-86864895D02*
X158638095Y-86864895D01*
X158638095Y-86864895D02*
X158523809Y-86826800D01*
X158523809Y-86826800D02*
X158447619Y-86750609D01*
X158447619Y-86750609D02*
X158409524Y-86674419D01*
X158409524Y-86674419D02*
X158371428Y-86522038D01*
X158371428Y-86522038D02*
X158371428Y-86407752D01*
X158371428Y-86407752D02*
X158409524Y-86255371D01*
X158409524Y-86255371D02*
X158447619Y-86179180D01*
X158447619Y-86179180D02*
X158523809Y-86102990D01*
X158523809Y-86102990D02*
X158638095Y-86064895D01*
X158638095Y-86064895D02*
X158714286Y-86064895D01*
X158714286Y-86064895D02*
X158828571Y-86102990D01*
X158828571Y-86102990D02*
X158866667Y-86141085D01*
X159628571Y-86864895D02*
X159171428Y-86864895D01*
X159400000Y-86864895D02*
X159400000Y-86064895D01*
X159400000Y-86064895D02*
X159323809Y-86179180D01*
X159323809Y-86179180D02*
X159247619Y-86255371D01*
X159247619Y-86255371D02*
X159171428Y-86293466D01*
X113788704Y-89064285D02*
X113826800Y-89102381D01*
X113826800Y-89102381D02*
X113864895Y-89216666D01*
X113864895Y-89216666D02*
X113864895Y-89292857D01*
X113864895Y-89292857D02*
X113826800Y-89407143D01*
X113826800Y-89407143D02*
X113750609Y-89483333D01*
X113750609Y-89483333D02*
X113674419Y-89521428D01*
X113674419Y-89521428D02*
X113522038Y-89559524D01*
X113522038Y-89559524D02*
X113407752Y-89559524D01*
X113407752Y-89559524D02*
X113255371Y-89521428D01*
X113255371Y-89521428D02*
X113179180Y-89483333D01*
X113179180Y-89483333D02*
X113102990Y-89407143D01*
X113102990Y-89407143D02*
X113064895Y-89292857D01*
X113064895Y-89292857D02*
X113064895Y-89216666D01*
X113064895Y-89216666D02*
X113102990Y-89102381D01*
X113102990Y-89102381D02*
X113141085Y-89064285D01*
X113864895Y-88302381D02*
X113864895Y-88759524D01*
X113864895Y-88530952D02*
X113064895Y-88530952D01*
X113064895Y-88530952D02*
X113179180Y-88607143D01*
X113179180Y-88607143D02*
X113255371Y-88683333D01*
X113255371Y-88683333D02*
X113293466Y-88759524D01*
X113141085Y-87997619D02*
X113102990Y-87959523D01*
X113102990Y-87959523D02*
X113064895Y-87883333D01*
X113064895Y-87883333D02*
X113064895Y-87692857D01*
X113064895Y-87692857D02*
X113102990Y-87616666D01*
X113102990Y-87616666D02*
X113141085Y-87578571D01*
X113141085Y-87578571D02*
X113217276Y-87540476D01*
X113217276Y-87540476D02*
X113293466Y-87540476D01*
X113293466Y-87540476D02*
X113407752Y-87578571D01*
X113407752Y-87578571D02*
X113864895Y-88035714D01*
X113864895Y-88035714D02*
X113864895Y-87540476D01*
D12*
X157452219Y-59698333D02*
X158166504Y-59698333D01*
X158166504Y-59698333D02*
X158309361Y-59745952D01*
X158309361Y-59745952D02*
X158404600Y-59841190D01*
X158404600Y-59841190D02*
X158452219Y-59984047D01*
X158452219Y-59984047D02*
X158452219Y-60079285D01*
X157547457Y-59269761D02*
X157499838Y-59222142D01*
X157499838Y-59222142D02*
X157452219Y-59126904D01*
X157452219Y-59126904D02*
X157452219Y-58888809D01*
X157452219Y-58888809D02*
X157499838Y-58793571D01*
X157499838Y-58793571D02*
X157547457Y-58745952D01*
X157547457Y-58745952D02*
X157642695Y-58698333D01*
X157642695Y-58698333D02*
X157737933Y-58698333D01*
X157737933Y-58698333D02*
X157880790Y-58745952D01*
X157880790Y-58745952D02*
X158452219Y-59317380D01*
X158452219Y-59317380D02*
X158452219Y-58698333D01*
X162952219Y-63214285D02*
X162952219Y-63785713D01*
X162952219Y-63499999D02*
X161952219Y-63499999D01*
X161952219Y-63499999D02*
X162095076Y-63595237D01*
X162095076Y-63595237D02*
X162190314Y-63690475D01*
X162190314Y-63690475D02*
X162237933Y-63785713D01*
D10*
X113715228Y-47669999D02*
X113743800Y-47698571D01*
X113743800Y-47698571D02*
X113772371Y-47784285D01*
X113772371Y-47784285D02*
X113772371Y-47841428D01*
X113772371Y-47841428D02*
X113743800Y-47927142D01*
X113743800Y-47927142D02*
X113686657Y-47984285D01*
X113686657Y-47984285D02*
X113629514Y-48012856D01*
X113629514Y-48012856D02*
X113515228Y-48041428D01*
X113515228Y-48041428D02*
X113429514Y-48041428D01*
X113429514Y-48041428D02*
X113315228Y-48012856D01*
X113315228Y-48012856D02*
X113258085Y-47984285D01*
X113258085Y-47984285D02*
X113200942Y-47927142D01*
X113200942Y-47927142D02*
X113172371Y-47841428D01*
X113172371Y-47841428D02*
X113172371Y-47784285D01*
X113172371Y-47784285D02*
X113200942Y-47698571D01*
X113200942Y-47698571D02*
X113229514Y-47669999D01*
X113429514Y-47327142D02*
X113400942Y-47384285D01*
X113400942Y-47384285D02*
X113372371Y-47412856D01*
X113372371Y-47412856D02*
X113315228Y-47441428D01*
X113315228Y-47441428D02*
X113286657Y-47441428D01*
X113286657Y-47441428D02*
X113229514Y-47412856D01*
X113229514Y-47412856D02*
X113200942Y-47384285D01*
X113200942Y-47384285D02*
X113172371Y-47327142D01*
X113172371Y-47327142D02*
X113172371Y-47212856D01*
X113172371Y-47212856D02*
X113200942Y-47155714D01*
X113200942Y-47155714D02*
X113229514Y-47127142D01*
X113229514Y-47127142D02*
X113286657Y-47098571D01*
X113286657Y-47098571D02*
X113315228Y-47098571D01*
X113315228Y-47098571D02*
X113372371Y-47127142D01*
X113372371Y-47127142D02*
X113400942Y-47155714D01*
X113400942Y-47155714D02*
X113429514Y-47212856D01*
X113429514Y-47212856D02*
X113429514Y-47327142D01*
X113429514Y-47327142D02*
X113458085Y-47384285D01*
X113458085Y-47384285D02*
X113486657Y-47412856D01*
X113486657Y-47412856D02*
X113543800Y-47441428D01*
X113543800Y-47441428D02*
X113658085Y-47441428D01*
X113658085Y-47441428D02*
X113715228Y-47412856D01*
X113715228Y-47412856D02*
X113743800Y-47384285D01*
X113743800Y-47384285D02*
X113772371Y-47327142D01*
X113772371Y-47327142D02*
X113772371Y-47212856D01*
X113772371Y-47212856D02*
X113743800Y-47155714D01*
X113743800Y-47155714D02*
X113715228Y-47127142D01*
X113715228Y-47127142D02*
X113658085Y-47098571D01*
X113658085Y-47098571D02*
X113543800Y-47098571D01*
X113543800Y-47098571D02*
X113486657Y-47127142D01*
X113486657Y-47127142D02*
X113458085Y-47155714D01*
X113458085Y-47155714D02*
X113429514Y-47212856D01*
X160400000Y-55272371D02*
X160200000Y-54986657D01*
X160057143Y-55272371D02*
X160057143Y-54672371D01*
X160057143Y-54672371D02*
X160285714Y-54672371D01*
X160285714Y-54672371D02*
X160342857Y-54700942D01*
X160342857Y-54700942D02*
X160371428Y-54729514D01*
X160371428Y-54729514D02*
X160400000Y-54786657D01*
X160400000Y-54786657D02*
X160400000Y-54872371D01*
X160400000Y-54872371D02*
X160371428Y-54929514D01*
X160371428Y-54929514D02*
X160342857Y-54958085D01*
X160342857Y-54958085D02*
X160285714Y-54986657D01*
X160285714Y-54986657D02*
X160057143Y-54986657D01*
X160914286Y-54872371D02*
X160914286Y-55272371D01*
X160771428Y-54643800D02*
X160628571Y-55072371D01*
X160628571Y-55072371D02*
X161000000Y-55072371D01*
D11*
X114919580Y-56186666D02*
X114967200Y-56234285D01*
X114967200Y-56234285D02*
X115014819Y-56377142D01*
X115014819Y-56377142D02*
X115014819Y-56472380D01*
X115014819Y-56472380D02*
X114967200Y-56615237D01*
X114967200Y-56615237D02*
X114871961Y-56710475D01*
X114871961Y-56710475D02*
X114776723Y-56758094D01*
X114776723Y-56758094D02*
X114586247Y-56805713D01*
X114586247Y-56805713D02*
X114443390Y-56805713D01*
X114443390Y-56805713D02*
X114252914Y-56758094D01*
X114252914Y-56758094D02*
X114157676Y-56710475D01*
X114157676Y-56710475D02*
X114062438Y-56615237D01*
X114062438Y-56615237D02*
X114014819Y-56472380D01*
X114014819Y-56472380D02*
X114014819Y-56377142D01*
X114014819Y-56377142D02*
X114062438Y-56234285D01*
X114062438Y-56234285D02*
X114110057Y-56186666D01*
X115014819Y-55186666D02*
X114538628Y-55519999D01*
X115014819Y-55758094D02*
X114014819Y-55758094D01*
X114014819Y-55758094D02*
X114014819Y-55377142D01*
X114014819Y-55377142D02*
X114062438Y-55281904D01*
X114062438Y-55281904D02*
X114110057Y-55234285D01*
X114110057Y-55234285D02*
X114205295Y-55186666D01*
X114205295Y-55186666D02*
X114348152Y-55186666D01*
X114348152Y-55186666D02*
X114443390Y-55234285D01*
X114443390Y-55234285D02*
X114491009Y-55281904D01*
X114491009Y-55281904D02*
X114538628Y-55377142D01*
X114538628Y-55377142D02*
X114538628Y-55758094D01*
X115014819Y-54234285D02*
X115014819Y-54805713D01*
X115014819Y-54519999D02*
X114014819Y-54519999D01*
X114014819Y-54519999D02*
X114157676Y-54615237D01*
X114157676Y-54615237D02*
X114252914Y-54710475D01*
X114252914Y-54710475D02*
X114300533Y-54805713D01*
X161024104Y-93273339D02*
X161024104Y-92797149D01*
X161309819Y-93368577D02*
X160309819Y-93035244D01*
X160309819Y-93035244D02*
X161309819Y-92701911D01*
X161309819Y-91844768D02*
X161309819Y-92416196D01*
X161309819Y-92130482D02*
X160309819Y-92130482D01*
X160309819Y-92130482D02*
X160452676Y-92225720D01*
X160452676Y-92225720D02*
X160547914Y-92320958D01*
X160547914Y-92320958D02*
X160595533Y-92416196D01*
D10*
X152866667Y-80788704D02*
X152828571Y-80826800D01*
X152828571Y-80826800D02*
X152714286Y-80864895D01*
X152714286Y-80864895D02*
X152638095Y-80864895D01*
X152638095Y-80864895D02*
X152523809Y-80826800D01*
X152523809Y-80826800D02*
X152447619Y-80750609D01*
X152447619Y-80750609D02*
X152409524Y-80674419D01*
X152409524Y-80674419D02*
X152371428Y-80522038D01*
X152371428Y-80522038D02*
X152371428Y-80407752D01*
X152371428Y-80407752D02*
X152409524Y-80255371D01*
X152409524Y-80255371D02*
X152447619Y-80179180D01*
X152447619Y-80179180D02*
X152523809Y-80102990D01*
X152523809Y-80102990D02*
X152638095Y-80064895D01*
X152638095Y-80064895D02*
X152714286Y-80064895D01*
X152714286Y-80064895D02*
X152828571Y-80102990D01*
X152828571Y-80102990D02*
X152866667Y-80141085D01*
X153171428Y-80141085D02*
X153209524Y-80102990D01*
X153209524Y-80102990D02*
X153285714Y-80064895D01*
X153285714Y-80064895D02*
X153476190Y-80064895D01*
X153476190Y-80064895D02*
X153552381Y-80102990D01*
X153552381Y-80102990D02*
X153590476Y-80141085D01*
X153590476Y-80141085D02*
X153628571Y-80217276D01*
X153628571Y-80217276D02*
X153628571Y-80293466D01*
X153628571Y-80293466D02*
X153590476Y-80407752D01*
X153590476Y-80407752D02*
X153133333Y-80864895D01*
X153133333Y-80864895D02*
X153628571Y-80864895D01*
D11*
X157592800Y-70166667D02*
X157545180Y-70309524D01*
X157545180Y-70309524D02*
X157545180Y-70547619D01*
X157545180Y-70547619D02*
X157592800Y-70642857D01*
X157592800Y-70642857D02*
X157640419Y-70690476D01*
X157640419Y-70690476D02*
X157735657Y-70738095D01*
X157735657Y-70738095D02*
X157830895Y-70738095D01*
X157830895Y-70738095D02*
X157926133Y-70690476D01*
X157926133Y-70690476D02*
X157973752Y-70642857D01*
X157973752Y-70642857D02*
X158021371Y-70547619D01*
X158021371Y-70547619D02*
X158068990Y-70357143D01*
X158068990Y-70357143D02*
X158116609Y-70261905D01*
X158116609Y-70261905D02*
X158164228Y-70214286D01*
X158164228Y-70214286D02*
X158259466Y-70166667D01*
X158259466Y-70166667D02*
X158354704Y-70166667D01*
X158354704Y-70166667D02*
X158449942Y-70214286D01*
X158449942Y-70214286D02*
X158497561Y-70261905D01*
X158497561Y-70261905D02*
X158545180Y-70357143D01*
X158545180Y-70357143D02*
X158545180Y-70595238D01*
X158545180Y-70595238D02*
X158497561Y-70738095D01*
X158545180Y-71071429D02*
X157545180Y-71309524D01*
X157545180Y-71309524D02*
X158259466Y-71500000D01*
X158259466Y-71500000D02*
X157545180Y-71690476D01*
X157545180Y-71690476D02*
X158545180Y-71928572D01*
X157545180Y-72833333D02*
X157545180Y-72261905D01*
X157545180Y-72547619D02*
X158545180Y-72547619D01*
X158545180Y-72547619D02*
X158402323Y-72452381D01*
X158402323Y-72452381D02*
X158307085Y-72357143D01*
X158307085Y-72357143D02*
X158259466Y-72261905D01*
X160045180Y-77500000D02*
X159807085Y-77500000D01*
X159902323Y-77261905D02*
X159807085Y-77500000D01*
X159807085Y-77500000D02*
X159902323Y-77738095D01*
X159616609Y-77357143D02*
X159807085Y-77500000D01*
X159807085Y-77500000D02*
X159616609Y-77642857D01*
X166545180Y-69500000D02*
X166307085Y-69500000D01*
X166402323Y-69261905D02*
X166307085Y-69500000D01*
X166307085Y-69500000D02*
X166402323Y-69738095D01*
X166116609Y-69357143D02*
X166307085Y-69500000D01*
X166307085Y-69500000D02*
X166116609Y-69642857D01*
D13*
%TO.C,R1*%
X129370436Y-91210000D02*
X130824564Y-91210000D01*
X129370436Y-93030000D02*
X130824564Y-93030000D01*
%TO.C,CR3*%
X110900000Y-50170000D02*
X110900000Y-52070000D01*
X110900000Y-50170000D02*
X114560000Y-50170000D01*
X110900000Y-52070000D02*
X114560000Y-52070000D01*
%TO.C,Q2*%
X119497500Y-40610000D02*
X117822500Y-40610000D01*
X119497500Y-40610000D02*
X120147500Y-40610000D01*
X119497500Y-43730000D02*
X118847500Y-43730000D01*
X119497500Y-43730000D02*
X120147500Y-43730000D01*
%TO.C,C9*%
X111188748Y-34265000D02*
X111711252Y-34265000D01*
X111188748Y-35735000D02*
X111711252Y-35735000D01*
%TO.C,VR1*%
X123250000Y-80590000D02*
X129260000Y-80590000D01*
X125500000Y-87410000D02*
X129260000Y-87410000D01*
X129260000Y-80590000D02*
X129260000Y-81850000D01*
X129260000Y-87410000D02*
X129260000Y-86150000D01*
%TO.C,C3*%
X118871252Y-76885000D02*
X118348748Y-76885000D01*
X118871252Y-78355000D02*
X118348748Y-78355000D01*
%TO.C,C10*%
X112288748Y-83765000D02*
X112811252Y-83765000D01*
X112288748Y-85235000D02*
X112811252Y-85235000D01*
%TO.C,C11*%
X112144420Y-76110000D02*
X112425580Y-76110000D01*
X112144420Y-77130000D02*
X112425580Y-77130000D01*
%TO.C,CR4*%
X115550000Y-71760000D02*
X115550000Y-68100000D01*
X115550000Y-71760000D02*
X117450000Y-71760000D01*
X117450000Y-71760000D02*
X117450000Y-68100000D01*
%TO.C,C6*%
X119311252Y-89765000D02*
X118788748Y-89765000D01*
X119311252Y-91235000D02*
X118788748Y-91235000D01*
%TO.C,R3*%
X155977500Y-75562258D02*
X155977500Y-75087742D01*
X157022500Y-75562258D02*
X157022500Y-75087742D01*
%TO.C,C5*%
X109325000Y-61831252D02*
X109325000Y-61308748D01*
X110795000Y-61831252D02*
X110795000Y-61308748D01*
%TO.C,C4*%
X123771252Y-89885000D02*
X123248748Y-89885000D01*
X123771252Y-91355000D02*
X123248748Y-91355000D01*
%TO.C,Q1*%
X136940000Y-81437500D02*
X136940000Y-80787500D01*
X136940000Y-81437500D02*
X136940000Y-83112500D01*
X140060000Y-81437500D02*
X140060000Y-80787500D01*
X140060000Y-81437500D02*
X140060000Y-82087500D01*
D14*
%TO.C,SRP3012TA-100M1*%
X110299600Y-40171200D02*
X110299600Y-40968760D01*
X110299600Y-43031240D02*
X110299600Y-43828800D01*
X110299600Y-43828800D02*
X114262000Y-43828800D01*
X114262000Y-40171200D02*
X110299600Y-40171200D01*
X114262000Y-40968760D02*
X114262000Y-40171200D01*
X114262000Y-43828800D02*
X114262000Y-43031240D01*
D13*
%TO.C,C7*%
X118298748Y-63885000D02*
X118821252Y-63885000D01*
X118298748Y-65355000D02*
X118821252Y-65355000D01*
%TO.C,R2*%
X142590000Y-81310436D02*
X142590000Y-82764564D01*
X144410000Y-81310436D02*
X144410000Y-82764564D01*
%TO.C,C1*%
X159371252Y-83885000D02*
X158848748Y-83885000D01*
X159371252Y-85355000D02*
X158848748Y-85355000D01*
%TO.C,C12*%
X111265000Y-88288748D02*
X111265000Y-88811252D01*
X112735000Y-88288748D02*
X112735000Y-88811252D01*
%TO.C,J2*%
X159198000Y-56698000D02*
X159198000Y-62286000D01*
X159198000Y-62286000D02*
X165929000Y-62286000D01*
X165040000Y-56698000D02*
X165040000Y-62286000D01*
X165929000Y-56698000D02*
X159198000Y-56698000D01*
X165929000Y-62286000D02*
X165929000Y-56698000D01*
%TO.C,C8*%
X109825000Y-47831252D02*
X109825000Y-47308748D01*
X111295000Y-47831252D02*
X111295000Y-47308748D01*
D15*
%TO.C,J1*%
X133000000Y-89750000D02*
X133000000Y-87250000D01*
X146200000Y-85950000D02*
X133800000Y-85950000D01*
X147000000Y-87250000D02*
X147000000Y-89750000D01*
X147000000Y-89750000D02*
X133000000Y-89750000D01*
D12*
X134400000Y-90250000D02*
G75*
G02*
X134200000Y-90250000I-100000J0D01*
G01*
X134200000Y-90250000D02*
G75*
G02*
X134400000Y-90250000I100000J0D01*
G01*
D13*
%TO.C,R4*%
X160937742Y-52977500D02*
X161412258Y-52977500D01*
X160937742Y-54022500D02*
X161412258Y-54022500D01*
%TO.C,CR1*%
X115610000Y-57780000D02*
X115610000Y-54120000D01*
X115610000Y-57780000D02*
X117510000Y-57780000D01*
X117510000Y-57780000D02*
X117510000Y-54120000D01*
%TO.C,A1*%
X110480000Y-95310000D02*
X110480000Y-97800000D01*
X110480000Y-97800000D02*
X111393520Y-97800000D01*
X110480000Y-99147939D02*
X110480000Y-97800000D01*
X110480000Y-101075000D02*
X110480000Y-100072061D01*
X110480000Y-101410000D02*
X111396000Y-101410000D01*
X110480000Y-109210000D02*
X111396000Y-109210000D01*
X110480000Y-109545000D02*
X110480000Y-101075000D01*
X110480000Y-110547939D02*
X110480000Y-109545000D01*
X110480000Y-112820000D02*
X110480000Y-111472060D01*
X110480000Y-112820000D02*
X111393520Y-112820000D01*
X110480000Y-115310000D02*
X110480000Y-112820000D01*
X110900000Y-115889676D02*
X110900000Y-116400000D01*
X110900063Y-95040000D02*
X110543000Y-95040000D01*
X110900063Y-115580000D02*
X110543000Y-115580000D01*
X113020000Y-94700000D02*
X113440000Y-94700000D01*
X113020000Y-95040000D02*
X113440000Y-95040000D01*
X113020000Y-115580000D02*
X113440000Y-115580000D01*
X113020000Y-115920000D02*
X113020000Y-116400000D01*
X113020000Y-115920000D02*
X113440000Y-115920000D01*
X113784000Y-101410000D02*
X115000000Y-101410000D01*
X113784000Y-109210000D02*
X115000000Y-109210000D01*
X113786480Y-97800000D02*
X158393520Y-97800000D01*
X113786480Y-112820000D02*
X158393520Y-112820000D01*
X115000000Y-101706090D02*
X115000000Y-101410000D01*
X115000000Y-106556090D02*
X115000000Y-104063910D01*
X115000000Y-109210000D02*
X115000000Y-108913910D01*
X115560000Y-94700000D02*
X115980000Y-94700000D01*
X115560000Y-95040000D02*
X115980000Y-95040000D01*
X115560000Y-115580000D02*
X115980000Y-115580000D01*
X115560000Y-115920000D02*
X115980000Y-115920000D01*
X118100000Y-94700000D02*
X118520000Y-94700000D01*
X118100000Y-95040000D02*
X118520000Y-95040000D01*
X118100000Y-115580000D02*
X118520000Y-115580000D01*
X118100000Y-115920000D02*
X118520000Y-115920000D01*
X120640000Y-94700000D02*
X121060000Y-94700000D01*
X120640000Y-95040000D02*
X121060000Y-95040000D01*
X120640000Y-115580000D02*
X121060000Y-115580000D01*
X120640000Y-115920000D02*
X121060000Y-115920000D01*
X123180000Y-94700000D02*
X123600000Y-94700000D01*
X123180000Y-95040000D02*
X123600000Y-95040000D01*
X123180000Y-115580000D02*
X123600000Y-115580000D01*
X123180000Y-115920000D02*
X123600000Y-115920000D01*
X125720000Y-94700000D02*
X126140000Y-94700000D01*
X125720000Y-95040000D02*
X126140000Y-95040000D01*
X125720000Y-115580000D02*
X126140000Y-115580000D01*
X125720000Y-115920000D02*
X126140000Y-115920000D01*
X128260000Y-94700000D02*
X128680000Y-94700000D01*
X128260000Y-95040000D02*
X128680000Y-95040000D01*
X128260000Y-115580000D02*
X128680000Y-115580000D01*
X128260000Y-115920000D02*
X128680000Y-115920000D01*
X130800000Y-94700000D02*
X131220000Y-94700000D01*
X130800000Y-95040000D02*
X131220000Y-95040000D01*
X130800000Y-115580000D02*
X131220000Y-115580000D01*
X130800000Y-115920000D02*
X131220000Y-115920000D01*
X133340000Y-94700000D02*
X133760000Y-94700000D01*
X133340000Y-95040000D02*
X133760000Y-95040000D01*
X133340000Y-115580000D02*
X133760000Y-115580000D01*
X133340000Y-115920000D02*
X133760000Y-115920000D01*
X135880000Y-94700000D02*
X136300000Y-94700000D01*
X135880000Y-95040000D02*
X136300000Y-95040000D01*
X135880000Y-115580000D02*
X136300000Y-115580000D01*
X135880000Y-115920000D02*
X136300000Y-115920000D01*
X138420000Y-94700000D02*
X138840000Y-94700000D01*
X138420000Y-95040000D02*
X138840000Y-95040000D01*
X138420000Y-115580000D02*
X138840000Y-115580000D01*
X138420000Y-115920000D02*
X138840000Y-115920000D01*
X140960000Y-94700000D02*
X141380000Y-94700000D01*
X140960000Y-95040000D02*
X141380000Y-95040000D01*
X140960000Y-115580000D02*
X141380000Y-115580000D01*
X140960000Y-115920000D02*
X141380000Y-115920000D01*
X143500000Y-94700000D02*
X143920000Y-94700000D01*
X143500000Y-95040000D02*
X143920000Y-95040000D01*
X143500000Y-115580000D02*
X143920000Y-115580000D01*
X143500000Y-115920000D02*
X143920000Y-115920000D01*
X146040000Y-94700000D02*
X146460000Y-94700000D01*
X146040000Y-95040000D02*
X146460000Y-95040000D01*
X146040000Y-115580000D02*
X146460000Y-115580000D01*
X146040000Y-115920000D02*
X146460000Y-115920000D01*
X148580000Y-94700000D02*
X149000000Y-94700000D01*
X148580000Y-95040000D02*
X149000000Y-95040000D01*
X148580000Y-115580000D02*
X149000000Y-115580000D01*
X148580000Y-115920000D02*
X149000000Y-115920000D01*
X151120000Y-94700000D02*
X151540000Y-94700000D01*
X151120000Y-95040000D02*
X151540000Y-95040000D01*
X151120000Y-115580000D02*
X151540000Y-115580000D01*
X151120000Y-115920000D02*
X151540000Y-115920000D01*
X153660000Y-94700000D02*
X154080000Y-94700000D01*
X153660000Y-95040000D02*
X154080000Y-95040000D01*
X153660000Y-115580000D02*
X154080000Y-115580000D01*
X153660000Y-115920000D02*
X154080000Y-115920000D01*
X156200000Y-94700000D02*
X156620000Y-94700000D01*
X156200000Y-95040000D02*
X156620000Y-95040000D01*
X156200000Y-115580000D02*
X156620000Y-115580000D01*
X156200000Y-115920000D02*
X156620000Y-115920000D01*
X158740000Y-94700000D02*
X159160000Y-94700000D01*
X158740000Y-95040000D02*
X159160000Y-95040000D01*
X158740000Y-115580000D02*
X159160000Y-115580000D01*
X158740000Y-115920000D02*
X159160000Y-115920000D01*
X160786480Y-97800000D02*
X161700000Y-97800000D01*
X160786480Y-112820000D02*
X161700000Y-112820000D01*
X161279937Y-95040000D02*
X161637000Y-95040000D01*
X161279937Y-115580000D02*
X161637000Y-115580000D01*
X161700000Y-99147939D02*
X161700000Y-95310000D01*
X161700000Y-100072061D02*
X161700000Y-101710000D01*
X161700000Y-101710000D02*
X161700000Y-108910000D01*
X161700000Y-108910000D02*
X161700000Y-110547939D01*
X161700000Y-115310000D02*
X161700000Y-111472061D01*
X110480000Y-95310000D02*
G75*
G02*
X110900063Y-94730324I610000J0D01*
G01*
X110900000Y-115889676D02*
G75*
G02*
X110480000Y-115310000I190051J579692D01*
G01*
X161279937Y-94730324D02*
G75*
G02*
X161700069Y-95310000I-189837J-579676D01*
G01*
X161700000Y-115310000D02*
G75*
G02*
X161279937Y-115889676I-610002J1D01*
G01*
%TO.C,C2*%
X155871252Y-79885000D02*
X155348748Y-79885000D01*
X155871252Y-81355000D02*
X155348748Y-81355000D01*
D14*
%TO.C,SW1*%
X159125801Y-70137640D02*
X159125801Y-75362360D01*
X161074702Y-75874200D02*
X163425299Y-75874200D01*
X163417961Y-69625800D02*
X161074702Y-69625800D01*
X165374201Y-75362360D02*
X165374201Y-70557708D01*
%TD*%
M02*
