%TF.GenerationSoftware,KiCad,Pcbnew,9.0.5*%
%TF.CreationDate,2026-02-07T17:18:25-05:00*%
%TF.ProjectId,new_battery_display_shup_edited,6e65775f-6261-4747-9465-72795f646973,rev?*%
%TF.SameCoordinates,Original*%
%TF.FileFunction,Copper,L1,Top*%
%TF.FilePolarity,Positive*%
%FSLAX46Y46*%
G04 Gerber Fmt 4.6, Leading zero omitted, Abs format (unit mm)*
G04 Created by KiCad (PCBNEW 9.0.5) date 2026-02-07 17:18:25*
%MOMM*%
%LPD*%
G01*
G04 APERTURE LIST*
G04 Aperture macros list*
%AMRoundRect*
0 Rectangle with rounded corners*
0 $1 Rounding radius*
0 $2 $3 $4 $5 $6 $7 $8 $9 X,Y pos of 4 corners*
0 Add a 4 corners polygon primitive as box body*
4,1,4,$2,$3,$4,$5,$6,$7,$8,$9,$2,$3,0*
0 Add four circle primitives for the rounded corners*
1,1,$1+$1,$2,$3*
1,1,$1+$1,$4,$5*
1,1,$1+$1,$6,$7*
1,1,$1+$1,$8,$9*
0 Add four rect primitives between the rounded corners*
20,1,$1+$1,$2,$3,$4,$5,0*
20,1,$1+$1,$4,$5,$6,$7,0*
20,1,$1+$1,$6,$7,$8,$9,0*
20,1,$1+$1,$8,$9,$2,$3,0*%
%AMFreePoly0*
4,1,37,0.800000,0.796148,0.878414,0.796148,1.032228,0.765552,1.177117,0.705537,1.307515,0.618408,1.418408,0.507515,1.505537,0.377117,1.565552,0.232228,1.596148,0.078414,1.596148,-0.078414,1.565552,-0.232228,1.505537,-0.377117,1.418408,-0.507515,1.307515,-0.618408,1.177117,-0.705537,1.032228,-0.765552,0.878414,-0.796148,0.800000,-0.796148,0.800000,-0.800000,-1.400000,-0.800000,
-1.403843,-0.796157,-1.439018,-0.796157,-1.511114,-0.766294,-1.566294,-0.711114,-1.596157,-0.639018,-1.596157,-0.603843,-1.600000,-0.600000,-1.600000,0.600000,-1.596157,0.603843,-1.596157,0.639018,-1.566294,0.711114,-1.511114,0.766294,-1.439018,0.796157,-1.403843,0.796157,-1.400000,0.800000,0.800000,0.800000,0.800000,0.796148,0.800000,0.796148,$1*%
%AMFreePoly1*
4,1,37,1.403843,0.796157,1.439018,0.796157,1.511114,0.766294,1.566294,0.711114,1.596157,0.639018,1.596157,0.603843,1.600000,0.600000,1.600000,-0.600000,1.596157,-0.603843,1.596157,-0.639018,1.566294,-0.711114,1.511114,-0.766294,1.439018,-0.796157,1.403843,-0.796157,1.400000,-0.800000,-0.800000,-0.800000,-0.800000,-0.796148,-0.878414,-0.796148,-1.032228,-0.765552,-1.177117,-0.705537,
-1.307515,-0.618408,-1.418408,-0.507515,-1.505537,-0.377117,-1.565552,-0.232228,-1.596148,-0.078414,-1.596148,0.078414,-1.565552,0.232228,-1.505537,0.377117,-1.418408,0.507515,-1.307515,0.618408,-1.177117,0.705537,-1.032228,0.765552,-0.878414,0.796148,-0.800000,0.796148,-0.800000,0.800000,1.400000,0.800000,1.403843,0.796157,1.403843,0.796157,$1*%
%AMFreePoly2*
4,1,37,0.603843,0.796157,0.639018,0.796157,0.711114,0.766294,0.766294,0.711114,0.796157,0.639018,0.796157,0.603843,0.800000,0.600000,0.800000,-0.600000,0.796157,-0.603843,0.796157,-0.639018,0.766294,-0.711114,0.711114,-0.766294,0.639018,-0.796157,0.603843,-0.796157,0.600000,-0.800000,0.000000,-0.800000,0.000000,-0.796148,-0.078414,-0.796148,-0.232228,-0.765552,-0.377117,-0.705537,
-0.507515,-0.618408,-0.618408,-0.507515,-0.705537,-0.377117,-0.765552,-0.232228,-0.796148,-0.078414,-0.796148,0.078414,-0.765552,0.232228,-0.705537,0.377117,-0.618408,0.507515,-0.507515,0.618408,-0.377117,0.705537,-0.232228,0.765552,-0.078414,0.796148,0.000000,0.796148,0.000000,0.800000,0.600000,0.800000,0.603843,0.796157,0.603843,0.796157,$1*%
%AMFreePoly3*
4,1,37,0.000000,0.796148,0.078414,0.796148,0.232228,0.765552,0.377117,0.705537,0.507515,0.618408,0.618408,0.507515,0.705537,0.377117,0.765552,0.232228,0.796148,0.078414,0.796148,-0.078414,0.765552,-0.232228,0.705537,-0.377117,0.618408,-0.507515,0.507515,-0.618408,0.377117,-0.705537,0.232228,-0.765552,0.078414,-0.796148,0.000000,-0.796148,0.000000,-0.800000,-0.600000,-0.800000,
-0.603843,-0.796157,-0.639018,-0.796157,-0.711114,-0.766294,-0.766294,-0.711114,-0.796157,-0.639018,-0.796157,-0.603843,-0.800000,-0.600000,-0.800000,0.600000,-0.796157,0.603843,-0.796157,0.639018,-0.766294,0.711114,-0.711114,0.766294,-0.639018,0.796157,-0.603843,0.796157,-0.600000,0.800000,0.000000,0.800000,0.000000,0.796148,0.000000,0.796148,$1*%
G04 Aperture macros list end*
%TA.AperFunction,SMDPad,CuDef*%
%ADD10RoundRect,0.250000X-0.312500X-0.625000X0.312500X-0.625000X0.312500X0.625000X-0.312500X0.625000X0*%
%TD*%
%TA.AperFunction,SMDPad,CuDef*%
%ADD11R,1.200000X1.200000*%
%TD*%
%TA.AperFunction,SMDPad,CuDef*%
%ADD12RoundRect,0.150000X-0.587500X-0.150000X0.587500X-0.150000X0.587500X0.150000X-0.587500X0.150000X0*%
%TD*%
%TA.AperFunction,SMDPad,CuDef*%
%ADD13RoundRect,0.250000X-0.250000X-0.475000X0.250000X-0.475000X0.250000X0.475000X-0.250000X0.475000X0*%
%TD*%
%TA.AperFunction,SMDPad,CuDef*%
%ADD14R,2.000000X1.500000*%
%TD*%
%TA.AperFunction,SMDPad,CuDef*%
%ADD15R,2.000000X3.800000*%
%TD*%
%TA.AperFunction,SMDPad,CuDef*%
%ADD16RoundRect,0.250000X0.250000X0.475000X-0.250000X0.475000X-0.250000X-0.475000X0.250000X-0.475000X0*%
%TD*%
%TA.AperFunction,SMDPad,CuDef*%
%ADD17RoundRect,0.225000X-0.225000X-0.250000X0.225000X-0.250000X0.225000X0.250000X-0.225000X0.250000X0*%
%TD*%
%TA.AperFunction,SMDPad,CuDef*%
%ADD18RoundRect,0.200000X0.275000X-0.200000X0.275000X0.200000X-0.275000X0.200000X-0.275000X-0.200000X0*%
%TD*%
%TA.AperFunction,SMDPad,CuDef*%
%ADD19RoundRect,0.250000X0.475000X-0.250000X0.475000X0.250000X-0.475000X0.250000X-0.475000X-0.250000X0*%
%TD*%
%TA.AperFunction,SMDPad,CuDef*%
%ADD20RoundRect,0.150000X0.150000X-0.587500X0.150000X0.587500X-0.150000X0.587500X-0.150000X-0.587500X0*%
%TD*%
%TA.AperFunction,SMDPad,CuDef*%
%ADD21R,1.574800X1.397000*%
%TD*%
%TA.AperFunction,SMDPad,CuDef*%
%ADD22RoundRect,0.250000X-0.625000X0.312500X-0.625000X-0.312500X0.625000X-0.312500X0.625000X0.312500X0*%
%TD*%
%TA.AperFunction,SMDPad,CuDef*%
%ADD23RoundRect,0.250000X-0.475000X0.250000X-0.475000X-0.250000X0.475000X-0.250000X0.475000X0.250000X0*%
%TD*%
%TA.AperFunction,ComponentPad*%
%ADD24R,2.000000X2.000000*%
%TD*%
%TA.AperFunction,ComponentPad*%
%ADD25C,2.000000*%
%TD*%
%TA.AperFunction,SMDPad,CuDef*%
%ADD26R,0.300000X0.800000*%
%TD*%
%TA.AperFunction,SMDPad,CuDef*%
%ADD27R,0.400000X0.800000*%
%TD*%
%TA.AperFunction,SMDPad,CuDef*%
%ADD28RoundRect,0.200000X-0.200000X-0.275000X0.200000X-0.275000X0.200000X0.275000X-0.200000X0.275000X0*%
%TD*%
%TA.AperFunction,SMDPad,CuDef*%
%ADD29FreePoly0,90.000000*%
%TD*%
%TA.AperFunction,ComponentPad*%
%ADD30RoundRect,0.200000X0.600000X-0.600000X0.600000X0.600000X-0.600000X0.600000X-0.600000X-0.600000X0*%
%TD*%
%TA.AperFunction,SMDPad,CuDef*%
%ADD31RoundRect,0.800000X0.000010X-0.800000X0.000010X0.800000X-0.000010X0.800000X-0.000010X-0.800000X0*%
%TD*%
%TA.AperFunction,ComponentPad*%
%ADD32C,1.600000*%
%TD*%
%TA.AperFunction,SMDPad,CuDef*%
%ADD33FreePoly1,90.000000*%
%TD*%
%TA.AperFunction,ComponentPad*%
%ADD34FreePoly2,90.000000*%
%TD*%
%TA.AperFunction,ComponentPad*%
%ADD35FreePoly3,90.000000*%
%TD*%
%TA.AperFunction,ComponentPad*%
%ADD36R,1.498600X1.498600*%
%TD*%
%TA.AperFunction,ComponentPad*%
%ADD37C,1.498600*%
%TD*%
%TA.AperFunction,ViaPad*%
%ADD38C,0.600000*%
%TD*%
%TA.AperFunction,Conductor*%
%ADD39C,0.200000*%
%TD*%
G04 APERTURE END LIST*
D10*
%TO.P,R1,1*%
%TO.N,GND*%
X128635000Y-92120000D03*
%TO.P,R1,2*%
%TO.N,Net-(Q1-S)*%
X131560000Y-92120000D03*
%TD*%
D11*
%TO.P,CR3,1*%
%TO.N,Net-(C8-Pad1)*%
X111760000Y-51120000D03*
%TO.P,CR3,2*%
%TO.N,Net-(C5-Pad1)*%
X114560000Y-51120000D03*
%TD*%
D12*
%TO.P,Q2,1,G*%
%TO.N,Net-(Q2-G)*%
X118560000Y-41220000D03*
%TO.P,Q2,2,S*%
%TO.N,Net-(Q2-S)*%
X118560000Y-43120000D03*
%TO.P,Q2,3,D*%
%TO.N,Net-(A1-VSYS)*%
X120435000Y-42170000D03*
%TD*%
D13*
%TO.P,C9,1*%
%TO.N,GND*%
X110500000Y-35000000D03*
%TO.P,C9,2*%
%TO.N,Net-(Q2-G)*%
X112400000Y-35000000D03*
%TD*%
D14*
%TO.P,VR1,1,GND*%
%TO.N,GND*%
X124200000Y-81700000D03*
%TO.P,VR1,2,VO*%
%TO.N,Net-(A1-VSYS)*%
X124200000Y-84000000D03*
D15*
X130500000Y-84000000D03*
D14*
%TO.P,VR1,3,VI*%
%TO.N,/voltage divider*%
X124200000Y-86300000D03*
%TD*%
D16*
%TO.P,C3,1*%
%TO.N,GND*%
X119560000Y-77620000D03*
%TO.P,C3,2*%
%TO.N,Net-(C3-Pad2)*%
X117660000Y-77620000D03*
%TD*%
D13*
%TO.P,C10,1*%
%TO.N,Net-(A1-VSYS)*%
X111600000Y-84500000D03*
%TO.P,C10,2*%
%TO.N,GND*%
X113500000Y-84500000D03*
%TD*%
D17*
%TO.P,C11,1*%
%TO.N,Net-(VR1-GND)*%
X111510000Y-76620000D03*
%TO.P,C11,2*%
%TO.N,GND*%
X113060000Y-76620000D03*
%TD*%
D11*
%TO.P,CR4,1*%
%TO.N,GND*%
X116500000Y-70900000D03*
%TO.P,CR4,2*%
%TO.N,Net-(C8-Pad1)*%
X116500000Y-68100000D03*
%TD*%
D16*
%TO.P,C6,1*%
%TO.N,GND*%
X120000000Y-90500000D03*
%TO.P,C6,2*%
%TO.N,Net-(C6-Pad2)*%
X118100000Y-90500000D03*
%TD*%
D18*
%TO.P,R3,1*%
%TO.N,/voltage divider*%
X156500000Y-76150000D03*
%TO.P,R3,2*%
%TO.N,Net-(A1-GPIO26_ADC0)*%
X156500000Y-74500000D03*
%TD*%
D19*
%TO.P,C5,1*%
%TO.N,Net-(C5-Pad1)*%
X110060000Y-62520000D03*
%TO.P,C5,2*%
%TO.N,GND*%
X110060000Y-60620000D03*
%TD*%
D16*
%TO.P,C4,1*%
%TO.N,GND*%
X124460000Y-90620000D03*
%TO.P,C4,2*%
%TO.N,Net-(C4-Pad2)*%
X122560000Y-90620000D03*
%TD*%
D20*
%TO.P,Q1,1,G*%
%TO.N,Net-(Q1-G)*%
X137550000Y-82375000D03*
%TO.P,Q1,2,S*%
%TO.N,Net-(Q1-S)*%
X139450000Y-82375000D03*
%TO.P,Q1,3,D*%
%TO.N,Net-(Q1-D)*%
X138500000Y-80500000D03*
%TD*%
D21*
%TO.P,SRP3012TA-100M1,1,1*%
%TO.N,Net-(Q2-S)*%
X113500000Y-42000000D03*
%TO.P,SRP3012TA-100M1,2,2*%
%TO.N,Net-(Q1-D)*%
X111061600Y-42000000D03*
%TD*%
D13*
%TO.P,C7,1*%
%TO.N,GND*%
X117610000Y-64620000D03*
%TO.P,C7,2*%
%TO.N,Net-(C7-Pad2)*%
X119510000Y-64620000D03*
%TD*%
D22*
%TO.P,R2,1*%
%TO.N,Net-(Q1-D)*%
X143500000Y-80575000D03*
%TO.P,R2,2*%
%TO.N,Net-(Q1-G)*%
X143500000Y-83500000D03*
%TD*%
D16*
%TO.P,C1,1*%
%TO.N,GND*%
X160060000Y-84620000D03*
%TO.P,C1,2*%
%TO.N,Net-(C1-Pad2)*%
X158160000Y-84620000D03*
%TD*%
D23*
%TO.P,C12,1*%
%TO.N,/voltage divider*%
X112000000Y-87600000D03*
%TO.P,C12,2*%
%TO.N,GND*%
X112000000Y-89500000D03*
%TD*%
D24*
%TO.P,J2,1,Pin_1*%
%TO.N,Net-(J2-Pin_1)*%
X162500000Y-60762000D03*
D25*
%TO.P,J2,2,Pin_2*%
%TO.N,GND*%
X162500000Y-58222000D03*
%TD*%
D19*
%TO.P,C8,1*%
%TO.N,Net-(C8-Pad1)*%
X110560000Y-48520000D03*
%TO.P,C8,2*%
%TO.N,Net-(Q1-D)*%
X110560000Y-46620000D03*
%TD*%
D26*
%TO.P,J1,1,1*%
%TO.N,unconnected-(J1-Pad1)*%
X134250000Y-89000000D03*
%TO.P,J1,2,2*%
%TO.N,Net-(Q1-G)*%
X134750000Y-89000000D03*
%TO.P,J1,3,3*%
%TO.N,Net-(Q1-S)*%
X135250000Y-89000000D03*
%TO.P,J1,4,4*%
%TO.N,unconnected-(J1-Pad4)*%
X135750000Y-89000000D03*
%TO.P,J1,5,5*%
%TO.N,Net-(C6-Pad2)*%
X136250000Y-89000000D03*
%TO.P,J1,6,6*%
%TO.N,unconnected-(J1-Pad6)*%
X136750000Y-89000000D03*
%TO.P,J1,7,7*%
%TO.N,unconnected-(J1-Pad7)*%
X137250000Y-89000000D03*
%TO.P,J1,8,8*%
%TO.N,Net-(A1-GPIO10)*%
X137750000Y-89000000D03*
%TO.P,J1,9,9*%
%TO.N,Net-(A1-GPIO13)*%
X138250000Y-89000000D03*
%TO.P,J1,10,10*%
%TO.N,Net-(A1-GPIO11)*%
X138750000Y-89000000D03*
%TO.P,J1,11,11*%
%TO.N,Net-(A1-GPIO12)*%
X139250000Y-89000000D03*
%TO.P,J1,12,12*%
%TO.N,Net-(A1-GPIO17)*%
X139750000Y-89000000D03*
%TO.P,J1,13,13*%
%TO.N,Net-(A1-GPIO14)*%
X140250000Y-89000000D03*
%TO.P,J1,14,14*%
%TO.N,Net-(A1-GPIO15)*%
X140750000Y-89000000D03*
%TO.P,J1,15,15*%
%TO.N,Net-(Q2-S)*%
X141250000Y-89000000D03*
%TO.P,J1,16,16*%
X141750000Y-89000000D03*
%TO.P,J1,17,17*%
%TO.N,GND*%
X142250000Y-89000000D03*
%TO.P,J1,18,18*%
%TO.N,Net-(C4-Pad2)*%
X142750000Y-89000000D03*
%TO.P,J1,19,19*%
%TO.N,unconnected-(J1-Pad19)*%
X143250000Y-89000000D03*
%TO.P,J1,20,20*%
%TO.N,Net-(C3-Pad2)*%
X143750000Y-89000000D03*
%TO.P,J1,21,21*%
%TO.N,Net-(C7-Pad2)*%
X144250000Y-89000000D03*
%TO.P,J1,22,22*%
%TO.N,Net-(C2-Pad2)*%
X144750000Y-89000000D03*
%TO.P,J1,23,23*%
%TO.N,Net-(C5-Pad1)*%
X145250000Y-89000000D03*
%TO.P,J1,24,24*%
%TO.N,Net-(C1-Pad2)*%
X145750000Y-89000000D03*
D27*
%TO.P,J1,S1,SHIELD*%
%TO.N,unconnected-(J1-SHIELD-PadS1)*%
X146750000Y-86500000D03*
%TO.P,J1,S2,SHIELD__1*%
%TO.N,unconnected-(J1-SHIELD__1-PadS2)*%
X133250000Y-86500000D03*
%TD*%
D28*
%TO.P,R4,1*%
%TO.N,Net-(A1-GPIO26_ADC0)*%
X160350000Y-53500000D03*
%TO.P,R4,2*%
%TO.N,GND*%
X162000000Y-53500000D03*
%TD*%
D11*
%TO.P,CR1,1*%
%TO.N,Net-(C7-Pad2)*%
X116560000Y-56920000D03*
%TO.P,CR1,2*%
%TO.N,Net-(Q1-D)*%
X116560000Y-54120000D03*
%TD*%
D29*
%TO.P,A1,1,GPIO0*%
%TO.N,unconnected-(A1-GPIO0-Pad1)*%
X111960000Y-115000000D03*
D30*
%TO.N,unconnected-(A1-GPIO0-Pad1)_1*%
X111960000Y-114200000D03*
D31*
%TO.P,A1,2,GPIO1*%
%TO.N,unconnected-(A1-GPIO1-Pad2)_1*%
X114500000Y-115000000D03*
D32*
%TO.N,unconnected-(A1-GPIO1-Pad2)*%
X114500000Y-114200000D03*
D33*
%TO.P,A1,3,GND*%
%TO.N,GND*%
X117040000Y-115000000D03*
D34*
X117040000Y-114200000D03*
D31*
%TO.P,A1,4,GPIO2*%
%TO.N,unconnected-(A1-GPIO2-Pad4)_1*%
X119580000Y-115000000D03*
D32*
%TO.N,unconnected-(A1-GPIO2-Pad4)*%
X119580000Y-114200000D03*
D31*
%TO.P,A1,5,GPIO3*%
%TO.N,unconnected-(A1-GPIO3-Pad5)_1*%
X122120000Y-115000000D03*
D32*
%TO.N,unconnected-(A1-GPIO3-Pad5)*%
X122120000Y-114200000D03*
D31*
%TO.P,A1,6,GPIO4*%
%TO.N,unconnected-(A1-GPIO4-Pad6)_1*%
X124660000Y-115000000D03*
D32*
%TO.N,unconnected-(A1-GPIO4-Pad6)*%
X124660000Y-114200000D03*
D31*
%TO.P,A1,7,GPIO5*%
%TO.N,unconnected-(A1-GPIO5-Pad7)_1*%
X127200000Y-115000000D03*
D32*
%TO.N,unconnected-(A1-GPIO5-Pad7)*%
X127200000Y-114200000D03*
D33*
%TO.P,A1,8,GND*%
%TO.N,GND*%
X129740000Y-115000000D03*
D34*
X129740000Y-114200000D03*
D31*
%TO.P,A1,9,GPIO6*%
%TO.N,unconnected-(A1-GPIO6-Pad9)_1*%
X132280000Y-115000000D03*
D32*
%TO.N,unconnected-(A1-GPIO6-Pad9)*%
X132280000Y-114200000D03*
D31*
%TO.P,A1,10,GPIO7*%
%TO.N,unconnected-(A1-GPIO7-Pad10)*%
X134820000Y-115000000D03*
D32*
%TO.N,unconnected-(A1-GPIO7-Pad10)_1*%
X134820000Y-114200000D03*
D31*
%TO.P,A1,11,GPIO8*%
%TO.N,unconnected-(A1-GPIO8-Pad11)_1*%
X137360000Y-115000000D03*
D32*
%TO.N,unconnected-(A1-GPIO8-Pad11)*%
X137360000Y-114200000D03*
D31*
%TO.P,A1,12,GPIO9*%
%TO.N,unconnected-(A1-GPIO9-Pad12)_1*%
X139900000Y-115000000D03*
D32*
%TO.N,unconnected-(A1-GPIO9-Pad12)*%
X139900000Y-114200000D03*
D33*
%TO.P,A1,13,GND*%
%TO.N,GND*%
X142440000Y-115000000D03*
D34*
X142440000Y-114200000D03*
D31*
%TO.P,A1,14,GPIO10*%
%TO.N,Net-(A1-GPIO10)*%
X144980000Y-115000000D03*
D32*
X144980000Y-114200000D03*
D31*
%TO.P,A1,15,GPIO11*%
%TO.N,Net-(A1-GPIO11)*%
X147520000Y-115000000D03*
D32*
X147520000Y-114200000D03*
D31*
%TO.P,A1,16,GPIO12*%
%TO.N,Net-(A1-GPIO12)*%
X150060000Y-115000000D03*
D32*
X150060000Y-114200000D03*
D31*
%TO.P,A1,17,GPIO13*%
%TO.N,Net-(A1-GPIO13)*%
X152600000Y-115000000D03*
D32*
X152600000Y-114200000D03*
D33*
%TO.P,A1,18,GND*%
%TO.N,GND*%
X155140000Y-115000000D03*
D34*
X155140000Y-114200000D03*
D31*
%TO.P,A1,19,GPIO14*%
%TO.N,Net-(A1-GPIO14)*%
X157680000Y-115000000D03*
D32*
X157680000Y-114200000D03*
D31*
%TO.P,A1,20,GPIO15*%
%TO.N,Net-(A1-GPIO15)*%
X160220000Y-115000000D03*
D32*
X160220000Y-114200000D03*
%TO.P,A1,21,GPIO16*%
%TO.N,unconnected-(A1-GPIO16-Pad21)_1*%
X160220000Y-96420000D03*
D31*
%TO.N,unconnected-(A1-GPIO16-Pad21)*%
X160220000Y-95620000D03*
D32*
%TO.P,A1,22,GPIO17*%
%TO.N,Net-(A1-GPIO17)*%
X157680000Y-96420000D03*
D31*
X157680000Y-95620000D03*
D35*
%TO.P,A1,23,GND*%
%TO.N,GND*%
X155140000Y-96420000D03*
D29*
X155140000Y-95620000D03*
D32*
%TO.P,A1,24,GPIO18*%
%TO.N,unconnected-(A1-GPIO18-Pad24)_1*%
X152600000Y-96420000D03*
D31*
%TO.N,unconnected-(A1-GPIO18-Pad24)*%
X152600000Y-95620000D03*
D32*
%TO.P,A1,25,GPIO19*%
%TO.N,unconnected-(A1-GPIO19-Pad25)_1*%
X150060000Y-96420000D03*
D31*
%TO.N,unconnected-(A1-GPIO19-Pad25)*%
X150060000Y-95620000D03*
D32*
%TO.P,A1,26,GPIO20*%
%TO.N,unconnected-(A1-GPIO20-Pad26)*%
X147520000Y-96420000D03*
D31*
%TO.N,unconnected-(A1-GPIO20-Pad26)_1*%
X147520000Y-95620000D03*
D32*
%TO.P,A1,27,GPIO21*%
%TO.N,unconnected-(A1-GPIO21-Pad27)*%
X144980000Y-96420000D03*
D31*
%TO.N,unconnected-(A1-GPIO21-Pad27)_1*%
X144980000Y-95620000D03*
D35*
%TO.P,A1,28,GND*%
%TO.N,GND*%
X142440000Y-96420000D03*
D29*
X142440000Y-95620000D03*
D32*
%TO.P,A1,29,GPIO22*%
%TO.N,unconnected-(A1-GPIO22-Pad29)_1*%
X139900000Y-96420000D03*
D31*
%TO.N,unconnected-(A1-GPIO22-Pad29)*%
X139900000Y-95620000D03*
D32*
%TO.P,A1,30,RUN*%
%TO.N,unconnected-(A1-RUN-Pad30)_1*%
X137360000Y-96420000D03*
D31*
%TO.N,unconnected-(A1-RUN-Pad30)*%
X137360000Y-95620000D03*
D32*
%TO.P,A1,31,GPIO26_ADC0*%
%TO.N,Net-(A1-GPIO26_ADC0)*%
X134820000Y-96420000D03*
D31*
X134820000Y-95620000D03*
D32*
%TO.P,A1,32,GPIO27_ADC1*%
%TO.N,unconnected-(A1-GPIO27_ADC1-Pad32)*%
X132280000Y-96420000D03*
D31*
%TO.N,unconnected-(A1-GPIO27_ADC1-Pad32)_1*%
X132280000Y-95620000D03*
D35*
%TO.P,A1,33,AGND*%
%TO.N,GND*%
X129740000Y-96420000D03*
D29*
X129740000Y-95620000D03*
D32*
%TO.P,A1,34,GPIO28_ADC2*%
%TO.N,unconnected-(A1-GPIO28_ADC2-Pad34)*%
X127200000Y-96420000D03*
D31*
%TO.N,unconnected-(A1-GPIO28_ADC2-Pad34)_1*%
X127200000Y-95620000D03*
D32*
%TO.P,A1,35,ADC_VREF*%
%TO.N,unconnected-(A1-ADC_VREF-Pad35)*%
X124660000Y-96420000D03*
D31*
%TO.N,unconnected-(A1-ADC_VREF-Pad35)_1*%
X124660000Y-95620000D03*
D32*
%TO.P,A1,36,3V3*%
%TO.N,unconnected-(A1-3V3-Pad36)*%
X122120000Y-96420000D03*
D31*
%TO.N,unconnected-(A1-3V3-Pad36)_1*%
X122120000Y-95620000D03*
D32*
%TO.P,A1,37,3V3_EN*%
%TO.N,unconnected-(A1-3V3_EN-Pad37)*%
X119580000Y-96420000D03*
D31*
%TO.N,unconnected-(A1-3V3_EN-Pad37)_1*%
X119580000Y-95620000D03*
D35*
%TO.P,A1,38,GND*%
%TO.N,GND*%
X117040000Y-96420000D03*
D29*
X117040000Y-95620000D03*
D32*
%TO.P,A1,39,VSYS*%
%TO.N,Net-(A1-VSYS)*%
X114500000Y-96420000D03*
D31*
X114500000Y-95620000D03*
D32*
%TO.P,A1,40,VBUS*%
%TO.N,unconnected-(A1-VBUS-Pad40)*%
X111960000Y-96420000D03*
D31*
%TO.N,unconnected-(A1-VBUS-Pad40)_1*%
X111960000Y-95620000D03*
%TD*%
D16*
%TO.P,C2,1*%
%TO.N,GND*%
X156560000Y-80620000D03*
%TO.P,C2,2*%
%TO.N,Net-(C2-Pad2)*%
X154660000Y-80620000D03*
%TD*%
D36*
%TO.P,SW1,1,1*%
%TO.N,Net-(J2-Pin_1)*%
X164500001Y-69499999D03*
D37*
%TO.P,SW1,2,2*%
%TO.N,/voltage divider*%
X164500001Y-76000000D03*
%TO.P,SW1,3*%
%TO.N,N/C*%
X160000000Y-69499999D03*
%TO.P,SW1,4*%
X160000000Y-76000000D03*
%TD*%
D38*
%TO.N,Net-(A1-GPIO17)*%
X141898000Y-92400000D03*
%TO.N,Net-(A1-GPIO12)*%
X162000000Y-90500000D03*
X140348465Y-93000000D03*
%TO.N,Net-(A1-GPIO11)*%
X139452810Y-93599189D03*
X163750000Y-89500000D03*
%TO.N,Net-(C5-Pad1)*%
X147000000Y-84000000D03*
X114560000Y-60120000D03*
X112060000Y-67120000D03*
%TO.N,Net-(A1-VSYS)*%
X122000000Y-84000000D03*
%TO.N,Net-(C3-Pad2)*%
X145099000Y-85401000D03*
X116060000Y-77620000D03*
%TO.N,Net-(C4-Pad2)*%
X127840427Y-89500000D03*
X121560000Y-90620000D03*
%TO.N,Net-(C7-Pad2)*%
X133000000Y-80000000D03*
X119500000Y-62560000D03*
%TO.N,Net-(Q1-D)*%
X135000000Y-80500000D03*
X119500000Y-58500000D03*
%TO.N,Net-(A1-GPIO26_ADC0)*%
X153560000Y-74500000D03*
%TO.N,Net-(Q2-S)*%
X143900000Y-90500000D03*
X135000000Y-90500000D03*
%TO.N,/voltage divider*%
X114500000Y-87500000D03*
X119500000Y-84500000D03*
X153500000Y-79000000D03*
X133100000Y-81500000D03*
%TO.N,GND*%
X142063087Y-98383145D03*
X153264971Y-88264971D03*
X121500000Y-81500000D03*
X156500000Y-83594000D03*
X116500000Y-81500000D03*
X151000000Y-99120000D03*
%TD*%
D39*
%TO.N,Net-(A1-GPIO17)*%
X139750000Y-90252000D02*
X139750000Y-89000000D01*
X141898000Y-92400000D02*
X139750000Y-90252000D01*
%TO.N,Net-(A1-GPIO14)*%
X143546000Y-103447530D02*
X143546000Y-93046000D01*
X140250000Y-89750000D02*
X140250000Y-89000000D01*
X143546000Y-93046000D02*
X140250000Y-89750000D01*
X152609470Y-112511000D02*
X143546000Y-103447530D01*
X157680000Y-112719269D02*
X157471731Y-112511000D01*
X157471731Y-112511000D02*
X152609470Y-112511000D01*
X157680000Y-114200000D02*
X157680000Y-112719269D01*
%TO.N,Net-(A1-GPIO10)*%
X136259000Y-93241000D02*
X137750000Y-91750000D01*
X136259000Y-101192660D02*
X144980000Y-109913660D01*
X136259000Y-93241000D02*
X136259000Y-101192660D01*
X137750000Y-91750000D02*
X137750000Y-89000000D01*
X144980000Y-109913660D02*
X144980000Y-115000000D01*
%TO.N,Net-(A1-GPIO15)*%
X151157164Y-100000000D02*
X149500000Y-100000000D01*
X141947943Y-90849943D02*
X140750000Y-89652000D01*
X160220000Y-115000000D02*
X162690925Y-112529075D01*
X158454992Y-98078582D02*
X153078582Y-98078582D01*
X149500000Y-100000000D02*
X146081000Y-96581000D01*
X146081000Y-93930943D02*
X143000000Y-90849943D01*
X162690925Y-102314515D02*
X158454992Y-98078582D01*
X146081000Y-96581000D02*
X146081000Y-93930943D01*
X140750000Y-89652000D02*
X140750000Y-89000000D01*
X162690925Y-112529075D02*
X162690925Y-102314515D01*
X143000000Y-90849943D02*
X141947943Y-90849943D01*
X153078582Y-98078582D02*
X151157164Y-100000000D01*
%TO.N,Net-(A1-GPIO12)*%
X140348465Y-92651535D02*
X139250000Y-91553070D01*
X139250000Y-91553070D02*
X139250000Y-89000000D01*
X164560000Y-113017050D02*
X160671050Y-116906000D01*
X162750000Y-90250000D02*
X164560000Y-92060000D01*
X164560000Y-92060000D02*
X164560000Y-113017050D01*
X140348465Y-93000000D02*
X140348465Y-92651535D01*
X151966000Y-116906000D02*
X150060000Y-115000000D01*
X162000000Y-90500000D02*
X162250000Y-90250000D01*
X162250000Y-90250000D02*
X162750000Y-90250000D01*
X160671050Y-116906000D02*
X151966000Y-116906000D01*
%TO.N,Net-(A1-GPIO11)*%
X139452810Y-93599189D02*
X139385100Y-93531479D01*
X163750000Y-89500000D02*
X164500000Y-89500000D01*
X147520000Y-115331370D02*
X147520000Y-114200000D01*
X160837150Y-117307000D02*
X149495630Y-117307000D01*
X165560000Y-112584150D02*
X160837150Y-117307000D01*
X164500000Y-89500000D02*
X165560000Y-90560000D01*
X165560000Y-90560000D02*
X165560000Y-112584150D01*
X138750000Y-91984900D02*
X138750000Y-89000000D01*
X149495630Y-117307000D02*
X147520000Y-115331370D01*
X139385100Y-92620000D02*
X138750000Y-91984900D01*
X139385100Y-93531479D02*
X139385100Y-92620000D01*
%TO.N,Net-(C5-Pad1)*%
X155145160Y-81646000D02*
X155461000Y-81330160D01*
X154201100Y-81646000D02*
X155145160Y-81646000D01*
X148500000Y-82500000D02*
X148500000Y-82439000D01*
X145250000Y-89000000D02*
X145250000Y-88250000D01*
X151329840Y-82439000D02*
X148500000Y-82439000D01*
X112060000Y-67120000D02*
X110060000Y-65120000D01*
X147000000Y-84000000D02*
X148500000Y-82500000D01*
X155145160Y-79594000D02*
X154174840Y-79594000D01*
X114560000Y-60120000D02*
X114560000Y-51120000D01*
X145250000Y-88250000D02*
X147597100Y-88250000D01*
X147597100Y-88250000D02*
X154201100Y-81646000D01*
X155461000Y-81330160D02*
X155461000Y-79909840D01*
X110060000Y-65120000D02*
X110060000Y-62520000D01*
X155461000Y-79909840D02*
X155145160Y-79594000D01*
X154174840Y-79594000D02*
X151329840Y-82439000D01*
%TO.N,Net-(C8-Pad1)*%
X111760000Y-49720000D02*
X111760000Y-51120000D01*
X110560000Y-48520000D02*
X111760000Y-49720000D01*
X116500000Y-68100000D02*
X116500000Y-68000000D01*
X116500000Y-68000000D02*
X111760000Y-63260000D01*
X111760000Y-63260000D02*
X111760000Y-51120000D01*
%TO.N,Net-(A1-GPIO13)*%
X138500000Y-100441811D02*
X138500000Y-92556450D01*
X141678189Y-103620000D02*
X138500000Y-100441811D01*
X143151370Y-103620000D02*
X141678189Y-103620000D01*
X138500000Y-92556450D02*
X138250000Y-92306450D01*
X138250000Y-92306450D02*
X138250000Y-89000000D01*
X152600000Y-113068630D02*
X143151370Y-103620000D01*
X152600000Y-114200000D02*
X152600000Y-113068630D01*
%TO.N,Net-(A1-VSYS)*%
X121000000Y-82500000D02*
X122700000Y-82500000D01*
X120435000Y-42170000D02*
X121500000Y-43235000D01*
X124200000Y-84000000D02*
X130500000Y-84000000D01*
X111600000Y-84500000D02*
X109161000Y-86939000D01*
X121500000Y-80261000D02*
X120500000Y-81261000D01*
X124000000Y-84601000D02*
X124200000Y-84401000D01*
X120500000Y-82000000D02*
X121000000Y-82500000D01*
X122700000Y-82500000D02*
X124200000Y-84000000D01*
X109161000Y-90281000D02*
X114500000Y-95620000D01*
X124200000Y-84000000D02*
X122000000Y-84000000D01*
X120500000Y-81261000D02*
X120500000Y-82000000D01*
X109161000Y-86939000D02*
X109161000Y-90281000D01*
X121500000Y-43235000D02*
X121500000Y-80261000D01*
%TO.N,Net-(C1-Pad2)*%
X152620000Y-84620000D02*
X148240000Y-89000000D01*
X148240000Y-89000000D02*
X145750000Y-89000000D01*
X158160000Y-84620000D02*
X152620000Y-84620000D01*
%TO.N,Net-(C2-Pad2)*%
X154660000Y-80620000D02*
X152440000Y-82840000D01*
X152440000Y-82840000D02*
X149160000Y-82840000D01*
X144750000Y-89000000D02*
X144750000Y-87250000D01*
X144750000Y-87250000D02*
X149160000Y-82840000D01*
%TO.N,Net-(C3-Pad2)*%
X143750000Y-89000000D02*
X143750000Y-86750000D01*
X117660000Y-77620000D02*
X117660000Y-77520000D01*
X117660000Y-77620000D02*
X116060000Y-77620000D01*
X143750000Y-86750000D02*
X145099000Y-85401000D01*
X117660000Y-77520000D02*
X118060000Y-77120000D01*
%TO.N,Net-(C4-Pad2)*%
X144148660Y-79500000D02*
X140500000Y-79500000D01*
X129069100Y-89500000D02*
X127840427Y-89500000D01*
X140461500Y-79461500D02*
X134538500Y-79461500D01*
X140500000Y-79500000D02*
X140461500Y-79461500D01*
X142750000Y-85973660D02*
X144676000Y-84047660D01*
X144676000Y-84047660D02*
X144676000Y-80027340D01*
X144676000Y-80027340D02*
X144148660Y-79500000D01*
X122560000Y-90620000D02*
X121560000Y-90620000D01*
X142750000Y-89000000D02*
X142750000Y-85973660D01*
X133701000Y-80299000D02*
X133701000Y-84868100D01*
X134538500Y-79461500D02*
X133701000Y-80299000D01*
X133701000Y-84868100D02*
X129069100Y-89500000D01*
%TO.N,Net-(C6-Pad2)*%
X121100000Y-93500000D02*
X134500000Y-93500000D01*
X136250000Y-91750000D02*
X134500000Y-93500000D01*
X136250000Y-89000000D02*
X136250000Y-91750000D01*
X118100000Y-90500000D02*
X121100000Y-93500000D01*
X134500000Y-93500000D02*
X134652000Y-93500000D01*
%TO.N,Net-(C7-Pad2)*%
X146399000Y-84550943D02*
X146000000Y-84949943D01*
X146000000Y-84949943D02*
X146000000Y-85349943D01*
X145500000Y-79000000D02*
X146399000Y-79899000D01*
X119510000Y-62570000D02*
X119510000Y-64620000D01*
X133000000Y-80000000D02*
X134000000Y-79000000D01*
X146399000Y-79899000D02*
X146399000Y-84550943D01*
X116560000Y-59620000D02*
X116560000Y-56920000D01*
X119500000Y-62560000D02*
X116560000Y-59620000D01*
X119500000Y-62560000D02*
X119510000Y-62570000D01*
X144250000Y-87099943D02*
X144250000Y-89000000D01*
X146000000Y-85349943D02*
X144250000Y-87099943D01*
X134000000Y-79000000D02*
X145500000Y-79000000D01*
%TO.N,Net-(Q1-G)*%
X134750000Y-84850000D02*
X134750000Y-89000000D01*
X139109032Y-81336500D02*
X138070532Y-82375000D01*
X143500000Y-83500000D02*
X141336500Y-81336500D01*
X137550000Y-82375000D02*
X138070532Y-82375000D01*
X137600000Y-82000000D02*
X134750000Y-84850000D01*
X141336500Y-81336500D02*
X139109032Y-81336500D01*
%TO.N,Net-(Q1-D)*%
X119500000Y-57060000D02*
X119500000Y-58500000D01*
X116560000Y-49060000D02*
X116560000Y-54120000D01*
X114120000Y-46620000D02*
X116560000Y-49060000D01*
X111061600Y-42000000D02*
X111061600Y-46118400D01*
X116560000Y-54120000D02*
X119500000Y-57060000D01*
X111061600Y-46118400D02*
X110560000Y-46620000D01*
X110560000Y-46620000D02*
X114120000Y-46620000D01*
X135000000Y-80500000D02*
X138500000Y-80500000D01*
X138575000Y-80575000D02*
X138500000Y-80500000D01*
X143500000Y-80575000D02*
X138575000Y-80575000D01*
%TO.N,Net-(A1-GPIO26_ADC0)*%
X153560000Y-72440000D02*
X158000000Y-68000000D01*
X158000000Y-68000000D02*
X158000000Y-55235000D01*
X153560000Y-74500000D02*
X153710000Y-74350000D01*
X158000000Y-55235000D02*
X159735000Y-53500000D01*
X159735000Y-53500000D02*
X160350000Y-53500000D01*
X153560000Y-74500000D02*
X153560000Y-72440000D01*
X153560000Y-74500000D02*
X156500000Y-74500000D01*
%TO.N,Net-(Q2-G)*%
X112400000Y-35000000D02*
X118560000Y-41160000D01*
X118560000Y-41160000D02*
X118560000Y-41220000D01*
%TO.N,Net-(Q2-S)*%
X113500000Y-42000000D02*
X117039000Y-42000000D01*
X135000000Y-90500000D02*
X126989057Y-90500000D01*
X141799000Y-89701000D02*
X141750000Y-89652000D01*
X121000000Y-80000000D02*
X121000000Y-45560000D01*
X143166100Y-90448943D02*
X142114043Y-90448943D01*
X118500000Y-84909942D02*
X118500000Y-82500000D01*
X125210057Y-88721000D02*
X122311058Y-88721000D01*
X141750000Y-89652000D02*
X141750000Y-89000000D01*
X117039000Y-42000000D02*
X118159000Y-43120000D01*
X141799000Y-90133900D02*
X141799000Y-89701000D01*
X143900000Y-90500000D02*
X143217157Y-90500000D01*
X142114043Y-90448943D02*
X141799000Y-90133900D01*
X126989057Y-90500000D02*
X125210057Y-88721000D01*
X141750000Y-89000000D02*
X141250000Y-89000000D01*
X122311058Y-88721000D02*
X118500000Y-84909942D01*
X118500000Y-82500000D02*
X121000000Y-80000000D01*
X121000000Y-45560000D02*
X118560000Y-43120000D01*
X143217157Y-90500000D02*
X143166100Y-90448943D01*
%TO.N,Net-(J2-Pin_1)*%
X162500000Y-67499998D02*
X164500001Y-69499999D01*
X162500000Y-60762000D02*
X162500000Y-67499998D01*
%TO.N,/voltage divider*%
X122951000Y-85051000D02*
X123916450Y-86016450D01*
X156500000Y-76150000D02*
X156350000Y-76150000D01*
X133000000Y-81600000D02*
X133000000Y-85002000D01*
X163449700Y-77050300D02*
X164500001Y-76000000D01*
X133000000Y-85002000D02*
X131702000Y-86300000D01*
X158050300Y-77050300D02*
X163449700Y-77050300D01*
X119500000Y-84500000D02*
X120051000Y-85051000D01*
X112000000Y-87600000D02*
X114400000Y-87600000D01*
X114400000Y-87600000D02*
X114500000Y-87500000D01*
X156500000Y-76150000D02*
X157150000Y-76150000D01*
X133100000Y-81500000D02*
X133000000Y-81600000D01*
X131702000Y-86300000D02*
X124200000Y-86300000D01*
X156350000Y-76150000D02*
X153500000Y-79000000D01*
X120051000Y-85051000D02*
X122951000Y-85051000D01*
X157150000Y-76150000D02*
X158050300Y-77050300D01*
%TO.N,Net-(Q1-S)*%
X131560000Y-92120000D02*
X134229943Y-92120000D01*
X135250000Y-88200000D02*
X139450000Y-84000000D01*
X135250000Y-89000000D02*
X135250000Y-88200000D01*
X135250000Y-89750000D02*
X135250000Y-89000000D01*
X139450000Y-84000000D02*
X139450000Y-82375000D01*
X135601000Y-90748943D02*
X135601000Y-90101000D01*
X134229943Y-92120000D02*
X135601000Y-90748943D01*
X135601000Y-90101000D02*
X135250000Y-89750000D01*
%TO.N,GND*%
X156500000Y-83594000D02*
X159034000Y-83594000D01*
X151560000Y-99030064D02*
X154170064Y-96420000D01*
X156500000Y-80680000D02*
X156560000Y-80620000D01*
X167560000Y-76440000D02*
X164660000Y-79340000D01*
X151000000Y-99120000D02*
X151089936Y-99030064D01*
X117000000Y-84560000D02*
X117000000Y-83000000D01*
X109161000Y-36339000D02*
X110500000Y-35000000D01*
X123361000Y-90620000D02*
X123361000Y-89909840D01*
X121380000Y-92000000D02*
X123080000Y-92000000D01*
X120000000Y-90620000D02*
X121380000Y-92000000D01*
X113500000Y-84500000D02*
X110974000Y-87026000D01*
X116940000Y-84500000D02*
X117000000Y-84560000D01*
X113060000Y-76620000D02*
X113060000Y-73818000D01*
X144500000Y-90000000D02*
X144500000Y-90500000D01*
X110974000Y-87026000D02*
X110974000Y-88474000D01*
X121500000Y-81500000D02*
X122000000Y-81500000D01*
X119500000Y-80500000D02*
X119500000Y-77680000D01*
X109161000Y-56473000D02*
X109161000Y-36339000D01*
X123045160Y-89594000D02*
X122074840Y-89594000D01*
X111086000Y-64686000D02*
X111086000Y-61646000D01*
X151089936Y-99030064D02*
X151560000Y-99030064D01*
X142063087Y-97116913D02*
X142440000Y-96740000D01*
X124460000Y-90620000D02*
X124661000Y-90419000D01*
X122200000Y-81700000D02*
X124200000Y-81700000D01*
X164660000Y-85620000D02*
X155140000Y-95140000D01*
X117000000Y-83000000D02*
X119500000Y-80500000D01*
X153264971Y-88264971D02*
X152822971Y-88264971D01*
X122000000Y-81500000D02*
X122200000Y-81700000D01*
X167560000Y-57060000D02*
X167560000Y-76440000D01*
X159034000Y-83594000D02*
X160060000Y-84620000D01*
X116500000Y-81500000D02*
X113060000Y-78060000D01*
X116500000Y-70900000D02*
X116500000Y-70100000D01*
X155140000Y-95140000D02*
X155140000Y-95620000D01*
X128635000Y-92120000D02*
X125960000Y-92120000D01*
X120000000Y-90500000D02*
X120000000Y-90620000D01*
X142063087Y-98383145D02*
X142063087Y-97116913D01*
X156500000Y-83594000D02*
X156500000Y-80680000D01*
X110974000Y-88474000D02*
X112000000Y-89500000D01*
X117610000Y-64620000D02*
X117610000Y-69790000D01*
X152822971Y-88264971D02*
X150587942Y-90500000D01*
X156500000Y-83594000D02*
X156448000Y-83646000D01*
X150587942Y-90500000D02*
X144500000Y-90500000D01*
X162000000Y-53500000D02*
X164000000Y-53500000D01*
X115978000Y-70900000D02*
X116500000Y-70900000D01*
X116500000Y-80680000D02*
X116500000Y-81500000D01*
X109161000Y-56473000D02*
X110060000Y-57372000D01*
X119560000Y-77620000D02*
X116500000Y-80680000D01*
X142250000Y-89652000D02*
X142497000Y-89899000D01*
X117610000Y-69790000D02*
X116500000Y-70900000D01*
X116500000Y-70100000D02*
X111086000Y-64686000D01*
X111086000Y-61646000D02*
X110060000Y-60620000D01*
X144399000Y-89899000D02*
X144500000Y-90000000D01*
X119500000Y-77680000D02*
X119560000Y-77620000D01*
X125960000Y-92120000D02*
X124460000Y-90620000D01*
X164000000Y-53500000D02*
X167560000Y-57060000D01*
X122074840Y-89594000D02*
X122054420Y-89614420D01*
X113060000Y-78060000D02*
X113060000Y-76620000D01*
X123080000Y-92000000D02*
X124460000Y-90620000D01*
X142440000Y-96740000D02*
X142440000Y-96420000D01*
X164660000Y-79340000D02*
X164660000Y-85620000D01*
X123361000Y-89909840D02*
X123045160Y-89594000D01*
X142250000Y-89000000D02*
X142250000Y-89652000D01*
X142497000Y-89899000D02*
X144399000Y-89899000D01*
X124460000Y-90620000D02*
X123361000Y-90620000D01*
X113060000Y-73818000D02*
X115978000Y-70900000D01*
X154170064Y-96420000D02*
X155140000Y-96420000D01*
X110060000Y-57372000D02*
X110060000Y-60620000D01*
X113500000Y-84500000D02*
X116940000Y-84500000D01*
X122054420Y-89614420D02*
X117000000Y-84560000D01*
%TD*%
M02*
