M48
; DRILL file {KiCad 9.0.4} date 2026-01-31T13:21:31-0500
; FORMAT={-:-/ absolute / metric / decimal}
; #@! TF.CreationDate,2026-01-31T13:21:31-05:00
; #@! TF.GenerationSoftware,Kicad,Pcbnew,9.0.4
; #@! TF.FileFunction,Plated,1,2,PTH
FMAT,2
METRIC
; #@! TA.AperFunction,Plated,PTH,ViaDrill
T1C0.300
; #@! TA.AperFunction,Plated,PTH,ComponentDrill
T2C1.000
; #@! TA.AperFunction,Plated,PTH,ComponentDrill
T3C1.100
%
G90
G05
T1
X158.5Y-52.0
X161.5Y-47.0
X163.778Y-50.0
X168.0Y-55.5
X170.5Y-92.5
X173.778Y-52.0
X178.5Y-89.0
X178.5Y-93.0
X186.0Y-91.5
X187.0Y-75.5
X187.0Y-83.5
X190.5Y-80.0
X191.0Y-94.0
X192.0Y-68.0
X192.0Y-76.0
X192.5Y-66.5
X193.0Y-76.5
X194.0Y-60.0
X194.5Y-82.5
X194.75Y-73.25
X195.0Y-94.5
X195.5Y-75.5
X195.5Y-77.5
X195.5Y-82.5
X195.983Y-72.983
X196.0Y-72.0
X196.5Y-75.0
X196.5Y-79.0
X197.5Y-98.0
X197.55Y-93.05
X198.0Y-62.5
X214.0Y-58.5
T2
X201.61Y-49.87
X201.61Y-52.41
X201.61Y-54.95
X201.61Y-57.49
X201.61Y-60.03
X201.61Y-62.57
X201.61Y-65.11
X201.61Y-67.65
X201.61Y-70.19
X201.61Y-72.73
X201.61Y-75.27
X201.61Y-77.81
X201.61Y-80.35
X201.61Y-82.89
X201.61Y-85.43
X201.61Y-87.97
X201.61Y-90.51
X201.61Y-93.05
X201.61Y-95.59
X201.61Y-98.13
X219.39Y-49.87
X219.39Y-52.41
X219.39Y-54.95
X219.39Y-57.49
X219.39Y-60.03
X219.39Y-62.57
X219.39Y-65.11
X219.39Y-67.65
X219.39Y-70.19
X219.39Y-72.73
X219.39Y-75.27
X219.39Y-77.81
X219.39Y-80.35
X219.39Y-82.89
X219.39Y-85.43
X219.39Y-87.97
X219.39Y-90.51
X219.39Y-93.05
X219.39Y-95.59
X219.39Y-98.13
T3
X181.738Y-48.5
X184.278Y-48.5
M30
