%TF.GenerationSoftware,KiCad,Pcbnew,9.0.6*%
%TF.CreationDate,2026-01-24T13:37:54-05:00*%
%TF.ProjectId,yey,7965792e-6b69-4636-9164-5f7063625858,rev?*%
%TF.SameCoordinates,Original*%
%TF.FileFunction,Paste,Top*%
%TF.FilePolarity,Positive*%
%FSLAX46Y46*%
G04 Gerber Fmt 4.6, Leading zero omitted, Abs format (unit mm)*
G04 Created by KiCad (PCBNEW 9.0.6) date 2026-01-24 13:37:54*
%MOMM*%
%LPD*%
G01*
G04 APERTURE LIST*
G04 Aperture macros list*
%AMRoundRect*
0 Rectangle with rounded corners*
0 $1 Rounding radius*
0 $2 $3 $4 $5 $6 $7 $8 $9 X,Y pos of 4 corners*
0 Add a 4 corners polygon primitive as box body*
4,1,4,$2,$3,$4,$5,$6,$7,$8,$9,$2,$3,0*
0 Add four circle primitives for the rounded corners*
1,1,$1+$1,$2,$3*
1,1,$1+$1,$4,$5*
1,1,$1+$1,$6,$7*
1,1,$1+$1,$8,$9*
0 Add four rect primitives between the rounded corners*
20,1,$1+$1,$2,$3,$4,$5,0*
20,1,$1+$1,$4,$5,$6,$7,0*
20,1,$1+$1,$6,$7,$8,$9,0*
20,1,$1+$1,$8,$9,$2,$3,0*%
G04 Aperture macros list end*
%ADD10C,0.010000*%
%ADD11R,0.800000X0.400000*%
%ADD12R,1.200000X1.200000*%
%ADD13RoundRect,0.250000X-0.475000X0.250000X-0.475000X-0.250000X0.475000X-0.250000X0.475000X0.250000X0*%
%ADD14RoundRect,0.150000X0.150000X-0.587500X0.150000X0.587500X-0.150000X0.587500X-0.150000X-0.587500X0*%
%ADD15RoundRect,0.200000X0.200000X0.275000X-0.200000X0.275000X-0.200000X-0.275000X0.200000X-0.275000X0*%
%ADD16RoundRect,0.250000X0.250000X0.475000X-0.250000X0.475000X-0.250000X-0.475000X0.250000X-0.475000X0*%
%ADD17RoundRect,0.250000X0.312500X0.625000X-0.312500X0.625000X-0.312500X-0.625000X0.312500X-0.625000X0*%
%ADD18RoundRect,0.200000X-0.275000X0.200000X-0.275000X-0.200000X0.275000X-0.200000X0.275000X0.200000X0*%
%ADD19RoundRect,0.250000X0.475000X-0.250000X0.475000X0.250000X-0.475000X0.250000X-0.475000X-0.250000X0*%
%ADD20RoundRect,0.225000X-0.250000X0.225000X-0.250000X-0.225000X0.250000X-0.225000X0.250000X0.225000X0*%
%ADD21R,1.397000X1.574800*%
%ADD22R,2.000000X1.500000*%
%ADD23R,2.000000X3.800000*%
%ADD24RoundRect,0.150000X-0.587500X-0.150000X0.587500X-0.150000X0.587500X0.150000X-0.587500X0.150000X0*%
G04 APERTURE END LIST*
D10*
%TO.C,J3*%
X184424000Y-95375000D02*
X183774000Y-95375000D01*
X183774000Y-95125000D01*
X184424000Y-95125000D01*
X184424000Y-95375000D01*
G36*
X184424000Y-95375000D02*
G01*
X183774000Y-95375000D01*
X183774000Y-95125000D01*
X184424000Y-95125000D01*
X184424000Y-95375000D01*
G37*
X184424000Y-95875000D02*
X183774000Y-95875000D01*
X183774000Y-95625000D01*
X184424000Y-95625000D01*
X184424000Y-95875000D01*
G36*
X184424000Y-95875000D02*
G01*
X183774000Y-95875000D01*
X183774000Y-95625000D01*
X184424000Y-95625000D01*
X184424000Y-95875000D01*
G37*
X184424000Y-96375000D02*
X183774000Y-96375000D01*
X183774000Y-96125000D01*
X184424000Y-96125000D01*
X184424000Y-96375000D01*
G36*
X184424000Y-96375000D02*
G01*
X183774000Y-96375000D01*
X183774000Y-96125000D01*
X184424000Y-96125000D01*
X184424000Y-96375000D01*
G37*
X184424000Y-96875000D02*
X183774000Y-96875000D01*
X183774000Y-96625000D01*
X184424000Y-96625000D01*
X184424000Y-96875000D01*
G36*
X184424000Y-96875000D02*
G01*
X183774000Y-96875000D01*
X183774000Y-96625000D01*
X184424000Y-96625000D01*
X184424000Y-96875000D01*
G37*
X184424000Y-97375000D02*
X183774000Y-97375000D01*
X183774000Y-97125000D01*
X184424000Y-97125000D01*
X184424000Y-97375000D01*
G36*
X184424000Y-97375000D02*
G01*
X183774000Y-97375000D01*
X183774000Y-97125000D01*
X184424000Y-97125000D01*
X184424000Y-97375000D01*
G37*
X184424000Y-97875000D02*
X183774000Y-97875000D01*
X183774000Y-97625000D01*
X184424000Y-97625000D01*
X184424000Y-97875000D01*
G36*
X184424000Y-97875000D02*
G01*
X183774000Y-97875000D01*
X183774000Y-97625000D01*
X184424000Y-97625000D01*
X184424000Y-97875000D01*
G37*
X184424000Y-98375000D02*
X183774000Y-98375000D01*
X183774000Y-98125000D01*
X184424000Y-98125000D01*
X184424000Y-98375000D01*
G36*
X184424000Y-98375000D02*
G01*
X183774000Y-98375000D01*
X183774000Y-98125000D01*
X184424000Y-98125000D01*
X184424000Y-98375000D01*
G37*
X184424000Y-98875000D02*
X183774000Y-98875000D01*
X183774000Y-98625000D01*
X184424000Y-98625000D01*
X184424000Y-98875000D01*
G36*
X184424000Y-98875000D02*
G01*
X183774000Y-98875000D01*
X183774000Y-98625000D01*
X184424000Y-98625000D01*
X184424000Y-98875000D01*
G37*
X184424000Y-99375000D02*
X183774000Y-99375000D01*
X183774000Y-99125000D01*
X184424000Y-99125000D01*
X184424000Y-99375000D01*
G36*
X184424000Y-99375000D02*
G01*
X183774000Y-99375000D01*
X183774000Y-99125000D01*
X184424000Y-99125000D01*
X184424000Y-99375000D01*
G37*
X184424000Y-99875000D02*
X183774000Y-99875000D01*
X183774000Y-99625000D01*
X184424000Y-99625000D01*
X184424000Y-99875000D01*
G36*
X184424000Y-99875000D02*
G01*
X183774000Y-99875000D01*
X183774000Y-99625000D01*
X184424000Y-99625000D01*
X184424000Y-99875000D01*
G37*
X184424000Y-100375000D02*
X183774000Y-100375000D01*
X183774000Y-100125000D01*
X184424000Y-100125000D01*
X184424000Y-100375000D01*
G36*
X184424000Y-100375000D02*
G01*
X183774000Y-100375000D01*
X183774000Y-100125000D01*
X184424000Y-100125000D01*
X184424000Y-100375000D01*
G37*
X184424000Y-100875000D02*
X183774000Y-100875000D01*
X183774000Y-100625000D01*
X184424000Y-100625000D01*
X184424000Y-100875000D01*
G36*
X184424000Y-100875000D02*
G01*
X183774000Y-100875000D01*
X183774000Y-100625000D01*
X184424000Y-100625000D01*
X184424000Y-100875000D01*
G37*
X184424000Y-101375000D02*
X183774000Y-101375000D01*
X183774000Y-101125000D01*
X184424000Y-101125000D01*
X184424000Y-101375000D01*
G36*
X184424000Y-101375000D02*
G01*
X183774000Y-101375000D01*
X183774000Y-101125000D01*
X184424000Y-101125000D01*
X184424000Y-101375000D01*
G37*
X184424000Y-101875000D02*
X183774000Y-101875000D01*
X183774000Y-101625000D01*
X184424000Y-101625000D01*
X184424000Y-101875000D01*
G36*
X184424000Y-101875000D02*
G01*
X183774000Y-101875000D01*
X183774000Y-101625000D01*
X184424000Y-101625000D01*
X184424000Y-101875000D01*
G37*
X184424000Y-102375000D02*
X183774000Y-102375000D01*
X183774000Y-102125000D01*
X184424000Y-102125000D01*
X184424000Y-102375000D01*
G36*
X184424000Y-102375000D02*
G01*
X183774000Y-102375000D01*
X183774000Y-102125000D01*
X184424000Y-102125000D01*
X184424000Y-102375000D01*
G37*
X184424000Y-102875000D02*
X183774000Y-102875000D01*
X183774000Y-102625000D01*
X184424000Y-102625000D01*
X184424000Y-102875000D01*
G36*
X184424000Y-102875000D02*
G01*
X183774000Y-102875000D01*
X183774000Y-102625000D01*
X184424000Y-102625000D01*
X184424000Y-102875000D01*
G37*
X184424000Y-103375000D02*
X183774000Y-103375000D01*
X183774000Y-103125000D01*
X184424000Y-103125000D01*
X184424000Y-103375000D01*
G36*
X184424000Y-103375000D02*
G01*
X183774000Y-103375000D01*
X183774000Y-103125000D01*
X184424000Y-103125000D01*
X184424000Y-103375000D01*
G37*
X184424000Y-103875000D02*
X183774000Y-103875000D01*
X183774000Y-103625000D01*
X184424000Y-103625000D01*
X184424000Y-103875000D01*
G36*
X184424000Y-103875000D02*
G01*
X183774000Y-103875000D01*
X183774000Y-103625000D01*
X184424000Y-103625000D01*
X184424000Y-103875000D01*
G37*
X184424000Y-104375000D02*
X183774000Y-104375000D01*
X183774000Y-104125000D01*
X184424000Y-104125000D01*
X184424000Y-104375000D01*
G36*
X184424000Y-104375000D02*
G01*
X183774000Y-104375000D01*
X183774000Y-104125000D01*
X184424000Y-104125000D01*
X184424000Y-104375000D01*
G37*
X184424000Y-104875000D02*
X183774000Y-104875000D01*
X183774000Y-104625000D01*
X184424000Y-104625000D01*
X184424000Y-104875000D01*
G36*
X184424000Y-104875000D02*
G01*
X183774000Y-104875000D01*
X183774000Y-104625000D01*
X184424000Y-104625000D01*
X184424000Y-104875000D01*
G37*
X184424000Y-105375000D02*
X183774000Y-105375000D01*
X183774000Y-105125000D01*
X184424000Y-105125000D01*
X184424000Y-105375000D01*
G36*
X184424000Y-105375000D02*
G01*
X183774000Y-105375000D01*
X183774000Y-105125000D01*
X184424000Y-105125000D01*
X184424000Y-105375000D01*
G37*
X184424000Y-105875000D02*
X183774000Y-105875000D01*
X183774000Y-105625000D01*
X184424000Y-105625000D01*
X184424000Y-105875000D01*
G36*
X184424000Y-105875000D02*
G01*
X183774000Y-105875000D01*
X183774000Y-105625000D01*
X184424000Y-105625000D01*
X184424000Y-105875000D01*
G37*
X184424000Y-106375000D02*
X183774000Y-106375000D01*
X183774000Y-106125000D01*
X184424000Y-106125000D01*
X184424000Y-106375000D01*
G36*
X184424000Y-106375000D02*
G01*
X183774000Y-106375000D01*
X183774000Y-106125000D01*
X184424000Y-106125000D01*
X184424000Y-106375000D01*
G37*
X184424000Y-106875000D02*
X183774000Y-106875000D01*
X183774000Y-106625000D01*
X184424000Y-106625000D01*
X184424000Y-106875000D01*
G36*
X184424000Y-106875000D02*
G01*
X183774000Y-106875000D01*
X183774000Y-106625000D01*
X184424000Y-106625000D01*
X184424000Y-106875000D01*
G37*
%TD*%
D11*
%TO.C,J3*%
X186674000Y-107750000D03*
X186674000Y-94250000D03*
%TD*%
D12*
%TO.C,CR5*%
X178500000Y-119700000D03*
X178500000Y-122500000D03*
%TD*%
D13*
%TO.C,C9*%
X178000000Y-83550000D03*
X178000000Y-85450000D03*
%TD*%
D14*
%TO.C,Q1*%
X187987500Y-121487500D03*
X189887500Y-121487500D03*
X188937500Y-119612500D03*
%TD*%
D15*
%TO.C,R2*%
X212912000Y-79000000D03*
X211262000Y-79000000D03*
%TD*%
D16*
%TO.C,C1*%
X198950000Y-114000000D03*
X197050000Y-114000000D03*
%TD*%
D12*
%TO.C,CR2*%
X182500000Y-122500000D03*
X182500000Y-119700000D03*
%TD*%
D17*
%TO.C,R1*%
X192962500Y-125100000D03*
X190037500Y-125100000D03*
%TD*%
D18*
%TO.C,R4*%
X182000000Y-78175000D03*
X182000000Y-79825000D03*
%TD*%
D16*
%TO.C,C2*%
X198950000Y-117000000D03*
X197050000Y-117000000D03*
%TD*%
D12*
%TO.C,CR1*%
X177600000Y-113500000D03*
X180400000Y-113500000D03*
%TD*%
D19*
%TO.C,C11*%
X193000000Y-78450000D03*
X193000000Y-76550000D03*
%TD*%
D20*
%TO.C,C10*%
X180000000Y-83725000D03*
X180000000Y-85275000D03*
%TD*%
D15*
%TO.C,R5*%
X179825000Y-79000000D03*
X178175000Y-79000000D03*
%TD*%
%TO.C,R3*%
X207912000Y-79000000D03*
X206262000Y-79000000D03*
%TD*%
D21*
%TO.C,SRP3012TA-100M1*%
X183500000Y-110780800D03*
X183500000Y-113219200D03*
%TD*%
D16*
%TO.C,C3*%
X198950000Y-120500000D03*
X197050000Y-120500000D03*
%TD*%
D22*
%TO.C,VR1*%
X193150000Y-85300000D03*
X193150000Y-83000000D03*
D23*
X186850000Y-83000000D03*
D22*
X193150000Y-80700000D03*
%TD*%
D16*
%TO.C,C5*%
X199000000Y-128000000D03*
X197100000Y-128000000D03*
%TD*%
%TO.C,C8*%
X180450000Y-110550000D03*
X178550000Y-110550000D03*
%TD*%
%TO.C,C4*%
X199000000Y-124000000D03*
X197100000Y-124000000D03*
%TD*%
D19*
%TO.C,C12*%
X189000000Y-78450000D03*
X189000000Y-76550000D03*
%TD*%
%TO.C,C6*%
X182500000Y-127550000D03*
X182500000Y-125650000D03*
%TD*%
D16*
%TO.C,C13*%
X179950000Y-81000000D03*
X178050000Y-81000000D03*
%TD*%
D19*
%TO.C,C7*%
X178500000Y-127550000D03*
X178500000Y-125650000D03*
%TD*%
D24*
%TO.C,Q3*%
X182062500Y-81550000D03*
X182062500Y-83450000D03*
X183937500Y-82500000D03*
%TD*%
M02*
