%TF.GenerationSoftware,KiCad,Pcbnew,9.0.6*%
%TF.CreationDate,2026-01-24T13:37:55-05:00*%
%TF.ProjectId,yey,7965792e-6b69-4636-9164-5f7063625858,rev?*%
%TF.SameCoordinates,Original*%
%TF.FileFunction,Soldermask,Top*%
%TF.FilePolarity,Negative*%
%FSLAX46Y46*%
G04 Gerber Fmt 4.6, Leading zero omitted, Abs format (unit mm)*
G04 Created by KiCad (PCBNEW 9.0.6) date 2026-01-24 13:37:55*
%MOMM*%
%LPD*%
G01*
G04 APERTURE LIST*
G04 Aperture macros list*
%AMRoundRect*
0 Rectangle with rounded corners*
0 $1 Rounding radius*
0 $2 $3 $4 $5 $6 $7 $8 $9 X,Y pos of 4 corners*
0 Add a 4 corners polygon primitive as box body*
4,1,4,$2,$3,$4,$5,$6,$7,$8,$9,$2,$3,0*
0 Add four circle primitives for the rounded corners*
1,1,$1+$1,$2,$3*
1,1,$1+$1,$4,$5*
1,1,$1+$1,$6,$7*
1,1,$1+$1,$8,$9*
0 Add four rect primitives between the rounded corners*
20,1,$1+$1,$2,$3,$4,$5,0*
20,1,$1+$1,$4,$5,$6,$7,0*
20,1,$1+$1,$6,$7,$8,$9,0*
20,1,$1+$1,$8,$9,$2,$3,0*%
%AMFreePoly0*
4,1,37,0.800000,0.796148,0.878414,0.796148,1.032228,0.765552,1.177117,0.705537,1.307515,0.618408,1.418408,0.507515,1.505537,0.377117,1.565552,0.232228,1.596148,0.078414,1.596148,-0.078414,1.565552,-0.232228,1.505537,-0.377117,1.418408,-0.507515,1.307515,-0.618408,1.177117,-0.705537,1.032228,-0.765552,0.878414,-0.796148,0.800000,-0.796148,0.800000,-0.800000,-1.400000,-0.800000,
-1.403843,-0.796157,-1.439018,-0.796157,-1.511114,-0.766294,-1.566294,-0.711114,-1.596157,-0.639018,-1.596157,-0.603843,-1.600000,-0.600000,-1.600000,0.600000,-1.596157,0.603843,-1.596157,0.639018,-1.566294,0.711114,-1.511114,0.766294,-1.439018,0.796157,-1.403843,0.796157,-1.400000,0.800000,0.800000,0.800000,0.800000,0.796148,0.800000,0.796148,$1*%
%AMFreePoly1*
4,1,37,1.403843,0.796157,1.439018,0.796157,1.511114,0.766294,1.566294,0.711114,1.596157,0.639018,1.596157,0.603843,1.600000,0.600000,1.600000,-0.600000,1.596157,-0.603843,1.596157,-0.639018,1.566294,-0.711114,1.511114,-0.766294,1.439018,-0.796157,1.403843,-0.796157,1.400000,-0.800000,-0.800000,-0.800000,-0.800000,-0.796148,-0.878414,-0.796148,-1.032228,-0.765552,-1.177117,-0.705537,
-1.307515,-0.618408,-1.418408,-0.507515,-1.505537,-0.377117,-1.565552,-0.232228,-1.596148,-0.078414,-1.596148,0.078414,-1.565552,0.232228,-1.505537,0.377117,-1.418408,0.507515,-1.307515,0.618408,-1.177117,0.705537,-1.032228,0.765552,-0.878414,0.796148,-0.800000,0.796148,-0.800000,0.800000,1.400000,0.800000,1.403843,0.796157,1.403843,0.796157,$1*%
%AMFreePoly2*
4,1,37,0.603843,0.796157,0.639018,0.796157,0.711114,0.766294,0.766294,0.711114,0.796157,0.639018,0.796157,0.603843,0.800000,0.600000,0.800000,-0.600000,0.796157,-0.603843,0.796157,-0.639018,0.766294,-0.711114,0.711114,-0.766294,0.639018,-0.796157,0.603843,-0.796157,0.600000,-0.800000,0.000000,-0.800000,0.000000,-0.796148,-0.078414,-0.796148,-0.232228,-0.765552,-0.377117,-0.705537,
-0.507515,-0.618408,-0.618408,-0.507515,-0.705537,-0.377117,-0.765552,-0.232228,-0.796148,-0.078414,-0.796148,0.078414,-0.765552,0.232228,-0.705537,0.377117,-0.618408,0.507515,-0.507515,0.618408,-0.377117,0.705537,-0.232228,0.765552,-0.078414,0.796148,0.000000,0.796148,0.000000,0.800000,0.600000,0.800000,0.603843,0.796157,0.603843,0.796157,$1*%
%AMFreePoly3*
4,1,37,0.000000,0.796148,0.078414,0.796148,0.232228,0.765552,0.377117,0.705537,0.507515,0.618408,0.618408,0.507515,0.705537,0.377117,0.765552,0.232228,0.796148,0.078414,0.796148,-0.078414,0.765552,-0.232228,0.705537,-0.377117,0.618408,-0.507515,0.507515,-0.618408,0.377117,-0.705537,0.232228,-0.765552,0.078414,-0.796148,0.000000,-0.796148,0.000000,-0.800000,-0.600000,-0.800000,
-0.603843,-0.796157,-0.639018,-0.796157,-0.711114,-0.766294,-0.766294,-0.711114,-0.796157,-0.639018,-0.796157,-0.603843,-0.800000,-0.600000,-0.800000,0.600000,-0.796157,0.603843,-0.796157,0.639018,-0.766294,0.711114,-0.711114,0.766294,-0.639018,0.796157,-0.603843,0.796157,-0.600000,0.800000,0.000000,0.800000,0.000000,0.796148,0.000000,0.796148,$1*%
G04 Aperture macros list end*
%ADD10RoundRect,0.050000X0.400000X-0.150000X0.400000X0.150000X-0.400000X0.150000X-0.400000X-0.150000X0*%
%ADD11RoundRect,0.102000X0.400000X-0.200000X0.400000X0.200000X-0.400000X0.200000X-0.400000X-0.200000X0*%
%ADD12C,2.200000*%
%ADD13C,1.850000*%
%ADD14FreePoly0,0.000000*%
%ADD15RoundRect,0.200000X-0.600000X-0.600000X0.600000X-0.600000X0.600000X0.600000X-0.600000X0.600000X0*%
%ADD16RoundRect,0.800000X-0.800000X-0.000010X0.800000X-0.000010X0.800000X0.000010X-0.800000X0.000010X0*%
%ADD17C,1.600000*%
%ADD18FreePoly1,0.000000*%
%ADD19FreePoly2,0.000000*%
%ADD20FreePoly3,0.000000*%
%ADD21R,2.000000X2.000000*%
%ADD22C,2.000000*%
%ADD23R,1.200000X1.200000*%
%ADD24RoundRect,0.250000X-0.475000X0.250000X-0.475000X-0.250000X0.475000X-0.250000X0.475000X0.250000X0*%
%ADD25RoundRect,0.150000X0.150000X-0.587500X0.150000X0.587500X-0.150000X0.587500X-0.150000X-0.587500X0*%
%ADD26RoundRect,0.200000X0.200000X0.275000X-0.200000X0.275000X-0.200000X-0.275000X0.200000X-0.275000X0*%
%ADD27RoundRect,0.250000X0.250000X0.475000X-0.250000X0.475000X-0.250000X-0.475000X0.250000X-0.475000X0*%
%ADD28RoundRect,0.250000X0.312500X0.625000X-0.312500X0.625000X-0.312500X-0.625000X0.312500X-0.625000X0*%
%ADD29RoundRect,0.200000X-0.275000X0.200000X-0.275000X-0.200000X0.275000X-0.200000X0.275000X0.200000X0*%
%ADD30RoundRect,0.250000X0.475000X-0.250000X0.475000X0.250000X-0.475000X0.250000X-0.475000X-0.250000X0*%
%ADD31R,1.498600X1.498600*%
%ADD32C,1.498600*%
%ADD33RoundRect,0.225000X-0.250000X0.225000X-0.250000X-0.225000X0.250000X-0.225000X0.250000X0.225000X0*%
%ADD34C,4.500000*%
%ADD35R,1.397000X1.574800*%
%ADD36R,2.000000X1.500000*%
%ADD37R,2.000000X3.800000*%
%ADD38RoundRect,0.150000X-0.587500X-0.150000X0.587500X-0.150000X0.587500X0.150000X-0.587500X0.150000X0*%
G04 APERTURE END LIST*
D10*
%TO.C,J3*%
X184174000Y-95250000D03*
X184174000Y-95750000D03*
X184174000Y-96250000D03*
X184174000Y-96750000D03*
X184174000Y-97250000D03*
X184174000Y-97750000D03*
X184174000Y-98250000D03*
X184174000Y-98750000D03*
X184174000Y-99250000D03*
X184174000Y-99750000D03*
X184174000Y-100250000D03*
X184174000Y-100750000D03*
X184174000Y-101250000D03*
X184174000Y-101750000D03*
X184174000Y-102250000D03*
X184174000Y-102750000D03*
X184174000Y-103250000D03*
X184174000Y-103750000D03*
X184174000Y-104250000D03*
X184174000Y-104750000D03*
X184174000Y-105250000D03*
X184174000Y-105750000D03*
X184174000Y-106250000D03*
X184174000Y-106750000D03*
D11*
X186674000Y-107750000D03*
X186674000Y-94250000D03*
%TD*%
D12*
%TO.C,A1*%
X159665000Y-79190000D03*
D13*
X159965000Y-82220000D03*
X164815000Y-82220000D03*
D12*
X165115000Y-79190000D03*
D14*
X152700000Y-79060000D03*
D15*
X153500000Y-79060000D03*
D16*
X152700000Y-81600000D03*
D17*
X153500000Y-81600000D03*
D18*
X152700000Y-84140000D03*
D19*
X153500000Y-84140000D03*
D16*
X152700000Y-86680000D03*
D17*
X153500000Y-86680000D03*
D16*
X152700000Y-89220000D03*
D17*
X153500000Y-89220000D03*
D16*
X152700000Y-91760000D03*
D17*
X153500000Y-91760000D03*
D16*
X152700000Y-94300000D03*
D17*
X153500000Y-94300000D03*
D18*
X152700000Y-96840000D03*
D19*
X153500000Y-96840000D03*
D16*
X152700000Y-99380000D03*
D17*
X153500000Y-99380000D03*
D16*
X152700000Y-101920000D03*
D17*
X153500000Y-101920000D03*
D16*
X152700000Y-104460000D03*
D17*
X153500000Y-104460000D03*
D16*
X152700000Y-107000000D03*
D17*
X153500000Y-107000000D03*
D18*
X152700000Y-109540000D03*
D19*
X153500000Y-109540000D03*
D16*
X152700000Y-112080000D03*
D17*
X153500000Y-112080000D03*
D16*
X152700000Y-114620000D03*
D17*
X153500000Y-114620000D03*
D16*
X152700000Y-117160000D03*
D17*
X153500000Y-117160000D03*
D16*
X152700000Y-119700000D03*
D17*
X153500000Y-119700000D03*
D18*
X152700000Y-122240000D03*
D19*
X153500000Y-122240000D03*
D16*
X152700000Y-124780000D03*
D17*
X153500000Y-124780000D03*
D16*
X152700000Y-127320000D03*
D17*
X153500000Y-127320000D03*
X171280000Y-127320000D03*
D16*
X172080000Y-127320000D03*
D17*
X171280000Y-124780000D03*
D16*
X172080000Y-124780000D03*
D20*
X171280000Y-122240000D03*
D14*
X172080000Y-122240000D03*
D17*
X171280000Y-119700000D03*
D16*
X172080000Y-119700000D03*
D17*
X171280000Y-117160000D03*
D16*
X172080000Y-117160000D03*
D17*
X171280000Y-114620000D03*
D16*
X172080000Y-114620000D03*
D17*
X171280000Y-112080000D03*
D16*
X172080000Y-112080000D03*
D20*
X171280000Y-109540000D03*
D14*
X172080000Y-109540000D03*
D17*
X171280000Y-107000000D03*
D16*
X172080000Y-107000000D03*
D17*
X171280000Y-104460000D03*
D16*
X172080000Y-104460000D03*
D17*
X171280000Y-101920000D03*
D16*
X172080000Y-101920000D03*
D17*
X171280000Y-99380000D03*
D16*
X172080000Y-99380000D03*
D20*
X171280000Y-96840000D03*
D14*
X172080000Y-96840000D03*
D17*
X171280000Y-94300000D03*
D16*
X172080000Y-94300000D03*
D17*
X171280000Y-91760000D03*
D16*
X172080000Y-91760000D03*
D17*
X171280000Y-89220000D03*
D16*
X172080000Y-89220000D03*
D17*
X171280000Y-86680000D03*
D16*
X172080000Y-86680000D03*
D20*
X171280000Y-84140000D03*
D14*
X172080000Y-84140000D03*
D17*
X171280000Y-81600000D03*
D16*
X172080000Y-81600000D03*
D17*
X171280000Y-79060000D03*
D16*
X172080000Y-79060000D03*
%TD*%
D21*
%TO.C,J1*%
X216500000Y-78000000D03*
D22*
X219040000Y-78000000D03*
%TD*%
D23*
%TO.C,CR5*%
X178500000Y-119700000D03*
X178500000Y-122500000D03*
%TD*%
D24*
%TO.C,C9*%
X178000000Y-83550000D03*
X178000000Y-85450000D03*
%TD*%
D25*
%TO.C,Q1*%
X187987500Y-121487500D03*
X189887500Y-121487500D03*
X188937500Y-119612500D03*
%TD*%
D26*
%TO.C,R2*%
X212912000Y-79000000D03*
X211262000Y-79000000D03*
%TD*%
D27*
%TO.C,C1*%
X198950000Y-114000000D03*
X197050000Y-114000000D03*
%TD*%
D23*
%TO.C,CR2*%
X182500000Y-122500000D03*
X182500000Y-119700000D03*
%TD*%
D28*
%TO.C,R1*%
X192962500Y-125100000D03*
X190037500Y-125100000D03*
%TD*%
D29*
%TO.C,R4*%
X182000000Y-78175000D03*
X182000000Y-79825000D03*
%TD*%
D27*
%TO.C,C2*%
X198950000Y-117000000D03*
X197050000Y-117000000D03*
%TD*%
D23*
%TO.C,CR1*%
X177600000Y-113500000D03*
X180400000Y-113500000D03*
%TD*%
D30*
%TO.C,C11*%
X193000000Y-78450000D03*
X193000000Y-76550000D03*
%TD*%
D31*
%TO.C,SW2*%
X196260599Y-81750001D03*
D32*
X196260599Y-75250000D03*
X200760600Y-81750001D03*
X200760600Y-75250000D03*
%TD*%
D33*
%TO.C,C10*%
X180000000Y-83725000D03*
X180000000Y-85275000D03*
%TD*%
D26*
%TO.C,R5*%
X179825000Y-79000000D03*
X178175000Y-79000000D03*
%TD*%
%TO.C,R3*%
X207912000Y-79000000D03*
X206262000Y-79000000D03*
%TD*%
D34*
%TO.C,H4*%
X241000000Y-80000000D03*
%TD*%
D35*
%TO.C,SRP3012TA-100M1*%
X183500000Y-110780800D03*
X183500000Y-113219200D03*
%TD*%
D27*
%TO.C,C3*%
X198950000Y-120500000D03*
X197050000Y-120500000D03*
%TD*%
D36*
%TO.C,VR1*%
X193150000Y-85300000D03*
X193150000Y-83000000D03*
D37*
X186850000Y-83000000D03*
D36*
X193150000Y-80700000D03*
%TD*%
D27*
%TO.C,C5*%
X199000000Y-128000000D03*
X197100000Y-128000000D03*
%TD*%
%TO.C,C8*%
X180450000Y-110550000D03*
X178550000Y-110550000D03*
%TD*%
%TO.C,C4*%
X199000000Y-124000000D03*
X197100000Y-124000000D03*
%TD*%
D30*
%TO.C,C12*%
X189000000Y-78450000D03*
X189000000Y-76550000D03*
%TD*%
%TO.C,C6*%
X182500000Y-127550000D03*
X182500000Y-125650000D03*
%TD*%
D27*
%TO.C,C13*%
X179950000Y-81000000D03*
X178050000Y-81000000D03*
%TD*%
D34*
%TO.C,H3*%
X241000000Y-125500000D03*
%TD*%
D30*
%TO.C,C7*%
X178500000Y-127550000D03*
X178500000Y-125650000D03*
%TD*%
D38*
%TO.C,Q3*%
X182062500Y-81550000D03*
X182062500Y-83450000D03*
X183937500Y-82500000D03*
%TD*%
M02*
