%TF.GenerationSoftware,KiCad,Pcbnew,9.0.4*%
%TF.CreationDate,2026-01-31T11:42:51-05:00*%
%TF.ProjectId,ConnectedRedoJan24BatteryDisplaySchem,436f6e6e-6563-4746-9564-5265646f4a61,rev?*%
%TF.SameCoordinates,Original*%
%TF.FileFunction,Soldermask,Bot*%
%TF.FilePolarity,Negative*%
%FSLAX46Y46*%
G04 Gerber Fmt 4.6, Leading zero omitted, Abs format (unit mm)*
G04 Created by KiCad (PCBNEW 9.0.4) date 2026-01-31 11:42:51*
%MOMM*%
%LPD*%
G01*
G04 APERTURE LIST*
G04 Aperture macros list*
%AMRoundRect*
0 Rectangle with rounded corners*
0 $1 Rounding radius*
0 $2 $3 $4 $5 $6 $7 $8 $9 X,Y pos of 4 corners*
0 Add a 4 corners polygon primitive as box body*
4,1,4,$2,$3,$4,$5,$6,$7,$8,$9,$2,$3,0*
0 Add four circle primitives for the rounded corners*
1,1,$1+$1,$2,$3*
1,1,$1+$1,$4,$5*
1,1,$1+$1,$6,$7*
1,1,$1+$1,$8,$9*
0 Add four rect primitives between the rounded corners*
20,1,$1+$1,$2,$3,$4,$5,0*
20,1,$1+$1,$4,$5,$6,$7,0*
20,1,$1+$1,$6,$7,$8,$9,0*
20,1,$1+$1,$8,$9,$2,$3,0*%
%AMFreePoly0*
4,1,37,0.603843,0.796157,0.639018,0.796157,0.711114,0.766294,0.766294,0.711114,0.796157,0.639018,0.796157,0.603843,0.800000,0.600000,0.800000,-0.600000,0.796157,-0.603843,0.796157,-0.639018,0.766294,-0.711114,0.711114,-0.766294,0.639018,-0.796157,0.603843,-0.796157,0.600000,-0.800000,0.000000,-0.800000,0.000000,-0.796148,-0.078414,-0.796148,-0.232228,-0.765552,-0.377117,-0.705537,
-0.507515,-0.618408,-0.618408,-0.507515,-0.705537,-0.377117,-0.765552,-0.232228,-0.796148,-0.078414,-0.796148,0.078414,-0.765552,0.232228,-0.705537,0.377117,-0.618408,0.507515,-0.507515,0.618408,-0.377117,0.705537,-0.232228,0.765552,-0.078414,0.796148,0.000000,0.796148,0.000000,0.800000,0.600000,0.800000,0.603843,0.796157,0.603843,0.796157,$1*%
%AMFreePoly1*
4,1,37,0.000000,0.796148,0.078414,0.796148,0.232228,0.765552,0.377117,0.705537,0.507515,0.618408,0.618408,0.507515,0.705537,0.377117,0.765552,0.232228,0.796148,0.078414,0.796148,-0.078414,0.765552,-0.232228,0.705537,-0.377117,0.618408,-0.507515,0.507515,-0.618408,0.377117,-0.705537,0.232228,-0.765552,0.078414,-0.796148,0.000000,-0.796148,0.000000,-0.800000,-0.600000,-0.800000,
-0.603843,-0.796157,-0.639018,-0.796157,-0.711114,-0.766294,-0.766294,-0.711114,-0.796157,-0.639018,-0.796157,-0.603843,-0.800000,-0.600000,-0.800000,0.600000,-0.796157,0.603843,-0.796157,0.639018,-0.766294,0.711114,-0.711114,0.766294,-0.639018,0.796157,-0.603843,0.796157,-0.600000,0.800000,0.000000,0.800000,0.000000,0.796148,0.000000,0.796148,$1*%
G04 Aperture macros list end*
%ADD10C,4.500000*%
%ADD11R,2.000000X2.000000*%
%ADD12C,2.000000*%
%ADD13C,2.200000*%
%ADD14C,1.850000*%
%ADD15RoundRect,0.200000X0.600000X0.600000X-0.600000X0.600000X-0.600000X-0.600000X0.600000X-0.600000X0*%
%ADD16C,1.600000*%
%ADD17FreePoly0,180.000000*%
%ADD18FreePoly1,180.000000*%
G04 APERTURE END LIST*
D10*
%TO.C,H2*%
X136000000Y-95000000D03*
%TD*%
D11*
%TO.C,J2*%
X181738000Y-48500000D03*
D12*
X184278000Y-48500000D03*
%TD*%
D10*
%TO.C,H1*%
X136000000Y-49500000D03*
%TD*%
D13*
%TO.C,A2*%
X213225000Y-98000000D03*
D14*
X212925000Y-94970000D03*
X208075000Y-94970000D03*
D13*
X207775000Y-98000000D03*
D15*
X219390000Y-98130000D03*
D16*
X219390000Y-95590000D03*
D17*
X219390000Y-93050000D03*
D16*
X219390000Y-90510000D03*
X219390000Y-87970000D03*
X219390000Y-85430000D03*
X219390000Y-82890000D03*
D17*
X219390000Y-80350000D03*
D16*
X219390000Y-77810000D03*
X219390000Y-75270000D03*
X219390000Y-72730000D03*
X219390000Y-70190000D03*
D17*
X219390000Y-67650000D03*
D16*
X219390000Y-65110000D03*
X219390000Y-62570000D03*
X219390000Y-60030000D03*
X219390000Y-57490000D03*
D17*
X219390000Y-54950000D03*
D16*
X219390000Y-52410000D03*
X219390000Y-49870000D03*
X201610000Y-49870000D03*
X201610000Y-52410000D03*
D18*
X201610000Y-54950000D03*
D16*
X201610000Y-57490000D03*
X201610000Y-60030000D03*
X201610000Y-62570000D03*
X201610000Y-65110000D03*
D18*
X201610000Y-67650000D03*
D16*
X201610000Y-70190000D03*
X201610000Y-72730000D03*
X201610000Y-75270000D03*
X201610000Y-77810000D03*
D18*
X201610000Y-80350000D03*
D16*
X201610000Y-82890000D03*
X201610000Y-85430000D03*
X201610000Y-87970000D03*
X201610000Y-90510000D03*
D18*
X201610000Y-93050000D03*
D16*
X201610000Y-95590000D03*
X201610000Y-98130000D03*
%TD*%
M02*
