M48
; DRILL file {KiCad 9.0.6} date 2026-01-24T13:37:30-0500
; FORMAT={-:-/ absolute / metric / decimal}
; #@! TF.CreationDate,2026-01-24T13:37:30-05:00
; #@! TF.GenerationSoftware,Kicad,Pcbnew,9.0.6
; #@! TF.FileFunction,Plated,1,2,PTH
FMAT,2
METRIC
; #@! TA.AperFunction,Plated,PTH,ViaDrill
T1C0.300
; #@! TA.AperFunction,Plated,PTH,ComponentDrill
T2C0.991
; #@! TA.AperFunction,Plated,PTH,ComponentDrill
T3C1.000
; #@! TA.AperFunction,Plated,PTH,ComponentDrill
T4C1.100
%
G90
G05
T1
X150.5Y-122.5
X174.5Y-100.5
X175.0Y-102.0
X176.5Y-100.5
X176.5Y-106.5
X177.5Y-106.5
X178.5Y-89.0
X179.0Y-80.0
X179.0Y-115.5
X179.5Y-96.0
X181.0Y-89.0
X181.5Y-98.0
X182.5Y-101.0
X182.5Y-104.0
X182.5Y-105.5
X184.0Y-122.0
X187.0Y-76.95
X188.575Y-102.925
X190.0Y-99.0
X191.0Y-77.0
X191.0Y-106.0
X193.0Y-121.5
X194.0Y-127.5
X196.5Y-85.5
X201.0Y-114.0
X201.0Y-117.0
X201.0Y-120.5
X201.0Y-124.0
X201.0Y-128.0
X212.762Y-76.0
T2
X196.261Y-75.25
X196.261Y-81.75
X200.761Y-75.25
X200.761Y-81.75
T3
X153.5Y-79.06
X153.5Y-81.6
X153.5Y-84.14
X153.5Y-86.68
X153.5Y-89.22
X153.5Y-91.76
X153.5Y-94.3
X153.5Y-96.84
X153.5Y-99.38
X153.5Y-101.92
X153.5Y-104.46
X153.5Y-107.0
X153.5Y-109.54
X153.5Y-112.08
X153.5Y-114.62
X153.5Y-117.16
X153.5Y-119.7
X153.5Y-122.24
X153.5Y-124.78
X153.5Y-127.32
X171.28Y-79.06
X171.28Y-81.6
X171.28Y-84.14
X171.28Y-86.68
X171.28Y-89.22
X171.28Y-91.76
X171.28Y-94.3
X171.28Y-96.84
X171.28Y-99.38
X171.28Y-101.92
X171.28Y-104.46
X171.28Y-107.0
X171.28Y-109.54
X171.28Y-112.08
X171.28Y-114.62
X171.28Y-117.16
X171.28Y-119.7
X171.28Y-122.24
X171.28Y-124.78
X171.28Y-127.32
T4
X216.5Y-78.0
X219.04Y-78.0
M30
