%TF.GenerationSoftware,KiCad,Pcbnew,9.0.7*%
%TF.CreationDate,2026-02-07T14:22:02-05:00*%
%TF.ProjectId,witharduinoandnewcomps,77697468-6172-4647-9569-6e6f616e646e,rev?*%
%TF.SameCoordinates,Original*%
%TF.FileFunction,Copper,L1,Top*%
%TF.FilePolarity,Positive*%
%FSLAX46Y46*%
G04 Gerber Fmt 4.6, Leading zero omitted, Abs format (unit mm)*
G04 Created by KiCad (PCBNEW 9.0.7) date 2026-02-07 14:22:02*
%MOMM*%
%LPD*%
G01*
G04 APERTURE LIST*
G04 Aperture macros list*
%AMRoundRect*
0 Rectangle with rounded corners*
0 $1 Rounding radius*
0 $2 $3 $4 $5 $6 $7 $8 $9 X,Y pos of 4 corners*
0 Add a 4 corners polygon primitive as box body*
4,1,4,$2,$3,$4,$5,$6,$7,$8,$9,$2,$3,0*
0 Add four circle primitives for the rounded corners*
1,1,$1+$1,$2,$3*
1,1,$1+$1,$4,$5*
1,1,$1+$1,$6,$7*
1,1,$1+$1,$8,$9*
0 Add four rect primitives between the rounded corners*
20,1,$1+$1,$2,$3,$4,$5,0*
20,1,$1+$1,$4,$5,$6,$7,0*
20,1,$1+$1,$6,$7,$8,$9,0*
20,1,$1+$1,$8,$9,$2,$3,0*%
%AMFreePoly0*
4,1,37,0.800000,0.796148,0.878414,0.796148,1.032228,0.765552,1.177117,0.705537,1.307515,0.618408,1.418408,0.507515,1.505537,0.377117,1.565552,0.232228,1.596148,0.078414,1.596148,-0.078414,1.565552,-0.232228,1.505537,-0.377117,1.418408,-0.507515,1.307515,-0.618408,1.177117,-0.705537,1.032228,-0.765552,0.878414,-0.796148,0.800000,-0.796148,0.800000,-0.800000,-1.400000,-0.800000,
-1.403843,-0.796157,-1.439018,-0.796157,-1.511114,-0.766294,-1.566294,-0.711114,-1.596157,-0.639018,-1.596157,-0.603843,-1.600000,-0.600000,-1.600000,0.600000,-1.596157,0.603843,-1.596157,0.639018,-1.566294,0.711114,-1.511114,0.766294,-1.439018,0.796157,-1.403843,0.796157,-1.400000,0.800000,0.800000,0.800000,0.800000,0.796148,0.800000,0.796148,$1*%
%AMFreePoly1*
4,1,37,1.403843,0.796157,1.439018,0.796157,1.511114,0.766294,1.566294,0.711114,1.596157,0.639018,1.596157,0.603843,1.600000,0.600000,1.600000,-0.600000,1.596157,-0.603843,1.596157,-0.639018,1.566294,-0.711114,1.511114,-0.766294,1.439018,-0.796157,1.403843,-0.796157,1.400000,-0.800000,-0.800000,-0.800000,-0.800000,-0.796148,-0.878414,-0.796148,-1.032228,-0.765552,-1.177117,-0.705537,
-1.307515,-0.618408,-1.418408,-0.507515,-1.505537,-0.377117,-1.565552,-0.232228,-1.596148,-0.078414,-1.596148,0.078414,-1.565552,0.232228,-1.505537,0.377117,-1.418408,0.507515,-1.307515,0.618408,-1.177117,0.705537,-1.032228,0.765552,-0.878414,0.796148,-0.800000,0.796148,-0.800000,0.800000,1.400000,0.800000,1.403843,0.796157,1.403843,0.796157,$1*%
%AMFreePoly2*
4,1,37,0.603843,0.796157,0.639018,0.796157,0.711114,0.766294,0.766294,0.711114,0.796157,0.639018,0.796157,0.603843,0.800000,0.600000,0.800000,-0.600000,0.796157,-0.603843,0.796157,-0.639018,0.766294,-0.711114,0.711114,-0.766294,0.639018,-0.796157,0.603843,-0.796157,0.600000,-0.800000,0.000000,-0.800000,0.000000,-0.796148,-0.078414,-0.796148,-0.232228,-0.765552,-0.377117,-0.705537,
-0.507515,-0.618408,-0.618408,-0.507515,-0.705537,-0.377117,-0.765552,-0.232228,-0.796148,-0.078414,-0.796148,0.078414,-0.765552,0.232228,-0.705537,0.377117,-0.618408,0.507515,-0.507515,0.618408,-0.377117,0.705537,-0.232228,0.765552,-0.078414,0.796148,0.000000,0.796148,0.000000,0.800000,0.600000,0.800000,0.603843,0.796157,0.603843,0.796157,$1*%
%AMFreePoly3*
4,1,37,0.000000,0.796148,0.078414,0.796148,0.232228,0.765552,0.377117,0.705537,0.507515,0.618408,0.618408,0.507515,0.705537,0.377117,0.765552,0.232228,0.796148,0.078414,0.796148,-0.078414,0.765552,-0.232228,0.705537,-0.377117,0.618408,-0.507515,0.507515,-0.618408,0.377117,-0.705537,0.232228,-0.765552,0.078414,-0.796148,0.000000,-0.796148,0.000000,-0.800000,-0.600000,-0.800000,
-0.603843,-0.796157,-0.639018,-0.796157,-0.711114,-0.766294,-0.766294,-0.711114,-0.796157,-0.639018,-0.796157,-0.603843,-0.800000,-0.600000,-0.800000,0.600000,-0.796157,0.603843,-0.796157,0.639018,-0.766294,0.711114,-0.711114,0.766294,-0.639018,0.796157,-0.603843,0.796157,-0.600000,0.800000,0.000000,0.800000,0.000000,0.796148,0.000000,0.796148,$1*%
G04 Aperture macros list end*
%TA.AperFunction,SMDPad,CuDef*%
%ADD10R,0.630000X0.450000*%
%TD*%
%TA.AperFunction,SMDPad,CuDef*%
%ADD11R,1.700000X2.600000*%
%TD*%
%TA.AperFunction,SMDPad,CuDef*%
%ADD12R,0.300000X0.800000*%
%TD*%
%TA.AperFunction,SMDPad,CuDef*%
%ADD13R,0.400000X0.800000*%
%TD*%
%TA.AperFunction,SMDPad,CuDef*%
%ADD14RoundRect,0.250000X-0.250000X-0.475000X0.250000X-0.475000X0.250000X0.475000X-0.250000X0.475000X0*%
%TD*%
%TA.AperFunction,SMDPad,CuDef*%
%ADD15RoundRect,0.250000X0.250000X0.475000X-0.250000X0.475000X-0.250000X-0.475000X0.250000X-0.475000X0*%
%TD*%
%TA.AperFunction,SMDPad,CuDef*%
%ADD16RoundRect,0.250000X-0.362500X-1.425000X0.362500X-1.425000X0.362500X1.425000X-0.362500X1.425000X0*%
%TD*%
%TA.AperFunction,SMDPad,CuDef*%
%ADD17FreePoly0,90.000000*%
%TD*%
%TA.AperFunction,ComponentPad*%
%ADD18RoundRect,0.200000X0.600000X-0.600000X0.600000X0.600000X-0.600000X0.600000X-0.600000X-0.600000X0*%
%TD*%
%TA.AperFunction,SMDPad,CuDef*%
%ADD19RoundRect,0.800000X0.000010X-0.800000X0.000010X0.800000X-0.000010X0.800000X-0.000010X-0.800000X0*%
%TD*%
%TA.AperFunction,ComponentPad*%
%ADD20C,1.600000*%
%TD*%
%TA.AperFunction,SMDPad,CuDef*%
%ADD21FreePoly1,90.000000*%
%TD*%
%TA.AperFunction,ComponentPad*%
%ADD22FreePoly2,90.000000*%
%TD*%
%TA.AperFunction,ComponentPad*%
%ADD23FreePoly3,90.000000*%
%TD*%
%TA.AperFunction,SMDPad,CuDef*%
%ADD24RoundRect,0.150000X-0.150000X0.587500X-0.150000X-0.587500X0.150000X-0.587500X0.150000X0.587500X0*%
%TD*%
%TA.AperFunction,SMDPad,CuDef*%
%ADD25R,1.574800X1.397000*%
%TD*%
%TA.AperFunction,SMDPad,CuDef*%
%ADD26RoundRect,0.250000X-0.475000X0.250000X-0.475000X-0.250000X0.475000X-0.250000X0.475000X0.250000X0*%
%TD*%
%TA.AperFunction,SMDPad,CuDef*%
%ADD27RoundRect,0.200000X-0.200000X-0.275000X0.200000X-0.275000X0.200000X0.275000X-0.200000X0.275000X0*%
%TD*%
%TA.AperFunction,SMDPad,CuDef*%
%ADD28RoundRect,0.200000X0.200000X0.275000X-0.200000X0.275000X-0.200000X-0.275000X0.200000X-0.275000X0*%
%TD*%
%TA.AperFunction,SMDPad,CuDef*%
%ADD29R,1.200000X1.200000*%
%TD*%
%TA.AperFunction,SMDPad,CuDef*%
%ADD30RoundRect,0.150000X-0.587500X-0.150000X0.587500X-0.150000X0.587500X0.150000X-0.587500X0.150000X0*%
%TD*%
%TA.AperFunction,ComponentPad*%
%ADD31R,1.498600X1.498600*%
%TD*%
%TA.AperFunction,ComponentPad*%
%ADD32C,1.498600*%
%TD*%
%TA.AperFunction,SMDPad,CuDef*%
%ADD33RoundRect,0.225000X-0.225000X-0.250000X0.225000X-0.250000X0.225000X0.250000X-0.225000X0.250000X0*%
%TD*%
%TA.AperFunction,ComponentPad*%
%ADD34R,2.000000X2.000000*%
%TD*%
%TA.AperFunction,ComponentPad*%
%ADD35C,2.000000*%
%TD*%
%TA.AperFunction,ViaPad*%
%ADD36C,0.600000*%
%TD*%
%TA.AperFunction,Conductor*%
%ADD37C,0.200000*%
%TD*%
G04 APERTURE END LIST*
D10*
%TO.P,U1,1,GND*%
%TO.N,GND*%
X167235000Y-74416000D03*
%TO.P,U1,2,EN*%
%TO.N,Net-(U1-EN)*%
X167235000Y-75366000D03*
%TO.P,U1,3,Vin*%
X167235000Y-76316000D03*
%TO.P,U1,4,Vout*%
%TO.N,3.3v in power*%
X169915000Y-76316000D03*
%TO.P,U1,5,Vsense*%
X169915000Y-75366000D03*
%TO.P,U1,6,NC*%
%TO.N,unconnected-(U1-NC-Pad6)*%
X169915000Y-74416000D03*
D11*
%TO.P,U1,7,GND*%
%TO.N,GND*%
X168575000Y-75366000D03*
%TD*%
D12*
%TO.P,J1,1,1*%
%TO.N,unconnected-(J1-Pad1)*%
X202500000Y-70000000D03*
%TO.P,J1,2,2*%
%TO.N,Net-(Q3-G)*%
X202000000Y-70000000D03*
%TO.P,J1,3,3*%
%TO.N,Net-(Q3-S)*%
X201500000Y-70000000D03*
%TO.P,J1,4,4*%
%TO.N,unconnected-(J1-Pad4)*%
X201000000Y-70000000D03*
%TO.P,J1,5,5*%
%TO.N,Net-(C8-Pad2)*%
X200500000Y-70000000D03*
%TO.P,J1,6,6*%
%TO.N,unconnected-(J1-Pad6)*%
X200000000Y-70000000D03*
%TO.P,J1,7,7*%
%TO.N,unconnected-(J1-Pad7)*%
X199500000Y-70000000D03*
%TO.P,J1,8,8*%
%TO.N,BS*%
X199000000Y-70000000D03*
%TO.P,J1,9,9*%
%TO.N,panelBusy*%
X198500000Y-70000000D03*
%TO.P,J1,10,10*%
%TO.N,panelReset*%
X198000000Y-70000000D03*
%TO.P,J1,11,11*%
%TO.N,panelDC*%
X197500000Y-70000000D03*
%TO.P,J1,12,12*%
%TO.N,unconnected-(J1-Pad12)*%
X197000000Y-70000000D03*
%TO.P,J1,13,13*%
%TO.N,SCL*%
X196500000Y-70000000D03*
%TO.P,J1,14,14*%
%TO.N,SDA*%
X196000000Y-70000000D03*
%TO.P,J1,15,15*%
%TO.N,Net-(Q1-S)*%
X195500000Y-70000000D03*
%TO.P,J1,16,16*%
X195000000Y-70000000D03*
%TO.P,J1,17,17*%
%TO.N,GND*%
X194500000Y-70000000D03*
%TO.P,J1,18,18*%
%TO.N,Net-(C1-Pad2)*%
X194000000Y-70000000D03*
%TO.P,J1,19,19*%
%TO.N,unconnected-(J1-Pad19)*%
X193500000Y-70000000D03*
%TO.P,J1,20,20*%
%TO.N,Net-(C4-Pad2)*%
X193000000Y-70000000D03*
%TO.P,J1,21,21*%
%TO.N,Net-(C5-Pad2)*%
X192500000Y-70000000D03*
%TO.P,J1,22,22*%
%TO.N,Net-(C3-Pad2)*%
X192000000Y-70000000D03*
%TO.P,J1,23,23*%
%TO.N,Net-(C6-Pad2)*%
X191500000Y-70000000D03*
%TO.P,J1,24,24*%
%TO.N,Net-(C2-Pad2)*%
X191000000Y-70000000D03*
D13*
%TO.P,J1,S1,SHIELD*%
%TO.N,GND*%
X190000000Y-72500000D03*
%TO.P,J1,S2,SHIELD__1*%
X203500000Y-72500000D03*
%TD*%
D14*
%TO.P,C11,1*%
%TO.N,GND*%
X169600000Y-96500000D03*
%TO.P,C11,2*%
%TO.N,Net-(Q1-G)*%
X171500000Y-96500000D03*
%TD*%
D15*
%TO.P,C7,1*%
%TO.N,GND*%
X169000000Y-86500000D03*
%TO.P,C7,2*%
%TO.N,Net-(Q1-S)*%
X167100000Y-86500000D03*
%TD*%
D16*
%TO.P,R1,1*%
%TO.N,GND*%
X208575000Y-78000000D03*
%TO.P,R1,2*%
%TO.N,Net-(Q3-S)*%
X214500000Y-78000000D03*
%TD*%
D17*
%TO.P,A1,1,GPIO0*%
%TO.N,unconnected-(A1-GPIO0-Pad1)*%
X170220000Y-66080000D03*
D18*
%TO.N,unconnected-(A1-GPIO0-Pad1)_1*%
X170220000Y-65280000D03*
D19*
%TO.P,A1,2,GPIO1*%
%TO.N,unconnected-(A1-GPIO1-Pad2)_1*%
X172760000Y-66080000D03*
D20*
%TO.N,unconnected-(A1-GPIO1-Pad2)*%
X172760000Y-65280000D03*
D21*
%TO.P,A1,3,GND*%
%TO.N,GND*%
X175300000Y-66080000D03*
D22*
X175300000Y-65280000D03*
D19*
%TO.P,A1,4,GPIO2*%
%TO.N,SCL*%
X177840000Y-66080000D03*
D20*
X177840000Y-65280000D03*
D19*
%TO.P,A1,5,GPIO3*%
%TO.N,SDA*%
X180380000Y-66080000D03*
D20*
X180380000Y-65280000D03*
D19*
%TO.P,A1,6,GPIO4*%
%TO.N,unconnected-(A1-GPIO4-Pad6)_1*%
X182920000Y-66080000D03*
D20*
%TO.N,unconnected-(A1-GPIO4-Pad6)*%
X182920000Y-65280000D03*
D19*
%TO.P,A1,7,GPIO5*%
%TO.N,unconnected-(A1-GPIO5-Pad7)*%
X185460000Y-66080000D03*
D20*
%TO.N,unconnected-(A1-GPIO5-Pad7)_1*%
X185460000Y-65280000D03*
D21*
%TO.P,A1,8,GND*%
%TO.N,GND*%
X188000000Y-66080000D03*
D22*
X188000000Y-65280000D03*
D19*
%TO.P,A1,9,GPIO6*%
%TO.N,unconnected-(A1-GPIO6-Pad9)_1*%
X190540000Y-66080000D03*
D20*
%TO.N,unconnected-(A1-GPIO6-Pad9)*%
X190540000Y-65280000D03*
D19*
%TO.P,A1,10,GPIO7*%
%TO.N,BS*%
X193080000Y-66080000D03*
D20*
X193080000Y-65280000D03*
D19*
%TO.P,A1,11,GPIO8*%
%TO.N,unconnected-(A1-GPIO8-Pad11)*%
X195620000Y-66080000D03*
D20*
%TO.N,unconnected-(A1-GPIO8-Pad11)_1*%
X195620000Y-65280000D03*
D19*
%TO.P,A1,12,GPIO9*%
%TO.N,unconnected-(A1-GPIO9-Pad12)*%
X198160000Y-66080000D03*
D20*
%TO.N,unconnected-(A1-GPIO9-Pad12)_1*%
X198160000Y-65280000D03*
D21*
%TO.P,A1,13,GND*%
%TO.N,GND*%
X200700000Y-66080000D03*
D22*
X200700000Y-65280000D03*
D19*
%TO.P,A1,14,GPIO10*%
%TO.N,unconnected-(A1-GPIO10-Pad14)_1*%
X203240000Y-66080000D03*
D20*
%TO.N,unconnected-(A1-GPIO10-Pad14)*%
X203240000Y-65280000D03*
D19*
%TO.P,A1,15,GPIO11*%
%TO.N,panelReset*%
X205780000Y-66080000D03*
D20*
X205780000Y-65280000D03*
D19*
%TO.P,A1,16,GPIO12*%
%TO.N,unconnected-(A1-GPIO12-Pad16)*%
X208320000Y-66080000D03*
D20*
%TO.N,unconnected-(A1-GPIO12-Pad16)_1*%
X208320000Y-65280000D03*
D19*
%TO.P,A1,17,GPIO13*%
%TO.N,panelBusy*%
X210860000Y-66080000D03*
D20*
X210860000Y-65280000D03*
D21*
%TO.P,A1,18,GND*%
%TO.N,GND*%
X213400000Y-66080000D03*
D22*
X213400000Y-65280000D03*
D19*
%TO.P,A1,19,GPIO14*%
%TO.N,unconnected-(A1-GPIO14-Pad19)_1*%
X215940000Y-66080000D03*
D20*
%TO.N,unconnected-(A1-GPIO14-Pad19)*%
X215940000Y-65280000D03*
D19*
%TO.P,A1,20,GPIO15*%
%TO.N,unconnected-(A1-GPIO15-Pad20)*%
X218480000Y-66080000D03*
D20*
%TO.N,unconnected-(A1-GPIO15-Pad20)_1*%
X218480000Y-65280000D03*
%TO.P,A1,21,GPIO16*%
%TO.N,unconnected-(A1-GPIO16-Pad21)*%
X218480000Y-47500000D03*
D19*
%TO.N,unconnected-(A1-GPIO16-Pad21)_1*%
X218480000Y-46700000D03*
D20*
%TO.P,A1,22,GPIO17*%
%TO.N,panelDC*%
X215940000Y-47500000D03*
D19*
X215940000Y-46700000D03*
D23*
%TO.P,A1,23,GND*%
%TO.N,GND*%
X213400000Y-47500000D03*
D17*
X213400000Y-46700000D03*
D20*
%TO.P,A1,24,GPIO18*%
%TO.N,unconnected-(A1-GPIO18-Pad24)*%
X210860000Y-47500000D03*
D19*
%TO.N,unconnected-(A1-GPIO18-Pad24)_1*%
X210860000Y-46700000D03*
D20*
%TO.P,A1,25,GPIO19*%
%TO.N,unconnected-(A1-GPIO19-Pad25)*%
X208320000Y-47500000D03*
D19*
%TO.N,unconnected-(A1-GPIO19-Pad25)_1*%
X208320000Y-46700000D03*
D20*
%TO.P,A1,26,GPIO20*%
%TO.N,unconnected-(A1-GPIO20-Pad26)_1*%
X205780000Y-47500000D03*
D19*
%TO.N,unconnected-(A1-GPIO20-Pad26)*%
X205780000Y-46700000D03*
D20*
%TO.P,A1,27,GPIO21*%
%TO.N,unconnected-(A1-GPIO21-Pad27)*%
X203240000Y-47500000D03*
D19*
%TO.N,unconnected-(A1-GPIO21-Pad27)_1*%
X203240000Y-46700000D03*
D23*
%TO.P,A1,28,GND*%
%TO.N,GND*%
X200700000Y-47500000D03*
D17*
X200700000Y-46700000D03*
D20*
%TO.P,A1,29,GPIO22*%
%TO.N,unconnected-(A1-GPIO22-Pad29)_1*%
X198160000Y-47500000D03*
D19*
%TO.N,unconnected-(A1-GPIO22-Pad29)*%
X198160000Y-46700000D03*
D20*
%TO.P,A1,30,RUN*%
%TO.N,unconnected-(A1-RUN-Pad30)_1*%
X195620000Y-47500000D03*
D19*
%TO.N,unconnected-(A1-RUN-Pad30)*%
X195620000Y-46700000D03*
D20*
%TO.P,A1,31,GPIO26_ADC0*%
%TO.N,Net-(A1-GPIO26_ADC0)*%
X193080000Y-47500000D03*
D19*
X193080000Y-46700000D03*
D20*
%TO.P,A1,32,GPIO27_ADC1*%
%TO.N,unconnected-(A1-GPIO27_ADC1-Pad32)*%
X190540000Y-47500000D03*
D19*
%TO.N,unconnected-(A1-GPIO27_ADC1-Pad32)_1*%
X190540000Y-46700000D03*
D23*
%TO.P,A1,33,AGND*%
%TO.N,unconnected-(A1-AGND-Pad33)_1*%
X188000000Y-47500000D03*
D17*
%TO.N,unconnected-(A1-AGND-Pad33)*%
X188000000Y-46700000D03*
D20*
%TO.P,A1,34,GPIO28_ADC2*%
%TO.N,unconnected-(A1-GPIO28_ADC2-Pad34)*%
X185460000Y-47500000D03*
D19*
%TO.N,unconnected-(A1-GPIO28_ADC2-Pad34)_1*%
X185460000Y-46700000D03*
D20*
%TO.P,A1,35,ADC_VREF*%
%TO.N,unconnected-(A1-ADC_VREF-Pad35)*%
X182920000Y-47500000D03*
D19*
%TO.N,unconnected-(A1-ADC_VREF-Pad35)_1*%
X182920000Y-46700000D03*
D20*
%TO.P,A1,36,3V3*%
%TO.N,unconnected-(A1-3V3-Pad36)*%
X180380000Y-47500000D03*
D19*
%TO.N,unconnected-(A1-3V3-Pad36)_1*%
X180380000Y-46700000D03*
D20*
%TO.P,A1,37,3V3_EN*%
%TO.N,unconnected-(A1-3V3_EN-Pad37)*%
X177840000Y-47500000D03*
D19*
%TO.N,unconnected-(A1-3V3_EN-Pad37)_1*%
X177840000Y-46700000D03*
D23*
%TO.P,A1,38,GND*%
%TO.N,GND*%
X175300000Y-47500000D03*
D17*
X175300000Y-46700000D03*
D20*
%TO.P,A1,39,VSYS*%
%TO.N,3.3v in power*%
X172760000Y-47500000D03*
D19*
X172760000Y-46700000D03*
D20*
%TO.P,A1,40,VBUS*%
%TO.N,unconnected-(A1-VBUS-Pad40)*%
X170220000Y-47500000D03*
D19*
%TO.N,unconnected-(A1-VBUS-Pad40)_1*%
X170220000Y-46700000D03*
%TD*%
D24*
%TO.P,Q1,1,G*%
%TO.N,Net-(Q1-G)*%
X168000000Y-90000000D03*
%TO.P,Q1,2,S*%
%TO.N,Net-(Q1-S)*%
X166100000Y-90000000D03*
%TO.P,Q1,3,D*%
%TO.N,3.3v in power*%
X167050000Y-91875000D03*
%TD*%
D15*
%TO.P,C5,1*%
%TO.N,GND*%
X180500000Y-79000000D03*
%TO.P,C5,2*%
%TO.N,Net-(C5-Pad2)*%
X178600000Y-79000000D03*
%TD*%
D25*
%TO.P,SRP3012TA-100M1,1,1*%
%TO.N,Net-(Q1-S)*%
X167000000Y-81500000D03*
%TO.P,SRP3012TA-100M1,2,2*%
%TO.N,Net-(Q3-D)*%
X169438400Y-81500000D03*
%TD*%
D26*
%TO.P,C3,1*%
%TO.N,GND*%
X170500000Y-69550000D03*
%TO.P,C3,2*%
%TO.N,Net-(C3-Pad2)*%
X170500000Y-71450000D03*
%TD*%
D27*
%TO.P,R3,1*%
%TO.N,Net-(A1-GPIO26_ADC0)*%
X196850000Y-43000000D03*
%TO.P,R3,2*%
%TO.N,GND*%
X198500000Y-43000000D03*
%TD*%
%TO.P,R2,1*%
%TO.N,3.3v in power*%
X170350000Y-90500000D03*
%TO.P,R2,2*%
%TO.N,Net-(Q1-G)*%
X172000000Y-90500000D03*
%TD*%
D28*
%TO.P,R4,1*%
%TO.N,+12V*%
X207500000Y-43000000D03*
%TO.P,R4,2*%
%TO.N,Net-(A1-GPIO26_ADC0)*%
X205850000Y-43000000D03*
%TD*%
D29*
%TO.P,CR4,1*%
%TO.N,Net-(C14-Pad2)*%
X176000000Y-100000000D03*
%TO.P,CR4,2*%
%TO.N,Net-(C6-Pad2)*%
X176000000Y-97200000D03*
%TD*%
D30*
%TO.P,Q3,1,G*%
%TO.N,Net-(Q3-G)*%
X207125000Y-70050000D03*
%TO.P,Q3,2,S*%
%TO.N,Net-(Q3-S)*%
X207125000Y-71950000D03*
%TO.P,Q3,3,D*%
%TO.N,Net-(Q3-D)*%
X209000000Y-71000000D03*
%TD*%
D15*
%TO.P,C12,1*%
%TO.N,Net-(U1-EN)*%
X222000000Y-90550000D03*
%TO.P,C12,2*%
%TO.N,GND*%
X220100000Y-90550000D03*
%TD*%
D29*
%TO.P,CR1,1*%
%TO.N,Net-(C5-Pad2)*%
X175300000Y-79500000D03*
%TO.P,CR1,2*%
%TO.N,Net-(Q3-D)*%
X172500000Y-79500000D03*
%TD*%
D26*
%TO.P,C1,1*%
%TO.N,GND*%
X180000000Y-69550000D03*
%TO.P,C1,2*%
%TO.N,Net-(C1-Pad2)*%
X180000000Y-71450000D03*
%TD*%
%TO.P,C8,1*%
%TO.N,GND*%
X185000000Y-69550000D03*
%TO.P,C8,2*%
%TO.N,Net-(C8-Pad2)*%
X185000000Y-71450000D03*
%TD*%
%TO.P,C4,1*%
%TO.N,GND*%
X174950000Y-69550000D03*
%TO.P,C4,2*%
%TO.N,Net-(C4-Pad2)*%
X174950000Y-71450000D03*
%TD*%
D29*
%TO.P,CR2,1*%
%TO.N,GND*%
X166100000Y-103000000D03*
%TO.P,CR2,2*%
%TO.N,Net-(C14-Pad2)*%
X168900000Y-103000000D03*
%TD*%
D26*
%TO.P,C6,1*%
%TO.N,GND*%
X176000000Y-91000000D03*
%TO.P,C6,2*%
%TO.N,Net-(C6-Pad2)*%
X176000000Y-92900000D03*
%TD*%
D15*
%TO.P,C14,1*%
%TO.N,Net-(Q3-D)*%
X173500000Y-103000000D03*
%TO.P,C14,2*%
%TO.N,Net-(C14-Pad2)*%
X171600000Y-103000000D03*
%TD*%
%TO.P,C13,1*%
%TO.N,3.3v in power*%
X213500000Y-90500000D03*
%TO.P,C13,2*%
%TO.N,GND*%
X211600000Y-90500000D03*
%TD*%
D26*
%TO.P,C2,1*%
%TO.N,GND*%
X166050000Y-69550000D03*
%TO.P,C2,2*%
%TO.N,Net-(C2-Pad2)*%
X166050000Y-71450000D03*
%TD*%
D31*
%TO.P,SW1,1,1*%
%TO.N,+12V*%
X215749999Y-81760599D03*
D32*
%TO.P,SW1,2,2*%
%TO.N,Net-(U1-EN)*%
X222250000Y-81760599D03*
%TO.P,SW1,3*%
%TO.N,N/C*%
X215749999Y-86260600D03*
%TO.P,SW1,4*%
X222250000Y-86260600D03*
%TD*%
D33*
%TO.P,C9,1*%
%TO.N,Net-(Q1-S)*%
X173950000Y-86500000D03*
%TO.P,C9,2*%
%TO.N,GND*%
X175500000Y-86500000D03*
%TD*%
D34*
%TO.P,J3,1,Pin_1*%
%TO.N,+12V*%
X218960000Y-73000000D03*
D35*
%TO.P,J3,2,Pin_2*%
%TO.N,GND*%
X221500000Y-73000000D03*
%TD*%
D36*
%TO.N,Net-(U1-EN)*%
X166000000Y-76000000D03*
%TO.N,GND*%
X166000000Y-74000000D03*
X168000000Y-72000000D03*
X190900000Y-70900141D03*
X194600000Y-71000000D03*
X222500000Y-71500000D03*
X177000000Y-84000000D03*
X178500000Y-68500000D03*
%TO.N,Net-(Q1-S)*%
X174500000Y-89000000D03*
X176500000Y-89000000D03*
X179000000Y-88000000D03*
X195101000Y-75399000D03*
%TO.N,GND*%
X189500000Y-73500000D03*
X188000000Y-73100000D03*
X187500000Y-71000000D03*
X187500000Y-69500000D03*
%TO.N,3.3v in power*%
X216000000Y-90926000D03*
X164500000Y-106000000D03*
%TO.N,Net-(Q3-S)*%
X214100000Y-81500000D03*
X207000000Y-74500000D03*
%TO.N,panelDC*%
X197000000Y-75500000D03*
X215940000Y-44060000D03*
%TO.N,Net-(Q3-D)*%
X175500000Y-103000000D03*
X172500000Y-83000000D03*
%TO.N,Net-(C5-Pad2)*%
X179000000Y-77100000D03*
X192400000Y-72700000D03*
%TO.N,Net-(C6-Pad2)*%
X177700000Y-93000000D03*
X191500000Y-72700000D03*
%TO.N,Net-(C8-Pad2)*%
X200500000Y-70900000D03*
X187000000Y-72500000D03*
%TO.N,GND*%
X201500000Y-72500000D03*
X204000000Y-63000000D03*
%TO.N,SCL*%
X196500000Y-71900000D03*
X177000000Y-68500000D03*
%TO.N,SDA*%
X187000000Y-68500000D03*
X184000000Y-68500000D03*
%TO.N,BS*%
X200500000Y-68586000D03*
X196500000Y-68500000D03*
%TO.N,Net-(U1-EN)*%
X219000000Y-78500000D03*
%TO.N,GND*%
X222500000Y-68500000D03*
X204500000Y-78000000D03*
X203500000Y-75000000D03*
%TO.N,Net-(Q3-S)*%
X205000000Y-69500000D03*
X205000000Y-72000000D03*
%TO.N,Net-(C1-Pad2)*%
X177500000Y-75000000D03*
X178500000Y-71500000D03*
%TO.N,Net-(C4-Pad2)*%
X174500000Y-74000000D03*
X177000000Y-71500000D03*
%TO.N,Net-(Q1-G)*%
X172000000Y-93000000D03*
X172474265Y-94474265D03*
%TO.N,GND*%
X215500000Y-69500000D03*
%TD*%
D37*
%TO.N,GND*%
X180500000Y-80500000D02*
X180500000Y-79000000D01*
X177000000Y-84000000D02*
X180500000Y-80500000D01*
X215500000Y-68180000D02*
X213400000Y-66080000D01*
X215500000Y-69500000D02*
X215500000Y-68180000D01*
X213400000Y-73175000D02*
X213400000Y-66080000D01*
X208575000Y-78000000D02*
X213400000Y-73175000D01*
%TO.N,Net-(U1-EN)*%
X166634000Y-75366000D02*
X166000000Y-76000000D01*
X167235000Y-75366000D02*
X166634000Y-75366000D01*
%TO.N,3.3v in power*%
X169915000Y-76585000D02*
X167500000Y-79000000D01*
X167500000Y-79000000D02*
X165000000Y-79000000D01*
X169915000Y-76316000D02*
X169915000Y-76585000D01*
X165000000Y-54460000D02*
X165000000Y-79000000D01*
X169915000Y-75366000D02*
X169915000Y-76316000D01*
%TO.N,Net-(U1-EN)*%
X167235000Y-75366000D02*
X167235000Y-76316000D01*
%TO.N,GND*%
X167625000Y-74416000D02*
X168575000Y-75366000D01*
X167235000Y-74416000D02*
X167625000Y-74416000D01*
X166819000Y-74000000D02*
X167235000Y-74416000D01*
X166000000Y-74000000D02*
X166819000Y-74000000D01*
X168000000Y-71500000D02*
X168000000Y-72000000D01*
X166050000Y-69550000D02*
X168000000Y-71500000D01*
%TO.N,Net-(Q3-D)*%
X170500000Y-81500000D02*
X172500000Y-79500000D01*
X169438400Y-81500000D02*
X170500000Y-81500000D01*
%TO.N,Net-(Q1-S)*%
X167000000Y-86400000D02*
X167100000Y-86500000D01*
X167000000Y-81500000D02*
X167000000Y-86400000D01*
%TO.N,GND*%
X175300000Y-47500000D02*
X175300000Y-65280000D01*
X190900000Y-71600000D02*
X190000000Y-72500000D01*
X190900000Y-70900141D02*
X190900000Y-71600000D01*
X194500000Y-70000000D02*
X194500000Y-71000000D01*
X194500000Y-71000000D02*
X194600000Y-71000000D01*
%TO.N,Net-(Q1-S)*%
X195101000Y-71899000D02*
X195101000Y-75399000D01*
X195500000Y-71500000D02*
X195101000Y-71899000D01*
X195500000Y-70500000D02*
X195500000Y-71500000D01*
X195000000Y-70000000D02*
X195500000Y-70500000D01*
%TO.N,Net-(C2-Pad2)*%
X189499000Y-71001000D02*
X190500000Y-70000000D01*
X190500000Y-70000000D02*
X191000000Y-70000000D01*
X188000000Y-74000000D02*
X189499000Y-72501000D01*
X189499000Y-72501000D02*
X189499000Y-71001000D01*
X167600000Y-73000000D02*
X183000000Y-73000000D01*
X184000000Y-74000000D02*
X188000000Y-74000000D01*
X166050000Y-71450000D02*
X167600000Y-73000000D01*
X183000000Y-73000000D02*
X184000000Y-74000000D01*
%TO.N,GND*%
X222500000Y-72000000D02*
X222500000Y-71500000D01*
X221500000Y-73000000D02*
X222500000Y-72000000D01*
X178950000Y-68500000D02*
X178500000Y-68500000D01*
X180000000Y-69550000D02*
X178950000Y-68500000D01*
%TO.N,Net-(Q1-S)*%
X173950000Y-88450000D02*
X173950000Y-86500000D01*
X174500000Y-89000000D02*
X173950000Y-88450000D01*
X177500000Y-88000000D02*
X176500000Y-89000000D01*
X179000000Y-88000000D02*
X177500000Y-88000000D01*
X195000000Y-75500000D02*
X195101000Y-75399000D01*
%TO.N,SCL*%
X196500000Y-71900000D02*
X196500000Y-70000000D01*
%TO.N,GND*%
X189500000Y-73500000D02*
X190000000Y-73000000D01*
X190000000Y-73000000D02*
X190000000Y-72500000D01*
X188000000Y-71500000D02*
X188000000Y-73100000D01*
X187500000Y-71000000D02*
X188000000Y-71500000D01*
%TO.N,Net-(C8-Pad2)*%
X187000000Y-72500000D02*
X187000000Y-72000000D01*
X187000000Y-72000000D02*
X186450000Y-71450000D01*
X186450000Y-71450000D02*
X185000000Y-71450000D01*
%TO.N,GND*%
X187450000Y-69550000D02*
X187500000Y-69500000D01*
X185000000Y-69550000D02*
X187450000Y-69550000D01*
%TO.N,Net-(Q1-S)*%
X195500000Y-70000000D02*
X195000000Y-70000000D01*
%TO.N,Net-(C4-Pad2)*%
X193000000Y-74500000D02*
X193000000Y-70000000D01*
X179349943Y-74000000D02*
X179849943Y-74500000D01*
X174500000Y-74000000D02*
X179349943Y-74000000D01*
X179849943Y-74500000D02*
X193000000Y-74500000D01*
%TO.N,Net-(C1-Pad2)*%
X194000000Y-72350057D02*
X194000000Y-70000000D01*
X193899000Y-72451057D02*
X194000000Y-72350057D01*
X193899000Y-72948943D02*
X193899000Y-72451057D01*
X194000000Y-73049943D02*
X193899000Y-72948943D01*
X180000000Y-75500000D02*
X193000000Y-75500000D01*
X179500000Y-75000000D02*
X180000000Y-75500000D01*
X193000000Y-75500000D02*
X194000000Y-74500000D01*
X194000000Y-74500000D02*
X194000000Y-73049943D01*
X177500000Y-75000000D02*
X179500000Y-75000000D01*
%TO.N,3.3v in power*%
X215574000Y-90500000D02*
X213500000Y-90500000D01*
X216000000Y-90926000D02*
X215574000Y-90500000D01*
X164500000Y-96350000D02*
X164500000Y-106000000D01*
X170350000Y-90500000D02*
X164500000Y-96350000D01*
%TO.N,Net-(Q3-S)*%
X214500000Y-81100000D02*
X214500000Y-78000000D01*
X214100000Y-81500000D02*
X214500000Y-81100000D01*
X207125000Y-74375000D02*
X207000000Y-74500000D01*
X207125000Y-71950000D02*
X207125000Y-74375000D01*
%TO.N,panelDC*%
X197500000Y-75000000D02*
X197500000Y-70000000D01*
X197000000Y-75500000D02*
X197500000Y-75000000D01*
X216000000Y-44000000D02*
X215940000Y-44060000D01*
X215940000Y-47500000D02*
X215940000Y-44060000D01*
%TO.N,GND*%
X201142960Y-47942960D02*
X200700000Y-47500000D01*
X200700000Y-65280000D02*
X201142960Y-64837040D01*
X201142960Y-64837040D02*
X201142960Y-47942960D01*
%TO.N,Net-(C5-Pad2)*%
X178600000Y-77500000D02*
X178600000Y-79000000D01*
X179000000Y-77100000D02*
X178600000Y-77500000D01*
%TO.N,Net-(Q3-D)*%
X175500000Y-103000000D02*
X173500000Y-103000000D01*
X172500000Y-79500000D02*
X172500000Y-83000000D01*
%TO.N,Net-(C5-Pad2)*%
X192500000Y-72600000D02*
X192400000Y-72700000D01*
X192500000Y-70000000D02*
X192500000Y-72600000D01*
%TO.N,Net-(C6-Pad2)*%
X176100000Y-93000000D02*
X176000000Y-92900000D01*
X177700000Y-93000000D02*
X176100000Y-93000000D01*
X191500000Y-70000000D02*
X191500000Y-72700000D01*
%TO.N,Net-(C8-Pad2)*%
X200500000Y-70900000D02*
X200500000Y-70000000D01*
%TO.N,panelReset*%
X198000000Y-71500000D02*
X198000000Y-70000000D01*
X204650057Y-71500000D02*
X198000000Y-71500000D01*
X204751057Y-71399000D02*
X204650057Y-71500000D01*
X205349943Y-71500000D02*
X205248943Y-71399000D01*
X206195532Y-71500000D02*
X205349943Y-71500000D01*
X206346532Y-71349000D02*
X206195532Y-71500000D01*
X205248943Y-71399000D02*
X204751057Y-71399000D01*
X207205468Y-71349000D02*
X206346532Y-71349000D01*
X208163500Y-70390968D02*
X207205468Y-71349000D01*
X211961000Y-67336050D02*
X208906082Y-70390968D01*
X211316050Y-64179000D02*
X211961000Y-64823950D01*
X207681000Y-64179000D02*
X211316050Y-64179000D01*
X205780000Y-66080000D02*
X207681000Y-64179000D01*
X208906082Y-70390968D02*
X208163500Y-70390968D01*
X211961000Y-64823950D02*
X211961000Y-67336050D01*
%TO.N,GND*%
X202601000Y-44799000D02*
X200700000Y-46700000D01*
X211499000Y-44799000D02*
X202601000Y-44799000D01*
X213400000Y-46700000D02*
X211499000Y-44799000D01*
%TO.N,3.3v in power*%
X165000000Y-90279468D02*
X166595532Y-91875000D01*
X165000000Y-79000000D02*
X165000000Y-90279468D01*
X172760000Y-46700000D02*
X165000000Y-54460000D01*
X166595532Y-91875000D02*
X167050000Y-91875000D01*
%TO.N,GND*%
X201500000Y-72500000D02*
X203500000Y-72500000D01*
X203780000Y-63000000D02*
X204000000Y-63000000D01*
X200700000Y-66080000D02*
X203780000Y-63000000D01*
%TO.N,SCL*%
X177000000Y-66920000D02*
X177000000Y-68500000D01*
X177840000Y-66080000D02*
X177000000Y-66920000D01*
%TO.N,SDA*%
X196000000Y-69348000D02*
X196000000Y-70000000D01*
X195951000Y-69299000D02*
X196000000Y-69348000D01*
X194633900Y-68500000D02*
X195432900Y-69299000D01*
X187000000Y-68500000D02*
X194633900Y-68500000D01*
X195432900Y-69299000D02*
X195951000Y-69299000D01*
X182800000Y-68500000D02*
X184000000Y-68500000D01*
X180380000Y-66080000D02*
X182800000Y-68500000D01*
%TO.N,BS*%
X199000000Y-69348000D02*
X199000000Y-70000000D01*
X199762000Y-68586000D02*
X199000000Y-69348000D01*
X200500000Y-68586000D02*
X199762000Y-68586000D01*
%TO.N,panelBusy*%
X198500000Y-68924000D02*
X198500000Y-70000000D01*
X199438000Y-67986000D02*
X198500000Y-68924000D01*
X208954000Y-67986000D02*
X199438000Y-67986000D01*
X210860000Y-66080000D02*
X208954000Y-67986000D01*
%TO.N,BS*%
X195500000Y-68500000D02*
X196500000Y-68500000D01*
X193080000Y-66080000D02*
X195500000Y-68500000D01*
%TO.N,GND*%
X189101000Y-64179000D02*
X188000000Y-65280000D01*
X199599000Y-64179000D02*
X189101000Y-64179000D01*
X200700000Y-65280000D02*
X199599000Y-64179000D01*
%TO.N,BS*%
X193080000Y-65280000D02*
X193080000Y-66411370D01*
%TO.N,GND*%
X185000000Y-69080000D02*
X185000000Y-69550000D01*
X188000000Y-66080000D02*
X185000000Y-69080000D01*
X175300000Y-69200000D02*
X174950000Y-69550000D01*
X175300000Y-65280000D02*
X175300000Y-69200000D01*
%TO.N,Net-(U1-EN)*%
X219000000Y-78510599D02*
X222250000Y-81760599D01*
X219000000Y-78500000D02*
X219000000Y-78510599D01*
%TO.N,GND*%
X221500000Y-69500000D02*
X222500000Y-68500000D01*
X221500000Y-73000000D02*
X221500000Y-69500000D01*
X204500000Y-78000000D02*
X208575000Y-78000000D01*
X203500000Y-72500000D02*
X203500000Y-75000000D01*
%TO.N,Net-(Q1-S)*%
X167561600Y-86038400D02*
X167100000Y-86500000D01*
%TO.N,GND*%
X180150058Y-79000000D02*
X175500000Y-83650058D01*
X180500000Y-79000000D02*
X180150058Y-79000000D01*
X175500000Y-83650058D02*
X175500000Y-86500000D01*
%TO.N,Net-(C5-Pad2)*%
X178100000Y-79500000D02*
X178600000Y-79000000D01*
X175300000Y-79500000D02*
X178100000Y-79500000D01*
%TO.N,Net-(Q3-S)*%
X201500000Y-69348000D02*
X201500000Y-70000000D01*
X201549000Y-69299000D02*
X201500000Y-69348000D01*
X204799000Y-69299000D02*
X201549000Y-69299000D01*
X205000000Y-69500000D02*
X204799000Y-69299000D01*
X207075000Y-72000000D02*
X205000000Y-72000000D01*
X207125000Y-71950000D02*
X207075000Y-72000000D01*
%TO.N,Net-(Q3-G)*%
X206474000Y-70701000D02*
X202049000Y-70701000D01*
X202049000Y-70701000D02*
X202000000Y-70652000D01*
X207125000Y-70050000D02*
X206474000Y-70701000D01*
X202000000Y-70652000D02*
X202000000Y-70000000D01*
%TO.N,Net-(C1-Pad2)*%
X178550000Y-71450000D02*
X178500000Y-71500000D01*
X180000000Y-71450000D02*
X178550000Y-71450000D01*
%TO.N,Net-(C4-Pad2)*%
X176950000Y-71450000D02*
X177000000Y-71500000D01*
X174950000Y-71450000D02*
X176950000Y-71450000D01*
%TO.N,Net-(C3-Pad2)*%
X192000000Y-69348000D02*
X192000000Y-70000000D01*
X190549000Y-69299000D02*
X191951000Y-69299000D01*
X171599000Y-70351000D02*
X189497000Y-70351000D01*
X189497000Y-70351000D02*
X190549000Y-69299000D01*
X170500000Y-71450000D02*
X171599000Y-70351000D01*
X191951000Y-69299000D02*
X192000000Y-69348000D01*
%TO.N,GND*%
X188000000Y-66550000D02*
X188000000Y-66080000D01*
X180000000Y-69550000D02*
X185000000Y-69550000D01*
X174950000Y-69550000D02*
X180000000Y-69550000D01*
X170500000Y-69550000D02*
X174950000Y-69550000D01*
X166050000Y-69550000D02*
X170500000Y-69550000D01*
%TO.N,+12V*%
X215749999Y-76210001D02*
X218960000Y-73000000D01*
X215749999Y-81760599D02*
X215749999Y-76210001D01*
%TO.N,GND*%
X208575000Y-80575000D02*
X208575000Y-78000000D01*
X211600000Y-83600000D02*
X208575000Y-80575000D01*
X211600000Y-90500000D02*
X211600000Y-83600000D01*
X219124000Y-91526000D02*
X212626000Y-91526000D01*
X220100000Y-90550000D02*
X219124000Y-91526000D01*
X212626000Y-91526000D02*
X211600000Y-90500000D01*
%TO.N,Net-(U1-EN)*%
X221199700Y-89749700D02*
X222000000Y-90550000D01*
X221199700Y-82810899D02*
X221199700Y-89749700D01*
X222250000Y-81760599D02*
X221199700Y-82810899D01*
%TO.N,Net-(Q1-S)*%
X169100000Y-88500000D02*
X167100000Y-86500000D01*
X171950000Y-88500000D02*
X169100000Y-88500000D01*
X173950000Y-86500000D02*
X171950000Y-88500000D01*
%TO.N,Net-(Q1-G)*%
X172000000Y-93000000D02*
X172000000Y-90500000D01*
X172500000Y-94500000D02*
X172474265Y-94474265D01*
X171500000Y-95500000D02*
X172500000Y-94500000D01*
X171500000Y-96500000D02*
X171500000Y-95500000D01*
%TO.N,GND*%
X175500000Y-90500000D02*
X175500000Y-86500000D01*
X176000000Y-91000000D02*
X175500000Y-90500000D01*
X174724000Y-85724000D02*
X175500000Y-86500000D01*
X169776000Y-85724000D02*
X174724000Y-85724000D01*
X169000000Y-86500000D02*
X169776000Y-85724000D01*
X175100000Y-91000000D02*
X176000000Y-91000000D01*
X169600000Y-96500000D02*
X175100000Y-91000000D01*
%TO.N,Net-(C14-Pad2)*%
X174600000Y-100000000D02*
X171600000Y-103000000D01*
X176000000Y-100000000D02*
X174600000Y-100000000D01*
%TO.N,Net-(C6-Pad2)*%
X176000000Y-97200000D02*
X176000000Y-92900000D01*
%TO.N,Net-(Q1-S)*%
X166100000Y-87500000D02*
X167100000Y-86500000D01*
X166100000Y-90000000D02*
X166100000Y-87500000D01*
%TO.N,3.3v in power*%
X168975000Y-91875000D02*
X170350000Y-90500000D01*
X167050000Y-91875000D02*
X168975000Y-91875000D01*
%TO.N,Net-(Q1-G)*%
X171200001Y-89700001D02*
X172000000Y-90500000D01*
X168299999Y-89700001D02*
X171200001Y-89700001D01*
X168000000Y-90000000D02*
X168299999Y-89700001D01*
%TO.N,Net-(C14-Pad2)*%
X168900000Y-103000000D02*
X171600000Y-103000000D01*
%TO.N,+12V*%
X220950524Y-71009476D02*
X218960000Y-73000000D01*
X217137050Y-43000000D02*
X220950524Y-46813474D01*
X220950524Y-46813474D02*
X220950524Y-71009476D01*
X207500000Y-43000000D02*
X217137050Y-43000000D01*
%TO.N,Net-(A1-GPIO26_ADC0)*%
X205074000Y-42224000D02*
X205850000Y-43000000D01*
X197626000Y-42224000D02*
X205074000Y-42224000D01*
X196850000Y-43000000D02*
X197626000Y-42224000D01*
%TO.N,GND*%
X200700000Y-45200000D02*
X200700000Y-47500000D01*
X198500000Y-43000000D02*
X200700000Y-45200000D01*
%TO.N,Net-(A1-GPIO26_ADC0)*%
X193080000Y-46770000D02*
X196850000Y-43000000D01*
X193080000Y-47500000D02*
X193080000Y-46770000D01*
%TO.N,GND*%
X166100000Y-100000000D02*
X169600000Y-96500000D01*
X166100000Y-102500000D02*
X166100000Y-100000000D01*
%TO.N,Net-(Q3-D)*%
X175500000Y-76500000D02*
X172500000Y-79500000D01*
X196500000Y-77000000D02*
X196000000Y-76500000D01*
X206000000Y-77000000D02*
X196500000Y-77000000D01*
X209000000Y-74000000D02*
X206000000Y-77000000D01*
X196000000Y-76500000D02*
X175500000Y-76500000D01*
X209000000Y-71000000D02*
X209000000Y-74000000D01*
%TD*%
M02*
