%TF.GenerationSoftware,KiCad,Pcbnew,9.0.7*%
%TF.CreationDate,2026-02-07T14:22:02-05:00*%
%TF.ProjectId,witharduinoandnewcomps,77697468-6172-4647-9569-6e6f616e646e,rev?*%
%TF.SameCoordinates,Original*%
%TF.FileFunction,Copper,L2,Bot*%
%TF.FilePolarity,Positive*%
%FSLAX46Y46*%
G04 Gerber Fmt 4.6, Leading zero omitted, Abs format (unit mm)*
G04 Created by KiCad (PCBNEW 9.0.7) date 2026-02-07 14:22:02*
%MOMM*%
%LPD*%
G01*
G04 APERTURE LIST*
G04 Aperture macros list*
%AMRoundRect*
0 Rectangle with rounded corners*
0 $1 Rounding radius*
0 $2 $3 $4 $5 $6 $7 $8 $9 X,Y pos of 4 corners*
0 Add a 4 corners polygon primitive as box body*
4,1,4,$2,$3,$4,$5,$6,$7,$8,$9,$2,$3,0*
0 Add four circle primitives for the rounded corners*
1,1,$1+$1,$2,$3*
1,1,$1+$1,$4,$5*
1,1,$1+$1,$6,$7*
1,1,$1+$1,$8,$9*
0 Add four rect primitives between the rounded corners*
20,1,$1+$1,$2,$3,$4,$5,0*
20,1,$1+$1,$4,$5,$6,$7,0*
20,1,$1+$1,$6,$7,$8,$9,0*
20,1,$1+$1,$8,$9,$2,$3,0*%
%AMFreePoly0*
4,1,37,0.603843,0.796157,0.639018,0.796157,0.711114,0.766294,0.766294,0.711114,0.796157,0.639018,0.796157,0.603843,0.800000,0.600000,0.800000,-0.600000,0.796157,-0.603843,0.796157,-0.639018,0.766294,-0.711114,0.711114,-0.766294,0.639018,-0.796157,0.603843,-0.796157,0.600000,-0.800000,0.000000,-0.800000,0.000000,-0.796148,-0.078414,-0.796148,-0.232228,-0.765552,-0.377117,-0.705537,
-0.507515,-0.618408,-0.618408,-0.507515,-0.705537,-0.377117,-0.765552,-0.232228,-0.796148,-0.078414,-0.796148,0.078414,-0.765552,0.232228,-0.705537,0.377117,-0.618408,0.507515,-0.507515,0.618408,-0.377117,0.705537,-0.232228,0.765552,-0.078414,0.796148,0.000000,0.796148,0.000000,0.800000,0.600000,0.800000,0.603843,0.796157,0.603843,0.796157,$1*%
%AMFreePoly1*
4,1,37,0.000000,0.796148,0.078414,0.796148,0.232228,0.765552,0.377117,0.705537,0.507515,0.618408,0.618408,0.507515,0.705537,0.377117,0.765552,0.232228,0.796148,0.078414,0.796148,-0.078414,0.765552,-0.232228,0.705537,-0.377117,0.618408,-0.507515,0.507515,-0.618408,0.377117,-0.705537,0.232228,-0.765552,0.078414,-0.796148,0.000000,-0.796148,0.000000,-0.800000,-0.600000,-0.800000,
-0.603843,-0.796157,-0.639018,-0.796157,-0.711114,-0.766294,-0.766294,-0.711114,-0.796157,-0.639018,-0.796157,-0.603843,-0.800000,-0.600000,-0.800000,0.600000,-0.796157,0.603843,-0.796157,0.639018,-0.766294,0.711114,-0.711114,0.766294,-0.639018,0.796157,-0.603843,0.796157,-0.600000,0.800000,0.000000,0.800000,0.000000,0.796148,0.000000,0.796148,$1*%
G04 Aperture macros list end*
%TA.AperFunction,ComponentPad*%
%ADD10RoundRect,0.200000X0.600000X-0.600000X0.600000X0.600000X-0.600000X0.600000X-0.600000X-0.600000X0*%
%TD*%
%TA.AperFunction,ComponentPad*%
%ADD11C,1.600000*%
%TD*%
%TA.AperFunction,ComponentPad*%
%ADD12FreePoly0,90.000000*%
%TD*%
%TA.AperFunction,ComponentPad*%
%ADD13FreePoly1,90.000000*%
%TD*%
%TA.AperFunction,ComponentPad*%
%ADD14R,1.498600X1.498600*%
%TD*%
%TA.AperFunction,ComponentPad*%
%ADD15C,1.498600*%
%TD*%
%TA.AperFunction,ComponentPad*%
%ADD16R,2.000000X2.000000*%
%TD*%
%TA.AperFunction,ComponentPad*%
%ADD17C,2.000000*%
%TD*%
%TA.AperFunction,ViaPad*%
%ADD18C,0.600000*%
%TD*%
%TA.AperFunction,Conductor*%
%ADD19C,0.200000*%
%TD*%
G04 APERTURE END LIST*
D10*
%TO.P,A1,1,GPIO0*%
%TO.N,unconnected-(A1-GPIO0-Pad1)_1*%
X170220000Y-65280000D03*
D11*
%TO.P,A1,2,GPIO1*%
%TO.N,unconnected-(A1-GPIO1-Pad2)*%
X172760000Y-65280000D03*
D12*
%TO.P,A1,3,GND*%
%TO.N,GND*%
X175300000Y-65280000D03*
D11*
%TO.P,A1,4,GPIO2*%
%TO.N,SCL*%
X177840000Y-65280000D03*
%TO.P,A1,5,GPIO3*%
%TO.N,SDA*%
X180380000Y-65280000D03*
%TO.P,A1,6,GPIO4*%
%TO.N,unconnected-(A1-GPIO4-Pad6)*%
X182920000Y-65280000D03*
%TO.P,A1,7,GPIO5*%
%TO.N,unconnected-(A1-GPIO5-Pad7)_1*%
X185460000Y-65280000D03*
D12*
%TO.P,A1,8,GND*%
%TO.N,GND*%
X188000000Y-65280000D03*
D11*
%TO.P,A1,9,GPIO6*%
%TO.N,unconnected-(A1-GPIO6-Pad9)*%
X190540000Y-65280000D03*
%TO.P,A1,10,GPIO7*%
%TO.N,BS*%
X193080000Y-65280000D03*
%TO.P,A1,11,GPIO8*%
%TO.N,unconnected-(A1-GPIO8-Pad11)_1*%
X195620000Y-65280000D03*
%TO.P,A1,12,GPIO9*%
%TO.N,unconnected-(A1-GPIO9-Pad12)_1*%
X198160000Y-65280000D03*
D12*
%TO.P,A1,13,GND*%
%TO.N,GND*%
X200700000Y-65280000D03*
D11*
%TO.P,A1,14,GPIO10*%
%TO.N,unconnected-(A1-GPIO10-Pad14)*%
X203240000Y-65280000D03*
%TO.P,A1,15,GPIO11*%
%TO.N,panelReset*%
X205780000Y-65280000D03*
%TO.P,A1,16,GPIO12*%
%TO.N,unconnected-(A1-GPIO12-Pad16)_1*%
X208320000Y-65280000D03*
%TO.P,A1,17,GPIO13*%
%TO.N,panelBusy*%
X210860000Y-65280000D03*
D12*
%TO.P,A1,18,GND*%
%TO.N,GND*%
X213400000Y-65280000D03*
D11*
%TO.P,A1,19,GPIO14*%
%TO.N,unconnected-(A1-GPIO14-Pad19)*%
X215940000Y-65280000D03*
%TO.P,A1,20,GPIO15*%
%TO.N,unconnected-(A1-GPIO15-Pad20)_1*%
X218480000Y-65280000D03*
%TO.P,A1,21,GPIO16*%
%TO.N,unconnected-(A1-GPIO16-Pad21)*%
X218480000Y-47500000D03*
%TO.P,A1,22,GPIO17*%
%TO.N,panelDC*%
X215940000Y-47500000D03*
D13*
%TO.P,A1,23,GND*%
%TO.N,GND*%
X213400000Y-47500000D03*
D11*
%TO.P,A1,24,GPIO18*%
%TO.N,unconnected-(A1-GPIO18-Pad24)*%
X210860000Y-47500000D03*
%TO.P,A1,25,GPIO19*%
%TO.N,unconnected-(A1-GPIO19-Pad25)*%
X208320000Y-47500000D03*
%TO.P,A1,26,GPIO20*%
%TO.N,unconnected-(A1-GPIO20-Pad26)_1*%
X205780000Y-47500000D03*
%TO.P,A1,27,GPIO21*%
%TO.N,unconnected-(A1-GPIO21-Pad27)*%
X203240000Y-47500000D03*
D13*
%TO.P,A1,28,GND*%
%TO.N,GND*%
X200700000Y-47500000D03*
D11*
%TO.P,A1,29,GPIO22*%
%TO.N,unconnected-(A1-GPIO22-Pad29)_1*%
X198160000Y-47500000D03*
%TO.P,A1,30,RUN*%
%TO.N,unconnected-(A1-RUN-Pad30)_1*%
X195620000Y-47500000D03*
%TO.P,A1,31,GPIO26_ADC0*%
%TO.N,Net-(A1-GPIO26_ADC0)*%
X193080000Y-47500000D03*
%TO.P,A1,32,GPIO27_ADC1*%
%TO.N,unconnected-(A1-GPIO27_ADC1-Pad32)*%
X190540000Y-47500000D03*
D13*
%TO.P,A1,33,AGND*%
%TO.N,unconnected-(A1-AGND-Pad33)_1*%
X188000000Y-47500000D03*
D11*
%TO.P,A1,34,GPIO28_ADC2*%
%TO.N,unconnected-(A1-GPIO28_ADC2-Pad34)*%
X185460000Y-47500000D03*
%TO.P,A1,35,ADC_VREF*%
%TO.N,unconnected-(A1-ADC_VREF-Pad35)*%
X182920000Y-47500000D03*
%TO.P,A1,36,3V3*%
%TO.N,unconnected-(A1-3V3-Pad36)*%
X180380000Y-47500000D03*
%TO.P,A1,37,3V3_EN*%
%TO.N,unconnected-(A1-3V3_EN-Pad37)*%
X177840000Y-47500000D03*
D13*
%TO.P,A1,38,GND*%
%TO.N,GND*%
X175300000Y-47500000D03*
D11*
%TO.P,A1,39,VSYS*%
%TO.N,3.3v in power*%
X172760000Y-47500000D03*
%TO.P,A1,40,VBUS*%
%TO.N,unconnected-(A1-VBUS-Pad40)*%
X170220000Y-47500000D03*
%TD*%
D14*
%TO.P,SW1,1,1*%
%TO.N,+12V*%
X215749999Y-81760599D03*
D15*
%TO.P,SW1,2,2*%
%TO.N,Net-(U1-EN)*%
X222250000Y-81760599D03*
%TO.P,SW1,3*%
%TO.N,N/C*%
X215749999Y-86260600D03*
%TO.P,SW1,4*%
X222250000Y-86260600D03*
%TD*%
D16*
%TO.P,J3,1,Pin_1*%
%TO.N,+12V*%
X218960000Y-73000000D03*
D17*
%TO.P,J3,2,Pin_2*%
%TO.N,GND*%
X221500000Y-73000000D03*
%TD*%
D18*
%TO.N,Net-(U1-EN)*%
X166000000Y-76000000D03*
%TO.N,GND*%
X166000000Y-74000000D03*
X168000000Y-72000000D03*
X190900000Y-70900141D03*
X194600000Y-71000000D03*
X222500000Y-71500000D03*
X177000000Y-84000000D03*
X178500000Y-68500000D03*
%TO.N,Net-(Q1-S)*%
X174500000Y-89000000D03*
X176500000Y-89000000D03*
X179000000Y-88000000D03*
X195101000Y-75399000D03*
%TO.N,GND*%
X189500000Y-73500000D03*
X188000000Y-73100000D03*
X187500000Y-71000000D03*
X187500000Y-69500000D03*
%TO.N,3.3v in power*%
X216000000Y-90926000D03*
X164500000Y-106000000D03*
%TO.N,Net-(Q3-S)*%
X214100000Y-81500000D03*
X207000000Y-74500000D03*
%TO.N,panelDC*%
X197000000Y-75500000D03*
X215940000Y-44060000D03*
%TO.N,Net-(Q3-D)*%
X175500000Y-103000000D03*
X172500000Y-83000000D03*
%TO.N,Net-(C5-Pad2)*%
X179000000Y-77100000D03*
X192400000Y-72700000D03*
%TO.N,Net-(C6-Pad2)*%
X177700000Y-93000000D03*
X191500000Y-72700000D03*
%TO.N,Net-(C8-Pad2)*%
X200500000Y-70900000D03*
X187000000Y-72500000D03*
%TO.N,GND*%
X201500000Y-72500000D03*
X204000000Y-63000000D03*
%TO.N,SCL*%
X196500000Y-71900000D03*
X177000000Y-68500000D03*
%TO.N,SDA*%
X187000000Y-68500000D03*
X184000000Y-68500000D03*
%TO.N,BS*%
X200500000Y-68586000D03*
X196500000Y-68500000D03*
%TO.N,Net-(U1-EN)*%
X219000000Y-78500000D03*
%TO.N,GND*%
X222500000Y-68500000D03*
X204500000Y-78000000D03*
X203500000Y-75000000D03*
%TO.N,Net-(Q3-S)*%
X205000000Y-69500000D03*
X205000000Y-72000000D03*
%TO.N,Net-(C1-Pad2)*%
X177500000Y-75000000D03*
X178500000Y-71500000D03*
%TO.N,Net-(C4-Pad2)*%
X174500000Y-74000000D03*
X177000000Y-71500000D03*
%TO.N,Net-(Q1-G)*%
X172000000Y-93000000D03*
X172474265Y-94474265D03*
%TO.N,GND*%
X215500000Y-69500000D03*
%TD*%
D19*
%TO.N,Net-(U1-EN)*%
X216800299Y-82810899D02*
X216800299Y-79300299D01*
X175251057Y-103601000D02*
X196010198Y-103601000D01*
X166000000Y-94349943D02*
X175251057Y-103601000D01*
X196010198Y-103601000D02*
X216800299Y-82810899D01*
X166000000Y-76000000D02*
X166000000Y-94349943D01*
X216800299Y-79300299D02*
X212500000Y-75000000D01*
%TO.N,GND*%
X168000000Y-72000000D02*
X166000000Y-74000000D01*
X190999859Y-71000000D02*
X190900000Y-70900141D01*
X191000000Y-71000000D02*
X190999859Y-71000000D01*
%TO.N,SCL*%
X180500000Y-72000000D02*
X177000000Y-68500000D01*
X186650057Y-72000000D02*
X180500000Y-72000000D01*
X186751057Y-71899000D02*
X186650057Y-72000000D01*
X187248943Y-71899000D02*
X186751057Y-71899000D01*
X187546943Y-71601000D02*
X187248943Y-71899000D01*
X187849943Y-71500000D02*
X187748943Y-71601000D01*
X190886957Y-71500000D02*
X187849943Y-71500000D01*
X191950000Y-71732957D02*
X191915043Y-71698000D01*
X191984957Y-71698000D02*
X191950000Y-71732957D01*
X191084957Y-71698000D02*
X190886957Y-71500000D01*
X192815043Y-71698000D02*
X191984957Y-71698000D01*
X187748943Y-71601000D02*
X187546943Y-71601000D01*
X193117043Y-72000000D02*
X192815043Y-71698000D01*
X191915043Y-71698000D02*
X191084957Y-71698000D01*
X195117043Y-71900000D02*
X195017043Y-72000000D01*
X196500000Y-71900000D02*
X195117043Y-71900000D01*
X195017043Y-72000000D02*
X193117043Y-72000000D01*
%TO.N,GND*%
X194600000Y-71000000D02*
X191000000Y-71000000D01*
%TO.N,Net-(C8-Pad2)*%
X200500000Y-71000000D02*
X200500000Y-70900000D01*
X199000000Y-72500000D02*
X200500000Y-71000000D01*
X193001000Y-72500000D02*
X199000000Y-72500000D01*
X193001000Y-72451057D02*
X193001000Y-72500000D01*
X192151057Y-72099000D02*
X192648943Y-72099000D01*
X191950000Y-72300057D02*
X192151057Y-72099000D01*
X190899000Y-72451057D02*
X191251057Y-72099000D01*
X191251057Y-72099000D02*
X191748943Y-72099000D01*
X190899000Y-72500000D02*
X190899000Y-72451057D01*
X191748943Y-72099000D02*
X191950000Y-72300057D01*
X187000000Y-72500000D02*
X190899000Y-72500000D01*
X192648943Y-72099000D02*
X193001000Y-72451057D01*
%TO.N,GND*%
X217500000Y-71500000D02*
X215500000Y-69500000D01*
X222500000Y-71500000D02*
X217500000Y-71500000D01*
X173899000Y-80899000D02*
X177000000Y-84000000D01*
X173899000Y-70751057D02*
X173899000Y-80899000D01*
X176751057Y-67899000D02*
X173899000Y-70751057D01*
X177899000Y-67899000D02*
X176751057Y-67899000D01*
X178500000Y-68500000D02*
X177899000Y-67899000D01*
%TO.N,Net-(Q1-S)*%
X174500000Y-89000000D02*
X176500000Y-89000000D01*
%TO.N,Net-(Q3-D)*%
X175500000Y-91500000D02*
X175500000Y-103000000D01*
X172000000Y-83500000D02*
X172000000Y-88000000D01*
X172500000Y-83000000D02*
X172000000Y-83500000D01*
X172000000Y-88000000D02*
X175500000Y-91500000D01*
%TO.N,Net-(Q1-S)*%
X191601000Y-75399000D02*
X179000000Y-88000000D01*
X195101000Y-75399000D02*
X191601000Y-75399000D01*
%TO.N,GND*%
X189100000Y-73100000D02*
X189500000Y-73500000D01*
X188000000Y-73100000D02*
X189100000Y-73100000D01*
X187500000Y-69500000D02*
X187500000Y-71000000D01*
%TO.N,Net-(C6-Pad2)*%
X178251058Y-80899000D02*
X177899000Y-81251058D01*
X178251058Y-75751058D02*
X178251058Y-80899000D01*
X178500000Y-76000000D02*
X178251058Y-75751058D01*
X177899000Y-93000000D02*
X177700000Y-93000000D01*
X188200000Y-76000000D02*
X178500000Y-76000000D01*
X191500000Y-72700000D02*
X188200000Y-76000000D01*
X177899000Y-81251058D02*
X177899000Y-93000000D01*
%TO.N,Net-(C4-Pad2)*%
X177000000Y-71500000D02*
X174500000Y-74000000D01*
%TO.N,Net-(C1-Pad2)*%
X178500000Y-74000000D02*
X177500000Y-75000000D01*
X178500000Y-71500000D02*
X178500000Y-74000000D01*
%TO.N,3.3v in power*%
X201000000Y-106000000D02*
X216000000Y-91000000D01*
X164500000Y-106000000D02*
X201000000Y-106000000D01*
X216000000Y-91000000D02*
X216000000Y-90926000D01*
%TO.N,Net-(Q3-S)*%
X214000000Y-81500000D02*
X214100000Y-81500000D01*
X207000000Y-74500000D02*
X214000000Y-81500000D01*
%TO.N,panelDC*%
X205845122Y-74399000D02*
X198101000Y-74399000D01*
X214506000Y-65738122D02*
X205845122Y-74399000D01*
X214506000Y-64994000D02*
X214506000Y-65738122D01*
X220451000Y-59049000D02*
X214506000Y-64994000D01*
X215940000Y-49437164D02*
X220451000Y-53948164D01*
X198101000Y-74399000D02*
X197000000Y-75500000D01*
X220451000Y-53948164D02*
X220451000Y-59049000D01*
X215940000Y-44060000D02*
X215940000Y-49437164D01*
%TO.N,Net-(C5-Pad2)*%
X188100000Y-77000000D02*
X179000000Y-77000000D01*
X192400000Y-72700000D02*
X188100000Y-77000000D01*
X179000000Y-77000000D02*
X179000000Y-77100000D01*
%TO.N,GND*%
X204341000Y-69659000D02*
X201500000Y-72500000D01*
X204341000Y-63341000D02*
X204341000Y-69659000D01*
X204000000Y-63000000D02*
X204341000Y-63341000D01*
%TO.N,SDA*%
X184000000Y-68500000D02*
X187000000Y-68500000D01*
%TO.N,BS*%
X200500000Y-68500000D02*
X200500000Y-68586000D01*
X196500000Y-68500000D02*
X200500000Y-68500000D01*
%TO.N,Net-(U1-EN)*%
X215500000Y-75000000D02*
X219000000Y-78500000D01*
X212500000Y-75000000D02*
X215500000Y-75000000D01*
%TO.N,GND*%
X204500000Y-76000000D02*
X204500000Y-78000000D01*
X203500000Y-75000000D02*
X204500000Y-76000000D01*
%TO.N,Net-(Q3-S)*%
X205000000Y-72000000D02*
X205000000Y-69500000D01*
%TO.N,Net-(Q1-G)*%
X172474265Y-93474265D02*
X172000000Y-93000000D01*
X172474265Y-94474265D02*
X172474265Y-93474265D01*
%TD*%
%TA.AperFunction,Conductor*%
%TO.N,GND*%
G36*
X213880023Y-65434309D02*
G01*
X213875039Y-65504001D01*
X213846538Y-65548348D01*
X213668348Y-65726538D01*
X213607025Y-65760023D01*
X213554419Y-65756260D01*
X213592993Y-65745925D01*
X213707007Y-65680099D01*
X213800099Y-65587007D01*
X213865925Y-65472993D01*
X213877519Y-65429723D01*
X213880023Y-65434309D01*
G37*
%TD.AperFunction*%
%TA.AperFunction,Conductor*%
G36*
X222942539Y-42020185D02*
G01*
X222988294Y-42072989D01*
X222999500Y-42124500D01*
X222999500Y-72130299D01*
X222979815Y-72197338D01*
X222927011Y-72243093D01*
X222857853Y-72253037D01*
X222794297Y-72224012D01*
X222775182Y-72203185D01*
X222722658Y-72130894D01*
X222722658Y-72130893D01*
X222023787Y-72829765D01*
X222012518Y-72787708D01*
X221940110Y-72662292D01*
X221837708Y-72559890D01*
X221712292Y-72487482D01*
X221670233Y-72476212D01*
X222369105Y-71777340D01*
X222369104Y-71777338D01*
X222286174Y-71717087D01*
X222075802Y-71609897D01*
X221851247Y-71536934D01*
X221851248Y-71536934D01*
X221618052Y-71500000D01*
X221381948Y-71500000D01*
X221148752Y-71536934D01*
X220924197Y-71609897D01*
X220713829Y-71717084D01*
X220590021Y-71807036D01*
X220524214Y-71830515D01*
X220456161Y-71814689D01*
X220408220Y-71765359D01*
X220408047Y-71765454D01*
X220407706Y-71764830D01*
X220407466Y-71764583D01*
X220406987Y-71763513D01*
X220403793Y-71757664D01*
X220317547Y-71642455D01*
X220317544Y-71642452D01*
X220202335Y-71556206D01*
X220202328Y-71556202D01*
X220067482Y-71505908D01*
X220067483Y-71505908D01*
X220007883Y-71499501D01*
X220007881Y-71499500D01*
X220007873Y-71499500D01*
X220007864Y-71499500D01*
X217912129Y-71499500D01*
X217912123Y-71499501D01*
X217852516Y-71505908D01*
X217717671Y-71556202D01*
X217717664Y-71556206D01*
X217602455Y-71642452D01*
X217602452Y-71642455D01*
X217516206Y-71757664D01*
X217516202Y-71757671D01*
X217465908Y-71892517D01*
X217459501Y-71952116D01*
X217459500Y-71952135D01*
X217459500Y-74047870D01*
X217459501Y-74047876D01*
X217465908Y-74107483D01*
X217516202Y-74242328D01*
X217516206Y-74242335D01*
X217602452Y-74357544D01*
X217602455Y-74357547D01*
X217717664Y-74443793D01*
X217717671Y-74443797D01*
X217852517Y-74494091D01*
X217852516Y-74494091D01*
X217859444Y-74494835D01*
X217912127Y-74500500D01*
X220007872Y-74500499D01*
X220067483Y-74494091D01*
X220202331Y-74443796D01*
X220317546Y-74357546D01*
X220403796Y-74242331D01*
X220403797Y-74242326D01*
X220408047Y-74234546D01*
X220411200Y-74236267D01*
X220442814Y-74194025D01*
X220508275Y-74169599D01*
X220576550Y-74184442D01*
X220590023Y-74192964D01*
X220713828Y-74282914D01*
X220924197Y-74390102D01*
X221148752Y-74463065D01*
X221148751Y-74463065D01*
X221381948Y-74500000D01*
X221618052Y-74500000D01*
X221851247Y-74463065D01*
X222075802Y-74390102D01*
X222286163Y-74282918D01*
X222286169Y-74282914D01*
X222369104Y-74222658D01*
X222369105Y-74222658D01*
X221670234Y-73523787D01*
X221712292Y-73512518D01*
X221837708Y-73440110D01*
X221940110Y-73337708D01*
X222012518Y-73212292D01*
X222023787Y-73170234D01*
X222722658Y-73869105D01*
X222722658Y-73869104D01*
X222775182Y-73796813D01*
X222830512Y-73754148D01*
X222900125Y-73748169D01*
X222961920Y-73780775D01*
X222996278Y-73841614D01*
X222999500Y-73869699D01*
X222999500Y-80537454D01*
X222979815Y-80604493D01*
X222927011Y-80650248D01*
X222857853Y-80660192D01*
X222819206Y-80647939D01*
X222729764Y-80602366D01*
X222542662Y-80541572D01*
X222348366Y-80510799D01*
X222348361Y-80510799D01*
X222151639Y-80510799D01*
X222151634Y-80510799D01*
X221957337Y-80541572D01*
X221770238Y-80602365D01*
X221594961Y-80691674D01*
X221504159Y-80757646D01*
X221435810Y-80807305D01*
X221435808Y-80807307D01*
X221435807Y-80807307D01*
X221296708Y-80946406D01*
X221296708Y-80946407D01*
X221296706Y-80946409D01*
X221273712Y-80978058D01*
X221181075Y-81105560D01*
X221091766Y-81280837D01*
X221030973Y-81467936D01*
X221000200Y-81662232D01*
X221000200Y-81858965D01*
X221030973Y-82053261D01*
X221091766Y-82240360D01*
X221166109Y-82386264D01*
X221181075Y-82415637D01*
X221296706Y-82574789D01*
X221435810Y-82713893D01*
X221594962Y-82829524D01*
X221655485Y-82860362D01*
X221770238Y-82918832D01*
X221770240Y-82918832D01*
X221770243Y-82918834D01*
X221846911Y-82943745D01*
X221957337Y-82979625D01*
X222151634Y-83010399D01*
X222151639Y-83010399D01*
X222348366Y-83010399D01*
X222542662Y-82979625D01*
X222729757Y-82918834D01*
X222819205Y-82873257D01*
X222887874Y-82860362D01*
X222952615Y-82886638D01*
X222992872Y-82943745D01*
X222999500Y-82983743D01*
X222999500Y-85037455D01*
X222979815Y-85104494D01*
X222927011Y-85150249D01*
X222857853Y-85160193D01*
X222819206Y-85147940D01*
X222729764Y-85102367D01*
X222542662Y-85041573D01*
X222348366Y-85010800D01*
X222348361Y-85010800D01*
X222151639Y-85010800D01*
X222151634Y-85010800D01*
X221957337Y-85041573D01*
X221770238Y-85102366D01*
X221594961Y-85191675D01*
X221504159Y-85257647D01*
X221435810Y-85307306D01*
X221435808Y-85307308D01*
X221435807Y-85307308D01*
X221296708Y-85446407D01*
X221296708Y-85446408D01*
X221296706Y-85446410D01*
X221247047Y-85514759D01*
X221181075Y-85605561D01*
X221091766Y-85780838D01*
X221030973Y-85967937D01*
X221000200Y-86162233D01*
X221000200Y-86358966D01*
X221030973Y-86553262D01*
X221091766Y-86740361D01*
X221181075Y-86915638D01*
X221296706Y-87074790D01*
X221435810Y-87213894D01*
X221594962Y-87329525D01*
X221655485Y-87360363D01*
X221770238Y-87418833D01*
X221770240Y-87418833D01*
X221770243Y-87418835D01*
X221846911Y-87443746D01*
X221957337Y-87479626D01*
X222151634Y-87510400D01*
X222151639Y-87510400D01*
X222348366Y-87510400D01*
X222542662Y-87479626D01*
X222729757Y-87418835D01*
X222819205Y-87373258D01*
X222887874Y-87360363D01*
X222952615Y-87386639D01*
X222992872Y-87443746D01*
X222999500Y-87483744D01*
X222999500Y-140875500D01*
X222979815Y-140942539D01*
X222927011Y-140988294D01*
X222875500Y-140999500D01*
X164124500Y-140999500D01*
X164057461Y-140979815D01*
X164011706Y-140927011D01*
X164000500Y-140875500D01*
X164000500Y-133772937D01*
X165299500Y-133772937D01*
X165299500Y-134227062D01*
X165339079Y-134679450D01*
X165417935Y-135126660D01*
X165417938Y-135126673D01*
X165535466Y-135565299D01*
X165535469Y-135565309D01*
X165535470Y-135565310D01*
X165690788Y-135992041D01*
X165690791Y-135992048D01*
X165690792Y-135992050D01*
X165882701Y-136403602D01*
X165882709Y-136403617D01*
X166042304Y-136680043D01*
X166109765Y-136796888D01*
X166109769Y-136796894D01*
X166109776Y-136796905D01*
X166370236Y-137168881D01*
X166541572Y-137373070D01*
X166662137Y-137516754D01*
X166983246Y-137837863D01*
X167121669Y-137954014D01*
X167331118Y-138129763D01*
X167703094Y-138390223D01*
X167703101Y-138390227D01*
X167703112Y-138390235D01*
X168071688Y-138603033D01*
X168096382Y-138617290D01*
X168096397Y-138617298D01*
X168279309Y-138702590D01*
X168507959Y-138809212D01*
X168934690Y-138964530D01*
X168934696Y-138964531D01*
X168934700Y-138964533D01*
X169054151Y-138996539D01*
X169373334Y-139082064D01*
X169820552Y-139160921D01*
X170272939Y-139200499D01*
X170272940Y-139200500D01*
X170272941Y-139200500D01*
X170727060Y-139200500D01*
X170727060Y-139200499D01*
X171179448Y-139160921D01*
X171626666Y-139082064D01*
X172065310Y-138964530D01*
X172492041Y-138809212D01*
X172903611Y-138617294D01*
X173296888Y-138390235D01*
X173668880Y-138129764D01*
X174016754Y-137837863D01*
X174337863Y-137516754D01*
X174629764Y-137168880D01*
X174890235Y-136796888D01*
X175117294Y-136403611D01*
X175309212Y-135992041D01*
X175464530Y-135565310D01*
X175582064Y-135126666D01*
X175660921Y-134679448D01*
X175700500Y-134227059D01*
X175700500Y-133772941D01*
X175700500Y-133772937D01*
X210799500Y-133772937D01*
X210799500Y-134227062D01*
X210839079Y-134679450D01*
X210917935Y-135126660D01*
X210917938Y-135126673D01*
X211035466Y-135565299D01*
X211035469Y-135565309D01*
X211035470Y-135565310D01*
X211190788Y-135992041D01*
X211190791Y-135992048D01*
X211190792Y-135992050D01*
X211382701Y-136403602D01*
X211382709Y-136403617D01*
X211542304Y-136680043D01*
X211609765Y-136796888D01*
X211609769Y-136796894D01*
X211609776Y-136796905D01*
X211870236Y-137168881D01*
X212041572Y-137373070D01*
X212162137Y-137516754D01*
X212483246Y-137837863D01*
X212621669Y-137954014D01*
X212831118Y-138129763D01*
X213203094Y-138390223D01*
X213203101Y-138390227D01*
X213203112Y-138390235D01*
X213571688Y-138603033D01*
X213596382Y-138617290D01*
X213596397Y-138617298D01*
X213779309Y-138702590D01*
X214007959Y-138809212D01*
X214434690Y-138964530D01*
X214434696Y-138964531D01*
X214434700Y-138964533D01*
X214554151Y-138996539D01*
X214873334Y-139082064D01*
X215320552Y-139160921D01*
X215772939Y-139200499D01*
X215772940Y-139200500D01*
X215772941Y-139200500D01*
X216227060Y-139200500D01*
X216227060Y-139200499D01*
X216679448Y-139160921D01*
X217126666Y-139082064D01*
X217565310Y-138964530D01*
X217992041Y-138809212D01*
X218403611Y-138617294D01*
X218796888Y-138390235D01*
X219168880Y-138129764D01*
X219516754Y-137837863D01*
X219837863Y-137516754D01*
X220129764Y-137168880D01*
X220390235Y-136796888D01*
X220617294Y-136403611D01*
X220809212Y-135992041D01*
X220964530Y-135565310D01*
X221082064Y-135126666D01*
X221160921Y-134679448D01*
X221200500Y-134227059D01*
X221200500Y-133772941D01*
X221160921Y-133320552D01*
X221082064Y-132873334D01*
X220964530Y-132434690D01*
X220809212Y-132007959D01*
X220617294Y-131596389D01*
X220390235Y-131203112D01*
X220390227Y-131203101D01*
X220390223Y-131203094D01*
X220129763Y-130831118D01*
X219837860Y-130483243D01*
X219516756Y-130162139D01*
X219168881Y-129870236D01*
X218796905Y-129609776D01*
X218796894Y-129609769D01*
X218796888Y-129609765D01*
X218680043Y-129542304D01*
X218403617Y-129382709D01*
X218403602Y-129382701D01*
X217992050Y-129190792D01*
X217992048Y-129190791D01*
X217992041Y-129190788D01*
X217565310Y-129035470D01*
X217565309Y-129035469D01*
X217565299Y-129035466D01*
X217126673Y-128917938D01*
X217126676Y-128917938D01*
X217126666Y-128917936D01*
X217063527Y-128906802D01*
X216679450Y-128839079D01*
X216227062Y-128799500D01*
X216227059Y-128799500D01*
X215772941Y-128799500D01*
X215772937Y-128799500D01*
X215320549Y-128839079D01*
X214873339Y-128917935D01*
X214873336Y-128917935D01*
X214873334Y-128917936D01*
X214873329Y-128917937D01*
X214873326Y-128917938D01*
X214434700Y-129035466D01*
X214221324Y-129113129D01*
X214007959Y-129190788D01*
X214007955Y-129190789D01*
X214007949Y-129190792D01*
X213596397Y-129382701D01*
X213596382Y-129382709D01*
X213203120Y-129609760D01*
X213203094Y-129609776D01*
X212831118Y-129870236D01*
X212483243Y-130162139D01*
X212162139Y-130483243D01*
X211870236Y-130831118D01*
X211609776Y-131203094D01*
X211609760Y-131203120D01*
X211382709Y-131596382D01*
X211382701Y-131596397D01*
X211190792Y-132007949D01*
X211035466Y-132434700D01*
X210917938Y-132873326D01*
X210917935Y-132873339D01*
X210839079Y-133320549D01*
X210799500Y-133772937D01*
X175700500Y-133772937D01*
X175660921Y-133320552D01*
X175582064Y-132873334D01*
X175464530Y-132434690D01*
X175309212Y-132007959D01*
X175117294Y-131596389D01*
X174890235Y-131203112D01*
X174890227Y-131203101D01*
X174890223Y-131203094D01*
X174629763Y-130831118D01*
X174337860Y-130483243D01*
X174016756Y-130162139D01*
X173668881Y-129870236D01*
X173296905Y-129609776D01*
X173296894Y-129609769D01*
X173296888Y-129609765D01*
X173180043Y-129542304D01*
X172903617Y-129382709D01*
X172903602Y-129382701D01*
X172492050Y-129190792D01*
X172492048Y-129190791D01*
X172492041Y-129190788D01*
X172065310Y-129035470D01*
X172065309Y-129035469D01*
X172065299Y-129035466D01*
X171626673Y-128917938D01*
X171626676Y-128917938D01*
X171626666Y-128917936D01*
X171563527Y-128906802D01*
X171179450Y-128839079D01*
X170727062Y-128799500D01*
X170727059Y-128799500D01*
X170272941Y-128799500D01*
X170272937Y-128799500D01*
X169820549Y-128839079D01*
X169373339Y-128917935D01*
X169373336Y-128917935D01*
X169373334Y-128917936D01*
X169373329Y-128917937D01*
X169373326Y-128917938D01*
X168934700Y-129035466D01*
X168721324Y-129113129D01*
X168507959Y-129190788D01*
X168507955Y-129190789D01*
X168507949Y-129190792D01*
X168096397Y-129382701D01*
X168096382Y-129382709D01*
X167703120Y-129609760D01*
X167703094Y-129609776D01*
X167331118Y-129870236D01*
X166983243Y-130162139D01*
X166662139Y-130483243D01*
X166370236Y-130831118D01*
X166109776Y-131203094D01*
X166109760Y-131203120D01*
X165882709Y-131596382D01*
X165882701Y-131596397D01*
X165690792Y-132007949D01*
X165535466Y-132434700D01*
X165417938Y-132873326D01*
X165417935Y-132873339D01*
X165339079Y-133320549D01*
X165299500Y-133772937D01*
X164000500Y-133772937D01*
X164000500Y-106845134D01*
X164020185Y-106778095D01*
X164072989Y-106732340D01*
X164142147Y-106722396D01*
X164171950Y-106730572D01*
X164266503Y-106769737D01*
X164371941Y-106790710D01*
X164421153Y-106800499D01*
X164421156Y-106800500D01*
X164421158Y-106800500D01*
X164578844Y-106800500D01*
X164578845Y-106800499D01*
X164733497Y-106769737D01*
X164879179Y-106709394D01*
X164933663Y-106672989D01*
X165010875Y-106621398D01*
X165077553Y-106600520D01*
X165079766Y-106600500D01*
X168142253Y-106600500D01*
X168209292Y-106620185D01*
X168255047Y-106672989D01*
X168264991Y-106742147D01*
X168235966Y-106805703D01*
X168194658Y-106836882D01*
X168096398Y-106882701D01*
X168096382Y-106882709D01*
X167703120Y-107109760D01*
X167703094Y-107109776D01*
X167331118Y-107370236D01*
X166983243Y-107662139D01*
X166662139Y-107983243D01*
X166370236Y-108331118D01*
X166109776Y-108703094D01*
X166109760Y-108703120D01*
X165882709Y-109096382D01*
X165882701Y-109096397D01*
X165690792Y-109507949D01*
X165535466Y-109934700D01*
X165417938Y-110373326D01*
X165417935Y-110373339D01*
X165339079Y-110820549D01*
X165299500Y-111272937D01*
X165299500Y-111727062D01*
X165339079Y-112179450D01*
X165417935Y-112626660D01*
X165417938Y-112626673D01*
X165535466Y-113065299D01*
X165535469Y-113065309D01*
X165535470Y-113065310D01*
X165690788Y-113492041D01*
X165690791Y-113492048D01*
X165690792Y-113492050D01*
X165882701Y-113903602D01*
X165882709Y-113903617D01*
X166042304Y-114180043D01*
X166109765Y-114296888D01*
X166109769Y-114296894D01*
X166109776Y-114296905D01*
X166370236Y-114668881D01*
X166541572Y-114873070D01*
X166662137Y-115016754D01*
X166983246Y-115337863D01*
X167121669Y-115454014D01*
X167331118Y-115629763D01*
X167703094Y-115890223D01*
X167703101Y-115890227D01*
X167703112Y-115890235D01*
X168071688Y-116103033D01*
X168096382Y-116117290D01*
X168096397Y-116117298D01*
X168279309Y-116202590D01*
X168507959Y-116309212D01*
X168934690Y-116464530D01*
X168934696Y-116464531D01*
X168934700Y-116464533D01*
X169054151Y-116496539D01*
X169373334Y-116582064D01*
X169820552Y-116660921D01*
X170272939Y-116700499D01*
X170272940Y-116700500D01*
X170272941Y-116700500D01*
X170727060Y-116700500D01*
X170727060Y-116700499D01*
X171179448Y-116660921D01*
X171626666Y-116582064D01*
X172065310Y-116464530D01*
X172492041Y-116309212D01*
X172903611Y-116117294D01*
X173296888Y-115890235D01*
X173668880Y-115629764D01*
X174016754Y-115337863D01*
X174337863Y-115016754D01*
X174629764Y-114668880D01*
X174890235Y-114296888D01*
X175117294Y-113903611D01*
X175309212Y-113492041D01*
X175464530Y-113065310D01*
X175582064Y-112626666D01*
X175660921Y-112179448D01*
X175700500Y-111727059D01*
X175700500Y-111272941D01*
X175700500Y-111272937D01*
X210799500Y-111272937D01*
X210799500Y-111727062D01*
X210839079Y-112179450D01*
X210917935Y-112626660D01*
X210917938Y-112626673D01*
X211035466Y-113065299D01*
X211035469Y-113065309D01*
X211035470Y-113065310D01*
X211190788Y-113492041D01*
X211190791Y-113492048D01*
X211190792Y-113492050D01*
X211382701Y-113903602D01*
X211382709Y-113903617D01*
X211542304Y-114180043D01*
X211609765Y-114296888D01*
X211609769Y-114296894D01*
X211609776Y-114296905D01*
X211870236Y-114668881D01*
X212041572Y-114873070D01*
X212162137Y-115016754D01*
X212483246Y-115337863D01*
X212621669Y-115454014D01*
X212831118Y-115629763D01*
X213203094Y-115890223D01*
X213203101Y-115890227D01*
X213203112Y-115890235D01*
X213571688Y-116103033D01*
X213596382Y-116117290D01*
X213596397Y-116117298D01*
X213779309Y-116202590D01*
X214007959Y-116309212D01*
X214434690Y-116464530D01*
X214434696Y-116464531D01*
X214434700Y-116464533D01*
X214554151Y-116496539D01*
X214873334Y-116582064D01*
X215320552Y-116660921D01*
X215772939Y-116700499D01*
X215772940Y-116700500D01*
X215772941Y-116700500D01*
X216227060Y-116700500D01*
X216227060Y-116700499D01*
X216679448Y-116660921D01*
X217126666Y-116582064D01*
X217565310Y-116464530D01*
X217992041Y-116309212D01*
X218403611Y-116117294D01*
X218796888Y-115890235D01*
X219168880Y-115629764D01*
X219516754Y-115337863D01*
X219837863Y-115016754D01*
X220129764Y-114668880D01*
X220390235Y-114296888D01*
X220617294Y-113903611D01*
X220809212Y-113492041D01*
X220964530Y-113065310D01*
X221082064Y-112626666D01*
X221160921Y-112179448D01*
X221200500Y-111727059D01*
X221200500Y-111272941D01*
X221160921Y-110820552D01*
X221082064Y-110373334D01*
X220964530Y-109934690D01*
X220809212Y-109507959D01*
X220617294Y-109096389D01*
X220390235Y-108703112D01*
X220390227Y-108703101D01*
X220390223Y-108703094D01*
X220129763Y-108331118D01*
X219837860Y-107983243D01*
X219516756Y-107662139D01*
X219168881Y-107370236D01*
X218796905Y-107109776D01*
X218796894Y-107109769D01*
X218796888Y-107109765D01*
X218680043Y-107042304D01*
X218403617Y-106882709D01*
X218403602Y-106882701D01*
X217992050Y-106690792D01*
X217992048Y-106690791D01*
X217992041Y-106690788D01*
X217565310Y-106535470D01*
X217565309Y-106535469D01*
X217565299Y-106535466D01*
X217126673Y-106417938D01*
X217126676Y-106417938D01*
X217126666Y-106417936D01*
X217063527Y-106406802D01*
X216679450Y-106339079D01*
X216227062Y-106299500D01*
X216227059Y-106299500D01*
X215772941Y-106299500D01*
X215772937Y-106299500D01*
X215320549Y-106339079D01*
X214873339Y-106417935D01*
X214873336Y-106417935D01*
X214873334Y-106417936D01*
X214873329Y-106417937D01*
X214873326Y-106417938D01*
X214434700Y-106535466D01*
X214255967Y-106600520D01*
X214007959Y-106690788D01*
X214007955Y-106690789D01*
X214007949Y-106690792D01*
X213596397Y-106882701D01*
X213596382Y-106882709D01*
X213203120Y-107109760D01*
X213203094Y-107109776D01*
X212831118Y-107370236D01*
X212483243Y-107662139D01*
X212162139Y-107983243D01*
X211870236Y-108331118D01*
X211609776Y-108703094D01*
X211609760Y-108703120D01*
X211382709Y-109096382D01*
X211382701Y-109096397D01*
X211190792Y-109507949D01*
X211035466Y-109934700D01*
X210917938Y-110373326D01*
X210917935Y-110373339D01*
X210839079Y-110820549D01*
X210799500Y-111272937D01*
X175700500Y-111272937D01*
X175660921Y-110820552D01*
X175582064Y-110373334D01*
X175464530Y-109934690D01*
X175309212Y-109507959D01*
X175117294Y-109096389D01*
X174890235Y-108703112D01*
X174890227Y-108703101D01*
X174890223Y-108703094D01*
X174629763Y-108331118D01*
X174337860Y-107983243D01*
X174016756Y-107662139D01*
X173668881Y-107370236D01*
X173296905Y-107109776D01*
X173296894Y-107109769D01*
X173296888Y-107109765D01*
X173180043Y-107042304D01*
X172903617Y-106882709D01*
X172903601Y-106882701D01*
X172805342Y-106836882D01*
X172752903Y-106790710D01*
X172733751Y-106723516D01*
X172753967Y-106656635D01*
X172807132Y-106611301D01*
X172857747Y-106600500D01*
X200913331Y-106600500D01*
X200913347Y-106600501D01*
X200920943Y-106600501D01*
X201079054Y-106600501D01*
X201079057Y-106600501D01*
X201231785Y-106559577D01*
X201281904Y-106530639D01*
X201368716Y-106480520D01*
X201480520Y-106368716D01*
X201480520Y-106368714D01*
X201490728Y-106358507D01*
X201490730Y-106358504D01*
X216107037Y-91742196D01*
X216168358Y-91708713D01*
X216170379Y-91708291D01*
X216233497Y-91695737D01*
X216379179Y-91635394D01*
X216510289Y-91547789D01*
X216621789Y-91436289D01*
X216709394Y-91305179D01*
X216769737Y-91159497D01*
X216800500Y-91004842D01*
X216800500Y-90847158D01*
X216800500Y-90847155D01*
X216800499Y-90847153D01*
X216769738Y-90692510D01*
X216769737Y-90692503D01*
X216769735Y-90692498D01*
X216709397Y-90546827D01*
X216709390Y-90546814D01*
X216621789Y-90415711D01*
X216621786Y-90415707D01*
X216510292Y-90304213D01*
X216510288Y-90304210D01*
X216379185Y-90216609D01*
X216379172Y-90216602D01*
X216233501Y-90156264D01*
X216233489Y-90156261D01*
X216078845Y-90125500D01*
X216078842Y-90125500D01*
X215921158Y-90125500D01*
X215921155Y-90125500D01*
X215766510Y-90156261D01*
X215766498Y-90156264D01*
X215620827Y-90216602D01*
X215620814Y-90216609D01*
X215489711Y-90304210D01*
X215489707Y-90304213D01*
X215378213Y-90415707D01*
X215378210Y-90415711D01*
X215290609Y-90546814D01*
X215290602Y-90546827D01*
X215230264Y-90692498D01*
X215230261Y-90692510D01*
X215199500Y-90847153D01*
X215199500Y-90899903D01*
X215179815Y-90966942D01*
X215163181Y-90987584D01*
X200787584Y-105363181D01*
X200726261Y-105396666D01*
X200699903Y-105399500D01*
X165079766Y-105399500D01*
X165012727Y-105379815D01*
X165010875Y-105378602D01*
X164879185Y-105290609D01*
X164879172Y-105290602D01*
X164733501Y-105230264D01*
X164733489Y-105230261D01*
X164578845Y-105199500D01*
X164578842Y-105199500D01*
X164421158Y-105199500D01*
X164421155Y-105199500D01*
X164266510Y-105230261D01*
X164266507Y-105230261D01*
X164171952Y-105269427D01*
X164102482Y-105276895D01*
X164040003Y-105245619D01*
X164004351Y-105185530D01*
X164000500Y-105154865D01*
X164000500Y-75921153D01*
X165199500Y-75921153D01*
X165199500Y-76078846D01*
X165230261Y-76233489D01*
X165230264Y-76233501D01*
X165290602Y-76379172D01*
X165290609Y-76379185D01*
X165378602Y-76510874D01*
X165399480Y-76577551D01*
X165399500Y-76579765D01*
X165399500Y-94263273D01*
X165399499Y-94263291D01*
X165399499Y-94428997D01*
X165399498Y-94428997D01*
X165440423Y-94581728D01*
X165469358Y-94631843D01*
X165469359Y-94631847D01*
X165469360Y-94631847D01*
X165519479Y-94718657D01*
X165519481Y-94718660D01*
X165638349Y-94837528D01*
X165638355Y-94837533D01*
X174766196Y-103965374D01*
X174766206Y-103965385D01*
X174770536Y-103969715D01*
X174770537Y-103969716D01*
X174882341Y-104081520D01*
X174969152Y-104131639D01*
X174969154Y-104131641D01*
X175019270Y-104160576D01*
X175019272Y-104160577D01*
X175171999Y-104201500D01*
X175172000Y-104201500D01*
X195923529Y-104201500D01*
X195923545Y-104201501D01*
X195931141Y-104201501D01*
X196089252Y-104201501D01*
X196089255Y-104201501D01*
X196241983Y-104160577D01*
X196292102Y-104131639D01*
X196378914Y-104081520D01*
X196490718Y-103969716D01*
X196490718Y-103969714D01*
X196500926Y-103959507D01*
X196500927Y-103959504D01*
X214288520Y-86171912D01*
X214349841Y-86138429D01*
X214419533Y-86143413D01*
X214475466Y-86185285D01*
X214499883Y-86250749D01*
X214500199Y-86259595D01*
X214500199Y-86358966D01*
X214530972Y-86553262D01*
X214591765Y-86740361D01*
X214681074Y-86915638D01*
X214796705Y-87074790D01*
X214935809Y-87213894D01*
X215094961Y-87329525D01*
X215155484Y-87360363D01*
X215270237Y-87418833D01*
X215270239Y-87418833D01*
X215270242Y-87418835D01*
X215346910Y-87443746D01*
X215457336Y-87479626D01*
X215651633Y-87510400D01*
X215651638Y-87510400D01*
X215848365Y-87510400D01*
X216042661Y-87479626D01*
X216229756Y-87418835D01*
X216405037Y-87329525D01*
X216564189Y-87213894D01*
X216703293Y-87074790D01*
X216818924Y-86915638D01*
X216908234Y-86740357D01*
X216969025Y-86553262D01*
X216999799Y-86358966D01*
X216999799Y-86162233D01*
X216969025Y-85967937D01*
X216908232Y-85780838D01*
X216818923Y-85605561D01*
X216703293Y-85446410D01*
X216564189Y-85307306D01*
X216405037Y-85191675D01*
X216229760Y-85102366D01*
X216042661Y-85041573D01*
X215848365Y-85010800D01*
X215848360Y-85010800D01*
X215748995Y-85010800D01*
X215681956Y-84991115D01*
X215636201Y-84938311D01*
X215626257Y-84869153D01*
X215655282Y-84805597D01*
X215661314Y-84799119D01*
X217280819Y-83179615D01*
X217359876Y-83042684D01*
X217400800Y-82889956D01*
X217400800Y-82731841D01*
X217400800Y-82724246D01*
X217400799Y-82724228D01*
X217400799Y-79221244D01*
X217400799Y-79221242D01*
X217374151Y-79121789D01*
X217359876Y-79068514D01*
X217330938Y-79018394D01*
X217280819Y-78931583D01*
X217169015Y-78819779D01*
X217169014Y-78819778D01*
X217164684Y-78815448D01*
X217164673Y-78815438D01*
X214161416Y-75812181D01*
X214127931Y-75750858D01*
X214132915Y-75681166D01*
X214174787Y-75625233D01*
X214240251Y-75600816D01*
X214249097Y-75600500D01*
X215199903Y-75600500D01*
X215266942Y-75620185D01*
X215287584Y-75636819D01*
X218165425Y-78514660D01*
X218198910Y-78575983D01*
X218199361Y-78578149D01*
X218230261Y-78733491D01*
X218230264Y-78733501D01*
X218290602Y-78879172D01*
X218290609Y-78879185D01*
X218378210Y-79010288D01*
X218378213Y-79010292D01*
X218489707Y-79121786D01*
X218489711Y-79121789D01*
X218620814Y-79209390D01*
X218620827Y-79209397D01*
X218766498Y-79269735D01*
X218766503Y-79269737D01*
X218921153Y-79300499D01*
X218921156Y-79300500D01*
X218921158Y-79300500D01*
X219078844Y-79300500D01*
X219078845Y-79300499D01*
X219233497Y-79269737D01*
X219379179Y-79209394D01*
X219510289Y-79121789D01*
X219621789Y-79010289D01*
X219709394Y-78879179D01*
X219769737Y-78733497D01*
X219800500Y-78578842D01*
X219800500Y-78421158D01*
X219800500Y-78421155D01*
X219800499Y-78421153D01*
X219769738Y-78266510D01*
X219769737Y-78266503D01*
X219769735Y-78266498D01*
X219709397Y-78120827D01*
X219709390Y-78120814D01*
X219621789Y-77989711D01*
X219621786Y-77989707D01*
X219510292Y-77878213D01*
X219510288Y-77878210D01*
X219379185Y-77790609D01*
X219379172Y-77790602D01*
X219233501Y-77730264D01*
X219233491Y-77730261D01*
X219078149Y-77699361D01*
X219016238Y-77666976D01*
X219014660Y-77665425D01*
X215987590Y-74638355D01*
X215987588Y-74638352D01*
X215868717Y-74519481D01*
X215868716Y-74519480D01*
X215781904Y-74469360D01*
X215781904Y-74469359D01*
X215781900Y-74469358D01*
X215731785Y-74440423D01*
X215579057Y-74399499D01*
X215420943Y-74399499D01*
X215413347Y-74399499D01*
X215413331Y-74399500D01*
X212586669Y-74399500D01*
X212586653Y-74399499D01*
X212579057Y-74399499D01*
X212420943Y-74399499D01*
X212329446Y-74424016D01*
X212268210Y-74440424D01*
X212268209Y-74440425D01*
X212218096Y-74469359D01*
X212218095Y-74469360D01*
X212182853Y-74489707D01*
X212131285Y-74519479D01*
X212131282Y-74519481D01*
X212019479Y-74631284D01*
X212014078Y-74640640D01*
X211980096Y-74699500D01*
X211940423Y-74768215D01*
X211899499Y-74920943D01*
X211899499Y-74920945D01*
X211899499Y-75079054D01*
X211899498Y-75079054D01*
X211922664Y-75165510D01*
X211940423Y-75231785D01*
X211960468Y-75266503D01*
X211998873Y-75333023D01*
X212019479Y-75368715D01*
X212138349Y-75487585D01*
X212138355Y-75487590D01*
X216163480Y-79512715D01*
X216196965Y-79574038D01*
X216199799Y-79600396D01*
X216199799Y-80386799D01*
X216180114Y-80453838D01*
X216127310Y-80499593D01*
X216075799Y-80510799D01*
X214952828Y-80510799D01*
X214952822Y-80510800D01*
X214893215Y-80517207D01*
X214758370Y-80567501D01*
X214758363Y-80567505D01*
X214643154Y-80653751D01*
X214583868Y-80732947D01*
X214527934Y-80774817D01*
X214458242Y-80779801D01*
X214437150Y-80773197D01*
X214424345Y-80767893D01*
X214333497Y-80730263D01*
X214333492Y-80730262D01*
X214333489Y-80730261D01*
X214178845Y-80699500D01*
X214178842Y-80699500D01*
X214100097Y-80699500D01*
X214033058Y-80679815D01*
X214012416Y-80663181D01*
X207834574Y-74485339D01*
X207801089Y-74424016D01*
X207800638Y-74421849D01*
X207774531Y-74290606D01*
X207769737Y-74266503D01*
X207769735Y-74266498D01*
X207709397Y-74120827D01*
X207709390Y-74120814D01*
X207621789Y-73989711D01*
X207621786Y-73989707D01*
X207510291Y-73878212D01*
X207495544Y-73868359D01*
X207458991Y-73843934D01*
X207414188Y-73790325D01*
X207405479Y-73721000D01*
X207435633Y-73657973D01*
X207440183Y-73653172D01*
X214866970Y-66226385D01*
X214869423Y-66223934D01*
X214898064Y-66208301D01*
X214896727Y-66205627D01*
X214896735Y-66205623D01*
X214898072Y-66208297D01*
X214900103Y-66207188D01*
X214930703Y-66190472D01*
X214930729Y-66190473D01*
X214930753Y-66190461D01*
X214965499Y-66192953D01*
X215000396Y-66195442D01*
X215000421Y-66195458D01*
X215000443Y-66195460D01*
X215000557Y-66195545D01*
X215044767Y-66223952D01*
X215092786Y-66271971D01*
X215217343Y-66362465D01*
X215258390Y-66392287D01*
X215374607Y-66451503D01*
X215440776Y-66485218D01*
X215440778Y-66485218D01*
X215440781Y-66485220D01*
X215534940Y-66515814D01*
X215635465Y-66548477D01*
X215736557Y-66564488D01*
X215837648Y-66580500D01*
X215837649Y-66580500D01*
X216042351Y-66580500D01*
X216042352Y-66580500D01*
X216244534Y-66548477D01*
X216439219Y-66485220D01*
X216621610Y-66392287D01*
X216727733Y-66315185D01*
X216787213Y-66271971D01*
X216787215Y-66271968D01*
X216787219Y-66271966D01*
X216931966Y-66127219D01*
X216931968Y-66127215D01*
X216931971Y-66127213D01*
X217052284Y-65961614D01*
X217052286Y-65961611D01*
X217052287Y-65961610D01*
X217099516Y-65868917D01*
X217147489Y-65818123D01*
X217215310Y-65801328D01*
X217281445Y-65823865D01*
X217320483Y-65868917D01*
X217354976Y-65936613D01*
X217367715Y-65961614D01*
X217488028Y-66127213D01*
X217632786Y-66271971D01*
X217757343Y-66362465D01*
X217798390Y-66392287D01*
X217914607Y-66451503D01*
X217980776Y-66485218D01*
X217980778Y-66485218D01*
X217980781Y-66485220D01*
X218074940Y-66515814D01*
X218175465Y-66548477D01*
X218276557Y-66564488D01*
X218377648Y-66580500D01*
X218377649Y-66580500D01*
X218582351Y-66580500D01*
X218582352Y-66580500D01*
X218784534Y-66548477D01*
X218979219Y-66485220D01*
X219161610Y-66392287D01*
X219267733Y-66315185D01*
X219327213Y-66271971D01*
X219327215Y-66271968D01*
X219327219Y-66271966D01*
X219471966Y-66127219D01*
X219471968Y-66127215D01*
X219471971Y-66127213D01*
X219546749Y-66024288D01*
X219592287Y-65961610D01*
X219685220Y-65779219D01*
X219748477Y-65584534D01*
X219780500Y-65382352D01*
X219780500Y-65177648D01*
X219748477Y-64975466D01*
X219747673Y-64972993D01*
X219685218Y-64780776D01*
X219639515Y-64691080D01*
X219592287Y-64598390D01*
X219561653Y-64556225D01*
X219471971Y-64432786D01*
X219327213Y-64288028D01*
X219161613Y-64167715D01*
X219161612Y-64167714D01*
X219161610Y-64167713D01*
X219076855Y-64124528D01*
X218979223Y-64074781D01*
X218784534Y-64011522D01*
X218609995Y-63983878D01*
X218582352Y-63979500D01*
X218377648Y-63979500D01*
X218353329Y-63983351D01*
X218175465Y-64011522D01*
X217980776Y-64074781D01*
X217798386Y-64167715D01*
X217632786Y-64288028D01*
X217488028Y-64432786D01*
X217367715Y-64598386D01*
X217320485Y-64691080D01*
X217272510Y-64741876D01*
X217204689Y-64758671D01*
X217138554Y-64736134D01*
X217099515Y-64691080D01*
X217065990Y-64625284D01*
X217052287Y-64598390D01*
X217021653Y-64556225D01*
X216931971Y-64432786D01*
X216787213Y-64288028D01*
X216621614Y-64167715D01*
X216482137Y-64096648D01*
X216431341Y-64048673D01*
X216414546Y-63980852D01*
X216437083Y-63914717D01*
X216450745Y-63898488D01*
X220931520Y-59417716D01*
X221010577Y-59280784D01*
X221051501Y-59128057D01*
X221051501Y-58969942D01*
X221051501Y-58962347D01*
X221051500Y-58962329D01*
X221051500Y-53869109D01*
X221051500Y-53869107D01*
X221010577Y-53716380D01*
X220995193Y-53689734D01*
X220931524Y-53579454D01*
X220931521Y-53579450D01*
X220931520Y-53579448D01*
X220819716Y-53467644D01*
X220819715Y-53467643D01*
X220815385Y-53463313D01*
X220815374Y-53463303D01*
X216576819Y-49224748D01*
X216543334Y-49163425D01*
X216540500Y-49137067D01*
X216540500Y-48729601D01*
X216560185Y-48662562D01*
X216608206Y-48619116D01*
X216621610Y-48612287D01*
X216787219Y-48491966D01*
X216931966Y-48347219D01*
X216931968Y-48347215D01*
X216931971Y-48347213D01*
X217052284Y-48181614D01*
X217052285Y-48181613D01*
X217052287Y-48181610D01*
X217099516Y-48088917D01*
X217147489Y-48038123D01*
X217215310Y-48021328D01*
X217281445Y-48043865D01*
X217320485Y-48088919D01*
X217367715Y-48181614D01*
X217488028Y-48347213D01*
X217632786Y-48491971D01*
X217784232Y-48602001D01*
X217798390Y-48612287D01*
X217879499Y-48653614D01*
X217980776Y-48705218D01*
X217980778Y-48705218D01*
X217980781Y-48705220D01*
X218055818Y-48729601D01*
X218175465Y-48768477D01*
X218276557Y-48784488D01*
X218377648Y-48800500D01*
X218377649Y-48800500D01*
X218582351Y-48800500D01*
X218582352Y-48800500D01*
X218784534Y-48768477D01*
X218979219Y-48705220D01*
X219161610Y-48612287D01*
X219254590Y-48544732D01*
X219327213Y-48491971D01*
X219327215Y-48491968D01*
X219327219Y-48491966D01*
X219471966Y-48347219D01*
X219471968Y-48347215D01*
X219471971Y-48347213D01*
X219539420Y-48254376D01*
X219592287Y-48181610D01*
X219685220Y-47999219D01*
X219748477Y-47804534D01*
X219780500Y-47602352D01*
X219780500Y-47397648D01*
X219748477Y-47195466D01*
X219747673Y-47192993D01*
X219685218Y-47000776D01*
X219636057Y-46904294D01*
X219592287Y-46818390D01*
X219557919Y-46771086D01*
X219471971Y-46652786D01*
X219327213Y-46508028D01*
X219161613Y-46387715D01*
X219161612Y-46387714D01*
X219161610Y-46387713D01*
X219104653Y-46358691D01*
X218979223Y-46294781D01*
X218784534Y-46231522D01*
X218609995Y-46203878D01*
X218582352Y-46199500D01*
X218377648Y-46199500D01*
X218353329Y-46203351D01*
X218175465Y-46231522D01*
X217980776Y-46294781D01*
X217798386Y-46387715D01*
X217632786Y-46508028D01*
X217488028Y-46652786D01*
X217367715Y-46818386D01*
X217320485Y-46911080D01*
X217272510Y-46961876D01*
X217204689Y-46978671D01*
X217138554Y-46956134D01*
X217099515Y-46911080D01*
X217095782Y-46903754D01*
X217052287Y-46818390D01*
X217017919Y-46771086D01*
X216931971Y-46652786D01*
X216787213Y-46508028D01*
X216621610Y-46387712D01*
X216608200Y-46380879D01*
X216557406Y-46332903D01*
X216540500Y-46270397D01*
X216540500Y-44639765D01*
X216560185Y-44572726D01*
X216561398Y-44570874D01*
X216649390Y-44439185D01*
X216649390Y-44439184D01*
X216649394Y-44439179D01*
X216709737Y-44293497D01*
X216740500Y-44138842D01*
X216740500Y-43981158D01*
X216740500Y-43981155D01*
X216740499Y-43981153D01*
X216709738Y-43826510D01*
X216709737Y-43826503D01*
X216709735Y-43826498D01*
X216649397Y-43680827D01*
X216649390Y-43680814D01*
X216561789Y-43549711D01*
X216561786Y-43549707D01*
X216450292Y-43438213D01*
X216450288Y-43438210D01*
X216319185Y-43350609D01*
X216319172Y-43350602D01*
X216173501Y-43290264D01*
X216173489Y-43290261D01*
X216018845Y-43259500D01*
X216018842Y-43259500D01*
X215861158Y-43259500D01*
X215861155Y-43259500D01*
X215706510Y-43290261D01*
X215706498Y-43290264D01*
X215560827Y-43350602D01*
X215560814Y-43350609D01*
X215429711Y-43438210D01*
X215429707Y-43438213D01*
X215318213Y-43549707D01*
X215318210Y-43549711D01*
X215230609Y-43680814D01*
X215230602Y-43680827D01*
X215170264Y-43826498D01*
X215170261Y-43826510D01*
X215139500Y-43981153D01*
X215139500Y-44138846D01*
X215170261Y-44293489D01*
X215170264Y-44293501D01*
X215230602Y-44439172D01*
X215230609Y-44439185D01*
X215318602Y-44570874D01*
X215339480Y-44637551D01*
X215339500Y-44639765D01*
X215339500Y-46270397D01*
X215319815Y-46337436D01*
X215271800Y-46380879D01*
X215258389Y-46387712D01*
X215092786Y-46508028D01*
X214948028Y-46652786D01*
X214827715Y-46818386D01*
X214783942Y-46904295D01*
X214735967Y-46955091D01*
X214668146Y-46971886D01*
X214602011Y-46949348D01*
X214564099Y-46906454D01*
X214528844Y-46840498D01*
X214528838Y-46840488D01*
X214482465Y-46771085D01*
X213882962Y-47370588D01*
X213865925Y-47307007D01*
X213800099Y-47192993D01*
X213707007Y-47099901D01*
X213592993Y-47034075D01*
X213529410Y-47017037D01*
X214128912Y-46417534D01*
X214059511Y-46371161D01*
X214059501Y-46371155D01*
X213972198Y-46324490D01*
X213826612Y-46264185D01*
X213731864Y-46235444D01*
X213577300Y-46204701D01*
X213478790Y-46195000D01*
X213321210Y-46195000D01*
X213222700Y-46204701D01*
X213222697Y-46204701D01*
X213068135Y-46235444D01*
X212973387Y-46264185D01*
X212827801Y-46324490D01*
X212740493Y-46371158D01*
X212671086Y-46417534D01*
X212671085Y-46417534D01*
X213270589Y-47017037D01*
X213207007Y-47034075D01*
X213092993Y-47099901D01*
X212999901Y-47192993D01*
X212934075Y-47307007D01*
X212917037Y-47370588D01*
X212317534Y-46771085D01*
X212317534Y-46771086D01*
X212271155Y-46840497D01*
X212235899Y-46906455D01*
X212186936Y-46956299D01*
X212118798Y-46971758D01*
X212053119Y-46947925D01*
X212016057Y-46904294D01*
X212015782Y-46903755D01*
X211972287Y-46818390D01*
X211972286Y-46818388D01*
X211851971Y-46652786D01*
X211707213Y-46508028D01*
X211541613Y-46387715D01*
X211541612Y-46387714D01*
X211541610Y-46387713D01*
X211484653Y-46358691D01*
X211359223Y-46294781D01*
X211164534Y-46231522D01*
X210989995Y-46203878D01*
X210962352Y-46199500D01*
X210757648Y-46199500D01*
X210733329Y-46203351D01*
X210555465Y-46231522D01*
X210360776Y-46294781D01*
X210178386Y-46387715D01*
X210012786Y-46508028D01*
X209868028Y-46652786D01*
X209747715Y-46818386D01*
X209700485Y-46911080D01*
X209652510Y-46961876D01*
X209584689Y-46978671D01*
X209518554Y-46956134D01*
X209479515Y-46911080D01*
X209475782Y-46903754D01*
X209432287Y-46818390D01*
X209397919Y-46771086D01*
X209311971Y-46652786D01*
X209167213Y-46508028D01*
X209001613Y-46387715D01*
X209001612Y-46387714D01*
X209001610Y-46387713D01*
X208944653Y-46358691D01*
X208819223Y-46294781D01*
X208624534Y-46231522D01*
X208449995Y-46203878D01*
X208422352Y-46199500D01*
X208217648Y-46199500D01*
X208193329Y-46203351D01*
X208015465Y-46231522D01*
X207820776Y-46294781D01*
X207638386Y-46387715D01*
X207472786Y-46508028D01*
X207328028Y-46652786D01*
X207207715Y-46818386D01*
X207160485Y-46911080D01*
X207112510Y-46961876D01*
X207044689Y-46978671D01*
X206978554Y-46956134D01*
X206939515Y-46911080D01*
X206935782Y-46903754D01*
X206892287Y-46818390D01*
X206857919Y-46771086D01*
X206771971Y-46652786D01*
X206627213Y-46508028D01*
X206461613Y-46387715D01*
X206461612Y-46387714D01*
X206461610Y-46387713D01*
X206404653Y-46358691D01*
X206279223Y-46294781D01*
X206084534Y-46231522D01*
X205909995Y-46203878D01*
X205882352Y-46199500D01*
X205677648Y-46199500D01*
X205653329Y-46203351D01*
X205475465Y-46231522D01*
X205280776Y-46294781D01*
X205098386Y-46387715D01*
X204932786Y-46508028D01*
X204788028Y-46652786D01*
X204667715Y-46818386D01*
X204620485Y-46911080D01*
X204572510Y-46961876D01*
X204504689Y-46978671D01*
X204438554Y-46956134D01*
X204399515Y-46911080D01*
X204395782Y-46903754D01*
X204352287Y-46818390D01*
X204317919Y-46771086D01*
X204231971Y-46652786D01*
X204087213Y-46508028D01*
X203921613Y-46387715D01*
X203921612Y-46387714D01*
X203921610Y-46387713D01*
X203864653Y-46358691D01*
X203739223Y-46294781D01*
X203544534Y-46231522D01*
X203369995Y-46203878D01*
X203342352Y-46199500D01*
X203137648Y-46199500D01*
X203113329Y-46203351D01*
X202935465Y-46231522D01*
X202740776Y-46294781D01*
X202558386Y-46387715D01*
X202392786Y-46508028D01*
X202248028Y-46652786D01*
X202127715Y-46818386D01*
X202083942Y-46904295D01*
X202035967Y-46955091D01*
X201968146Y-46971886D01*
X201902011Y-46949348D01*
X201864099Y-46906454D01*
X201828844Y-46840498D01*
X201828838Y-46840488D01*
X201782465Y-46771085D01*
X201182962Y-47370588D01*
X201165925Y-47307007D01*
X201100099Y-47192993D01*
X201007007Y-47099901D01*
X200892993Y-47034075D01*
X200829410Y-47017037D01*
X201428912Y-46417534D01*
X201359511Y-46371161D01*
X201359501Y-46371155D01*
X201272198Y-46324490D01*
X201126612Y-46264185D01*
X201031864Y-46235444D01*
X200877300Y-46204701D01*
X200778790Y-46195000D01*
X200621210Y-46195000D01*
X200522700Y-46204701D01*
X200522697Y-46204701D01*
X200368135Y-46235444D01*
X200273387Y-46264185D01*
X200127801Y-46324490D01*
X200040493Y-46371158D01*
X199971086Y-46417534D01*
X199971085Y-46417534D01*
X200570589Y-47017037D01*
X200507007Y-47034075D01*
X200392993Y-47099901D01*
X200299901Y-47192993D01*
X200234075Y-47307007D01*
X200217037Y-47370588D01*
X199617534Y-46771085D01*
X199617534Y-46771086D01*
X199571155Y-46840497D01*
X199535899Y-46906455D01*
X199486936Y-46956299D01*
X199418798Y-46971758D01*
X199353119Y-46947925D01*
X199316057Y-46904294D01*
X199315782Y-46903755D01*
X199272287Y-46818390D01*
X199272286Y-46818388D01*
X199151971Y-46652786D01*
X199007213Y-46508028D01*
X198841613Y-46387715D01*
X198841612Y-46387714D01*
X198841610Y-46387713D01*
X198784653Y-46358691D01*
X198659223Y-46294781D01*
X198464534Y-46231522D01*
X198289995Y-46203878D01*
X198262352Y-46199500D01*
X198057648Y-46199500D01*
X198033329Y-46203351D01*
X197855465Y-46231522D01*
X197660776Y-46294781D01*
X197478386Y-46387715D01*
X197312786Y-46508028D01*
X197168028Y-46652786D01*
X197047715Y-46818386D01*
X197000485Y-46911080D01*
X196952510Y-46961876D01*
X196884689Y-46978671D01*
X196818554Y-46956134D01*
X196779515Y-46911080D01*
X196775782Y-46903754D01*
X196732287Y-46818390D01*
X196697919Y-46771086D01*
X196611971Y-46652786D01*
X196467213Y-46508028D01*
X196301613Y-46387715D01*
X196301612Y-46387714D01*
X196301610Y-46387713D01*
X196244653Y-46358691D01*
X196119223Y-46294781D01*
X195924534Y-46231522D01*
X195749995Y-46203878D01*
X195722352Y-46199500D01*
X195517648Y-46199500D01*
X195493329Y-46203351D01*
X195315465Y-46231522D01*
X195120776Y-46294781D01*
X194938386Y-46387715D01*
X194772786Y-46508028D01*
X194628028Y-46652786D01*
X194507715Y-46818386D01*
X194460485Y-46911080D01*
X194412510Y-46961876D01*
X194344689Y-46978671D01*
X194278554Y-46956134D01*
X194239515Y-46911080D01*
X194235782Y-46903754D01*
X194192287Y-46818390D01*
X194157919Y-46771086D01*
X194071971Y-46652786D01*
X193927213Y-46508028D01*
X193761613Y-46387715D01*
X193761612Y-46387714D01*
X193761610Y-46387713D01*
X193704653Y-46358691D01*
X193579223Y-46294781D01*
X193384534Y-46231522D01*
X193209995Y-46203878D01*
X193182352Y-46199500D01*
X192977648Y-46199500D01*
X192953329Y-46203351D01*
X192775465Y-46231522D01*
X192580776Y-46294781D01*
X192398386Y-46387715D01*
X192232786Y-46508028D01*
X192088028Y-46652786D01*
X191967715Y-46818386D01*
X191920485Y-46911080D01*
X191872510Y-46961876D01*
X191804689Y-46978671D01*
X191738554Y-46956134D01*
X191699515Y-46911080D01*
X191695782Y-46903754D01*
X191652287Y-46818390D01*
X191617919Y-46771086D01*
X191531971Y-46652786D01*
X191387213Y-46508028D01*
X191221613Y-46387715D01*
X191221612Y-46387714D01*
X191221610Y-46387713D01*
X191164653Y-46358691D01*
X191039223Y-46294781D01*
X190844534Y-46231522D01*
X190669995Y-46203878D01*
X190642352Y-46199500D01*
X190437648Y-46199500D01*
X190413329Y-46203351D01*
X190235465Y-46231522D01*
X190040776Y-46294781D01*
X189858386Y-46387715D01*
X189692786Y-46508028D01*
X189548028Y-46652786D01*
X189427713Y-46818388D01*
X189384216Y-46903755D01*
X189336241Y-46954550D01*
X189268420Y-46971345D01*
X189202286Y-46948807D01*
X189164374Y-46905912D01*
X189129265Y-46840228D01*
X189129263Y-46840226D01*
X189129259Y-46840217D01*
X189114675Y-46818390D01*
X189041721Y-46709206D01*
X189041712Y-46709194D01*
X189041709Y-46709189D01*
X188978843Y-46632588D01*
X188867412Y-46521157D01*
X188790811Y-46458291D01*
X188790804Y-46458286D01*
X188790793Y-46458278D01*
X188659799Y-46370751D01*
X188659771Y-46370734D01*
X188572396Y-46324031D01*
X188572391Y-46324029D01*
X188426799Y-46263722D01*
X188401190Y-46255954D01*
X188331968Y-46234956D01*
X188177410Y-46204213D01*
X188177406Y-46204212D01*
X188177398Y-46204211D01*
X188097926Y-46196384D01*
X188078793Y-46194500D01*
X187921207Y-46194500D01*
X187902073Y-46196384D01*
X187822602Y-46204211D01*
X187822599Y-46204211D01*
X187685296Y-46231522D01*
X187668032Y-46234956D01*
X187624416Y-46248186D01*
X187573200Y-46263722D01*
X187427608Y-46324029D01*
X187427603Y-46324031D01*
X187340228Y-46370734D01*
X187340200Y-46370751D01*
X187209206Y-46458278D01*
X187209194Y-46458287D01*
X187209189Y-46458290D01*
X187209189Y-46458291D01*
X187132588Y-46521157D01*
X187132585Y-46521160D01*
X187132582Y-46521162D01*
X187021162Y-46632582D01*
X187021160Y-46632585D01*
X187021157Y-46632588D01*
X187004585Y-46652781D01*
X186958287Y-46709194D01*
X186958278Y-46709206D01*
X186870751Y-46840200D01*
X186870734Y-46840228D01*
X186835624Y-46905914D01*
X186786661Y-46955757D01*
X186718524Y-46971217D01*
X186652844Y-46947384D01*
X186615782Y-46903754D01*
X186572287Y-46818390D01*
X186572285Y-46818387D01*
X186572284Y-46818385D01*
X186451971Y-46652786D01*
X186307213Y-46508028D01*
X186141613Y-46387715D01*
X186141612Y-46387714D01*
X186141610Y-46387713D01*
X186084653Y-46358691D01*
X185959223Y-46294781D01*
X185764534Y-46231522D01*
X185589995Y-46203878D01*
X185562352Y-46199500D01*
X185357648Y-46199500D01*
X185333329Y-46203351D01*
X185155465Y-46231522D01*
X184960776Y-46294781D01*
X184778386Y-46387715D01*
X184612786Y-46508028D01*
X184468028Y-46652786D01*
X184347715Y-46818386D01*
X184300485Y-46911080D01*
X184252510Y-46961876D01*
X184184689Y-46978671D01*
X184118554Y-46956134D01*
X184079515Y-46911080D01*
X184075782Y-46903754D01*
X184032287Y-46818390D01*
X183997919Y-46771086D01*
X183911971Y-46652786D01*
X183767213Y-46508028D01*
X183601613Y-46387715D01*
X183601612Y-46387714D01*
X183601610Y-46387713D01*
X183544653Y-46358691D01*
X183419223Y-46294781D01*
X183224534Y-46231522D01*
X183049995Y-46203878D01*
X183022352Y-46199500D01*
X182817648Y-46199500D01*
X182793329Y-46203351D01*
X182615465Y-46231522D01*
X182420776Y-46294781D01*
X182238386Y-46387715D01*
X182072786Y-46508028D01*
X181928028Y-46652786D01*
X181807715Y-46818386D01*
X181760485Y-46911080D01*
X181712510Y-46961876D01*
X181644689Y-46978671D01*
X181578554Y-46956134D01*
X181539515Y-46911080D01*
X181535782Y-46903754D01*
X181492287Y-46818390D01*
X181457919Y-46771086D01*
X181371971Y-46652786D01*
X181227213Y-46508028D01*
X181061613Y-46387715D01*
X181061612Y-46387714D01*
X181061610Y-46387713D01*
X181004653Y-46358691D01*
X180879223Y-46294781D01*
X180684534Y-46231522D01*
X180509995Y-46203878D01*
X180482352Y-46199500D01*
X180277648Y-46199500D01*
X180253329Y-46203351D01*
X180075465Y-46231522D01*
X179880776Y-46294781D01*
X179698386Y-46387715D01*
X179532786Y-46508028D01*
X179388028Y-46652786D01*
X179267715Y-46818386D01*
X179220485Y-46911080D01*
X179172510Y-46961876D01*
X179104689Y-46978671D01*
X179038554Y-46956134D01*
X178999515Y-46911080D01*
X178995782Y-46903754D01*
X178952287Y-46818390D01*
X178917919Y-46771086D01*
X178831971Y-46652786D01*
X178687213Y-46508028D01*
X178521613Y-46387715D01*
X178521612Y-46387714D01*
X178521610Y-46387713D01*
X178464653Y-46358691D01*
X178339223Y-46294781D01*
X178144534Y-46231522D01*
X177969995Y-46203878D01*
X177942352Y-46199500D01*
X177737648Y-46199500D01*
X177713329Y-46203351D01*
X177535465Y-46231522D01*
X177340776Y-46294781D01*
X177158386Y-46387715D01*
X176992786Y-46508028D01*
X176848028Y-46652786D01*
X176727715Y-46818386D01*
X176683942Y-46904295D01*
X176635967Y-46955091D01*
X176568146Y-46971886D01*
X176502011Y-46949348D01*
X176464099Y-46906454D01*
X176428844Y-46840498D01*
X176428838Y-46840488D01*
X176382465Y-46771085D01*
X175782962Y-47370588D01*
X175765925Y-47307007D01*
X175700099Y-47192993D01*
X175607007Y-47099901D01*
X175492993Y-47034075D01*
X175429410Y-47017037D01*
X176028912Y-46417534D01*
X175959511Y-46371161D01*
X175959501Y-46371155D01*
X175872198Y-46324490D01*
X175726612Y-46264185D01*
X175631864Y-46235444D01*
X175477300Y-46204701D01*
X175378790Y-46195000D01*
X175221210Y-46195000D01*
X175122700Y-46204701D01*
X175122697Y-46204701D01*
X174968135Y-46235444D01*
X174873387Y-46264185D01*
X174727801Y-46324490D01*
X174640493Y-46371158D01*
X174571086Y-46417534D01*
X174571085Y-46417534D01*
X175170589Y-47017037D01*
X175107007Y-47034075D01*
X174992993Y-47099901D01*
X174899901Y-47192993D01*
X174834075Y-47307007D01*
X174817037Y-47370588D01*
X174217534Y-46771085D01*
X174217534Y-46771086D01*
X174171155Y-46840497D01*
X174135899Y-46906455D01*
X174086936Y-46956299D01*
X174018798Y-46971758D01*
X173953119Y-46947925D01*
X173916057Y-46904294D01*
X173915782Y-46903755D01*
X173872287Y-46818390D01*
X173872286Y-46818388D01*
X173751971Y-46652786D01*
X173607213Y-46508028D01*
X173441613Y-46387715D01*
X173441612Y-46387714D01*
X173441610Y-46387713D01*
X173384653Y-46358691D01*
X173259223Y-46294781D01*
X173064534Y-46231522D01*
X172889995Y-46203878D01*
X172862352Y-46199500D01*
X172657648Y-46199500D01*
X172633329Y-46203351D01*
X172455465Y-46231522D01*
X172260776Y-46294781D01*
X172078386Y-46387715D01*
X171912786Y-46508028D01*
X171768028Y-46652786D01*
X171647715Y-46818386D01*
X171600485Y-46911080D01*
X171552510Y-46961876D01*
X171484689Y-46978671D01*
X171418554Y-46956134D01*
X171379515Y-46911080D01*
X171375782Y-46903754D01*
X171332287Y-46818390D01*
X171297919Y-46771086D01*
X171211971Y-46652786D01*
X171067213Y-46508028D01*
X170901613Y-46387715D01*
X170901612Y-46387714D01*
X170901610Y-46387713D01*
X170844653Y-46358691D01*
X170719223Y-46294781D01*
X170524534Y-46231522D01*
X170349995Y-46203878D01*
X170322352Y-46199500D01*
X170117648Y-46199500D01*
X170093329Y-46203351D01*
X169915465Y-46231522D01*
X169720776Y-46294781D01*
X169538386Y-46387715D01*
X169372786Y-46508028D01*
X169228028Y-46652786D01*
X169107715Y-46818386D01*
X169014781Y-47000776D01*
X168951522Y-47195465D01*
X168919500Y-47397648D01*
X168919500Y-47602351D01*
X168951522Y-47804534D01*
X169014781Y-47999223D01*
X169107715Y-48181613D01*
X169228028Y-48347213D01*
X169372786Y-48491971D01*
X169524232Y-48602001D01*
X169538390Y-48612287D01*
X169619499Y-48653614D01*
X169720776Y-48705218D01*
X169720778Y-48705218D01*
X169720781Y-48705220D01*
X169795818Y-48729601D01*
X169915465Y-48768477D01*
X170016557Y-48784488D01*
X170117648Y-48800500D01*
X170117649Y-48800500D01*
X170322351Y-48800500D01*
X170322352Y-48800500D01*
X170524534Y-48768477D01*
X170719219Y-48705220D01*
X170901610Y-48612287D01*
X170994590Y-48544732D01*
X171067213Y-48491971D01*
X171067215Y-48491968D01*
X171067219Y-48491966D01*
X171211966Y-48347219D01*
X171211968Y-48347215D01*
X171211971Y-48347213D01*
X171332284Y-48181614D01*
X171332285Y-48181613D01*
X171332287Y-48181610D01*
X171379516Y-48088917D01*
X171427489Y-48038123D01*
X171495310Y-48021328D01*
X171561445Y-48043865D01*
X171600485Y-48088919D01*
X171647715Y-48181614D01*
X171768028Y-48347213D01*
X171912786Y-48491971D01*
X172064232Y-48602001D01*
X172078390Y-48612287D01*
X172159499Y-48653614D01*
X172260776Y-48705218D01*
X172260778Y-48705218D01*
X172260781Y-48705220D01*
X172335818Y-48729601D01*
X172455465Y-48768477D01*
X172556557Y-48784488D01*
X172657648Y-48800500D01*
X172657649Y-48800500D01*
X172862351Y-48800500D01*
X172862352Y-48800500D01*
X173064534Y-48768477D01*
X173259219Y-48705220D01*
X173441610Y-48612287D01*
X173455768Y-48602001D01*
X173607213Y-48491971D01*
X173607215Y-48491968D01*
X173607219Y-48491966D01*
X173751966Y-48347219D01*
X173807766Y-48270415D01*
X173863096Y-48227750D01*
X173932710Y-48221771D01*
X173994505Y-48254376D01*
X174028233Y-48312635D01*
X174033438Y-48333030D01*
X174033442Y-48333043D01*
X174056862Y-48389584D01*
X174817037Y-47629410D01*
X174834075Y-47692993D01*
X174899901Y-47807007D01*
X174992993Y-47900099D01*
X175107007Y-47965925D01*
X175170589Y-47982962D01*
X174410414Y-48743135D01*
X174466960Y-48766557D01*
X174466964Y-48766559D01*
X174517946Y-48784544D01*
X174660219Y-48804999D01*
X174660221Y-48805000D01*
X175939786Y-48805000D01*
X175993762Y-48802106D01*
X175993764Y-48802106D01*
X176133039Y-48766558D01*
X176189584Y-48743136D01*
X176189584Y-48743135D01*
X175429410Y-47982962D01*
X175492993Y-47965925D01*
X175607007Y-47900099D01*
X175700099Y-47807007D01*
X175765925Y-47692993D01*
X175782962Y-47629410D01*
X176543135Y-48389584D01*
X176543136Y-48389584D01*
X176566553Y-48333052D01*
X176576668Y-48304379D01*
X176617533Y-48247706D01*
X176682551Y-48222123D01*
X176751078Y-48235752D01*
X176793924Y-48272744D01*
X176848028Y-48347212D01*
X176848032Y-48347217D01*
X176992786Y-48491971D01*
X177144232Y-48602001D01*
X177158390Y-48612287D01*
X177239499Y-48653614D01*
X177340776Y-48705218D01*
X177340778Y-48705218D01*
X177340781Y-48705220D01*
X177415818Y-48729601D01*
X177535465Y-48768477D01*
X177636557Y-48784488D01*
X177737648Y-48800500D01*
X177737649Y-48800500D01*
X177942351Y-48800500D01*
X177942352Y-48800500D01*
X178144534Y-48768477D01*
X178339219Y-48705220D01*
X178521610Y-48612287D01*
X178614590Y-48544732D01*
X178687213Y-48491971D01*
X178687215Y-48491968D01*
X178687219Y-48491966D01*
X178831966Y-48347219D01*
X178831968Y-48347215D01*
X178831971Y-48347213D01*
X178952284Y-48181614D01*
X178952285Y-48181613D01*
X178952287Y-48181610D01*
X178999516Y-48088917D01*
X179047489Y-48038123D01*
X179115310Y-48021328D01*
X179181445Y-48043865D01*
X179220485Y-48088919D01*
X179267715Y-48181614D01*
X179388028Y-48347213D01*
X179532786Y-48491971D01*
X179684232Y-48602001D01*
X179698390Y-48612287D01*
X179779499Y-48653614D01*
X179880776Y-48705218D01*
X179880778Y-48705218D01*
X179880781Y-48705220D01*
X179955818Y-48729601D01*
X180075465Y-48768477D01*
X180176557Y-48784488D01*
X180277648Y-48800500D01*
X180277649Y-48800500D01*
X180482351Y-48800500D01*
X180482352Y-48800500D01*
X180684534Y-48768477D01*
X180879219Y-48705220D01*
X181061610Y-48612287D01*
X181154590Y-48544732D01*
X181227213Y-48491971D01*
X181227215Y-48491968D01*
X181227219Y-48491966D01*
X181371966Y-48347219D01*
X181371968Y-48347215D01*
X181371971Y-48347213D01*
X181492284Y-48181614D01*
X181492285Y-48181613D01*
X181492287Y-48181610D01*
X181539516Y-48088917D01*
X181587489Y-48038123D01*
X181655310Y-48021328D01*
X181721445Y-48043865D01*
X181760485Y-48088919D01*
X181807715Y-48181614D01*
X181928028Y-48347213D01*
X182072786Y-48491971D01*
X182224232Y-48602001D01*
X182238390Y-48612287D01*
X182319499Y-48653614D01*
X182420776Y-48705218D01*
X182420778Y-48705218D01*
X182420781Y-48705220D01*
X182495818Y-48729601D01*
X182615465Y-48768477D01*
X182716557Y-48784488D01*
X182817648Y-48800500D01*
X182817649Y-48800500D01*
X183022351Y-48800500D01*
X183022352Y-48800500D01*
X183224534Y-48768477D01*
X183419219Y-48705220D01*
X183601610Y-48612287D01*
X183694590Y-48544732D01*
X183767213Y-48491971D01*
X183767215Y-48491968D01*
X183767219Y-48491966D01*
X183911966Y-48347219D01*
X183911968Y-48347215D01*
X183911971Y-48347213D01*
X184032284Y-48181614D01*
X184032285Y-48181613D01*
X184032287Y-48181610D01*
X184079516Y-48088917D01*
X184127489Y-48038123D01*
X184195310Y-48021328D01*
X184261445Y-48043865D01*
X184300485Y-48088919D01*
X184347715Y-48181614D01*
X184468028Y-48347213D01*
X184612786Y-48491971D01*
X184764232Y-48602001D01*
X184778390Y-48612287D01*
X184859499Y-48653614D01*
X184960776Y-48705218D01*
X184960778Y-48705218D01*
X184960781Y-48705220D01*
X185035818Y-48729601D01*
X185155465Y-48768477D01*
X185256557Y-48784488D01*
X185357648Y-48800500D01*
X185357649Y-48800500D01*
X185562351Y-48800500D01*
X185562352Y-48800500D01*
X185764534Y-48768477D01*
X185959219Y-48705220D01*
X186141610Y-48612287D01*
X186234590Y-48544732D01*
X186307213Y-48491971D01*
X186307215Y-48491968D01*
X186307219Y-48491966D01*
X186451966Y-48347219D01*
X186507388Y-48270935D01*
X186562718Y-48228270D01*
X186632331Y-48222291D01*
X186694127Y-48254896D01*
X186727855Y-48313155D01*
X186732976Y-48333221D01*
X186732980Y-48333233D01*
X186763419Y-48406719D01*
X186763431Y-48406747D01*
X186786779Y-48455548D01*
X186786781Y-48455551D01*
X186873006Y-48570733D01*
X186873010Y-48570737D01*
X186873015Y-48570743D01*
X186929252Y-48626980D01*
X186929261Y-48626988D01*
X186929267Y-48626994D01*
X186968863Y-48662562D01*
X186969524Y-48663156D01*
X186969532Y-48663162D01*
X187093263Y-48736573D01*
X187093262Y-48736573D01*
X187093279Y-48736580D01*
X187166774Y-48767022D01*
X187217802Y-48785024D01*
X187360218Y-48805500D01*
X187360221Y-48805500D01*
X188639784Y-48805500D01*
X188675804Y-48803569D01*
X188693815Y-48802604D01*
X188833226Y-48767022D01*
X188906735Y-48736574D01*
X188955551Y-48713219D01*
X189070733Y-48626994D01*
X189126994Y-48570733D01*
X189163157Y-48530475D01*
X189236574Y-48406735D01*
X189267022Y-48333226D01*
X189277027Y-48304865D01*
X189317893Y-48248195D01*
X189382911Y-48222614D01*
X189451438Y-48236245D01*
X189494281Y-48273235D01*
X189548028Y-48347213D01*
X189692786Y-48491971D01*
X189844232Y-48602001D01*
X189858390Y-48612287D01*
X189939499Y-48653614D01*
X190040776Y-48705218D01*
X190040778Y-48705218D01*
X190040781Y-48705220D01*
X190115818Y-48729601D01*
X190235465Y-48768477D01*
X190336557Y-48784488D01*
X190437648Y-48800500D01*
X190437649Y-48800500D01*
X190642351Y-48800500D01*
X190642352Y-48800500D01*
X190844534Y-48768477D01*
X191039219Y-48705220D01*
X191221610Y-48612287D01*
X191314590Y-48544732D01*
X191387213Y-48491971D01*
X191387215Y-48491968D01*
X191387219Y-48491966D01*
X191531966Y-48347219D01*
X191531968Y-48347215D01*
X191531971Y-48347213D01*
X191652284Y-48181614D01*
X191652285Y-48181613D01*
X191652287Y-48181610D01*
X191699516Y-48088917D01*
X191747489Y-48038123D01*
X191815310Y-48021328D01*
X191881445Y-48043865D01*
X191920485Y-48088919D01*
X191967715Y-48181614D01*
X192088028Y-48347213D01*
X192232786Y-48491971D01*
X192384232Y-48602001D01*
X192398390Y-48612287D01*
X192479499Y-48653614D01*
X192580776Y-48705218D01*
X192580778Y-48705218D01*
X192580781Y-48705220D01*
X192655818Y-48729601D01*
X192775465Y-48768477D01*
X192876557Y-48784488D01*
X192977648Y-48800500D01*
X192977649Y-48800500D01*
X193182351Y-48800500D01*
X193182352Y-48800500D01*
X193384534Y-48768477D01*
X193579219Y-48705220D01*
X193761610Y-48612287D01*
X193854590Y-48544732D01*
X193927213Y-48491971D01*
X193927215Y-48491968D01*
X193927219Y-48491966D01*
X194071966Y-48347219D01*
X194071968Y-48347215D01*
X194071971Y-48347213D01*
X194192284Y-48181614D01*
X194192285Y-48181613D01*
X194192287Y-48181610D01*
X194239516Y-48088917D01*
X194287489Y-48038123D01*
X194355310Y-48021328D01*
X194421445Y-48043865D01*
X194460485Y-48088919D01*
X194507715Y-48181614D01*
X194628028Y-48347213D01*
X194772786Y-48491971D01*
X194924232Y-48602001D01*
X194938390Y-48612287D01*
X195019499Y-48653614D01*
X195120776Y-48705218D01*
X195120778Y-48705218D01*
X195120781Y-48705220D01*
X195195818Y-48729601D01*
X195315465Y-48768477D01*
X195416557Y-48784488D01*
X195517648Y-48800500D01*
X195517649Y-48800500D01*
X195722351Y-48800500D01*
X195722352Y-48800500D01*
X195924534Y-48768477D01*
X196119219Y-48705220D01*
X196301610Y-48612287D01*
X196394590Y-48544732D01*
X196467213Y-48491971D01*
X196467215Y-48491968D01*
X196467219Y-48491966D01*
X196611966Y-48347219D01*
X196611968Y-48347215D01*
X196611971Y-48347213D01*
X196732284Y-48181614D01*
X196732285Y-48181613D01*
X196732287Y-48181610D01*
X196779516Y-48088917D01*
X196827489Y-48038123D01*
X196895310Y-48021328D01*
X196961445Y-48043865D01*
X197000485Y-48088919D01*
X197047715Y-48181614D01*
X197168028Y-48347213D01*
X197312786Y-48491971D01*
X197464232Y-48602001D01*
X197478390Y-48612287D01*
X197559499Y-48653614D01*
X197660776Y-48705218D01*
X197660778Y-48705218D01*
X197660781Y-48705220D01*
X197735818Y-48729601D01*
X197855465Y-48768477D01*
X197956557Y-48784488D01*
X198057648Y-48800500D01*
X198057649Y-48800500D01*
X198262351Y-48800500D01*
X198262352Y-48800500D01*
X198464534Y-48768477D01*
X198659219Y-48705220D01*
X198841610Y-48612287D01*
X198855768Y-48602001D01*
X199007213Y-48491971D01*
X199007215Y-48491968D01*
X199007219Y-48491966D01*
X199151966Y-48347219D01*
X199207766Y-48270415D01*
X199263096Y-48227750D01*
X199332710Y-48221771D01*
X199394505Y-48254376D01*
X199428233Y-48312635D01*
X199433438Y-48333030D01*
X199433442Y-48333043D01*
X199456862Y-48389584D01*
X200217037Y-47629410D01*
X200234075Y-47692993D01*
X200299901Y-47807007D01*
X200392993Y-47900099D01*
X200507007Y-47965925D01*
X200570589Y-47982962D01*
X199810414Y-48743135D01*
X199866960Y-48766557D01*
X199866964Y-48766559D01*
X199917946Y-48784544D01*
X200060219Y-48804999D01*
X200060221Y-48805000D01*
X201339786Y-48805000D01*
X201393762Y-48802106D01*
X201393764Y-48802106D01*
X201533039Y-48766558D01*
X201589584Y-48743136D01*
X201589584Y-48743135D01*
X200829410Y-47982962D01*
X200892993Y-47965925D01*
X201007007Y-47900099D01*
X201100099Y-47807007D01*
X201165925Y-47692993D01*
X201182962Y-47629410D01*
X201943136Y-48389584D01*
X201966553Y-48333052D01*
X201976668Y-48304379D01*
X202017533Y-48247706D01*
X202082551Y-48222123D01*
X202151078Y-48235752D01*
X202193924Y-48272744D01*
X202248028Y-48347212D01*
X202248032Y-48347217D01*
X202392786Y-48491971D01*
X202544232Y-48602001D01*
X202558390Y-48612287D01*
X202639499Y-48653614D01*
X202740776Y-48705218D01*
X202740778Y-48705218D01*
X202740781Y-48705220D01*
X202815818Y-48729601D01*
X202935465Y-48768477D01*
X203036557Y-48784488D01*
X203137648Y-48800500D01*
X203137649Y-48800500D01*
X203342351Y-48800500D01*
X203342352Y-48800500D01*
X203544534Y-48768477D01*
X203739219Y-48705220D01*
X203921610Y-48612287D01*
X204014590Y-48544732D01*
X204087213Y-48491971D01*
X204087215Y-48491968D01*
X204087219Y-48491966D01*
X204231966Y-48347219D01*
X204231968Y-48347215D01*
X204231971Y-48347213D01*
X204352284Y-48181614D01*
X204352285Y-48181613D01*
X204352287Y-48181610D01*
X204399516Y-48088917D01*
X204447489Y-48038123D01*
X204515310Y-48021328D01*
X204581445Y-48043865D01*
X204620485Y-48088919D01*
X204667715Y-48181614D01*
X204788028Y-48347213D01*
X204932786Y-48491971D01*
X205084232Y-48602001D01*
X205098390Y-48612287D01*
X205179499Y-48653614D01*
X205280776Y-48705218D01*
X205280778Y-48705218D01*
X205280781Y-48705220D01*
X205355818Y-48729601D01*
X205475465Y-48768477D01*
X205576557Y-48784488D01*
X205677648Y-48800500D01*
X205677649Y-48800500D01*
X205882351Y-48800500D01*
X205882352Y-48800500D01*
X206084534Y-48768477D01*
X206279219Y-48705220D01*
X206461610Y-48612287D01*
X206554590Y-48544732D01*
X206627213Y-48491971D01*
X206627215Y-48491968D01*
X206627219Y-48491966D01*
X206771966Y-48347219D01*
X206771968Y-48347215D01*
X206771971Y-48347213D01*
X206892284Y-48181614D01*
X206892285Y-48181613D01*
X206892287Y-48181610D01*
X206939516Y-48088917D01*
X206987489Y-48038123D01*
X207055310Y-48021328D01*
X207121445Y-48043865D01*
X207160485Y-48088919D01*
X207207715Y-48181614D01*
X207328028Y-48347213D01*
X207472786Y-48491971D01*
X207624232Y-48602001D01*
X207638390Y-48612287D01*
X207719499Y-48653614D01*
X207820776Y-48705218D01*
X207820778Y-48705218D01*
X207820781Y-48705220D01*
X207895818Y-48729601D01*
X208015465Y-48768477D01*
X208116557Y-48784488D01*
X208217648Y-48800500D01*
X208217649Y-48800500D01*
X208422351Y-48800500D01*
X208422352Y-48800500D01*
X208624534Y-48768477D01*
X208819219Y-48705220D01*
X209001610Y-48612287D01*
X209094590Y-48544732D01*
X209167213Y-48491971D01*
X209167215Y-48491968D01*
X209167219Y-48491966D01*
X209311966Y-48347219D01*
X209311968Y-48347215D01*
X209311971Y-48347213D01*
X209432284Y-48181614D01*
X209432285Y-48181613D01*
X209432287Y-48181610D01*
X209479516Y-48088917D01*
X209527489Y-48038123D01*
X209595310Y-48021328D01*
X209661445Y-48043865D01*
X209700485Y-48088919D01*
X209747715Y-48181614D01*
X209868028Y-48347213D01*
X210012786Y-48491971D01*
X210164232Y-48602001D01*
X210178390Y-48612287D01*
X210259499Y-48653614D01*
X210360776Y-48705218D01*
X210360778Y-48705218D01*
X210360781Y-48705220D01*
X210435818Y-48729601D01*
X210555465Y-48768477D01*
X210656557Y-48784488D01*
X210757648Y-48800500D01*
X210757649Y-48800500D01*
X210962351Y-48800500D01*
X210962352Y-48800500D01*
X211164534Y-48768477D01*
X211359219Y-48705220D01*
X211541610Y-48612287D01*
X211555768Y-48602001D01*
X211707213Y-48491971D01*
X211707215Y-48491968D01*
X211707219Y-48491966D01*
X211851966Y-48347219D01*
X211907766Y-48270415D01*
X211963096Y-48227750D01*
X212032710Y-48221771D01*
X212094505Y-48254376D01*
X212128233Y-48312635D01*
X212133438Y-48333030D01*
X212133442Y-48333043D01*
X212156862Y-48389584D01*
X212917037Y-47629410D01*
X212934075Y-47692993D01*
X212999901Y-47807007D01*
X213092993Y-47900099D01*
X213207007Y-47965925D01*
X213270589Y-47982962D01*
X212510414Y-48743135D01*
X212566960Y-48766557D01*
X212566964Y-48766559D01*
X212617946Y-48784544D01*
X212760219Y-48804999D01*
X212760221Y-48805000D01*
X214039786Y-48805000D01*
X214093762Y-48802106D01*
X214093764Y-48802106D01*
X214233039Y-48766558D01*
X214289584Y-48743136D01*
X214289584Y-48743135D01*
X213529410Y-47982962D01*
X213592993Y-47965925D01*
X213707007Y-47900099D01*
X213800099Y-47807007D01*
X213865925Y-47692993D01*
X213882962Y-47629410D01*
X214643136Y-48389584D01*
X214666553Y-48333052D01*
X214676668Y-48304379D01*
X214717533Y-48247706D01*
X214782551Y-48222123D01*
X214851078Y-48235752D01*
X214893924Y-48272744D01*
X214948028Y-48347212D01*
X214948032Y-48347217D01*
X214948034Y-48347219D01*
X215092781Y-48491966D01*
X215258390Y-48612287D01*
X215271793Y-48619116D01*
X215322589Y-48667088D01*
X215339500Y-48729601D01*
X215339500Y-49166000D01*
X215319815Y-49233039D01*
X215267011Y-49278794D01*
X215215500Y-49290000D01*
X211350000Y-49290000D01*
X211350000Y-63490000D01*
X214861402Y-63490000D01*
X214928441Y-63509685D01*
X214974196Y-63562489D01*
X214984140Y-63631647D01*
X214955115Y-63695203D01*
X214949083Y-63701681D01*
X214563150Y-64087612D01*
X214501827Y-64121097D01*
X214432135Y-64116113D01*
X214412196Y-64106573D01*
X214306539Y-64043885D01*
X214306538Y-64043884D01*
X214233067Y-64013452D01*
X214233064Y-64013451D01*
X214182053Y-63995455D01*
X214039780Y-63975000D01*
X212760214Y-63975000D01*
X212706237Y-63977893D01*
X212706235Y-63977893D01*
X212566976Y-64013436D01*
X212566962Y-64013441D01*
X212510415Y-64036863D01*
X213270589Y-64797037D01*
X213207007Y-64814075D01*
X213092993Y-64879901D01*
X212999901Y-64972993D01*
X212934075Y-65087007D01*
X212917037Y-65150588D01*
X212156863Y-64390414D01*
X212156862Y-64390415D01*
X212133446Y-64446947D01*
X212133439Y-64446965D01*
X212123330Y-64475623D01*
X212082464Y-64532295D01*
X212017446Y-64557876D01*
X211948918Y-64544246D01*
X211906075Y-64507255D01*
X211851971Y-64432786D01*
X211707213Y-64288028D01*
X211541613Y-64167715D01*
X211541612Y-64167714D01*
X211541610Y-64167713D01*
X211456855Y-64124528D01*
X211359223Y-64074781D01*
X211164534Y-64011522D01*
X210989995Y-63983878D01*
X210962352Y-63979500D01*
X210757648Y-63979500D01*
X210733329Y-63983351D01*
X210555465Y-64011522D01*
X210360776Y-64074781D01*
X210178386Y-64167715D01*
X210012786Y-64288028D01*
X209868028Y-64432786D01*
X209747715Y-64598386D01*
X209700485Y-64691080D01*
X209652510Y-64741876D01*
X209584689Y-64758671D01*
X209518554Y-64736134D01*
X209479515Y-64691080D01*
X209445990Y-64625284D01*
X209432287Y-64598390D01*
X209401653Y-64556225D01*
X209311971Y-64432786D01*
X209167213Y-64288028D01*
X209001613Y-64167715D01*
X209001612Y-64167714D01*
X209001610Y-64167713D01*
X208916855Y-64124528D01*
X208819223Y-64074781D01*
X208624534Y-64011522D01*
X208449995Y-63983878D01*
X208422352Y-63979500D01*
X208217648Y-63979500D01*
X208193329Y-63983351D01*
X208015465Y-64011522D01*
X207820776Y-64074781D01*
X207638386Y-64167715D01*
X207472786Y-64288028D01*
X207328028Y-64432786D01*
X207207715Y-64598386D01*
X207160485Y-64691080D01*
X207112510Y-64741876D01*
X207044689Y-64758671D01*
X206978554Y-64736134D01*
X206939515Y-64691080D01*
X206905990Y-64625284D01*
X206892287Y-64598390D01*
X206861653Y-64556225D01*
X206771971Y-64432786D01*
X206627213Y-64288028D01*
X206461613Y-64167715D01*
X206461612Y-64167714D01*
X206461610Y-64167713D01*
X206376855Y-64124528D01*
X206279223Y-64074781D01*
X206084534Y-64011522D01*
X205909995Y-63983878D01*
X205882352Y-63979500D01*
X205677648Y-63979500D01*
X205653329Y-63983351D01*
X205475465Y-64011522D01*
X205280776Y-64074781D01*
X205098386Y-64167715D01*
X204932786Y-64288028D01*
X204788028Y-64432786D01*
X204667715Y-64598386D01*
X204620485Y-64691080D01*
X204572510Y-64741876D01*
X204504689Y-64758671D01*
X204438554Y-64736134D01*
X204399515Y-64691080D01*
X204365990Y-64625284D01*
X204352287Y-64598390D01*
X204321653Y-64556225D01*
X204231971Y-64432786D01*
X204087213Y-64288028D01*
X203921613Y-64167715D01*
X203921612Y-64167714D01*
X203921610Y-64167713D01*
X203836855Y-64124528D01*
X203739223Y-64074781D01*
X203544534Y-64011522D01*
X203369995Y-63983878D01*
X203342352Y-63979500D01*
X203137648Y-63979500D01*
X203113329Y-63983351D01*
X202935465Y-64011522D01*
X202740776Y-64074781D01*
X202558386Y-64167715D01*
X202392786Y-64288028D01*
X202248032Y-64432782D01*
X202248026Y-64432789D01*
X202192231Y-64509584D01*
X202136901Y-64552250D01*
X202067288Y-64558228D01*
X202005493Y-64525622D01*
X201971765Y-64467361D01*
X201966559Y-64446965D01*
X201966559Y-64446962D01*
X201943135Y-64390414D01*
X201182962Y-65150588D01*
X201165925Y-65087007D01*
X201100099Y-64972993D01*
X201007007Y-64879901D01*
X200892993Y-64814075D01*
X200829410Y-64797037D01*
X201589584Y-64036862D01*
X201533059Y-64013449D01*
X201482053Y-63995455D01*
X201339780Y-63975000D01*
X200060214Y-63975000D01*
X200006237Y-63977893D01*
X200006235Y-63977893D01*
X199866976Y-64013436D01*
X199866962Y-64013441D01*
X199810415Y-64036863D01*
X200570589Y-64797037D01*
X200507007Y-64814075D01*
X200392993Y-64879901D01*
X200299901Y-64972993D01*
X200234075Y-65087007D01*
X200217037Y-65150589D01*
X199456863Y-64390415D01*
X199456862Y-64390415D01*
X199433446Y-64446947D01*
X199433439Y-64446965D01*
X199423330Y-64475623D01*
X199382464Y-64532295D01*
X199317446Y-64557876D01*
X199248918Y-64544246D01*
X199206075Y-64507255D01*
X199151971Y-64432786D01*
X199007213Y-64288028D01*
X198855763Y-64177995D01*
X198841613Y-64167715D01*
X198841612Y-64167714D01*
X198841610Y-64167713D01*
X198756855Y-64124528D01*
X198659223Y-64074781D01*
X198464534Y-64011522D01*
X198289995Y-63983878D01*
X198262352Y-63979500D01*
X198057648Y-63979500D01*
X198033329Y-63983351D01*
X197855465Y-64011522D01*
X197660776Y-64074781D01*
X197478386Y-64167715D01*
X197312786Y-64288028D01*
X197168028Y-64432786D01*
X197047715Y-64598386D01*
X197000485Y-64691080D01*
X196952510Y-64741876D01*
X196884689Y-64758671D01*
X196818554Y-64736134D01*
X196779515Y-64691080D01*
X196745990Y-64625284D01*
X196732287Y-64598390D01*
X196701653Y-64556225D01*
X196611971Y-64432786D01*
X196467213Y-64288028D01*
X196301613Y-64167715D01*
X196301612Y-64167714D01*
X196301610Y-64167713D01*
X196216855Y-64124528D01*
X196119223Y-64074781D01*
X195924534Y-64011522D01*
X195749995Y-63983878D01*
X195722352Y-63979500D01*
X195517648Y-63979500D01*
X195493329Y-63983351D01*
X195315465Y-64011522D01*
X195120776Y-64074781D01*
X194938386Y-64167715D01*
X194772786Y-64288028D01*
X194628028Y-64432786D01*
X194507715Y-64598386D01*
X194460485Y-64691080D01*
X194412510Y-64741876D01*
X194344689Y-64758671D01*
X194278554Y-64736134D01*
X194239515Y-64691080D01*
X194205990Y-64625284D01*
X194192287Y-64598390D01*
X194161653Y-64556225D01*
X194071971Y-64432786D01*
X193927213Y-64288028D01*
X193761613Y-64167715D01*
X193761612Y-64167714D01*
X193761610Y-64167713D01*
X193676855Y-64124528D01*
X193579223Y-64074781D01*
X193384534Y-64011522D01*
X193209995Y-63983878D01*
X193182352Y-63979500D01*
X192977648Y-63979500D01*
X192953329Y-63983351D01*
X192775465Y-64011522D01*
X192580776Y-64074781D01*
X192398386Y-64167715D01*
X192232786Y-64288028D01*
X192088028Y-64432786D01*
X191967715Y-64598386D01*
X191920485Y-64691080D01*
X191872510Y-64741876D01*
X191804689Y-64758671D01*
X191738554Y-64736134D01*
X191699515Y-64691080D01*
X191665990Y-64625284D01*
X191652287Y-64598390D01*
X191621653Y-64556225D01*
X191531971Y-64432786D01*
X191387213Y-64288028D01*
X191221613Y-64167715D01*
X191221612Y-64167714D01*
X191221610Y-64167713D01*
X191136855Y-64124528D01*
X191039223Y-64074781D01*
X190844534Y-64011522D01*
X190669995Y-63983878D01*
X190642352Y-63979500D01*
X190437648Y-63979500D01*
X190413329Y-63983351D01*
X190235465Y-64011522D01*
X190040776Y-64074781D01*
X189858386Y-64167715D01*
X189692786Y-64288028D01*
X189548032Y-64432782D01*
X189548026Y-64432789D01*
X189492231Y-64509584D01*
X189436901Y-64552250D01*
X189367288Y-64558228D01*
X189305493Y-64525622D01*
X189271765Y-64467361D01*
X189266559Y-64446965D01*
X189266559Y-64446962D01*
X189243135Y-64390414D01*
X188482962Y-65150588D01*
X188465925Y-65087007D01*
X188400099Y-64972993D01*
X188307007Y-64879901D01*
X188192993Y-64814075D01*
X188129410Y-64797037D01*
X188889584Y-64036862D01*
X188833059Y-64013449D01*
X188782053Y-63995455D01*
X188639780Y-63975000D01*
X187360214Y-63975000D01*
X187306237Y-63977893D01*
X187306235Y-63977893D01*
X187166976Y-64013436D01*
X187166962Y-64013441D01*
X187110415Y-64036863D01*
X187870589Y-64797037D01*
X187807007Y-64814075D01*
X187692993Y-64879901D01*
X187599901Y-64972993D01*
X187534075Y-65087007D01*
X187517037Y-65150589D01*
X186756863Y-64390415D01*
X186756862Y-64390415D01*
X186733446Y-64446947D01*
X186733439Y-64446965D01*
X186723330Y-64475623D01*
X186682464Y-64532295D01*
X186617446Y-64557876D01*
X186548918Y-64544246D01*
X186506075Y-64507255D01*
X186451971Y-64432786D01*
X186307213Y-64288028D01*
X186155763Y-64177995D01*
X186141613Y-64167715D01*
X186141612Y-64167714D01*
X186141610Y-64167713D01*
X186056855Y-64124528D01*
X185959223Y-64074781D01*
X185764534Y-64011522D01*
X185589995Y-63983878D01*
X185562352Y-63979500D01*
X185357648Y-63979500D01*
X185333329Y-63983351D01*
X185155465Y-64011522D01*
X184960776Y-64074781D01*
X184778386Y-64167715D01*
X184612786Y-64288028D01*
X184468028Y-64432786D01*
X184347715Y-64598386D01*
X184300485Y-64691080D01*
X184252510Y-64741876D01*
X184184689Y-64758671D01*
X184118554Y-64736134D01*
X184079515Y-64691080D01*
X184045990Y-64625284D01*
X184032287Y-64598390D01*
X184001653Y-64556225D01*
X183911971Y-64432786D01*
X183767213Y-64288028D01*
X183601613Y-64167715D01*
X183601612Y-64167714D01*
X183601610Y-64167713D01*
X183516855Y-64124528D01*
X183419223Y-64074781D01*
X183224534Y-64011522D01*
X183049995Y-63983878D01*
X183022352Y-63979500D01*
X182817648Y-63979500D01*
X182793329Y-63983351D01*
X182615465Y-64011522D01*
X182420776Y-64074781D01*
X182238386Y-64167715D01*
X182072786Y-64288028D01*
X181928028Y-64432786D01*
X181807715Y-64598386D01*
X181760485Y-64691080D01*
X181712510Y-64741876D01*
X181644689Y-64758671D01*
X181578554Y-64736134D01*
X181539515Y-64691080D01*
X181505990Y-64625284D01*
X181492287Y-64598390D01*
X181461653Y-64556225D01*
X181371971Y-64432786D01*
X181227213Y-64288028D01*
X181061613Y-64167715D01*
X181061612Y-64167714D01*
X181061610Y-64167713D01*
X180976855Y-64124528D01*
X180879223Y-64074781D01*
X180684534Y-64011522D01*
X180509995Y-63983878D01*
X180482352Y-63979500D01*
X180277648Y-63979500D01*
X180253329Y-63983351D01*
X180075465Y-64011522D01*
X179880776Y-64074781D01*
X179698386Y-64167715D01*
X179532786Y-64288028D01*
X179388028Y-64432786D01*
X179267715Y-64598386D01*
X179220485Y-64691080D01*
X179172510Y-64741876D01*
X179104689Y-64758671D01*
X179038554Y-64736134D01*
X178999515Y-64691080D01*
X178965990Y-64625284D01*
X178952287Y-64598390D01*
X178921653Y-64556225D01*
X178831971Y-64432786D01*
X178687213Y-64288028D01*
X178521613Y-64167715D01*
X178521612Y-64167714D01*
X178521610Y-64167713D01*
X178436855Y-64124528D01*
X178339223Y-64074781D01*
X178144534Y-64011522D01*
X177969995Y-63983878D01*
X177942352Y-63979500D01*
X177737648Y-63979500D01*
X177713329Y-63983351D01*
X177535465Y-64011522D01*
X177340776Y-64074781D01*
X177158386Y-64167715D01*
X176992786Y-64288028D01*
X176848032Y-64432782D01*
X176848026Y-64432789D01*
X176792231Y-64509584D01*
X176736901Y-64552250D01*
X176667288Y-64558228D01*
X176605493Y-64525622D01*
X176571765Y-64467361D01*
X176566559Y-64446965D01*
X176566559Y-64446962D01*
X176543135Y-64390414D01*
X175782962Y-65150588D01*
X175765925Y-65087007D01*
X175700099Y-64972993D01*
X175607007Y-64879901D01*
X175492993Y-64814075D01*
X175429410Y-64797037D01*
X176189584Y-64036862D01*
X176133059Y-64013449D01*
X176082053Y-63995455D01*
X175939780Y-63975000D01*
X174660214Y-63975000D01*
X174606237Y-63977893D01*
X174606235Y-63977893D01*
X174466976Y-64013436D01*
X174466962Y-64013441D01*
X174410415Y-64036863D01*
X175170589Y-64797037D01*
X175107007Y-64814075D01*
X174992993Y-64879901D01*
X174899901Y-64972993D01*
X174834075Y-65087007D01*
X174817037Y-65150588D01*
X174056863Y-64390414D01*
X174056862Y-64390415D01*
X174033446Y-64446947D01*
X174033439Y-64446965D01*
X174023330Y-64475623D01*
X173982464Y-64532295D01*
X173917446Y-64557876D01*
X173848918Y-64544246D01*
X173806075Y-64507255D01*
X173751971Y-64432786D01*
X173607213Y-64288028D01*
X173455763Y-64177995D01*
X173441613Y-64167715D01*
X173441612Y-64167714D01*
X173441610Y-64167713D01*
X173356855Y-64124528D01*
X173259223Y-64074781D01*
X173064534Y-64011522D01*
X172889995Y-63983878D01*
X172862352Y-63979500D01*
X172657648Y-63979500D01*
X172633329Y-63983351D01*
X172455465Y-64011522D01*
X172260776Y-64074781D01*
X172078386Y-64167715D01*
X171912786Y-64288028D01*
X171768032Y-64432782D01*
X171709344Y-64513560D01*
X171654014Y-64556225D01*
X171584400Y-64562204D01*
X171522606Y-64529598D01*
X171490641Y-64477566D01*
X171463478Y-64390394D01*
X171375472Y-64244815D01*
X171375470Y-64244813D01*
X171375469Y-64244811D01*
X171255188Y-64124530D01*
X171109606Y-64036522D01*
X171035567Y-64013451D01*
X170947196Y-63985914D01*
X170947194Y-63985913D01*
X170947192Y-63985913D01*
X170891493Y-63980852D01*
X170876616Y-63979500D01*
X169563384Y-63979500D01*
X169548507Y-63980852D01*
X169492807Y-63985913D01*
X169330393Y-64036522D01*
X169184811Y-64124530D01*
X169064530Y-64244811D01*
X168976522Y-64390393D01*
X168925913Y-64552807D01*
X168921772Y-64598386D01*
X168919500Y-64623384D01*
X168919500Y-65936616D01*
X168921423Y-65957778D01*
X168925913Y-66007192D01*
X168925913Y-66007194D01*
X168925914Y-66007196D01*
X168976522Y-66169606D01*
X169009375Y-66223952D01*
X169064530Y-66315188D01*
X169184811Y-66435469D01*
X169184813Y-66435470D01*
X169184815Y-66435472D01*
X169330394Y-66523478D01*
X169492804Y-66574086D01*
X169563384Y-66580500D01*
X169563387Y-66580500D01*
X170876613Y-66580500D01*
X170876616Y-66580500D01*
X170947196Y-66574086D01*
X171109606Y-66523478D01*
X171255185Y-66435472D01*
X171375472Y-66315185D01*
X171463478Y-66169606D01*
X171490641Y-66082433D01*
X171529377Y-66024288D01*
X171593402Y-65996313D01*
X171662388Y-66007394D01*
X171709344Y-66046440D01*
X171768028Y-66127212D01*
X171768032Y-66127217D01*
X171912786Y-66271971D01*
X172037343Y-66362465D01*
X172078390Y-66392287D01*
X172194607Y-66451503D01*
X172260776Y-66485218D01*
X172260778Y-66485218D01*
X172260781Y-66485220D01*
X172354940Y-66515814D01*
X172455465Y-66548477D01*
X172556557Y-66564488D01*
X172657648Y-66580500D01*
X172657649Y-66580500D01*
X172862351Y-66580500D01*
X172862352Y-66580500D01*
X173064534Y-66548477D01*
X173259219Y-66485220D01*
X173441610Y-66392287D01*
X173547733Y-66315185D01*
X173607213Y-66271971D01*
X173607215Y-66271968D01*
X173607219Y-66271966D01*
X173751966Y-66127219D01*
X173751968Y-66127215D01*
X173751971Y-66127213D01*
X173872286Y-65961611D01*
X173872287Y-65961610D01*
X173916058Y-65875703D01*
X173964030Y-65824909D01*
X174031851Y-65808113D01*
X174097986Y-65830650D01*
X174135900Y-65873545D01*
X174171155Y-65939500D01*
X174171161Y-65939511D01*
X174217534Y-66008912D01*
X174817037Y-65409410D01*
X174834075Y-65472993D01*
X174899901Y-65587007D01*
X174992993Y-65680099D01*
X175107007Y-65745925D01*
X175170589Y-65762962D01*
X174571085Y-66362465D01*
X174640488Y-66408838D01*
X174640498Y-66408844D01*
X174727801Y-66455509D01*
X174873387Y-66515814D01*
X174968135Y-66544555D01*
X175122699Y-66575298D01*
X175221210Y-66585000D01*
X175378790Y-66585000D01*
X175477299Y-66575298D01*
X175477302Y-66575298D01*
X175631864Y-66544555D01*
X175726612Y-66515814D01*
X175872198Y-66455509D01*
X175959511Y-66408838D01*
X175959515Y-66408837D01*
X176028913Y-66362465D01*
X175429410Y-65762962D01*
X175492993Y-65745925D01*
X175607007Y-65680099D01*
X175700099Y-65587007D01*
X175765925Y-65472993D01*
X175782962Y-65409410D01*
X176382465Y-66008913D01*
X176428837Y-65939515D01*
X176428843Y-65939503D01*
X176464099Y-65873546D01*
X176513061Y-65823702D01*
X176581199Y-65808241D01*
X176646879Y-65832073D01*
X176683941Y-65875702D01*
X176714976Y-65936613D01*
X176727715Y-65961614D01*
X176848028Y-66127213D01*
X176992786Y-66271971D01*
X177117343Y-66362465D01*
X177158390Y-66392287D01*
X177274607Y-66451503D01*
X177340776Y-66485218D01*
X177340778Y-66485218D01*
X177340781Y-66485220D01*
X177434940Y-66515814D01*
X177535465Y-66548477D01*
X177636557Y-66564488D01*
X177737648Y-66580500D01*
X177737649Y-66580500D01*
X177942351Y-66580500D01*
X177942352Y-66580500D01*
X178144534Y-66548477D01*
X178339219Y-66485220D01*
X178521610Y-66392287D01*
X178627733Y-66315185D01*
X178687213Y-66271971D01*
X178687215Y-66271968D01*
X178687219Y-66271966D01*
X178831966Y-66127219D01*
X178831968Y-66127215D01*
X178831971Y-66127213D01*
X178952284Y-65961614D01*
X178952286Y-65961611D01*
X178952287Y-65961610D01*
X178999516Y-65868917D01*
X179047489Y-65818123D01*
X179115310Y-65801328D01*
X179181445Y-65823865D01*
X179220483Y-65868917D01*
X179254976Y-65936613D01*
X179267715Y-65961614D01*
X179388028Y-66127213D01*
X179532786Y-66271971D01*
X179657343Y-66362465D01*
X179698390Y-66392287D01*
X179814607Y-66451503D01*
X179880776Y-66485218D01*
X179880778Y-66485218D01*
X179880781Y-66485220D01*
X179974940Y-66515814D01*
X180075465Y-66548477D01*
X180176557Y-66564488D01*
X180277648Y-66580500D01*
X180277649Y-66580500D01*
X180482351Y-66580500D01*
X180482352Y-66580500D01*
X180684534Y-66548477D01*
X180879219Y-66485220D01*
X181061610Y-66392287D01*
X181167733Y-66315185D01*
X181227213Y-66271971D01*
X181227215Y-66271968D01*
X181227219Y-66271966D01*
X181371966Y-66127219D01*
X181371968Y-66127215D01*
X181371971Y-66127213D01*
X181492284Y-65961614D01*
X181492286Y-65961611D01*
X181492287Y-65961610D01*
X181539516Y-65868917D01*
X181587489Y-65818123D01*
X181655310Y-65801328D01*
X181721445Y-65823865D01*
X181760483Y-65868917D01*
X181794976Y-65936613D01*
X181807715Y-65961614D01*
X181928028Y-66127213D01*
X182072786Y-66271971D01*
X182197343Y-66362465D01*
X182238390Y-66392287D01*
X182354607Y-66451503D01*
X182420776Y-66485218D01*
X182420778Y-66485218D01*
X182420781Y-66485220D01*
X182514940Y-66515814D01*
X182615465Y-66548477D01*
X182716557Y-66564488D01*
X182817648Y-66580500D01*
X182817649Y-66580500D01*
X183022351Y-66580500D01*
X183022352Y-66580500D01*
X183224534Y-66548477D01*
X183419219Y-66485220D01*
X183601610Y-66392287D01*
X183707733Y-66315185D01*
X183767213Y-66271971D01*
X183767215Y-66271968D01*
X183767219Y-66271966D01*
X183911966Y-66127219D01*
X183911968Y-66127215D01*
X183911971Y-66127213D01*
X184032284Y-65961614D01*
X184032286Y-65961611D01*
X184032287Y-65961610D01*
X184079516Y-65868917D01*
X184127489Y-65818123D01*
X184195310Y-65801328D01*
X184261445Y-65823865D01*
X184300483Y-65868917D01*
X184334976Y-65936613D01*
X184347715Y-65961614D01*
X184468028Y-66127213D01*
X184612786Y-66271971D01*
X184737343Y-66362465D01*
X184778390Y-66392287D01*
X184894607Y-66451503D01*
X184960776Y-66485218D01*
X184960778Y-66485218D01*
X184960781Y-66485220D01*
X185054940Y-66515814D01*
X185155465Y-66548477D01*
X185256557Y-66564488D01*
X185357648Y-66580500D01*
X185357649Y-66580500D01*
X185562351Y-66580500D01*
X185562352Y-66580500D01*
X185764534Y-66548477D01*
X185959219Y-66485220D01*
X186141610Y-66392287D01*
X186247733Y-66315185D01*
X186307213Y-66271971D01*
X186307215Y-66271968D01*
X186307219Y-66271966D01*
X186451966Y-66127219D01*
X186451968Y-66127215D01*
X186451971Y-66127213D01*
X186572286Y-65961611D01*
X186572287Y-65961610D01*
X186616058Y-65875703D01*
X186664030Y-65824909D01*
X186731851Y-65808113D01*
X186797986Y-65830650D01*
X186835900Y-65873545D01*
X186871155Y-65939500D01*
X186871161Y-65939511D01*
X186917534Y-66008912D01*
X187517037Y-65409410D01*
X187534075Y-65472993D01*
X187599901Y-65587007D01*
X187692993Y-65680099D01*
X187807007Y-65745925D01*
X187870589Y-65762962D01*
X187271085Y-66362465D01*
X187340488Y-66408838D01*
X187340498Y-66408844D01*
X187427801Y-66455509D01*
X187573387Y-66515814D01*
X187668135Y-66544555D01*
X187822699Y-66575298D01*
X187921210Y-66585000D01*
X188078790Y-66585000D01*
X188177299Y-66575298D01*
X188177302Y-66575298D01*
X188331864Y-66544555D01*
X188426612Y-66515814D01*
X188572198Y-66455509D01*
X188659511Y-66408838D01*
X188659515Y-66408837D01*
X188728913Y-66362465D01*
X188129410Y-65762962D01*
X188192993Y-65745925D01*
X188307007Y-65680099D01*
X188400099Y-65587007D01*
X188465925Y-65472993D01*
X188482962Y-65409410D01*
X189082464Y-66008913D01*
X189082465Y-66008913D01*
X189128837Y-65939515D01*
X189128843Y-65939503D01*
X189164099Y-65873546D01*
X189213061Y-65823702D01*
X189281199Y-65808241D01*
X189346879Y-65832073D01*
X189383941Y-65875702D01*
X189414976Y-65936613D01*
X189427715Y-65961614D01*
X189548028Y-66127213D01*
X189692786Y-66271971D01*
X189817343Y-66362465D01*
X189858390Y-66392287D01*
X189974607Y-66451503D01*
X190040776Y-66485218D01*
X190040778Y-66485218D01*
X190040781Y-66485220D01*
X190134940Y-66515814D01*
X190235465Y-66548477D01*
X190336557Y-66564488D01*
X190437648Y-66580500D01*
X190437649Y-66580500D01*
X190642351Y-66580500D01*
X190642352Y-66580500D01*
X190844534Y-66548477D01*
X191039219Y-66485220D01*
X191221610Y-66392287D01*
X191327733Y-66315185D01*
X191387213Y-66271971D01*
X191387215Y-66271968D01*
X191387219Y-66271966D01*
X191531966Y-66127219D01*
X191531968Y-66127215D01*
X191531971Y-66127213D01*
X191652284Y-65961614D01*
X191652286Y-65961611D01*
X191652287Y-65961610D01*
X191699516Y-65868917D01*
X191747489Y-65818123D01*
X191815310Y-65801328D01*
X191881445Y-65823865D01*
X191920483Y-65868917D01*
X191954976Y-65936613D01*
X191967715Y-65961614D01*
X192088028Y-66127213D01*
X192232786Y-66271971D01*
X192357343Y-66362465D01*
X192398390Y-66392287D01*
X192514607Y-66451503D01*
X192580776Y-66485218D01*
X192580778Y-66485218D01*
X192580781Y-66485220D01*
X192674940Y-66515814D01*
X192775465Y-66548477D01*
X192876557Y-66564488D01*
X192977648Y-66580500D01*
X192977649Y-66580500D01*
X193182351Y-66580500D01*
X193182352Y-66580500D01*
X193384534Y-66548477D01*
X193579219Y-66485220D01*
X193761610Y-66392287D01*
X193867733Y-66315185D01*
X193927213Y-66271971D01*
X193927215Y-66271968D01*
X193927219Y-66271966D01*
X194071966Y-66127219D01*
X194071968Y-66127215D01*
X194071971Y-66127213D01*
X194192284Y-65961614D01*
X194192286Y-65961611D01*
X194192287Y-65961610D01*
X194239516Y-65868917D01*
X194287489Y-65818123D01*
X194355310Y-65801328D01*
X194421445Y-65823865D01*
X194460483Y-65868917D01*
X194494976Y-65936613D01*
X194507715Y-65961614D01*
X194628028Y-66127213D01*
X194772786Y-66271971D01*
X194897343Y-66362465D01*
X194938390Y-66392287D01*
X195054607Y-66451503D01*
X195120776Y-66485218D01*
X195120778Y-66485218D01*
X195120781Y-66485220D01*
X195214940Y-66515814D01*
X195315465Y-66548477D01*
X195416557Y-66564488D01*
X195517648Y-66580500D01*
X195517649Y-66580500D01*
X195722351Y-66580500D01*
X195722352Y-66580500D01*
X195924534Y-66548477D01*
X196119219Y-66485220D01*
X196301610Y-66392287D01*
X196407733Y-66315185D01*
X196467213Y-66271971D01*
X196467215Y-66271968D01*
X196467219Y-66271966D01*
X196611966Y-66127219D01*
X196611968Y-66127215D01*
X196611971Y-66127213D01*
X196732284Y-65961614D01*
X196732286Y-65961611D01*
X196732287Y-65961610D01*
X196779516Y-65868917D01*
X196827489Y-65818123D01*
X196895310Y-65801328D01*
X196961445Y-65823865D01*
X197000483Y-65868917D01*
X197034976Y-65936613D01*
X197047715Y-65961614D01*
X197168028Y-66127213D01*
X197312786Y-66271971D01*
X197437343Y-66362465D01*
X197478390Y-66392287D01*
X197594607Y-66451503D01*
X197660776Y-66485218D01*
X197660778Y-66485218D01*
X197660781Y-66485220D01*
X197754940Y-66515814D01*
X197855465Y-66548477D01*
X197956557Y-66564488D01*
X198057648Y-66580500D01*
X198057649Y-66580500D01*
X198262351Y-66580500D01*
X198262352Y-66580500D01*
X198464534Y-66548477D01*
X198659219Y-66485220D01*
X198841610Y-66392287D01*
X198947733Y-66315185D01*
X199007213Y-66271971D01*
X199007215Y-66271968D01*
X199007219Y-66271966D01*
X199151966Y-66127219D01*
X199151968Y-66127215D01*
X199151971Y-66127213D01*
X199272286Y-65961611D01*
X199272287Y-65961610D01*
X199316058Y-65875703D01*
X199364030Y-65824909D01*
X199431851Y-65808113D01*
X199497986Y-65830650D01*
X199535900Y-65873545D01*
X199571155Y-65939500D01*
X199571161Y-65939511D01*
X199617534Y-66008912D01*
X200217037Y-65409410D01*
X200234075Y-65472993D01*
X200299901Y-65587007D01*
X200392993Y-65680099D01*
X200507007Y-65745925D01*
X200570589Y-65762962D01*
X199971085Y-66362465D01*
X200040488Y-66408838D01*
X200040498Y-66408844D01*
X200127801Y-66455509D01*
X200273387Y-66515814D01*
X200368135Y-66544555D01*
X200522699Y-66575298D01*
X200621210Y-66585000D01*
X200778790Y-66585000D01*
X200877299Y-66575298D01*
X200877302Y-66575298D01*
X201031864Y-66544555D01*
X201126612Y-66515814D01*
X201272198Y-66455509D01*
X201359511Y-66408838D01*
X201359515Y-66408837D01*
X201428913Y-66362465D01*
X200829410Y-65762962D01*
X200892993Y-65745925D01*
X201007007Y-65680099D01*
X201100099Y-65587007D01*
X201165925Y-65472993D01*
X201182962Y-65409410D01*
X201782464Y-66008913D01*
X201782465Y-66008913D01*
X201828837Y-65939515D01*
X201828843Y-65939503D01*
X201864099Y-65873546D01*
X201913061Y-65823702D01*
X201981199Y-65808241D01*
X202046879Y-65832073D01*
X202083941Y-65875702D01*
X202114976Y-65936613D01*
X202127715Y-65961614D01*
X202248028Y-66127213D01*
X202392786Y-66271971D01*
X202517343Y-66362465D01*
X202558390Y-66392287D01*
X202674607Y-66451503D01*
X202740776Y-66485218D01*
X202740778Y-66485218D01*
X202740781Y-66485220D01*
X202834940Y-66515814D01*
X202935465Y-66548477D01*
X203036557Y-66564488D01*
X203137648Y-66580500D01*
X203137649Y-66580500D01*
X203342351Y-66580500D01*
X203342352Y-66580500D01*
X203544534Y-66548477D01*
X203739219Y-66485220D01*
X203921610Y-66392287D01*
X204027733Y-66315185D01*
X204087213Y-66271971D01*
X204087215Y-66271968D01*
X204087219Y-66271966D01*
X204231966Y-66127219D01*
X204231968Y-66127215D01*
X204231971Y-66127213D01*
X204352284Y-65961614D01*
X204352286Y-65961611D01*
X204352287Y-65961610D01*
X204399516Y-65868917D01*
X204447489Y-65818123D01*
X204515310Y-65801328D01*
X204581445Y-65823865D01*
X204620483Y-65868917D01*
X204654976Y-65936613D01*
X204667715Y-65961614D01*
X204788028Y-66127213D01*
X204932786Y-66271971D01*
X205057343Y-66362465D01*
X205098390Y-66392287D01*
X205214607Y-66451503D01*
X205280776Y-66485218D01*
X205280778Y-66485218D01*
X205280781Y-66485220D01*
X205374940Y-66515814D01*
X205475465Y-66548477D01*
X205576557Y-66564488D01*
X205677648Y-66580500D01*
X205677649Y-66580500D01*
X205882351Y-66580500D01*
X205882352Y-66580500D01*
X206084534Y-66548477D01*
X206279219Y-66485220D01*
X206461610Y-66392287D01*
X206567733Y-66315185D01*
X206627213Y-66271971D01*
X206627215Y-66271968D01*
X206627219Y-66271966D01*
X206771966Y-66127219D01*
X206771968Y-66127215D01*
X206771971Y-66127213D01*
X206892284Y-65961614D01*
X206892286Y-65961611D01*
X206892287Y-65961610D01*
X206939516Y-65868917D01*
X206987489Y-65818123D01*
X207055310Y-65801328D01*
X207121445Y-65823865D01*
X207160483Y-65868917D01*
X207194976Y-65936613D01*
X207207715Y-65961614D01*
X207328028Y-66127213D01*
X207472786Y-66271971D01*
X207597343Y-66362465D01*
X207638390Y-66392287D01*
X207754607Y-66451503D01*
X207820776Y-66485218D01*
X207820778Y-66485218D01*
X207820781Y-66485220D01*
X207914940Y-66515814D01*
X208015465Y-66548477D01*
X208116557Y-66564488D01*
X208217648Y-66580500D01*
X208217649Y-66580500D01*
X208422351Y-66580500D01*
X208422352Y-66580500D01*
X208624534Y-66548477D01*
X208819219Y-66485220D01*
X209001610Y-66392287D01*
X209107733Y-66315185D01*
X209167213Y-66271971D01*
X209167215Y-66271968D01*
X209167219Y-66271966D01*
X209311966Y-66127219D01*
X209311968Y-66127215D01*
X209311971Y-66127213D01*
X209432284Y-65961614D01*
X209432286Y-65961611D01*
X209432287Y-65961610D01*
X209479516Y-65868917D01*
X209527489Y-65818123D01*
X209595310Y-65801328D01*
X209661445Y-65823865D01*
X209700483Y-65868917D01*
X209734976Y-65936613D01*
X209747715Y-65961614D01*
X209868028Y-66127213D01*
X210012786Y-66271971D01*
X210137343Y-66362465D01*
X210178390Y-66392287D01*
X210294607Y-66451503D01*
X210360776Y-66485218D01*
X210360778Y-66485218D01*
X210360781Y-66485220D01*
X210454940Y-66515814D01*
X210555465Y-66548477D01*
X210656557Y-66564488D01*
X210757648Y-66580500D01*
X210757649Y-66580500D01*
X210962351Y-66580500D01*
X210962352Y-66580500D01*
X211164534Y-66548477D01*
X211359219Y-66485220D01*
X211541610Y-66392287D01*
X211647733Y-66315185D01*
X211707213Y-66271971D01*
X211707215Y-66271968D01*
X211707219Y-66271966D01*
X211851966Y-66127219D01*
X211851968Y-66127215D01*
X211851971Y-66127213D01*
X211972286Y-65961611D01*
X211972287Y-65961610D01*
X212016058Y-65875703D01*
X212064030Y-65824909D01*
X212131851Y-65808113D01*
X212197986Y-65830650D01*
X212235900Y-65873545D01*
X212271155Y-65939500D01*
X212271161Y-65939511D01*
X212317534Y-66008912D01*
X212917037Y-65409410D01*
X212934075Y-65472993D01*
X212999901Y-65587007D01*
X213092993Y-65680099D01*
X213207007Y-65745925D01*
X213270589Y-65762962D01*
X212671085Y-66362465D01*
X212740488Y-66408838D01*
X212740490Y-66408839D01*
X212753061Y-66415559D01*
X212802904Y-66464523D01*
X212818364Y-66532660D01*
X212794531Y-66598340D01*
X212782287Y-66612598D01*
X205632706Y-73762181D01*
X205571383Y-73795666D01*
X205545025Y-73798500D01*
X198180057Y-73798500D01*
X198021943Y-73798500D01*
X197869215Y-73839423D01*
X197869214Y-73839423D01*
X197869212Y-73839424D01*
X197869209Y-73839425D01*
X197819096Y-73868359D01*
X197819095Y-73868360D01*
X197802031Y-73878212D01*
X197732285Y-73918479D01*
X197732282Y-73918481D01*
X196985339Y-74665425D01*
X196924016Y-74698910D01*
X196921850Y-74699361D01*
X196766508Y-74730261D01*
X196766498Y-74730264D01*
X196620827Y-74790602D01*
X196620814Y-74790609D01*
X196489711Y-74878210D01*
X196489707Y-74878213D01*
X196378213Y-74989707D01*
X196378210Y-74989711D01*
X196290609Y-75120814D01*
X196290602Y-75120827D01*
X196230264Y-75266498D01*
X196230261Y-75266510D01*
X196199500Y-75421153D01*
X196199500Y-75578846D01*
X196230261Y-75733489D01*
X196230264Y-75733501D01*
X196290602Y-75879172D01*
X196290609Y-75879185D01*
X196378210Y-76010288D01*
X196378213Y-76010292D01*
X196489707Y-76121786D01*
X196489711Y-76121789D01*
X196620814Y-76209390D01*
X196620827Y-76209397D01*
X196766498Y-76269735D01*
X196766503Y-76269737D01*
X196921153Y-76300499D01*
X196921156Y-76300500D01*
X196921158Y-76300500D01*
X197078844Y-76300500D01*
X197078845Y-76300499D01*
X197233497Y-76269737D01*
X197379179Y-76209394D01*
X197510289Y-76121789D01*
X197621789Y-76010289D01*
X197709394Y-75879179D01*
X197769737Y-75733497D01*
X197789113Y-75636085D01*
X197800638Y-75578150D01*
X197833023Y-75516239D01*
X197834518Y-75514716D01*
X198313416Y-75035819D01*
X198374739Y-75002334D01*
X198401097Y-74999500D01*
X205758453Y-74999500D01*
X205758469Y-74999501D01*
X205766065Y-74999501D01*
X205924176Y-74999501D01*
X205924179Y-74999501D01*
X206076907Y-74958577D01*
X206141718Y-74921158D01*
X206168825Y-74905507D01*
X206236720Y-74889038D01*
X206302747Y-74911890D01*
X206333921Y-74944006D01*
X206378210Y-75010288D01*
X206378213Y-75010292D01*
X206489707Y-75121786D01*
X206489711Y-75121789D01*
X206620814Y-75209390D01*
X206620827Y-75209397D01*
X206758683Y-75266498D01*
X206766503Y-75269737D01*
X206831147Y-75282595D01*
X206921849Y-75300638D01*
X206983760Y-75333023D01*
X206985339Y-75334574D01*
X213290256Y-81639491D01*
X213323741Y-81700814D01*
X213324192Y-81702980D01*
X213330261Y-81733491D01*
X213330263Y-81733499D01*
X213390602Y-81879172D01*
X213390609Y-81879185D01*
X213478210Y-82010288D01*
X213478213Y-82010292D01*
X213589707Y-82121786D01*
X213589711Y-82121789D01*
X213720814Y-82209390D01*
X213720827Y-82209397D01*
X213866498Y-82269735D01*
X213866503Y-82269737D01*
X213995770Y-82295450D01*
X214021153Y-82300499D01*
X214021156Y-82300500D01*
X214021158Y-82300500D01*
X214178844Y-82300500D01*
X214178845Y-82300499D01*
X214333497Y-82269737D01*
X214333509Y-82269731D01*
X214339324Y-82267969D01*
X214340092Y-82270501D01*
X214398128Y-82264220D01*
X214460630Y-82295450D01*
X214496325Y-82355513D01*
X214500199Y-82386264D01*
X214500199Y-82557768D01*
X214500200Y-82557775D01*
X214506607Y-82617382D01*
X214556901Y-82752227D01*
X214556905Y-82752234D01*
X214643151Y-82867443D01*
X214643154Y-82867446D01*
X214758363Y-82953692D01*
X214758370Y-82953696D01*
X214893216Y-83003990D01*
X214893215Y-83003990D01*
X214900143Y-83004734D01*
X214952826Y-83010399D01*
X215452201Y-83010398D01*
X215519239Y-83030082D01*
X215564994Y-83082886D01*
X215574938Y-83152045D01*
X215545913Y-83215601D01*
X215539881Y-83222079D01*
X195797782Y-102964181D01*
X195736459Y-102997666D01*
X195710101Y-103000500D01*
X176418046Y-103000500D01*
X176351007Y-102980815D01*
X176305252Y-102928011D01*
X176296429Y-102900691D01*
X176269738Y-102766510D01*
X176269737Y-102766503D01*
X176269735Y-102766498D01*
X176209397Y-102620827D01*
X176209390Y-102620814D01*
X176121398Y-102489125D01*
X176100520Y-102422447D01*
X176100500Y-102420234D01*
X176100500Y-91420945D01*
X176100500Y-91420943D01*
X176059577Y-91268216D01*
X175996804Y-91159489D01*
X175980524Y-91131290D01*
X175980521Y-91131286D01*
X175980520Y-91131284D01*
X175868716Y-91019480D01*
X175868715Y-91019479D01*
X175864385Y-91015149D01*
X175864374Y-91015139D01*
X174783740Y-89934505D01*
X174771968Y-89912947D01*
X174756643Y-89893749D01*
X174755519Y-89882822D01*
X174750255Y-89873182D01*
X174752007Y-89848679D01*
X174749494Y-89824246D01*
X174754455Y-89814447D01*
X174755239Y-89803490D01*
X174769960Y-89783825D01*
X174781056Y-89761911D01*
X174792053Y-89754313D01*
X174797111Y-89747557D01*
X174808639Y-89739892D01*
X174816039Y-89735547D01*
X174879179Y-89709394D01*
X175010289Y-89621789D01*
X175010991Y-89621086D01*
X175016984Y-89617568D01*
X175047519Y-89609923D01*
X175077553Y-89600520D01*
X175079766Y-89600500D01*
X175920234Y-89600500D01*
X175987273Y-89620185D01*
X175989125Y-89621398D01*
X176120814Y-89709390D01*
X176120827Y-89709397D01*
X176247609Y-89761911D01*
X176266503Y-89769737D01*
X176421153Y-89800499D01*
X176421156Y-89800500D01*
X176421158Y-89800500D01*
X176578844Y-89800500D01*
X176578845Y-89800499D01*
X176733497Y-89769737D01*
X176879179Y-89709394D01*
X177010289Y-89621789D01*
X177031578Y-89600500D01*
X177086819Y-89545260D01*
X177148142Y-89511775D01*
X177217834Y-89516759D01*
X177273767Y-89558631D01*
X177298184Y-89624095D01*
X177298500Y-89632941D01*
X177298500Y-92239240D01*
X177278815Y-92306279D01*
X177243392Y-92342342D01*
X177189707Y-92378213D01*
X177078213Y-92489707D01*
X177078210Y-92489711D01*
X176990609Y-92620814D01*
X176990602Y-92620827D01*
X176930264Y-92766498D01*
X176930261Y-92766510D01*
X176899500Y-92921153D01*
X176899500Y-93078846D01*
X176930261Y-93233489D01*
X176930264Y-93233501D01*
X176990602Y-93379172D01*
X176990609Y-93379185D01*
X177078210Y-93510288D01*
X177078213Y-93510292D01*
X177189707Y-93621786D01*
X177189711Y-93621789D01*
X177320814Y-93709390D01*
X177320827Y-93709397D01*
X177466498Y-93769735D01*
X177466503Y-93769737D01*
X177621153Y-93800499D01*
X177621156Y-93800500D01*
X177621158Y-93800500D01*
X177778844Y-93800500D01*
X177778845Y-93800499D01*
X177933497Y-93769737D01*
X178079179Y-93709394D01*
X178210289Y-93621789D01*
X178321789Y-93510289D01*
X178409394Y-93379179D01*
X178469737Y-93233497D01*
X178500500Y-93078842D01*
X178500500Y-92921158D01*
X178500097Y-92917066D01*
X178499500Y-92904913D01*
X178499500Y-88844720D01*
X178519185Y-88777681D01*
X178571989Y-88731926D01*
X178641147Y-88721982D01*
X178670952Y-88730159D01*
X178724886Y-88752499D01*
X178766503Y-88769737D01*
X178921153Y-88800499D01*
X178921156Y-88800500D01*
X178921158Y-88800500D01*
X179078844Y-88800500D01*
X179078845Y-88800499D01*
X179233497Y-88769737D01*
X179379179Y-88709394D01*
X179510289Y-88621789D01*
X179621789Y-88510289D01*
X179709394Y-88379179D01*
X179713728Y-88368717D01*
X179723067Y-88346166D01*
X179769737Y-88233497D01*
X179789113Y-88136085D01*
X179800638Y-88078150D01*
X179833023Y-88016239D01*
X179834518Y-88014716D01*
X191813416Y-76035819D01*
X191874739Y-76002334D01*
X191901097Y-75999500D01*
X194521234Y-75999500D01*
X194588273Y-76019185D01*
X194590125Y-76020398D01*
X194721814Y-76108390D01*
X194721827Y-76108397D01*
X194867498Y-76168735D01*
X194867503Y-76168737D01*
X195022153Y-76199499D01*
X195022156Y-76199500D01*
X195022158Y-76199500D01*
X195179844Y-76199500D01*
X195179845Y-76199499D01*
X195334497Y-76168737D01*
X195480179Y-76108394D01*
X195611289Y-76020789D01*
X195722789Y-75909289D01*
X195810394Y-75778179D01*
X195870737Y-75632497D01*
X195901500Y-75477842D01*
X195901500Y-75320158D01*
X195901500Y-75320155D01*
X195901499Y-75320153D01*
X195891471Y-75269738D01*
X195870737Y-75165503D01*
X195852229Y-75120821D01*
X195810397Y-75019827D01*
X195810390Y-75019814D01*
X195722789Y-74888711D01*
X195722786Y-74888707D01*
X195611292Y-74777213D01*
X195611288Y-74777210D01*
X195480185Y-74689609D01*
X195480172Y-74689602D01*
X195334501Y-74629264D01*
X195334489Y-74629261D01*
X195179845Y-74598500D01*
X195179842Y-74598500D01*
X195022158Y-74598500D01*
X195022155Y-74598500D01*
X194867510Y-74629261D01*
X194867498Y-74629264D01*
X194721827Y-74689602D01*
X194721814Y-74689609D01*
X194590125Y-74777602D01*
X194523447Y-74798480D01*
X194521234Y-74798500D01*
X191521941Y-74798500D01*
X191461866Y-74814597D01*
X191392017Y-74812934D01*
X191334154Y-74773771D01*
X191306651Y-74709542D01*
X191318238Y-74640640D01*
X191342091Y-74607143D01*
X192414662Y-73534572D01*
X192475983Y-73501089D01*
X192478150Y-73500638D01*
X192536085Y-73489113D01*
X192633497Y-73469737D01*
X192779179Y-73409394D01*
X192910289Y-73321789D01*
X193021789Y-73210289D01*
X193036724Y-73187936D01*
X193058325Y-73155610D01*
X193111937Y-73110804D01*
X193161427Y-73100500D01*
X198913331Y-73100500D01*
X198913347Y-73100501D01*
X198920943Y-73100501D01*
X199079054Y-73100501D01*
X199079057Y-73100501D01*
X199231785Y-73059577D01*
X199281904Y-73030639D01*
X199368716Y-72980520D01*
X199480520Y-72868716D01*
X199480520Y-72868714D01*
X199490728Y-72858507D01*
X199490730Y-72858504D01*
X200639492Y-71709741D01*
X200700813Y-71676258D01*
X200702889Y-71675825D01*
X200733497Y-71669737D01*
X200879179Y-71609394D01*
X201010289Y-71521789D01*
X201121789Y-71410289D01*
X201209394Y-71279179D01*
X201214643Y-71266508D01*
X201234951Y-71217479D01*
X201269737Y-71133497D01*
X201300500Y-70978842D01*
X201300500Y-70821158D01*
X201300500Y-70821155D01*
X201300499Y-70821153D01*
X201278640Y-70711261D01*
X201269737Y-70666503D01*
X201227898Y-70565494D01*
X201209397Y-70520827D01*
X201209390Y-70520814D01*
X201121789Y-70389711D01*
X201121786Y-70389707D01*
X201010292Y-70278213D01*
X201010288Y-70278210D01*
X200879185Y-70190609D01*
X200879172Y-70190602D01*
X200733501Y-70130264D01*
X200733489Y-70130261D01*
X200578845Y-70099500D01*
X200578842Y-70099500D01*
X200421158Y-70099500D01*
X200421155Y-70099500D01*
X200266510Y-70130261D01*
X200266498Y-70130264D01*
X200120827Y-70190602D01*
X200120814Y-70190609D01*
X199989711Y-70278210D01*
X199989707Y-70278213D01*
X199878213Y-70389707D01*
X199878210Y-70389711D01*
X199790609Y-70520814D01*
X199790602Y-70520827D01*
X199730264Y-70666498D01*
X199730261Y-70666510D01*
X199699500Y-70821153D01*
X199699500Y-70899903D01*
X199679815Y-70966942D01*
X199663181Y-70987584D01*
X198787584Y-71863181D01*
X198726261Y-71896666D01*
X198699903Y-71899500D01*
X197417848Y-71899500D01*
X197350809Y-71879815D01*
X197305054Y-71827011D01*
X197296231Y-71799692D01*
X197269738Y-71666508D01*
X197269737Y-71666507D01*
X197269737Y-71666503D01*
X197224050Y-71556204D01*
X197209397Y-71520827D01*
X197209390Y-71520814D01*
X197121789Y-71389711D01*
X197121786Y-71389707D01*
X197010292Y-71278213D01*
X197010288Y-71278210D01*
X196879185Y-71190609D01*
X196879172Y-71190602D01*
X196733501Y-71130264D01*
X196733489Y-71130261D01*
X196578845Y-71099500D01*
X196578842Y-71099500D01*
X196421158Y-71099500D01*
X196421155Y-71099500D01*
X196266510Y-71130261D01*
X196266498Y-71130264D01*
X196120827Y-71190602D01*
X196120814Y-71190609D01*
X195989125Y-71278602D01*
X195922447Y-71299480D01*
X195920234Y-71299500D01*
X195037984Y-71299500D01*
X194997843Y-71310255D01*
X194997844Y-71310256D01*
X194885257Y-71340423D01*
X194885256Y-71340424D01*
X194811709Y-71382887D01*
X194749709Y-71399500D01*
X193417140Y-71399500D01*
X193387699Y-71390855D01*
X193357713Y-71384332D01*
X193352697Y-71380577D01*
X193350101Y-71379815D01*
X193329459Y-71363181D01*
X193302633Y-71336355D01*
X193302631Y-71336352D01*
X193183760Y-71217481D01*
X193183759Y-71217480D01*
X193096947Y-71167360D01*
X193096947Y-71167359D01*
X193096943Y-71167358D01*
X193046828Y-71138423D01*
X192894100Y-71097499D01*
X192735986Y-71097499D01*
X192728390Y-71097499D01*
X192728374Y-71097500D01*
X192064019Y-71097500D01*
X192064015Y-71097499D01*
X191994100Y-71097499D01*
X191835986Y-71097499D01*
X191835982Y-71097500D01*
X191385055Y-71097500D01*
X191318016Y-71077815D01*
X191297374Y-71061181D01*
X191255674Y-71019481D01*
X191255673Y-71019480D01*
X191168861Y-70969360D01*
X191168861Y-70969359D01*
X191168857Y-70969358D01*
X191118742Y-70940423D01*
X190966014Y-70899499D01*
X190807900Y-70899499D01*
X190800304Y-70899499D01*
X190800288Y-70899500D01*
X187936613Y-70899500D01*
X187936597Y-70899499D01*
X187929001Y-70899499D01*
X187770886Y-70899499D01*
X187694522Y-70919961D01*
X187618157Y-70940423D01*
X187618156Y-70940424D01*
X187572226Y-70966942D01*
X187551612Y-70978844D01*
X187543743Y-70983387D01*
X187481743Y-71000000D01*
X180400597Y-71000000D01*
X180333558Y-70980315D01*
X180312916Y-70963681D01*
X178770388Y-69421153D01*
X204199500Y-69421153D01*
X204199500Y-69578846D01*
X204230261Y-69733489D01*
X204230264Y-69733501D01*
X204290602Y-69879172D01*
X204290609Y-69879185D01*
X204378602Y-70010874D01*
X204399480Y-70077551D01*
X204399500Y-70079765D01*
X204399500Y-71420234D01*
X204379815Y-71487273D01*
X204378602Y-71489125D01*
X204290609Y-71620814D01*
X204290602Y-71620827D01*
X204230264Y-71766498D01*
X204230261Y-71766510D01*
X204199500Y-71921153D01*
X204199500Y-72078846D01*
X204230261Y-72233489D01*
X204230264Y-72233501D01*
X204290602Y-72379172D01*
X204290609Y-72379185D01*
X204378210Y-72510288D01*
X204378213Y-72510292D01*
X204489707Y-72621786D01*
X204489711Y-72621789D01*
X204620814Y-72709390D01*
X204620827Y-72709397D01*
X204683948Y-72735542D01*
X204766503Y-72769737D01*
X204921153Y-72800499D01*
X204921156Y-72800500D01*
X204921158Y-72800500D01*
X205078844Y-72800500D01*
X205078845Y-72800499D01*
X205233497Y-72769737D01*
X205379179Y-72709394D01*
X205510289Y-72621789D01*
X205621789Y-72510289D01*
X205709394Y-72379179D01*
X205769737Y-72233497D01*
X205800500Y-72078842D01*
X205800500Y-71921158D01*
X205800500Y-71921155D01*
X205800499Y-71921153D01*
X205792150Y-71879179D01*
X205769737Y-71766503D01*
X205769735Y-71766498D01*
X205709397Y-71620827D01*
X205709390Y-71620814D01*
X205621398Y-71489125D01*
X205600520Y-71422447D01*
X205600500Y-71420234D01*
X205600500Y-70079765D01*
X205620185Y-70012726D01*
X205621398Y-70010874D01*
X205709390Y-69879185D01*
X205709390Y-69879184D01*
X205709394Y-69879179D01*
X205769737Y-69733497D01*
X205800500Y-69578842D01*
X205800500Y-69421158D01*
X205800500Y-69421155D01*
X205800499Y-69421153D01*
X205775484Y-69295397D01*
X205769737Y-69266503D01*
X205746080Y-69209390D01*
X205709397Y-69120827D01*
X205709390Y-69120814D01*
X205621789Y-68989711D01*
X205621786Y-68989707D01*
X205510292Y-68878213D01*
X205510288Y-68878210D01*
X205379185Y-68790609D01*
X205379172Y-68790602D01*
X205233501Y-68730264D01*
X205233489Y-68730261D01*
X205078845Y-68699500D01*
X205078842Y-68699500D01*
X204921158Y-68699500D01*
X204921155Y-68699500D01*
X204766510Y-68730261D01*
X204766498Y-68730264D01*
X204620827Y-68790602D01*
X204620814Y-68790609D01*
X204489711Y-68878210D01*
X204489707Y-68878213D01*
X204378213Y-68989707D01*
X204378210Y-68989711D01*
X204290609Y-69120814D01*
X204290602Y-69120827D01*
X204230264Y-69266498D01*
X204230261Y-69266510D01*
X204199500Y-69421153D01*
X178770388Y-69421153D01*
X177834574Y-68485339D01*
X177801089Y-68424016D01*
X177800638Y-68421849D01*
X177800500Y-68421153D01*
X183199500Y-68421153D01*
X183199500Y-68578846D01*
X183230261Y-68733489D01*
X183230264Y-68733501D01*
X183290602Y-68879172D01*
X183290609Y-68879185D01*
X183378210Y-69010288D01*
X183378213Y-69010292D01*
X183489707Y-69121786D01*
X183489711Y-69121789D01*
X183620814Y-69209390D01*
X183620827Y-69209397D01*
X183758683Y-69266498D01*
X183766503Y-69269737D01*
X183895489Y-69295394D01*
X183921153Y-69300499D01*
X183921156Y-69300500D01*
X183921158Y-69300500D01*
X184078844Y-69300500D01*
X184078845Y-69300499D01*
X184233497Y-69269737D01*
X184379179Y-69209394D01*
X184381586Y-69207786D01*
X184510875Y-69121398D01*
X184577553Y-69100520D01*
X184579766Y-69100500D01*
X186420234Y-69100500D01*
X186487273Y-69120185D01*
X186489125Y-69121398D01*
X186620814Y-69209390D01*
X186620827Y-69209397D01*
X186758683Y-69266498D01*
X186766503Y-69269737D01*
X186895489Y-69295394D01*
X186921153Y-69300499D01*
X186921156Y-69300500D01*
X186921158Y-69300500D01*
X187078844Y-69300500D01*
X187078845Y-69300499D01*
X187233497Y-69269737D01*
X187379179Y-69209394D01*
X187510289Y-69121789D01*
X187621789Y-69010289D01*
X187709394Y-68879179D01*
X187769737Y-68733497D01*
X187800500Y-68578842D01*
X187800500Y-68421158D01*
X187800500Y-68421155D01*
X187800499Y-68421153D01*
X195699500Y-68421153D01*
X195699500Y-68578846D01*
X195730261Y-68733489D01*
X195730264Y-68733501D01*
X195790602Y-68879172D01*
X195790609Y-68879185D01*
X195878210Y-69010288D01*
X195878213Y-69010292D01*
X195989707Y-69121786D01*
X195989711Y-69121789D01*
X196120814Y-69209390D01*
X196120827Y-69209397D01*
X196258683Y-69266498D01*
X196266503Y-69269737D01*
X196395489Y-69295394D01*
X196421153Y-69300499D01*
X196421156Y-69300500D01*
X196421158Y-69300500D01*
X196578844Y-69300500D01*
X196578845Y-69300499D01*
X196733497Y-69269737D01*
X196879179Y-69209394D01*
X196881586Y-69207786D01*
X197010875Y-69121398D01*
X197077553Y-69100520D01*
X197079766Y-69100500D01*
X199831060Y-69100500D01*
X199898099Y-69120185D01*
X199918736Y-69136814D01*
X199989708Y-69207786D01*
X199989712Y-69207790D01*
X200120814Y-69295390D01*
X200120827Y-69295397D01*
X200266498Y-69355735D01*
X200266503Y-69355737D01*
X200421153Y-69386499D01*
X200421156Y-69386500D01*
X200421158Y-69386500D01*
X200578844Y-69386500D01*
X200578845Y-69386499D01*
X200733497Y-69355737D01*
X200789630Y-69332485D01*
X200866841Y-69300505D01*
X200879173Y-69295397D01*
X200879176Y-69295395D01*
X200879179Y-69295394D01*
X201010289Y-69207789D01*
X201121789Y-69096289D01*
X201209394Y-68965179D01*
X201269737Y-68819497D01*
X201300500Y-68664842D01*
X201300500Y-68507158D01*
X201300500Y-68507155D01*
X201300499Y-68507153D01*
X201269738Y-68352510D01*
X201269737Y-68352503D01*
X201234113Y-68266498D01*
X201209397Y-68206827D01*
X201209390Y-68206814D01*
X201121789Y-68075711D01*
X201121786Y-68075707D01*
X201010292Y-67964213D01*
X201010288Y-67964210D01*
X200879185Y-67876609D01*
X200879172Y-67876602D01*
X200733501Y-67816264D01*
X200733489Y-67816261D01*
X200578845Y-67785500D01*
X200578842Y-67785500D01*
X200421158Y-67785500D01*
X200421155Y-67785500D01*
X200266510Y-67816261D01*
X200266498Y-67816264D01*
X200120825Y-67876603D01*
X200120820Y-67876606D01*
X200117832Y-67878603D01*
X200116029Y-67879167D01*
X200115454Y-67879475D01*
X200115395Y-67879365D01*
X200051154Y-67899480D01*
X200048943Y-67899500D01*
X197079766Y-67899500D01*
X197012727Y-67879815D01*
X197010875Y-67878602D01*
X196879185Y-67790609D01*
X196879172Y-67790602D01*
X196733501Y-67730264D01*
X196733489Y-67730261D01*
X196578845Y-67699500D01*
X196578842Y-67699500D01*
X196421158Y-67699500D01*
X196421155Y-67699500D01*
X196266510Y-67730261D01*
X196266498Y-67730264D01*
X196120827Y-67790602D01*
X196120814Y-67790609D01*
X195989711Y-67878210D01*
X195989707Y-67878213D01*
X195878213Y-67989707D01*
X195878210Y-67989711D01*
X195790609Y-68120814D01*
X195790602Y-68120827D01*
X195730264Y-68266498D01*
X195730261Y-68266510D01*
X195699500Y-68421153D01*
X187800499Y-68421153D01*
X187786845Y-68352510D01*
X187769737Y-68266503D01*
X187745013Y-68206814D01*
X187709397Y-68120827D01*
X187709390Y-68120814D01*
X187621789Y-67989711D01*
X187621786Y-67989707D01*
X187510292Y-67878213D01*
X187510288Y-67878210D01*
X187379185Y-67790609D01*
X187379172Y-67790602D01*
X187233501Y-67730264D01*
X187233489Y-67730261D01*
X187078845Y-67699500D01*
X187078842Y-67699500D01*
X186921158Y-67699500D01*
X186921155Y-67699500D01*
X186766510Y-67730261D01*
X186766498Y-67730264D01*
X186620827Y-67790602D01*
X186620814Y-67790609D01*
X186489125Y-67878602D01*
X186422447Y-67899480D01*
X186420234Y-67899500D01*
X184579766Y-67899500D01*
X184512727Y-67879815D01*
X184510875Y-67878602D01*
X184379185Y-67790609D01*
X184379172Y-67790602D01*
X184233501Y-67730264D01*
X184233489Y-67730261D01*
X184078845Y-67699500D01*
X184078842Y-67699500D01*
X183921158Y-67699500D01*
X183921155Y-67699500D01*
X183766510Y-67730261D01*
X183766498Y-67730264D01*
X183620827Y-67790602D01*
X183620814Y-67790609D01*
X183489711Y-67878210D01*
X183489707Y-67878213D01*
X183378213Y-67989707D01*
X183378210Y-67989711D01*
X183290609Y-68120814D01*
X183290602Y-68120827D01*
X183230264Y-68266498D01*
X183230261Y-68266510D01*
X183199500Y-68421153D01*
X177800500Y-68421153D01*
X177769738Y-68266510D01*
X177769737Y-68266503D01*
X177745013Y-68206814D01*
X177709397Y-68120827D01*
X177709390Y-68120814D01*
X177621789Y-67989711D01*
X177621786Y-67989707D01*
X177510292Y-67878213D01*
X177510288Y-67878210D01*
X177379185Y-67790609D01*
X177379172Y-67790602D01*
X177233501Y-67730264D01*
X177233489Y-67730261D01*
X177078845Y-67699500D01*
X177078842Y-67699500D01*
X176921158Y-67699500D01*
X176921155Y-67699500D01*
X176766510Y-67730261D01*
X176766498Y-67730264D01*
X176620827Y-67790602D01*
X176620814Y-67790609D01*
X176489711Y-67878210D01*
X176489707Y-67878213D01*
X176378213Y-67989707D01*
X176378210Y-67989711D01*
X176290609Y-68120814D01*
X176290602Y-68120827D01*
X176230264Y-68266498D01*
X176230261Y-68266510D01*
X176199500Y-68421153D01*
X176199500Y-68578846D01*
X176230261Y-68733489D01*
X176230264Y-68733501D01*
X176290602Y-68879172D01*
X176290609Y-68879185D01*
X176378210Y-69010288D01*
X176378213Y-69010292D01*
X176489707Y-69121786D01*
X176489711Y-69121789D01*
X176620814Y-69209390D01*
X176620827Y-69209397D01*
X176758683Y-69266498D01*
X176766503Y-69269737D01*
X176831147Y-69282595D01*
X176921849Y-69300638D01*
X176983760Y-69333023D01*
X176985339Y-69334574D01*
X178216259Y-70565494D01*
X178249744Y-70626817D01*
X178244760Y-70696509D01*
X178202888Y-70752442D01*
X178176032Y-70767735D01*
X178120829Y-70790601D01*
X178120814Y-70790609D01*
X177989711Y-70878210D01*
X177989707Y-70878213D01*
X177904240Y-70963681D01*
X177877312Y-70978384D01*
X177851494Y-70994977D01*
X177845293Y-70995868D01*
X177842917Y-70997166D01*
X177816559Y-71000000D01*
X177683441Y-71000000D01*
X177616402Y-70980315D01*
X177595760Y-70963681D01*
X177510292Y-70878213D01*
X177510288Y-70878210D01*
X177379185Y-70790609D01*
X177379172Y-70790602D01*
X177233501Y-70730264D01*
X177233489Y-70730261D01*
X177078845Y-70699500D01*
X177078842Y-70699500D01*
X176921158Y-70699500D01*
X176921155Y-70699500D01*
X176766510Y-70730261D01*
X176766498Y-70730264D01*
X176620827Y-70790602D01*
X176620814Y-70790609D01*
X176489711Y-70878210D01*
X176489707Y-70878213D01*
X176378213Y-70989707D01*
X176378210Y-70989711D01*
X176290609Y-71120814D01*
X176290602Y-71120827D01*
X176230264Y-71266498D01*
X176230261Y-71266508D01*
X176199361Y-71421850D01*
X176166976Y-71483761D01*
X176165425Y-71485339D01*
X174485339Y-73165425D01*
X174424016Y-73198910D01*
X174421850Y-73199361D01*
X174266508Y-73230261D01*
X174266498Y-73230264D01*
X174120827Y-73290602D01*
X174120814Y-73290609D01*
X173989711Y-73378210D01*
X173989707Y-73378213D01*
X173878213Y-73489707D01*
X173878210Y-73489711D01*
X173790609Y-73620814D01*
X173790602Y-73620827D01*
X173730264Y-73766498D01*
X173730261Y-73766510D01*
X173699500Y-73921153D01*
X173699500Y-74078846D01*
X173730261Y-74233489D01*
X173730264Y-74233501D01*
X173790602Y-74379172D01*
X173790609Y-74379185D01*
X173878210Y-74510288D01*
X173878213Y-74510292D01*
X173989707Y-74621786D01*
X173989711Y-74621789D01*
X174120814Y-74709390D01*
X174120827Y-74709397D01*
X174266498Y-74769735D01*
X174266503Y-74769737D01*
X174421153Y-74800499D01*
X174421156Y-74800500D01*
X174421158Y-74800500D01*
X174578844Y-74800500D01*
X174578845Y-74800499D01*
X174733497Y-74769737D01*
X174879179Y-74709394D01*
X175010289Y-74621789D01*
X175121789Y-74510289D01*
X175209394Y-74379179D01*
X175269737Y-74233497D01*
X175294803Y-74107483D01*
X175300638Y-74078150D01*
X175333023Y-74016239D01*
X175334518Y-74014716D01*
X177014662Y-72334572D01*
X177075983Y-72301089D01*
X177078150Y-72300638D01*
X177136085Y-72289113D01*
X177233497Y-72269737D01*
X177379179Y-72209394D01*
X177510289Y-72121789D01*
X177621789Y-72010289D01*
X177629145Y-71999279D01*
X177646898Y-71972712D01*
X177672066Y-71951677D01*
X177696483Y-71929745D01*
X177698748Y-71929377D01*
X177700510Y-71927906D01*
X177733065Y-71923817D01*
X177765453Y-71918569D01*
X177767557Y-71919485D01*
X177769835Y-71919199D01*
X177799429Y-71933357D01*
X177829517Y-71946454D01*
X177831562Y-71948731D01*
X177832862Y-71949353D01*
X177853102Y-71972711D01*
X177878602Y-72010874D01*
X177899480Y-72077551D01*
X177899500Y-72079765D01*
X177899500Y-73699902D01*
X177879815Y-73766941D01*
X177863181Y-73787583D01*
X177485339Y-74165425D01*
X177424016Y-74198910D01*
X177421850Y-74199361D01*
X177266508Y-74230261D01*
X177266498Y-74230264D01*
X177120827Y-74290602D01*
X177120814Y-74290609D01*
X176989711Y-74378210D01*
X176989707Y-74378213D01*
X176878213Y-74489707D01*
X176878210Y-74489711D01*
X176790609Y-74620814D01*
X176790602Y-74620827D01*
X176730264Y-74766498D01*
X176730261Y-74766510D01*
X176699500Y-74921153D01*
X176699500Y-75078846D01*
X176730261Y-75233489D01*
X176730264Y-75233501D01*
X176790602Y-75379172D01*
X176790609Y-75379185D01*
X176878210Y-75510288D01*
X176878213Y-75510292D01*
X176989707Y-75621786D01*
X176989711Y-75621789D01*
X177120814Y-75709390D01*
X177120827Y-75709397D01*
X177258683Y-75766498D01*
X177266503Y-75769737D01*
X177421153Y-75800499D01*
X177421156Y-75800500D01*
X177526558Y-75800500D01*
X177593597Y-75820185D01*
X177639352Y-75872989D01*
X177650558Y-75924500D01*
X177650558Y-80598902D01*
X177630873Y-80665941D01*
X177614239Y-80686583D01*
X177418481Y-80882340D01*
X177418479Y-80882343D01*
X177371668Y-80963424D01*
X177371667Y-80963425D01*
X177339423Y-81019272D01*
X177339423Y-81019273D01*
X177298499Y-81172001D01*
X177298499Y-81172003D01*
X177298499Y-81340104D01*
X177298500Y-81340117D01*
X177298500Y-88367059D01*
X177278815Y-88434098D01*
X177226011Y-88479853D01*
X177156853Y-88489797D01*
X177093297Y-88460772D01*
X177086819Y-88454740D01*
X177010292Y-88378213D01*
X177010288Y-88378210D01*
X176879185Y-88290609D01*
X176879172Y-88290602D01*
X176733501Y-88230264D01*
X176733489Y-88230261D01*
X176578845Y-88199500D01*
X176578842Y-88199500D01*
X176421158Y-88199500D01*
X176421155Y-88199500D01*
X176266510Y-88230261D01*
X176266498Y-88230264D01*
X176120827Y-88290602D01*
X176120814Y-88290609D01*
X175989125Y-88378602D01*
X175922447Y-88399480D01*
X175920234Y-88399500D01*
X175079766Y-88399500D01*
X175012727Y-88379815D01*
X175010875Y-88378602D01*
X174879185Y-88290609D01*
X174879172Y-88290602D01*
X174733501Y-88230264D01*
X174733489Y-88230261D01*
X174578845Y-88199500D01*
X174578842Y-88199500D01*
X174421158Y-88199500D01*
X174421155Y-88199500D01*
X174266510Y-88230261D01*
X174266498Y-88230264D01*
X174120827Y-88290602D01*
X174120814Y-88290609D01*
X173989711Y-88378210D01*
X173989707Y-88378213D01*
X173878213Y-88489707D01*
X173878210Y-88489711D01*
X173790609Y-88620814D01*
X173790601Y-88620829D01*
X173767735Y-88676032D01*
X173723893Y-88730435D01*
X173657599Y-88752499D01*
X173589900Y-88735219D01*
X173565494Y-88716259D01*
X172636819Y-87787584D01*
X172603334Y-87726261D01*
X172600500Y-87699903D01*
X172600500Y-83897955D01*
X172620185Y-83830916D01*
X172672989Y-83785161D01*
X172700303Y-83776339D01*
X172733497Y-83769737D01*
X172879179Y-83709394D01*
X173010289Y-83621789D01*
X173121789Y-83510289D01*
X173209394Y-83379179D01*
X173269737Y-83233497D01*
X173300500Y-83078842D01*
X173300500Y-82921158D01*
X173300500Y-82921155D01*
X173300499Y-82921153D01*
X173282273Y-82829524D01*
X173269737Y-82766503D01*
X173252226Y-82724228D01*
X173209397Y-82620827D01*
X173209390Y-82620814D01*
X173121789Y-82489711D01*
X173121786Y-82489707D01*
X173010292Y-82378213D01*
X173010288Y-82378210D01*
X172879185Y-82290609D01*
X172879172Y-82290602D01*
X172733501Y-82230264D01*
X172733489Y-82230261D01*
X172578845Y-82199500D01*
X172578842Y-82199500D01*
X172421158Y-82199500D01*
X172421155Y-82199500D01*
X172266510Y-82230261D01*
X172266498Y-82230264D01*
X172120827Y-82290602D01*
X172120814Y-82290609D01*
X171989711Y-82378210D01*
X171989707Y-82378213D01*
X171878213Y-82489707D01*
X171878210Y-82489711D01*
X171790609Y-82620814D01*
X171790602Y-82620827D01*
X171730264Y-82766498D01*
X171730261Y-82766508D01*
X171699362Y-82921847D01*
X171690597Y-82938602D01*
X171686578Y-82957081D01*
X171667834Y-82982118D01*
X171666977Y-82983758D01*
X171665427Y-82985335D01*
X171624224Y-83026538D01*
X171624212Y-83026552D01*
X171519478Y-83131286D01*
X171469361Y-83218094D01*
X171469359Y-83218096D01*
X171440425Y-83268209D01*
X171440424Y-83268210D01*
X171440423Y-83268215D01*
X171399499Y-83420943D01*
X171399499Y-83420945D01*
X171399499Y-83589046D01*
X171399500Y-83589059D01*
X171399500Y-87913330D01*
X171399499Y-87913348D01*
X171399499Y-88079054D01*
X171399498Y-88079054D01*
X171440423Y-88231785D01*
X171469358Y-88281900D01*
X171469359Y-88281904D01*
X171469360Y-88281904D01*
X171518523Y-88367059D01*
X171519479Y-88368714D01*
X171519481Y-88368717D01*
X171638349Y-88487585D01*
X171638355Y-88487590D01*
X174863181Y-91712416D01*
X174896666Y-91773739D01*
X174899500Y-91800097D01*
X174899500Y-102100846D01*
X174879815Y-102167885D01*
X174827011Y-102213640D01*
X174757853Y-102223584D01*
X174694297Y-102194559D01*
X174687819Y-102188527D01*
X166636819Y-94137527D01*
X166603334Y-94076204D01*
X166600500Y-94049846D01*
X166600500Y-92921153D01*
X171199500Y-92921153D01*
X171199500Y-93078846D01*
X171230261Y-93233489D01*
X171230264Y-93233501D01*
X171290602Y-93379172D01*
X171290609Y-93379185D01*
X171378210Y-93510288D01*
X171378213Y-93510292D01*
X171489707Y-93621786D01*
X171489711Y-93621789D01*
X171620814Y-93709390D01*
X171620827Y-93709397D01*
X171708230Y-93745599D01*
X171766503Y-93769737D01*
X171773952Y-93771218D01*
X171802081Y-93785931D01*
X171830968Y-93799123D01*
X171832823Y-93802009D01*
X171835862Y-93803599D01*
X171851573Y-93831185D01*
X171868742Y-93857901D01*
X171869401Y-93862490D01*
X171870440Y-93864313D01*
X171873765Y-93892836D01*
X171873765Y-93894499D01*
X171854080Y-93961538D01*
X171852867Y-93963390D01*
X171764874Y-94095079D01*
X171764867Y-94095092D01*
X171704529Y-94240763D01*
X171704526Y-94240775D01*
X171673765Y-94395418D01*
X171673765Y-94553111D01*
X171704526Y-94707754D01*
X171704529Y-94707766D01*
X171764867Y-94853437D01*
X171764874Y-94853450D01*
X171852475Y-94984553D01*
X171852478Y-94984557D01*
X171963972Y-95096051D01*
X171963976Y-95096054D01*
X172095079Y-95183655D01*
X172095092Y-95183662D01*
X172240763Y-95244000D01*
X172240768Y-95244002D01*
X172395418Y-95274764D01*
X172395421Y-95274765D01*
X172395423Y-95274765D01*
X172553109Y-95274765D01*
X172553110Y-95274764D01*
X172707762Y-95244002D01*
X172853444Y-95183659D01*
X172984554Y-95096054D01*
X173096054Y-94984554D01*
X173183659Y-94853444D01*
X173244002Y-94707762D01*
X173274765Y-94553107D01*
X173274765Y-94395423D01*
X173274765Y-94395420D01*
X173274764Y-94395418D01*
X173248482Y-94263291D01*
X173244002Y-94240768D01*
X173186195Y-94101208D01*
X173183662Y-94095092D01*
X173183655Y-94095079D01*
X173095663Y-93963390D01*
X173074785Y-93896712D01*
X173074765Y-93894499D01*
X173074765Y-93563324D01*
X173074766Y-93563311D01*
X173074766Y-93395210D01*
X173074766Y-93395208D01*
X173033842Y-93242480D01*
X173003395Y-93189744D01*
X172954785Y-93105549D01*
X172842981Y-92993745D01*
X172842980Y-92993744D01*
X172838650Y-92989414D01*
X172838639Y-92989404D01*
X172834574Y-92985339D01*
X172801089Y-92924016D01*
X172800638Y-92921849D01*
X172769738Y-92766510D01*
X172769737Y-92766503D01*
X172769735Y-92766498D01*
X172709397Y-92620827D01*
X172709390Y-92620814D01*
X172621789Y-92489711D01*
X172621786Y-92489707D01*
X172510292Y-92378213D01*
X172510288Y-92378210D01*
X172379185Y-92290609D01*
X172379172Y-92290602D01*
X172233501Y-92230264D01*
X172233489Y-92230261D01*
X172078845Y-92199500D01*
X172078842Y-92199500D01*
X171921158Y-92199500D01*
X171921155Y-92199500D01*
X171766510Y-92230261D01*
X171766498Y-92230264D01*
X171620827Y-92290602D01*
X171620814Y-92290609D01*
X171489711Y-92378210D01*
X171489707Y-92378213D01*
X171378213Y-92489707D01*
X171378210Y-92489711D01*
X171290609Y-92620814D01*
X171290602Y-92620827D01*
X171230264Y-92766498D01*
X171230261Y-92766510D01*
X171199500Y-92921153D01*
X166600500Y-92921153D01*
X166600500Y-76579765D01*
X166620185Y-76512726D01*
X166621398Y-76510874D01*
X166709390Y-76379185D01*
X166709390Y-76379184D01*
X166709394Y-76379179D01*
X166769737Y-76233497D01*
X166800500Y-76078842D01*
X166800500Y-75921158D01*
X166800500Y-75921155D01*
X166800499Y-75921153D01*
X166792148Y-75879172D01*
X166769737Y-75766503D01*
X166714232Y-75632501D01*
X166709397Y-75620827D01*
X166709390Y-75620814D01*
X166621789Y-75489711D01*
X166621786Y-75489707D01*
X166510292Y-75378213D01*
X166510288Y-75378210D01*
X166379185Y-75290609D01*
X166379172Y-75290602D01*
X166233501Y-75230264D01*
X166233489Y-75230261D01*
X166078845Y-75199500D01*
X166078842Y-75199500D01*
X165921158Y-75199500D01*
X165921155Y-75199500D01*
X165766510Y-75230261D01*
X165766498Y-75230264D01*
X165620827Y-75290602D01*
X165620814Y-75290609D01*
X165489711Y-75378210D01*
X165489707Y-75378213D01*
X165378213Y-75489707D01*
X165378210Y-75489711D01*
X165290609Y-75620814D01*
X165290602Y-75620827D01*
X165230264Y-75766498D01*
X165230261Y-75766510D01*
X165199500Y-75921153D01*
X164000500Y-75921153D01*
X164000500Y-59008713D01*
X168999500Y-59008713D01*
X168999500Y-59221286D01*
X169032730Y-59431096D01*
X169032754Y-59431243D01*
X169081344Y-59580788D01*
X169098444Y-59633414D01*
X169194951Y-59822820D01*
X169319890Y-59994786D01*
X169470213Y-60145109D01*
X169642179Y-60270048D01*
X169642181Y-60270049D01*
X169642184Y-60270051D01*
X169831588Y-60366557D01*
X170033757Y-60432246D01*
X170243713Y-60465500D01*
X170243714Y-60465500D01*
X170456286Y-60465500D01*
X170456287Y-60465500D01*
X170666243Y-60432246D01*
X170868412Y-60366557D01*
X171057816Y-60270051D01*
X171079789Y-60254086D01*
X171229786Y-60145109D01*
X171229788Y-60145106D01*
X171229792Y-60145104D01*
X171380104Y-59994792D01*
X171380106Y-59994788D01*
X171380109Y-59994786D01*
X171505048Y-59822820D01*
X171505047Y-59822820D01*
X171505051Y-59822816D01*
X171601557Y-59633412D01*
X171667246Y-59431243D01*
X171700500Y-59221287D01*
X171700500Y-59008713D01*
X171667246Y-58798757D01*
X171642464Y-58722486D01*
X172204500Y-58722486D01*
X172204500Y-58907513D01*
X172233445Y-59090265D01*
X172290619Y-59266232D01*
X172290620Y-59266235D01*
X172367805Y-59417717D01*
X172374622Y-59431096D01*
X172483379Y-59580787D01*
X172614213Y-59711621D01*
X172763904Y-59820378D01*
X172844763Y-59861577D01*
X172928764Y-59904379D01*
X172928767Y-59904380D01*
X173016750Y-59932967D01*
X173104736Y-59961555D01*
X173287486Y-59990500D01*
X173287487Y-59990500D01*
X173472513Y-59990500D01*
X173472514Y-59990500D01*
X173655264Y-59961555D01*
X173831235Y-59904379D01*
X173996096Y-59820378D01*
X174145787Y-59711621D01*
X174276621Y-59580787D01*
X174385378Y-59431096D01*
X174469379Y-59266235D01*
X174526555Y-59090264D01*
X174555500Y-58907514D01*
X174555500Y-58722486D01*
X174526555Y-58539736D01*
X174469379Y-58363765D01*
X174469379Y-58363764D01*
X174385377Y-58198903D01*
X174276621Y-58049213D01*
X174145787Y-57918379D01*
X173996096Y-57809622D01*
X173972802Y-57797753D01*
X173831235Y-57725620D01*
X173831232Y-57725619D01*
X173655265Y-57668445D01*
X173563889Y-57653972D01*
X173472514Y-57639500D01*
X173287486Y-57639500D01*
X173226569Y-57649148D01*
X173104734Y-57668445D01*
X172928767Y-57725619D01*
X172928764Y-57725620D01*
X172763903Y-57809622D01*
X172689826Y-57863443D01*
X172614213Y-57918379D01*
X172614211Y-57918381D01*
X172614210Y-57918381D01*
X172483381Y-58049210D01*
X172483381Y-58049211D01*
X172483379Y-58049213D01*
X172457458Y-58084890D01*
X172374622Y-58198903D01*
X172290620Y-58363764D01*
X172290619Y-58363767D01*
X172233445Y-58539734D01*
X172204500Y-58722486D01*
X171642464Y-58722486D01*
X171601557Y-58596588D01*
X171505051Y-58407184D01*
X171505049Y-58407181D01*
X171505048Y-58407179D01*
X171380109Y-58235213D01*
X171229786Y-58084890D01*
X171057820Y-57959951D01*
X170868414Y-57863444D01*
X170868413Y-57863443D01*
X170868412Y-57863443D01*
X170666243Y-57797754D01*
X170666241Y-57797753D01*
X170666240Y-57797753D01*
X170504957Y-57772208D01*
X170456287Y-57764500D01*
X170243713Y-57764500D01*
X170195042Y-57772208D01*
X170033760Y-57797753D01*
X169831585Y-57863444D01*
X169642179Y-57959951D01*
X169470213Y-58084890D01*
X169319890Y-58235213D01*
X169194951Y-58407179D01*
X169098444Y-58596585D01*
X169032753Y-58798760D01*
X168999500Y-59008713D01*
X164000500Y-59008713D01*
X164000500Y-53558713D01*
X168999500Y-53558713D01*
X168999500Y-53771287D01*
X169032754Y-53981243D01*
X169035599Y-53990000D01*
X169098444Y-54183414D01*
X169194951Y-54372820D01*
X169319890Y-54544786D01*
X169470213Y-54695109D01*
X169642179Y-54820048D01*
X169642181Y-54820049D01*
X169642184Y-54820051D01*
X169831588Y-54916557D01*
X170033757Y-54982246D01*
X170243713Y-55015500D01*
X170243714Y-55015500D01*
X170456286Y-55015500D01*
X170456287Y-55015500D01*
X170666243Y-54982246D01*
X170868412Y-54916557D01*
X171057816Y-54820051D01*
X171079789Y-54804086D01*
X171229786Y-54695109D01*
X171229788Y-54695106D01*
X171229792Y-54695104D01*
X171380104Y-54544792D01*
X171380106Y-54544788D01*
X171380109Y-54544786D01*
X171505048Y-54372820D01*
X171505047Y-54372820D01*
X171505051Y-54372816D01*
X171601557Y-54183412D01*
X171667246Y-53981243D01*
X171684472Y-53872486D01*
X172204500Y-53872486D01*
X172204500Y-54057513D01*
X172233445Y-54240265D01*
X172290619Y-54416232D01*
X172290620Y-54416235D01*
X172356121Y-54544786D01*
X172374622Y-54581096D01*
X172483379Y-54730787D01*
X172614213Y-54861621D01*
X172763904Y-54970378D01*
X172844763Y-55011577D01*
X172928764Y-55054379D01*
X172928767Y-55054380D01*
X173016750Y-55082967D01*
X173104736Y-55111555D01*
X173287486Y-55140500D01*
X173287487Y-55140500D01*
X173472513Y-55140500D01*
X173472514Y-55140500D01*
X173655264Y-55111555D01*
X173831235Y-55054379D01*
X173996096Y-54970378D01*
X174145787Y-54861621D01*
X174276621Y-54730787D01*
X174385378Y-54581096D01*
X174469379Y-54416235D01*
X174526555Y-54240264D01*
X174555500Y-54057514D01*
X174555500Y-53872486D01*
X174526555Y-53689736D01*
X174497967Y-53601750D01*
X174469380Y-53513767D01*
X174469379Y-53513764D01*
X174385377Y-53348903D01*
X174385271Y-53348757D01*
X174276621Y-53199213D01*
X174145787Y-53068379D01*
X173996096Y-52959622D01*
X173991301Y-52957179D01*
X173831235Y-52875620D01*
X173831232Y-52875619D01*
X173655265Y-52818445D01*
X173563889Y-52803972D01*
X173472514Y-52789500D01*
X173287486Y-52789500D01*
X173226569Y-52799148D01*
X173104734Y-52818445D01*
X172928767Y-52875619D01*
X172928764Y-52875620D01*
X172763903Y-52959622D01*
X172678499Y-53021672D01*
X172614213Y-53068379D01*
X172614211Y-53068381D01*
X172614210Y-53068381D01*
X172483381Y-53199210D01*
X172483381Y-53199211D01*
X172483379Y-53199213D01*
X172436672Y-53263499D01*
X172374622Y-53348903D01*
X172290620Y-53513764D01*
X172290619Y-53513767D01*
X172233445Y-53689734D01*
X172204500Y-53872486D01*
X171684472Y-53872486D01*
X171688316Y-53848216D01*
X171688316Y-53848215D01*
X171700500Y-53771287D01*
X171700500Y-53558713D01*
X171686076Y-53467644D01*
X171667246Y-53348757D01*
X171601557Y-53146588D01*
X171505051Y-52957184D01*
X171505049Y-52957181D01*
X171505048Y-52957179D01*
X171380109Y-52785213D01*
X171229786Y-52634890D01*
X171057820Y-52509951D01*
X170868414Y-52413444D01*
X170868413Y-52413443D01*
X170868412Y-52413443D01*
X170666243Y-52347754D01*
X170666241Y-52347753D01*
X170666240Y-52347753D01*
X170504957Y-52322208D01*
X170456287Y-52314500D01*
X170243713Y-52314500D01*
X170195042Y-52322208D01*
X170033760Y-52347753D01*
X169831585Y-52413444D01*
X169642179Y-52509951D01*
X169470213Y-52634890D01*
X169319890Y-52785213D01*
X169194951Y-52957179D01*
X169098444Y-53146585D01*
X169032753Y-53348760D01*
X169014610Y-53463313D01*
X168999500Y-53558713D01*
X164000500Y-53558713D01*
X164000500Y-42124500D01*
X164020185Y-42057461D01*
X164072989Y-42011706D01*
X164124500Y-42000500D01*
X222875500Y-42000500D01*
X222942539Y-42020185D01*
G37*
%TD.AperFunction*%
%TD*%
M02*
