M48
; DRILL file {KiCad 9.0.7} date 2026-02-07T14:21:48-0500
; FORMAT={-:-/ absolute / metric / decimal}
; #@! TF.CreationDate,2026-02-07T14:21:48-05:00
; #@! TF.GenerationSoftware,Kicad,Pcbnew,9.0.7
; #@! TF.FileFunction,Plated,1,2,PTH
FMAT,2
METRIC
; #@! TA.AperFunction,Plated,PTH,ViaDrill
T1C0.300
; #@! TA.AperFunction,Plated,PTH,ComponentDrill
T2C0.991
; #@! TA.AperFunction,Plated,PTH,ComponentDrill
T3C1.000
; #@! TA.AperFunction,Plated,PTH,ComponentDrill
T4C1.100
%
G90
G05
T1
X164.5Y-106.0
X166.0Y-74.0
X166.0Y-76.0
X168.0Y-72.0
X172.0Y-93.0
X172.474Y-94.474
X172.5Y-83.0
X174.5Y-74.0
X174.5Y-89.0
X175.5Y-103.0
X176.5Y-89.0
X177.0Y-68.5
X177.0Y-71.5
X177.0Y-84.0
X177.5Y-75.0
X177.7Y-93.0
X178.5Y-68.5
X178.5Y-71.5
X179.0Y-77.1
X179.0Y-88.0
X184.0Y-68.5
X187.0Y-68.5
X187.0Y-72.5
X187.5Y-69.5
X187.5Y-71.0
X188.0Y-73.1
X189.5Y-73.5
X190.9Y-70.9
X191.5Y-72.7
X192.4Y-72.7
X194.6Y-71.0
X195.101Y-75.399
X196.5Y-68.5
X196.5Y-71.9
X197.0Y-75.5
X200.5Y-68.586
X200.5Y-70.9
X201.5Y-72.5
X203.5Y-75.0
X204.0Y-63.0
X204.5Y-78.0
X205.0Y-69.5
X205.0Y-72.0
X207.0Y-74.5
X214.1Y-81.5
X215.5Y-69.5
X215.94Y-44.06
X216.0Y-90.926
X219.0Y-78.5
X222.5Y-68.5
X222.5Y-71.5
T2
X215.75Y-81.761
X215.75Y-86.261
X222.25Y-81.761
X222.25Y-86.261
T3
X170.22Y-47.5
X170.22Y-65.28
X172.76Y-47.5
X172.76Y-65.28
X175.3Y-47.5
X175.3Y-65.28
X177.84Y-47.5
X177.84Y-65.28
X180.38Y-47.5
X180.38Y-65.28
X182.92Y-47.5
X182.92Y-65.28
X185.46Y-47.5
X185.46Y-65.28
X188.0Y-47.5
X188.0Y-65.28
X190.54Y-47.5
X190.54Y-65.28
X193.08Y-47.5
X193.08Y-65.28
X195.62Y-47.5
X195.62Y-65.28
X198.16Y-47.5
X198.16Y-65.28
X200.7Y-47.5
X200.7Y-65.28
X203.24Y-47.5
X203.24Y-65.28
X205.78Y-47.5
X205.78Y-65.28
X208.32Y-47.5
X208.32Y-65.28
X210.86Y-47.5
X210.86Y-65.28
X213.4Y-47.5
X213.4Y-65.28
X215.94Y-47.5
X215.94Y-65.28
X218.48Y-47.5
X218.48Y-65.28
T4
X218.96Y-73.0
X221.5Y-73.0
M30
