%TF.GenerationSoftware,KiCad,Pcbnew,9.0.7*%
%TF.CreationDate,2026-02-07T14:22:02-05:00*%
%TF.ProjectId,witharduinoandnewcomps,77697468-6172-4647-9569-6e6f616e646e,rev?*%
%TF.SameCoordinates,Original*%
%TF.FileFunction,Soldermask,Bot*%
%TF.FilePolarity,Negative*%
%FSLAX46Y46*%
G04 Gerber Fmt 4.6, Leading zero omitted, Abs format (unit mm)*
G04 Created by KiCad (PCBNEW 9.0.7) date 2026-02-07 14:22:02*
%MOMM*%
%LPD*%
G01*
G04 APERTURE LIST*
G04 Aperture macros list*
%AMRoundRect*
0 Rectangle with rounded corners*
0 $1 Rounding radius*
0 $2 $3 $4 $5 $6 $7 $8 $9 X,Y pos of 4 corners*
0 Add a 4 corners polygon primitive as box body*
4,1,4,$2,$3,$4,$5,$6,$7,$8,$9,$2,$3,0*
0 Add four circle primitives for the rounded corners*
1,1,$1+$1,$2,$3*
1,1,$1+$1,$4,$5*
1,1,$1+$1,$6,$7*
1,1,$1+$1,$8,$9*
0 Add four rect primitives between the rounded corners*
20,1,$1+$1,$2,$3,$4,$5,0*
20,1,$1+$1,$4,$5,$6,$7,0*
20,1,$1+$1,$6,$7,$8,$9,0*
20,1,$1+$1,$8,$9,$2,$3,0*%
%AMFreePoly0*
4,1,37,0.603843,0.796157,0.639018,0.796157,0.711114,0.766294,0.766294,0.711114,0.796157,0.639018,0.796157,0.603843,0.800000,0.600000,0.800000,-0.600000,0.796157,-0.603843,0.796157,-0.639018,0.766294,-0.711114,0.711114,-0.766294,0.639018,-0.796157,0.603843,-0.796157,0.600000,-0.800000,0.000000,-0.800000,0.000000,-0.796148,-0.078414,-0.796148,-0.232228,-0.765552,-0.377117,-0.705537,
-0.507515,-0.618408,-0.618408,-0.507515,-0.705537,-0.377117,-0.765552,-0.232228,-0.796148,-0.078414,-0.796148,0.078414,-0.765552,0.232228,-0.705537,0.377117,-0.618408,0.507515,-0.507515,0.618408,-0.377117,0.705537,-0.232228,0.765552,-0.078414,0.796148,0.000000,0.796148,0.000000,0.800000,0.600000,0.800000,0.603843,0.796157,0.603843,0.796157,$1*%
%AMFreePoly1*
4,1,37,0.000000,0.796148,0.078414,0.796148,0.232228,0.765552,0.377117,0.705537,0.507515,0.618408,0.618408,0.507515,0.705537,0.377117,0.765552,0.232228,0.796148,0.078414,0.796148,-0.078414,0.765552,-0.232228,0.705537,-0.377117,0.618408,-0.507515,0.507515,-0.618408,0.377117,-0.705537,0.232228,-0.765552,0.078414,-0.796148,0.000000,-0.796148,0.000000,-0.800000,-0.600000,-0.800000,
-0.603843,-0.796157,-0.639018,-0.796157,-0.711114,-0.766294,-0.766294,-0.711114,-0.796157,-0.639018,-0.796157,-0.603843,-0.800000,-0.600000,-0.800000,0.600000,-0.796157,0.603843,-0.796157,0.639018,-0.766294,0.711114,-0.711114,0.766294,-0.639018,0.796157,-0.603843,0.796157,-0.600000,0.800000,0.000000,0.800000,0.000000,0.796148,0.000000,0.796148,$1*%
G04 Aperture macros list end*
%ADD10C,2.200000*%
%ADD11C,1.850000*%
%ADD12RoundRect,0.200000X0.600000X-0.600000X0.600000X0.600000X-0.600000X0.600000X-0.600000X-0.600000X0*%
%ADD13C,1.600000*%
%ADD14FreePoly0,90.000000*%
%ADD15FreePoly1,90.000000*%
%ADD16R,1.498600X1.498600*%
%ADD17C,1.498600*%
%ADD18R,2.000000X2.000000*%
%ADD19C,2.000000*%
G04 APERTURE END LIST*
D10*
%TO.C,A1*%
X170350000Y-59115000D03*
D11*
X173380000Y-58815000D03*
X173380000Y-53965000D03*
D10*
X170350000Y-53665000D03*
D12*
X170220000Y-65280000D03*
D13*
X172760000Y-65280000D03*
D14*
X175300000Y-65280000D03*
D13*
X177840000Y-65280000D03*
X180380000Y-65280000D03*
X182920000Y-65280000D03*
X185460000Y-65280000D03*
D14*
X188000000Y-65280000D03*
D13*
X190540000Y-65280000D03*
X193080000Y-65280000D03*
X195620000Y-65280000D03*
X198160000Y-65280000D03*
D14*
X200700000Y-65280000D03*
D13*
X203240000Y-65280000D03*
X205780000Y-65280000D03*
X208320000Y-65280000D03*
X210860000Y-65280000D03*
D14*
X213400000Y-65280000D03*
D13*
X215940000Y-65280000D03*
X218480000Y-65280000D03*
X218480000Y-47500000D03*
X215940000Y-47500000D03*
D15*
X213400000Y-47500000D03*
D13*
X210860000Y-47500000D03*
X208320000Y-47500000D03*
X205780000Y-47500000D03*
X203240000Y-47500000D03*
D15*
X200700000Y-47500000D03*
D13*
X198160000Y-47500000D03*
X195620000Y-47500000D03*
X193080000Y-47500000D03*
X190540000Y-47500000D03*
D15*
X188000000Y-47500000D03*
D13*
X185460000Y-47500000D03*
X182920000Y-47500000D03*
X180380000Y-47500000D03*
X177840000Y-47500000D03*
D15*
X175300000Y-47500000D03*
D13*
X172760000Y-47500000D03*
X170220000Y-47500000D03*
%TD*%
D16*
%TO.C,SW1*%
X215749999Y-81760599D03*
D17*
X222250000Y-81760599D03*
X215749999Y-86260600D03*
X222250000Y-86260600D03*
%TD*%
D18*
%TO.C,J3*%
X218960000Y-73000000D03*
D19*
X221500000Y-73000000D03*
%TD*%
M02*
