%TF.GenerationSoftware,KiCad,Pcbnew,9.0.5*%
%TF.CreationDate,2026-01-31T13:27:24-05:00*%
%TF.ProjectId,battery_display,62617474-6572-4795-9f64-6973706c6179,rev?*%
%TF.SameCoordinates,Original*%
%TF.FileFunction,Soldermask,Bot*%
%TF.FilePolarity,Negative*%
%FSLAX46Y46*%
G04 Gerber Fmt 4.6, Leading zero omitted, Abs format (unit mm)*
G04 Created by KiCad (PCBNEW 9.0.5) date 2026-01-31 13:27:24*
%MOMM*%
%LPD*%
G01*
G04 APERTURE LIST*
G04 Aperture macros list*
%AMRoundRect*
0 Rectangle with rounded corners*
0 $1 Rounding radius*
0 $2 $3 $4 $5 $6 $7 $8 $9 X,Y pos of 4 corners*
0 Add a 4 corners polygon primitive as box body*
4,1,4,$2,$3,$4,$5,$6,$7,$8,$9,$2,$3,0*
0 Add four circle primitives for the rounded corners*
1,1,$1+$1,$2,$3*
1,1,$1+$1,$4,$5*
1,1,$1+$1,$6,$7*
1,1,$1+$1,$8,$9*
0 Add four rect primitives between the rounded corners*
20,1,$1+$1,$2,$3,$4,$5,0*
20,1,$1+$1,$4,$5,$6,$7,0*
20,1,$1+$1,$6,$7,$8,$9,0*
20,1,$1+$1,$8,$9,$2,$3,0*%
%AMFreePoly0*
4,1,37,0.603843,0.796157,0.639018,0.796157,0.711114,0.766294,0.766294,0.711114,0.796157,0.639018,0.796157,0.603843,0.800000,0.600000,0.800000,-0.600000,0.796157,-0.603843,0.796157,-0.639018,0.766294,-0.711114,0.711114,-0.766294,0.639018,-0.796157,0.603843,-0.796157,0.600000,-0.800000,0.000000,-0.800000,0.000000,-0.796148,-0.078414,-0.796148,-0.232228,-0.765552,-0.377117,-0.705537,
-0.507515,-0.618408,-0.618408,-0.507515,-0.705537,-0.377117,-0.765552,-0.232228,-0.796148,-0.078414,-0.796148,0.078414,-0.765552,0.232228,-0.705537,0.377117,-0.618408,0.507515,-0.507515,0.618408,-0.377117,0.705537,-0.232228,0.765552,-0.078414,0.796148,0.000000,0.796148,0.000000,0.800000,0.600000,0.800000,0.603843,0.796157,0.603843,0.796157,$1*%
%AMFreePoly1*
4,1,37,0.000000,0.796148,0.078414,0.796148,0.232228,0.765552,0.377117,0.705537,0.507515,0.618408,0.618408,0.507515,0.705537,0.377117,0.765552,0.232228,0.796148,0.078414,0.796148,-0.078414,0.765552,-0.232228,0.705537,-0.377117,0.618408,-0.507515,0.507515,-0.618408,0.377117,-0.705537,0.232228,-0.765552,0.078414,-0.796148,0.000000,-0.796148,0.000000,-0.800000,-0.600000,-0.800000,
-0.603843,-0.796157,-0.639018,-0.796157,-0.711114,-0.766294,-0.766294,-0.711114,-0.796157,-0.639018,-0.796157,-0.603843,-0.800000,-0.600000,-0.800000,0.600000,-0.796157,0.603843,-0.796157,0.639018,-0.766294,0.711114,-0.711114,0.766294,-0.639018,0.796157,-0.603843,0.796157,-0.600000,0.800000,0.000000,0.800000,0.000000,0.796148,0.000000,0.796148,$1*%
G04 Aperture macros list end*
%ADD10R,2.000000X2.000000*%
%ADD11C,2.000000*%
%ADD12C,4.500000*%
%ADD13C,2.200000*%
%ADD14C,1.850000*%
%ADD15RoundRect,0.200000X0.600000X0.600000X-0.600000X0.600000X-0.600000X-0.600000X0.600000X-0.600000X0*%
%ADD16C,1.600000*%
%ADD17FreePoly0,180.000000*%
%ADD18FreePoly1,180.000000*%
%ADD19R,1.498600X1.498600*%
%ADD20C,1.498600*%
G04 APERTURE END LIST*
D10*
%TO.C,J2*%
X161271780Y-85000000D03*
D11*
X163811780Y-85000000D03*
%TD*%
D12*
%TO.C,H1*%
X194998055Y-37999897D03*
%TD*%
D13*
%TO.C,A2*%
X244108998Y-84425199D03*
D14*
X243808998Y-81395199D03*
X238958998Y-81395199D03*
D13*
X238658998Y-84425199D03*
D15*
X250273998Y-84555199D03*
D16*
X250273998Y-82015199D03*
D17*
X250273998Y-79475199D03*
D16*
X250273998Y-76935199D03*
X250273998Y-74395199D03*
X250273998Y-71855199D03*
X250273998Y-69315199D03*
D17*
X250273998Y-66775199D03*
D16*
X250273998Y-64235199D03*
X250273998Y-61695199D03*
X250273998Y-59155199D03*
X250273998Y-56615199D03*
D17*
X250273998Y-54075199D03*
D16*
X250273998Y-51535199D03*
X250273998Y-48995199D03*
X250273998Y-46455199D03*
X250273998Y-43915199D03*
D17*
X250273998Y-41375199D03*
D16*
X250273998Y-38835199D03*
X250273998Y-36295199D03*
X232493998Y-36295199D03*
X232493998Y-38835199D03*
D18*
X232493998Y-41375199D03*
D16*
X232493998Y-43915199D03*
X232493998Y-46455199D03*
X232493998Y-48995199D03*
X232493998Y-51535199D03*
D18*
X232493998Y-54075199D03*
D16*
X232493998Y-56615199D03*
X232493998Y-59155199D03*
X232493998Y-61695199D03*
X232493998Y-64235199D03*
D18*
X232493998Y-66775199D03*
D16*
X232493998Y-69315199D03*
X232493998Y-71855199D03*
X232493998Y-74395199D03*
X232493998Y-76935199D03*
D18*
X232493998Y-79475199D03*
D16*
X232493998Y-82015199D03*
X232493998Y-84555199D03*
%TD*%
D19*
%TO.C,SW1*%
X177005781Y-86739401D03*
D20*
X170505780Y-86739401D03*
X177005781Y-82239400D03*
X170505780Y-82239400D03*
%TD*%
D12*
%TO.C,H2*%
X194998055Y-82974743D03*
%TD*%
M02*
