M48
; DRILL file {KiCad 9.0.5} date 2026-01-31T13:27:37-0500
; FORMAT={-:-/ absolute / inch / decimal}
; #@! TF.CreationDate,2026-01-31T13:27:37-05:00
; #@! TF.GenerationSoftware,Kicad,Pcbnew,9.0.5
; #@! TF.FileFunction,Plated,1,2,PTH
FMAT,2
INCH
; #@! TA.AperFunction,Plated,PTH,ViaDrill
T1C0.0118
; #@! TA.AperFunction,Plated,PTH,ComponentDrill
T2C0.0390
; #@! TA.AperFunction,Plated,PTH,ComponentDrill
T3C0.0394
; #@! TA.AperFunction,Plated,PTH,ComponentDrill
T4C0.0433
%
G90
G05
T1
X8.1761Y-3.1299
X8.5927Y-2.6772
X8.6518Y-1.811
X8.6518Y-3.1102
X8.6715Y-2.5984
X8.6715Y-2.874
X8.6912Y-2.9921
X8.7502Y-2.6575
X8.7502Y-2.7559
X8.7567Y-1.8733
X8.7607Y-2.4845
X8.7756Y-2.4567
X8.7855Y-2.5039
X8.7896Y-1.9584
X8.8101Y-2.5236
X8.815Y-2.437
X8.8386Y-2.5433
X8.8487Y-2.4173
X8.8583Y-1.811
X8.9471Y-1.9488
X8.9471Y-2.2638
X8.9471Y-2.4409
X8.9864Y-2.3425
X8.9864Y-2.4016
X9.4094Y-1.8299
X9.626Y-2.1654
T2
X6.7128Y-3.2378
X6.7128Y-3.4149
X6.9687Y-3.2378
X6.9687Y-3.4149
T3
X9.1533Y-1.4289
X9.1533Y-1.5289
X9.1533Y-1.6289
X9.1533Y-1.7289
X9.1533Y-1.8289
X9.1533Y-1.9289
X9.1533Y-2.0289
X9.1533Y-2.1289
X9.1533Y-2.2289
X9.1533Y-2.3289
X9.1533Y-2.4289
X9.1533Y-2.5289
X9.1533Y-2.6289
X9.1533Y-2.7289
X9.1533Y-2.8289
X9.1533Y-2.9289
X9.1533Y-3.0289
X9.1533Y-3.1289
X9.1533Y-3.2289
X9.1533Y-3.3289
X9.8533Y-1.4289
X9.8533Y-1.5289
X9.8533Y-1.6289
X9.8533Y-1.7289
X9.8533Y-1.8289
X9.8533Y-1.9289
X9.8533Y-2.0289
X9.8533Y-2.1289
X9.8533Y-2.2289
X9.8533Y-2.3289
X9.8533Y-2.4289
X9.8533Y-2.5289
X9.8533Y-2.6289
X9.8533Y-2.7289
X9.8533Y-2.8289
X9.8533Y-2.9289
X9.8533Y-3.0289
X9.8533Y-3.1289
X9.8533Y-3.2289
X9.8533Y-3.3289
T4
X6.3493Y-3.3465
X6.4493Y-3.3465
M30
