%TF.GenerationSoftware,KiCad,Pcbnew,9.0.5*%
%TF.CreationDate,2026-01-31T13:27:23-05:00*%
%TF.ProjectId,battery_display,62617474-6572-4795-9f64-6973706c6179,rev?*%
%TF.SameCoordinates,Original*%
%TF.FileFunction,Paste,Top*%
%TF.FilePolarity,Positive*%
%FSLAX46Y46*%
G04 Gerber Fmt 4.6, Leading zero omitted, Abs format (unit mm)*
G04 Created by KiCad (PCBNEW 9.0.5) date 2026-01-31 13:27:23*
%MOMM*%
%LPD*%
G01*
G04 APERTURE LIST*
G04 Aperture macros list*
%AMRoundRect*
0 Rectangle with rounded corners*
0 $1 Rounding radius*
0 $2 $3 $4 $5 $6 $7 $8 $9 X,Y pos of 4 corners*
0 Add a 4 corners polygon primitive as box body*
4,1,4,$2,$3,$4,$5,$6,$7,$8,$9,$2,$3,0*
0 Add four circle primitives for the rounded corners*
1,1,$1+$1,$2,$3*
1,1,$1+$1,$4,$5*
1,1,$1+$1,$6,$7*
1,1,$1+$1,$8,$9*
0 Add four rect primitives between the rounded corners*
20,1,$1+$1,$2,$3,$4,$5,0*
20,1,$1+$1,$4,$5,$6,$7,0*
20,1,$1+$1,$6,$7,$8,$9,0*
20,1,$1+$1,$8,$9,$2,$3,0*%
G04 Aperture macros list end*
%ADD10C,0.010000*%
%ADD11R,0.800000X0.400000*%
%ADD12RoundRect,0.225000X-0.250000X0.225000X-0.250000X-0.225000X0.250000X-0.225000X0.250000X0.225000X0*%
%ADD13RoundRect,0.200000X-0.200000X-0.275000X0.200000X-0.275000X0.200000X0.275000X-0.200000X0.275000X0*%
%ADD14RoundRect,0.225000X0.250000X-0.225000X0.250000X0.225000X-0.250000X0.225000X-0.250000X-0.225000X0*%
%ADD15R,1.200000X1.200000*%
%ADD16RoundRect,0.250000X0.475000X-0.250000X0.475000X0.250000X-0.475000X0.250000X-0.475000X-0.250000X0*%
%ADD17R,1.005599X0.949998*%
%ADD18RoundRect,0.250000X-0.312500X-0.625000X0.312500X-0.625000X0.312500X0.625000X-0.312500X0.625000X0*%
%ADD19RoundRect,0.150000X-0.150000X0.587500X-0.150000X-0.587500X0.150000X-0.587500X0.150000X0.587500X0*%
%ADD20R,0.660000X0.730000*%
%ADD21R,0.630000X0.450000*%
%ADD22RoundRect,0.250000X0.250000X0.475000X-0.250000X0.475000X-0.250000X-0.475000X0.250000X-0.475000X0*%
%ADD23R,1.574800X1.397000*%
%ADD24RoundRect,0.225000X0.225000X0.250000X-0.225000X0.250000X-0.225000X-0.250000X0.225000X-0.250000X0*%
G04 APERTURE END LIST*
D10*
%TO.C,J1*%
X226155780Y-68125000D02*
X225505780Y-68125000D01*
X225505780Y-67875000D01*
X226155780Y-67875000D01*
X226155780Y-68125000D01*
G36*
X226155780Y-68125000D02*
G01*
X225505780Y-68125000D01*
X225505780Y-67875000D01*
X226155780Y-67875000D01*
X226155780Y-68125000D01*
G37*
X226155780Y-67625000D02*
X225505780Y-67625000D01*
X225505780Y-67375000D01*
X226155780Y-67375000D01*
X226155780Y-67625000D01*
G36*
X226155780Y-67625000D02*
G01*
X225505780Y-67625000D01*
X225505780Y-67375000D01*
X226155780Y-67375000D01*
X226155780Y-67625000D01*
G37*
X226155780Y-67125000D02*
X225505780Y-67125000D01*
X225505780Y-66875000D01*
X226155780Y-66875000D01*
X226155780Y-67125000D01*
G36*
X226155780Y-67125000D02*
G01*
X225505780Y-67125000D01*
X225505780Y-66875000D01*
X226155780Y-66875000D01*
X226155780Y-67125000D01*
G37*
X226155780Y-66625000D02*
X225505780Y-66625000D01*
X225505780Y-66375000D01*
X226155780Y-66375000D01*
X226155780Y-66625000D01*
G36*
X226155780Y-66625000D02*
G01*
X225505780Y-66625000D01*
X225505780Y-66375000D01*
X226155780Y-66375000D01*
X226155780Y-66625000D01*
G37*
X226155780Y-66125000D02*
X225505780Y-66125000D01*
X225505780Y-65875000D01*
X226155780Y-65875000D01*
X226155780Y-66125000D01*
G36*
X226155780Y-66125000D02*
G01*
X225505780Y-66125000D01*
X225505780Y-65875000D01*
X226155780Y-65875000D01*
X226155780Y-66125000D01*
G37*
X226155780Y-65625000D02*
X225505780Y-65625000D01*
X225505780Y-65375000D01*
X226155780Y-65375000D01*
X226155780Y-65625000D01*
G36*
X226155780Y-65625000D02*
G01*
X225505780Y-65625000D01*
X225505780Y-65375000D01*
X226155780Y-65375000D01*
X226155780Y-65625000D01*
G37*
X226155780Y-65125000D02*
X225505780Y-65125000D01*
X225505780Y-64875000D01*
X226155780Y-64875000D01*
X226155780Y-65125000D01*
G36*
X226155780Y-65125000D02*
G01*
X225505780Y-65125000D01*
X225505780Y-64875000D01*
X226155780Y-64875000D01*
X226155780Y-65125000D01*
G37*
X226155780Y-64625000D02*
X225505780Y-64625000D01*
X225505780Y-64375000D01*
X226155780Y-64375000D01*
X226155780Y-64625000D01*
G36*
X226155780Y-64625000D02*
G01*
X225505780Y-64625000D01*
X225505780Y-64375000D01*
X226155780Y-64375000D01*
X226155780Y-64625000D01*
G37*
X226155780Y-64125000D02*
X225505780Y-64125000D01*
X225505780Y-63875000D01*
X226155780Y-63875000D01*
X226155780Y-64125000D01*
G36*
X226155780Y-64125000D02*
G01*
X225505780Y-64125000D01*
X225505780Y-63875000D01*
X226155780Y-63875000D01*
X226155780Y-64125000D01*
G37*
X226155780Y-63625000D02*
X225505780Y-63625000D01*
X225505780Y-63375000D01*
X226155780Y-63375000D01*
X226155780Y-63625000D01*
G36*
X226155780Y-63625000D02*
G01*
X225505780Y-63625000D01*
X225505780Y-63375000D01*
X226155780Y-63375000D01*
X226155780Y-63625000D01*
G37*
X226155780Y-63125000D02*
X225505780Y-63125000D01*
X225505780Y-62875000D01*
X226155780Y-62875000D01*
X226155780Y-63125000D01*
G36*
X226155780Y-63125000D02*
G01*
X225505780Y-63125000D01*
X225505780Y-62875000D01*
X226155780Y-62875000D01*
X226155780Y-63125000D01*
G37*
X226155780Y-62625000D02*
X225505780Y-62625000D01*
X225505780Y-62375000D01*
X226155780Y-62375000D01*
X226155780Y-62625000D01*
G36*
X226155780Y-62625000D02*
G01*
X225505780Y-62625000D01*
X225505780Y-62375000D01*
X226155780Y-62375000D01*
X226155780Y-62625000D01*
G37*
X226155780Y-62125000D02*
X225505780Y-62125000D01*
X225505780Y-61875000D01*
X226155780Y-61875000D01*
X226155780Y-62125000D01*
G36*
X226155780Y-62125000D02*
G01*
X225505780Y-62125000D01*
X225505780Y-61875000D01*
X226155780Y-61875000D01*
X226155780Y-62125000D01*
G37*
X226155780Y-61625000D02*
X225505780Y-61625000D01*
X225505780Y-61375000D01*
X226155780Y-61375000D01*
X226155780Y-61625000D01*
G36*
X226155780Y-61625000D02*
G01*
X225505780Y-61625000D01*
X225505780Y-61375000D01*
X226155780Y-61375000D01*
X226155780Y-61625000D01*
G37*
X226155780Y-61125000D02*
X225505780Y-61125000D01*
X225505780Y-60875000D01*
X226155780Y-60875000D01*
X226155780Y-61125000D01*
G36*
X226155780Y-61125000D02*
G01*
X225505780Y-61125000D01*
X225505780Y-60875000D01*
X226155780Y-60875000D01*
X226155780Y-61125000D01*
G37*
X226155780Y-60625000D02*
X225505780Y-60625000D01*
X225505780Y-60375000D01*
X226155780Y-60375000D01*
X226155780Y-60625000D01*
G36*
X226155780Y-60625000D02*
G01*
X225505780Y-60625000D01*
X225505780Y-60375000D01*
X226155780Y-60375000D01*
X226155780Y-60625000D01*
G37*
X226155780Y-60125000D02*
X225505780Y-60125000D01*
X225505780Y-59875000D01*
X226155780Y-59875000D01*
X226155780Y-60125000D01*
G36*
X226155780Y-60125000D02*
G01*
X225505780Y-60125000D01*
X225505780Y-59875000D01*
X226155780Y-59875000D01*
X226155780Y-60125000D01*
G37*
X226155780Y-59625000D02*
X225505780Y-59625000D01*
X225505780Y-59375000D01*
X226155780Y-59375000D01*
X226155780Y-59625000D01*
G36*
X226155780Y-59625000D02*
G01*
X225505780Y-59625000D01*
X225505780Y-59375000D01*
X226155780Y-59375000D01*
X226155780Y-59625000D01*
G37*
X226155780Y-59125000D02*
X225505780Y-59125000D01*
X225505780Y-58875000D01*
X226155780Y-58875000D01*
X226155780Y-59125000D01*
G36*
X226155780Y-59125000D02*
G01*
X225505780Y-59125000D01*
X225505780Y-58875000D01*
X226155780Y-58875000D01*
X226155780Y-59125000D01*
G37*
X226155780Y-58625000D02*
X225505780Y-58625000D01*
X225505780Y-58375000D01*
X226155780Y-58375000D01*
X226155780Y-58625000D01*
G36*
X226155780Y-58625000D02*
G01*
X225505780Y-58625000D01*
X225505780Y-58375000D01*
X226155780Y-58375000D01*
X226155780Y-58625000D01*
G37*
X226155780Y-58125000D02*
X225505780Y-58125000D01*
X225505780Y-57875000D01*
X226155780Y-57875000D01*
X226155780Y-58125000D01*
G36*
X226155780Y-58125000D02*
G01*
X225505780Y-58125000D01*
X225505780Y-57875000D01*
X226155780Y-57875000D01*
X226155780Y-58125000D01*
G37*
X226155780Y-57625000D02*
X225505780Y-57625000D01*
X225505780Y-57375000D01*
X226155780Y-57375000D01*
X226155780Y-57625000D01*
G36*
X226155780Y-57625000D02*
G01*
X225505780Y-57625000D01*
X225505780Y-57375000D01*
X226155780Y-57375000D01*
X226155780Y-57625000D01*
G37*
X226155780Y-57125000D02*
X225505780Y-57125000D01*
X225505780Y-56875000D01*
X226155780Y-56875000D01*
X226155780Y-57125000D01*
G36*
X226155780Y-57125000D02*
G01*
X225505780Y-57125000D01*
X225505780Y-56875000D01*
X226155780Y-56875000D01*
X226155780Y-57125000D01*
G37*
X226155780Y-56625000D02*
X225505780Y-56625000D01*
X225505780Y-56375000D01*
X226155780Y-56375000D01*
X226155780Y-56625000D01*
G36*
X226155780Y-56625000D02*
G01*
X225505780Y-56625000D01*
X225505780Y-56375000D01*
X226155780Y-56375000D01*
X226155780Y-56625000D01*
G37*
%TD*%
D11*
%TO.C,J1*%
X223255780Y-69000000D03*
X223255780Y-55500000D03*
%TD*%
D12*
%TO.C,C3*%
X227255780Y-52000000D03*
X227255780Y-53550000D03*
%TD*%
%TO.C,C2*%
X228755780Y-52000000D03*
X228755780Y-53550000D03*
%TD*%
D13*
%TO.C,R2*%
X225930780Y-87000000D03*
X227580780Y-87000000D03*
%TD*%
D14*
%TO.C,C6*%
X222264450Y-53521603D03*
X222264450Y-51971603D03*
%TD*%
D15*
%TO.C,CR2*%
X219755780Y-48600000D03*
X219755780Y-51400000D03*
%TD*%
D16*
%TO.C,C13*%
X211080168Y-83175184D03*
X211080168Y-81275184D03*
%TD*%
D12*
%TO.C,C4*%
X225755780Y-52000000D03*
X225755780Y-53550000D03*
%TD*%
D15*
%TO.C,CR1*%
X219755780Y-54100000D03*
X219755780Y-56900000D03*
%TD*%
D17*
%TO.C,C14*%
X209272201Y-79500000D03*
X210727799Y-79500000D03*
%TD*%
D18*
%TO.C,R1*%
X217325052Y-71092070D03*
X220250052Y-71092070D03*
%TD*%
D19*
%TO.C,Q1*%
X226205780Y-71125000D03*
X224305780Y-71125000D03*
X225255780Y-73000000D03*
%TD*%
D12*
%TO.C,C5*%
X224255780Y-52000000D03*
X224255780Y-53550000D03*
%TD*%
D14*
%TO.C,C1*%
X227552115Y-67625549D03*
X227552115Y-66075549D03*
%TD*%
D19*
%TO.C,Q2*%
X222755780Y-83675000D03*
X220855780Y-83675000D03*
X221805780Y-85550000D03*
%TD*%
D16*
%TO.C,C11*%
X227592715Y-84332554D03*
X227592715Y-82432554D03*
%TD*%
D20*
%TO.C,U1*%
X205402168Y-81406972D03*
X205402168Y-82272972D03*
X205402168Y-83138972D03*
X206252168Y-81406972D03*
X206252168Y-82272972D03*
X206252168Y-83138972D03*
D21*
X204487168Y-81322972D03*
X204487168Y-82272972D03*
X204487168Y-83222972D03*
X207167168Y-83222972D03*
X207167168Y-82272972D03*
X207167168Y-81322972D03*
%TD*%
D16*
%TO.C,C12*%
X202480168Y-83256972D03*
X202480168Y-81356972D03*
%TD*%
D22*
%TO.C,C8*%
X219705780Y-74500000D03*
X217805780Y-74500000D03*
%TD*%
D15*
%TO.C,CR3*%
X222400000Y-77081788D03*
X225200000Y-77081788D03*
%TD*%
D13*
%TO.C,R4*%
X206752168Y-86856972D03*
X208402168Y-86856972D03*
%TD*%
%TO.C,R3*%
X202927168Y-86856972D03*
X204577168Y-86856972D03*
%TD*%
D23*
%TO.C,SRP3012TA-100M1*%
X221817380Y-80500000D03*
X224255780Y-80500000D03*
%TD*%
D24*
%TO.C,C9*%
X210755168Y-77806972D03*
X209205168Y-77806972D03*
%TD*%
D12*
%TO.C,C7*%
X227556117Y-63059426D03*
X227556117Y-64609426D03*
%TD*%
M02*
