%TF.GenerationSoftware,KiCad,Pcbnew,9.0.7*%
%TF.CreationDate,2026-02-07T14:22:02-05:00*%
%TF.ProjectId,witharduinoandnewcomps,77697468-6172-4647-9569-6e6f616e646e,rev?*%
%TF.SameCoordinates,Original*%
%TF.FileFunction,Legend,Top*%
%TF.FilePolarity,Positive*%
%FSLAX46Y46*%
G04 Gerber Fmt 4.6, Leading zero omitted, Abs format (unit mm)*
G04 Created by KiCad (PCBNEW 9.0.7) date 2026-02-07 14:22:02*
%MOMM*%
%LPD*%
G01*
G04 APERTURE LIST*
%ADD10C,0.150000*%
%ADD11C,0.100000*%
%ADD12C,0.120000*%
%ADD13C,0.127000*%
%ADD14C,0.200000*%
%ADD15C,0.152400*%
G04 APERTURE END LIST*
D10*
X167813095Y-72245819D02*
X167813095Y-73055342D01*
X167813095Y-73055342D02*
X167860714Y-73150580D01*
X167860714Y-73150580D02*
X167908333Y-73198200D01*
X167908333Y-73198200D02*
X168003571Y-73245819D01*
X168003571Y-73245819D02*
X168194047Y-73245819D01*
X168194047Y-73245819D02*
X168289285Y-73198200D01*
X168289285Y-73198200D02*
X168336904Y-73150580D01*
X168336904Y-73150580D02*
X168384523Y-73055342D01*
X168384523Y-73055342D02*
X168384523Y-72245819D01*
X169384523Y-73245819D02*
X168813095Y-73245819D01*
X169098809Y-73245819D02*
X169098809Y-72245819D01*
X169098809Y-72245819D02*
X169003571Y-72388676D01*
X169003571Y-72388676D02*
X168908333Y-72483914D01*
X168908333Y-72483914D02*
X168813095Y-72531533D01*
X191268667Y-68241876D02*
X191268667Y-68699019D01*
X191268667Y-68699019D02*
X191238190Y-68790447D01*
X191238190Y-68790447D02*
X191177238Y-68851400D01*
X191177238Y-68851400D02*
X191085809Y-68881876D01*
X191085809Y-68881876D02*
X191024857Y-68881876D01*
X191908667Y-68881876D02*
X191542952Y-68881876D01*
X191725809Y-68881876D02*
X191725809Y-68241876D01*
X191725809Y-68241876D02*
X191664857Y-68333304D01*
X191664857Y-68333304D02*
X191603905Y-68394257D01*
X191603905Y-68394257D02*
X191542952Y-68424733D01*
D11*
X170164285Y-95445228D02*
X170135713Y-95473800D01*
X170135713Y-95473800D02*
X170049999Y-95502371D01*
X170049999Y-95502371D02*
X169992856Y-95502371D01*
X169992856Y-95502371D02*
X169907142Y-95473800D01*
X169907142Y-95473800D02*
X169849999Y-95416657D01*
X169849999Y-95416657D02*
X169821428Y-95359514D01*
X169821428Y-95359514D02*
X169792856Y-95245228D01*
X169792856Y-95245228D02*
X169792856Y-95159514D01*
X169792856Y-95159514D02*
X169821428Y-95045228D01*
X169821428Y-95045228D02*
X169849999Y-94988085D01*
X169849999Y-94988085D02*
X169907142Y-94930942D01*
X169907142Y-94930942D02*
X169992856Y-94902371D01*
X169992856Y-94902371D02*
X170049999Y-94902371D01*
X170049999Y-94902371D02*
X170135713Y-94930942D01*
X170135713Y-94930942D02*
X170164285Y-94959514D01*
X170735713Y-95502371D02*
X170392856Y-95502371D01*
X170564285Y-95502371D02*
X170564285Y-94902371D01*
X170564285Y-94902371D02*
X170507142Y-94988085D01*
X170507142Y-94988085D02*
X170449999Y-95045228D01*
X170449999Y-95045228D02*
X170392856Y-95073800D01*
X171307142Y-95502371D02*
X170964285Y-95502371D01*
X171135714Y-95502371D02*
X171135714Y-94902371D01*
X171135714Y-94902371D02*
X171078571Y-94988085D01*
X171078571Y-94988085D02*
X171021428Y-95045228D01*
X171021428Y-95045228D02*
X170964285Y-95073800D01*
X167950000Y-87985228D02*
X167921428Y-88013800D01*
X167921428Y-88013800D02*
X167835714Y-88042371D01*
X167835714Y-88042371D02*
X167778571Y-88042371D01*
X167778571Y-88042371D02*
X167692857Y-88013800D01*
X167692857Y-88013800D02*
X167635714Y-87956657D01*
X167635714Y-87956657D02*
X167607143Y-87899514D01*
X167607143Y-87899514D02*
X167578571Y-87785228D01*
X167578571Y-87785228D02*
X167578571Y-87699514D01*
X167578571Y-87699514D02*
X167607143Y-87585228D01*
X167607143Y-87585228D02*
X167635714Y-87528085D01*
X167635714Y-87528085D02*
X167692857Y-87470942D01*
X167692857Y-87470942D02*
X167778571Y-87442371D01*
X167778571Y-87442371D02*
X167835714Y-87442371D01*
X167835714Y-87442371D02*
X167921428Y-87470942D01*
X167921428Y-87470942D02*
X167950000Y-87499514D01*
X168150000Y-87442371D02*
X168550000Y-87442371D01*
X168550000Y-87442371D02*
X168292857Y-88042371D01*
X211437500Y-76113371D02*
X211237500Y-75827657D01*
X211094643Y-76113371D02*
X211094643Y-75513371D01*
X211094643Y-75513371D02*
X211323214Y-75513371D01*
X211323214Y-75513371D02*
X211380357Y-75541942D01*
X211380357Y-75541942D02*
X211408928Y-75570514D01*
X211408928Y-75570514D02*
X211437500Y-75627657D01*
X211437500Y-75627657D02*
X211437500Y-75713371D01*
X211437500Y-75713371D02*
X211408928Y-75770514D01*
X211408928Y-75770514D02*
X211380357Y-75799085D01*
X211380357Y-75799085D02*
X211323214Y-75827657D01*
X211323214Y-75827657D02*
X211094643Y-75827657D01*
X212008928Y-76113371D02*
X211666071Y-76113371D01*
X211837500Y-76113371D02*
X211837500Y-75513371D01*
X211837500Y-75513371D02*
X211780357Y-75599085D01*
X211780357Y-75599085D02*
X211723214Y-75656228D01*
X211723214Y-75656228D02*
X211666071Y-75684800D01*
D10*
X219284104Y-44353339D02*
X219284104Y-43877149D01*
X219569819Y-44448577D02*
X218569819Y-44115244D01*
X218569819Y-44115244D02*
X219569819Y-43781911D01*
X219569819Y-42924768D02*
X219569819Y-43496196D01*
X219569819Y-43210482D02*
X218569819Y-43210482D01*
X218569819Y-43210482D02*
X218712676Y-43305720D01*
X218712676Y-43305720D02*
X218807914Y-43400958D01*
X218807914Y-43400958D02*
X218855533Y-43496196D01*
D11*
X169411514Y-90994642D02*
X169382942Y-91051785D01*
X169382942Y-91051785D02*
X169325800Y-91108928D01*
X169325800Y-91108928D02*
X169240085Y-91194642D01*
X169240085Y-91194642D02*
X169211514Y-91251785D01*
X169211514Y-91251785D02*
X169211514Y-91308928D01*
X169354371Y-91280357D02*
X169325800Y-91337500D01*
X169325800Y-91337500D02*
X169268657Y-91394642D01*
X169268657Y-91394642D02*
X169154371Y-91423214D01*
X169154371Y-91423214D02*
X168954371Y-91423214D01*
X168954371Y-91423214D02*
X168840085Y-91394642D01*
X168840085Y-91394642D02*
X168782942Y-91337500D01*
X168782942Y-91337500D02*
X168754371Y-91280357D01*
X168754371Y-91280357D02*
X168754371Y-91166071D01*
X168754371Y-91166071D02*
X168782942Y-91108928D01*
X168782942Y-91108928D02*
X168840085Y-91051785D01*
X168840085Y-91051785D02*
X168954371Y-91023214D01*
X168954371Y-91023214D02*
X169154371Y-91023214D01*
X169154371Y-91023214D02*
X169268657Y-91051785D01*
X169268657Y-91051785D02*
X169325800Y-91108928D01*
X169325800Y-91108928D02*
X169354371Y-91166071D01*
X169354371Y-91166071D02*
X169354371Y-91280357D01*
X169354371Y-90451786D02*
X169354371Y-90794643D01*
X169354371Y-90623214D02*
X168754371Y-90623214D01*
X168754371Y-90623214D02*
X168840085Y-90680357D01*
X168840085Y-90680357D02*
X168897228Y-90737500D01*
X168897228Y-90737500D02*
X168925800Y-90794643D01*
X179450000Y-80485228D02*
X179421428Y-80513800D01*
X179421428Y-80513800D02*
X179335714Y-80542371D01*
X179335714Y-80542371D02*
X179278571Y-80542371D01*
X179278571Y-80542371D02*
X179192857Y-80513800D01*
X179192857Y-80513800D02*
X179135714Y-80456657D01*
X179135714Y-80456657D02*
X179107143Y-80399514D01*
X179107143Y-80399514D02*
X179078571Y-80285228D01*
X179078571Y-80285228D02*
X179078571Y-80199514D01*
X179078571Y-80199514D02*
X179107143Y-80085228D01*
X179107143Y-80085228D02*
X179135714Y-80028085D01*
X179135714Y-80028085D02*
X179192857Y-79970942D01*
X179192857Y-79970942D02*
X179278571Y-79942371D01*
X179278571Y-79942371D02*
X179335714Y-79942371D01*
X179335714Y-79942371D02*
X179421428Y-79970942D01*
X179421428Y-79970942D02*
X179450000Y-79999514D01*
X179992857Y-79942371D02*
X179707143Y-79942371D01*
X179707143Y-79942371D02*
X179678571Y-80228085D01*
X179678571Y-80228085D02*
X179707143Y-80199514D01*
X179707143Y-80199514D02*
X179764286Y-80170942D01*
X179764286Y-80170942D02*
X179907143Y-80170942D01*
X179907143Y-80170942D02*
X179964286Y-80199514D01*
X179964286Y-80199514D02*
X179992857Y-80228085D01*
X179992857Y-80228085D02*
X180021428Y-80285228D01*
X180021428Y-80285228D02*
X180021428Y-80428085D01*
X180021428Y-80428085D02*
X179992857Y-80485228D01*
X179992857Y-80485228D02*
X179964286Y-80513800D01*
X179964286Y-80513800D02*
X179907143Y-80542371D01*
X179907143Y-80542371D02*
X179764286Y-80542371D01*
X179764286Y-80542371D02*
X179707143Y-80513800D01*
X179707143Y-80513800D02*
X179678571Y-80485228D01*
D10*
X161123962Y-81907200D02*
X161266819Y-81954819D01*
X161266819Y-81954819D02*
X161504914Y-81954819D01*
X161504914Y-81954819D02*
X161600152Y-81907200D01*
X161600152Y-81907200D02*
X161647771Y-81859580D01*
X161647771Y-81859580D02*
X161695390Y-81764342D01*
X161695390Y-81764342D02*
X161695390Y-81669104D01*
X161695390Y-81669104D02*
X161647771Y-81573866D01*
X161647771Y-81573866D02*
X161600152Y-81526247D01*
X161600152Y-81526247D02*
X161504914Y-81478628D01*
X161504914Y-81478628D02*
X161314438Y-81431009D01*
X161314438Y-81431009D02*
X161219200Y-81383390D01*
X161219200Y-81383390D02*
X161171581Y-81335771D01*
X161171581Y-81335771D02*
X161123962Y-81240533D01*
X161123962Y-81240533D02*
X161123962Y-81145295D01*
X161123962Y-81145295D02*
X161171581Y-81050057D01*
X161171581Y-81050057D02*
X161219200Y-81002438D01*
X161219200Y-81002438D02*
X161314438Y-80954819D01*
X161314438Y-80954819D02*
X161552533Y-80954819D01*
X161552533Y-80954819D02*
X161695390Y-81002438D01*
X162695390Y-81954819D02*
X162362057Y-81478628D01*
X162123962Y-81954819D02*
X162123962Y-80954819D01*
X162123962Y-80954819D02*
X162504914Y-80954819D01*
X162504914Y-80954819D02*
X162600152Y-81002438D01*
X162600152Y-81002438D02*
X162647771Y-81050057D01*
X162647771Y-81050057D02*
X162695390Y-81145295D01*
X162695390Y-81145295D02*
X162695390Y-81288152D01*
X162695390Y-81288152D02*
X162647771Y-81383390D01*
X162647771Y-81383390D02*
X162600152Y-81431009D01*
X162600152Y-81431009D02*
X162504914Y-81478628D01*
X162504914Y-81478628D02*
X162123962Y-81478628D01*
X163123962Y-81954819D02*
X163123962Y-80954819D01*
X163123962Y-80954819D02*
X163504914Y-80954819D01*
X163504914Y-80954819D02*
X163600152Y-81002438D01*
X163600152Y-81002438D02*
X163647771Y-81050057D01*
X163647771Y-81050057D02*
X163695390Y-81145295D01*
X163695390Y-81145295D02*
X163695390Y-81288152D01*
X163695390Y-81288152D02*
X163647771Y-81383390D01*
X163647771Y-81383390D02*
X163600152Y-81431009D01*
X163600152Y-81431009D02*
X163504914Y-81478628D01*
X163504914Y-81478628D02*
X163123962Y-81478628D01*
X164028724Y-80954819D02*
X164647771Y-80954819D01*
X164647771Y-80954819D02*
X164314438Y-81335771D01*
X164314438Y-81335771D02*
X164457295Y-81335771D01*
X164457295Y-81335771D02*
X164552533Y-81383390D01*
X164552533Y-81383390D02*
X164600152Y-81431009D01*
X164600152Y-81431009D02*
X164647771Y-81526247D01*
X164647771Y-81526247D02*
X164647771Y-81764342D01*
X164647771Y-81764342D02*
X164600152Y-81859580D01*
X164600152Y-81859580D02*
X164552533Y-81907200D01*
X164552533Y-81907200D02*
X164457295Y-81954819D01*
X164457295Y-81954819D02*
X164171581Y-81954819D01*
X164171581Y-81954819D02*
X164076343Y-81907200D01*
X164076343Y-81907200D02*
X164028724Y-81859580D01*
X165266819Y-80954819D02*
X165362057Y-80954819D01*
X165362057Y-80954819D02*
X165457295Y-81002438D01*
X165457295Y-81002438D02*
X165504914Y-81050057D01*
X165504914Y-81050057D02*
X165552533Y-81145295D01*
X165552533Y-81145295D02*
X165600152Y-81335771D01*
X165600152Y-81335771D02*
X165600152Y-81573866D01*
X165600152Y-81573866D02*
X165552533Y-81764342D01*
X165552533Y-81764342D02*
X165504914Y-81859580D01*
X165504914Y-81859580D02*
X165457295Y-81907200D01*
X165457295Y-81907200D02*
X165362057Y-81954819D01*
X165362057Y-81954819D02*
X165266819Y-81954819D01*
X165266819Y-81954819D02*
X165171581Y-81907200D01*
X165171581Y-81907200D02*
X165123962Y-81859580D01*
X165123962Y-81859580D02*
X165076343Y-81764342D01*
X165076343Y-81764342D02*
X165028724Y-81573866D01*
X165028724Y-81573866D02*
X165028724Y-81335771D01*
X165028724Y-81335771D02*
X165076343Y-81145295D01*
X165076343Y-81145295D02*
X165123962Y-81050057D01*
X165123962Y-81050057D02*
X165171581Y-81002438D01*
X165171581Y-81002438D02*
X165266819Y-80954819D01*
X166552533Y-81954819D02*
X165981105Y-81954819D01*
X166266819Y-81954819D02*
X166266819Y-80954819D01*
X166266819Y-80954819D02*
X166171581Y-81097676D01*
X166171581Y-81097676D02*
X166076343Y-81192914D01*
X166076343Y-81192914D02*
X165981105Y-81240533D01*
X166933486Y-81050057D02*
X166981105Y-81002438D01*
X166981105Y-81002438D02*
X167076343Y-80954819D01*
X167076343Y-80954819D02*
X167314438Y-80954819D01*
X167314438Y-80954819D02*
X167409676Y-81002438D01*
X167409676Y-81002438D02*
X167457295Y-81050057D01*
X167457295Y-81050057D02*
X167504914Y-81145295D01*
X167504914Y-81145295D02*
X167504914Y-81240533D01*
X167504914Y-81240533D02*
X167457295Y-81383390D01*
X167457295Y-81383390D02*
X166885867Y-81954819D01*
X166885867Y-81954819D02*
X167504914Y-81954819D01*
X167790629Y-80954819D02*
X168362057Y-80954819D01*
X168076343Y-81954819D02*
X168076343Y-80954819D01*
X168647772Y-81669104D02*
X169123962Y-81669104D01*
X168552534Y-81954819D02*
X168885867Y-80954819D01*
X168885867Y-80954819D02*
X169219200Y-81954819D01*
X169552534Y-81573866D02*
X170314439Y-81573866D01*
X171314438Y-81954819D02*
X170743010Y-81954819D01*
X171028724Y-81954819D02*
X171028724Y-80954819D01*
X171028724Y-80954819D02*
X170933486Y-81097676D01*
X170933486Y-81097676D02*
X170838248Y-81192914D01*
X170838248Y-81192914D02*
X170743010Y-81240533D01*
X171933486Y-80954819D02*
X172028724Y-80954819D01*
X172028724Y-80954819D02*
X172123962Y-81002438D01*
X172123962Y-81002438D02*
X172171581Y-81050057D01*
X172171581Y-81050057D02*
X172219200Y-81145295D01*
X172219200Y-81145295D02*
X172266819Y-81335771D01*
X172266819Y-81335771D02*
X172266819Y-81573866D01*
X172266819Y-81573866D02*
X172219200Y-81764342D01*
X172219200Y-81764342D02*
X172171581Y-81859580D01*
X172171581Y-81859580D02*
X172123962Y-81907200D01*
X172123962Y-81907200D02*
X172028724Y-81954819D01*
X172028724Y-81954819D02*
X171933486Y-81954819D01*
X171933486Y-81954819D02*
X171838248Y-81907200D01*
X171838248Y-81907200D02*
X171790629Y-81859580D01*
X171790629Y-81859580D02*
X171743010Y-81764342D01*
X171743010Y-81764342D02*
X171695391Y-81573866D01*
X171695391Y-81573866D02*
X171695391Y-81335771D01*
X171695391Y-81335771D02*
X171743010Y-81145295D01*
X171743010Y-81145295D02*
X171790629Y-81050057D01*
X171790629Y-81050057D02*
X171838248Y-81002438D01*
X171838248Y-81002438D02*
X171933486Y-80954819D01*
X172885867Y-80954819D02*
X172981105Y-80954819D01*
X172981105Y-80954819D02*
X173076343Y-81002438D01*
X173076343Y-81002438D02*
X173123962Y-81050057D01*
X173123962Y-81050057D02*
X173171581Y-81145295D01*
X173171581Y-81145295D02*
X173219200Y-81335771D01*
X173219200Y-81335771D02*
X173219200Y-81573866D01*
X173219200Y-81573866D02*
X173171581Y-81764342D01*
X173171581Y-81764342D02*
X173123962Y-81859580D01*
X173123962Y-81859580D02*
X173076343Y-81907200D01*
X173076343Y-81907200D02*
X172981105Y-81954819D01*
X172981105Y-81954819D02*
X172885867Y-81954819D01*
X172885867Y-81954819D02*
X172790629Y-81907200D01*
X172790629Y-81907200D02*
X172743010Y-81859580D01*
X172743010Y-81859580D02*
X172695391Y-81764342D01*
X172695391Y-81764342D02*
X172647772Y-81573866D01*
X172647772Y-81573866D02*
X172647772Y-81335771D01*
X172647772Y-81335771D02*
X172695391Y-81145295D01*
X172695391Y-81145295D02*
X172743010Y-81050057D01*
X172743010Y-81050057D02*
X172790629Y-81002438D01*
X172790629Y-81002438D02*
X172885867Y-80954819D01*
X173647772Y-81954819D02*
X173647772Y-80954819D01*
X173647772Y-80954819D02*
X173981105Y-81669104D01*
X173981105Y-81669104D02*
X174314438Y-80954819D01*
X174314438Y-80954819D02*
X174314438Y-81954819D01*
X175314438Y-81954819D02*
X174743010Y-81954819D01*
X175028724Y-81954819D02*
X175028724Y-80954819D01*
X175028724Y-80954819D02*
X174933486Y-81097676D01*
X174933486Y-81097676D02*
X174838248Y-81192914D01*
X174838248Y-81192914D02*
X174743010Y-81240533D01*
D11*
X171985228Y-70599999D02*
X172013800Y-70628571D01*
X172013800Y-70628571D02*
X172042371Y-70714285D01*
X172042371Y-70714285D02*
X172042371Y-70771428D01*
X172042371Y-70771428D02*
X172013800Y-70857142D01*
X172013800Y-70857142D02*
X171956657Y-70914285D01*
X171956657Y-70914285D02*
X171899514Y-70942856D01*
X171899514Y-70942856D02*
X171785228Y-70971428D01*
X171785228Y-70971428D02*
X171699514Y-70971428D01*
X171699514Y-70971428D02*
X171585228Y-70942856D01*
X171585228Y-70942856D02*
X171528085Y-70914285D01*
X171528085Y-70914285D02*
X171470942Y-70857142D01*
X171470942Y-70857142D02*
X171442371Y-70771428D01*
X171442371Y-70771428D02*
X171442371Y-70714285D01*
X171442371Y-70714285D02*
X171470942Y-70628571D01*
X171470942Y-70628571D02*
X171499514Y-70599999D01*
X171442371Y-70399999D02*
X171442371Y-70028571D01*
X171442371Y-70028571D02*
X171670942Y-70228571D01*
X171670942Y-70228571D02*
X171670942Y-70142856D01*
X171670942Y-70142856D02*
X171699514Y-70085714D01*
X171699514Y-70085714D02*
X171728085Y-70057142D01*
X171728085Y-70057142D02*
X171785228Y-70028571D01*
X171785228Y-70028571D02*
X171928085Y-70028571D01*
X171928085Y-70028571D02*
X171985228Y-70057142D01*
X171985228Y-70057142D02*
X172013800Y-70085714D01*
X172013800Y-70085714D02*
X172042371Y-70142856D01*
X172042371Y-70142856D02*
X172042371Y-70314285D01*
X172042371Y-70314285D02*
X172013800Y-70371428D01*
X172013800Y-70371428D02*
X171985228Y-70399999D01*
X197575000Y-42256371D02*
X197375000Y-41970657D01*
X197232143Y-42256371D02*
X197232143Y-41656371D01*
X197232143Y-41656371D02*
X197460714Y-41656371D01*
X197460714Y-41656371D02*
X197517857Y-41684942D01*
X197517857Y-41684942D02*
X197546428Y-41713514D01*
X197546428Y-41713514D02*
X197575000Y-41770657D01*
X197575000Y-41770657D02*
X197575000Y-41856371D01*
X197575000Y-41856371D02*
X197546428Y-41913514D01*
X197546428Y-41913514D02*
X197517857Y-41942085D01*
X197517857Y-41942085D02*
X197460714Y-41970657D01*
X197460714Y-41970657D02*
X197232143Y-41970657D01*
X197775000Y-41656371D02*
X198146428Y-41656371D01*
X198146428Y-41656371D02*
X197946428Y-41884942D01*
X197946428Y-41884942D02*
X198032143Y-41884942D01*
X198032143Y-41884942D02*
X198089286Y-41913514D01*
X198089286Y-41913514D02*
X198117857Y-41942085D01*
X198117857Y-41942085D02*
X198146428Y-41999228D01*
X198146428Y-41999228D02*
X198146428Y-42142085D01*
X198146428Y-42142085D02*
X198117857Y-42199228D01*
X198117857Y-42199228D02*
X198089286Y-42227800D01*
X198089286Y-42227800D02*
X198032143Y-42256371D01*
X198032143Y-42256371D02*
X197860714Y-42256371D01*
X197860714Y-42256371D02*
X197803571Y-42227800D01*
X197803571Y-42227800D02*
X197775000Y-42199228D01*
X171075000Y-89756371D02*
X170875000Y-89470657D01*
X170732143Y-89756371D02*
X170732143Y-89156371D01*
X170732143Y-89156371D02*
X170960714Y-89156371D01*
X170960714Y-89156371D02*
X171017857Y-89184942D01*
X171017857Y-89184942D02*
X171046428Y-89213514D01*
X171046428Y-89213514D02*
X171075000Y-89270657D01*
X171075000Y-89270657D02*
X171075000Y-89356371D01*
X171075000Y-89356371D02*
X171046428Y-89413514D01*
X171046428Y-89413514D02*
X171017857Y-89442085D01*
X171017857Y-89442085D02*
X170960714Y-89470657D01*
X170960714Y-89470657D02*
X170732143Y-89470657D01*
X171303571Y-89213514D02*
X171332143Y-89184942D01*
X171332143Y-89184942D02*
X171389286Y-89156371D01*
X171389286Y-89156371D02*
X171532143Y-89156371D01*
X171532143Y-89156371D02*
X171589286Y-89184942D01*
X171589286Y-89184942D02*
X171617857Y-89213514D01*
X171617857Y-89213514D02*
X171646428Y-89270657D01*
X171646428Y-89270657D02*
X171646428Y-89327800D01*
X171646428Y-89327800D02*
X171617857Y-89413514D01*
X171617857Y-89413514D02*
X171275000Y-89756371D01*
X171275000Y-89756371D02*
X171646428Y-89756371D01*
X206575000Y-44288371D02*
X206375000Y-44002657D01*
X206232143Y-44288371D02*
X206232143Y-43688371D01*
X206232143Y-43688371D02*
X206460714Y-43688371D01*
X206460714Y-43688371D02*
X206517857Y-43716942D01*
X206517857Y-43716942D02*
X206546428Y-43745514D01*
X206546428Y-43745514D02*
X206575000Y-43802657D01*
X206575000Y-43802657D02*
X206575000Y-43888371D01*
X206575000Y-43888371D02*
X206546428Y-43945514D01*
X206546428Y-43945514D02*
X206517857Y-43974085D01*
X206517857Y-43974085D02*
X206460714Y-44002657D01*
X206460714Y-44002657D02*
X206232143Y-44002657D01*
X207089286Y-43888371D02*
X207089286Y-44288371D01*
X206946428Y-43659800D02*
X206803571Y-44088371D01*
X206803571Y-44088371D02*
X207175000Y-44088371D01*
D10*
X174359580Y-99266666D02*
X174407200Y-99314285D01*
X174407200Y-99314285D02*
X174454819Y-99457142D01*
X174454819Y-99457142D02*
X174454819Y-99552380D01*
X174454819Y-99552380D02*
X174407200Y-99695237D01*
X174407200Y-99695237D02*
X174311961Y-99790475D01*
X174311961Y-99790475D02*
X174216723Y-99838094D01*
X174216723Y-99838094D02*
X174026247Y-99885713D01*
X174026247Y-99885713D02*
X173883390Y-99885713D01*
X173883390Y-99885713D02*
X173692914Y-99838094D01*
X173692914Y-99838094D02*
X173597676Y-99790475D01*
X173597676Y-99790475D02*
X173502438Y-99695237D01*
X173502438Y-99695237D02*
X173454819Y-99552380D01*
X173454819Y-99552380D02*
X173454819Y-99457142D01*
X173454819Y-99457142D02*
X173502438Y-99314285D01*
X173502438Y-99314285D02*
X173550057Y-99266666D01*
X174454819Y-98266666D02*
X173978628Y-98599999D01*
X174454819Y-98838094D02*
X173454819Y-98838094D01*
X173454819Y-98838094D02*
X173454819Y-98457142D01*
X173454819Y-98457142D02*
X173502438Y-98361904D01*
X173502438Y-98361904D02*
X173550057Y-98314285D01*
X173550057Y-98314285D02*
X173645295Y-98266666D01*
X173645295Y-98266666D02*
X173788152Y-98266666D01*
X173788152Y-98266666D02*
X173883390Y-98314285D01*
X173883390Y-98314285D02*
X173931009Y-98361904D01*
X173931009Y-98361904D02*
X173978628Y-98457142D01*
X173978628Y-98457142D02*
X173978628Y-98838094D01*
X173788152Y-97409523D02*
X174454819Y-97409523D01*
X173407200Y-97647618D02*
X174121485Y-97885713D01*
X174121485Y-97885713D02*
X174121485Y-97266666D01*
D11*
X208005357Y-69297514D02*
X207948214Y-69268942D01*
X207948214Y-69268942D02*
X207891071Y-69211800D01*
X207891071Y-69211800D02*
X207805357Y-69126085D01*
X207805357Y-69126085D02*
X207748214Y-69097514D01*
X207748214Y-69097514D02*
X207691071Y-69097514D01*
X207719642Y-69240371D02*
X207662500Y-69211800D01*
X207662500Y-69211800D02*
X207605357Y-69154657D01*
X207605357Y-69154657D02*
X207576785Y-69040371D01*
X207576785Y-69040371D02*
X207576785Y-68840371D01*
X207576785Y-68840371D02*
X207605357Y-68726085D01*
X207605357Y-68726085D02*
X207662500Y-68668942D01*
X207662500Y-68668942D02*
X207719642Y-68640371D01*
X207719642Y-68640371D02*
X207833928Y-68640371D01*
X207833928Y-68640371D02*
X207891071Y-68668942D01*
X207891071Y-68668942D02*
X207948214Y-68726085D01*
X207948214Y-68726085D02*
X207976785Y-68840371D01*
X207976785Y-68840371D02*
X207976785Y-69040371D01*
X207976785Y-69040371D02*
X207948214Y-69154657D01*
X207948214Y-69154657D02*
X207891071Y-69211800D01*
X207891071Y-69211800D02*
X207833928Y-69240371D01*
X207833928Y-69240371D02*
X207719642Y-69240371D01*
X208176785Y-68640371D02*
X208548213Y-68640371D01*
X208548213Y-68640371D02*
X208348213Y-68868942D01*
X208348213Y-68868942D02*
X208433928Y-68868942D01*
X208433928Y-68868942D02*
X208491071Y-68897514D01*
X208491071Y-68897514D02*
X208519642Y-68926085D01*
X208519642Y-68926085D02*
X208548213Y-68983228D01*
X208548213Y-68983228D02*
X208548213Y-69126085D01*
X208548213Y-69126085D02*
X208519642Y-69183228D01*
X208519642Y-69183228D02*
X208491071Y-69211800D01*
X208491071Y-69211800D02*
X208433928Y-69240371D01*
X208433928Y-69240371D02*
X208262499Y-69240371D01*
X208262499Y-69240371D02*
X208205356Y-69211800D01*
X208205356Y-69211800D02*
X208176785Y-69183228D01*
X220664285Y-92035228D02*
X220635713Y-92063800D01*
X220635713Y-92063800D02*
X220549999Y-92092371D01*
X220549999Y-92092371D02*
X220492856Y-92092371D01*
X220492856Y-92092371D02*
X220407142Y-92063800D01*
X220407142Y-92063800D02*
X220349999Y-92006657D01*
X220349999Y-92006657D02*
X220321428Y-91949514D01*
X220321428Y-91949514D02*
X220292856Y-91835228D01*
X220292856Y-91835228D02*
X220292856Y-91749514D01*
X220292856Y-91749514D02*
X220321428Y-91635228D01*
X220321428Y-91635228D02*
X220349999Y-91578085D01*
X220349999Y-91578085D02*
X220407142Y-91520942D01*
X220407142Y-91520942D02*
X220492856Y-91492371D01*
X220492856Y-91492371D02*
X220549999Y-91492371D01*
X220549999Y-91492371D02*
X220635713Y-91520942D01*
X220635713Y-91520942D02*
X220664285Y-91549514D01*
X221235713Y-92092371D02*
X220892856Y-92092371D01*
X221064285Y-92092371D02*
X221064285Y-91492371D01*
X221064285Y-91492371D02*
X221007142Y-91578085D01*
X221007142Y-91578085D02*
X220949999Y-91635228D01*
X220949999Y-91635228D02*
X220892856Y-91663800D01*
X221464285Y-91549514D02*
X221492857Y-91520942D01*
X221492857Y-91520942D02*
X221550000Y-91492371D01*
X221550000Y-91492371D02*
X221692857Y-91492371D01*
X221692857Y-91492371D02*
X221750000Y-91520942D01*
X221750000Y-91520942D02*
X221778571Y-91549514D01*
X221778571Y-91549514D02*
X221807142Y-91606657D01*
X221807142Y-91606657D02*
X221807142Y-91663800D01*
X221807142Y-91663800D02*
X221778571Y-91749514D01*
X221778571Y-91749514D02*
X221435714Y-92092371D01*
X221435714Y-92092371D02*
X221807142Y-92092371D01*
D10*
X173233333Y-81859580D02*
X173185714Y-81907200D01*
X173185714Y-81907200D02*
X173042857Y-81954819D01*
X173042857Y-81954819D02*
X172947619Y-81954819D01*
X172947619Y-81954819D02*
X172804762Y-81907200D01*
X172804762Y-81907200D02*
X172709524Y-81811961D01*
X172709524Y-81811961D02*
X172661905Y-81716723D01*
X172661905Y-81716723D02*
X172614286Y-81526247D01*
X172614286Y-81526247D02*
X172614286Y-81383390D01*
X172614286Y-81383390D02*
X172661905Y-81192914D01*
X172661905Y-81192914D02*
X172709524Y-81097676D01*
X172709524Y-81097676D02*
X172804762Y-81002438D01*
X172804762Y-81002438D02*
X172947619Y-80954819D01*
X172947619Y-80954819D02*
X173042857Y-80954819D01*
X173042857Y-80954819D02*
X173185714Y-81002438D01*
X173185714Y-81002438D02*
X173233333Y-81050057D01*
X174233333Y-81954819D02*
X173900000Y-81478628D01*
X173661905Y-81954819D02*
X173661905Y-80954819D01*
X173661905Y-80954819D02*
X174042857Y-80954819D01*
X174042857Y-80954819D02*
X174138095Y-81002438D01*
X174138095Y-81002438D02*
X174185714Y-81050057D01*
X174185714Y-81050057D02*
X174233333Y-81145295D01*
X174233333Y-81145295D02*
X174233333Y-81288152D01*
X174233333Y-81288152D02*
X174185714Y-81383390D01*
X174185714Y-81383390D02*
X174138095Y-81431009D01*
X174138095Y-81431009D02*
X174042857Y-81478628D01*
X174042857Y-81478628D02*
X173661905Y-81478628D01*
X175185714Y-81954819D02*
X174614286Y-81954819D01*
X174900000Y-81954819D02*
X174900000Y-80954819D01*
X174900000Y-80954819D02*
X174804762Y-81097676D01*
X174804762Y-81097676D02*
X174709524Y-81192914D01*
X174709524Y-81192914D02*
X174614286Y-81240533D01*
D11*
X181485228Y-70599999D02*
X181513800Y-70628571D01*
X181513800Y-70628571D02*
X181542371Y-70714285D01*
X181542371Y-70714285D02*
X181542371Y-70771428D01*
X181542371Y-70771428D02*
X181513800Y-70857142D01*
X181513800Y-70857142D02*
X181456657Y-70914285D01*
X181456657Y-70914285D02*
X181399514Y-70942856D01*
X181399514Y-70942856D02*
X181285228Y-70971428D01*
X181285228Y-70971428D02*
X181199514Y-70971428D01*
X181199514Y-70971428D02*
X181085228Y-70942856D01*
X181085228Y-70942856D02*
X181028085Y-70914285D01*
X181028085Y-70914285D02*
X180970942Y-70857142D01*
X180970942Y-70857142D02*
X180942371Y-70771428D01*
X180942371Y-70771428D02*
X180942371Y-70714285D01*
X180942371Y-70714285D02*
X180970942Y-70628571D01*
X180970942Y-70628571D02*
X180999514Y-70599999D01*
X181542371Y-70028571D02*
X181542371Y-70371428D01*
X181542371Y-70199999D02*
X180942371Y-70199999D01*
X180942371Y-70199999D02*
X181028085Y-70257142D01*
X181028085Y-70257142D02*
X181085228Y-70314285D01*
X181085228Y-70314285D02*
X181113800Y-70371428D01*
X186485228Y-70599999D02*
X186513800Y-70628571D01*
X186513800Y-70628571D02*
X186542371Y-70714285D01*
X186542371Y-70714285D02*
X186542371Y-70771428D01*
X186542371Y-70771428D02*
X186513800Y-70857142D01*
X186513800Y-70857142D02*
X186456657Y-70914285D01*
X186456657Y-70914285D02*
X186399514Y-70942856D01*
X186399514Y-70942856D02*
X186285228Y-70971428D01*
X186285228Y-70971428D02*
X186199514Y-70971428D01*
X186199514Y-70971428D02*
X186085228Y-70942856D01*
X186085228Y-70942856D02*
X186028085Y-70914285D01*
X186028085Y-70914285D02*
X185970942Y-70857142D01*
X185970942Y-70857142D02*
X185942371Y-70771428D01*
X185942371Y-70771428D02*
X185942371Y-70714285D01*
X185942371Y-70714285D02*
X185970942Y-70628571D01*
X185970942Y-70628571D02*
X185999514Y-70599999D01*
X186199514Y-70257142D02*
X186170942Y-70314285D01*
X186170942Y-70314285D02*
X186142371Y-70342856D01*
X186142371Y-70342856D02*
X186085228Y-70371428D01*
X186085228Y-70371428D02*
X186056657Y-70371428D01*
X186056657Y-70371428D02*
X185999514Y-70342856D01*
X185999514Y-70342856D02*
X185970942Y-70314285D01*
X185970942Y-70314285D02*
X185942371Y-70257142D01*
X185942371Y-70257142D02*
X185942371Y-70142856D01*
X185942371Y-70142856D02*
X185970942Y-70085714D01*
X185970942Y-70085714D02*
X185999514Y-70057142D01*
X185999514Y-70057142D02*
X186056657Y-70028571D01*
X186056657Y-70028571D02*
X186085228Y-70028571D01*
X186085228Y-70028571D02*
X186142371Y-70057142D01*
X186142371Y-70057142D02*
X186170942Y-70085714D01*
X186170942Y-70085714D02*
X186199514Y-70142856D01*
X186199514Y-70142856D02*
X186199514Y-70257142D01*
X186199514Y-70257142D02*
X186228085Y-70314285D01*
X186228085Y-70314285D02*
X186256657Y-70342856D01*
X186256657Y-70342856D02*
X186313800Y-70371428D01*
X186313800Y-70371428D02*
X186428085Y-70371428D01*
X186428085Y-70371428D02*
X186485228Y-70342856D01*
X186485228Y-70342856D02*
X186513800Y-70314285D01*
X186513800Y-70314285D02*
X186542371Y-70257142D01*
X186542371Y-70257142D02*
X186542371Y-70142856D01*
X186542371Y-70142856D02*
X186513800Y-70085714D01*
X186513800Y-70085714D02*
X186485228Y-70057142D01*
X186485228Y-70057142D02*
X186428085Y-70028571D01*
X186428085Y-70028571D02*
X186313800Y-70028571D01*
X186313800Y-70028571D02*
X186256657Y-70057142D01*
X186256657Y-70057142D02*
X186228085Y-70085714D01*
X186228085Y-70085714D02*
X186199514Y-70142856D01*
X176435228Y-70599999D02*
X176463800Y-70628571D01*
X176463800Y-70628571D02*
X176492371Y-70714285D01*
X176492371Y-70714285D02*
X176492371Y-70771428D01*
X176492371Y-70771428D02*
X176463800Y-70857142D01*
X176463800Y-70857142D02*
X176406657Y-70914285D01*
X176406657Y-70914285D02*
X176349514Y-70942856D01*
X176349514Y-70942856D02*
X176235228Y-70971428D01*
X176235228Y-70971428D02*
X176149514Y-70971428D01*
X176149514Y-70971428D02*
X176035228Y-70942856D01*
X176035228Y-70942856D02*
X175978085Y-70914285D01*
X175978085Y-70914285D02*
X175920942Y-70857142D01*
X175920942Y-70857142D02*
X175892371Y-70771428D01*
X175892371Y-70771428D02*
X175892371Y-70714285D01*
X175892371Y-70714285D02*
X175920942Y-70628571D01*
X175920942Y-70628571D02*
X175949514Y-70599999D01*
X176092371Y-70085714D02*
X176492371Y-70085714D01*
X175863800Y-70228571D02*
X176292371Y-70371428D01*
X176292371Y-70371428D02*
X176292371Y-69999999D01*
D10*
X166833333Y-101359580D02*
X166785714Y-101407200D01*
X166785714Y-101407200D02*
X166642857Y-101454819D01*
X166642857Y-101454819D02*
X166547619Y-101454819D01*
X166547619Y-101454819D02*
X166404762Y-101407200D01*
X166404762Y-101407200D02*
X166309524Y-101311961D01*
X166309524Y-101311961D02*
X166261905Y-101216723D01*
X166261905Y-101216723D02*
X166214286Y-101026247D01*
X166214286Y-101026247D02*
X166214286Y-100883390D01*
X166214286Y-100883390D02*
X166261905Y-100692914D01*
X166261905Y-100692914D02*
X166309524Y-100597676D01*
X166309524Y-100597676D02*
X166404762Y-100502438D01*
X166404762Y-100502438D02*
X166547619Y-100454819D01*
X166547619Y-100454819D02*
X166642857Y-100454819D01*
X166642857Y-100454819D02*
X166785714Y-100502438D01*
X166785714Y-100502438D02*
X166833333Y-100550057D01*
X167833333Y-101454819D02*
X167500000Y-100978628D01*
X167261905Y-101454819D02*
X167261905Y-100454819D01*
X167261905Y-100454819D02*
X167642857Y-100454819D01*
X167642857Y-100454819D02*
X167738095Y-100502438D01*
X167738095Y-100502438D02*
X167785714Y-100550057D01*
X167785714Y-100550057D02*
X167833333Y-100645295D01*
X167833333Y-100645295D02*
X167833333Y-100788152D01*
X167833333Y-100788152D02*
X167785714Y-100883390D01*
X167785714Y-100883390D02*
X167738095Y-100931009D01*
X167738095Y-100931009D02*
X167642857Y-100978628D01*
X167642857Y-100978628D02*
X167261905Y-100978628D01*
X168214286Y-100550057D02*
X168261905Y-100502438D01*
X168261905Y-100502438D02*
X168357143Y-100454819D01*
X168357143Y-100454819D02*
X168595238Y-100454819D01*
X168595238Y-100454819D02*
X168690476Y-100502438D01*
X168690476Y-100502438D02*
X168738095Y-100550057D01*
X168738095Y-100550057D02*
X168785714Y-100645295D01*
X168785714Y-100645295D02*
X168785714Y-100740533D01*
X168785714Y-100740533D02*
X168738095Y-100883390D01*
X168738095Y-100883390D02*
X168166667Y-101454819D01*
X168166667Y-101454819D02*
X168785714Y-101454819D01*
D11*
X177485228Y-92049999D02*
X177513800Y-92078571D01*
X177513800Y-92078571D02*
X177542371Y-92164285D01*
X177542371Y-92164285D02*
X177542371Y-92221428D01*
X177542371Y-92221428D02*
X177513800Y-92307142D01*
X177513800Y-92307142D02*
X177456657Y-92364285D01*
X177456657Y-92364285D02*
X177399514Y-92392856D01*
X177399514Y-92392856D02*
X177285228Y-92421428D01*
X177285228Y-92421428D02*
X177199514Y-92421428D01*
X177199514Y-92421428D02*
X177085228Y-92392856D01*
X177085228Y-92392856D02*
X177028085Y-92364285D01*
X177028085Y-92364285D02*
X176970942Y-92307142D01*
X176970942Y-92307142D02*
X176942371Y-92221428D01*
X176942371Y-92221428D02*
X176942371Y-92164285D01*
X176942371Y-92164285D02*
X176970942Y-92078571D01*
X176970942Y-92078571D02*
X176999514Y-92049999D01*
X176942371Y-91535714D02*
X176942371Y-91649999D01*
X176942371Y-91649999D02*
X176970942Y-91707142D01*
X176970942Y-91707142D02*
X176999514Y-91735714D01*
X176999514Y-91735714D02*
X177085228Y-91792856D01*
X177085228Y-91792856D02*
X177199514Y-91821428D01*
X177199514Y-91821428D02*
X177428085Y-91821428D01*
X177428085Y-91821428D02*
X177485228Y-91792856D01*
X177485228Y-91792856D02*
X177513800Y-91764285D01*
X177513800Y-91764285D02*
X177542371Y-91707142D01*
X177542371Y-91707142D02*
X177542371Y-91592856D01*
X177542371Y-91592856D02*
X177513800Y-91535714D01*
X177513800Y-91535714D02*
X177485228Y-91507142D01*
X177485228Y-91507142D02*
X177428085Y-91478571D01*
X177428085Y-91478571D02*
X177285228Y-91478571D01*
X177285228Y-91478571D02*
X177228085Y-91507142D01*
X177228085Y-91507142D02*
X177199514Y-91535714D01*
X177199514Y-91535714D02*
X177170942Y-91592856D01*
X177170942Y-91592856D02*
X177170942Y-91707142D01*
X177170942Y-91707142D02*
X177199514Y-91764285D01*
X177199514Y-91764285D02*
X177228085Y-91792856D01*
X177228085Y-91792856D02*
X177285228Y-91821428D01*
X172164285Y-104485228D02*
X172135713Y-104513800D01*
X172135713Y-104513800D02*
X172049999Y-104542371D01*
X172049999Y-104542371D02*
X171992856Y-104542371D01*
X171992856Y-104542371D02*
X171907142Y-104513800D01*
X171907142Y-104513800D02*
X171849999Y-104456657D01*
X171849999Y-104456657D02*
X171821428Y-104399514D01*
X171821428Y-104399514D02*
X171792856Y-104285228D01*
X171792856Y-104285228D02*
X171792856Y-104199514D01*
X171792856Y-104199514D02*
X171821428Y-104085228D01*
X171821428Y-104085228D02*
X171849999Y-104028085D01*
X171849999Y-104028085D02*
X171907142Y-103970942D01*
X171907142Y-103970942D02*
X171992856Y-103942371D01*
X171992856Y-103942371D02*
X172049999Y-103942371D01*
X172049999Y-103942371D02*
X172135713Y-103970942D01*
X172135713Y-103970942D02*
X172164285Y-103999514D01*
X172735713Y-104542371D02*
X172392856Y-104542371D01*
X172564285Y-104542371D02*
X172564285Y-103942371D01*
X172564285Y-103942371D02*
X172507142Y-104028085D01*
X172507142Y-104028085D02*
X172449999Y-104085228D01*
X172449999Y-104085228D02*
X172392856Y-104113800D01*
X173250000Y-104142371D02*
X173250000Y-104542371D01*
X173107142Y-103913800D02*
X172964285Y-104342371D01*
X172964285Y-104342371D02*
X173335714Y-104342371D01*
X212164285Y-91985228D02*
X212135713Y-92013800D01*
X212135713Y-92013800D02*
X212049999Y-92042371D01*
X212049999Y-92042371D02*
X211992856Y-92042371D01*
X211992856Y-92042371D02*
X211907142Y-92013800D01*
X211907142Y-92013800D02*
X211849999Y-91956657D01*
X211849999Y-91956657D02*
X211821428Y-91899514D01*
X211821428Y-91899514D02*
X211792856Y-91785228D01*
X211792856Y-91785228D02*
X211792856Y-91699514D01*
X211792856Y-91699514D02*
X211821428Y-91585228D01*
X211821428Y-91585228D02*
X211849999Y-91528085D01*
X211849999Y-91528085D02*
X211907142Y-91470942D01*
X211907142Y-91470942D02*
X211992856Y-91442371D01*
X211992856Y-91442371D02*
X212049999Y-91442371D01*
X212049999Y-91442371D02*
X212135713Y-91470942D01*
X212135713Y-91470942D02*
X212164285Y-91499514D01*
X212735713Y-92042371D02*
X212392856Y-92042371D01*
X212564285Y-92042371D02*
X212564285Y-91442371D01*
X212564285Y-91442371D02*
X212507142Y-91528085D01*
X212507142Y-91528085D02*
X212449999Y-91585228D01*
X212449999Y-91585228D02*
X212392856Y-91613800D01*
X212935714Y-91442371D02*
X213307142Y-91442371D01*
X213307142Y-91442371D02*
X213107142Y-91670942D01*
X213107142Y-91670942D02*
X213192857Y-91670942D01*
X213192857Y-91670942D02*
X213250000Y-91699514D01*
X213250000Y-91699514D02*
X213278571Y-91728085D01*
X213278571Y-91728085D02*
X213307142Y-91785228D01*
X213307142Y-91785228D02*
X213307142Y-91928085D01*
X213307142Y-91928085D02*
X213278571Y-91985228D01*
X213278571Y-91985228D02*
X213250000Y-92013800D01*
X213250000Y-92013800D02*
X213192857Y-92042371D01*
X213192857Y-92042371D02*
X213021428Y-92042371D01*
X213021428Y-92042371D02*
X212964285Y-92013800D01*
X212964285Y-92013800D02*
X212935714Y-91985228D01*
X167535228Y-70599999D02*
X167563800Y-70628571D01*
X167563800Y-70628571D02*
X167592371Y-70714285D01*
X167592371Y-70714285D02*
X167592371Y-70771428D01*
X167592371Y-70771428D02*
X167563800Y-70857142D01*
X167563800Y-70857142D02*
X167506657Y-70914285D01*
X167506657Y-70914285D02*
X167449514Y-70942856D01*
X167449514Y-70942856D02*
X167335228Y-70971428D01*
X167335228Y-70971428D02*
X167249514Y-70971428D01*
X167249514Y-70971428D02*
X167135228Y-70942856D01*
X167135228Y-70942856D02*
X167078085Y-70914285D01*
X167078085Y-70914285D02*
X167020942Y-70857142D01*
X167020942Y-70857142D02*
X166992371Y-70771428D01*
X166992371Y-70771428D02*
X166992371Y-70714285D01*
X166992371Y-70714285D02*
X167020942Y-70628571D01*
X167020942Y-70628571D02*
X167049514Y-70599999D01*
X167049514Y-70371428D02*
X167020942Y-70342856D01*
X167020942Y-70342856D02*
X166992371Y-70285714D01*
X166992371Y-70285714D02*
X166992371Y-70142856D01*
X166992371Y-70142856D02*
X167020942Y-70085714D01*
X167020942Y-70085714D02*
X167049514Y-70057142D01*
X167049514Y-70057142D02*
X167106657Y-70028571D01*
X167106657Y-70028571D02*
X167163800Y-70028571D01*
X167163800Y-70028571D02*
X167249514Y-70057142D01*
X167249514Y-70057142D02*
X167592371Y-70399999D01*
X167592371Y-70399999D02*
X167592371Y-70028571D01*
D10*
X217666667Y-84417799D02*
X217809524Y-84465418D01*
X217809524Y-84465418D02*
X218047619Y-84465418D01*
X218047619Y-84465418D02*
X218142857Y-84417799D01*
X218142857Y-84417799D02*
X218190476Y-84370179D01*
X218190476Y-84370179D02*
X218238095Y-84274941D01*
X218238095Y-84274941D02*
X218238095Y-84179703D01*
X218238095Y-84179703D02*
X218190476Y-84084465D01*
X218190476Y-84084465D02*
X218142857Y-84036846D01*
X218142857Y-84036846D02*
X218047619Y-83989227D01*
X218047619Y-83989227D02*
X217857143Y-83941608D01*
X217857143Y-83941608D02*
X217761905Y-83893989D01*
X217761905Y-83893989D02*
X217714286Y-83846370D01*
X217714286Y-83846370D02*
X217666667Y-83751132D01*
X217666667Y-83751132D02*
X217666667Y-83655894D01*
X217666667Y-83655894D02*
X217714286Y-83560656D01*
X217714286Y-83560656D02*
X217761905Y-83513037D01*
X217761905Y-83513037D02*
X217857143Y-83465418D01*
X217857143Y-83465418D02*
X218095238Y-83465418D01*
X218095238Y-83465418D02*
X218238095Y-83513037D01*
X218571429Y-83465418D02*
X218809524Y-84465418D01*
X218809524Y-84465418D02*
X219000000Y-83751132D01*
X219000000Y-83751132D02*
X219190476Y-84465418D01*
X219190476Y-84465418D02*
X219428572Y-83465418D01*
X220333333Y-84465418D02*
X219761905Y-84465418D01*
X220047619Y-84465418D02*
X220047619Y-83465418D01*
X220047619Y-83465418D02*
X219952381Y-83608275D01*
X219952381Y-83608275D02*
X219857143Y-83703513D01*
X219857143Y-83703513D02*
X219761905Y-83751132D01*
X215750000Y-79704118D02*
X215750000Y-79942213D01*
X215511905Y-79846975D02*
X215750000Y-79942213D01*
X215750000Y-79942213D02*
X215988095Y-79846975D01*
X215607143Y-80132689D02*
X215750000Y-79942213D01*
X215750000Y-79942213D02*
X215892857Y-80132689D01*
X215750000Y-79704118D02*
X215750000Y-79942213D01*
X215511905Y-79846975D02*
X215750000Y-79942213D01*
X215750000Y-79942213D02*
X215988095Y-79846975D01*
X215607143Y-80132689D02*
X215750000Y-79942213D01*
X215750000Y-79942213D02*
X215892857Y-80132689D01*
D11*
X174625000Y-85699228D02*
X174596428Y-85727800D01*
X174596428Y-85727800D02*
X174510714Y-85756371D01*
X174510714Y-85756371D02*
X174453571Y-85756371D01*
X174453571Y-85756371D02*
X174367857Y-85727800D01*
X174367857Y-85727800D02*
X174310714Y-85670657D01*
X174310714Y-85670657D02*
X174282143Y-85613514D01*
X174282143Y-85613514D02*
X174253571Y-85499228D01*
X174253571Y-85499228D02*
X174253571Y-85413514D01*
X174253571Y-85413514D02*
X174282143Y-85299228D01*
X174282143Y-85299228D02*
X174310714Y-85242085D01*
X174310714Y-85242085D02*
X174367857Y-85184942D01*
X174367857Y-85184942D02*
X174453571Y-85156371D01*
X174453571Y-85156371D02*
X174510714Y-85156371D01*
X174510714Y-85156371D02*
X174596428Y-85184942D01*
X174596428Y-85184942D02*
X174625000Y-85213514D01*
X174910714Y-85756371D02*
X175025000Y-85756371D01*
X175025000Y-85756371D02*
X175082143Y-85727800D01*
X175082143Y-85727800D02*
X175110714Y-85699228D01*
X175110714Y-85699228D02*
X175167857Y-85613514D01*
X175167857Y-85613514D02*
X175196428Y-85499228D01*
X175196428Y-85499228D02*
X175196428Y-85270657D01*
X175196428Y-85270657D02*
X175167857Y-85213514D01*
X175167857Y-85213514D02*
X175139286Y-85184942D01*
X175139286Y-85184942D02*
X175082143Y-85156371D01*
X175082143Y-85156371D02*
X174967857Y-85156371D01*
X174967857Y-85156371D02*
X174910714Y-85184942D01*
X174910714Y-85184942D02*
X174882143Y-85213514D01*
X174882143Y-85213514D02*
X174853571Y-85270657D01*
X174853571Y-85270657D02*
X174853571Y-85413514D01*
X174853571Y-85413514D02*
X174882143Y-85470657D01*
X174882143Y-85470657D02*
X174910714Y-85499228D01*
X174910714Y-85499228D02*
X174967857Y-85527800D01*
X174967857Y-85527800D02*
X175082143Y-85527800D01*
X175082143Y-85527800D02*
X175139286Y-85499228D01*
X175139286Y-85499228D02*
X175167857Y-85470657D01*
X175167857Y-85470657D02*
X175196428Y-85413514D01*
X220156999Y-68862371D02*
X220156999Y-69290942D01*
X220156999Y-69290942D02*
X220128428Y-69376657D01*
X220128428Y-69376657D02*
X220071285Y-69433800D01*
X220071285Y-69433800D02*
X219985571Y-69462371D01*
X219985571Y-69462371D02*
X219928428Y-69462371D01*
X220385571Y-68862371D02*
X220756999Y-68862371D01*
X220756999Y-68862371D02*
X220556999Y-69090942D01*
X220556999Y-69090942D02*
X220642714Y-69090942D01*
X220642714Y-69090942D02*
X220699857Y-69119514D01*
X220699857Y-69119514D02*
X220728428Y-69148085D01*
X220728428Y-69148085D02*
X220756999Y-69205228D01*
X220756999Y-69205228D02*
X220756999Y-69348085D01*
X220756999Y-69348085D02*
X220728428Y-69405228D01*
X220728428Y-69405228D02*
X220699857Y-69433800D01*
X220699857Y-69433800D02*
X220642714Y-69462371D01*
X220642714Y-69462371D02*
X220471285Y-69462371D01*
X220471285Y-69462371D02*
X220414142Y-69433800D01*
X220414142Y-69433800D02*
X220385571Y-69405228D01*
X217226428Y-75872371D02*
X216883571Y-75872371D01*
X217055000Y-75872371D02*
X217055000Y-75272371D01*
X217055000Y-75272371D02*
X216997857Y-75358085D01*
X216997857Y-75358085D02*
X216940714Y-75415228D01*
X216940714Y-75415228D02*
X216883571Y-75443800D01*
D12*
%TO.C,U1*%
X167075000Y-73756000D02*
X170075000Y-73756000D01*
X167075000Y-76976000D02*
X170075000Y-76976000D01*
X166735000Y-74006000D02*
X166255000Y-74006000D01*
X166735000Y-73526000D01*
X166735000Y-74006000D01*
G36*
X166735000Y-74006000D02*
G01*
X166255000Y-74006000D01*
X166735000Y-73526000D01*
X166735000Y-74006000D01*
G37*
D13*
%TO.C,J1*%
X189750000Y-69250000D02*
X203750000Y-69250000D01*
X189750000Y-71750000D02*
X189750000Y-69250000D01*
X190550000Y-73050000D02*
X202950000Y-73050000D01*
X203750000Y-69250000D02*
X203750000Y-71750000D01*
D14*
X202550000Y-68750000D02*
G75*
G02*
X202350000Y-68750000I-100000J0D01*
G01*
X202350000Y-68750000D02*
G75*
G02*
X202550000Y-68750000I100000J0D01*
G01*
D12*
%TO.C,C11*%
X170288748Y-95765000D02*
X170811252Y-95765000D01*
X170288748Y-97235000D02*
X170811252Y-97235000D01*
%TO.C,C7*%
X168311252Y-85765000D02*
X167788748Y-85765000D01*
X168311252Y-87235000D02*
X167788748Y-87235000D01*
%TO.C,R1*%
X209360436Y-76290000D02*
X213714564Y-76290000D01*
X209360436Y-79710000D02*
X213714564Y-79710000D01*
%TO.C,A1*%
X168740000Y-46390000D02*
X168740000Y-48880000D01*
X168740000Y-48880000D02*
X169653520Y-48880000D01*
X168740000Y-50227939D02*
X168740000Y-48880000D01*
X168740000Y-52155000D02*
X168740000Y-51152061D01*
X168740000Y-52490000D02*
X169656000Y-52490000D01*
X168740000Y-60290000D02*
X169656000Y-60290000D01*
X168740000Y-60625000D02*
X168740000Y-52155000D01*
X168740000Y-61627939D02*
X168740000Y-60625000D01*
X168740000Y-63900000D02*
X168740000Y-62552060D01*
X168740000Y-63900000D02*
X169653520Y-63900000D01*
X168740000Y-66390000D02*
X168740000Y-63900000D01*
X169160000Y-66969676D02*
X169160000Y-67480000D01*
X169160063Y-46120000D02*
X168803000Y-46120000D01*
X169160063Y-66660000D02*
X168803000Y-66660000D01*
X171280000Y-45780000D02*
X171700000Y-45780000D01*
X171280000Y-46120000D02*
X171700000Y-46120000D01*
X171280000Y-66660000D02*
X171700000Y-66660000D01*
X171280000Y-67000000D02*
X171280000Y-67480000D01*
X171280000Y-67000000D02*
X171700000Y-67000000D01*
X172044000Y-52490000D02*
X173260000Y-52490000D01*
X172044000Y-60290000D02*
X173260000Y-60290000D01*
X172046480Y-48880000D02*
X216653520Y-48880000D01*
X172046480Y-63900000D02*
X216653520Y-63900000D01*
X173260000Y-52786090D02*
X173260000Y-52490000D01*
X173260000Y-57636090D02*
X173260000Y-55143910D01*
X173260000Y-60290000D02*
X173260000Y-59993910D01*
X173820000Y-45780000D02*
X174240000Y-45780000D01*
X173820000Y-46120000D02*
X174240000Y-46120000D01*
X173820000Y-66660000D02*
X174240000Y-66660000D01*
X173820000Y-67000000D02*
X174240000Y-67000000D01*
X176360000Y-45780000D02*
X176780000Y-45780000D01*
X176360000Y-46120000D02*
X176780000Y-46120000D01*
X176360000Y-66660000D02*
X176780000Y-66660000D01*
X176360000Y-67000000D02*
X176780000Y-67000000D01*
X178900000Y-45780000D02*
X179320000Y-45780000D01*
X178900000Y-46120000D02*
X179320000Y-46120000D01*
X178900000Y-66660000D02*
X179320000Y-66660000D01*
X178900000Y-67000000D02*
X179320000Y-67000000D01*
X181440000Y-45780000D02*
X181860000Y-45780000D01*
X181440000Y-46120000D02*
X181860000Y-46120000D01*
X181440000Y-66660000D02*
X181860000Y-66660000D01*
X181440000Y-67000000D02*
X181860000Y-67000000D01*
X183980000Y-45780000D02*
X184400000Y-45780000D01*
X183980000Y-46120000D02*
X184400000Y-46120000D01*
X183980000Y-66660000D02*
X184400000Y-66660000D01*
X183980000Y-67000000D02*
X184400000Y-67000000D01*
X186520000Y-45780000D02*
X186940000Y-45780000D01*
X186520000Y-46120000D02*
X186940000Y-46120000D01*
X186520000Y-66660000D02*
X186940000Y-66660000D01*
X186520000Y-67000000D02*
X186940000Y-67000000D01*
X189060000Y-45780000D02*
X189480000Y-45780000D01*
X189060000Y-46120000D02*
X189480000Y-46120000D01*
X189060000Y-66660000D02*
X189480000Y-66660000D01*
X189060000Y-67000000D02*
X189480000Y-67000000D01*
X191600000Y-45780000D02*
X192020000Y-45780000D01*
X191600000Y-46120000D02*
X192020000Y-46120000D01*
X191600000Y-66660000D02*
X192020000Y-66660000D01*
X191600000Y-67000000D02*
X192020000Y-67000000D01*
X194140000Y-45780000D02*
X194560000Y-45780000D01*
X194140000Y-46120000D02*
X194560000Y-46120000D01*
X194140000Y-66660000D02*
X194560000Y-66660000D01*
X194140000Y-67000000D02*
X194560000Y-67000000D01*
X196680000Y-45780000D02*
X197100000Y-45780000D01*
X196680000Y-46120000D02*
X197100000Y-46120000D01*
X196680000Y-66660000D02*
X197100000Y-66660000D01*
X196680000Y-67000000D02*
X197100000Y-67000000D01*
X199220000Y-45780000D02*
X199640000Y-45780000D01*
X199220000Y-46120000D02*
X199640000Y-46120000D01*
X199220000Y-66660000D02*
X199640000Y-66660000D01*
X199220000Y-67000000D02*
X199640000Y-67000000D01*
X201760000Y-45780000D02*
X202180000Y-45780000D01*
X201760000Y-46120000D02*
X202180000Y-46120000D01*
X201760000Y-66660000D02*
X202180000Y-66660000D01*
X201760000Y-67000000D02*
X202180000Y-67000000D01*
X204300000Y-45780000D02*
X204720000Y-45780000D01*
X204300000Y-46120000D02*
X204720000Y-46120000D01*
X204300000Y-66660000D02*
X204720000Y-66660000D01*
X204300000Y-67000000D02*
X204720000Y-67000000D01*
X206840000Y-45780000D02*
X207260000Y-45780000D01*
X206840000Y-46120000D02*
X207260000Y-46120000D01*
X206840000Y-66660000D02*
X207260000Y-66660000D01*
X206840000Y-67000000D02*
X207260000Y-67000000D01*
X209380000Y-45780000D02*
X209800000Y-45780000D01*
X209380000Y-46120000D02*
X209800000Y-46120000D01*
X209380000Y-66660000D02*
X209800000Y-66660000D01*
X209380000Y-67000000D02*
X209800000Y-67000000D01*
X211920000Y-45780000D02*
X212340000Y-45780000D01*
X211920000Y-46120000D02*
X212340000Y-46120000D01*
X211920000Y-66660000D02*
X212340000Y-66660000D01*
X211920000Y-67000000D02*
X212340000Y-67000000D01*
X214460000Y-45780000D02*
X214880000Y-45780000D01*
X214460000Y-46120000D02*
X214880000Y-46120000D01*
X214460000Y-66660000D02*
X214880000Y-66660000D01*
X214460000Y-67000000D02*
X214880000Y-67000000D01*
X217000000Y-45780000D02*
X217420000Y-45780000D01*
X217000000Y-46120000D02*
X217420000Y-46120000D01*
X217000000Y-66660000D02*
X217420000Y-66660000D01*
X217000000Y-67000000D02*
X217420000Y-67000000D01*
X219046480Y-48880000D02*
X219960000Y-48880000D01*
X219046480Y-63900000D02*
X219960000Y-63900000D01*
X219539937Y-46120000D02*
X219897000Y-46120000D01*
X219539937Y-66660000D02*
X219897000Y-66660000D01*
X219960000Y-50227939D02*
X219960000Y-46390000D01*
X219960000Y-51152061D02*
X219960000Y-52790000D01*
X219960000Y-52790000D02*
X219960000Y-59990000D01*
X219960000Y-59990000D02*
X219960000Y-61627939D01*
X219960000Y-66390000D02*
X219960000Y-62552061D01*
X168740000Y-46390000D02*
G75*
G02*
X169160063Y-45810324I610000J0D01*
G01*
X169160000Y-66969676D02*
G75*
G02*
X168740000Y-66390000I190051J579692D01*
G01*
X219539937Y-45810324D02*
G75*
G02*
X219960069Y-46390000I-189837J-579676D01*
G01*
X219960000Y-66390000D02*
G75*
G02*
X219539937Y-66969676I-610002J1D01*
G01*
%TO.C,Q1*%
X165490000Y-90937500D02*
X165490000Y-90287500D01*
X165490000Y-90937500D02*
X165490000Y-91587500D01*
X168610000Y-90937500D02*
X168610000Y-89262500D01*
X168610000Y-90937500D02*
X168610000Y-91587500D01*
%TO.C,C5*%
X179811252Y-78265000D02*
X179288748Y-78265000D01*
X179811252Y-79735000D02*
X179288748Y-79735000D01*
D15*
%TO.C,SRP3012TA-100M1*%
X170200400Y-83328800D02*
X170200400Y-82531240D01*
X170200400Y-80468760D02*
X170200400Y-79671200D01*
X170200400Y-79671200D02*
X166238000Y-79671200D01*
X166238000Y-83328800D02*
X170200400Y-83328800D01*
X166238000Y-82531240D02*
X166238000Y-83328800D01*
X166238000Y-79671200D02*
X166238000Y-80468760D01*
D12*
%TO.C,C3*%
X171235000Y-70238748D02*
X171235000Y-70761252D01*
X169765000Y-70238748D02*
X169765000Y-70761252D01*
%TO.C,R3*%
X197437742Y-42477500D02*
X197912258Y-42477500D01*
X197437742Y-43522500D02*
X197912258Y-43522500D01*
%TO.C,R2*%
X170937742Y-89977500D02*
X171412258Y-89977500D01*
X170937742Y-91022500D02*
X171412258Y-91022500D01*
%TO.C,R4*%
X206912258Y-43522500D02*
X206437742Y-43522500D01*
X206912258Y-42477500D02*
X206437742Y-42477500D01*
%TO.C,CR4*%
X175050000Y-100860000D02*
X176950000Y-100860000D01*
X175050000Y-100860000D02*
X175050000Y-97200000D01*
X176950000Y-100860000D02*
X176950000Y-97200000D01*
%TO.C,Q3*%
X208062500Y-69440000D02*
X206387500Y-69440000D01*
X208062500Y-69440000D02*
X208712500Y-69440000D01*
X208062500Y-72560000D02*
X207412500Y-72560000D01*
X208062500Y-72560000D02*
X208712500Y-72560000D01*
%TO.C,C12*%
X221311252Y-91285000D02*
X220788748Y-91285000D01*
X221311252Y-89815000D02*
X220788748Y-89815000D01*
%TO.C,CR1*%
X176160000Y-78550000D02*
X172500000Y-78550000D01*
X176160000Y-80450000D02*
X172500000Y-80450000D01*
X176160000Y-80450000D02*
X176160000Y-78550000D01*
%TO.C,C1*%
X180735000Y-70238748D02*
X180735000Y-70761252D01*
X179265000Y-70238748D02*
X179265000Y-70761252D01*
%TO.C,C8*%
X185735000Y-70238748D02*
X185735000Y-70761252D01*
X184265000Y-70238748D02*
X184265000Y-70761252D01*
%TO.C,C4*%
X175685000Y-70238748D02*
X175685000Y-70761252D01*
X174215000Y-70238748D02*
X174215000Y-70761252D01*
%TO.C,CR2*%
X165240000Y-102050000D02*
X165240000Y-103950000D01*
X165240000Y-102050000D02*
X168900000Y-102050000D01*
X165240000Y-103950000D02*
X168900000Y-103950000D01*
%TO.C,C6*%
X175265000Y-91688748D02*
X175265000Y-92211252D01*
X176735000Y-91688748D02*
X176735000Y-92211252D01*
%TO.C,C14*%
X172811252Y-103735000D02*
X172288748Y-103735000D01*
X172811252Y-102265000D02*
X172288748Y-102265000D01*
%TO.C,C13*%
X212811252Y-89765000D02*
X212288748Y-89765000D01*
X212811252Y-91235000D02*
X212288748Y-91235000D01*
%TO.C,C2*%
X165315000Y-70238748D02*
X165315000Y-70761252D01*
X166785000Y-70238748D02*
X166785000Y-70761252D01*
D15*
%TO.C,SW1*%
X215875800Y-82842639D02*
X215875800Y-85185898D01*
X216387640Y-87134799D02*
X221612360Y-87134799D01*
X221612360Y-80886399D02*
X216807708Y-80886399D01*
X222124200Y-85185898D02*
X222124200Y-82835301D01*
D12*
%TO.C,C9*%
X174584420Y-85990000D02*
X174865580Y-85990000D01*
X174584420Y-87010000D02*
X174865580Y-87010000D01*
%TO.C,J3*%
X217436000Y-69698000D02*
X217436000Y-76429000D01*
X217436000Y-76429000D02*
X223024000Y-76429000D01*
X223024000Y-69698000D02*
X217436000Y-69698000D01*
X223024000Y-75540000D02*
X217436000Y-75540000D01*
X223024000Y-76429000D02*
X223024000Y-69698000D01*
%TD*%
M02*
