%TF.GenerationSoftware,KiCad,Pcbnew,9.0.7*%
%TF.CreationDate,2026-02-07T14:22:02-05:00*%
%TF.ProjectId,witharduinoandnewcomps,77697468-6172-4647-9569-6e6f616e646e,rev?*%
%TF.SameCoordinates,Original*%
%TF.FileFunction,Soldermask,Top*%
%TF.FilePolarity,Negative*%
%FSLAX46Y46*%
G04 Gerber Fmt 4.6, Leading zero omitted, Abs format (unit mm)*
G04 Created by KiCad (PCBNEW 9.0.7) date 2026-02-07 14:22:02*
%MOMM*%
%LPD*%
G01*
G04 APERTURE LIST*
G04 Aperture macros list*
%AMRoundRect*
0 Rectangle with rounded corners*
0 $1 Rounding radius*
0 $2 $3 $4 $5 $6 $7 $8 $9 X,Y pos of 4 corners*
0 Add a 4 corners polygon primitive as box body*
4,1,4,$2,$3,$4,$5,$6,$7,$8,$9,$2,$3,0*
0 Add four circle primitives for the rounded corners*
1,1,$1+$1,$2,$3*
1,1,$1+$1,$4,$5*
1,1,$1+$1,$6,$7*
1,1,$1+$1,$8,$9*
0 Add four rect primitives between the rounded corners*
20,1,$1+$1,$2,$3,$4,$5,0*
20,1,$1+$1,$4,$5,$6,$7,0*
20,1,$1+$1,$6,$7,$8,$9,0*
20,1,$1+$1,$8,$9,$2,$3,0*%
%AMFreePoly0*
4,1,37,0.800000,0.796148,0.878414,0.796148,1.032228,0.765552,1.177117,0.705537,1.307515,0.618408,1.418408,0.507515,1.505537,0.377117,1.565552,0.232228,1.596148,0.078414,1.596148,-0.078414,1.565552,-0.232228,1.505537,-0.377117,1.418408,-0.507515,1.307515,-0.618408,1.177117,-0.705537,1.032228,-0.765552,0.878414,-0.796148,0.800000,-0.796148,0.800000,-0.800000,-1.400000,-0.800000,
-1.403843,-0.796157,-1.439018,-0.796157,-1.511114,-0.766294,-1.566294,-0.711114,-1.596157,-0.639018,-1.596157,-0.603843,-1.600000,-0.600000,-1.600000,0.600000,-1.596157,0.603843,-1.596157,0.639018,-1.566294,0.711114,-1.511114,0.766294,-1.439018,0.796157,-1.403843,0.796157,-1.400000,0.800000,0.800000,0.800000,0.800000,0.796148,0.800000,0.796148,$1*%
%AMFreePoly1*
4,1,37,1.403843,0.796157,1.439018,0.796157,1.511114,0.766294,1.566294,0.711114,1.596157,0.639018,1.596157,0.603843,1.600000,0.600000,1.600000,-0.600000,1.596157,-0.603843,1.596157,-0.639018,1.566294,-0.711114,1.511114,-0.766294,1.439018,-0.796157,1.403843,-0.796157,1.400000,-0.800000,-0.800000,-0.800000,-0.800000,-0.796148,-0.878414,-0.796148,-1.032228,-0.765552,-1.177117,-0.705537,
-1.307515,-0.618408,-1.418408,-0.507515,-1.505537,-0.377117,-1.565552,-0.232228,-1.596148,-0.078414,-1.596148,0.078414,-1.565552,0.232228,-1.505537,0.377117,-1.418408,0.507515,-1.307515,0.618408,-1.177117,0.705537,-1.032228,0.765552,-0.878414,0.796148,-0.800000,0.796148,-0.800000,0.800000,1.400000,0.800000,1.403843,0.796157,1.403843,0.796157,$1*%
%AMFreePoly2*
4,1,37,0.603843,0.796157,0.639018,0.796157,0.711114,0.766294,0.766294,0.711114,0.796157,0.639018,0.796157,0.603843,0.800000,0.600000,0.800000,-0.600000,0.796157,-0.603843,0.796157,-0.639018,0.766294,-0.711114,0.711114,-0.766294,0.639018,-0.796157,0.603843,-0.796157,0.600000,-0.800000,0.000000,-0.800000,0.000000,-0.796148,-0.078414,-0.796148,-0.232228,-0.765552,-0.377117,-0.705537,
-0.507515,-0.618408,-0.618408,-0.507515,-0.705537,-0.377117,-0.765552,-0.232228,-0.796148,-0.078414,-0.796148,0.078414,-0.765552,0.232228,-0.705537,0.377117,-0.618408,0.507515,-0.507515,0.618408,-0.377117,0.705537,-0.232228,0.765552,-0.078414,0.796148,0.000000,0.796148,0.000000,0.800000,0.600000,0.800000,0.603843,0.796157,0.603843,0.796157,$1*%
%AMFreePoly3*
4,1,37,0.000000,0.796148,0.078414,0.796148,0.232228,0.765552,0.377117,0.705537,0.507515,0.618408,0.618408,0.507515,0.705537,0.377117,0.765552,0.232228,0.796148,0.078414,0.796148,-0.078414,0.765552,-0.232228,0.705537,-0.377117,0.618408,-0.507515,0.507515,-0.618408,0.377117,-0.705537,0.232228,-0.765552,0.078414,-0.796148,0.000000,-0.796148,0.000000,-0.800000,-0.600000,-0.800000,
-0.603843,-0.796157,-0.639018,-0.796157,-0.711114,-0.766294,-0.766294,-0.711114,-0.796157,-0.639018,-0.796157,-0.603843,-0.800000,-0.600000,-0.800000,0.600000,-0.796157,0.603843,-0.796157,0.639018,-0.766294,0.711114,-0.711114,0.766294,-0.639018,0.796157,-0.603843,0.796157,-0.600000,0.800000,0.000000,0.800000,0.000000,0.796148,0.000000,0.796148,$1*%
G04 Aperture macros list end*
%ADD10R,0.630000X0.450000*%
%ADD11R,1.700000X2.600000*%
%ADD12RoundRect,0.050000X-0.150000X-0.400000X0.150000X-0.400000X0.150000X0.400000X-0.150000X0.400000X0*%
%ADD13RoundRect,0.102000X-0.200000X-0.400000X0.200000X-0.400000X0.200000X0.400000X-0.200000X0.400000X0*%
%ADD14RoundRect,0.250000X-0.250000X-0.475000X0.250000X-0.475000X0.250000X0.475000X-0.250000X0.475000X0*%
%ADD15RoundRect,0.250000X0.250000X0.475000X-0.250000X0.475000X-0.250000X-0.475000X0.250000X-0.475000X0*%
%ADD16RoundRect,0.250000X-0.362500X-1.425000X0.362500X-1.425000X0.362500X1.425000X-0.362500X1.425000X0*%
%ADD17C,2.200000*%
%ADD18C,1.850000*%
%ADD19FreePoly0,90.000000*%
%ADD20RoundRect,0.200000X0.600000X-0.600000X0.600000X0.600000X-0.600000X0.600000X-0.600000X-0.600000X0*%
%ADD21RoundRect,0.800000X0.000010X-0.800000X0.000010X0.800000X-0.000010X0.800000X-0.000010X-0.800000X0*%
%ADD22C,1.600000*%
%ADD23FreePoly1,90.000000*%
%ADD24FreePoly2,90.000000*%
%ADD25FreePoly3,90.000000*%
%ADD26RoundRect,0.150000X-0.150000X0.587500X-0.150000X-0.587500X0.150000X-0.587500X0.150000X0.587500X0*%
%ADD27R,1.574800X1.397000*%
%ADD28RoundRect,0.250000X-0.475000X0.250000X-0.475000X-0.250000X0.475000X-0.250000X0.475000X0.250000X0*%
%ADD29RoundRect,0.200000X-0.200000X-0.275000X0.200000X-0.275000X0.200000X0.275000X-0.200000X0.275000X0*%
%ADD30RoundRect,0.200000X0.200000X0.275000X-0.200000X0.275000X-0.200000X-0.275000X0.200000X-0.275000X0*%
%ADD31R,1.200000X1.200000*%
%ADD32RoundRect,0.150000X-0.587500X-0.150000X0.587500X-0.150000X0.587500X0.150000X-0.587500X0.150000X0*%
%ADD33R,1.498600X1.498600*%
%ADD34C,1.498600*%
%ADD35RoundRect,0.225000X-0.225000X-0.250000X0.225000X-0.250000X0.225000X0.250000X-0.225000X0.250000X0*%
%ADD36R,2.000000X2.000000*%
%ADD37C,2.000000*%
G04 APERTURE END LIST*
D10*
%TO.C,U1*%
X167235000Y-74416000D03*
X167235000Y-75366000D03*
X167235000Y-76316000D03*
X169915000Y-76316000D03*
X169915000Y-75366000D03*
X169915000Y-74416000D03*
D11*
X168575000Y-75366000D03*
%TD*%
D12*
%TO.C,J1*%
X202500000Y-70000000D03*
X202000000Y-70000000D03*
X201500000Y-70000000D03*
X201000000Y-70000000D03*
X200500000Y-70000000D03*
X200000000Y-70000000D03*
X199500000Y-70000000D03*
X199000000Y-70000000D03*
X198500000Y-70000000D03*
X198000000Y-70000000D03*
X197500000Y-70000000D03*
X197000000Y-70000000D03*
X196500000Y-70000000D03*
X196000000Y-70000000D03*
X195500000Y-70000000D03*
X195000000Y-70000000D03*
X194500000Y-70000000D03*
X194000000Y-70000000D03*
X193500000Y-70000000D03*
X193000000Y-70000000D03*
X192500000Y-70000000D03*
X192000000Y-70000000D03*
X191500000Y-70000000D03*
X191000000Y-70000000D03*
D13*
X190000000Y-72500000D03*
X203500000Y-72500000D03*
%TD*%
D14*
%TO.C,C11*%
X169600000Y-96500000D03*
X171500000Y-96500000D03*
%TD*%
D15*
%TO.C,C7*%
X169000000Y-86500000D03*
X167100000Y-86500000D03*
%TD*%
D16*
%TO.C,R1*%
X208575000Y-78000000D03*
X214500000Y-78000000D03*
%TD*%
D17*
%TO.C,A1*%
X170350000Y-59115000D03*
D18*
X173380000Y-58815000D03*
X173380000Y-53965000D03*
D17*
X170350000Y-53665000D03*
D19*
X170220000Y-66080000D03*
D20*
X170220000Y-65280000D03*
D21*
X172760000Y-66080000D03*
D22*
X172760000Y-65280000D03*
D23*
X175300000Y-66080000D03*
D24*
X175300000Y-65280000D03*
D21*
X177840000Y-66080000D03*
D22*
X177840000Y-65280000D03*
D21*
X180380000Y-66080000D03*
D22*
X180380000Y-65280000D03*
D21*
X182920000Y-66080000D03*
D22*
X182920000Y-65280000D03*
D21*
X185460000Y-66080000D03*
D22*
X185460000Y-65280000D03*
D23*
X188000000Y-66080000D03*
D24*
X188000000Y-65280000D03*
D21*
X190540000Y-66080000D03*
D22*
X190540000Y-65280000D03*
D21*
X193080000Y-66080000D03*
D22*
X193080000Y-65280000D03*
D21*
X195620000Y-66080000D03*
D22*
X195620000Y-65280000D03*
D21*
X198160000Y-66080000D03*
D22*
X198160000Y-65280000D03*
D23*
X200700000Y-66080000D03*
D24*
X200700000Y-65280000D03*
D21*
X203240000Y-66080000D03*
D22*
X203240000Y-65280000D03*
D21*
X205780000Y-66080000D03*
D22*
X205780000Y-65280000D03*
D21*
X208320000Y-66080000D03*
D22*
X208320000Y-65280000D03*
D21*
X210860000Y-66080000D03*
D22*
X210860000Y-65280000D03*
D23*
X213400000Y-66080000D03*
D24*
X213400000Y-65280000D03*
D21*
X215940000Y-66080000D03*
D22*
X215940000Y-65280000D03*
D21*
X218480000Y-66080000D03*
D22*
X218480000Y-65280000D03*
X218480000Y-47500000D03*
D21*
X218480000Y-46700000D03*
D22*
X215940000Y-47500000D03*
D21*
X215940000Y-46700000D03*
D25*
X213400000Y-47500000D03*
D19*
X213400000Y-46700000D03*
D22*
X210860000Y-47500000D03*
D21*
X210860000Y-46700000D03*
D22*
X208320000Y-47500000D03*
D21*
X208320000Y-46700000D03*
D22*
X205780000Y-47500000D03*
D21*
X205780000Y-46700000D03*
D22*
X203240000Y-47500000D03*
D21*
X203240000Y-46700000D03*
D25*
X200700000Y-47500000D03*
D19*
X200700000Y-46700000D03*
D22*
X198160000Y-47500000D03*
D21*
X198160000Y-46700000D03*
D22*
X195620000Y-47500000D03*
D21*
X195620000Y-46700000D03*
D22*
X193080000Y-47500000D03*
D21*
X193080000Y-46700000D03*
D22*
X190540000Y-47500000D03*
D21*
X190540000Y-46700000D03*
D25*
X188000000Y-47500000D03*
D19*
X188000000Y-46700000D03*
D22*
X185460000Y-47500000D03*
D21*
X185460000Y-46700000D03*
D22*
X182920000Y-47500000D03*
D21*
X182920000Y-46700000D03*
D22*
X180380000Y-47500000D03*
D21*
X180380000Y-46700000D03*
D22*
X177840000Y-47500000D03*
D21*
X177840000Y-46700000D03*
D25*
X175300000Y-47500000D03*
D19*
X175300000Y-46700000D03*
D22*
X172760000Y-47500000D03*
D21*
X172760000Y-46700000D03*
D22*
X170220000Y-47500000D03*
D21*
X170220000Y-46700000D03*
%TD*%
D26*
%TO.C,Q1*%
X168000000Y-90000000D03*
X166100000Y-90000000D03*
X167050000Y-91875000D03*
%TD*%
D15*
%TO.C,C5*%
X180500000Y-79000000D03*
X178600000Y-79000000D03*
%TD*%
D27*
%TO.C,SRP3012TA-100M1*%
X167000000Y-81500000D03*
X169438400Y-81500000D03*
%TD*%
D28*
%TO.C,C3*%
X170500000Y-69550000D03*
X170500000Y-71450000D03*
%TD*%
D29*
%TO.C,R3*%
X196850000Y-43000000D03*
X198500000Y-43000000D03*
%TD*%
%TO.C,R2*%
X170350000Y-90500000D03*
X172000000Y-90500000D03*
%TD*%
D30*
%TO.C,R4*%
X207500000Y-43000000D03*
X205850000Y-43000000D03*
%TD*%
D31*
%TO.C,CR4*%
X176000000Y-100000000D03*
X176000000Y-97200000D03*
%TD*%
D32*
%TO.C,Q3*%
X207125000Y-70050000D03*
X207125000Y-71950000D03*
X209000000Y-71000000D03*
%TD*%
D15*
%TO.C,C12*%
X222000000Y-90550000D03*
X220100000Y-90550000D03*
%TD*%
D31*
%TO.C,CR1*%
X175300000Y-79500000D03*
X172500000Y-79500000D03*
%TD*%
D28*
%TO.C,C1*%
X180000000Y-69550000D03*
X180000000Y-71450000D03*
%TD*%
%TO.C,C8*%
X185000000Y-69550000D03*
X185000000Y-71450000D03*
%TD*%
%TO.C,C4*%
X174950000Y-69550000D03*
X174950000Y-71450000D03*
%TD*%
D31*
%TO.C,CR2*%
X166100000Y-103000000D03*
X168900000Y-103000000D03*
%TD*%
D28*
%TO.C,C6*%
X176000000Y-91000000D03*
X176000000Y-92900000D03*
%TD*%
D15*
%TO.C,C14*%
X173500000Y-103000000D03*
X171600000Y-103000000D03*
%TD*%
%TO.C,C13*%
X213500000Y-90500000D03*
X211600000Y-90500000D03*
%TD*%
D28*
%TO.C,C2*%
X166050000Y-69550000D03*
X166050000Y-71450000D03*
%TD*%
D33*
%TO.C,SW1*%
X215749999Y-81760599D03*
D34*
X222250000Y-81760599D03*
X215749999Y-86260600D03*
X222250000Y-86260600D03*
%TD*%
D35*
%TO.C,C9*%
X173950000Y-86500000D03*
X175500000Y-86500000D03*
%TD*%
D36*
%TO.C,J3*%
X218960000Y-73000000D03*
D37*
X221500000Y-73000000D03*
%TD*%
M02*
