%TF.GenerationSoftware,KiCad,Pcbnew,9.0.4*%
%TF.CreationDate,2026-01-31T13:20:53-05:00*%
%TF.ProjectId,ConnectedRedoJan24BatteryDisplaySchem,436f6e6e-6563-4746-9564-5265646f4a61,rev?*%
%TF.SameCoordinates,Original*%
%TF.FileFunction,Legend,Top*%
%TF.FilePolarity,Positive*%
%FSLAX46Y46*%
G04 Gerber Fmt 4.6, Leading zero omitted, Abs format (unit mm)*
G04 Created by KiCad (PCBNEW 9.0.4) date 2026-01-31 13:20:53*
%MOMM*%
%LPD*%
G01*
G04 APERTURE LIST*
%ADD10C,0.150000*%
%ADD11C,0.100000*%
%ADD12C,0.120000*%
%ADD13C,0.200000*%
%ADD14C,0.127000*%
%ADD15C,0.152400*%
G04 APERTURE END LIST*
D10*
X146836779Y-99369819D02*
X146836779Y-98369819D01*
X146836779Y-98846009D02*
X147408207Y-98846009D01*
X147408207Y-99369819D02*
X147408207Y-98369819D01*
X148265350Y-99322200D02*
X148170112Y-99369819D01*
X148170112Y-99369819D02*
X147979636Y-99369819D01*
X147979636Y-99369819D02*
X147884398Y-99322200D01*
X147884398Y-99322200D02*
X147836779Y-99226961D01*
X147836779Y-99226961D02*
X147836779Y-98846009D01*
X147836779Y-98846009D02*
X147884398Y-98750771D01*
X147884398Y-98750771D02*
X147979636Y-98703152D01*
X147979636Y-98703152D02*
X148170112Y-98703152D01*
X148170112Y-98703152D02*
X148265350Y-98750771D01*
X148265350Y-98750771D02*
X148312969Y-98846009D01*
X148312969Y-98846009D02*
X148312969Y-98941247D01*
X148312969Y-98941247D02*
X147836779Y-99036485D01*
X148884398Y-99369819D02*
X148789160Y-99322200D01*
X148789160Y-99322200D02*
X148741541Y-99226961D01*
X148741541Y-99226961D02*
X148741541Y-98369819D01*
X149646303Y-99322200D02*
X149551065Y-99369819D01*
X149551065Y-99369819D02*
X149360589Y-99369819D01*
X149360589Y-99369819D02*
X149265351Y-99322200D01*
X149265351Y-99322200D02*
X149217732Y-99226961D01*
X149217732Y-99226961D02*
X149217732Y-98846009D01*
X149217732Y-98846009D02*
X149265351Y-98750771D01*
X149265351Y-98750771D02*
X149360589Y-98703152D01*
X149360589Y-98703152D02*
X149551065Y-98703152D01*
X149551065Y-98703152D02*
X149646303Y-98750771D01*
X149646303Y-98750771D02*
X149693922Y-98846009D01*
X149693922Y-98846009D02*
X149693922Y-98941247D01*
X149693922Y-98941247D02*
X149217732Y-99036485D01*
X150122494Y-98703152D02*
X150122494Y-99369819D01*
X150122494Y-98798390D02*
X150170113Y-98750771D01*
X150170113Y-98750771D02*
X150265351Y-98703152D01*
X150265351Y-98703152D02*
X150408208Y-98703152D01*
X150408208Y-98703152D02*
X150503446Y-98750771D01*
X150503446Y-98750771D02*
X150551065Y-98846009D01*
X150551065Y-98846009D02*
X150551065Y-99369819D01*
X152074875Y-99750771D02*
X152027256Y-99703152D01*
X152027256Y-99703152D02*
X151932018Y-99560295D01*
X151932018Y-99560295D02*
X151884399Y-99465057D01*
X151884399Y-99465057D02*
X151836780Y-99322200D01*
X151836780Y-99322200D02*
X151789161Y-99084104D01*
X151789161Y-99084104D02*
X151789161Y-98893628D01*
X151789161Y-98893628D02*
X151836780Y-98655533D01*
X151836780Y-98655533D02*
X151884399Y-98512676D01*
X151884399Y-98512676D02*
X151932018Y-98417438D01*
X151932018Y-98417438D02*
X152027256Y-98274580D01*
X152027256Y-98274580D02*
X152074875Y-98226961D01*
X152408209Y-98465057D02*
X152455828Y-98417438D01*
X152455828Y-98417438D02*
X152551066Y-98369819D01*
X152551066Y-98369819D02*
X152789161Y-98369819D01*
X152789161Y-98369819D02*
X152884399Y-98417438D01*
X152884399Y-98417438D02*
X152932018Y-98465057D01*
X152932018Y-98465057D02*
X152979637Y-98560295D01*
X152979637Y-98560295D02*
X152979637Y-98655533D01*
X152979637Y-98655533D02*
X152932018Y-98798390D01*
X152932018Y-98798390D02*
X152360590Y-99369819D01*
X152360590Y-99369819D02*
X152979637Y-99369819D01*
X153598685Y-98369819D02*
X153693923Y-98369819D01*
X153693923Y-98369819D02*
X153789161Y-98417438D01*
X153789161Y-98417438D02*
X153836780Y-98465057D01*
X153836780Y-98465057D02*
X153884399Y-98560295D01*
X153884399Y-98560295D02*
X153932018Y-98750771D01*
X153932018Y-98750771D02*
X153932018Y-98988866D01*
X153932018Y-98988866D02*
X153884399Y-99179342D01*
X153884399Y-99179342D02*
X153836780Y-99274580D01*
X153836780Y-99274580D02*
X153789161Y-99322200D01*
X153789161Y-99322200D02*
X153693923Y-99369819D01*
X153693923Y-99369819D02*
X153598685Y-99369819D01*
X153598685Y-99369819D02*
X153503447Y-99322200D01*
X153503447Y-99322200D02*
X153455828Y-99274580D01*
X153455828Y-99274580D02*
X153408209Y-99179342D01*
X153408209Y-99179342D02*
X153360590Y-98988866D01*
X153360590Y-98988866D02*
X153360590Y-98750771D01*
X153360590Y-98750771D02*
X153408209Y-98560295D01*
X153408209Y-98560295D02*
X153455828Y-98465057D01*
X153455828Y-98465057D02*
X153503447Y-98417438D01*
X153503447Y-98417438D02*
X153598685Y-98369819D01*
X154312971Y-98465057D02*
X154360590Y-98417438D01*
X154360590Y-98417438D02*
X154455828Y-98369819D01*
X154455828Y-98369819D02*
X154693923Y-98369819D01*
X154693923Y-98369819D02*
X154789161Y-98417438D01*
X154789161Y-98417438D02*
X154836780Y-98465057D01*
X154836780Y-98465057D02*
X154884399Y-98560295D01*
X154884399Y-98560295D02*
X154884399Y-98655533D01*
X154884399Y-98655533D02*
X154836780Y-98798390D01*
X154836780Y-98798390D02*
X154265352Y-99369819D01*
X154265352Y-99369819D02*
X154884399Y-99369819D01*
X155741542Y-98369819D02*
X155551066Y-98369819D01*
X155551066Y-98369819D02*
X155455828Y-98417438D01*
X155455828Y-98417438D02*
X155408209Y-98465057D01*
X155408209Y-98465057D02*
X155312971Y-98607914D01*
X155312971Y-98607914D02*
X155265352Y-98798390D01*
X155265352Y-98798390D02*
X155265352Y-99179342D01*
X155265352Y-99179342D02*
X155312971Y-99274580D01*
X155312971Y-99274580D02*
X155360590Y-99322200D01*
X155360590Y-99322200D02*
X155455828Y-99369819D01*
X155455828Y-99369819D02*
X155646304Y-99369819D01*
X155646304Y-99369819D02*
X155741542Y-99322200D01*
X155741542Y-99322200D02*
X155789161Y-99274580D01*
X155789161Y-99274580D02*
X155836780Y-99179342D01*
X155836780Y-99179342D02*
X155836780Y-98941247D01*
X155836780Y-98941247D02*
X155789161Y-98846009D01*
X155789161Y-98846009D02*
X155741542Y-98798390D01*
X155741542Y-98798390D02*
X155646304Y-98750771D01*
X155646304Y-98750771D02*
X155455828Y-98750771D01*
X155455828Y-98750771D02*
X155360590Y-98798390D01*
X155360590Y-98798390D02*
X155312971Y-98846009D01*
X155312971Y-98846009D02*
X155265352Y-98941247D01*
X156170114Y-99750771D02*
X156217733Y-99703152D01*
X156217733Y-99703152D02*
X156312971Y-99560295D01*
X156312971Y-99560295D02*
X156360590Y-99465057D01*
X156360590Y-99465057D02*
X156408209Y-99322200D01*
X156408209Y-99322200D02*
X156455828Y-99084104D01*
X156455828Y-99084104D02*
X156455828Y-98893628D01*
X156455828Y-98893628D02*
X156408209Y-98655533D01*
X156408209Y-98655533D02*
X156360590Y-98512676D01*
X156360590Y-98512676D02*
X156312971Y-98417438D01*
X156312971Y-98417438D02*
X156217733Y-98274580D01*
X156217733Y-98274580D02*
X156170114Y-98226961D01*
D11*
X186500000Y-72500000D02*
X194000000Y-72500000D01*
X183683312Y-43634990D02*
X183607122Y-43596895D01*
X183607122Y-43596895D02*
X183492836Y-43596895D01*
X183492836Y-43596895D02*
X183378550Y-43634990D01*
X183378550Y-43634990D02*
X183302360Y-43711180D01*
X183302360Y-43711180D02*
X183264265Y-43787371D01*
X183264265Y-43787371D02*
X183226169Y-43939752D01*
X183226169Y-43939752D02*
X183226169Y-44054038D01*
X183226169Y-44054038D02*
X183264265Y-44206419D01*
X183264265Y-44206419D02*
X183302360Y-44282609D01*
X183302360Y-44282609D02*
X183378550Y-44358800D01*
X183378550Y-44358800D02*
X183492836Y-44396895D01*
X183492836Y-44396895D02*
X183569027Y-44396895D01*
X183569027Y-44396895D02*
X183683312Y-44358800D01*
X183683312Y-44358800D02*
X183721408Y-44320704D01*
X183721408Y-44320704D02*
X183721408Y-44054038D01*
X183721408Y-44054038D02*
X183569027Y-44054038D01*
X184064265Y-44396895D02*
X184064265Y-43596895D01*
X184064265Y-43596895D02*
X184521408Y-44396895D01*
X184521408Y-44396895D02*
X184521408Y-43596895D01*
X184902360Y-44396895D02*
X184902360Y-43596895D01*
X184902360Y-43596895D02*
X185092836Y-43596895D01*
X185092836Y-43596895D02*
X185207122Y-43634990D01*
X185207122Y-43634990D02*
X185283312Y-43711180D01*
X185283312Y-43711180D02*
X185321407Y-43787371D01*
X185321407Y-43787371D02*
X185359503Y-43939752D01*
X185359503Y-43939752D02*
X185359503Y-44054038D01*
X185359503Y-44054038D02*
X185321407Y-44206419D01*
X185321407Y-44206419D02*
X185283312Y-44282609D01*
X185283312Y-44282609D02*
X185207122Y-44358800D01*
X185207122Y-44358800D02*
X185092836Y-44396895D01*
X185092836Y-44396895D02*
X184902360Y-44396895D01*
X180889312Y-44396895D02*
X180432169Y-44396895D01*
X180660741Y-44396895D02*
X180660741Y-43596895D01*
X180660741Y-43596895D02*
X180584550Y-43711180D01*
X180584550Y-43711180D02*
X180508360Y-43787371D01*
X180508360Y-43787371D02*
X180432169Y-43825466D01*
X181194074Y-43673085D02*
X181232170Y-43634990D01*
X181232170Y-43634990D02*
X181308360Y-43596895D01*
X181308360Y-43596895D02*
X181498836Y-43596895D01*
X181498836Y-43596895D02*
X181575027Y-43634990D01*
X181575027Y-43634990D02*
X181613122Y-43673085D01*
X181613122Y-43673085D02*
X181651217Y-43749276D01*
X181651217Y-43749276D02*
X181651217Y-43825466D01*
X181651217Y-43825466D02*
X181613122Y-43939752D01*
X181613122Y-43939752D02*
X181155979Y-44396895D01*
X181155979Y-44396895D02*
X181651217Y-44396895D01*
X181879789Y-43596895D02*
X182146456Y-44396895D01*
X182146456Y-44396895D02*
X182413122Y-43596895D01*
X128500000Y-87500000D02*
X128500000Y-57500000D01*
X186500000Y-57500000D02*
X186500000Y-87500000D01*
X186500000Y-87500000D02*
X128500000Y-87500000D01*
X128500000Y-57500000D02*
X186500000Y-57500000D01*
X182788704Y-99633332D02*
X182826800Y-99671428D01*
X182826800Y-99671428D02*
X182864895Y-99785713D01*
X182864895Y-99785713D02*
X182864895Y-99861904D01*
X182864895Y-99861904D02*
X182826800Y-99976190D01*
X182826800Y-99976190D02*
X182750609Y-100052380D01*
X182750609Y-100052380D02*
X182674419Y-100090475D01*
X182674419Y-100090475D02*
X182522038Y-100128571D01*
X182522038Y-100128571D02*
X182407752Y-100128571D01*
X182407752Y-100128571D02*
X182255371Y-100090475D01*
X182255371Y-100090475D02*
X182179180Y-100052380D01*
X182179180Y-100052380D02*
X182102990Y-99976190D01*
X182102990Y-99976190D02*
X182064895Y-99861904D01*
X182064895Y-99861904D02*
X182064895Y-99785713D01*
X182064895Y-99785713D02*
X182102990Y-99671428D01*
X182102990Y-99671428D02*
X182141085Y-99633332D01*
X182064895Y-99366666D02*
X182064895Y-98871428D01*
X182064895Y-98871428D02*
X182369657Y-99138094D01*
X182369657Y-99138094D02*
X182369657Y-99023809D01*
X182369657Y-99023809D02*
X182407752Y-98947618D01*
X182407752Y-98947618D02*
X182445847Y-98909523D01*
X182445847Y-98909523D02*
X182522038Y-98871428D01*
X182522038Y-98871428D02*
X182712514Y-98871428D01*
X182712514Y-98871428D02*
X182788704Y-98909523D01*
X182788704Y-98909523D02*
X182826800Y-98947618D01*
X182826800Y-98947618D02*
X182864895Y-99023809D01*
X182864895Y-99023809D02*
X182864895Y-99252380D01*
X182864895Y-99252380D02*
X182826800Y-99328571D01*
X182826800Y-99328571D02*
X182788704Y-99366666D01*
X169144667Y-54364895D02*
X168878000Y-53983942D01*
X168687524Y-54364895D02*
X168687524Y-53564895D01*
X168687524Y-53564895D02*
X168992286Y-53564895D01*
X168992286Y-53564895D02*
X169068476Y-53602990D01*
X169068476Y-53602990D02*
X169106571Y-53641085D01*
X169106571Y-53641085D02*
X169144667Y-53717276D01*
X169144667Y-53717276D02*
X169144667Y-53831561D01*
X169144667Y-53831561D02*
X169106571Y-53907752D01*
X169106571Y-53907752D02*
X169068476Y-53945847D01*
X169068476Y-53945847D02*
X168992286Y-53983942D01*
X168992286Y-53983942D02*
X168687524Y-53983942D01*
X169411333Y-53564895D02*
X169944667Y-53564895D01*
X169944667Y-53564895D02*
X169601809Y-54364895D01*
X190518704Y-83064285D02*
X190556800Y-83102381D01*
X190556800Y-83102381D02*
X190594895Y-83216666D01*
X190594895Y-83216666D02*
X190594895Y-83292857D01*
X190594895Y-83292857D02*
X190556800Y-83407143D01*
X190556800Y-83407143D02*
X190480609Y-83483333D01*
X190480609Y-83483333D02*
X190404419Y-83521428D01*
X190404419Y-83521428D02*
X190252038Y-83559524D01*
X190252038Y-83559524D02*
X190137752Y-83559524D01*
X190137752Y-83559524D02*
X189985371Y-83521428D01*
X189985371Y-83521428D02*
X189909180Y-83483333D01*
X189909180Y-83483333D02*
X189832990Y-83407143D01*
X189832990Y-83407143D02*
X189794895Y-83292857D01*
X189794895Y-83292857D02*
X189794895Y-83216666D01*
X189794895Y-83216666D02*
X189832990Y-83102381D01*
X189832990Y-83102381D02*
X189871085Y-83064285D01*
X190594895Y-82302381D02*
X190594895Y-82759524D01*
X190594895Y-82530952D02*
X189794895Y-82530952D01*
X189794895Y-82530952D02*
X189909180Y-82607143D01*
X189909180Y-82607143D02*
X189985371Y-82683333D01*
X189985371Y-82683333D02*
X190023466Y-82759524D01*
X189871085Y-81997619D02*
X189832990Y-81959523D01*
X189832990Y-81959523D02*
X189794895Y-81883333D01*
X189794895Y-81883333D02*
X189794895Y-81692857D01*
X189794895Y-81692857D02*
X189832990Y-81616666D01*
X189832990Y-81616666D02*
X189871085Y-81578571D01*
X189871085Y-81578571D02*
X189947276Y-81540476D01*
X189947276Y-81540476D02*
X190023466Y-81540476D01*
X190023466Y-81540476D02*
X190137752Y-81578571D01*
X190137752Y-81578571D02*
X190594895Y-82035714D01*
X190594895Y-82035714D02*
X190594895Y-81540476D01*
X194788704Y-99633332D02*
X194826800Y-99671428D01*
X194826800Y-99671428D02*
X194864895Y-99785713D01*
X194864895Y-99785713D02*
X194864895Y-99861904D01*
X194864895Y-99861904D02*
X194826800Y-99976190D01*
X194826800Y-99976190D02*
X194750609Y-100052380D01*
X194750609Y-100052380D02*
X194674419Y-100090475D01*
X194674419Y-100090475D02*
X194522038Y-100128571D01*
X194522038Y-100128571D02*
X194407752Y-100128571D01*
X194407752Y-100128571D02*
X194255371Y-100090475D01*
X194255371Y-100090475D02*
X194179180Y-100052380D01*
X194179180Y-100052380D02*
X194102990Y-99976190D01*
X194102990Y-99976190D02*
X194064895Y-99861904D01*
X194064895Y-99861904D02*
X194064895Y-99785713D01*
X194064895Y-99785713D02*
X194102990Y-99671428D01*
X194102990Y-99671428D02*
X194141085Y-99633332D01*
X194864895Y-98871428D02*
X194864895Y-99328571D01*
X194864895Y-99099999D02*
X194064895Y-99099999D01*
X194064895Y-99099999D02*
X194179180Y-99176190D01*
X194179180Y-99176190D02*
X194255371Y-99252380D01*
X194255371Y-99252380D02*
X194293466Y-99328571D01*
X170053704Y-99633332D02*
X170091800Y-99671428D01*
X170091800Y-99671428D02*
X170129895Y-99785713D01*
X170129895Y-99785713D02*
X170129895Y-99861904D01*
X170129895Y-99861904D02*
X170091800Y-99976190D01*
X170091800Y-99976190D02*
X170015609Y-100052380D01*
X170015609Y-100052380D02*
X169939419Y-100090475D01*
X169939419Y-100090475D02*
X169787038Y-100128571D01*
X169787038Y-100128571D02*
X169672752Y-100128571D01*
X169672752Y-100128571D02*
X169520371Y-100090475D01*
X169520371Y-100090475D02*
X169444180Y-100052380D01*
X169444180Y-100052380D02*
X169367990Y-99976190D01*
X169367990Y-99976190D02*
X169329895Y-99861904D01*
X169329895Y-99861904D02*
X169329895Y-99785713D01*
X169329895Y-99785713D02*
X169367990Y-99671428D01*
X169367990Y-99671428D02*
X169406085Y-99633332D01*
X169329895Y-98909523D02*
X169329895Y-99290475D01*
X169329895Y-99290475D02*
X169710847Y-99328571D01*
X169710847Y-99328571D02*
X169672752Y-99290475D01*
X169672752Y-99290475D02*
X169634657Y-99214285D01*
X169634657Y-99214285D02*
X169634657Y-99023809D01*
X169634657Y-99023809D02*
X169672752Y-98947618D01*
X169672752Y-98947618D02*
X169710847Y-98909523D01*
X169710847Y-98909523D02*
X169787038Y-98871428D01*
X169787038Y-98871428D02*
X169977514Y-98871428D01*
X169977514Y-98871428D02*
X170053704Y-98909523D01*
X170053704Y-98909523D02*
X170091800Y-98947618D01*
X170091800Y-98947618D02*
X170129895Y-99023809D01*
X170129895Y-99023809D02*
X170129895Y-99214285D01*
X170129895Y-99214285D02*
X170091800Y-99290475D01*
X170091800Y-99290475D02*
X170053704Y-99328571D01*
X191788704Y-99633332D02*
X191826800Y-99671428D01*
X191826800Y-99671428D02*
X191864895Y-99785713D01*
X191864895Y-99785713D02*
X191864895Y-99861904D01*
X191864895Y-99861904D02*
X191826800Y-99976190D01*
X191826800Y-99976190D02*
X191750609Y-100052380D01*
X191750609Y-100052380D02*
X191674419Y-100090475D01*
X191674419Y-100090475D02*
X191522038Y-100128571D01*
X191522038Y-100128571D02*
X191407752Y-100128571D01*
X191407752Y-100128571D02*
X191255371Y-100090475D01*
X191255371Y-100090475D02*
X191179180Y-100052380D01*
X191179180Y-100052380D02*
X191102990Y-99976190D01*
X191102990Y-99976190D02*
X191064895Y-99861904D01*
X191064895Y-99861904D02*
X191064895Y-99785713D01*
X191064895Y-99785713D02*
X191102990Y-99671428D01*
X191102990Y-99671428D02*
X191141085Y-99633332D01*
X191864895Y-99252380D02*
X191864895Y-99099999D01*
X191864895Y-99099999D02*
X191826800Y-99023809D01*
X191826800Y-99023809D02*
X191788704Y-98985713D01*
X191788704Y-98985713D02*
X191674419Y-98909523D01*
X191674419Y-98909523D02*
X191522038Y-98871428D01*
X191522038Y-98871428D02*
X191217276Y-98871428D01*
X191217276Y-98871428D02*
X191141085Y-98909523D01*
X191141085Y-98909523D02*
X191102990Y-98947618D01*
X191102990Y-98947618D02*
X191064895Y-99023809D01*
X191064895Y-99023809D02*
X191064895Y-99176190D01*
X191064895Y-99176190D02*
X191102990Y-99252380D01*
X191102990Y-99252380D02*
X191141085Y-99290475D01*
X191141085Y-99290475D02*
X191217276Y-99328571D01*
X191217276Y-99328571D02*
X191407752Y-99328571D01*
X191407752Y-99328571D02*
X191483942Y-99290475D01*
X191483942Y-99290475D02*
X191522038Y-99252380D01*
X191522038Y-99252380D02*
X191560133Y-99176190D01*
X191560133Y-99176190D02*
X191560133Y-99023809D01*
X191560133Y-99023809D02*
X191522038Y-98947618D01*
X191522038Y-98947618D02*
X191483942Y-98909523D01*
X191483942Y-98909523D02*
X191407752Y-98871428D01*
X192923809Y-62941085D02*
X192847619Y-62902990D01*
X192847619Y-62902990D02*
X192771428Y-62826800D01*
X192771428Y-62826800D02*
X192657142Y-62712514D01*
X192657142Y-62712514D02*
X192580952Y-62674419D01*
X192580952Y-62674419D02*
X192504761Y-62674419D01*
X192542857Y-62864895D02*
X192466666Y-62826800D01*
X192466666Y-62826800D02*
X192390476Y-62750609D01*
X192390476Y-62750609D02*
X192352380Y-62598228D01*
X192352380Y-62598228D02*
X192352380Y-62331561D01*
X192352380Y-62331561D02*
X192390476Y-62179180D01*
X192390476Y-62179180D02*
X192466666Y-62102990D01*
X192466666Y-62102990D02*
X192542857Y-62064895D01*
X192542857Y-62064895D02*
X192695238Y-62064895D01*
X192695238Y-62064895D02*
X192771428Y-62102990D01*
X192771428Y-62102990D02*
X192847619Y-62179180D01*
X192847619Y-62179180D02*
X192885714Y-62331561D01*
X192885714Y-62331561D02*
X192885714Y-62598228D01*
X192885714Y-62598228D02*
X192847619Y-62750609D01*
X192847619Y-62750609D02*
X192771428Y-62826800D01*
X192771428Y-62826800D02*
X192695238Y-62864895D01*
X192695238Y-62864895D02*
X192542857Y-62864895D01*
X193190475Y-62141085D02*
X193228571Y-62102990D01*
X193228571Y-62102990D02*
X193304761Y-62064895D01*
X193304761Y-62064895D02*
X193495237Y-62064895D01*
X193495237Y-62064895D02*
X193571428Y-62102990D01*
X193571428Y-62102990D02*
X193609523Y-62141085D01*
X193609523Y-62141085D02*
X193647618Y-62217276D01*
X193647618Y-62217276D02*
X193647618Y-62293466D01*
X193647618Y-62293466D02*
X193609523Y-62407752D01*
X193609523Y-62407752D02*
X193152380Y-62864895D01*
X193152380Y-62864895D02*
X193647618Y-62864895D01*
D10*
X193062295Y-66766666D02*
X193633723Y-66766666D01*
X193633723Y-66766666D02*
X193748009Y-66804761D01*
X193748009Y-66804761D02*
X193824200Y-66880952D01*
X193824200Y-66880952D02*
X193862295Y-66995237D01*
X193862295Y-66995237D02*
X193862295Y-67071428D01*
X193862295Y-65966666D02*
X193862295Y-66423809D01*
X193862295Y-66195237D02*
X193062295Y-66195237D01*
X193062295Y-66195237D02*
X193176580Y-66271428D01*
X193176580Y-66271428D02*
X193252771Y-66347618D01*
X193252771Y-66347618D02*
X193290866Y-66423809D01*
D11*
X189288704Y-100514285D02*
X189326800Y-100552381D01*
X189326800Y-100552381D02*
X189364895Y-100666666D01*
X189364895Y-100666666D02*
X189364895Y-100742857D01*
X189364895Y-100742857D02*
X189326800Y-100857143D01*
X189326800Y-100857143D02*
X189250609Y-100933333D01*
X189250609Y-100933333D02*
X189174419Y-100971428D01*
X189174419Y-100971428D02*
X189022038Y-101009524D01*
X189022038Y-101009524D02*
X188907752Y-101009524D01*
X188907752Y-101009524D02*
X188755371Y-100971428D01*
X188755371Y-100971428D02*
X188679180Y-100933333D01*
X188679180Y-100933333D02*
X188602990Y-100857143D01*
X188602990Y-100857143D02*
X188564895Y-100742857D01*
X188564895Y-100742857D02*
X188564895Y-100666666D01*
X188564895Y-100666666D02*
X188602990Y-100552381D01*
X188602990Y-100552381D02*
X188641085Y-100514285D01*
X189364895Y-99752381D02*
X189364895Y-100209524D01*
X189364895Y-99980952D02*
X188564895Y-99980952D01*
X188564895Y-99980952D02*
X188679180Y-100057143D01*
X188679180Y-100057143D02*
X188755371Y-100133333D01*
X188755371Y-100133333D02*
X188793466Y-100209524D01*
X188564895Y-99257142D02*
X188564895Y-99180952D01*
X188564895Y-99180952D02*
X188602990Y-99104761D01*
X188602990Y-99104761D02*
X188641085Y-99066666D01*
X188641085Y-99066666D02*
X188717276Y-99028571D01*
X188717276Y-99028571D02*
X188869657Y-98990476D01*
X188869657Y-98990476D02*
X189060133Y-98990476D01*
X189060133Y-98990476D02*
X189212514Y-99028571D01*
X189212514Y-99028571D02*
X189288704Y-99066666D01*
X189288704Y-99066666D02*
X189326800Y-99104761D01*
X189326800Y-99104761D02*
X189364895Y-99180952D01*
X189364895Y-99180952D02*
X189364895Y-99257142D01*
X189364895Y-99257142D02*
X189326800Y-99333333D01*
X189326800Y-99333333D02*
X189288704Y-99371428D01*
X189288704Y-99371428D02*
X189212514Y-99409523D01*
X189212514Y-99409523D02*
X189060133Y-99447619D01*
X189060133Y-99447619D02*
X188869657Y-99447619D01*
X188869657Y-99447619D02*
X188717276Y-99409523D01*
X188717276Y-99409523D02*
X188641085Y-99371428D01*
X188641085Y-99371428D02*
X188602990Y-99333333D01*
X188602990Y-99333333D02*
X188564895Y-99257142D01*
X186733333Y-51064895D02*
X186733333Y-51636323D01*
X186733333Y-51636323D02*
X186695238Y-51750609D01*
X186695238Y-51750609D02*
X186619047Y-51826800D01*
X186619047Y-51826800D02*
X186504762Y-51864895D01*
X186504762Y-51864895D02*
X186428571Y-51864895D01*
X187076190Y-51141085D02*
X187114286Y-51102990D01*
X187114286Y-51102990D02*
X187190476Y-51064895D01*
X187190476Y-51064895D02*
X187380952Y-51064895D01*
X187380952Y-51064895D02*
X187457143Y-51102990D01*
X187457143Y-51102990D02*
X187495238Y-51141085D01*
X187495238Y-51141085D02*
X187533333Y-51217276D01*
X187533333Y-51217276D02*
X187533333Y-51293466D01*
X187533333Y-51293466D02*
X187495238Y-51407752D01*
X187495238Y-51407752D02*
X187038095Y-51864895D01*
X187038095Y-51864895D02*
X187533333Y-51864895D01*
X180061571Y-51464895D02*
X179604428Y-51464895D01*
X179833000Y-51464895D02*
X179833000Y-50664895D01*
X179833000Y-50664895D02*
X179756809Y-50779180D01*
X179756809Y-50779180D02*
X179680619Y-50855371D01*
X179680619Y-50855371D02*
X179604428Y-50893466D01*
X169144667Y-52364895D02*
X168878000Y-51983942D01*
X168687524Y-52364895D02*
X168687524Y-51564895D01*
X168687524Y-51564895D02*
X168992286Y-51564895D01*
X168992286Y-51564895D02*
X169068476Y-51602990D01*
X169068476Y-51602990D02*
X169106571Y-51641085D01*
X169106571Y-51641085D02*
X169144667Y-51717276D01*
X169144667Y-51717276D02*
X169144667Y-51831561D01*
X169144667Y-51831561D02*
X169106571Y-51907752D01*
X169106571Y-51907752D02*
X169068476Y-51945847D01*
X169068476Y-51945847D02*
X168992286Y-51983942D01*
X168992286Y-51983942D02*
X168687524Y-51983942D01*
X169830381Y-51564895D02*
X169678000Y-51564895D01*
X169678000Y-51564895D02*
X169601809Y-51602990D01*
X169601809Y-51602990D02*
X169563714Y-51641085D01*
X169563714Y-51641085D02*
X169487524Y-51755371D01*
X169487524Y-51755371D02*
X169449428Y-51907752D01*
X169449428Y-51907752D02*
X169449428Y-52212514D01*
X169449428Y-52212514D02*
X169487524Y-52288704D01*
X169487524Y-52288704D02*
X169525619Y-52326800D01*
X169525619Y-52326800D02*
X169601809Y-52364895D01*
X169601809Y-52364895D02*
X169754190Y-52364895D01*
X169754190Y-52364895D02*
X169830381Y-52326800D01*
X169830381Y-52326800D02*
X169868476Y-52288704D01*
X169868476Y-52288704D02*
X169906571Y-52212514D01*
X169906571Y-52212514D02*
X169906571Y-52022038D01*
X169906571Y-52022038D02*
X169868476Y-51945847D01*
X169868476Y-51945847D02*
X169830381Y-51907752D01*
X169830381Y-51907752D02*
X169754190Y-51869657D01*
X169754190Y-51869657D02*
X169601809Y-51869657D01*
X169601809Y-51869657D02*
X169525619Y-51907752D01*
X169525619Y-51907752D02*
X169487524Y-51945847D01*
X169487524Y-51945847D02*
X169449428Y-52022038D01*
X159985714Y-50288704D02*
X159947618Y-50326800D01*
X159947618Y-50326800D02*
X159833333Y-50364895D01*
X159833333Y-50364895D02*
X159757142Y-50364895D01*
X159757142Y-50364895D02*
X159642856Y-50326800D01*
X159642856Y-50326800D02*
X159566666Y-50250609D01*
X159566666Y-50250609D02*
X159528571Y-50174419D01*
X159528571Y-50174419D02*
X159490475Y-50022038D01*
X159490475Y-50022038D02*
X159490475Y-49907752D01*
X159490475Y-49907752D02*
X159528571Y-49755371D01*
X159528571Y-49755371D02*
X159566666Y-49679180D01*
X159566666Y-49679180D02*
X159642856Y-49602990D01*
X159642856Y-49602990D02*
X159757142Y-49564895D01*
X159757142Y-49564895D02*
X159833333Y-49564895D01*
X159833333Y-49564895D02*
X159947618Y-49602990D01*
X159947618Y-49602990D02*
X159985714Y-49641085D01*
X160747618Y-50364895D02*
X160290475Y-50364895D01*
X160519047Y-50364895D02*
X160519047Y-49564895D01*
X160519047Y-49564895D02*
X160442856Y-49679180D01*
X160442856Y-49679180D02*
X160366666Y-49755371D01*
X160366666Y-49755371D02*
X160290475Y-49793466D01*
X161014285Y-49564895D02*
X161509523Y-49564895D01*
X161509523Y-49564895D02*
X161242857Y-49869657D01*
X161242857Y-49869657D02*
X161357142Y-49869657D01*
X161357142Y-49869657D02*
X161433333Y-49907752D01*
X161433333Y-49907752D02*
X161471428Y-49945847D01*
X161471428Y-49945847D02*
X161509523Y-50022038D01*
X161509523Y-50022038D02*
X161509523Y-50212514D01*
X161509523Y-50212514D02*
X161471428Y-50288704D01*
X161471428Y-50288704D02*
X161433333Y-50326800D01*
X161433333Y-50326800D02*
X161357142Y-50364895D01*
X161357142Y-50364895D02*
X161128571Y-50364895D01*
X161128571Y-50364895D02*
X161052380Y-50326800D01*
X161052380Y-50326800D02*
X161014285Y-50288704D01*
X179633464Y-99633332D02*
X179671560Y-99671428D01*
X179671560Y-99671428D02*
X179709655Y-99785713D01*
X179709655Y-99785713D02*
X179709655Y-99861904D01*
X179709655Y-99861904D02*
X179671560Y-99976190D01*
X179671560Y-99976190D02*
X179595369Y-100052380D01*
X179595369Y-100052380D02*
X179519179Y-100090475D01*
X179519179Y-100090475D02*
X179366798Y-100128571D01*
X179366798Y-100128571D02*
X179252512Y-100128571D01*
X179252512Y-100128571D02*
X179100131Y-100090475D01*
X179100131Y-100090475D02*
X179023940Y-100052380D01*
X179023940Y-100052380D02*
X178947750Y-99976190D01*
X178947750Y-99976190D02*
X178909655Y-99861904D01*
X178909655Y-99861904D02*
X178909655Y-99785713D01*
X178909655Y-99785713D02*
X178947750Y-99671428D01*
X178947750Y-99671428D02*
X178985845Y-99633332D01*
X179252512Y-99176190D02*
X179214417Y-99252380D01*
X179214417Y-99252380D02*
X179176321Y-99290475D01*
X179176321Y-99290475D02*
X179100131Y-99328571D01*
X179100131Y-99328571D02*
X179062036Y-99328571D01*
X179062036Y-99328571D02*
X178985845Y-99290475D01*
X178985845Y-99290475D02*
X178947750Y-99252380D01*
X178947750Y-99252380D02*
X178909655Y-99176190D01*
X178909655Y-99176190D02*
X178909655Y-99023809D01*
X178909655Y-99023809D02*
X178947750Y-98947618D01*
X178947750Y-98947618D02*
X178985845Y-98909523D01*
X178985845Y-98909523D02*
X179062036Y-98871428D01*
X179062036Y-98871428D02*
X179100131Y-98871428D01*
X179100131Y-98871428D02*
X179176321Y-98909523D01*
X179176321Y-98909523D02*
X179214417Y-98947618D01*
X179214417Y-98947618D02*
X179252512Y-99023809D01*
X179252512Y-99023809D02*
X179252512Y-99176190D01*
X179252512Y-99176190D02*
X179290607Y-99252380D01*
X179290607Y-99252380D02*
X179328702Y-99290475D01*
X179328702Y-99290475D02*
X179404893Y-99328571D01*
X179404893Y-99328571D02*
X179557274Y-99328571D01*
X179557274Y-99328571D02*
X179633464Y-99290475D01*
X179633464Y-99290475D02*
X179671560Y-99252380D01*
X179671560Y-99252380D02*
X179709655Y-99176190D01*
X179709655Y-99176190D02*
X179709655Y-99023809D01*
X179709655Y-99023809D02*
X179671560Y-98947618D01*
X179671560Y-98947618D02*
X179633464Y-98909523D01*
X179633464Y-98909523D02*
X179557274Y-98871428D01*
X179557274Y-98871428D02*
X179404893Y-98871428D01*
X179404893Y-98871428D02*
X179328702Y-98909523D01*
X179328702Y-98909523D02*
X179290607Y-98947618D01*
X179290607Y-98947618D02*
X179252512Y-99023809D01*
X195364895Y-57670832D02*
X194983942Y-57937499D01*
X195364895Y-58127975D02*
X194564895Y-58127975D01*
X194564895Y-58127975D02*
X194564895Y-57823213D01*
X194564895Y-57823213D02*
X194602990Y-57747023D01*
X194602990Y-57747023D02*
X194641085Y-57708928D01*
X194641085Y-57708928D02*
X194717276Y-57670832D01*
X194717276Y-57670832D02*
X194831561Y-57670832D01*
X194831561Y-57670832D02*
X194907752Y-57708928D01*
X194907752Y-57708928D02*
X194945847Y-57747023D01*
X194945847Y-57747023D02*
X194983942Y-57823213D01*
X194983942Y-57823213D02*
X194983942Y-58127975D01*
X194641085Y-57366071D02*
X194602990Y-57327975D01*
X194602990Y-57327975D02*
X194564895Y-57251785D01*
X194564895Y-57251785D02*
X194564895Y-57061309D01*
X194564895Y-57061309D02*
X194602990Y-56985118D01*
X194602990Y-56985118D02*
X194641085Y-56947023D01*
X194641085Y-56947023D02*
X194717276Y-56908928D01*
X194717276Y-56908928D02*
X194793466Y-56908928D01*
X194793466Y-56908928D02*
X194907752Y-56947023D01*
X194907752Y-56947023D02*
X195364895Y-57404166D01*
X195364895Y-57404166D02*
X195364895Y-56908928D01*
D10*
X174859580Y-92266666D02*
X174907200Y-92314285D01*
X174907200Y-92314285D02*
X174954819Y-92457142D01*
X174954819Y-92457142D02*
X174954819Y-92552380D01*
X174954819Y-92552380D02*
X174907200Y-92695237D01*
X174907200Y-92695237D02*
X174811961Y-92790475D01*
X174811961Y-92790475D02*
X174716723Y-92838094D01*
X174716723Y-92838094D02*
X174526247Y-92885713D01*
X174526247Y-92885713D02*
X174383390Y-92885713D01*
X174383390Y-92885713D02*
X174192914Y-92838094D01*
X174192914Y-92838094D02*
X174097676Y-92790475D01*
X174097676Y-92790475D02*
X174002438Y-92695237D01*
X174002438Y-92695237D02*
X173954819Y-92552380D01*
X173954819Y-92552380D02*
X173954819Y-92457142D01*
X173954819Y-92457142D02*
X174002438Y-92314285D01*
X174002438Y-92314285D02*
X174050057Y-92266666D01*
X174954819Y-91266666D02*
X174478628Y-91599999D01*
X174954819Y-91838094D02*
X173954819Y-91838094D01*
X173954819Y-91838094D02*
X173954819Y-91457142D01*
X173954819Y-91457142D02*
X174002438Y-91361904D01*
X174002438Y-91361904D02*
X174050057Y-91314285D01*
X174050057Y-91314285D02*
X174145295Y-91266666D01*
X174145295Y-91266666D02*
X174288152Y-91266666D01*
X174288152Y-91266666D02*
X174383390Y-91314285D01*
X174383390Y-91314285D02*
X174431009Y-91361904D01*
X174431009Y-91361904D02*
X174478628Y-91457142D01*
X174478628Y-91457142D02*
X174478628Y-91838094D01*
X174954819Y-90314285D02*
X174954819Y-90885713D01*
X174954819Y-90599999D02*
X173954819Y-90599999D01*
X173954819Y-90599999D02*
X174097676Y-90695237D01*
X174097676Y-90695237D02*
X174192914Y-90790475D01*
X174192914Y-90790475D02*
X174240533Y-90885713D01*
D11*
X185788704Y-99633332D02*
X185826800Y-99671428D01*
X185826800Y-99671428D02*
X185864895Y-99785713D01*
X185864895Y-99785713D02*
X185864895Y-99861904D01*
X185864895Y-99861904D02*
X185826800Y-99976190D01*
X185826800Y-99976190D02*
X185750609Y-100052380D01*
X185750609Y-100052380D02*
X185674419Y-100090475D01*
X185674419Y-100090475D02*
X185522038Y-100128571D01*
X185522038Y-100128571D02*
X185407752Y-100128571D01*
X185407752Y-100128571D02*
X185255371Y-100090475D01*
X185255371Y-100090475D02*
X185179180Y-100052380D01*
X185179180Y-100052380D02*
X185102990Y-99976190D01*
X185102990Y-99976190D02*
X185064895Y-99861904D01*
X185064895Y-99861904D02*
X185064895Y-99785713D01*
X185064895Y-99785713D02*
X185102990Y-99671428D01*
X185102990Y-99671428D02*
X185141085Y-99633332D01*
X185141085Y-99328571D02*
X185102990Y-99290475D01*
X185102990Y-99290475D02*
X185064895Y-99214285D01*
X185064895Y-99214285D02*
X185064895Y-99023809D01*
X185064895Y-99023809D02*
X185102990Y-98947618D01*
X185102990Y-98947618D02*
X185141085Y-98909523D01*
X185141085Y-98909523D02*
X185217276Y-98871428D01*
X185217276Y-98871428D02*
X185293466Y-98871428D01*
X185293466Y-98871428D02*
X185407752Y-98909523D01*
X185407752Y-98909523D02*
X185864895Y-99366666D01*
X185864895Y-99366666D02*
X185864895Y-98871428D01*
X151452381Y-53564895D02*
X151719048Y-54364895D01*
X151719048Y-54364895D02*
X151985714Y-53564895D01*
X152709524Y-54364895D02*
X152442857Y-53983942D01*
X152252381Y-54364895D02*
X152252381Y-53564895D01*
X152252381Y-53564895D02*
X152557143Y-53564895D01*
X152557143Y-53564895D02*
X152633333Y-53602990D01*
X152633333Y-53602990D02*
X152671428Y-53641085D01*
X152671428Y-53641085D02*
X152709524Y-53717276D01*
X152709524Y-53717276D02*
X152709524Y-53831561D01*
X152709524Y-53831561D02*
X152671428Y-53907752D01*
X152671428Y-53907752D02*
X152633333Y-53945847D01*
X152633333Y-53945847D02*
X152557143Y-53983942D01*
X152557143Y-53983942D02*
X152252381Y-53983942D01*
X153471428Y-54364895D02*
X153014285Y-54364895D01*
X153242857Y-54364895D02*
X153242857Y-53564895D01*
X153242857Y-53564895D02*
X153166666Y-53679180D01*
X153166666Y-53679180D02*
X153090476Y-53755371D01*
X153090476Y-53755371D02*
X153014285Y-53793466D01*
D10*
X194433333Y-51859580D02*
X194385714Y-51907200D01*
X194385714Y-51907200D02*
X194242857Y-51954819D01*
X194242857Y-51954819D02*
X194147619Y-51954819D01*
X194147619Y-51954819D02*
X194004762Y-51907200D01*
X194004762Y-51907200D02*
X193909524Y-51811961D01*
X193909524Y-51811961D02*
X193861905Y-51716723D01*
X193861905Y-51716723D02*
X193814286Y-51526247D01*
X193814286Y-51526247D02*
X193814286Y-51383390D01*
X193814286Y-51383390D02*
X193861905Y-51192914D01*
X193861905Y-51192914D02*
X193909524Y-51097676D01*
X193909524Y-51097676D02*
X194004762Y-51002438D01*
X194004762Y-51002438D02*
X194147619Y-50954819D01*
X194147619Y-50954819D02*
X194242857Y-50954819D01*
X194242857Y-50954819D02*
X194385714Y-51002438D01*
X194385714Y-51002438D02*
X194433333Y-51050057D01*
X195433333Y-51954819D02*
X195100000Y-51478628D01*
X194861905Y-51954819D02*
X194861905Y-50954819D01*
X194861905Y-50954819D02*
X195242857Y-50954819D01*
X195242857Y-50954819D02*
X195338095Y-51002438D01*
X195338095Y-51002438D02*
X195385714Y-51050057D01*
X195385714Y-51050057D02*
X195433333Y-51145295D01*
X195433333Y-51145295D02*
X195433333Y-51288152D01*
X195433333Y-51288152D02*
X195385714Y-51383390D01*
X195385714Y-51383390D02*
X195338095Y-51431009D01*
X195338095Y-51431009D02*
X195242857Y-51478628D01*
X195242857Y-51478628D02*
X194861905Y-51478628D01*
X195814286Y-51050057D02*
X195861905Y-51002438D01*
X195861905Y-51002438D02*
X195957143Y-50954819D01*
X195957143Y-50954819D02*
X196195238Y-50954819D01*
X196195238Y-50954819D02*
X196290476Y-51002438D01*
X196290476Y-51002438D02*
X196338095Y-51050057D01*
X196338095Y-51050057D02*
X196385714Y-51145295D01*
X196385714Y-51145295D02*
X196385714Y-51240533D01*
X196385714Y-51240533D02*
X196338095Y-51383390D01*
X196338095Y-51383390D02*
X195766667Y-51954819D01*
X195766667Y-51954819D02*
X196385714Y-51954819D01*
D11*
X173053704Y-99633332D02*
X173091800Y-99671428D01*
X173091800Y-99671428D02*
X173129895Y-99785713D01*
X173129895Y-99785713D02*
X173129895Y-99861904D01*
X173129895Y-99861904D02*
X173091800Y-99976190D01*
X173091800Y-99976190D02*
X173015609Y-100052380D01*
X173015609Y-100052380D02*
X172939419Y-100090475D01*
X172939419Y-100090475D02*
X172787038Y-100128571D01*
X172787038Y-100128571D02*
X172672752Y-100128571D01*
X172672752Y-100128571D02*
X172520371Y-100090475D01*
X172520371Y-100090475D02*
X172444180Y-100052380D01*
X172444180Y-100052380D02*
X172367990Y-99976190D01*
X172367990Y-99976190D02*
X172329895Y-99861904D01*
X172329895Y-99861904D02*
X172329895Y-99785713D01*
X172329895Y-99785713D02*
X172367990Y-99671428D01*
X172367990Y-99671428D02*
X172406085Y-99633332D01*
X172329895Y-98947618D02*
X172329895Y-99099999D01*
X172329895Y-99099999D02*
X172367990Y-99176190D01*
X172367990Y-99176190D02*
X172406085Y-99214285D01*
X172406085Y-99214285D02*
X172520371Y-99290475D01*
X172520371Y-99290475D02*
X172672752Y-99328571D01*
X172672752Y-99328571D02*
X172977514Y-99328571D01*
X172977514Y-99328571D02*
X173053704Y-99290475D01*
X173053704Y-99290475D02*
X173091800Y-99252380D01*
X173091800Y-99252380D02*
X173129895Y-99176190D01*
X173129895Y-99176190D02*
X173129895Y-99023809D01*
X173129895Y-99023809D02*
X173091800Y-98947618D01*
X173091800Y-98947618D02*
X173053704Y-98909523D01*
X173053704Y-98909523D02*
X172977514Y-98871428D01*
X172977514Y-98871428D02*
X172787038Y-98871428D01*
X172787038Y-98871428D02*
X172710847Y-98909523D01*
X172710847Y-98909523D02*
X172672752Y-98947618D01*
X172672752Y-98947618D02*
X172634657Y-99023809D01*
X172634657Y-99023809D02*
X172634657Y-99176190D01*
X172634657Y-99176190D02*
X172672752Y-99252380D01*
X172672752Y-99252380D02*
X172710847Y-99290475D01*
X172710847Y-99290475D02*
X172787038Y-99328571D01*
X170211332Y-46326800D02*
X170325618Y-46364895D01*
X170325618Y-46364895D02*
X170516094Y-46364895D01*
X170516094Y-46364895D02*
X170592285Y-46326800D01*
X170592285Y-46326800D02*
X170630380Y-46288704D01*
X170630380Y-46288704D02*
X170668475Y-46212514D01*
X170668475Y-46212514D02*
X170668475Y-46136323D01*
X170668475Y-46136323D02*
X170630380Y-46060133D01*
X170630380Y-46060133D02*
X170592285Y-46022038D01*
X170592285Y-46022038D02*
X170516094Y-45983942D01*
X170516094Y-45983942D02*
X170363713Y-45945847D01*
X170363713Y-45945847D02*
X170287523Y-45907752D01*
X170287523Y-45907752D02*
X170249428Y-45869657D01*
X170249428Y-45869657D02*
X170211332Y-45793466D01*
X170211332Y-45793466D02*
X170211332Y-45717276D01*
X170211332Y-45717276D02*
X170249428Y-45641085D01*
X170249428Y-45641085D02*
X170287523Y-45602990D01*
X170287523Y-45602990D02*
X170363713Y-45564895D01*
X170363713Y-45564895D02*
X170554190Y-45564895D01*
X170554190Y-45564895D02*
X170668475Y-45602990D01*
X170935142Y-45564895D02*
X171125618Y-46364895D01*
X171125618Y-46364895D02*
X171277999Y-45793466D01*
X171277999Y-45793466D02*
X171430380Y-46364895D01*
X171430380Y-46364895D02*
X171620857Y-45564895D01*
X172344666Y-46364895D02*
X171887523Y-46364895D01*
X172116095Y-46364895D02*
X172116095Y-45564895D01*
X172116095Y-45564895D02*
X172039904Y-45679180D01*
X172039904Y-45679180D02*
X171963714Y-45755371D01*
X171963714Y-45755371D02*
X171887523Y-45793466D01*
D10*
X181359580Y-92666666D02*
X181407200Y-92714285D01*
X181407200Y-92714285D02*
X181454819Y-92857142D01*
X181454819Y-92857142D02*
X181454819Y-92952380D01*
X181454819Y-92952380D02*
X181407200Y-93095237D01*
X181407200Y-93095237D02*
X181311961Y-93190475D01*
X181311961Y-93190475D02*
X181216723Y-93238094D01*
X181216723Y-93238094D02*
X181026247Y-93285713D01*
X181026247Y-93285713D02*
X180883390Y-93285713D01*
X180883390Y-93285713D02*
X180692914Y-93238094D01*
X180692914Y-93238094D02*
X180597676Y-93190475D01*
X180597676Y-93190475D02*
X180502438Y-93095237D01*
X180502438Y-93095237D02*
X180454819Y-92952380D01*
X180454819Y-92952380D02*
X180454819Y-92857142D01*
X180454819Y-92857142D02*
X180502438Y-92714285D01*
X180502438Y-92714285D02*
X180550057Y-92666666D01*
X181454819Y-91666666D02*
X180978628Y-91999999D01*
X181454819Y-92238094D02*
X180454819Y-92238094D01*
X180454819Y-92238094D02*
X180454819Y-91857142D01*
X180454819Y-91857142D02*
X180502438Y-91761904D01*
X180502438Y-91761904D02*
X180550057Y-91714285D01*
X180550057Y-91714285D02*
X180645295Y-91666666D01*
X180645295Y-91666666D02*
X180788152Y-91666666D01*
X180788152Y-91666666D02*
X180883390Y-91714285D01*
X180883390Y-91714285D02*
X180931009Y-91761904D01*
X180931009Y-91761904D02*
X180978628Y-91857142D01*
X180978628Y-91857142D02*
X180978628Y-92238094D01*
X180454819Y-91333332D02*
X180454819Y-90714285D01*
X180454819Y-90714285D02*
X180835771Y-91047618D01*
X180835771Y-91047618D02*
X180835771Y-90904761D01*
X180835771Y-90904761D02*
X180883390Y-90809523D01*
X180883390Y-90809523D02*
X180931009Y-90761904D01*
X180931009Y-90761904D02*
X181026247Y-90714285D01*
X181026247Y-90714285D02*
X181264342Y-90714285D01*
X181264342Y-90714285D02*
X181359580Y-90761904D01*
X181359580Y-90761904D02*
X181407200Y-90809523D01*
X181407200Y-90809523D02*
X181454819Y-90904761D01*
X181454819Y-90904761D02*
X181454819Y-91190475D01*
X181454819Y-91190475D02*
X181407200Y-91285713D01*
X181407200Y-91285713D02*
X181359580Y-91333332D01*
D11*
X159738704Y-45183332D02*
X159776800Y-45221428D01*
X159776800Y-45221428D02*
X159814895Y-45335713D01*
X159814895Y-45335713D02*
X159814895Y-45411904D01*
X159814895Y-45411904D02*
X159776800Y-45526190D01*
X159776800Y-45526190D02*
X159700609Y-45602380D01*
X159700609Y-45602380D02*
X159624419Y-45640475D01*
X159624419Y-45640475D02*
X159472038Y-45678571D01*
X159472038Y-45678571D02*
X159357752Y-45678571D01*
X159357752Y-45678571D02*
X159205371Y-45640475D01*
X159205371Y-45640475D02*
X159129180Y-45602380D01*
X159129180Y-45602380D02*
X159052990Y-45526190D01*
X159052990Y-45526190D02*
X159014895Y-45411904D01*
X159014895Y-45411904D02*
X159014895Y-45335713D01*
X159014895Y-45335713D02*
X159052990Y-45221428D01*
X159052990Y-45221428D02*
X159091085Y-45183332D01*
X159014895Y-44916666D02*
X159014895Y-44383332D01*
X159014895Y-44383332D02*
X159814895Y-44726190D01*
X176053704Y-99633332D02*
X176091800Y-99671428D01*
X176091800Y-99671428D02*
X176129895Y-99785713D01*
X176129895Y-99785713D02*
X176129895Y-99861904D01*
X176129895Y-99861904D02*
X176091800Y-99976190D01*
X176091800Y-99976190D02*
X176015609Y-100052380D01*
X176015609Y-100052380D02*
X175939419Y-100090475D01*
X175939419Y-100090475D02*
X175787038Y-100128571D01*
X175787038Y-100128571D02*
X175672752Y-100128571D01*
X175672752Y-100128571D02*
X175520371Y-100090475D01*
X175520371Y-100090475D02*
X175444180Y-100052380D01*
X175444180Y-100052380D02*
X175367990Y-99976190D01*
X175367990Y-99976190D02*
X175329895Y-99861904D01*
X175329895Y-99861904D02*
X175329895Y-99785713D01*
X175329895Y-99785713D02*
X175367990Y-99671428D01*
X175367990Y-99671428D02*
X175406085Y-99633332D01*
X175596561Y-98947618D02*
X176129895Y-98947618D01*
X175291800Y-99138094D02*
X175863228Y-99328571D01*
X175863228Y-99328571D02*
X175863228Y-98833332D01*
D10*
X189928572Y-88954819D02*
X189928572Y-87954819D01*
X190928571Y-88954819D02*
X190357143Y-88954819D01*
X190642857Y-88954819D02*
X190642857Y-87954819D01*
X190642857Y-87954819D02*
X190547619Y-88097676D01*
X190547619Y-88097676D02*
X190452381Y-88192914D01*
X190452381Y-88192914D02*
X190357143Y-88240533D01*
X191357143Y-88573866D02*
X192119048Y-88573866D01*
X192547619Y-88907200D02*
X192690476Y-88954819D01*
X192690476Y-88954819D02*
X192928571Y-88954819D01*
X192928571Y-88954819D02*
X193023809Y-88907200D01*
X193023809Y-88907200D02*
X193071428Y-88859580D01*
X193071428Y-88859580D02*
X193119047Y-88764342D01*
X193119047Y-88764342D02*
X193119047Y-88669104D01*
X193119047Y-88669104D02*
X193071428Y-88573866D01*
X193071428Y-88573866D02*
X193023809Y-88526247D01*
X193023809Y-88526247D02*
X192928571Y-88478628D01*
X192928571Y-88478628D02*
X192738095Y-88431009D01*
X192738095Y-88431009D02*
X192642857Y-88383390D01*
X192642857Y-88383390D02*
X192595238Y-88335771D01*
X192595238Y-88335771D02*
X192547619Y-88240533D01*
X192547619Y-88240533D02*
X192547619Y-88145295D01*
X192547619Y-88145295D02*
X192595238Y-88050057D01*
X192595238Y-88050057D02*
X192642857Y-88002438D01*
X192642857Y-88002438D02*
X192738095Y-87954819D01*
X192738095Y-87954819D02*
X192976190Y-87954819D01*
X192976190Y-87954819D02*
X193119047Y-88002438D01*
X194119047Y-88954819D02*
X193785714Y-88478628D01*
X193547619Y-88954819D02*
X193547619Y-87954819D01*
X193547619Y-87954819D02*
X193928571Y-87954819D01*
X193928571Y-87954819D02*
X194023809Y-88002438D01*
X194023809Y-88002438D02*
X194071428Y-88050057D01*
X194071428Y-88050057D02*
X194119047Y-88145295D01*
X194119047Y-88145295D02*
X194119047Y-88288152D01*
X194119047Y-88288152D02*
X194071428Y-88383390D01*
X194071428Y-88383390D02*
X194023809Y-88431009D01*
X194023809Y-88431009D02*
X193928571Y-88478628D01*
X193928571Y-88478628D02*
X193547619Y-88478628D01*
X194547619Y-88954819D02*
X194547619Y-87954819D01*
X194547619Y-87954819D02*
X194928571Y-87954819D01*
X194928571Y-87954819D02*
X195023809Y-88002438D01*
X195023809Y-88002438D02*
X195071428Y-88050057D01*
X195071428Y-88050057D02*
X195119047Y-88145295D01*
X195119047Y-88145295D02*
X195119047Y-88288152D01*
X195119047Y-88288152D02*
X195071428Y-88383390D01*
X195071428Y-88383390D02*
X195023809Y-88431009D01*
X195023809Y-88431009D02*
X194928571Y-88478628D01*
X194928571Y-88478628D02*
X194547619Y-88478628D01*
X197201389Y-49024895D02*
X196725199Y-49024895D01*
X197296627Y-48739180D02*
X196963294Y-49739180D01*
X196963294Y-49739180D02*
X196629961Y-48739180D01*
X196344246Y-49643942D02*
X196296627Y-49691561D01*
X196296627Y-49691561D02*
X196201389Y-49739180D01*
X196201389Y-49739180D02*
X195963294Y-49739180D01*
X195963294Y-49739180D02*
X195868056Y-49691561D01*
X195868056Y-49691561D02*
X195820437Y-49643942D01*
X195820437Y-49643942D02*
X195772818Y-49548704D01*
X195772818Y-49548704D02*
X195772818Y-49453466D01*
X195772818Y-49453466D02*
X195820437Y-49310609D01*
X195820437Y-49310609D02*
X196391865Y-48739180D01*
X196391865Y-48739180D02*
X195772818Y-48739180D01*
D12*
%TO.C,C3*%
X183735000Y-97311252D02*
X183735000Y-96788748D01*
X182265000Y-97311252D02*
X182265000Y-96788748D01*
%TO.C,R7*%
X171690258Y-54522500D02*
X171215742Y-54522500D01*
X171690258Y-53477500D02*
X171215742Y-53477500D01*
%TO.C,C12*%
X192235000Y-82811252D02*
X192235000Y-82288748D01*
X190765000Y-82811252D02*
X190765000Y-82288748D01*
%TO.C,C1*%
X195735000Y-97311252D02*
X195735000Y-96788748D01*
X194265000Y-97311252D02*
X194265000Y-96788748D01*
%TO.C,C5*%
X171235000Y-96788748D02*
X171235000Y-97311252D01*
X169765000Y-96788748D02*
X169765000Y-97311252D01*
%TO.C,C9*%
X192735000Y-96738748D02*
X192735000Y-97261252D01*
X191265000Y-96738748D02*
X191265000Y-97261252D01*
%TO.C,Q2*%
X195562500Y-64060000D02*
X196212500Y-64060000D01*
X195562500Y-64060000D02*
X194912500Y-64060000D01*
X195562500Y-60940000D02*
X196212500Y-60940000D01*
X195562500Y-60940000D02*
X193887500Y-60940000D01*
D13*
%TO.C,J1*%
X199000000Y-78200000D02*
G75*
G02*
X198800000Y-78200000I-100000J0D01*
G01*
X198800000Y-78200000D02*
G75*
G02*
X199000000Y-78200000I100000J0D01*
G01*
D14*
X198400000Y-79500000D02*
X195900000Y-79500000D01*
X198400000Y-65500000D02*
X198400000Y-79500000D01*
X195900000Y-65500000D02*
X198400000Y-65500000D01*
X194600000Y-66300000D02*
X194600000Y-78700000D01*
D12*
%TO.C,C10*%
X189735000Y-96738748D02*
X189735000Y-97261252D01*
X188265000Y-96738748D02*
X188265000Y-97261252D01*
%TO.C,J2*%
X185802000Y-51929000D02*
X185802000Y-45198000D01*
X185802000Y-51040000D02*
X180214000Y-51040000D01*
X185802000Y-45198000D02*
X180214000Y-45198000D01*
X180214000Y-51929000D02*
X185802000Y-51929000D01*
X180214000Y-45198000D02*
X180214000Y-51929000D01*
%TO.C,R6*%
X171215742Y-52522500D02*
X171690258Y-52522500D01*
X171215742Y-51477500D02*
X171690258Y-51477500D01*
%TO.C,C13*%
X159010000Y-49859420D02*
X159010000Y-50140580D01*
X157990000Y-49859420D02*
X157990000Y-50140580D01*
%TO.C,C8*%
X180735000Y-96788748D02*
X180735000Y-97311252D01*
X179265000Y-96788748D02*
X179265000Y-97311252D01*
%TO.C,R2*%
X197410000Y-56810436D02*
X197410000Y-58264564D01*
X195590000Y-56810436D02*
X195590000Y-58264564D01*
%TO.C,CR1*%
X177450000Y-89340000D02*
X177450000Y-93000000D01*
X177450000Y-89340000D02*
X175550000Y-89340000D01*
X175550000Y-89340000D02*
X175550000Y-93000000D01*
%TO.C,C2*%
X186735000Y-97261252D02*
X186735000Y-96738748D01*
X185265000Y-97261252D02*
X185265000Y-96738748D01*
%TO.C,VR1*%
X157378000Y-52910000D02*
X151368000Y-52910000D01*
X155128000Y-46090000D02*
X151368000Y-46090000D01*
X151368000Y-52910000D02*
X151368000Y-51650000D01*
X151368000Y-46090000D02*
X151368000Y-47350000D01*
%TO.C,CR2*%
X197360000Y-54450000D02*
X197360000Y-52550000D01*
X197360000Y-54450000D02*
X193700000Y-54450000D01*
X197360000Y-52550000D02*
X193700000Y-52550000D01*
%TO.C,C6*%
X174235000Y-96788748D02*
X174235000Y-97311252D01*
X172765000Y-96788748D02*
X172765000Y-97311252D01*
%TO.C,SW1*%
X174338000Y-50310000D02*
X168218000Y-50310000D01*
X174338000Y-46690000D02*
X174338000Y-50310000D01*
X168218000Y-50310000D02*
X168218000Y-46690000D01*
X168218000Y-46690000D02*
X174338000Y-46690000D01*
%TO.C,CR3*%
X184450000Y-89740000D02*
X184450000Y-93400000D01*
X184450000Y-89740000D02*
X182550000Y-89740000D01*
X182550000Y-89740000D02*
X182550000Y-93400000D01*
%TO.C,C7*%
X159238748Y-46265000D02*
X159761252Y-46265000D01*
X159238748Y-47735000D02*
X159761252Y-47735000D01*
%TO.C,C4*%
X177235000Y-97261252D02*
X177235000Y-96738748D01*
X175765000Y-97261252D02*
X175765000Y-96738748D01*
D15*
%TO.C,I1-SRP*%
X194481200Y-93328800D02*
X194481200Y-92531240D01*
X194481200Y-90468760D02*
X194481200Y-89671200D01*
X194481200Y-89671200D02*
X190518800Y-89671200D01*
X190518800Y-93328800D02*
X194481200Y-93328800D01*
X190518800Y-92531240D02*
X190518800Y-93328800D01*
X190518800Y-89671200D02*
X190518800Y-90468760D01*
D12*
%TO.C,A2*%
X199920324Y-48810063D02*
G75*
G02*
X200500000Y-48389931I579676J-189837D01*
G01*
X200500000Y-99610000D02*
G75*
G02*
X199920324Y-99189937I0J610000D01*
G01*
X220500000Y-48390000D02*
G75*
G02*
X221079676Y-48810063I-1J-610002D01*
G01*
X221079676Y-99190000D02*
G75*
G02*
X220500000Y-99610000I-579692J190051D01*
G01*
X199890000Y-51350000D02*
X199890000Y-50930000D01*
X199890000Y-53890000D02*
X199890000Y-53470000D01*
X199890000Y-56430000D02*
X199890000Y-56010000D01*
X199890000Y-58970000D02*
X199890000Y-58550000D01*
X199890000Y-61510000D02*
X199890000Y-61090000D01*
X199890000Y-64050000D02*
X199890000Y-63630000D01*
X199890000Y-66590000D02*
X199890000Y-66170000D01*
X199890000Y-69130000D02*
X199890000Y-68710000D01*
X199890000Y-71670000D02*
X199890000Y-71250000D01*
X199890000Y-74210000D02*
X199890000Y-73790000D01*
X199890000Y-76750000D02*
X199890000Y-76330000D01*
X199890000Y-79290000D02*
X199890000Y-78870000D01*
X199890000Y-81830000D02*
X199890000Y-81410000D01*
X199890000Y-84370000D02*
X199890000Y-83950000D01*
X199890000Y-86910000D02*
X199890000Y-86490000D01*
X199890000Y-89450000D02*
X199890000Y-89030000D01*
X199890000Y-91990000D02*
X199890000Y-91570000D01*
X199890000Y-94530000D02*
X199890000Y-94110000D01*
X199890000Y-97070000D02*
X199890000Y-96650000D01*
X200230000Y-48810063D02*
X200230000Y-48453000D01*
X200230000Y-51350000D02*
X200230000Y-50930000D01*
X200230000Y-53890000D02*
X200230000Y-53470000D01*
X200230000Y-56430000D02*
X200230000Y-56010000D01*
X200230000Y-58970000D02*
X200230000Y-58550000D01*
X200230000Y-61510000D02*
X200230000Y-61090000D01*
X200230000Y-64050000D02*
X200230000Y-63630000D01*
X200230000Y-66590000D02*
X200230000Y-66170000D01*
X200230000Y-69130000D02*
X200230000Y-68710000D01*
X200230000Y-71670000D02*
X200230000Y-71250000D01*
X200230000Y-74210000D02*
X200230000Y-73790000D01*
X200230000Y-76750000D02*
X200230000Y-76330000D01*
X200230000Y-79290000D02*
X200230000Y-78870000D01*
X200230000Y-81830000D02*
X200230000Y-81410000D01*
X200230000Y-84370000D02*
X200230000Y-83950000D01*
X200230000Y-86910000D02*
X200230000Y-86490000D01*
X200230000Y-89450000D02*
X200230000Y-89030000D01*
X200230000Y-91990000D02*
X200230000Y-91570000D01*
X200230000Y-94530000D02*
X200230000Y-94110000D01*
X200230000Y-97070000D02*
X200230000Y-96650000D01*
X200230000Y-99189937D02*
X200230000Y-99547000D01*
X200500000Y-99610000D02*
X202990000Y-99610000D01*
X202990000Y-49303520D02*
X202990000Y-48390000D01*
X202990000Y-96303520D02*
X202990000Y-51696480D01*
X202990000Y-99610000D02*
X202990000Y-98696480D01*
X204337939Y-48390000D02*
X200500000Y-48390000D01*
X204337939Y-99610000D02*
X202990000Y-99610000D01*
X205262061Y-48390000D02*
X206900000Y-48390000D01*
X206265000Y-99610000D02*
X205262061Y-99610000D01*
X206600000Y-96306000D02*
X206600000Y-95090000D01*
X206600000Y-99610000D02*
X206600000Y-98694000D01*
X206896090Y-95090000D02*
X206600000Y-95090000D01*
X206900000Y-48390000D02*
X214100000Y-48390000D01*
X211746090Y-95090000D02*
X209253910Y-95090000D01*
X214100000Y-48390000D02*
X215737939Y-48390000D01*
X214400000Y-95090000D02*
X214103910Y-95090000D01*
X214400000Y-96306000D02*
X214400000Y-95090000D01*
X214400000Y-99610000D02*
X214400000Y-98694000D01*
X214735000Y-99610000D02*
X206265000Y-99610000D01*
X215737939Y-99610000D02*
X214735000Y-99610000D01*
X218010000Y-49303520D02*
X218010000Y-48390000D01*
X218010000Y-96303520D02*
X218010000Y-51696480D01*
X218010000Y-99610000D02*
X216662060Y-99610000D01*
X218010000Y-99610000D02*
X218010000Y-98696480D01*
X220500000Y-48390000D02*
X216662061Y-48390000D01*
X220500000Y-99610000D02*
X218010000Y-99610000D01*
X220770000Y-48810063D02*
X220770000Y-48453000D01*
X220770000Y-51350000D02*
X220770000Y-50930000D01*
X220770000Y-53890000D02*
X220770000Y-53470000D01*
X220770000Y-56430000D02*
X220770000Y-56010000D01*
X220770000Y-58970000D02*
X220770000Y-58550000D01*
X220770000Y-61510000D02*
X220770000Y-61090000D01*
X220770000Y-64050000D02*
X220770000Y-63630000D01*
X220770000Y-66590000D02*
X220770000Y-66170000D01*
X220770000Y-69130000D02*
X220770000Y-68710000D01*
X220770000Y-71670000D02*
X220770000Y-71250000D01*
X220770000Y-74210000D02*
X220770000Y-73790000D01*
X220770000Y-76750000D02*
X220770000Y-76330000D01*
X220770000Y-79290000D02*
X220770000Y-78870000D01*
X220770000Y-81830000D02*
X220770000Y-81410000D01*
X220770000Y-84370000D02*
X220770000Y-83950000D01*
X220770000Y-86910000D02*
X220770000Y-86490000D01*
X220770000Y-89450000D02*
X220770000Y-89030000D01*
X220770000Y-91990000D02*
X220770000Y-91570000D01*
X220770000Y-94530000D02*
X220770000Y-94110000D01*
X220770000Y-97070000D02*
X220770000Y-96650000D01*
X220770000Y-99189937D02*
X220770000Y-99547000D01*
X221079676Y-99190000D02*
X221590000Y-99190000D01*
X221110000Y-51350000D02*
X221110000Y-50930000D01*
X221110000Y-53890000D02*
X221110000Y-53470000D01*
X221110000Y-56430000D02*
X221110000Y-56010000D01*
X221110000Y-58970000D02*
X221110000Y-58550000D01*
X221110000Y-61510000D02*
X221110000Y-61090000D01*
X221110000Y-64050000D02*
X221110000Y-63630000D01*
X221110000Y-66590000D02*
X221110000Y-66170000D01*
X221110000Y-69130000D02*
X221110000Y-68710000D01*
X221110000Y-71670000D02*
X221110000Y-71250000D01*
X221110000Y-74210000D02*
X221110000Y-73790000D01*
X221110000Y-76750000D02*
X221110000Y-76330000D01*
X221110000Y-79290000D02*
X221110000Y-78870000D01*
X221110000Y-81830000D02*
X221110000Y-81410000D01*
X221110000Y-84370000D02*
X221110000Y-83950000D01*
X221110000Y-86910000D02*
X221110000Y-86490000D01*
X221110000Y-89450000D02*
X221110000Y-89030000D01*
X221110000Y-91990000D02*
X221110000Y-91570000D01*
X221110000Y-94530000D02*
X221110000Y-94110000D01*
X221110000Y-97070000D02*
X221110000Y-96650000D01*
X221110000Y-97070000D02*
X221590000Y-97070000D01*
%TD*%
M02*
