%TF.GenerationSoftware,KiCad,Pcbnew,9.0.4*%
%TF.CreationDate,2026-03-05T20:12:09-05:00*%
%TF.ProjectId,DisplayBoard,44697370-6c61-4794-926f-6172642e6b69,rev?*%
%TF.SameCoordinates,Original*%
%TF.FileFunction,Copper,L2,Bot*%
%TF.FilePolarity,Positive*%
%FSLAX46Y46*%
G04 Gerber Fmt 4.6, Leading zero omitted, Abs format (unit mm)*
G04 Created by KiCad (PCBNEW 9.0.4) date 2026-03-05 20:12:09*
%MOMM*%
%LPD*%
G01*
G04 APERTURE LIST*
G04 Aperture macros list*
%AMRoundRect*
0 Rectangle with rounded corners*
0 $1 Rounding radius*
0 $2 $3 $4 $5 $6 $7 $8 $9 X,Y pos of 4 corners*
0 Add a 4 corners polygon primitive as box body*
4,1,4,$2,$3,$4,$5,$6,$7,$8,$9,$2,$3,0*
0 Add four circle primitives for the rounded corners*
1,1,$1+$1,$2,$3*
1,1,$1+$1,$4,$5*
1,1,$1+$1,$6,$7*
1,1,$1+$1,$8,$9*
0 Add four rect primitives between the rounded corners*
20,1,$1+$1,$2,$3,$4,$5,0*
20,1,$1+$1,$4,$5,$6,$7,0*
20,1,$1+$1,$6,$7,$8,$9,0*
20,1,$1+$1,$8,$9,$2,$3,0*%
%AMFreePoly0*
4,1,37,0.603843,0.796157,0.639018,0.796157,0.711114,0.766294,0.766294,0.711114,0.796157,0.639018,0.796157,0.603843,0.800000,0.600000,0.800000,-0.600000,0.796157,-0.603843,0.796157,-0.639018,0.766294,-0.711114,0.711114,-0.766294,0.639018,-0.796157,0.603843,-0.796157,0.600000,-0.800000,0.000000,-0.800000,0.000000,-0.796148,-0.078414,-0.796148,-0.232228,-0.765552,-0.377117,-0.705537,
-0.507515,-0.618408,-0.618408,-0.507515,-0.705537,-0.377117,-0.765552,-0.232228,-0.796148,-0.078414,-0.796148,0.078414,-0.765552,0.232228,-0.705537,0.377117,-0.618408,0.507515,-0.507515,0.618408,-0.377117,0.705537,-0.232228,0.765552,-0.078414,0.796148,0.000000,0.796148,0.000000,0.800000,0.600000,0.800000,0.603843,0.796157,0.603843,0.796157,$1*%
%AMFreePoly1*
4,1,37,0.000000,0.796148,0.078414,0.796148,0.232228,0.765552,0.377117,0.705537,0.507515,0.618408,0.618408,0.507515,0.705537,0.377117,0.765552,0.232228,0.796148,0.078414,0.796148,-0.078414,0.765552,-0.232228,0.705537,-0.377117,0.618408,-0.507515,0.507515,-0.618408,0.377117,-0.705537,0.232228,-0.765552,0.078414,-0.796148,0.000000,-0.796148,0.000000,-0.800000,-0.600000,-0.800000,
-0.603843,-0.796157,-0.639018,-0.796157,-0.711114,-0.766294,-0.766294,-0.711114,-0.796157,-0.639018,-0.796157,-0.603843,-0.800000,-0.600000,-0.800000,0.600000,-0.796157,0.603843,-0.796157,0.639018,-0.766294,0.711114,-0.711114,0.766294,-0.639018,0.796157,-0.603843,0.796157,-0.600000,0.800000,0.000000,0.800000,0.000000,0.796148,0.000000,0.796148,$1*%
G04 Aperture macros list end*
%TA.AperFunction,ComponentPad*%
%ADD10RoundRect,0.200000X0.600000X0.600000X-0.600000X0.600000X-0.600000X-0.600000X0.600000X-0.600000X0*%
%TD*%
%TA.AperFunction,ComponentPad*%
%ADD11C,1.600000*%
%TD*%
%TA.AperFunction,ComponentPad*%
%ADD12FreePoly0,180.000000*%
%TD*%
%TA.AperFunction,ComponentPad*%
%ADD13FreePoly1,180.000000*%
%TD*%
%TA.AperFunction,ComponentPad*%
%ADD14R,3.000000X3.000000*%
%TD*%
%TA.AperFunction,ComponentPad*%
%ADD15C,3.000000*%
%TD*%
%TA.AperFunction,ViaPad*%
%ADD16C,0.600000*%
%TD*%
%TA.AperFunction,Conductor*%
%ADD17C,0.200000*%
%TD*%
G04 APERTURE END LIST*
D10*
%TO.P,A1,1,GPIO0*%
%TO.N,unconnected-(A1-GPIO0-Pad1)_1*%
X195750000Y-108810000D03*
D11*
%TO.P,A1,2,GPIO1*%
%TO.N,unconnected-(A1-GPIO1-Pad2)_1*%
X195750000Y-106270000D03*
D12*
%TO.P,A1,3,GND*%
%TO.N,GNDPWR*%
X195750000Y-103730000D03*
D11*
%TO.P,A1,4,GPIO2*%
%TO.N,unconnected-(A1-GPIO2-Pad4)_1*%
X195750000Y-101190000D03*
%TO.P,A1,5,GPIO3*%
%TO.N,unconnected-(A1-GPIO3-Pad5)_1*%
X195750000Y-98650000D03*
%TO.P,A1,6,GPIO4*%
%TO.N,unconnected-(A1-GPIO4-Pad6)*%
X195750000Y-96110000D03*
%TO.P,A1,7,GPIO5*%
%TO.N,unconnected-(A1-GPIO5-Pad7)_1*%
X195750000Y-93570000D03*
D12*
%TO.P,A1,8,GND*%
%TO.N,GNDPWR*%
X195750000Y-91030000D03*
D11*
%TO.P,A1,9,GPIO6*%
%TO.N,unconnected-(A1-GPIO6-Pad9)_1*%
X195750000Y-88490000D03*
%TO.P,A1,10,GPIO7*%
%TO.N,unconnected-(A1-GPIO7-Pad10)_1*%
X195750000Y-85950000D03*
%TO.P,A1,11,GPIO8*%
%TO.N,unconnected-(A1-GPIO8-Pad11)*%
X195750000Y-83410000D03*
%TO.P,A1,12,GPIO9*%
%TO.N,unconnected-(A1-GPIO9-Pad12)_1*%
X195750000Y-80870000D03*
D12*
%TO.P,A1,13,GND*%
%TO.N,GNDPWR*%
X195750000Y-78330000D03*
D11*
%TO.P,A1,14,GPIO10*%
%TO.N,Net-(A1-GPIO10)*%
X195750000Y-75790000D03*
%TO.P,A1,15,GPIO11*%
%TO.N,Net-(A1-GPIO11)*%
X195750000Y-73250000D03*
%TO.P,A1,16,GPIO12*%
%TO.N,Net-(A1-GPIO12)*%
X195750000Y-70710000D03*
%TO.P,A1,17,GPIO13*%
%TO.N,unconnected-(A1-GPIO13-Pad17)_1*%
X195750000Y-68170000D03*
D12*
%TO.P,A1,18,GND*%
%TO.N,GNDPWR*%
X195750000Y-65630000D03*
D11*
%TO.P,A1,19,GPIO14*%
%TO.N,Net-(A1-GPIO14)*%
X195750000Y-63090000D03*
%TO.P,A1,20,GPIO15*%
%TO.N,Net-(A1-GPIO15)*%
X195750000Y-60550000D03*
%TO.P,A1,21,GPIO16*%
%TO.N,unconnected-(A1-GPIO16-Pad21)*%
X177970000Y-60550000D03*
%TO.P,A1,22,GPIO17*%
%TO.N,Net-(A1-GPIO17)*%
X177970000Y-63090000D03*
D13*
%TO.P,A1,23,GND*%
%TO.N,GNDPWR*%
X177970000Y-65630000D03*
D11*
%TO.P,A1,24,GPIO18*%
%TO.N,unconnected-(A1-GPIO18-Pad24)_1*%
X177970000Y-68170000D03*
%TO.P,A1,25,GPIO19*%
%TO.N,Net-(A1-GPIO19)*%
X177970000Y-70710000D03*
%TO.P,A1,26,GPIO20*%
%TO.N,unconnected-(A1-GPIO20-Pad26)*%
X177970000Y-73250000D03*
%TO.P,A1,27,GPIO21*%
%TO.N,unconnected-(A1-GPIO21-Pad27)_1*%
X177970000Y-75790000D03*
D13*
%TO.P,A1,28,GND*%
%TO.N,GNDPWR*%
X177970000Y-78330000D03*
D11*
%TO.P,A1,29,GPIO22*%
%TO.N,unconnected-(A1-GPIO22-Pad29)*%
X177970000Y-80870000D03*
%TO.P,A1,30,RUN*%
%TO.N,unconnected-(A1-RUN-Pad30)_1*%
X177970000Y-83410000D03*
%TO.P,A1,31,GPIO26_ADC0*%
%TO.N,/out*%
X177970000Y-85950000D03*
%TO.P,A1,32,GPIO27_ADC1*%
%TO.N,unconnected-(A1-GPIO27_ADC1-Pad32)*%
X177970000Y-88490000D03*
D13*
%TO.P,A1,33,AGND*%
%TO.N,unconnected-(A1-AGND-Pad33)*%
X177970000Y-91030000D03*
D11*
%TO.P,A1,34,GPIO28_ADC2*%
%TO.N,unconnected-(A1-GPIO28_ADC2-Pad34)_1*%
X177970000Y-93570000D03*
%TO.P,A1,35,ADC_VREF*%
%TO.N,unconnected-(A1-ADC_VREF-Pad35)*%
X177970000Y-96110000D03*
%TO.P,A1,36,3V3*%
%TO.N,unconnected-(A1-3V3-Pad36)*%
X177970000Y-98650000D03*
%TO.P,A1,37,3V3_EN*%
%TO.N,unconnected-(A1-3V3_EN-Pad37)*%
X177970000Y-101190000D03*
D13*
%TO.P,A1,38,GND*%
%TO.N,GNDPWR*%
X177970000Y-103730000D03*
D11*
%TO.P,A1,39,VSYS*%
%TO.N,/3.3v*%
X177970000Y-106270000D03*
%TO.P,A1,40,VBUS*%
%TO.N,unconnected-(A1-VBUS-Pad40)*%
X177970000Y-108810000D03*
%TD*%
D14*
%TO.P,J2,1,Pin_1*%
%TO.N,Net-(J2-Pin_1)*%
X232040000Y-113500000D03*
D15*
%TO.P,J2,2,Pin_2*%
%TO.N,GNDPWR*%
X226960000Y-113500000D03*
%TD*%
D16*
%TO.N,Net-(A1-GPIO12)*%
X201000000Y-87250000D03*
%TO.N,Net-(A1-GPIO14)*%
X208750000Y-63000000D03*
%TO.N,Net-(A1-GPIO19)*%
X200500000Y-89000000D03*
%TO.N,GNDPWR*%
X202000000Y-109500000D03*
X199750000Y-76750000D03*
X197750000Y-77130000D03*
X221750000Y-115500000D03*
X199850000Y-96750000D03*
X193750000Y-92000000D03*
X200350000Y-113900000D03*
X205250000Y-90500000D03*
X213750000Y-104750000D03*
X208000000Y-115000000D03*
X199350000Y-91500000D03*
%TO.N,Net-(Q1-D)*%
X202750000Y-102250000D03*
X206250000Y-79250000D03*
%TO.N,/3.3v*%
X205250000Y-116750000D03*
X209000000Y-117000000D03*
%TO.N,/15\u002C16*%
X202500000Y-90400000D03*
X198750000Y-116650000D03*
%TO.N,/out*%
X217000000Y-106250000D03*
%TD*%
D17*
%TO.N,Net-(A1-GPIO12)*%
X201000000Y-87250000D02*
X201000000Y-70750000D01*
X200500000Y-70750000D02*
X200460000Y-70710000D01*
X200460000Y-70710000D02*
X195750000Y-70710000D01*
X201000000Y-70750000D02*
X200500000Y-70750000D01*
%TO.N,Net-(A1-GPIO14)*%
X208660000Y-63090000D02*
X195750000Y-63090000D01*
X208750000Y-63000000D02*
X208660000Y-63090000D01*
%TO.N,Net-(A1-GPIO19)*%
X191591000Y-89591000D02*
X190500000Y-88500000D01*
X199909000Y-89591000D02*
X191591000Y-89591000D01*
X188960000Y-70710000D02*
X177970000Y-70710000D01*
X190500000Y-88500000D02*
X190500000Y-72250000D01*
X190500000Y-72250000D02*
X188960000Y-70710000D01*
X200500000Y-89000000D02*
X199909000Y-89591000D01*
%TO.N,Net-(Q1-D)*%
X203250000Y-101750000D02*
X205000000Y-101750000D01*
X206250000Y-100500000D02*
X206250000Y-79250000D01*
X202750000Y-102250000D02*
X203250000Y-101750000D01*
X205000000Y-101750000D02*
X206250000Y-100500000D01*
%TO.N,/3.3v*%
X206250000Y-116750000D02*
X206750000Y-117250000D01*
X209000000Y-117250000D02*
X209000000Y-117000000D01*
X205250000Y-116750000D02*
X206250000Y-116750000D01*
X206750000Y-117250000D02*
X209000000Y-117250000D01*
%TO.N,/15\u002C16*%
X200500000Y-100750000D02*
X201750000Y-100750000D01*
X202500000Y-100000000D02*
X202500000Y-90400000D01*
X198750000Y-116650000D02*
X199250000Y-116150000D01*
X199250000Y-116150000D02*
X199250000Y-102000000D01*
X199250000Y-102000000D02*
X200500000Y-100750000D01*
X201750000Y-100750000D02*
X202500000Y-100000000D01*
%TO.N,/out*%
X199848943Y-117251000D02*
X195251000Y-117251000D01*
X210849943Y-106250000D02*
X199848943Y-117251000D01*
X217000000Y-106250000D02*
X210849943Y-106250000D01*
X195251000Y-117251000D02*
X185711000Y-107711000D01*
X185711000Y-93691000D02*
X177970000Y-85950000D01*
X185711000Y-107711000D02*
X185711000Y-93691000D01*
%TD*%
%TA.AperFunction,Conductor*%
%TO.N,GNDPWR*%
G36*
X184407177Y-58520185D02*
G01*
X184452932Y-58572989D01*
X184462876Y-58642147D01*
X184460000Y-58648444D01*
X184460000Y-59629402D01*
X184440315Y-59696441D01*
X184412056Y-59727338D01*
X179760000Y-63340104D01*
X179760000Y-63340105D01*
X179760000Y-67680000D01*
X193960000Y-67680000D01*
X193960000Y-63340105D01*
X193959999Y-63340104D01*
X191458194Y-61397213D01*
X189724426Y-60050776D01*
X189307944Y-59727338D01*
X189267069Y-59670672D01*
X189260000Y-59629402D01*
X189260000Y-58653246D01*
X189258696Y-58650858D01*
X189260000Y-58632623D01*
X189260000Y-58628638D01*
X189260285Y-58628638D01*
X189263680Y-58581166D01*
X189305552Y-58525233D01*
X189371016Y-58500816D01*
X189379862Y-58500500D01*
X274375500Y-58500500D01*
X274442539Y-58520185D01*
X274488294Y-58572989D01*
X274499500Y-58624500D01*
X274499500Y-117375500D01*
X274479815Y-117442539D01*
X274427011Y-117488294D01*
X274375500Y-117499500D01*
X236862867Y-117499500D01*
X236795828Y-117479815D01*
X236750073Y-117427011D01*
X236738887Y-117377714D01*
X236738847Y-117375500D01*
X236675673Y-113837708D01*
X236622492Y-110859568D01*
X242499500Y-110859568D01*
X242499500Y-111140431D01*
X242530942Y-111419494D01*
X242530945Y-111419512D01*
X242593439Y-111693317D01*
X242593443Y-111693329D01*
X242686200Y-111958411D01*
X242808053Y-112211442D01*
X242808055Y-112211445D01*
X242957477Y-112449248D01*
X243132584Y-112668825D01*
X243331175Y-112867416D01*
X243550752Y-113042523D01*
X243788555Y-113191945D01*
X244041592Y-113313801D01*
X244240680Y-113383465D01*
X244306670Y-113406556D01*
X244306682Y-113406560D01*
X244580491Y-113469055D01*
X244580497Y-113469055D01*
X244580505Y-113469057D01*
X244766547Y-113490018D01*
X244859569Y-113500499D01*
X244859572Y-113500500D01*
X244859575Y-113500500D01*
X245140428Y-113500500D01*
X245140429Y-113500499D01*
X245283055Y-113484429D01*
X245419494Y-113469057D01*
X245419499Y-113469056D01*
X245419509Y-113469055D01*
X245693318Y-113406560D01*
X245958408Y-113313801D01*
X246211445Y-113191945D01*
X246449248Y-113042523D01*
X246668825Y-112867416D01*
X246867416Y-112668825D01*
X247042523Y-112449248D01*
X247191945Y-112211445D01*
X247313801Y-111958408D01*
X247406560Y-111693318D01*
X247469055Y-111419509D01*
X247500500Y-111140425D01*
X247500500Y-110859575D01*
X247469055Y-110580491D01*
X247406560Y-110306682D01*
X247313801Y-110041592D01*
X247191945Y-109788555D01*
X247042523Y-109550752D01*
X246867416Y-109331175D01*
X246668825Y-109132584D01*
X246666269Y-109130546D01*
X246613060Y-109088113D01*
X246449248Y-108957477D01*
X246211445Y-108808055D01*
X246211442Y-108808053D01*
X245958411Y-108686200D01*
X245693329Y-108593443D01*
X245693317Y-108593439D01*
X245419512Y-108530945D01*
X245419494Y-108530942D01*
X245140431Y-108499500D01*
X245140425Y-108499500D01*
X244859575Y-108499500D01*
X244859568Y-108499500D01*
X244580505Y-108530942D01*
X244580487Y-108530945D01*
X244306682Y-108593439D01*
X244306670Y-108593443D01*
X244041588Y-108686200D01*
X243788557Y-108808053D01*
X243550753Y-108957476D01*
X243331175Y-109132583D01*
X243132583Y-109331175D01*
X242957476Y-109550753D01*
X242808053Y-109788557D01*
X242686200Y-110041588D01*
X242593443Y-110306670D01*
X242593439Y-110306682D01*
X242530945Y-110580487D01*
X242530942Y-110580505D01*
X242499500Y-110859568D01*
X236622492Y-110859568D01*
X236622470Y-110858310D01*
X236500000Y-104000000D01*
X222500000Y-104000000D01*
X222500000Y-117375500D01*
X222480315Y-117442539D01*
X222427511Y-117488294D01*
X222376000Y-117499500D01*
X209845134Y-117499500D01*
X209778095Y-117479815D01*
X209732340Y-117427011D01*
X209722396Y-117357853D01*
X209730573Y-117328047D01*
X209769737Y-117233497D01*
X209800500Y-117078842D01*
X209800500Y-116921158D01*
X209800500Y-116921155D01*
X209800499Y-116921153D01*
X209769738Y-116766510D01*
X209769737Y-116766503D01*
X209730242Y-116671153D01*
X209709397Y-116620827D01*
X209709390Y-116620814D01*
X209621789Y-116489711D01*
X209621786Y-116489707D01*
X209510292Y-116378213D01*
X209510288Y-116378210D01*
X209379185Y-116290609D01*
X209379172Y-116290602D01*
X209233501Y-116230264D01*
X209233489Y-116230261D01*
X209078845Y-116199500D01*
X209078842Y-116199500D01*
X208921158Y-116199500D01*
X208921155Y-116199500D01*
X208766510Y-116230261D01*
X208766498Y-116230264D01*
X208620827Y-116290602D01*
X208620814Y-116290609D01*
X208489711Y-116378210D01*
X208489707Y-116378213D01*
X208378210Y-116489710D01*
X208308266Y-116594391D01*
X208254654Y-116639196D01*
X208205164Y-116649500D01*
X207050098Y-116649500D01*
X206983059Y-116629815D01*
X206962417Y-116613181D01*
X206618717Y-116269481D01*
X206618716Y-116269480D01*
X206531904Y-116219360D01*
X206531904Y-116219359D01*
X206531900Y-116219358D01*
X206481785Y-116190423D01*
X206329057Y-116149499D01*
X206170943Y-116149499D01*
X206163347Y-116149499D01*
X206163331Y-116149500D01*
X205829766Y-116149500D01*
X205762727Y-116129815D01*
X205760875Y-116128602D01*
X205629185Y-116040609D01*
X205629172Y-116040602D01*
X205483501Y-115980264D01*
X205483489Y-115980261D01*
X205328845Y-115949500D01*
X205328842Y-115949500D01*
X205171158Y-115949500D01*
X205171155Y-115949500D01*
X205016510Y-115980261D01*
X205016498Y-115980264D01*
X204870827Y-116040602D01*
X204870814Y-116040609D01*
X204739711Y-116128210D01*
X204739707Y-116128213D01*
X204628213Y-116239707D01*
X204628210Y-116239711D01*
X204540609Y-116370814D01*
X204540602Y-116370827D01*
X204480264Y-116516498D01*
X204480261Y-116516510D01*
X204449500Y-116671153D01*
X204449500Y-116828846D01*
X204480261Y-116983489D01*
X204480264Y-116983501D01*
X204540602Y-117129172D01*
X204540609Y-117129185D01*
X204628210Y-117260288D01*
X204628213Y-117260292D01*
X204655740Y-117287819D01*
X204689225Y-117349142D01*
X204684241Y-117418834D01*
X204642369Y-117474767D01*
X204576905Y-117499184D01*
X204568059Y-117499500D01*
X200749040Y-117499500D01*
X200682001Y-117479815D01*
X200636246Y-117427011D01*
X200626302Y-117357853D01*
X200655327Y-117294297D01*
X200661359Y-117287819D01*
X211062359Y-106886819D01*
X211123682Y-106853334D01*
X211150040Y-106850500D01*
X216420234Y-106850500D01*
X216487273Y-106870185D01*
X216489125Y-106871398D01*
X216620814Y-106959390D01*
X216620827Y-106959397D01*
X216766498Y-107019735D01*
X216766503Y-107019737D01*
X216921153Y-107050499D01*
X216921156Y-107050500D01*
X216921158Y-107050500D01*
X217078844Y-107050500D01*
X217078845Y-107050499D01*
X217233497Y-107019737D01*
X217379179Y-106959394D01*
X217510289Y-106871789D01*
X217621789Y-106760289D01*
X217709394Y-106629179D01*
X217769737Y-106483497D01*
X217800500Y-106328842D01*
X217800500Y-106171158D01*
X217800500Y-106171155D01*
X217800499Y-106171153D01*
X217769738Y-106016510D01*
X217769737Y-106016503D01*
X217748597Y-105965465D01*
X217709397Y-105870827D01*
X217709390Y-105870814D01*
X217621789Y-105739711D01*
X217621786Y-105739707D01*
X217510292Y-105628213D01*
X217510288Y-105628210D01*
X217379185Y-105540609D01*
X217379172Y-105540602D01*
X217233501Y-105480264D01*
X217233489Y-105480261D01*
X217078845Y-105449500D01*
X217078842Y-105449500D01*
X216921158Y-105449500D01*
X216921155Y-105449500D01*
X216766510Y-105480261D01*
X216766498Y-105480264D01*
X216620827Y-105540602D01*
X216620814Y-105540609D01*
X216489125Y-105628602D01*
X216422447Y-105649480D01*
X216420234Y-105649500D01*
X210770883Y-105649500D01*
X210729962Y-105660464D01*
X210729962Y-105660465D01*
X210692694Y-105670451D01*
X210618157Y-105690423D01*
X210618152Y-105690426D01*
X210481233Y-105769475D01*
X210481225Y-105769481D01*
X200062182Y-116188525D01*
X200042749Y-116199136D01*
X200026015Y-116213637D01*
X200012681Y-116215554D01*
X200000859Y-116222010D01*
X199978772Y-116220430D01*
X199956857Y-116223582D01*
X199944604Y-116217986D01*
X199931167Y-116217026D01*
X199913440Y-116203755D01*
X199893301Y-116194559D01*
X199886017Y-116183226D01*
X199875234Y-116175154D01*
X199867496Y-116154408D01*
X199855525Y-116135782D01*
X199852372Y-116113861D01*
X199850817Y-116109690D01*
X199850501Y-116100847D01*
X199850501Y-116070942D01*
X199850500Y-116070938D01*
X199850500Y-105124000D01*
X199870185Y-105056961D01*
X199922989Y-105011206D01*
X199974500Y-105000000D01*
X209000000Y-105000000D01*
X209000000Y-99500000D01*
X206974500Y-99500000D01*
X206907461Y-99480315D01*
X206861706Y-99427511D01*
X206850500Y-99376000D01*
X206850500Y-79829765D01*
X206870185Y-79762726D01*
X206871398Y-79760874D01*
X206959390Y-79629185D01*
X206959390Y-79629184D01*
X206959394Y-79629179D01*
X207019737Y-79483497D01*
X207050500Y-79328842D01*
X207050500Y-79171158D01*
X207050500Y-79171155D01*
X207050499Y-79171153D01*
X207028173Y-79058913D01*
X207019737Y-79016503D01*
X207008557Y-78989511D01*
X206959397Y-78870827D01*
X206959390Y-78870814D01*
X206871789Y-78739711D01*
X206871786Y-78739707D01*
X206760292Y-78628213D01*
X206760288Y-78628210D01*
X206629185Y-78540609D01*
X206629172Y-78540602D01*
X206483501Y-78480264D01*
X206483489Y-78480261D01*
X206328845Y-78449500D01*
X206328842Y-78449500D01*
X206171158Y-78449500D01*
X206171155Y-78449500D01*
X206016510Y-78480261D01*
X206016498Y-78480264D01*
X205870827Y-78540602D01*
X205870814Y-78540609D01*
X205739711Y-78628210D01*
X205739707Y-78628213D01*
X205628213Y-78739707D01*
X205628210Y-78739711D01*
X205540609Y-78870814D01*
X205540602Y-78870827D01*
X205480264Y-79016498D01*
X205480261Y-79016510D01*
X205449500Y-79171153D01*
X205449500Y-79328846D01*
X205480261Y-79483489D01*
X205480264Y-79483501D01*
X205540602Y-79629172D01*
X205540609Y-79629185D01*
X205628602Y-79760874D01*
X205649480Y-79827551D01*
X205649500Y-79829765D01*
X205649500Y-99376000D01*
X205629815Y-99443039D01*
X205577011Y-99488794D01*
X205525500Y-99500000D01*
X203224500Y-99500000D01*
X203157461Y-99480315D01*
X203111706Y-99427511D01*
X203100500Y-99376000D01*
X203100500Y-90979765D01*
X203120185Y-90912726D01*
X203121398Y-90910874D01*
X203170755Y-90837007D01*
X203209394Y-90779179D01*
X203269737Y-90633497D01*
X203300500Y-90478842D01*
X203300500Y-90321158D01*
X203300500Y-90321155D01*
X203300499Y-90321153D01*
X203289128Y-90263989D01*
X203269737Y-90166503D01*
X203263140Y-90150576D01*
X203209397Y-90020827D01*
X203209390Y-90020814D01*
X203121789Y-89889711D01*
X203121786Y-89889707D01*
X203010292Y-89778213D01*
X203010288Y-89778210D01*
X202879185Y-89690609D01*
X202879172Y-89690602D01*
X202733501Y-89630264D01*
X202733491Y-89630261D01*
X202599808Y-89603669D01*
X202537897Y-89571284D01*
X202503323Y-89510568D01*
X202500000Y-89482052D01*
X202500000Y-86750000D01*
X201724500Y-86750000D01*
X201657461Y-86730315D01*
X201611706Y-86677511D01*
X201600500Y-86626000D01*
X201600500Y-70670945D01*
X201600500Y-70670943D01*
X201559577Y-70518216D01*
X201559573Y-70518209D01*
X201480524Y-70381290D01*
X201480518Y-70381282D01*
X201368717Y-70269481D01*
X201368709Y-70269475D01*
X201231790Y-70190426D01*
X201231786Y-70190424D01*
X201231784Y-70190423D01*
X201079057Y-70149500D01*
X201079056Y-70149500D01*
X200704666Y-70149500D01*
X200672572Y-70145275D01*
X200539057Y-70109499D01*
X200380943Y-70109499D01*
X200373347Y-70109499D01*
X200373331Y-70109500D01*
X196979602Y-70109500D01*
X196912563Y-70089815D01*
X196869117Y-70041795D01*
X196862284Y-70028385D01*
X196741971Y-69862786D01*
X196597213Y-69718028D01*
X196431614Y-69597715D01*
X196425006Y-69594348D01*
X196338917Y-69550483D01*
X196288123Y-69502511D01*
X196271328Y-69434690D01*
X196293865Y-69368555D01*
X196338917Y-69329516D01*
X196431610Y-69282287D01*
X196452770Y-69266913D01*
X196597213Y-69161971D01*
X196597215Y-69161968D01*
X196597219Y-69161966D01*
X196741966Y-69017219D01*
X196741968Y-69017215D01*
X196741971Y-69017213D01*
X196794732Y-68944590D01*
X196862287Y-68851610D01*
X196955220Y-68669219D01*
X197018477Y-68474534D01*
X197050500Y-68272352D01*
X197050500Y-68067648D01*
X197039865Y-68000500D01*
X197018477Y-67865465D01*
X196962097Y-67691946D01*
X196955220Y-67670781D01*
X196955218Y-67670778D01*
X196955218Y-67670776D01*
X196889869Y-67542523D01*
X196862287Y-67488390D01*
X196854556Y-67477749D01*
X196741971Y-67322786D01*
X196597213Y-67178028D01*
X196431614Y-67057715D01*
X196423410Y-67053535D01*
X196345703Y-67013941D01*
X196294908Y-66965968D01*
X196278113Y-66898147D01*
X196300650Y-66832012D01*
X196343546Y-66794099D01*
X196409503Y-66758843D01*
X196409515Y-66758837D01*
X196478913Y-66712465D01*
X195879410Y-66112962D01*
X195942993Y-66095925D01*
X196057007Y-66030099D01*
X196150099Y-65937007D01*
X196215925Y-65822993D01*
X196232962Y-65759410D01*
X196832464Y-66358913D01*
X196832465Y-66358913D01*
X196878837Y-66289515D01*
X196878838Y-66289511D01*
X196925509Y-66202198D01*
X196985814Y-66056612D01*
X197014555Y-65961864D01*
X197045298Y-65807302D01*
X197045298Y-65807299D01*
X197055000Y-65708789D01*
X197055000Y-65551210D01*
X197045298Y-65452701D01*
X197030895Y-65380287D01*
X197030895Y-65380286D01*
X197026774Y-65359568D01*
X264999500Y-65359568D01*
X264999500Y-65640431D01*
X265030942Y-65919494D01*
X265030945Y-65919512D01*
X265093439Y-66193317D01*
X265093443Y-66193329D01*
X265186200Y-66458411D01*
X265308053Y-66711442D01*
X265308055Y-66711445D01*
X265457477Y-66949248D01*
X265632584Y-67168825D01*
X265831175Y-67367416D01*
X266050752Y-67542523D01*
X266288555Y-67691945D01*
X266541592Y-67813801D01*
X266740680Y-67883465D01*
X266806670Y-67906556D01*
X266806682Y-67906560D01*
X267080491Y-67969055D01*
X267080497Y-67969055D01*
X267080505Y-67969057D01*
X267266547Y-67990018D01*
X267359569Y-68000499D01*
X267359572Y-68000500D01*
X267359575Y-68000500D01*
X267640428Y-68000500D01*
X267640429Y-68000499D01*
X267783055Y-67984429D01*
X267919494Y-67969057D01*
X267919499Y-67969056D01*
X267919509Y-67969055D01*
X268193318Y-67906560D01*
X268458408Y-67813801D01*
X268711445Y-67691945D01*
X268949248Y-67542523D01*
X269168825Y-67367416D01*
X269367416Y-67168825D01*
X269542523Y-66949248D01*
X269691945Y-66711445D01*
X269813801Y-66458408D01*
X269906560Y-66193318D01*
X269969055Y-65919509D01*
X270000500Y-65640425D01*
X270000500Y-65359575D01*
X269978473Y-65164075D01*
X269969057Y-65080505D01*
X269969054Y-65080487D01*
X269906560Y-64806682D01*
X269906556Y-64806670D01*
X269815880Y-64547534D01*
X269813801Y-64541592D01*
X269691945Y-64288555D01*
X269542523Y-64050752D01*
X269367416Y-63831175D01*
X269168825Y-63632584D01*
X268949248Y-63457477D01*
X268711445Y-63308055D01*
X268711442Y-63308053D01*
X268458411Y-63186200D01*
X268193329Y-63093443D01*
X268193317Y-63093439D01*
X267919512Y-63030945D01*
X267919494Y-63030942D01*
X267640431Y-62999500D01*
X267640425Y-62999500D01*
X267359575Y-62999500D01*
X267359568Y-62999500D01*
X267080505Y-63030942D01*
X267080487Y-63030945D01*
X266806682Y-63093439D01*
X266806670Y-63093443D01*
X266541588Y-63186200D01*
X266288557Y-63308053D01*
X266050753Y-63457476D01*
X265831175Y-63632583D01*
X265632583Y-63831175D01*
X265457476Y-64050753D01*
X265308053Y-64288557D01*
X265186200Y-64541588D01*
X265093443Y-64806670D01*
X265093439Y-64806682D01*
X265030945Y-65080487D01*
X265030942Y-65080505D01*
X264999500Y-65359568D01*
X197026774Y-65359568D01*
X197014554Y-65298135D01*
X196985814Y-65203387D01*
X196925509Y-65057801D01*
X196878844Y-64970498D01*
X196878838Y-64970488D01*
X196832465Y-64901085D01*
X196232962Y-65500588D01*
X196215925Y-65437007D01*
X196150099Y-65322993D01*
X196057007Y-65229901D01*
X195942993Y-65164075D01*
X195879410Y-65147037D01*
X196478912Y-64547534D01*
X196409511Y-64501161D01*
X196409500Y-64501155D01*
X196343545Y-64465900D01*
X196293701Y-64416937D01*
X196278241Y-64348799D01*
X196302073Y-64283119D01*
X196345702Y-64246059D01*
X196431610Y-64202287D01*
X196522745Y-64136074D01*
X196597213Y-64081971D01*
X196597215Y-64081968D01*
X196597219Y-64081966D01*
X196741966Y-63937219D01*
X196741968Y-63937215D01*
X196741971Y-63937213D01*
X196862284Y-63771614D01*
X196862285Y-63771613D01*
X196862287Y-63771610D01*
X196869117Y-63758204D01*
X196917091Y-63707409D01*
X196979602Y-63690500D01*
X208304929Y-63690500D01*
X208364638Y-63708032D01*
X208365447Y-63706521D01*
X208370815Y-63709390D01*
X208370821Y-63709394D01*
X208516503Y-63769737D01*
X208671153Y-63800499D01*
X208671156Y-63800500D01*
X208671158Y-63800500D01*
X208828844Y-63800500D01*
X208828845Y-63800499D01*
X208983497Y-63769737D01*
X209129179Y-63709394D01*
X209260289Y-63621789D01*
X209371789Y-63510289D01*
X209459394Y-63379179D01*
X209519737Y-63233497D01*
X209550500Y-63078842D01*
X209550500Y-62921158D01*
X209550500Y-62921155D01*
X209550499Y-62921153D01*
X209523509Y-62785466D01*
X209519737Y-62766503D01*
X209519735Y-62766498D01*
X209459397Y-62620827D01*
X209459390Y-62620814D01*
X209371789Y-62489711D01*
X209371786Y-62489707D01*
X209260292Y-62378213D01*
X209260288Y-62378210D01*
X209129185Y-62290609D01*
X209129172Y-62290602D01*
X208983501Y-62230264D01*
X208983489Y-62230261D01*
X208828845Y-62199500D01*
X208828842Y-62199500D01*
X208671158Y-62199500D01*
X208671155Y-62199500D01*
X208516510Y-62230261D01*
X208516498Y-62230264D01*
X208370827Y-62290602D01*
X208370814Y-62290609D01*
X208239712Y-62378209D01*
X208209537Y-62408385D01*
X208164739Y-62453182D01*
X208103419Y-62486666D01*
X208077060Y-62489500D01*
X196979602Y-62489500D01*
X196912563Y-62469815D01*
X196869117Y-62421795D01*
X196862284Y-62408385D01*
X196741971Y-62242786D01*
X196597213Y-62098028D01*
X196431614Y-61977715D01*
X196425006Y-61974348D01*
X196338917Y-61930483D01*
X196288123Y-61882511D01*
X196271328Y-61814690D01*
X196293865Y-61748555D01*
X196338917Y-61709516D01*
X196431610Y-61662287D01*
X196452770Y-61646913D01*
X196597213Y-61541971D01*
X196597215Y-61541968D01*
X196597219Y-61541966D01*
X196741966Y-61397219D01*
X196741968Y-61397215D01*
X196741971Y-61397213D01*
X196794732Y-61324590D01*
X196862287Y-61231610D01*
X196955220Y-61049219D01*
X197018477Y-60854534D01*
X197050500Y-60652352D01*
X197050500Y-60447648D01*
X197018477Y-60245466D01*
X196955220Y-60050781D01*
X196955218Y-60050778D01*
X196955218Y-60050776D01*
X196921503Y-59984607D01*
X196862287Y-59868390D01*
X196854556Y-59857749D01*
X196741971Y-59702786D01*
X196597213Y-59558028D01*
X196431613Y-59437715D01*
X196431612Y-59437714D01*
X196431610Y-59437713D01*
X196374653Y-59408691D01*
X196249223Y-59344781D01*
X196054534Y-59281522D01*
X195879995Y-59253878D01*
X195852352Y-59249500D01*
X195647648Y-59249500D01*
X195623329Y-59253351D01*
X195445465Y-59281522D01*
X195250776Y-59344781D01*
X195068386Y-59437715D01*
X194902786Y-59558028D01*
X194758028Y-59702786D01*
X194637715Y-59868386D01*
X194544781Y-60050776D01*
X194481522Y-60245465D01*
X194449500Y-60447648D01*
X194449500Y-60652351D01*
X194481522Y-60854534D01*
X194544781Y-61049223D01*
X194637715Y-61231613D01*
X194758028Y-61397213D01*
X194902786Y-61541971D01*
X195057749Y-61654556D01*
X195068390Y-61662287D01*
X195159840Y-61708883D01*
X195161080Y-61709515D01*
X195211876Y-61757490D01*
X195228671Y-61825311D01*
X195206134Y-61891446D01*
X195161080Y-61930485D01*
X195068386Y-61977715D01*
X194902786Y-62098028D01*
X194758028Y-62242786D01*
X194637715Y-62408386D01*
X194544781Y-62590776D01*
X194481522Y-62785465D01*
X194449500Y-62987648D01*
X194449500Y-63192351D01*
X194481522Y-63394534D01*
X194544781Y-63589223D01*
X194596385Y-63690500D01*
X194636759Y-63769738D01*
X194637715Y-63771613D01*
X194758028Y-63937213D01*
X194902782Y-64081967D01*
X194902787Y-64081971D01*
X194979583Y-64137767D01*
X195022249Y-64193097D01*
X195028228Y-64262710D01*
X194995622Y-64324505D01*
X194937365Y-64358233D01*
X194916973Y-64363437D01*
X194916962Y-64363441D01*
X194860415Y-64386863D01*
X195620589Y-65147037D01*
X195557007Y-65164075D01*
X195442993Y-65229901D01*
X195349901Y-65322993D01*
X195284075Y-65437007D01*
X195267037Y-65500589D01*
X194506863Y-64740415D01*
X194506862Y-64740415D01*
X194483446Y-64796947D01*
X194483431Y-64796987D01*
X194465457Y-64847939D01*
X194465455Y-64847946D01*
X194445000Y-64990219D01*
X194445000Y-66269785D01*
X194447893Y-66323762D01*
X194447893Y-66323764D01*
X194483438Y-66463030D01*
X194483442Y-66463043D01*
X194506862Y-66519584D01*
X195267037Y-65759410D01*
X195284075Y-65822993D01*
X195349901Y-65937007D01*
X195442993Y-66030099D01*
X195557007Y-66095925D01*
X195620589Y-66112962D01*
X194860414Y-66873135D01*
X194916960Y-66896557D01*
X194916986Y-66896567D01*
X194945621Y-66906669D01*
X195002294Y-66947534D01*
X195027876Y-67012552D01*
X195014246Y-67081080D01*
X194977256Y-67123924D01*
X194902782Y-67178032D01*
X194758028Y-67322786D01*
X194637715Y-67488386D01*
X194544781Y-67670776D01*
X194481522Y-67865465D01*
X194449500Y-68067648D01*
X194449500Y-68272351D01*
X194481522Y-68474534D01*
X194544781Y-68669223D01*
X194637715Y-68851613D01*
X194758028Y-69017213D01*
X194902786Y-69161971D01*
X195057749Y-69274556D01*
X195068390Y-69282287D01*
X195159840Y-69328883D01*
X195161080Y-69329515D01*
X195211876Y-69377490D01*
X195228671Y-69445311D01*
X195206134Y-69511446D01*
X195161080Y-69550485D01*
X195068386Y-69597715D01*
X194902786Y-69718028D01*
X194758028Y-69862786D01*
X194637715Y-70028386D01*
X194544781Y-70210776D01*
X194481522Y-70405465D01*
X194449500Y-70607648D01*
X194449500Y-70812351D01*
X194481522Y-71014534D01*
X194544781Y-71209223D01*
X194596385Y-71310500D01*
X194619819Y-71356492D01*
X194637715Y-71391613D01*
X194758028Y-71557213D01*
X194902786Y-71701971D01*
X195057749Y-71814556D01*
X195068390Y-71822287D01*
X195159840Y-71868883D01*
X195161080Y-71869515D01*
X195211876Y-71917490D01*
X195228671Y-71985311D01*
X195206134Y-72051446D01*
X195161080Y-72090485D01*
X195068386Y-72137715D01*
X194902786Y-72258028D01*
X194758028Y-72402786D01*
X194637715Y-72568386D01*
X194544781Y-72750776D01*
X194481522Y-72945465D01*
X194449500Y-73147648D01*
X194449500Y-73352351D01*
X194481522Y-73554534D01*
X194544781Y-73749223D01*
X194637715Y-73931613D01*
X194758028Y-74097213D01*
X194902786Y-74241971D01*
X195057749Y-74354556D01*
X195068390Y-74362287D01*
X195159840Y-74408883D01*
X195161080Y-74409515D01*
X195211876Y-74457490D01*
X195228671Y-74525311D01*
X195206134Y-74591446D01*
X195161080Y-74630485D01*
X195068386Y-74677715D01*
X194902786Y-74798028D01*
X194758028Y-74942786D01*
X194637715Y-75108386D01*
X194544781Y-75290776D01*
X194481522Y-75485465D01*
X194449500Y-75687648D01*
X194449500Y-75892351D01*
X194481522Y-76094534D01*
X194544781Y-76289223D01*
X194637715Y-76471613D01*
X194758028Y-76637213D01*
X194902782Y-76781967D01*
X194902787Y-76781971D01*
X194979583Y-76837767D01*
X195022249Y-76893097D01*
X195028228Y-76962710D01*
X194995622Y-77024505D01*
X194937365Y-77058233D01*
X194916973Y-77063437D01*
X194916962Y-77063441D01*
X194860415Y-77086863D01*
X195620589Y-77847037D01*
X195557007Y-77864075D01*
X195442993Y-77929901D01*
X195349901Y-78022993D01*
X195284075Y-78137007D01*
X195267037Y-78200589D01*
X194506863Y-77440415D01*
X194506862Y-77440415D01*
X194483446Y-77496947D01*
X194483431Y-77496987D01*
X194465457Y-77547939D01*
X194465455Y-77547946D01*
X194445000Y-77690219D01*
X194445000Y-78969785D01*
X194447893Y-79023762D01*
X194447893Y-79023764D01*
X194483438Y-79163030D01*
X194483442Y-79163043D01*
X194506862Y-79219584D01*
X195267037Y-78459410D01*
X195284075Y-78522993D01*
X195349901Y-78637007D01*
X195442993Y-78730099D01*
X195557007Y-78795925D01*
X195620589Y-78812962D01*
X194860414Y-79573135D01*
X194916960Y-79596557D01*
X194916986Y-79596567D01*
X194945621Y-79606669D01*
X195002294Y-79647534D01*
X195027876Y-79712552D01*
X195014246Y-79781080D01*
X194977256Y-79823924D01*
X194902782Y-79878032D01*
X194758028Y-80022786D01*
X194637715Y-80188386D01*
X194544781Y-80370776D01*
X194481522Y-80565465D01*
X194449500Y-80767648D01*
X194449500Y-80972351D01*
X194481522Y-81174534D01*
X194544781Y-81369223D01*
X194637715Y-81551613D01*
X194758028Y-81717213D01*
X194902786Y-81861971D01*
X195057749Y-81974556D01*
X195068390Y-81982287D01*
X195159840Y-82028883D01*
X195161080Y-82029515D01*
X195211876Y-82077490D01*
X195228671Y-82145311D01*
X195206134Y-82211446D01*
X195161080Y-82250485D01*
X195068386Y-82297715D01*
X194902786Y-82418028D01*
X194758028Y-82562786D01*
X194637715Y-82728386D01*
X194544781Y-82910776D01*
X194481522Y-83105465D01*
X194449500Y-83307648D01*
X194449500Y-83512351D01*
X194481522Y-83714534D01*
X194544781Y-83909223D01*
X194637715Y-84091613D01*
X194758028Y-84257213D01*
X194902786Y-84401971D01*
X195057749Y-84514556D01*
X195068390Y-84522287D01*
X195159840Y-84568883D01*
X195161080Y-84569515D01*
X195211876Y-84617490D01*
X195228671Y-84685311D01*
X195206134Y-84751446D01*
X195161080Y-84790485D01*
X195068386Y-84837715D01*
X194902786Y-84958028D01*
X194758028Y-85102786D01*
X194637715Y-85268386D01*
X194544781Y-85450776D01*
X194481522Y-85645465D01*
X194449500Y-85847648D01*
X194449500Y-86052351D01*
X194481522Y-86254534D01*
X194544781Y-86449223D01*
X194637715Y-86631613D01*
X194758028Y-86797213D01*
X194902786Y-86941971D01*
X195057749Y-87054556D01*
X195068390Y-87062287D01*
X195159840Y-87108883D01*
X195161080Y-87109515D01*
X195211876Y-87157490D01*
X195228671Y-87225311D01*
X195206134Y-87291446D01*
X195161080Y-87330485D01*
X195068386Y-87377715D01*
X194902786Y-87498028D01*
X194758028Y-87642786D01*
X194637715Y-87808386D01*
X194544781Y-87990776D01*
X194481522Y-88185465D01*
X194449500Y-88387648D01*
X194449500Y-88592351D01*
X194481523Y-88794535D01*
X194481524Y-88794542D01*
X194492455Y-88828183D01*
X194494450Y-88898024D01*
X194458369Y-88957856D01*
X194395668Y-88988684D01*
X194374524Y-88990500D01*
X191891097Y-88990500D01*
X191824058Y-88970815D01*
X191803416Y-88954181D01*
X191136819Y-88287584D01*
X191103334Y-88226261D01*
X191100500Y-88199903D01*
X191100500Y-72339059D01*
X191100501Y-72339046D01*
X191100501Y-72170945D01*
X191100501Y-72170943D01*
X191059577Y-72018215D01*
X191019904Y-71949500D01*
X190980520Y-71881284D01*
X190868716Y-71769480D01*
X190864385Y-71765149D01*
X190864374Y-71765139D01*
X189447590Y-70348355D01*
X189447588Y-70348352D01*
X189328717Y-70229481D01*
X189328716Y-70229480D01*
X189241904Y-70179360D01*
X189241904Y-70179359D01*
X189241900Y-70179358D01*
X189191785Y-70150423D01*
X189039057Y-70109499D01*
X188880943Y-70109499D01*
X188873347Y-70109499D01*
X188873331Y-70109500D01*
X179199602Y-70109500D01*
X179132563Y-70089815D01*
X179089117Y-70041795D01*
X179082284Y-70028385D01*
X178961971Y-69862786D01*
X178817213Y-69718028D01*
X178651614Y-69597715D01*
X178645006Y-69594348D01*
X178558917Y-69550483D01*
X178508123Y-69502511D01*
X178491328Y-69434690D01*
X178513865Y-69368555D01*
X178558917Y-69329516D01*
X178651610Y-69282287D01*
X178672770Y-69266913D01*
X178817213Y-69161971D01*
X178817215Y-69161968D01*
X178817219Y-69161966D01*
X178961966Y-69017219D01*
X178961968Y-69017215D01*
X178961971Y-69017213D01*
X179014732Y-68944590D01*
X179082287Y-68851610D01*
X179175220Y-68669219D01*
X179238477Y-68474534D01*
X179270500Y-68272352D01*
X179270500Y-68067648D01*
X179259865Y-68000500D01*
X179238477Y-67865465D01*
X179182097Y-67691946D01*
X179175220Y-67670781D01*
X179175218Y-67670778D01*
X179175218Y-67670776D01*
X179109869Y-67542523D01*
X179082287Y-67488390D01*
X179074556Y-67477749D01*
X178961971Y-67322786D01*
X178817217Y-67178032D01*
X178740415Y-67122232D01*
X178697750Y-67066902D01*
X178691771Y-66997288D01*
X178724377Y-66935494D01*
X178782640Y-66901765D01*
X178803039Y-66896559D01*
X178859584Y-66873136D01*
X178859584Y-66873135D01*
X178099410Y-66112962D01*
X178162993Y-66095925D01*
X178277007Y-66030099D01*
X178370099Y-65937007D01*
X178435925Y-65822993D01*
X178452962Y-65759410D01*
X179213135Y-66519584D01*
X179213136Y-66519584D01*
X179236552Y-66463053D01*
X179254544Y-66412053D01*
X179274999Y-66269780D01*
X179275000Y-66269779D01*
X179275000Y-64990214D01*
X179272106Y-64936237D01*
X179272106Y-64936235D01*
X179236561Y-64796969D01*
X179236559Y-64796962D01*
X179213135Y-64740414D01*
X178452962Y-65500588D01*
X178435925Y-65437007D01*
X178370099Y-65322993D01*
X178277007Y-65229901D01*
X178162993Y-65164075D01*
X178099410Y-65147037D01*
X178859584Y-64386862D01*
X178803059Y-64363449D01*
X178803048Y-64363445D01*
X178774374Y-64353329D01*
X178717703Y-64312462D01*
X178692122Y-64247443D01*
X178705754Y-64178916D01*
X178742745Y-64136074D01*
X178817215Y-64081969D01*
X178817215Y-64081968D01*
X178817219Y-64081966D01*
X178961966Y-63937219D01*
X178961968Y-63937215D01*
X178961971Y-63937213D01*
X179061298Y-63800499D01*
X179082287Y-63771610D01*
X179175220Y-63589219D01*
X179238477Y-63394534D01*
X179270500Y-63192352D01*
X179270500Y-62987648D01*
X179238477Y-62785466D01*
X179175220Y-62590781D01*
X179175218Y-62590778D01*
X179175218Y-62590776D01*
X179123720Y-62489707D01*
X179082287Y-62408390D01*
X179060360Y-62378210D01*
X178961971Y-62242786D01*
X178817213Y-62098028D01*
X178651614Y-61977715D01*
X178645006Y-61974348D01*
X178558917Y-61930483D01*
X178508123Y-61882511D01*
X178491328Y-61814690D01*
X178513865Y-61748555D01*
X178558917Y-61709516D01*
X178651610Y-61662287D01*
X178672770Y-61646913D01*
X178817213Y-61541971D01*
X178817215Y-61541968D01*
X178817219Y-61541966D01*
X178961966Y-61397219D01*
X178961968Y-61397215D01*
X178961971Y-61397213D01*
X179014732Y-61324590D01*
X179082287Y-61231610D01*
X179175220Y-61049219D01*
X179238477Y-60854534D01*
X179270500Y-60652352D01*
X179270500Y-60447648D01*
X179238477Y-60245466D01*
X179175220Y-60050781D01*
X179175218Y-60050778D01*
X179175218Y-60050776D01*
X179141503Y-59984607D01*
X179082287Y-59868390D01*
X179074556Y-59857749D01*
X178961971Y-59702786D01*
X178817213Y-59558028D01*
X178651613Y-59437715D01*
X178651612Y-59437714D01*
X178651610Y-59437713D01*
X178594653Y-59408691D01*
X178469223Y-59344781D01*
X178274534Y-59281522D01*
X178099995Y-59253878D01*
X178072352Y-59249500D01*
X177867648Y-59249500D01*
X177843329Y-59253351D01*
X177665465Y-59281522D01*
X177470776Y-59344781D01*
X177288386Y-59437715D01*
X177122786Y-59558028D01*
X176978028Y-59702786D01*
X176857715Y-59868386D01*
X176764781Y-60050776D01*
X176701522Y-60245465D01*
X176669500Y-60447648D01*
X176669500Y-60652351D01*
X176701522Y-60854534D01*
X176764781Y-61049223D01*
X176857715Y-61231613D01*
X176978028Y-61397213D01*
X177122786Y-61541971D01*
X177277749Y-61654556D01*
X177288390Y-61662287D01*
X177379840Y-61708883D01*
X177381080Y-61709515D01*
X177431876Y-61757490D01*
X177448671Y-61825311D01*
X177426134Y-61891446D01*
X177381080Y-61930485D01*
X177288386Y-61977715D01*
X177122786Y-62098028D01*
X176978028Y-62242786D01*
X176857715Y-62408386D01*
X176764781Y-62590776D01*
X176701522Y-62785465D01*
X176669500Y-62987648D01*
X176669500Y-63192351D01*
X176701522Y-63394534D01*
X176764781Y-63589223D01*
X176816385Y-63690500D01*
X176856759Y-63769738D01*
X176857715Y-63771613D01*
X176978028Y-63937213D01*
X177122786Y-64081971D01*
X177288388Y-64202286D01*
X177288390Y-64202287D01*
X177374294Y-64246057D01*
X177425090Y-64294031D01*
X177441886Y-64361852D01*
X177419349Y-64427987D01*
X177376455Y-64465899D01*
X177310497Y-64501155D01*
X177241086Y-64547534D01*
X177241085Y-64547534D01*
X177840589Y-65147037D01*
X177777007Y-65164075D01*
X177662993Y-65229901D01*
X177569901Y-65322993D01*
X177504075Y-65437007D01*
X177487037Y-65500588D01*
X176887534Y-64901085D01*
X176887534Y-64901086D01*
X176841158Y-64970493D01*
X176794490Y-65057801D01*
X176734185Y-65203387D01*
X176705444Y-65298135D01*
X176674701Y-65452697D01*
X176674701Y-65452700D01*
X176665000Y-65551210D01*
X176665000Y-65708789D01*
X176674701Y-65807299D01*
X176674701Y-65807302D01*
X176705444Y-65961864D01*
X176734185Y-66056612D01*
X176794490Y-66202198D01*
X176841155Y-66289501D01*
X176841161Y-66289511D01*
X176887534Y-66358912D01*
X177487037Y-65759410D01*
X177504075Y-65822993D01*
X177569901Y-65937007D01*
X177662993Y-66030099D01*
X177777007Y-66095925D01*
X177840589Y-66112962D01*
X177241085Y-66712465D01*
X177310488Y-66758838D01*
X177310498Y-66758844D01*
X177376454Y-66794099D01*
X177426298Y-66843062D01*
X177441758Y-66911200D01*
X177417926Y-66976879D01*
X177374295Y-67013942D01*
X177288386Y-67057715D01*
X177122786Y-67178028D01*
X176978028Y-67322786D01*
X176857715Y-67488386D01*
X176764781Y-67670776D01*
X176701522Y-67865465D01*
X176669500Y-68067648D01*
X176669500Y-68272351D01*
X176701522Y-68474534D01*
X176764781Y-68669223D01*
X176857715Y-68851613D01*
X176978028Y-69017213D01*
X177122786Y-69161971D01*
X177277749Y-69274556D01*
X177288390Y-69282287D01*
X177379840Y-69328883D01*
X177381080Y-69329515D01*
X177431876Y-69377490D01*
X177448671Y-69445311D01*
X177426134Y-69511446D01*
X177381080Y-69550485D01*
X177288386Y-69597715D01*
X177122786Y-69718028D01*
X176978028Y-69862786D01*
X176857715Y-70028386D01*
X176764781Y-70210776D01*
X176701522Y-70405465D01*
X176669500Y-70607648D01*
X176669500Y-70812351D01*
X176701522Y-71014534D01*
X176764781Y-71209223D01*
X176816385Y-71310500D01*
X176839819Y-71356492D01*
X176857715Y-71391613D01*
X176978028Y-71557213D01*
X177122786Y-71701971D01*
X177277749Y-71814556D01*
X177288390Y-71822287D01*
X177379840Y-71868883D01*
X177381080Y-71869515D01*
X177431876Y-71917490D01*
X177448671Y-71985311D01*
X177426134Y-72051446D01*
X177381080Y-72090485D01*
X177288386Y-72137715D01*
X177122786Y-72258028D01*
X176978028Y-72402786D01*
X176857715Y-72568386D01*
X176764781Y-72750776D01*
X176701522Y-72945465D01*
X176669500Y-73147648D01*
X176669500Y-73352351D01*
X176701522Y-73554534D01*
X176764781Y-73749223D01*
X176857715Y-73931613D01*
X176978028Y-74097213D01*
X177122786Y-74241971D01*
X177277749Y-74354556D01*
X177288390Y-74362287D01*
X177379840Y-74408883D01*
X177381080Y-74409515D01*
X177431876Y-74457490D01*
X177448671Y-74525311D01*
X177426134Y-74591446D01*
X177381080Y-74630485D01*
X177288386Y-74677715D01*
X177122786Y-74798028D01*
X176978028Y-74942786D01*
X176857715Y-75108386D01*
X176764781Y-75290776D01*
X176701522Y-75485465D01*
X176669500Y-75687648D01*
X176669500Y-75892351D01*
X176701522Y-76094534D01*
X176764781Y-76289223D01*
X176857715Y-76471613D01*
X176978028Y-76637213D01*
X177122786Y-76781971D01*
X177288388Y-76902286D01*
X177288390Y-76902287D01*
X177374294Y-76946057D01*
X177425090Y-76994031D01*
X177441886Y-77061852D01*
X177419349Y-77127987D01*
X177376455Y-77165899D01*
X177310497Y-77201155D01*
X177241086Y-77247534D01*
X177241085Y-77247534D01*
X177840589Y-77847037D01*
X177777007Y-77864075D01*
X177662993Y-77929901D01*
X177569901Y-78022993D01*
X177504075Y-78137007D01*
X177487037Y-78200588D01*
X176887534Y-77601085D01*
X176887534Y-77601086D01*
X176841158Y-77670493D01*
X176794490Y-77757801D01*
X176734185Y-77903387D01*
X176705444Y-77998135D01*
X176674701Y-78152697D01*
X176674701Y-78152700D01*
X176665000Y-78251210D01*
X176665000Y-78408789D01*
X176674701Y-78507299D01*
X176674701Y-78507302D01*
X176705444Y-78661864D01*
X176734185Y-78756612D01*
X176794490Y-78902198D01*
X176841155Y-78989501D01*
X176841161Y-78989511D01*
X176887534Y-79058912D01*
X177487037Y-78459410D01*
X177504075Y-78522993D01*
X177569901Y-78637007D01*
X177662993Y-78730099D01*
X177777007Y-78795925D01*
X177840589Y-78812962D01*
X177241085Y-79412465D01*
X177310488Y-79458838D01*
X177310498Y-79458844D01*
X177376454Y-79494099D01*
X177426298Y-79543062D01*
X177441758Y-79611200D01*
X177417926Y-79676879D01*
X177374295Y-79713942D01*
X177288386Y-79757715D01*
X177122786Y-79878028D01*
X176978028Y-80022786D01*
X176857715Y-80188386D01*
X176764781Y-80370776D01*
X176701522Y-80565465D01*
X176669500Y-80767648D01*
X176669500Y-80972351D01*
X176701522Y-81174534D01*
X176764781Y-81369223D01*
X176857715Y-81551613D01*
X176978028Y-81717213D01*
X177122786Y-81861971D01*
X177277749Y-81974556D01*
X177288390Y-81982287D01*
X177379840Y-82028883D01*
X177381080Y-82029515D01*
X177431876Y-82077490D01*
X177448671Y-82145311D01*
X177426134Y-82211446D01*
X177381080Y-82250485D01*
X177288386Y-82297715D01*
X177122786Y-82418028D01*
X176978028Y-82562786D01*
X176857715Y-82728386D01*
X176764781Y-82910776D01*
X176701522Y-83105465D01*
X176669500Y-83307648D01*
X176669500Y-83512351D01*
X176701522Y-83714534D01*
X176764781Y-83909223D01*
X176857715Y-84091613D01*
X176978028Y-84257213D01*
X177122786Y-84401971D01*
X177277749Y-84514556D01*
X177288390Y-84522287D01*
X177379840Y-84568883D01*
X177381080Y-84569515D01*
X177431876Y-84617490D01*
X177448671Y-84685311D01*
X177426134Y-84751446D01*
X177381080Y-84790485D01*
X177288386Y-84837715D01*
X177122786Y-84958028D01*
X176978028Y-85102786D01*
X176857715Y-85268386D01*
X176764781Y-85450776D01*
X176701522Y-85645465D01*
X176669500Y-85847648D01*
X176669500Y-86052351D01*
X176701522Y-86254534D01*
X176764781Y-86449223D01*
X176857715Y-86631613D01*
X176978028Y-86797213D01*
X177122786Y-86941971D01*
X177277749Y-87054556D01*
X177288390Y-87062287D01*
X177379840Y-87108883D01*
X177381080Y-87109515D01*
X177431876Y-87157490D01*
X177448671Y-87225311D01*
X177426134Y-87291446D01*
X177381080Y-87330485D01*
X177288386Y-87377715D01*
X177122786Y-87498028D01*
X176978028Y-87642786D01*
X176857715Y-87808386D01*
X176764781Y-87990776D01*
X176701522Y-88185465D01*
X176669500Y-88387648D01*
X176669500Y-88592351D01*
X176701522Y-88794534D01*
X176764781Y-88989223D01*
X176857715Y-89171613D01*
X176978028Y-89337213D01*
X177122786Y-89481971D01*
X177288385Y-89602284D01*
X177288387Y-89602285D01*
X177288390Y-89602287D01*
X177343296Y-89630263D01*
X177373754Y-89645782D01*
X177424550Y-89693757D01*
X177441345Y-89761578D01*
X177418808Y-89827712D01*
X177375914Y-89865624D01*
X177310228Y-89900734D01*
X177310200Y-89900751D01*
X177179206Y-89988278D01*
X177179194Y-89988287D01*
X177179189Y-89988290D01*
X177179189Y-89988291D01*
X177102588Y-90051157D01*
X177102585Y-90051160D01*
X177102582Y-90051162D01*
X176991162Y-90162582D01*
X176991160Y-90162585D01*
X176991157Y-90162588D01*
X176951274Y-90211185D01*
X176928287Y-90239194D01*
X176928278Y-90239206D01*
X176840751Y-90370200D01*
X176840734Y-90370228D01*
X176794031Y-90457603D01*
X176794029Y-90457608D01*
X176733722Y-90603200D01*
X176724532Y-90633497D01*
X176704956Y-90698032D01*
X176704955Y-90698036D01*
X176704955Y-90698037D01*
X176674211Y-90852599D01*
X176674211Y-90852602D01*
X176664500Y-90951209D01*
X176664500Y-91108790D01*
X176674211Y-91207397D01*
X176674211Y-91207400D01*
X176674213Y-91207410D01*
X176704956Y-91361968D01*
X176725623Y-91430099D01*
X176733722Y-91456799D01*
X176794029Y-91602391D01*
X176794031Y-91602396D01*
X176840734Y-91689771D01*
X176840751Y-91689799D01*
X176928278Y-91820793D01*
X176928286Y-91820804D01*
X176928291Y-91820811D01*
X176991157Y-91897412D01*
X177102588Y-92008843D01*
X177179189Y-92071709D01*
X177179198Y-92071715D01*
X177179206Y-92071721D01*
X177310200Y-92159248D01*
X177310205Y-92159251D01*
X177310217Y-92159259D01*
X177310226Y-92159263D01*
X177310228Y-92159265D01*
X177375912Y-92194374D01*
X177425757Y-92243336D01*
X177441217Y-92311474D01*
X177417385Y-92377154D01*
X177373755Y-92414216D01*
X177288388Y-92457713D01*
X177122786Y-92578028D01*
X176978028Y-92722786D01*
X176857715Y-92888386D01*
X176764781Y-93070776D01*
X176701522Y-93265465D01*
X176669500Y-93467648D01*
X176669500Y-93672351D01*
X176701522Y-93874534D01*
X176764781Y-94069223D01*
X176857715Y-94251613D01*
X176978028Y-94417213D01*
X177122786Y-94561971D01*
X177277749Y-94674556D01*
X177288390Y-94682287D01*
X177379840Y-94728883D01*
X177381080Y-94729515D01*
X177431876Y-94777490D01*
X177448671Y-94845311D01*
X177426134Y-94911446D01*
X177381080Y-94950485D01*
X177288386Y-94997715D01*
X177122786Y-95118028D01*
X176978028Y-95262786D01*
X176857715Y-95428386D01*
X176764781Y-95610776D01*
X176701522Y-95805465D01*
X176669500Y-96007648D01*
X176669500Y-96212351D01*
X176701522Y-96414534D01*
X176764781Y-96609223D01*
X176857715Y-96791613D01*
X176978028Y-96957213D01*
X177122786Y-97101971D01*
X177277749Y-97214556D01*
X177288390Y-97222287D01*
X177379840Y-97268883D01*
X177381080Y-97269515D01*
X177431876Y-97317490D01*
X177448671Y-97385311D01*
X177426134Y-97451446D01*
X177381080Y-97490485D01*
X177288386Y-97537715D01*
X177122786Y-97658028D01*
X176978028Y-97802786D01*
X176857715Y-97968386D01*
X176764781Y-98150776D01*
X176701522Y-98345465D01*
X176669500Y-98547648D01*
X176669500Y-98752351D01*
X176701522Y-98954534D01*
X176764781Y-99149223D01*
X176857715Y-99331613D01*
X176978028Y-99497213D01*
X177122786Y-99641971D01*
X177277749Y-99754556D01*
X177288390Y-99762287D01*
X177379840Y-99808883D01*
X177381080Y-99809515D01*
X177431876Y-99857490D01*
X177448671Y-99925311D01*
X177426134Y-99991446D01*
X177381080Y-100030485D01*
X177288386Y-100077715D01*
X177122786Y-100198028D01*
X176978028Y-100342786D01*
X176857715Y-100508386D01*
X176764781Y-100690776D01*
X176701522Y-100885465D01*
X176669500Y-101087648D01*
X176669500Y-101292351D01*
X176701522Y-101494534D01*
X176764781Y-101689223D01*
X176857715Y-101871613D01*
X176978028Y-102037213D01*
X177122786Y-102181971D01*
X177288388Y-102302286D01*
X177288390Y-102302287D01*
X177374294Y-102346057D01*
X177425090Y-102394031D01*
X177441886Y-102461852D01*
X177419349Y-102527987D01*
X177376455Y-102565899D01*
X177310497Y-102601155D01*
X177241086Y-102647534D01*
X177241085Y-102647534D01*
X177840589Y-103247037D01*
X177777007Y-103264075D01*
X177662993Y-103329901D01*
X177569901Y-103422993D01*
X177504075Y-103537007D01*
X177487037Y-103600588D01*
X176887534Y-103001085D01*
X176887534Y-103001086D01*
X176841158Y-103070493D01*
X176794490Y-103157801D01*
X176734185Y-103303387D01*
X176705444Y-103398135D01*
X176674701Y-103552697D01*
X176674701Y-103552700D01*
X176665000Y-103651210D01*
X176665000Y-103808789D01*
X176674701Y-103907299D01*
X176674701Y-103907302D01*
X176705444Y-104061864D01*
X176734185Y-104156612D01*
X176794490Y-104302198D01*
X176841155Y-104389501D01*
X176841161Y-104389511D01*
X176887534Y-104458912D01*
X177487037Y-103859410D01*
X177504075Y-103922993D01*
X177569901Y-104037007D01*
X177662993Y-104130099D01*
X177777007Y-104195925D01*
X177840589Y-104212962D01*
X177241085Y-104812465D01*
X177310488Y-104858838D01*
X177310498Y-104858844D01*
X177376454Y-104894099D01*
X177426298Y-104943062D01*
X177441758Y-105011200D01*
X177417926Y-105076879D01*
X177374295Y-105113942D01*
X177288386Y-105157715D01*
X177122786Y-105278028D01*
X176978028Y-105422786D01*
X176857715Y-105588386D01*
X176764781Y-105770776D01*
X176701522Y-105965465D01*
X176669500Y-106167648D01*
X176669500Y-106372351D01*
X176701522Y-106574534D01*
X176764781Y-106769223D01*
X176857715Y-106951613D01*
X176978028Y-107117213D01*
X177122786Y-107261971D01*
X177261505Y-107362754D01*
X177288390Y-107382287D01*
X177378976Y-107428443D01*
X177381080Y-107429515D01*
X177431876Y-107477490D01*
X177448671Y-107545311D01*
X177426134Y-107611446D01*
X177381080Y-107650485D01*
X177288386Y-107697715D01*
X177122786Y-107818028D01*
X176978028Y-107962786D01*
X176857715Y-108128386D01*
X176764781Y-108310776D01*
X176701522Y-108505465D01*
X176669500Y-108707648D01*
X176669500Y-108912351D01*
X176701522Y-109114534D01*
X176764781Y-109309223D01*
X176804827Y-109387816D01*
X176844976Y-109466613D01*
X176857715Y-109491613D01*
X176978028Y-109657213D01*
X177122786Y-109801971D01*
X177277749Y-109914556D01*
X177288390Y-109922287D01*
X177386489Y-109972271D01*
X177470776Y-110015218D01*
X177470778Y-110015218D01*
X177470781Y-110015220D01*
X177551946Y-110041592D01*
X177665465Y-110078477D01*
X177766557Y-110094488D01*
X177867648Y-110110500D01*
X177867649Y-110110500D01*
X178072351Y-110110500D01*
X178072352Y-110110500D01*
X178274534Y-110078477D01*
X178469219Y-110015220D01*
X178651610Y-109922287D01*
X178771685Y-109835048D01*
X178817213Y-109801971D01*
X178817215Y-109801968D01*
X178817219Y-109801966D01*
X178961966Y-109657219D01*
X178961968Y-109657215D01*
X178961971Y-109657213D01*
X179032750Y-109559792D01*
X179082287Y-109491610D01*
X179175220Y-109309219D01*
X179238477Y-109114534D01*
X179270500Y-108912352D01*
X179270500Y-108707648D01*
X179267103Y-108686199D01*
X179238477Y-108505465D01*
X179175218Y-108310776D01*
X179099202Y-108161588D01*
X179082287Y-108128390D01*
X179074556Y-108117749D01*
X178961971Y-107962786D01*
X178817213Y-107818028D01*
X178651614Y-107697715D01*
X178645006Y-107694348D01*
X178558917Y-107650483D01*
X178508123Y-107602511D01*
X178491328Y-107534690D01*
X178513865Y-107468555D01*
X178558917Y-107429516D01*
X178651610Y-107382287D01*
X178736440Y-107320655D01*
X178817213Y-107261971D01*
X178817215Y-107261968D01*
X178817219Y-107261966D01*
X178961966Y-107117219D01*
X178961968Y-107117215D01*
X178961971Y-107117213D01*
X179014732Y-107044590D01*
X179082287Y-106951610D01*
X179175220Y-106769219D01*
X179238477Y-106574534D01*
X179270500Y-106372352D01*
X179270500Y-106167648D01*
X179238477Y-105965466D01*
X179175220Y-105770781D01*
X179175218Y-105770778D01*
X179175218Y-105770776D01*
X179119011Y-105660465D01*
X179082287Y-105588390D01*
X179059834Y-105557486D01*
X178961971Y-105422786D01*
X178817217Y-105278032D01*
X178740415Y-105222232D01*
X178697750Y-105166902D01*
X178691771Y-105097288D01*
X178724377Y-105035494D01*
X178782640Y-105001765D01*
X178803039Y-104996559D01*
X178859584Y-104973136D01*
X178859584Y-104973135D01*
X178099410Y-104212962D01*
X178162993Y-104195925D01*
X178277007Y-104130099D01*
X178370099Y-104037007D01*
X178435925Y-103922993D01*
X178452962Y-103859410D01*
X179213135Y-104619584D01*
X179213136Y-104619584D01*
X179236552Y-104563053D01*
X179254544Y-104512053D01*
X179274999Y-104369780D01*
X179275000Y-104369779D01*
X179275000Y-103090214D01*
X179272106Y-103036237D01*
X179272106Y-103036235D01*
X179236561Y-102896969D01*
X179236559Y-102896962D01*
X179213135Y-102840414D01*
X178452962Y-103600588D01*
X178435925Y-103537007D01*
X178370099Y-103422993D01*
X178277007Y-103329901D01*
X178162993Y-103264075D01*
X178099410Y-103247037D01*
X178859584Y-102486862D01*
X178803059Y-102463449D01*
X178803048Y-102463445D01*
X178774374Y-102453329D01*
X178717703Y-102412462D01*
X178692122Y-102347443D01*
X178705754Y-102278916D01*
X178742745Y-102236074D01*
X178817215Y-102181969D01*
X178817215Y-102181968D01*
X178817219Y-102181966D01*
X178961966Y-102037219D01*
X178961968Y-102037215D01*
X178961971Y-102037213D01*
X179046443Y-101920945D01*
X179082287Y-101871610D01*
X179175220Y-101689219D01*
X179238477Y-101494534D01*
X179270500Y-101292352D01*
X179270500Y-101087648D01*
X179238477Y-100885466D01*
X179175220Y-100690781D01*
X179175218Y-100690778D01*
X179175218Y-100690776D01*
X179141503Y-100624607D01*
X179082287Y-100508390D01*
X179074556Y-100497749D01*
X178961971Y-100342786D01*
X178817213Y-100198028D01*
X178651614Y-100077715D01*
X178645006Y-100074348D01*
X178558917Y-100030483D01*
X178508123Y-99982511D01*
X178491328Y-99914690D01*
X178513865Y-99848555D01*
X178558917Y-99809516D01*
X178651610Y-99762287D01*
X178672770Y-99746913D01*
X178817213Y-99641971D01*
X178817215Y-99641968D01*
X178817219Y-99641966D01*
X178961966Y-99497219D01*
X178961968Y-99497215D01*
X178961971Y-99497213D01*
X179050036Y-99376000D01*
X179082287Y-99331610D01*
X179175220Y-99149219D01*
X179238477Y-98954534D01*
X179270500Y-98752352D01*
X179270500Y-98547648D01*
X179238477Y-98345466D01*
X179175220Y-98150781D01*
X179175218Y-98150778D01*
X179175218Y-98150776D01*
X179141503Y-98084607D01*
X179082287Y-97968390D01*
X179074556Y-97957749D01*
X178961971Y-97802786D01*
X178817213Y-97658028D01*
X178651614Y-97537715D01*
X178645006Y-97534348D01*
X178558917Y-97490483D01*
X178508123Y-97442511D01*
X178491328Y-97374690D01*
X178513865Y-97308555D01*
X178558917Y-97269516D01*
X178651610Y-97222287D01*
X178672770Y-97206913D01*
X178817213Y-97101971D01*
X178817215Y-97101968D01*
X178817219Y-97101966D01*
X178961966Y-96957219D01*
X178961968Y-96957215D01*
X178961971Y-96957213D01*
X179014732Y-96884590D01*
X179082287Y-96791610D01*
X179175220Y-96609219D01*
X179238477Y-96414534D01*
X179270500Y-96212352D01*
X179270500Y-96007648D01*
X179238477Y-95805466D01*
X179175220Y-95610781D01*
X179175218Y-95610778D01*
X179175218Y-95610776D01*
X179141503Y-95544607D01*
X179082287Y-95428390D01*
X179074556Y-95417749D01*
X178961971Y-95262786D01*
X178817213Y-95118028D01*
X178651614Y-94997715D01*
X178645006Y-94994348D01*
X178558917Y-94950483D01*
X178508123Y-94902511D01*
X178491328Y-94834690D01*
X178513865Y-94768555D01*
X178558917Y-94729516D01*
X178651610Y-94682287D01*
X178672770Y-94666913D01*
X178817213Y-94561971D01*
X178817215Y-94561968D01*
X178817219Y-94561966D01*
X178961966Y-94417219D01*
X178961968Y-94417215D01*
X178961971Y-94417213D01*
X179014732Y-94344590D01*
X179082287Y-94251610D01*
X179175220Y-94069219D01*
X179238477Y-93874534D01*
X179270500Y-93672352D01*
X179270500Y-93467648D01*
X179260296Y-93403225D01*
X179238477Y-93265465D01*
X179175218Y-93070776D01*
X179141503Y-93004607D01*
X179082287Y-92888390D01*
X179074556Y-92877749D01*
X178961971Y-92722786D01*
X178817217Y-92578032D01*
X178817212Y-92578028D01*
X178740936Y-92522610D01*
X178698270Y-92467280D01*
X178692291Y-92397667D01*
X178724897Y-92335872D01*
X178783158Y-92302143D01*
X178803226Y-92297022D01*
X178876735Y-92266574D01*
X178925551Y-92243219D01*
X179040733Y-92156994D01*
X179096994Y-92100733D01*
X179133157Y-92060475D01*
X179206574Y-91936735D01*
X179237022Y-91863226D01*
X179255024Y-91812198D01*
X179275500Y-91669782D01*
X179275500Y-90390218D01*
X179272604Y-90336185D01*
X179237022Y-90196774D01*
X179234837Y-90191500D01*
X179206580Y-90123280D01*
X179206568Y-90123252D01*
X179183220Y-90074451D01*
X179183217Y-90074446D01*
X179144663Y-90022945D01*
X179096994Y-89959267D01*
X179096989Y-89959262D01*
X179096984Y-89959256D01*
X179040747Y-89903019D01*
X179038222Y-89900751D01*
X179000475Y-89866843D01*
X179000467Y-89866837D01*
X178876736Y-89793426D01*
X178876737Y-89793426D01*
X178808001Y-89764956D01*
X178803226Y-89762978D01*
X178803217Y-89762975D01*
X178803205Y-89762970D01*
X178774863Y-89752971D01*
X178718193Y-89712103D01*
X178692613Y-89647084D01*
X178706246Y-89578558D01*
X178743236Y-89535717D01*
X178817215Y-89481969D01*
X178817215Y-89481968D01*
X178817219Y-89481966D01*
X178961966Y-89337219D01*
X178961968Y-89337215D01*
X178961971Y-89337213D01*
X179014732Y-89264590D01*
X179082287Y-89171610D01*
X179175220Y-88989219D01*
X179238477Y-88794534D01*
X179270500Y-88592352D01*
X179270500Y-88399097D01*
X179290185Y-88332058D01*
X179342989Y-88286303D01*
X179412147Y-88276359D01*
X179475703Y-88305384D01*
X179482181Y-88311416D01*
X185074181Y-93903416D01*
X185107666Y-93964739D01*
X185110500Y-93991097D01*
X185110500Y-104472539D01*
X185090815Y-104539578D01*
X185038011Y-104585333D01*
X184968853Y-104595277D01*
X184930206Y-104583024D01*
X184886241Y-104560623D01*
X184886232Y-104560619D01*
X184710265Y-104503445D01*
X184618889Y-104488972D01*
X184527514Y-104474500D01*
X184342486Y-104474500D01*
X184281569Y-104484148D01*
X184159734Y-104503445D01*
X183983767Y-104560619D01*
X183983764Y-104560620D01*
X183818903Y-104644622D01*
X183733499Y-104706672D01*
X183669213Y-104753379D01*
X183669211Y-104753381D01*
X183669210Y-104753381D01*
X183538381Y-104884210D01*
X183538381Y-104884211D01*
X183538379Y-104884213D01*
X183503651Y-104932012D01*
X183429622Y-105033903D01*
X183345620Y-105198764D01*
X183345619Y-105198767D01*
X183288445Y-105374734D01*
X183259500Y-105557486D01*
X183259500Y-105742513D01*
X183288445Y-105925265D01*
X183345619Y-106101232D01*
X183345620Y-106101235D01*
X183429622Y-106266096D01*
X183538379Y-106415787D01*
X183669213Y-106546621D01*
X183818904Y-106655378D01*
X183899763Y-106696577D01*
X183983764Y-106739379D01*
X183983767Y-106739380D01*
X184048120Y-106760289D01*
X184159736Y-106796555D01*
X184342486Y-106825500D01*
X184342487Y-106825500D01*
X184527513Y-106825500D01*
X184527514Y-106825500D01*
X184710264Y-106796555D01*
X184886235Y-106739379D01*
X184930205Y-106716974D01*
X184998874Y-106704079D01*
X185063614Y-106730355D01*
X185103872Y-106787461D01*
X185110500Y-106827460D01*
X185110500Y-107476068D01*
X185090815Y-107543107D01*
X185038011Y-107588862D01*
X184968853Y-107598806D01*
X184913615Y-107576387D01*
X184842815Y-107524948D01*
X184653414Y-107428444D01*
X184653413Y-107428443D01*
X184653412Y-107428443D01*
X184451243Y-107362754D01*
X184451241Y-107362753D01*
X184451240Y-107362753D01*
X184289957Y-107337208D01*
X184241287Y-107329500D01*
X184028713Y-107329500D01*
X183980042Y-107337208D01*
X183818760Y-107362753D01*
X183616585Y-107428444D01*
X183427179Y-107524951D01*
X183255213Y-107649890D01*
X183104890Y-107800213D01*
X182979951Y-107972179D01*
X182883444Y-108161585D01*
X182817753Y-108363760D01*
X182796254Y-108499500D01*
X182784500Y-108573713D01*
X182784500Y-108786287D01*
X182787948Y-108808055D01*
X182817753Y-108996239D01*
X182817753Y-108996241D01*
X182817754Y-108996243D01*
X182856189Y-109114534D01*
X182883444Y-109198414D01*
X182979951Y-109387820D01*
X183104890Y-109559786D01*
X183255213Y-109710109D01*
X183427179Y-109835048D01*
X183427181Y-109835049D01*
X183427184Y-109835051D01*
X183616588Y-109931557D01*
X183818757Y-109997246D01*
X184028713Y-110030500D01*
X184028714Y-110030500D01*
X184241286Y-110030500D01*
X184241287Y-110030500D01*
X184451243Y-109997246D01*
X184653412Y-109931557D01*
X184842816Y-109835051D01*
X184906813Y-109788555D01*
X185014786Y-109710109D01*
X185014788Y-109710106D01*
X185014792Y-109710104D01*
X185165104Y-109559792D01*
X185165106Y-109559788D01*
X185165109Y-109559786D01*
X185290048Y-109387820D01*
X185290047Y-109387820D01*
X185290051Y-109387816D01*
X185386557Y-109198412D01*
X185452246Y-108996243D01*
X185485500Y-108786287D01*
X185485500Y-108634097D01*
X185505185Y-108567058D01*
X185557989Y-108521303D01*
X185627147Y-108511359D01*
X185690703Y-108540384D01*
X185697181Y-108546416D01*
X194438584Y-117287819D01*
X194472069Y-117349142D01*
X194467085Y-117418834D01*
X194425213Y-117474767D01*
X194359749Y-117499184D01*
X194350903Y-117499500D01*
X175624500Y-117499500D01*
X175557461Y-117479815D01*
X175511706Y-117427011D01*
X175500500Y-117375500D01*
X175500500Y-58624500D01*
X175520185Y-58557461D01*
X175572989Y-58511706D01*
X175624500Y-58500500D01*
X184340138Y-58500500D01*
X184407177Y-58520185D01*
G37*
%TD.AperFunction*%
%TA.AperFunction,Conductor*%
G36*
X188726942Y-71330185D02*
G01*
X188747584Y-71346819D01*
X189863181Y-72462416D01*
X189896666Y-72523739D01*
X189899500Y-72550097D01*
X189899500Y-88413330D01*
X189899499Y-88413348D01*
X189899499Y-88579054D01*
X189899498Y-88579054D01*
X189899499Y-88579057D01*
X189940423Y-88731785D01*
X189960468Y-88766503D01*
X189996079Y-88828183D01*
X190019479Y-88868715D01*
X190138349Y-88987585D01*
X190138355Y-88987590D01*
X191106139Y-89955374D01*
X191106149Y-89955385D01*
X191110479Y-89959715D01*
X191110480Y-89959716D01*
X191222284Y-90071520D01*
X191309095Y-90121639D01*
X191309097Y-90121641D01*
X191343748Y-90141647D01*
X191359215Y-90150577D01*
X191511943Y-90191501D01*
X191511946Y-90191501D01*
X191677653Y-90191501D01*
X191677669Y-90191500D01*
X194330468Y-90191500D01*
X194397507Y-90211185D01*
X194443262Y-90263989D01*
X194453206Y-90333147D01*
X194445000Y-90390219D01*
X194445000Y-91669785D01*
X194447893Y-91723762D01*
X194447893Y-91723764D01*
X194483438Y-91863030D01*
X194483442Y-91863043D01*
X194506862Y-91919584D01*
X195267037Y-91159408D01*
X195284075Y-91222993D01*
X195349901Y-91337007D01*
X195442993Y-91430099D01*
X195557007Y-91495925D01*
X195620589Y-91512962D01*
X194860414Y-92273135D01*
X194916960Y-92296557D01*
X194916986Y-92296567D01*
X194945621Y-92306669D01*
X195002294Y-92347534D01*
X195027876Y-92412552D01*
X195014246Y-92481080D01*
X194977256Y-92523924D01*
X194902782Y-92578032D01*
X194758028Y-92722786D01*
X194637715Y-92888386D01*
X194544781Y-93070776D01*
X194481522Y-93265465D01*
X194449500Y-93467648D01*
X194449500Y-93672351D01*
X194481522Y-93874534D01*
X194544781Y-94069223D01*
X194637715Y-94251613D01*
X194758028Y-94417213D01*
X194902786Y-94561971D01*
X195057749Y-94674556D01*
X195068390Y-94682287D01*
X195159840Y-94728883D01*
X195161080Y-94729515D01*
X195211876Y-94777490D01*
X195228671Y-94845311D01*
X195206134Y-94911446D01*
X195161080Y-94950485D01*
X195068386Y-94997715D01*
X194902786Y-95118028D01*
X194758028Y-95262786D01*
X194637715Y-95428386D01*
X194544781Y-95610776D01*
X194481522Y-95805465D01*
X194449500Y-96007648D01*
X194449500Y-96212351D01*
X194481522Y-96414534D01*
X194544781Y-96609223D01*
X194637715Y-96791613D01*
X194758028Y-96957213D01*
X194902786Y-97101971D01*
X195057749Y-97214556D01*
X195068390Y-97222287D01*
X195159840Y-97268883D01*
X195161080Y-97269515D01*
X195211876Y-97317490D01*
X195228671Y-97385311D01*
X195206134Y-97451446D01*
X195161080Y-97490485D01*
X195068386Y-97537715D01*
X194902786Y-97658028D01*
X194758028Y-97802786D01*
X194637715Y-97968386D01*
X194544781Y-98150776D01*
X194481522Y-98345465D01*
X194449500Y-98547648D01*
X194449500Y-98752351D01*
X194481522Y-98954534D01*
X194544781Y-99149223D01*
X194637715Y-99331613D01*
X194758028Y-99497213D01*
X194902786Y-99641971D01*
X195057749Y-99754556D01*
X195068390Y-99762287D01*
X195159840Y-99808883D01*
X195161080Y-99809515D01*
X195211876Y-99857490D01*
X195228671Y-99925311D01*
X195206134Y-99991446D01*
X195161080Y-100030485D01*
X195068386Y-100077715D01*
X194902786Y-100198028D01*
X194758028Y-100342786D01*
X194637715Y-100508386D01*
X194544781Y-100690776D01*
X194481522Y-100885465D01*
X194449500Y-101087648D01*
X194449500Y-101292351D01*
X194481522Y-101494534D01*
X194544781Y-101689223D01*
X194637715Y-101871613D01*
X194758028Y-102037213D01*
X194902782Y-102181967D01*
X194902787Y-102181971D01*
X194979583Y-102237767D01*
X195022249Y-102293097D01*
X195028228Y-102362710D01*
X194995622Y-102424505D01*
X194937365Y-102458233D01*
X194916973Y-102463437D01*
X194916962Y-102463441D01*
X194860415Y-102486863D01*
X195620589Y-103247037D01*
X195557007Y-103264075D01*
X195442993Y-103329901D01*
X195349901Y-103422993D01*
X195284075Y-103537007D01*
X195267037Y-103600589D01*
X194506863Y-102840415D01*
X194506862Y-102840415D01*
X194483446Y-102896947D01*
X194483431Y-102896987D01*
X194465457Y-102947939D01*
X194465455Y-102947946D01*
X194445000Y-103090219D01*
X194445000Y-104369785D01*
X194447893Y-104423762D01*
X194447893Y-104423764D01*
X194483438Y-104563030D01*
X194483442Y-104563043D01*
X194506862Y-104619584D01*
X195267037Y-103859410D01*
X195284075Y-103922993D01*
X195349901Y-104037007D01*
X195442993Y-104130099D01*
X195557007Y-104195925D01*
X195620589Y-104212962D01*
X194860414Y-104973135D01*
X194916960Y-104996557D01*
X194916986Y-104996567D01*
X194945621Y-105006669D01*
X195002294Y-105047534D01*
X195027876Y-105112552D01*
X195014246Y-105181080D01*
X194977256Y-105223924D01*
X194902782Y-105278032D01*
X194758028Y-105422786D01*
X194637715Y-105588386D01*
X194544781Y-105770776D01*
X194481522Y-105965465D01*
X194449500Y-106167648D01*
X194449500Y-106372351D01*
X194481522Y-106574534D01*
X194544781Y-106769223D01*
X194637715Y-106951613D01*
X194758028Y-107117213D01*
X194902786Y-107261971D01*
X194983559Y-107320655D01*
X195026225Y-107375984D01*
X195032204Y-107445598D01*
X194999599Y-107507393D01*
X194947565Y-107539358D01*
X194860396Y-107566521D01*
X194860394Y-107566521D01*
X194860394Y-107566522D01*
X194823439Y-107588862D01*
X194714811Y-107654530D01*
X194594530Y-107774811D01*
X194506522Y-107920393D01*
X194455913Y-108082807D01*
X194449500Y-108153386D01*
X194449500Y-109466613D01*
X194455913Y-109537192D01*
X194455913Y-109537194D01*
X194455914Y-109537196D01*
X194462953Y-109559786D01*
X194506522Y-109699606D01*
X194594530Y-109845188D01*
X194714811Y-109965469D01*
X194714813Y-109965470D01*
X194714815Y-109965472D01*
X194860394Y-110053478D01*
X195022804Y-110104086D01*
X195093384Y-110110500D01*
X195093387Y-110110500D01*
X196406613Y-110110500D01*
X196406616Y-110110500D01*
X196477196Y-110104086D01*
X196639606Y-110053478D01*
X196785185Y-109965472D01*
X196905472Y-109845185D01*
X196993478Y-109699606D01*
X197044086Y-109537196D01*
X197050500Y-109466616D01*
X197050500Y-108153384D01*
X197044086Y-108082804D01*
X196993478Y-107920394D01*
X196905472Y-107774815D01*
X196905470Y-107774813D01*
X196905469Y-107774811D01*
X196785188Y-107654530D01*
X196778497Y-107650485D01*
X196639606Y-107566522D01*
X196639604Y-107566521D01*
X196639602Y-107566520D01*
X196639603Y-107566520D01*
X196552435Y-107539358D01*
X196494287Y-107500621D01*
X196466313Y-107436595D01*
X196477395Y-107367610D01*
X196516441Y-107320654D01*
X196597215Y-107261969D01*
X196597215Y-107261968D01*
X196597219Y-107261966D01*
X196741966Y-107117219D01*
X196741968Y-107117215D01*
X196741971Y-107117213D01*
X196794732Y-107044590D01*
X196862287Y-106951610D01*
X196955220Y-106769219D01*
X197018477Y-106574534D01*
X197050500Y-106372352D01*
X197050500Y-106167648D01*
X197018477Y-105965466D01*
X196955220Y-105770781D01*
X196955218Y-105770778D01*
X196955218Y-105770776D01*
X196899011Y-105660465D01*
X196862287Y-105588390D01*
X196839834Y-105557486D01*
X196741971Y-105422786D01*
X196597213Y-105278028D01*
X196431614Y-105157715D01*
X196423410Y-105153535D01*
X196345703Y-105113941D01*
X196294908Y-105065968D01*
X196278113Y-104998147D01*
X196300650Y-104932012D01*
X196343546Y-104894099D01*
X196409503Y-104858843D01*
X196409515Y-104858837D01*
X196478913Y-104812465D01*
X195879410Y-104212962D01*
X195942993Y-104195925D01*
X196057007Y-104130099D01*
X196150099Y-104037007D01*
X196215925Y-103922993D01*
X196232962Y-103859410D01*
X196832464Y-104458913D01*
X196832465Y-104458913D01*
X196878837Y-104389515D01*
X196878838Y-104389511D01*
X196925509Y-104302198D01*
X196985814Y-104156612D01*
X197014555Y-104061864D01*
X197045298Y-103907302D01*
X197045298Y-103907299D01*
X197055000Y-103808789D01*
X197055000Y-103651210D01*
X197045298Y-103552700D01*
X197045298Y-103552697D01*
X197014555Y-103398135D01*
X196985814Y-103303387D01*
X196925509Y-103157801D01*
X196878844Y-103070498D01*
X196878838Y-103070488D01*
X196832465Y-103001085D01*
X196232962Y-103600588D01*
X196215925Y-103537007D01*
X196150099Y-103422993D01*
X196057007Y-103329901D01*
X195942993Y-103264075D01*
X195879410Y-103247037D01*
X196478912Y-102647534D01*
X196409511Y-102601161D01*
X196409500Y-102601155D01*
X196343545Y-102565900D01*
X196293701Y-102516937D01*
X196278241Y-102448799D01*
X196302073Y-102383119D01*
X196345702Y-102346059D01*
X196431610Y-102302287D01*
X196522745Y-102236074D01*
X196597213Y-102181971D01*
X196597215Y-102181968D01*
X196597219Y-102181966D01*
X196741966Y-102037219D01*
X196741968Y-102037215D01*
X196741971Y-102037213D01*
X196826443Y-101920945D01*
X196862287Y-101871610D01*
X196955220Y-101689219D01*
X197018477Y-101494534D01*
X197050500Y-101292352D01*
X197050500Y-101087648D01*
X197018477Y-100885466D01*
X196955220Y-100690781D01*
X196955218Y-100690778D01*
X196955218Y-100690776D01*
X196921503Y-100624607D01*
X196862287Y-100508390D01*
X196854556Y-100497749D01*
X196741971Y-100342786D01*
X196597213Y-100198028D01*
X196431614Y-100077715D01*
X196425006Y-100074348D01*
X196338917Y-100030483D01*
X196288123Y-99982511D01*
X196271328Y-99914690D01*
X196293865Y-99848555D01*
X196338917Y-99809516D01*
X196431610Y-99762287D01*
X196452770Y-99746913D01*
X196597213Y-99641971D01*
X196597215Y-99641968D01*
X196597219Y-99641966D01*
X196741966Y-99497219D01*
X196741968Y-99497215D01*
X196741971Y-99497213D01*
X196830036Y-99376000D01*
X196862287Y-99331610D01*
X196955220Y-99149219D01*
X197018477Y-98954534D01*
X197050500Y-98752352D01*
X197050500Y-98547648D01*
X197018477Y-98345466D01*
X196955220Y-98150781D01*
X196955218Y-98150778D01*
X196955218Y-98150776D01*
X196921503Y-98084607D01*
X196862287Y-97968390D01*
X196854556Y-97957749D01*
X196741971Y-97802786D01*
X196597213Y-97658028D01*
X196431614Y-97537715D01*
X196425006Y-97534348D01*
X196338917Y-97490483D01*
X196288123Y-97442511D01*
X196271328Y-97374690D01*
X196293865Y-97308555D01*
X196338917Y-97269516D01*
X196431610Y-97222287D01*
X196452770Y-97206913D01*
X196597213Y-97101971D01*
X196597215Y-97101968D01*
X196597219Y-97101966D01*
X196741966Y-96957219D01*
X196741968Y-96957215D01*
X196741971Y-96957213D01*
X196794732Y-96884590D01*
X196862287Y-96791610D01*
X196955220Y-96609219D01*
X197018477Y-96414534D01*
X197050500Y-96212352D01*
X197050500Y-96007648D01*
X197018477Y-95805466D01*
X196955220Y-95610781D01*
X196955218Y-95610778D01*
X196955218Y-95610776D01*
X196921503Y-95544607D01*
X196862287Y-95428390D01*
X196854556Y-95417749D01*
X196741971Y-95262786D01*
X196597213Y-95118028D01*
X196431614Y-94997715D01*
X196425006Y-94994348D01*
X196338917Y-94950483D01*
X196288123Y-94902511D01*
X196271328Y-94834690D01*
X196293865Y-94768555D01*
X196338917Y-94729516D01*
X196431610Y-94682287D01*
X196452770Y-94666913D01*
X196597213Y-94561971D01*
X196597215Y-94561968D01*
X196597219Y-94561966D01*
X196741966Y-94417219D01*
X196741968Y-94417215D01*
X196741971Y-94417213D01*
X196794732Y-94344590D01*
X196862287Y-94251610D01*
X196955220Y-94069219D01*
X197018477Y-93874534D01*
X197050500Y-93672352D01*
X197050500Y-93467648D01*
X197040296Y-93403225D01*
X197018477Y-93265465D01*
X196955218Y-93070776D01*
X196921503Y-93004607D01*
X196862287Y-92888390D01*
X196854556Y-92877749D01*
X196741971Y-92722786D01*
X196597213Y-92578028D01*
X196431614Y-92457715D01*
X196346242Y-92414216D01*
X196345703Y-92413941D01*
X196294908Y-92365968D01*
X196278113Y-92298147D01*
X196300650Y-92232012D01*
X196343546Y-92194099D01*
X196409503Y-92158843D01*
X196409515Y-92158837D01*
X196478913Y-92112465D01*
X195879410Y-91512962D01*
X195942993Y-91495925D01*
X196057007Y-91430099D01*
X196150099Y-91337007D01*
X196215925Y-91222993D01*
X196232962Y-91159410D01*
X196832465Y-91758913D01*
X196878837Y-91689515D01*
X196878838Y-91689511D01*
X196925509Y-91602198D01*
X196985814Y-91456612D01*
X197014555Y-91361864D01*
X197045298Y-91207302D01*
X197045298Y-91207299D01*
X197055000Y-91108789D01*
X197055000Y-90951210D01*
X197045298Y-90852700D01*
X197045298Y-90852697D01*
X197014555Y-90698135D01*
X196985814Y-90603387D01*
X196925508Y-90457799D01*
X196925506Y-90457794D01*
X196880692Y-90373953D01*
X196866450Y-90305551D01*
X196891450Y-90240307D01*
X196947755Y-90198936D01*
X196990050Y-90191500D01*
X199822331Y-90191500D01*
X199822347Y-90191501D01*
X199829943Y-90191501D01*
X199988054Y-90191501D01*
X199988057Y-90191501D01*
X200140785Y-90150577D01*
X200190904Y-90121639D01*
X200277716Y-90071520D01*
X200320268Y-90028967D01*
X200328738Y-90022945D01*
X200352329Y-90014797D01*
X200374238Y-90002834D01*
X200392726Y-90000846D01*
X200394780Y-90000137D01*
X200396172Y-90000475D01*
X200400598Y-90000000D01*
X201613652Y-90000000D01*
X201680691Y-90019685D01*
X201726446Y-90072489D01*
X201736390Y-90141647D01*
X201731233Y-90160434D01*
X201732031Y-90160676D01*
X201730261Y-90166510D01*
X201699500Y-90321153D01*
X201699500Y-90478846D01*
X201730261Y-90633489D01*
X201730264Y-90633501D01*
X201790602Y-90779172D01*
X201790609Y-90779185D01*
X201878602Y-90910874D01*
X201899480Y-90977551D01*
X201899500Y-90979765D01*
X201899500Y-99376000D01*
X201879815Y-99443039D01*
X201827011Y-99488794D01*
X201775500Y-99500000D01*
X199000000Y-99500000D01*
X199000000Y-101349402D01*
X198980315Y-101416441D01*
X198963681Y-101437083D01*
X198769481Y-101631282D01*
X198769477Y-101631287D01*
X198745088Y-101673533D01*
X198745087Y-101673535D01*
X198690423Y-101768215D01*
X198649499Y-101920943D01*
X198649499Y-101920945D01*
X198649499Y-102089046D01*
X198649500Y-102089059D01*
X198649500Y-115752044D01*
X198629815Y-115819083D01*
X198577011Y-115864838D01*
X198549691Y-115873661D01*
X198516510Y-115880261D01*
X198516498Y-115880264D01*
X198370827Y-115940602D01*
X198370814Y-115940609D01*
X198239711Y-116028210D01*
X198239707Y-116028213D01*
X198128213Y-116139707D01*
X198128210Y-116139711D01*
X198040609Y-116270814D01*
X198040602Y-116270827D01*
X197980264Y-116416498D01*
X197980261Y-116416510D01*
X197953571Y-116550691D01*
X197921186Y-116612602D01*
X197860471Y-116647176D01*
X197831954Y-116650500D01*
X195551097Y-116650500D01*
X195484058Y-116630815D01*
X195463416Y-116614181D01*
X189008454Y-110159219D01*
X188974969Y-110097896D01*
X188979953Y-110028204D01*
X189021825Y-109972271D01*
X189087289Y-109947854D01*
X189134448Y-109953606D01*
X189268757Y-109997246D01*
X189478713Y-110030500D01*
X189478714Y-110030500D01*
X189691286Y-110030500D01*
X189691287Y-110030500D01*
X189901243Y-109997246D01*
X190103412Y-109931557D01*
X190292816Y-109835051D01*
X190356813Y-109788555D01*
X190464786Y-109710109D01*
X190464788Y-109710106D01*
X190464792Y-109710104D01*
X190615104Y-109559792D01*
X190615106Y-109559788D01*
X190615109Y-109559786D01*
X190740048Y-109387820D01*
X190740047Y-109387820D01*
X190740051Y-109387816D01*
X190836557Y-109198412D01*
X190902246Y-108996243D01*
X190935500Y-108786287D01*
X190935500Y-108573713D01*
X190902246Y-108363757D01*
X190836557Y-108161588D01*
X190740051Y-107972184D01*
X190740049Y-107972181D01*
X190740048Y-107972179D01*
X190615109Y-107800213D01*
X190464786Y-107649890D01*
X190292820Y-107524951D01*
X190103414Y-107428444D01*
X190103413Y-107428443D01*
X190103412Y-107428443D01*
X189901243Y-107362754D01*
X189901241Y-107362753D01*
X189901240Y-107362753D01*
X189739957Y-107337208D01*
X189691287Y-107329500D01*
X189478713Y-107329500D01*
X189430042Y-107337208D01*
X189268760Y-107362753D01*
X189066585Y-107428444D01*
X188877179Y-107524951D01*
X188705213Y-107649890D01*
X188554890Y-107800213D01*
X188429951Y-107972179D01*
X188333444Y-108161585D01*
X188267753Y-108363760D01*
X188246254Y-108499500D01*
X188234500Y-108573713D01*
X188234500Y-108786287D01*
X188237948Y-108808055D01*
X188267753Y-108996240D01*
X188311392Y-109130546D01*
X188313387Y-109200387D01*
X188277307Y-109260220D01*
X188214606Y-109291048D01*
X188145191Y-109283083D01*
X188105780Y-109256545D01*
X186347819Y-107498584D01*
X186314334Y-107437261D01*
X186311500Y-107410903D01*
X186311500Y-105557486D01*
X188109500Y-105557486D01*
X188109500Y-105742513D01*
X188138445Y-105925265D01*
X188195619Y-106101232D01*
X188195620Y-106101235D01*
X188279622Y-106266096D01*
X188388379Y-106415787D01*
X188519213Y-106546621D01*
X188668904Y-106655378D01*
X188749763Y-106696577D01*
X188833764Y-106739379D01*
X188833767Y-106739380D01*
X188898120Y-106760289D01*
X189009736Y-106796555D01*
X189192486Y-106825500D01*
X189192487Y-106825500D01*
X189377513Y-106825500D01*
X189377514Y-106825500D01*
X189560264Y-106796555D01*
X189736235Y-106739379D01*
X189901096Y-106655378D01*
X190050787Y-106546621D01*
X190181621Y-106415787D01*
X190290378Y-106266096D01*
X190374379Y-106101235D01*
X190431555Y-105925264D01*
X190460500Y-105742514D01*
X190460500Y-105557486D01*
X190431555Y-105374736D01*
X190374379Y-105198765D01*
X190374379Y-105198764D01*
X190302126Y-105056961D01*
X190290378Y-105033904D01*
X190181621Y-104884213D01*
X190050787Y-104753379D01*
X189901096Y-104644622D01*
X189736235Y-104560620D01*
X189736232Y-104560619D01*
X189560265Y-104503445D01*
X189468889Y-104488972D01*
X189377514Y-104474500D01*
X189192486Y-104474500D01*
X189131569Y-104484148D01*
X189009734Y-104503445D01*
X188833767Y-104560619D01*
X188833764Y-104560620D01*
X188668903Y-104644622D01*
X188583499Y-104706672D01*
X188519213Y-104753379D01*
X188519211Y-104753381D01*
X188519210Y-104753381D01*
X188388381Y-104884210D01*
X188388381Y-104884211D01*
X188388379Y-104884213D01*
X188353651Y-104932012D01*
X188279622Y-105033903D01*
X188195620Y-105198764D01*
X188195619Y-105198767D01*
X188138445Y-105374734D01*
X188109500Y-105557486D01*
X186311500Y-105557486D01*
X186311500Y-93611945D01*
X186311500Y-93611943D01*
X186270577Y-93459215D01*
X186241639Y-93409095D01*
X186191520Y-93322284D01*
X186079716Y-93210480D01*
X186079715Y-93210479D01*
X186075385Y-93206149D01*
X186075374Y-93206139D01*
X179264077Y-86394842D01*
X179230592Y-86333519D01*
X179233828Y-86268841D01*
X179238477Y-86254534D01*
X179270500Y-86052352D01*
X179270500Y-85847648D01*
X179238477Y-85645466D01*
X179175220Y-85450781D01*
X179175218Y-85450778D01*
X179175218Y-85450776D01*
X179141503Y-85384607D01*
X179082287Y-85268390D01*
X179074556Y-85257749D01*
X178961971Y-85102786D01*
X178817213Y-84958028D01*
X178651614Y-84837715D01*
X178645006Y-84834348D01*
X178558917Y-84790483D01*
X178508123Y-84742511D01*
X178491328Y-84674690D01*
X178513865Y-84608555D01*
X178558917Y-84569516D01*
X178651610Y-84522287D01*
X178672770Y-84506913D01*
X178817213Y-84401971D01*
X178817215Y-84401968D01*
X178817219Y-84401966D01*
X178961966Y-84257219D01*
X178961968Y-84257215D01*
X178961971Y-84257213D01*
X179014732Y-84184590D01*
X179082287Y-84091610D01*
X179175220Y-83909219D01*
X179238477Y-83714534D01*
X179270500Y-83512352D01*
X179270500Y-83307648D01*
X179238477Y-83105466D01*
X179175220Y-82910781D01*
X179175218Y-82910778D01*
X179175218Y-82910776D01*
X179141503Y-82844607D01*
X179082287Y-82728390D01*
X179074556Y-82717749D01*
X178961971Y-82562786D01*
X178817213Y-82418028D01*
X178651614Y-82297715D01*
X178645006Y-82294348D01*
X178558917Y-82250483D01*
X178508123Y-82202511D01*
X178491328Y-82134690D01*
X178513865Y-82068555D01*
X178558917Y-82029516D01*
X178651610Y-81982287D01*
X178672770Y-81966913D01*
X178817213Y-81861971D01*
X178817215Y-81861968D01*
X178817219Y-81861966D01*
X178961966Y-81717219D01*
X178961968Y-81717215D01*
X178961971Y-81717213D01*
X179014732Y-81644590D01*
X179082287Y-81551610D01*
X179175220Y-81369219D01*
X179238477Y-81174534D01*
X179270500Y-80972352D01*
X179270500Y-80767648D01*
X179238477Y-80565466D01*
X179175220Y-80370781D01*
X179175218Y-80370778D01*
X179175218Y-80370776D01*
X179141503Y-80304607D01*
X179082287Y-80188390D01*
X179074556Y-80177749D01*
X178961971Y-80022786D01*
X178817217Y-79878032D01*
X178740415Y-79822232D01*
X178697750Y-79766902D01*
X178691771Y-79697288D01*
X178724377Y-79635494D01*
X178782640Y-79601765D01*
X178803039Y-79596559D01*
X178859584Y-79573136D01*
X178859584Y-79573135D01*
X178099410Y-78812962D01*
X178162993Y-78795925D01*
X178277007Y-78730099D01*
X178370099Y-78637007D01*
X178435925Y-78522993D01*
X178452962Y-78459410D01*
X179213135Y-79219584D01*
X179213136Y-79219584D01*
X179236552Y-79163053D01*
X179254544Y-79112053D01*
X179274999Y-78969780D01*
X179275000Y-78969779D01*
X179275000Y-77690214D01*
X179272106Y-77636237D01*
X179272106Y-77636235D01*
X179236561Y-77496969D01*
X179236559Y-77496962D01*
X179213135Y-77440414D01*
X178452962Y-78200588D01*
X178435925Y-78137007D01*
X178370099Y-78022993D01*
X178277007Y-77929901D01*
X178162993Y-77864075D01*
X178099410Y-77847037D01*
X178859584Y-77086862D01*
X178803059Y-77063449D01*
X178803048Y-77063445D01*
X178774374Y-77053329D01*
X178717703Y-77012462D01*
X178692122Y-76947443D01*
X178705754Y-76878916D01*
X178742745Y-76836074D01*
X178817215Y-76781969D01*
X178817215Y-76781968D01*
X178817219Y-76781966D01*
X178961966Y-76637219D01*
X178961968Y-76637215D01*
X178961971Y-76637213D01*
X179014732Y-76564590D01*
X179082287Y-76471610D01*
X179175220Y-76289219D01*
X179238477Y-76094534D01*
X179270500Y-75892352D01*
X179270500Y-75687648D01*
X179238477Y-75485466D01*
X179175220Y-75290781D01*
X179175218Y-75290778D01*
X179175218Y-75290776D01*
X179141503Y-75224607D01*
X179082287Y-75108390D01*
X179074556Y-75097749D01*
X178961971Y-74942786D01*
X178817213Y-74798028D01*
X178651614Y-74677715D01*
X178645006Y-74674348D01*
X178558917Y-74630483D01*
X178508123Y-74582511D01*
X178491328Y-74514690D01*
X178513865Y-74448555D01*
X178558917Y-74409516D01*
X178651610Y-74362287D01*
X178672770Y-74346913D01*
X178817213Y-74241971D01*
X178817215Y-74241968D01*
X178817219Y-74241966D01*
X178961966Y-74097219D01*
X178961968Y-74097215D01*
X178961971Y-74097213D01*
X179014732Y-74024590D01*
X179082287Y-73931610D01*
X179175220Y-73749219D01*
X179238477Y-73554534D01*
X179270500Y-73352352D01*
X179270500Y-73147648D01*
X179238477Y-72945466D01*
X179175220Y-72750781D01*
X179175218Y-72750778D01*
X179175218Y-72750776D01*
X179141503Y-72684607D01*
X179082287Y-72568390D01*
X179074556Y-72557749D01*
X178961971Y-72402786D01*
X178817213Y-72258028D01*
X178651614Y-72137715D01*
X178645006Y-72134348D01*
X178558917Y-72090483D01*
X178508123Y-72042511D01*
X178491328Y-71974690D01*
X178513865Y-71908555D01*
X178558917Y-71869516D01*
X178651610Y-71822287D01*
X178672770Y-71806913D01*
X178817213Y-71701971D01*
X178817215Y-71701968D01*
X178817219Y-71701966D01*
X178961966Y-71557219D01*
X178961968Y-71557215D01*
X178961971Y-71557213D01*
X179082284Y-71391614D01*
X179082285Y-71391613D01*
X179082287Y-71391610D01*
X179089117Y-71378204D01*
X179137091Y-71327409D01*
X179199602Y-71310500D01*
X188659903Y-71310500D01*
X188726942Y-71330185D01*
G37*
%TD.AperFunction*%
%TA.AperFunction,Conductor*%
G36*
X200287427Y-71314725D02*
G01*
X200307592Y-71320128D01*
X200367253Y-71356492D01*
X200397783Y-71419339D01*
X200399500Y-71439903D01*
X200399500Y-86626000D01*
X200379815Y-86693039D01*
X200327011Y-86738794D01*
X200275500Y-86750000D01*
X198500000Y-86750000D01*
X198500000Y-88866500D01*
X198480315Y-88933539D01*
X198427511Y-88979294D01*
X198376000Y-88990500D01*
X197125476Y-88990500D01*
X197058437Y-88970815D01*
X197012682Y-88918011D01*
X197002738Y-88848853D01*
X197007545Y-88828183D01*
X197018475Y-88794542D01*
X197018475Y-88794538D01*
X197018477Y-88794534D01*
X197050500Y-88592352D01*
X197050500Y-88387648D01*
X197038426Y-88311416D01*
X197018477Y-88185465D01*
X196955218Y-87990776D01*
X196921503Y-87924607D01*
X196862287Y-87808390D01*
X196854556Y-87797749D01*
X196741971Y-87642786D01*
X196597213Y-87498028D01*
X196431614Y-87377715D01*
X196425006Y-87374348D01*
X196338917Y-87330483D01*
X196288123Y-87282511D01*
X196271328Y-87214690D01*
X196293865Y-87148555D01*
X196338917Y-87109516D01*
X196431610Y-87062287D01*
X196452770Y-87046913D01*
X196597213Y-86941971D01*
X196597215Y-86941968D01*
X196597219Y-86941966D01*
X196741966Y-86797219D01*
X196741968Y-86797215D01*
X196741971Y-86797213D01*
X196799215Y-86718422D01*
X196862287Y-86631610D01*
X196955220Y-86449219D01*
X197018477Y-86254534D01*
X197050500Y-86052352D01*
X197050500Y-85847648D01*
X197018477Y-85645466D01*
X196955220Y-85450781D01*
X196955218Y-85450778D01*
X196955218Y-85450776D01*
X196921503Y-85384607D01*
X196862287Y-85268390D01*
X196854556Y-85257749D01*
X196741971Y-85102786D01*
X196597213Y-84958028D01*
X196431614Y-84837715D01*
X196425006Y-84834348D01*
X196338917Y-84790483D01*
X196288123Y-84742511D01*
X196271328Y-84674690D01*
X196293865Y-84608555D01*
X196338917Y-84569516D01*
X196431610Y-84522287D01*
X196452770Y-84506913D01*
X196597213Y-84401971D01*
X196597215Y-84401968D01*
X196597219Y-84401966D01*
X196741966Y-84257219D01*
X196741968Y-84257215D01*
X196741971Y-84257213D01*
X196794732Y-84184590D01*
X196862287Y-84091610D01*
X196955220Y-83909219D01*
X197018477Y-83714534D01*
X197050500Y-83512352D01*
X197050500Y-83307648D01*
X197018477Y-83105466D01*
X196955220Y-82910781D01*
X196955218Y-82910778D01*
X196955218Y-82910776D01*
X196921503Y-82844607D01*
X196862287Y-82728390D01*
X196854556Y-82717749D01*
X196741971Y-82562786D01*
X196597213Y-82418028D01*
X196431614Y-82297715D01*
X196425006Y-82294348D01*
X196338917Y-82250483D01*
X196288123Y-82202511D01*
X196271328Y-82134690D01*
X196293865Y-82068555D01*
X196338917Y-82029516D01*
X196431610Y-81982287D01*
X196452770Y-81966913D01*
X196597213Y-81861971D01*
X196597215Y-81861968D01*
X196597219Y-81861966D01*
X196741966Y-81717219D01*
X196741968Y-81717215D01*
X196741971Y-81717213D01*
X196794732Y-81644590D01*
X196862287Y-81551610D01*
X196955220Y-81369219D01*
X197018477Y-81174534D01*
X197050500Y-80972352D01*
X197050500Y-80767648D01*
X197018477Y-80565466D01*
X196955220Y-80370781D01*
X196955218Y-80370778D01*
X196955218Y-80370776D01*
X196921503Y-80304607D01*
X196862287Y-80188390D01*
X196854556Y-80177749D01*
X196741971Y-80022786D01*
X196597213Y-79878028D01*
X196431614Y-79757715D01*
X196423410Y-79753535D01*
X196345703Y-79713941D01*
X196294908Y-79665968D01*
X196278113Y-79598147D01*
X196300650Y-79532012D01*
X196343546Y-79494099D01*
X196409503Y-79458843D01*
X196409515Y-79458837D01*
X196478913Y-79412465D01*
X195879410Y-78812962D01*
X195942993Y-78795925D01*
X196057007Y-78730099D01*
X196150099Y-78637007D01*
X196215925Y-78522993D01*
X196232962Y-78459410D01*
X196832464Y-79058913D01*
X196832465Y-79058913D01*
X196878837Y-78989515D01*
X196878838Y-78989511D01*
X196925509Y-78902198D01*
X196985814Y-78756612D01*
X197014555Y-78661864D01*
X197045298Y-78507302D01*
X197045298Y-78507299D01*
X197055000Y-78408789D01*
X197055000Y-78251210D01*
X197045298Y-78152700D01*
X197045298Y-78152697D01*
X197014555Y-77998135D01*
X196985814Y-77903387D01*
X196925509Y-77757801D01*
X196878844Y-77670498D01*
X196878838Y-77670488D01*
X196832465Y-77601085D01*
X196232962Y-78200588D01*
X196215925Y-78137007D01*
X196150099Y-78022993D01*
X196057007Y-77929901D01*
X195942993Y-77864075D01*
X195879410Y-77847037D01*
X196478912Y-77247534D01*
X196409511Y-77201161D01*
X196409500Y-77201155D01*
X196343545Y-77165900D01*
X196293701Y-77116937D01*
X196278241Y-77048799D01*
X196302073Y-76983119D01*
X196345702Y-76946059D01*
X196431610Y-76902287D01*
X196522745Y-76836074D01*
X196597213Y-76781971D01*
X196597215Y-76781968D01*
X196597219Y-76781966D01*
X196741966Y-76637219D01*
X196741968Y-76637215D01*
X196741971Y-76637213D01*
X196794732Y-76564590D01*
X196862287Y-76471610D01*
X196955220Y-76289219D01*
X197018477Y-76094534D01*
X197050500Y-75892352D01*
X197050500Y-75687648D01*
X197018477Y-75485466D01*
X196955220Y-75290781D01*
X196955218Y-75290778D01*
X196955218Y-75290776D01*
X196921503Y-75224607D01*
X196862287Y-75108390D01*
X196854556Y-75097749D01*
X196741971Y-74942786D01*
X196597213Y-74798028D01*
X196431614Y-74677715D01*
X196425006Y-74674348D01*
X196338917Y-74630483D01*
X196288123Y-74582511D01*
X196271328Y-74514690D01*
X196293865Y-74448555D01*
X196338917Y-74409516D01*
X196431610Y-74362287D01*
X196452770Y-74346913D01*
X196597213Y-74241971D01*
X196597215Y-74241968D01*
X196597219Y-74241966D01*
X196741966Y-74097219D01*
X196741968Y-74097215D01*
X196741971Y-74097213D01*
X196794732Y-74024590D01*
X196862287Y-73931610D01*
X196955220Y-73749219D01*
X197018477Y-73554534D01*
X197050500Y-73352352D01*
X197050500Y-73147648D01*
X197018477Y-72945466D01*
X196955220Y-72750781D01*
X196955218Y-72750778D01*
X196955218Y-72750776D01*
X196921503Y-72684607D01*
X196862287Y-72568390D01*
X196854556Y-72557749D01*
X196741971Y-72402786D01*
X196597213Y-72258028D01*
X196431614Y-72137715D01*
X196425006Y-72134348D01*
X196338917Y-72090483D01*
X196288123Y-72042511D01*
X196271328Y-71974690D01*
X196293865Y-71908555D01*
X196338917Y-71869516D01*
X196431610Y-71822287D01*
X196452770Y-71806913D01*
X196597213Y-71701971D01*
X196597215Y-71701968D01*
X196597219Y-71701966D01*
X196741966Y-71557219D01*
X196741968Y-71557215D01*
X196741971Y-71557213D01*
X196862284Y-71391614D01*
X196862285Y-71391613D01*
X196862287Y-71391610D01*
X196869117Y-71378204D01*
X196917091Y-71327409D01*
X196979602Y-71310500D01*
X200255335Y-71310500D01*
X200287427Y-71314725D01*
G37*
%TD.AperFunction*%
%TD*%
M02*
