%TF.GenerationSoftware,KiCad,Pcbnew,9.0.4*%
%TF.CreationDate,2026-03-05T20:12:09-05:00*%
%TF.ProjectId,DisplayBoard,44697370-6c61-4794-926f-6172642e6b69,rev?*%
%TF.SameCoordinates,Original*%
%TF.FileFunction,Copper,L1,Top*%
%TF.FilePolarity,Positive*%
%FSLAX46Y46*%
G04 Gerber Fmt 4.6, Leading zero omitted, Abs format (unit mm)*
G04 Created by KiCad (PCBNEW 9.0.4) date 2026-03-05 20:12:09*
%MOMM*%
%LPD*%
G01*
G04 APERTURE LIST*
G04 Aperture macros list*
%AMRoundRect*
0 Rectangle with rounded corners*
0 $1 Rounding radius*
0 $2 $3 $4 $5 $6 $7 $8 $9 X,Y pos of 4 corners*
0 Add a 4 corners polygon primitive as box body*
4,1,4,$2,$3,$4,$5,$6,$7,$8,$9,$2,$3,0*
0 Add four circle primitives for the rounded corners*
1,1,$1+$1,$2,$3*
1,1,$1+$1,$4,$5*
1,1,$1+$1,$6,$7*
1,1,$1+$1,$8,$9*
0 Add four rect primitives between the rounded corners*
20,1,$1+$1,$2,$3,$4,$5,0*
20,1,$1+$1,$4,$5,$6,$7,0*
20,1,$1+$1,$6,$7,$8,$9,0*
20,1,$1+$1,$8,$9,$2,$3,0*%
%AMFreePoly0*
4,1,37,0.800000,0.796148,0.878414,0.796148,1.032228,0.765552,1.177117,0.705537,1.307515,0.618408,1.418408,0.507515,1.505537,0.377117,1.565552,0.232228,1.596148,0.078414,1.596148,-0.078414,1.565552,-0.232228,1.505537,-0.377117,1.418408,-0.507515,1.307515,-0.618408,1.177117,-0.705537,1.032228,-0.765552,0.878414,-0.796148,0.800000,-0.796148,0.800000,-0.800000,-1.400000,-0.800000,
-1.403843,-0.796157,-1.439018,-0.796157,-1.511114,-0.766294,-1.566294,-0.711114,-1.596157,-0.639018,-1.596157,-0.603843,-1.600000,-0.600000,-1.600000,0.600000,-1.596157,0.603843,-1.596157,0.639018,-1.566294,0.711114,-1.511114,0.766294,-1.439018,0.796157,-1.403843,0.796157,-1.400000,0.800000,0.800000,0.800000,0.800000,0.796148,0.800000,0.796148,$1*%
%AMFreePoly1*
4,1,37,1.403843,0.796157,1.439018,0.796157,1.511114,0.766294,1.566294,0.711114,1.596157,0.639018,1.596157,0.603843,1.600000,0.600000,1.600000,-0.600000,1.596157,-0.603843,1.596157,-0.639018,1.566294,-0.711114,1.511114,-0.766294,1.439018,-0.796157,1.403843,-0.796157,1.400000,-0.800000,-0.800000,-0.800000,-0.800000,-0.796148,-0.878414,-0.796148,-1.032228,-0.765552,-1.177117,-0.705537,
-1.307515,-0.618408,-1.418408,-0.507515,-1.505537,-0.377117,-1.565552,-0.232228,-1.596148,-0.078414,-1.596148,0.078414,-1.565552,0.232228,-1.505537,0.377117,-1.418408,0.507515,-1.307515,0.618408,-1.177117,0.705537,-1.032228,0.765552,-0.878414,0.796148,-0.800000,0.796148,-0.800000,0.800000,1.400000,0.800000,1.403843,0.796157,1.403843,0.796157,$1*%
%AMFreePoly2*
4,1,37,0.603843,0.796157,0.639018,0.796157,0.711114,0.766294,0.766294,0.711114,0.796157,0.639018,0.796157,0.603843,0.800000,0.600000,0.800000,-0.600000,0.796157,-0.603843,0.796157,-0.639018,0.766294,-0.711114,0.711114,-0.766294,0.639018,-0.796157,0.603843,-0.796157,0.600000,-0.800000,0.000000,-0.800000,0.000000,-0.796148,-0.078414,-0.796148,-0.232228,-0.765552,-0.377117,-0.705537,
-0.507515,-0.618408,-0.618408,-0.507515,-0.705537,-0.377117,-0.765552,-0.232228,-0.796148,-0.078414,-0.796148,0.078414,-0.765552,0.232228,-0.705537,0.377117,-0.618408,0.507515,-0.507515,0.618408,-0.377117,0.705537,-0.232228,0.765552,-0.078414,0.796148,0.000000,0.796148,0.000000,0.800000,0.600000,0.800000,0.603843,0.796157,0.603843,0.796157,$1*%
%AMFreePoly3*
4,1,37,0.000000,0.796148,0.078414,0.796148,0.232228,0.765552,0.377117,0.705537,0.507515,0.618408,0.618408,0.507515,0.705537,0.377117,0.765552,0.232228,0.796148,0.078414,0.796148,-0.078414,0.765552,-0.232228,0.705537,-0.377117,0.618408,-0.507515,0.507515,-0.618408,0.377117,-0.705537,0.232228,-0.765552,0.078414,-0.796148,0.000000,-0.796148,0.000000,-0.800000,-0.600000,-0.800000,
-0.603843,-0.796157,-0.639018,-0.796157,-0.711114,-0.766294,-0.766294,-0.711114,-0.796157,-0.639018,-0.796157,-0.603843,-0.800000,-0.600000,-0.800000,0.600000,-0.796157,0.603843,-0.796157,0.639018,-0.766294,0.711114,-0.711114,0.766294,-0.639018,0.796157,-0.603843,0.796157,-0.600000,0.800000,0.000000,0.800000,0.000000,0.796148,0.000000,0.796148,$1*%
G04 Aperture macros list end*
%TA.AperFunction,Conductor*%
%ADD10C,0.200000*%
%TD*%
%TA.AperFunction,SMDPad,CuDef*%
%ADD11R,1.397000X1.574800*%
%TD*%
%TA.AperFunction,SMDPad,CuDef*%
%ADD12RoundRect,0.150000X-0.587500X-0.150000X0.587500X-0.150000X0.587500X0.150000X-0.587500X0.150000X0*%
%TD*%
%TA.AperFunction,SMDPad,CuDef*%
%ADD13RoundRect,0.250000X0.250000X0.475000X-0.250000X0.475000X-0.250000X-0.475000X0.250000X-0.475000X0*%
%TD*%
%TA.AperFunction,SMDPad,CuDef*%
%ADD14RoundRect,0.250000X0.312500X0.625000X-0.312500X0.625000X-0.312500X-0.625000X0.312500X-0.625000X0*%
%TD*%
%TA.AperFunction,SMDPad,CuDef*%
%ADD15R,0.800000X0.300000*%
%TD*%
%TA.AperFunction,SMDPad,CuDef*%
%ADD16R,0.800000X0.400000*%
%TD*%
%TA.AperFunction,SMDPad,CuDef*%
%ADD17RoundRect,0.200000X0.200000X0.275000X-0.200000X0.275000X-0.200000X-0.275000X0.200000X-0.275000X0*%
%TD*%
%TA.AperFunction,SMDPad,CuDef*%
%ADD18R,2.000000X1.500000*%
%TD*%
%TA.AperFunction,SMDPad,CuDef*%
%ADD19R,2.000000X3.800000*%
%TD*%
%TA.AperFunction,SMDPad,CuDef*%
%ADD20RoundRect,0.250000X-0.250000X-0.475000X0.250000X-0.475000X0.250000X0.475000X-0.250000X0.475000X0*%
%TD*%
%TA.AperFunction,SMDPad,CuDef*%
%ADD21R,2.180000X1.600000*%
%TD*%
%TA.AperFunction,SMDPad,CuDef*%
%ADD22RoundRect,0.250000X0.475000X-0.250000X0.475000X0.250000X-0.475000X0.250000X-0.475000X-0.250000X0*%
%TD*%
%TA.AperFunction,SMDPad,CuDef*%
%ADD23FreePoly0,180.000000*%
%TD*%
%TA.AperFunction,ComponentPad*%
%ADD24RoundRect,0.200000X0.600000X0.600000X-0.600000X0.600000X-0.600000X-0.600000X0.600000X-0.600000X0*%
%TD*%
%TA.AperFunction,SMDPad,CuDef*%
%ADD25RoundRect,0.800000X0.800000X0.000010X-0.800000X0.000010X-0.800000X-0.000010X0.800000X-0.000010X0*%
%TD*%
%TA.AperFunction,ComponentPad*%
%ADD26C,1.600000*%
%TD*%
%TA.AperFunction,SMDPad,CuDef*%
%ADD27FreePoly1,180.000000*%
%TD*%
%TA.AperFunction,ComponentPad*%
%ADD28FreePoly2,180.000000*%
%TD*%
%TA.AperFunction,ComponentPad*%
%ADD29FreePoly3,180.000000*%
%TD*%
%TA.AperFunction,ComponentPad*%
%ADD30R,3.000000X3.000000*%
%TD*%
%TA.AperFunction,ComponentPad*%
%ADD31C,3.000000*%
%TD*%
%TA.AperFunction,SMDPad,CuDef*%
%ADD32RoundRect,0.250000X-0.475000X0.250000X-0.475000X-0.250000X0.475000X-0.250000X0.475000X0.250000X0*%
%TD*%
%TA.AperFunction,SMDPad,CuDef*%
%ADD33R,1.200000X1.200000*%
%TD*%
%TA.AperFunction,ViaPad*%
%ADD34C,0.600000*%
%TD*%
G04 APERTURE END LIST*
D10*
%TO.N,Net-(Q1-G)*%
X203750000Y-83000000D02*
X202250000Y-83000000D01*
%TD*%
D11*
%TO.P,SRP3012TA-100M1,1,1*%
%TO.N,/15\u002C16*%
X196500000Y-115438400D03*
%TO.P,SRP3012TA-100M1,2,2*%
%TO.N,Net-(Q1-D)*%
X196500000Y-113000000D03*
%TD*%
D12*
%TO.P,Q1,1,G*%
%TO.N,Net-(Q1-G)*%
X203875000Y-74050000D03*
%TO.P,Q1,2,S*%
%TO.N,Net-(Q1-S)*%
X203875000Y-75950000D03*
%TO.P,Q1,3,D*%
%TO.N,Net-(Q1-D)*%
X205750000Y-75000000D03*
%TD*%
D13*
%TO.P,C1,1*%
%TO.N,Net-(C1-Pad1)*%
X201750000Y-84750000D03*
%TO.P,C1,2*%
%TO.N,GNDPWR*%
X199850000Y-84750000D03*
%TD*%
D14*
%TO.P,R2,1*%
%TO.N,/3.3v*%
X207462500Y-108500000D03*
%TO.P,R2,2*%
%TO.N,Net-(Q2-G)*%
X204537500Y-108500000D03*
%TD*%
D15*
%TO.P,J1,1,1*%
%TO.N,unconnected-(J1-Pad1)*%
X204000000Y-82500000D03*
%TO.P,J1,2,2*%
%TO.N,Net-(Q1-G)*%
X204000000Y-83000000D03*
%TO.P,J1,3,3*%
%TO.N,Net-(Q1-S)*%
X204000000Y-83500000D03*
%TO.P,J1,4,4*%
%TO.N,unconnected-(J1-Pad4)*%
X204000000Y-84000000D03*
%TO.P,J1,5,5*%
%TO.N,Net-(C1-Pad1)*%
X204000000Y-84500000D03*
%TO.P,J1,6,6*%
%TO.N,unconnected-(J1-Pad6)*%
X204000000Y-85000000D03*
%TO.P,J1,7,7*%
%TO.N,unconnected-(J1-Pad7)*%
X204000000Y-85500000D03*
%TO.P,J1,8,8*%
%TO.N,Net-(A1-GPIO10)*%
X204000000Y-86000000D03*
%TO.P,J1,9,9*%
%TO.N,Net-(A1-GPIO15)*%
X204000000Y-86500000D03*
%TO.P,J1,10,10*%
%TO.N,Net-(A1-GPIO11)*%
X204000000Y-87000000D03*
%TO.P,J1,11,11*%
%TO.N,Net-(A1-GPIO12)*%
X204000000Y-87500000D03*
%TO.P,J1,12,12*%
%TO.N,Net-(A1-GPIO17)*%
X204000000Y-88000000D03*
%TO.P,J1,13,13*%
%TO.N,Net-(A1-GPIO14)*%
X204000000Y-88500000D03*
%TO.P,J1,14,14*%
%TO.N,Net-(A1-GPIO19)*%
X204000000Y-89000000D03*
%TO.P,J1,15,15*%
%TO.N,/15\u002C16*%
X204000000Y-89500000D03*
%TO.P,J1,16,16*%
X204000000Y-90000000D03*
%TO.P,J1,17,17*%
%TO.N,GNDPWR*%
X204000000Y-90500000D03*
%TO.P,J1,18,18*%
%TO.N,Net-(C2-Pad2)*%
X204000000Y-91000000D03*
%TO.P,J1,19,19*%
%TO.N,unconnected-(J1-Pad19)*%
X204000000Y-91500000D03*
%TO.P,J1,20,20*%
%TO.N,Net-(C3-Pad2)*%
X204000000Y-92000000D03*
%TO.P,J1,21,21*%
%TO.N,Net-(C7-Pad1)*%
X204000000Y-92500000D03*
%TO.P,J1,22,22*%
%TO.N,Net-(C4-Pad2)*%
X204000000Y-93000000D03*
%TO.P,J1,23,23*%
%TO.N,Net-(C6-Pad1)*%
X204000000Y-93500000D03*
%TO.P,J1,24,24*%
%TO.N,Net-(C5-Pad2)*%
X204000000Y-94000000D03*
D16*
%TO.P,J1,S1,SHIELD*%
%TO.N,unconnected-(J1-SHIELD-PadS1)*%
X206500000Y-95000000D03*
%TO.P,J1,S2,SHIELD__1*%
%TO.N,unconnected-(J1-SHIELD__1-PadS2)*%
X206500000Y-81500000D03*
%TD*%
D17*
%TO.P,R3,1*%
%TO.N,/idk*%
X220325000Y-104750000D03*
%TO.P,R3,2*%
%TO.N,/out*%
X218675000Y-104750000D03*
%TD*%
D18*
%TO.P,VR1,1,GND*%
%TO.N,GNDPWR*%
X216900000Y-112550000D03*
%TO.P,VR1,2,VO*%
%TO.N,/3.3v*%
X216900000Y-110250000D03*
D19*
X210600000Y-110250000D03*
D18*
%TO.P,VR1,3,VI*%
%TO.N,/idk*%
X216900000Y-107950000D03*
%TD*%
D20*
%TO.P,C3,1*%
%TO.N,GNDPWR*%
X199350000Y-92750000D03*
%TO.P,C3,2*%
%TO.N,Net-(C3-Pad2)*%
X201250000Y-92750000D03*
%TD*%
%TO.P,C4,1*%
%TO.N,GNDPWR*%
X199850000Y-95250000D03*
%TO.P,C4,2*%
%TO.N,Net-(C4-Pad2)*%
X201750000Y-95250000D03*
%TD*%
D21*
%TO.P,SW1,1,1*%
%TO.N,Net-(J2-Pin_1)*%
X233930000Y-107000000D03*
%TO.P,SW1,2,2*%
%TO.N,/idk*%
X224750000Y-107000000D03*
%TD*%
D22*
%TO.P,C12,1*%
%TO.N,GNDPWR*%
X219750000Y-113700000D03*
%TO.P,C12,2*%
%TO.N,/idk*%
X219750000Y-111800000D03*
%TD*%
D23*
%TO.P,A1,1,GPIO0*%
%TO.N,unconnected-(A1-GPIO0-Pad1)*%
X196550000Y-108810000D03*
D24*
%TO.N,unconnected-(A1-GPIO0-Pad1)_1*%
X195750000Y-108810000D03*
D25*
%TO.P,A1,2,GPIO1*%
%TO.N,unconnected-(A1-GPIO1-Pad2)*%
X196550000Y-106270000D03*
D26*
%TO.N,unconnected-(A1-GPIO1-Pad2)_1*%
X195750000Y-106270000D03*
D27*
%TO.P,A1,3,GND*%
%TO.N,GNDPWR*%
X196550000Y-103730000D03*
D28*
X195750000Y-103730000D03*
D25*
%TO.P,A1,4,GPIO2*%
%TO.N,unconnected-(A1-GPIO2-Pad4)*%
X196550000Y-101190000D03*
D26*
%TO.N,unconnected-(A1-GPIO2-Pad4)_1*%
X195750000Y-101190000D03*
D25*
%TO.P,A1,5,GPIO3*%
%TO.N,unconnected-(A1-GPIO3-Pad5)*%
X196550000Y-98650000D03*
D26*
%TO.N,unconnected-(A1-GPIO3-Pad5)_1*%
X195750000Y-98650000D03*
D25*
%TO.P,A1,6,GPIO4*%
%TO.N,unconnected-(A1-GPIO4-Pad6)_1*%
X196550000Y-96110000D03*
D26*
%TO.N,unconnected-(A1-GPIO4-Pad6)*%
X195750000Y-96110000D03*
D25*
%TO.P,A1,7,GPIO5*%
%TO.N,unconnected-(A1-GPIO5-Pad7)*%
X196550000Y-93570000D03*
D26*
%TO.N,unconnected-(A1-GPIO5-Pad7)_1*%
X195750000Y-93570000D03*
D27*
%TO.P,A1,8,GND*%
%TO.N,GNDPWR*%
X196550000Y-91030000D03*
D28*
X195750000Y-91030000D03*
D25*
%TO.P,A1,9,GPIO6*%
%TO.N,unconnected-(A1-GPIO6-Pad9)*%
X196550000Y-88490000D03*
D26*
%TO.N,unconnected-(A1-GPIO6-Pad9)_1*%
X195750000Y-88490000D03*
D25*
%TO.P,A1,10,GPIO7*%
%TO.N,unconnected-(A1-GPIO7-Pad10)*%
X196550000Y-85950000D03*
D26*
%TO.N,unconnected-(A1-GPIO7-Pad10)_1*%
X195750000Y-85950000D03*
D25*
%TO.P,A1,11,GPIO8*%
%TO.N,unconnected-(A1-GPIO8-Pad11)_1*%
X196550000Y-83410000D03*
D26*
%TO.N,unconnected-(A1-GPIO8-Pad11)*%
X195750000Y-83410000D03*
D25*
%TO.P,A1,12,GPIO9*%
%TO.N,unconnected-(A1-GPIO9-Pad12)*%
X196550000Y-80870000D03*
D26*
%TO.N,unconnected-(A1-GPIO9-Pad12)_1*%
X195750000Y-80870000D03*
D27*
%TO.P,A1,13,GND*%
%TO.N,GNDPWR*%
X196550000Y-78330000D03*
D28*
X195750000Y-78330000D03*
D25*
%TO.P,A1,14,GPIO10*%
%TO.N,Net-(A1-GPIO10)*%
X196550000Y-75790000D03*
D26*
X195750000Y-75790000D03*
D25*
%TO.P,A1,15,GPIO11*%
%TO.N,Net-(A1-GPIO11)*%
X196550000Y-73250000D03*
D26*
X195750000Y-73250000D03*
D25*
%TO.P,A1,16,GPIO12*%
%TO.N,Net-(A1-GPIO12)*%
X196550000Y-70710000D03*
D26*
X195750000Y-70710000D03*
D25*
%TO.P,A1,17,GPIO13*%
%TO.N,unconnected-(A1-GPIO13-Pad17)*%
X196550000Y-68170000D03*
D26*
%TO.N,unconnected-(A1-GPIO13-Pad17)_1*%
X195750000Y-68170000D03*
D27*
%TO.P,A1,18,GND*%
%TO.N,GNDPWR*%
X196550000Y-65630000D03*
D28*
X195750000Y-65630000D03*
D25*
%TO.P,A1,19,GPIO14*%
%TO.N,Net-(A1-GPIO14)*%
X196550000Y-63090000D03*
D26*
X195750000Y-63090000D03*
D25*
%TO.P,A1,20,GPIO15*%
%TO.N,Net-(A1-GPIO15)*%
X196550000Y-60550000D03*
D26*
X195750000Y-60550000D03*
%TO.P,A1,21,GPIO16*%
%TO.N,unconnected-(A1-GPIO16-Pad21)*%
X177970000Y-60550000D03*
D25*
%TO.N,unconnected-(A1-GPIO16-Pad21)_1*%
X177170000Y-60550000D03*
D26*
%TO.P,A1,22,GPIO17*%
%TO.N,Net-(A1-GPIO17)*%
X177970000Y-63090000D03*
D25*
X177170000Y-63090000D03*
D29*
%TO.P,A1,23,GND*%
%TO.N,GNDPWR*%
X177970000Y-65630000D03*
D23*
X177170000Y-65630000D03*
D26*
%TO.P,A1,24,GPIO18*%
%TO.N,unconnected-(A1-GPIO18-Pad24)_1*%
X177970000Y-68170000D03*
D25*
%TO.N,unconnected-(A1-GPIO18-Pad24)*%
X177170000Y-68170000D03*
D26*
%TO.P,A1,25,GPIO19*%
%TO.N,Net-(A1-GPIO19)*%
X177970000Y-70710000D03*
D25*
X177170000Y-70710000D03*
D26*
%TO.P,A1,26,GPIO20*%
%TO.N,unconnected-(A1-GPIO20-Pad26)*%
X177970000Y-73250000D03*
D25*
%TO.N,unconnected-(A1-GPIO20-Pad26)_1*%
X177170000Y-73250000D03*
D26*
%TO.P,A1,27,GPIO21*%
%TO.N,unconnected-(A1-GPIO21-Pad27)_1*%
X177970000Y-75790000D03*
D25*
%TO.N,unconnected-(A1-GPIO21-Pad27)*%
X177170000Y-75790000D03*
D29*
%TO.P,A1,28,GND*%
%TO.N,GNDPWR*%
X177970000Y-78330000D03*
D23*
X177170000Y-78330000D03*
D26*
%TO.P,A1,29,GPIO22*%
%TO.N,unconnected-(A1-GPIO22-Pad29)*%
X177970000Y-80870000D03*
D25*
%TO.N,unconnected-(A1-GPIO22-Pad29)_1*%
X177170000Y-80870000D03*
D26*
%TO.P,A1,30,RUN*%
%TO.N,unconnected-(A1-RUN-Pad30)_1*%
X177970000Y-83410000D03*
D25*
%TO.N,unconnected-(A1-RUN-Pad30)*%
X177170000Y-83410000D03*
D26*
%TO.P,A1,31,GPIO26_ADC0*%
%TO.N,/out*%
X177970000Y-85950000D03*
D25*
X177170000Y-85950000D03*
D26*
%TO.P,A1,32,GPIO27_ADC1*%
%TO.N,unconnected-(A1-GPIO27_ADC1-Pad32)*%
X177970000Y-88490000D03*
D25*
%TO.N,unconnected-(A1-GPIO27_ADC1-Pad32)_1*%
X177170000Y-88490000D03*
D29*
%TO.P,A1,33,AGND*%
%TO.N,unconnected-(A1-AGND-Pad33)*%
X177970000Y-91030000D03*
D23*
X177170000Y-91030000D03*
D26*
%TO.P,A1,34,GPIO28_ADC2*%
%TO.N,unconnected-(A1-GPIO28_ADC2-Pad34)_1*%
X177970000Y-93570000D03*
D25*
%TO.N,unconnected-(A1-GPIO28_ADC2-Pad34)*%
X177170000Y-93570000D03*
D26*
%TO.P,A1,35,ADC_VREF*%
%TO.N,unconnected-(A1-ADC_VREF-Pad35)*%
X177970000Y-96110000D03*
D25*
%TO.N,unconnected-(A1-ADC_VREF-Pad35)_1*%
X177170000Y-96110000D03*
D26*
%TO.P,A1,36,3V3*%
%TO.N,unconnected-(A1-3V3-Pad36)*%
X177970000Y-98650000D03*
D25*
%TO.N,unconnected-(A1-3V3-Pad36)_1*%
X177170000Y-98650000D03*
D26*
%TO.P,A1,37,3V3_EN*%
%TO.N,unconnected-(A1-3V3_EN-Pad37)*%
X177970000Y-101190000D03*
D25*
%TO.N,unconnected-(A1-3V3_EN-Pad37)_1*%
X177170000Y-101190000D03*
D29*
%TO.P,A1,38,GND*%
%TO.N,GNDPWR*%
X177970000Y-103730000D03*
D23*
X177170000Y-103730000D03*
D26*
%TO.P,A1,39,VSYS*%
%TO.N,/3.3v*%
X177970000Y-106270000D03*
D25*
X177170000Y-106270000D03*
D26*
%TO.P,A1,40,VBUS*%
%TO.N,unconnected-(A1-VBUS-Pad40)*%
X177970000Y-108810000D03*
D25*
%TO.N,unconnected-(A1-VBUS-Pad40)_1*%
X177170000Y-108810000D03*
%TD*%
D20*
%TO.P,C8,1*%
%TO.N,Net-(Q1-D)*%
X204300000Y-104750000D03*
%TO.P,C8,2*%
%TO.N,Net-(C8-Pad2)*%
X206200000Y-104750000D03*
%TD*%
D14*
%TO.P,R1,1*%
%TO.N,GNDPWR*%
X203750000Y-78750000D03*
%TO.P,R1,2*%
%TO.N,Net-(Q1-S)*%
X200825000Y-78750000D03*
%TD*%
D20*
%TO.P,C9,1*%
%TO.N,/15\u002C16*%
X204800000Y-115250000D03*
%TO.P,C9,2*%
%TO.N,GNDPWR*%
X206700000Y-115250000D03*
%TD*%
D30*
%TO.P,J2,1,Pin_1*%
%TO.N,Net-(J2-Pin_1)*%
X232040000Y-113500000D03*
D31*
%TO.P,J2,2,Pin_2*%
%TO.N,GNDPWR*%
X226960000Y-113500000D03*
%TD*%
D32*
%TO.P,C7,1*%
%TO.N,Net-(C7-Pad1)*%
X200600000Y-107700000D03*
%TO.P,C7,2*%
%TO.N,GNDPWR*%
X200600000Y-109600000D03*
%TD*%
D20*
%TO.P,C2,1*%
%TO.N,GNDPWR*%
X199350000Y-90250000D03*
%TO.P,C2,2*%
%TO.N,Net-(C2-Pad2)*%
X201250000Y-90250000D03*
%TD*%
D13*
%TO.P,C10,1*%
%TO.N,/15\u002C16*%
X202250000Y-115250000D03*
%TO.P,C10,2*%
%TO.N,GNDPWR*%
X200350000Y-115250000D03*
%TD*%
%TO.P,C5,1*%
%TO.N,GNDPWR*%
X206250000Y-96750000D03*
%TO.P,C5,2*%
%TO.N,Net-(C5-Pad2)*%
X204350000Y-96750000D03*
%TD*%
D17*
%TO.P,R5,1*%
%TO.N,/out*%
X216750000Y-104750000D03*
%TO.P,R5,2*%
%TO.N,GNDPWR*%
X215100000Y-104750000D03*
%TD*%
D13*
%TO.P,C11,1*%
%TO.N,Net-(Q2-G)*%
X202500000Y-112500000D03*
%TO.P,C11,2*%
%TO.N,GNDPWR*%
X200600000Y-112500000D03*
%TD*%
D33*
%TO.P,CR1,1*%
%TO.N,Net-(C7-Pad1)*%
X200600000Y-105600000D03*
%TO.P,CR1,2*%
%TO.N,Net-(Q1-D)*%
X200600000Y-102800000D03*
%TD*%
D13*
%TO.P,C13,1*%
%TO.N,GNDPWR*%
X211950000Y-115250000D03*
%TO.P,C13,2*%
%TO.N,/3.3v*%
X210050000Y-115250000D03*
%TD*%
%TO.P,C6,1*%
%TO.N,Net-(C6-Pad1)*%
X201750000Y-98500000D03*
%TO.P,C6,2*%
%TO.N,GNDPWR*%
X199850000Y-98500000D03*
%TD*%
D12*
%TO.P,Q2,1,G*%
%TO.N,Net-(Q2-G)*%
X205125000Y-111300000D03*
%TO.P,Q2,2,S*%
%TO.N,/15\u002C16*%
X205125000Y-113200000D03*
%TO.P,Q2,3,D*%
%TO.N,/3.3v*%
X207000000Y-112250000D03*
%TD*%
D33*
%TO.P,CR4,1*%
%TO.N,GNDPWR*%
X212150000Y-104700000D03*
%TO.P,CR4,2*%
%TO.N,Net-(C8-Pad2)*%
X209350000Y-104700000D03*
%TD*%
%TO.P,CR2,1*%
%TO.N,Net-(C8-Pad2)*%
X207750000Y-101550000D03*
%TO.P,CR2,2*%
%TO.N,Net-(C6-Pad1)*%
X207750000Y-98750000D03*
%TD*%
D34*
%TO.N,Net-(A1-GPIO12)*%
X201000000Y-87250000D03*
%TO.N,Net-(A1-GPIO14)*%
X208750000Y-63000000D03*
%TO.N,Net-(A1-GPIO19)*%
X200500000Y-89000000D03*
%TO.N,GNDPWR*%
X202000000Y-109500000D03*
X199750000Y-76750000D03*
X197750000Y-77130000D03*
X221750000Y-115500000D03*
X199850000Y-96750000D03*
X193750000Y-92000000D03*
X200350000Y-113900000D03*
X205250000Y-90500000D03*
X213750000Y-104750000D03*
X208000000Y-115000000D03*
X199350000Y-91500000D03*
%TO.N,Net-(Q1-D)*%
X202750000Y-102250000D03*
X206250000Y-79250000D03*
%TO.N,/3.3v*%
X205250000Y-116750000D03*
X209000000Y-117000000D03*
%TO.N,/15\u002C16*%
X202500000Y-90400000D03*
X198750000Y-116650000D03*
%TO.N,/out*%
X217000000Y-106250000D03*
%TD*%
D10*
%TO.N,Net-(A1-GPIO11)*%
X203400000Y-87000000D02*
X202801000Y-86401000D01*
X194500000Y-73250000D02*
X196550000Y-73250000D01*
X197861000Y-87389000D02*
X194111000Y-87389000D01*
X202801000Y-86401000D02*
X198849000Y-86401000D01*
X194000000Y-87278000D02*
X194000000Y-87000000D01*
X193750000Y-74000000D02*
X194500000Y-73250000D01*
X204000000Y-87000000D02*
X203400000Y-87000000D01*
X194111000Y-87389000D02*
X194000000Y-87278000D01*
X193750000Y-86750000D02*
X193750000Y-74000000D01*
X198849000Y-86401000D02*
X197861000Y-87389000D01*
X194000000Y-87000000D02*
X193750000Y-86750000D01*
%TO.N,Net-(A1-GPIO12)*%
X204000000Y-87500000D02*
X201250000Y-87500000D01*
X201250000Y-87500000D02*
X201000000Y-87250000D01*
%TO.N,Net-(A1-GPIO15)*%
X208750000Y-64250000D02*
X209500000Y-65000000D01*
X196550000Y-60550000D02*
X205300000Y-60550000D01*
X209000000Y-86500000D02*
X204000000Y-86500000D01*
X208750000Y-64000000D02*
X208750000Y-64250000D01*
X209500000Y-65000000D02*
X209500000Y-86000000D01*
X205300000Y-60550000D02*
X208750000Y-64000000D01*
X209500000Y-86000000D02*
X209000000Y-86500000D01*
%TO.N,Net-(A1-GPIO14)*%
X210500000Y-64750000D02*
X208750000Y-63000000D01*
X208750000Y-88500000D02*
X210500000Y-86750000D01*
X204000000Y-88500000D02*
X208750000Y-88500000D01*
X210500000Y-86750000D02*
X210500000Y-64750000D01*
%TO.N,Net-(A1-GPIO17)*%
X191750000Y-71250000D02*
X190750000Y-70250000D01*
X182187164Y-70250000D02*
X179076000Y-67138836D01*
X179076000Y-64196000D02*
X177970000Y-63090000D01*
X204000000Y-88000000D02*
X199397050Y-88000000D01*
X179076000Y-67138836D02*
X179076000Y-64196000D01*
X190750000Y-70250000D02*
X182187164Y-70250000D01*
X197647050Y-89750000D02*
X192750000Y-89750000D01*
X199397050Y-88000000D02*
X197647050Y-89750000D01*
X191750000Y-88750000D02*
X191750000Y-71250000D01*
X192750000Y-89750000D02*
X191750000Y-88750000D01*
%TO.N,Net-(A1-GPIO10)*%
X196840000Y-75500000D02*
X196550000Y-75790000D01*
X199000000Y-86000000D02*
X198750000Y-85750000D01*
X204000000Y-86000000D02*
X199000000Y-86000000D01*
X198750000Y-85750000D02*
X198750000Y-76000000D01*
X198250000Y-75500000D02*
X196840000Y-75500000D01*
X198750000Y-76000000D02*
X198250000Y-75500000D01*
%TO.N,Net-(A1-GPIO19)*%
X204000000Y-89000000D02*
X200500000Y-89000000D01*
%TO.N,Net-(C1-Pad1)*%
X202000000Y-84500000D02*
X201750000Y-84750000D01*
X204000000Y-84500000D02*
X202000000Y-84500000D01*
%TO.N,GNDPWR*%
X207750000Y-115250000D02*
X208000000Y-115000000D01*
X226500000Y-115500000D02*
X227000000Y-115000000D01*
X221750000Y-115500000D02*
X226500000Y-115500000D01*
X211950000Y-115250000D02*
X216900000Y-115250000D01*
X213700000Y-104700000D02*
X212150000Y-104700000D01*
X227000000Y-115000000D02*
X227000000Y-113540000D01*
X216900000Y-115400000D02*
X217000000Y-115500000D01*
X199350000Y-91500000D02*
X199350000Y-90250000D01*
X202750000Y-76750000D02*
X203750000Y-77750000D01*
X212250000Y-96750000D02*
X213750000Y-98250000D01*
X204000000Y-90500000D02*
X205250000Y-90500000D01*
X200350000Y-115250000D02*
X200350000Y-113900000D01*
X200350000Y-113900000D02*
X200600000Y-113650000D01*
X199850000Y-96750000D02*
X199850000Y-95250000D01*
X206250000Y-96750000D02*
X206250000Y-97450000D01*
X206700000Y-115250000D02*
X207750000Y-115250000D01*
X219750000Y-113700000D02*
X219750000Y-114750000D01*
X216900000Y-112550000D02*
X216900000Y-115250000D01*
X196550000Y-78330000D02*
X197750000Y-77130000D01*
X213750000Y-104750000D02*
X215100000Y-104750000D01*
X194720000Y-91030000D02*
X193750000Y-92000000D01*
X197750000Y-77130000D02*
X197750000Y-77000000D01*
X177170000Y-65630000D02*
X177170000Y-65799936D01*
X217000000Y-115500000D02*
X219750000Y-115500000D01*
X196550000Y-65630000D02*
X199250000Y-65630000D01*
X195750000Y-91030000D02*
X194720000Y-91030000D01*
X200600000Y-113650000D02*
X200600000Y-112500000D01*
X199350000Y-92750000D02*
X199350000Y-91500000D01*
X213750000Y-98250000D02*
X213750000Y-104450000D01*
X199850000Y-98500000D02*
X199850000Y-96750000D01*
X195750000Y-65630000D02*
X195750000Y-65500000D01*
X206250000Y-96750000D02*
X212250000Y-96750000D01*
X203750000Y-77750000D02*
X203750000Y-78750000D01*
X219750000Y-114750000D02*
X220500000Y-115500000D01*
X213750000Y-104450000D02*
X213500000Y-104700000D01*
X199750000Y-76750000D02*
X199750000Y-66130000D01*
X216900000Y-115250000D02*
X216900000Y-115400000D01*
X199750000Y-66130000D02*
X199250000Y-65630000D01*
X199750000Y-76750000D02*
X202750000Y-76750000D01*
X199349000Y-77151000D02*
X199750000Y-76750000D01*
X220500000Y-115500000D02*
X221750000Y-115500000D01*
X213750000Y-104750000D02*
X213700000Y-104700000D01*
X199850000Y-84750000D02*
X199349000Y-84249000D01*
X201900000Y-109600000D02*
X202000000Y-109500000D01*
X195750000Y-103730000D02*
X195730000Y-103730000D01*
X227000000Y-113540000D02*
X226960000Y-113500000D01*
X200600000Y-109600000D02*
X201900000Y-109600000D01*
X219750000Y-115500000D02*
X220500000Y-115500000D01*
X199349000Y-84249000D02*
X199349000Y-77151000D01*
X195750000Y-78330000D02*
X195750000Y-78000000D01*
%TO.N,Net-(C2-Pad2)*%
X201250000Y-90250000D02*
X202000000Y-91000000D01*
X202000000Y-91000000D02*
X204000000Y-91000000D01*
%TO.N,Net-(C3-Pad2)*%
X202200000Y-92000000D02*
X204000000Y-92000000D01*
X201450000Y-92750000D02*
X202200000Y-92000000D01*
%TO.N,Net-(C4-Pad2)*%
X201450000Y-95250000D02*
X202250000Y-95250000D01*
X202250000Y-95250000D02*
X202599000Y-94901000D01*
X202698000Y-93000000D02*
X204000000Y-93000000D01*
X202599000Y-94901000D02*
X202599000Y-93099000D01*
X202599000Y-93099000D02*
X202698000Y-93000000D01*
%TO.N,Net-(C5-Pad2)*%
X204000000Y-94000000D02*
X204000000Y-96400000D01*
X204000000Y-96400000D02*
X204350000Y-96750000D01*
%TO.N,Net-(C6-Pad1)*%
X201750000Y-98500000D02*
X203000000Y-98500000D01*
X203250000Y-93500000D02*
X203000000Y-93750000D01*
X203750000Y-98500000D02*
X207500000Y-98500000D01*
X207500000Y-98500000D02*
X207750000Y-98750000D01*
X203000000Y-93750000D02*
X203000000Y-97750000D01*
X203000000Y-97750000D02*
X203750000Y-98500000D01*
X204000000Y-93500000D02*
X203250000Y-93500000D01*
X203000000Y-98500000D02*
X203750000Y-98500000D01*
%TO.N,Net-(C7-Pad1)*%
X201948000Y-94000000D02*
X199000000Y-94000000D01*
X202198000Y-93750000D02*
X201948000Y-94000000D01*
X204000000Y-92500000D02*
X202567100Y-92500000D01*
X198750000Y-94250000D02*
X198750000Y-106250000D01*
X202198000Y-92869100D02*
X202198000Y-93750000D01*
X200600000Y-106750000D02*
X200600000Y-107700000D01*
X200600000Y-105600000D02*
X200600000Y-106750000D01*
X199250000Y-106750000D02*
X200600000Y-106750000D01*
X199000000Y-94000000D02*
X198750000Y-94250000D01*
X198750000Y-106250000D02*
X199250000Y-106750000D01*
X202567100Y-92500000D02*
X202198000Y-92869100D01*
%TO.N,Net-(Q1-D)*%
X203250000Y-103000000D02*
X204000000Y-103000000D01*
X205750000Y-75000000D02*
X206250000Y-75500000D01*
X200600000Y-102800000D02*
X200900000Y-102500000D01*
X196500000Y-113000000D02*
X196500000Y-111500000D01*
X201150000Y-102250000D02*
X200600000Y-102800000D01*
X206250000Y-75500000D02*
X206250000Y-79250000D01*
X202750000Y-110750000D02*
X202750000Y-103500000D01*
X196500000Y-111500000D02*
X197000000Y-111000000D01*
X204300000Y-103300000D02*
X204300000Y-104750000D01*
X201500000Y-102250000D02*
X201150000Y-102250000D01*
X204000000Y-103000000D02*
X204300000Y-103300000D01*
X202750000Y-103500000D02*
X201500000Y-102250000D01*
X197000000Y-111000000D02*
X202500000Y-111000000D01*
X202750000Y-102250000D02*
X201500000Y-102250000D01*
X202500000Y-111000000D02*
X202750000Y-110750000D01*
X202750000Y-103500000D02*
X203250000Y-103000000D01*
%TO.N,Net-(C8-Pad2)*%
X207750000Y-104250000D02*
X208250000Y-104750000D01*
X208250000Y-104750000D02*
X209300000Y-104750000D01*
X207950000Y-104750000D02*
X208250000Y-104750000D01*
X209300000Y-104750000D02*
X209350000Y-104700000D01*
X206200000Y-104750000D02*
X207950000Y-104750000D01*
X207750000Y-101550000D02*
X207750000Y-104250000D01*
X207950000Y-101750000D02*
X207750000Y-101550000D01*
%TO.N,Net-(Q1-G)*%
X207250000Y-80250000D02*
X206750000Y-80750000D01*
X201750000Y-81500000D02*
X201750000Y-82500000D01*
X207250000Y-73000000D02*
X207250000Y-80250000D01*
X204500000Y-72000000D02*
X206250000Y-72000000D01*
X201750000Y-82500000D02*
X202250000Y-83000000D01*
X203875000Y-72625000D02*
X204500000Y-72000000D01*
X202500000Y-80750000D02*
X201750000Y-81500000D01*
X206750000Y-80750000D02*
X202500000Y-80750000D01*
X206250000Y-72000000D02*
X207250000Y-73000000D01*
X203875000Y-74050000D02*
X203875000Y-72625000D01*
%TO.N,Net-(Q1-S)*%
X200825000Y-78750000D02*
X200250000Y-78750000D01*
X199750000Y-79250000D02*
X199750000Y-82750000D01*
X203875000Y-75950000D02*
X203875000Y-76625000D01*
X201750000Y-83500000D02*
X201250000Y-83000000D01*
X204750000Y-80250000D02*
X202250000Y-80250000D01*
X203875000Y-76625000D02*
X204500000Y-77250000D01*
X199750000Y-82750000D02*
X200500000Y-83500000D01*
X202250000Y-80250000D02*
X201250000Y-81250000D01*
X205250000Y-79750000D02*
X204750000Y-80250000D01*
X205250000Y-77250000D02*
X205250000Y-79750000D01*
X204000000Y-83500000D02*
X201750000Y-83500000D01*
X201250000Y-83000000D02*
X201250000Y-81250000D01*
X200250000Y-78750000D02*
X199750000Y-79250000D01*
X200500000Y-83500000D02*
X201750000Y-83500000D01*
X204500000Y-77250000D02*
X205250000Y-77250000D01*
%TO.N,/3.3v*%
X208000000Y-112250000D02*
X208500000Y-111750000D01*
X204750000Y-117250000D02*
X182750000Y-117250000D01*
X205250000Y-116750000D02*
X204750000Y-117250000D01*
X210600000Y-110250000D02*
X216900000Y-110250000D01*
X182750000Y-117250000D02*
X181250000Y-115750000D01*
X209100000Y-115250000D02*
X209100000Y-115900000D01*
X208750000Y-109000000D02*
X208750000Y-111500000D01*
X209100000Y-115250000D02*
X210050000Y-115250000D01*
X209100000Y-111750000D02*
X209100000Y-115250000D01*
X207000000Y-112250000D02*
X208000000Y-112250000D01*
X181250000Y-107500000D02*
X180020000Y-106270000D01*
X208250000Y-108500000D02*
X208750000Y-109000000D01*
X208500000Y-111750000D02*
X209100000Y-111750000D01*
X209000000Y-116000000D02*
X209100000Y-115900000D01*
X207462500Y-108500000D02*
X208250000Y-108500000D01*
X180020000Y-106270000D02*
X177970000Y-106270000D01*
X181250000Y-115750000D02*
X181250000Y-107500000D01*
X209100000Y-111750000D02*
X210600000Y-110250000D01*
X209000000Y-117000000D02*
X209000000Y-116000000D01*
X208750000Y-111500000D02*
X208500000Y-111750000D01*
%TO.N,/15\u002C16*%
X202500000Y-90400000D02*
X202250000Y-90150000D01*
X203750000Y-113750000D02*
X203750000Y-115000000D01*
X204800000Y-115250000D02*
X204025000Y-116025000D01*
X202250000Y-115250000D02*
X203500000Y-115250000D01*
X198250000Y-116650000D02*
X198150000Y-116750000D01*
X203000000Y-90000000D02*
X202750000Y-89750000D01*
X199250000Y-116650000D02*
X199400000Y-116500000D01*
X203750000Y-115000000D02*
X203750000Y-115750000D01*
X202750000Y-89750000D02*
X202750000Y-89500000D01*
X202250000Y-89750000D02*
X202500000Y-89500000D01*
X203750000Y-115750000D02*
X204025000Y-116025000D01*
X199400000Y-116500000D02*
X203550000Y-116500000D01*
X198750000Y-116650000D02*
X199250000Y-116650000D01*
X196500000Y-116500000D02*
X196500000Y-115438400D01*
X202500000Y-89500000D02*
X202750000Y-89500000D01*
X205125000Y-113200000D02*
X204300000Y-113200000D01*
X202750000Y-89500000D02*
X204000000Y-89500000D01*
X198150000Y-116750000D02*
X196750000Y-116750000D01*
X196750000Y-116750000D02*
X196500000Y-116500000D01*
X202250000Y-90150000D02*
X202250000Y-89750000D01*
X203500000Y-115250000D02*
X203750000Y-115000000D01*
X203550000Y-116500000D02*
X204025000Y-116025000D01*
X204300000Y-113200000D02*
X203750000Y-113750000D01*
X204000000Y-90000000D02*
X203000000Y-90000000D01*
X198750000Y-116650000D02*
X198250000Y-116650000D01*
%TO.N,Net-(Q2-G)*%
X203500000Y-112000000D02*
X203000000Y-112000000D01*
X203500000Y-110750000D02*
X203500000Y-112000000D01*
X204050000Y-111300000D02*
X205125000Y-111300000D01*
X204537500Y-108500000D02*
X203750000Y-108500000D01*
X203500000Y-108750000D02*
X203500000Y-110750000D01*
X203000000Y-112000000D02*
X202500000Y-112500000D01*
X203500000Y-110750000D02*
X204050000Y-111300000D01*
X203750000Y-108500000D02*
X203500000Y-108750000D01*
%TO.N,/idk*%
X220950000Y-107950000D02*
X221750000Y-107150000D01*
X218950000Y-107950000D02*
X219750000Y-108750000D01*
X221750000Y-106175000D02*
X220726000Y-105151000D01*
X220726000Y-105151000D02*
X220325000Y-105151000D01*
X218750000Y-107950000D02*
X218950000Y-107950000D01*
X221750000Y-107000000D02*
X224750000Y-107000000D01*
X221750000Y-107000000D02*
X221750000Y-106175000D01*
X218750000Y-107950000D02*
X220950000Y-107950000D01*
X219750000Y-108750000D02*
X219750000Y-111800000D01*
X221750000Y-107150000D02*
X221750000Y-107000000D01*
X216900000Y-107950000D02*
X218750000Y-107950000D01*
%TO.N,Net-(J2-Pin_1)*%
X236250000Y-112500000D02*
X236250000Y-107750000D01*
X232040000Y-113500000D02*
X235250000Y-113500000D01*
X236250000Y-107750000D02*
X235500000Y-107000000D01*
X235250000Y-113500000D02*
X236250000Y-112500000D01*
X235500000Y-107000000D02*
X233930000Y-107000000D01*
%TO.N,/out*%
X217750000Y-105000000D02*
X217750000Y-105500000D01*
X217750000Y-105500000D02*
X217000000Y-106250000D01*
X216750000Y-104750000D02*
X217750000Y-104750000D01*
X217500000Y-104750000D02*
X217750000Y-105000000D01*
X217750000Y-104750000D02*
X218675000Y-104750000D01*
%TD*%
M02*
