M48
; DRILL file {KiCad 9.0.4} date 2026-03-05T20:12:13-0500
; FORMAT={-:-/ absolute / metric / decimal}
; #@! TF.CreationDate,2026-03-05T20:12:13-05:00
; #@! TF.GenerationSoftware,Kicad,Pcbnew,9.0.4
; #@! TF.FileFunction,Plated,1,2,PTH
FMAT,2
METRIC
; #@! TA.AperFunction,Plated,PTH,ViaDrill
T1C0.300
; #@! TA.AperFunction,Plated,PTH,ComponentDrill
T2C1.000
; #@! TA.AperFunction,Plated,PTH,ComponentDrill
T3C1.100
%
G90
G05
T1
X193.75Y-92.0
X197.75Y-77.13
X198.75Y-116.65
X199.35Y-91.5
X199.75Y-76.75
X199.85Y-96.75
X200.35Y-113.9
X200.5Y-89.0
X201.0Y-87.25
X202.0Y-109.5
X202.5Y-90.4
X202.75Y-102.25
X205.25Y-90.5
X205.25Y-116.75
X206.25Y-79.25
X208.0Y-115.0
X208.75Y-63.0
X209.0Y-117.0
X213.75Y-104.75
X217.0Y-106.25
X221.75Y-115.5
T2
X177.97Y-60.55
X177.97Y-63.09
X177.97Y-65.63
X177.97Y-68.17
X177.97Y-70.71
X177.97Y-73.25
X177.97Y-75.79
X177.97Y-78.33
X177.97Y-80.87
X177.97Y-83.41
X177.97Y-85.95
X177.97Y-88.49
X177.97Y-91.03
X177.97Y-93.57
X177.97Y-96.11
X177.97Y-98.65
X177.97Y-101.19
X177.97Y-103.73
X177.97Y-106.27
X177.97Y-108.81
X195.75Y-60.55
X195.75Y-63.09
X195.75Y-65.63
X195.75Y-68.17
X195.75Y-70.71
X195.75Y-73.25
X195.75Y-75.79
X195.75Y-78.33
X195.75Y-80.87
X195.75Y-83.41
X195.75Y-85.95
X195.75Y-88.49
X195.75Y-91.03
X195.75Y-93.57
X195.75Y-96.11
X195.75Y-98.65
X195.75Y-101.19
X195.75Y-103.73
X195.75Y-106.27
X195.75Y-108.81
T3
X226.96Y-113.5
X232.04Y-113.5
M30
