%TF.GenerationSoftware,KiCad,Pcbnew,9.0.4*%
%TF.CreationDate,2026-03-05T20:12:09-05:00*%
%TF.ProjectId,DisplayBoard,44697370-6c61-4794-926f-6172642e6b69,rev?*%
%TF.SameCoordinates,Original*%
%TF.FileFunction,Soldermask,Top*%
%TF.FilePolarity,Negative*%
%FSLAX46Y46*%
G04 Gerber Fmt 4.6, Leading zero omitted, Abs format (unit mm)*
G04 Created by KiCad (PCBNEW 9.0.4) date 2026-03-05 20:12:09*
%MOMM*%
%LPD*%
G01*
G04 APERTURE LIST*
G04 Aperture macros list*
%AMRoundRect*
0 Rectangle with rounded corners*
0 $1 Rounding radius*
0 $2 $3 $4 $5 $6 $7 $8 $9 X,Y pos of 4 corners*
0 Add a 4 corners polygon primitive as box body*
4,1,4,$2,$3,$4,$5,$6,$7,$8,$9,$2,$3,0*
0 Add four circle primitives for the rounded corners*
1,1,$1+$1,$2,$3*
1,1,$1+$1,$4,$5*
1,1,$1+$1,$6,$7*
1,1,$1+$1,$8,$9*
0 Add four rect primitives between the rounded corners*
20,1,$1+$1,$2,$3,$4,$5,0*
20,1,$1+$1,$4,$5,$6,$7,0*
20,1,$1+$1,$6,$7,$8,$9,0*
20,1,$1+$1,$8,$9,$2,$3,0*%
%AMFreePoly0*
4,1,37,0.800000,0.796148,0.878414,0.796148,1.032228,0.765552,1.177117,0.705537,1.307515,0.618408,1.418408,0.507515,1.505537,0.377117,1.565552,0.232228,1.596148,0.078414,1.596148,-0.078414,1.565552,-0.232228,1.505537,-0.377117,1.418408,-0.507515,1.307515,-0.618408,1.177117,-0.705537,1.032228,-0.765552,0.878414,-0.796148,0.800000,-0.796148,0.800000,-0.800000,-1.400000,-0.800000,
-1.403843,-0.796157,-1.439018,-0.796157,-1.511114,-0.766294,-1.566294,-0.711114,-1.596157,-0.639018,-1.596157,-0.603843,-1.600000,-0.600000,-1.600000,0.600000,-1.596157,0.603843,-1.596157,0.639018,-1.566294,0.711114,-1.511114,0.766294,-1.439018,0.796157,-1.403843,0.796157,-1.400000,0.800000,0.800000,0.800000,0.800000,0.796148,0.800000,0.796148,$1*%
%AMFreePoly1*
4,1,37,1.403843,0.796157,1.439018,0.796157,1.511114,0.766294,1.566294,0.711114,1.596157,0.639018,1.596157,0.603843,1.600000,0.600000,1.600000,-0.600000,1.596157,-0.603843,1.596157,-0.639018,1.566294,-0.711114,1.511114,-0.766294,1.439018,-0.796157,1.403843,-0.796157,1.400000,-0.800000,-0.800000,-0.800000,-0.800000,-0.796148,-0.878414,-0.796148,-1.032228,-0.765552,-1.177117,-0.705537,
-1.307515,-0.618408,-1.418408,-0.507515,-1.505537,-0.377117,-1.565552,-0.232228,-1.596148,-0.078414,-1.596148,0.078414,-1.565552,0.232228,-1.505537,0.377117,-1.418408,0.507515,-1.307515,0.618408,-1.177117,0.705537,-1.032228,0.765552,-0.878414,0.796148,-0.800000,0.796148,-0.800000,0.800000,1.400000,0.800000,1.403843,0.796157,1.403843,0.796157,$1*%
%AMFreePoly2*
4,1,37,0.603843,0.796157,0.639018,0.796157,0.711114,0.766294,0.766294,0.711114,0.796157,0.639018,0.796157,0.603843,0.800000,0.600000,0.800000,-0.600000,0.796157,-0.603843,0.796157,-0.639018,0.766294,-0.711114,0.711114,-0.766294,0.639018,-0.796157,0.603843,-0.796157,0.600000,-0.800000,0.000000,-0.800000,0.000000,-0.796148,-0.078414,-0.796148,-0.232228,-0.765552,-0.377117,-0.705537,
-0.507515,-0.618408,-0.618408,-0.507515,-0.705537,-0.377117,-0.765552,-0.232228,-0.796148,-0.078414,-0.796148,0.078414,-0.765552,0.232228,-0.705537,0.377117,-0.618408,0.507515,-0.507515,0.618408,-0.377117,0.705537,-0.232228,0.765552,-0.078414,0.796148,0.000000,0.796148,0.000000,0.800000,0.600000,0.800000,0.603843,0.796157,0.603843,0.796157,$1*%
%AMFreePoly3*
4,1,37,0.000000,0.796148,0.078414,0.796148,0.232228,0.765552,0.377117,0.705537,0.507515,0.618408,0.618408,0.507515,0.705537,0.377117,0.765552,0.232228,0.796148,0.078414,0.796148,-0.078414,0.765552,-0.232228,0.705537,-0.377117,0.618408,-0.507515,0.507515,-0.618408,0.377117,-0.705537,0.232228,-0.765552,0.078414,-0.796148,0.000000,-0.796148,0.000000,-0.800000,-0.600000,-0.800000,
-0.603843,-0.796157,-0.639018,-0.796157,-0.711114,-0.766294,-0.766294,-0.711114,-0.796157,-0.639018,-0.796157,-0.603843,-0.800000,-0.600000,-0.800000,0.600000,-0.796157,0.603843,-0.796157,0.639018,-0.766294,0.711114,-0.711114,0.766294,-0.639018,0.796157,-0.603843,0.796157,-0.600000,0.800000,0.000000,0.800000,0.000000,0.796148,0.000000,0.796148,$1*%
G04 Aperture macros list end*
%ADD10R,1.397000X1.574800*%
%ADD11RoundRect,0.150000X-0.587500X-0.150000X0.587500X-0.150000X0.587500X0.150000X-0.587500X0.150000X0*%
%ADD12RoundRect,0.250000X0.250000X0.475000X-0.250000X0.475000X-0.250000X-0.475000X0.250000X-0.475000X0*%
%ADD13RoundRect,0.250000X0.312500X0.625000X-0.312500X0.625000X-0.312500X-0.625000X0.312500X-0.625000X0*%
%ADD14RoundRect,0.050000X0.400000X-0.150000X0.400000X0.150000X-0.400000X0.150000X-0.400000X-0.150000X0*%
%ADD15RoundRect,0.102000X0.400000X-0.200000X0.400000X0.200000X-0.400000X0.200000X-0.400000X-0.200000X0*%
%ADD16C,4.500000*%
%ADD17RoundRect,0.200000X0.200000X0.275000X-0.200000X0.275000X-0.200000X-0.275000X0.200000X-0.275000X0*%
%ADD18R,2.000000X1.500000*%
%ADD19R,2.000000X3.800000*%
%ADD20RoundRect,0.250000X-0.250000X-0.475000X0.250000X-0.475000X0.250000X0.475000X-0.250000X0.475000X0*%
%ADD21R,2.180000X1.600000*%
%ADD22RoundRect,0.250000X0.475000X-0.250000X0.475000X0.250000X-0.475000X0.250000X-0.475000X-0.250000X0*%
%ADD23C,2.200000*%
%ADD24C,1.850000*%
%ADD25FreePoly0,180.000000*%
%ADD26RoundRect,0.200000X0.600000X0.600000X-0.600000X0.600000X-0.600000X-0.600000X0.600000X-0.600000X0*%
%ADD27RoundRect,0.800000X0.800000X0.000010X-0.800000X0.000010X-0.800000X-0.000010X0.800000X-0.000010X0*%
%ADD28C,1.600000*%
%ADD29FreePoly1,180.000000*%
%ADD30FreePoly2,180.000000*%
%ADD31FreePoly3,180.000000*%
%ADD32R,3.000000X3.000000*%
%ADD33C,3.000000*%
%ADD34RoundRect,0.250000X-0.475000X0.250000X-0.475000X-0.250000X0.475000X-0.250000X0.475000X0.250000X0*%
%ADD35R,1.200000X1.200000*%
G04 APERTURE END LIST*
D10*
%TO.C,SRP3012TA-100M1*%
X196500000Y-115438400D03*
X196500000Y-113000000D03*
%TD*%
D11*
%TO.C,Q1*%
X203875000Y-74050000D03*
X203875000Y-75950000D03*
X205750000Y-75000000D03*
%TD*%
D12*
%TO.C,C1*%
X201750000Y-84750000D03*
X199850000Y-84750000D03*
%TD*%
D13*
%TO.C,R2*%
X207462500Y-108500000D03*
X204537500Y-108500000D03*
%TD*%
D14*
%TO.C,J1*%
X204000000Y-82500000D03*
X204000000Y-83000000D03*
X204000000Y-83500000D03*
X204000000Y-84000000D03*
X204000000Y-84500000D03*
X204000000Y-85000000D03*
X204000000Y-85500000D03*
X204000000Y-86000000D03*
X204000000Y-86500000D03*
X204000000Y-87000000D03*
X204000000Y-87500000D03*
X204000000Y-88000000D03*
X204000000Y-88500000D03*
X204000000Y-89000000D03*
X204000000Y-89500000D03*
X204000000Y-90000000D03*
X204000000Y-90500000D03*
X204000000Y-91000000D03*
X204000000Y-91500000D03*
X204000000Y-92000000D03*
X204000000Y-92500000D03*
X204000000Y-93000000D03*
X204000000Y-93500000D03*
X204000000Y-94000000D03*
D15*
X206500000Y-95000000D03*
X206500000Y-81500000D03*
%TD*%
D16*
%TO.C,H1*%
X267500000Y-65500000D03*
%TD*%
D17*
%TO.C,R3*%
X220325000Y-104750000D03*
X218675000Y-104750000D03*
%TD*%
D18*
%TO.C,VR1*%
X216900000Y-112550000D03*
X216900000Y-110250000D03*
D19*
X210600000Y-110250000D03*
D18*
X216900000Y-107950000D03*
%TD*%
D20*
%TO.C,C3*%
X199350000Y-92750000D03*
X201250000Y-92750000D03*
%TD*%
%TO.C,C4*%
X199850000Y-95250000D03*
X201750000Y-95250000D03*
%TD*%
D21*
%TO.C,SW1*%
X233930000Y-107000000D03*
X224750000Y-107000000D03*
%TD*%
D22*
%TO.C,C12*%
X219750000Y-113700000D03*
X219750000Y-111800000D03*
%TD*%
D23*
%TO.C,A1*%
X189585000Y-108680000D03*
D24*
X189285000Y-105650000D03*
X184435000Y-105650000D03*
D23*
X184135000Y-108680000D03*
D25*
X196550000Y-108810000D03*
D26*
X195750000Y-108810000D03*
D27*
X196550000Y-106270000D03*
D28*
X195750000Y-106270000D03*
D29*
X196550000Y-103730000D03*
D30*
X195750000Y-103730000D03*
D27*
X196550000Y-101190000D03*
D28*
X195750000Y-101190000D03*
D27*
X196550000Y-98650000D03*
D28*
X195750000Y-98650000D03*
D27*
X196550000Y-96110000D03*
D28*
X195750000Y-96110000D03*
D27*
X196550000Y-93570000D03*
D28*
X195750000Y-93570000D03*
D29*
X196550000Y-91030000D03*
D30*
X195750000Y-91030000D03*
D27*
X196550000Y-88490000D03*
D28*
X195750000Y-88490000D03*
D27*
X196550000Y-85950000D03*
D28*
X195750000Y-85950000D03*
D27*
X196550000Y-83410000D03*
D28*
X195750000Y-83410000D03*
D27*
X196550000Y-80870000D03*
D28*
X195750000Y-80870000D03*
D29*
X196550000Y-78330000D03*
D30*
X195750000Y-78330000D03*
D27*
X196550000Y-75790000D03*
D28*
X195750000Y-75790000D03*
D27*
X196550000Y-73250000D03*
D28*
X195750000Y-73250000D03*
D27*
X196550000Y-70710000D03*
D28*
X195750000Y-70710000D03*
D27*
X196550000Y-68170000D03*
D28*
X195750000Y-68170000D03*
D29*
X196550000Y-65630000D03*
D30*
X195750000Y-65630000D03*
D27*
X196550000Y-63090000D03*
D28*
X195750000Y-63090000D03*
D27*
X196550000Y-60550000D03*
D28*
X195750000Y-60550000D03*
X177970000Y-60550000D03*
D27*
X177170000Y-60550000D03*
D28*
X177970000Y-63090000D03*
D27*
X177170000Y-63090000D03*
D31*
X177970000Y-65630000D03*
D25*
X177170000Y-65630000D03*
D28*
X177970000Y-68170000D03*
D27*
X177170000Y-68170000D03*
D28*
X177970000Y-70710000D03*
D27*
X177170000Y-70710000D03*
D28*
X177970000Y-73250000D03*
D27*
X177170000Y-73250000D03*
D28*
X177970000Y-75790000D03*
D27*
X177170000Y-75790000D03*
D31*
X177970000Y-78330000D03*
D25*
X177170000Y-78330000D03*
D28*
X177970000Y-80870000D03*
D27*
X177170000Y-80870000D03*
D28*
X177970000Y-83410000D03*
D27*
X177170000Y-83410000D03*
D28*
X177970000Y-85950000D03*
D27*
X177170000Y-85950000D03*
D28*
X177970000Y-88490000D03*
D27*
X177170000Y-88490000D03*
D31*
X177970000Y-91030000D03*
D25*
X177170000Y-91030000D03*
D28*
X177970000Y-93570000D03*
D27*
X177170000Y-93570000D03*
D28*
X177970000Y-96110000D03*
D27*
X177170000Y-96110000D03*
D28*
X177970000Y-98650000D03*
D27*
X177170000Y-98650000D03*
D28*
X177970000Y-101190000D03*
D27*
X177170000Y-101190000D03*
D31*
X177970000Y-103730000D03*
D25*
X177170000Y-103730000D03*
D28*
X177970000Y-106270000D03*
D27*
X177170000Y-106270000D03*
D28*
X177970000Y-108810000D03*
D27*
X177170000Y-108810000D03*
%TD*%
D20*
%TO.C,C8*%
X204300000Y-104750000D03*
X206200000Y-104750000D03*
%TD*%
D13*
%TO.C,R1*%
X203750000Y-78750000D03*
X200825000Y-78750000D03*
%TD*%
D20*
%TO.C,C9*%
X204800000Y-115250000D03*
X206700000Y-115250000D03*
%TD*%
D32*
%TO.C,J2*%
X232040000Y-113500000D03*
D33*
X226960000Y-113500000D03*
%TD*%
D34*
%TO.C,C7*%
X200600000Y-107700000D03*
X200600000Y-109600000D03*
%TD*%
D16*
%TO.C,H2*%
X245000000Y-111000000D03*
%TD*%
D20*
%TO.C,C2*%
X199350000Y-90250000D03*
X201250000Y-90250000D03*
%TD*%
D12*
%TO.C,C10*%
X202250000Y-115250000D03*
X200350000Y-115250000D03*
%TD*%
%TO.C,C5*%
X206250000Y-96750000D03*
X204350000Y-96750000D03*
%TD*%
D17*
%TO.C,R5*%
X216750000Y-104750000D03*
X215100000Y-104750000D03*
%TD*%
D12*
%TO.C,C11*%
X202500000Y-112500000D03*
X200600000Y-112500000D03*
%TD*%
D35*
%TO.C,CR1*%
X200600000Y-105600000D03*
X200600000Y-102800000D03*
%TD*%
D12*
%TO.C,C13*%
X211950000Y-115250000D03*
X210050000Y-115250000D03*
%TD*%
%TO.C,C6*%
X201750000Y-98500000D03*
X199850000Y-98500000D03*
%TD*%
D11*
%TO.C,Q2*%
X205125000Y-111300000D03*
X205125000Y-113200000D03*
X207000000Y-112250000D03*
%TD*%
D35*
%TO.C,CR4*%
X212150000Y-104700000D03*
X209350000Y-104700000D03*
%TD*%
%TO.C,CR2*%
X207750000Y-101550000D03*
X207750000Y-98750000D03*
%TD*%
M02*
